<?xml version="1.0" encoding="utf-8"?>
<!-- Generator: Adobe Illustrator 22.1.0, SVG Export Plug-In . SVG Version: 6.00 Build 0)  -->
<svg version="1.1" id="Layer_1" xmlns="http://www.w3.org/2000/svg" xmlns:xlink="http://www.w3.org/1999/xlink" x="0px" y="0px"
	 viewBox="0 0 32 32" style="enable-background:new 0 0 32 32;" xml:space="preserve">
<g>
	<path d="M23.5,24.5c0.2-0.3,0.4-0.7,0.5-1.1s0.2-0.8,0.2-1.3c0-1-0.3-1.8-0.8-2.4s-1.4-0.8-2.5-0.8c-1.2,0-2,0.3-2.6,1
		s-0.8,1.6-0.8,2.7v0.6h2.4v-0.6c0-0.5,0.1-0.9,0.2-1.2s0.4-0.4,0.8-0.4c0.3,0,0.4,0.1,0.6,0.3s0.2,0.4,0.2,0.8s-0.1,0.8-0.3,1.2
		c-0.2,0.4-0.5,0.9-0.8,1.4L20.4,25l-2.9,4.5v1.8h6.4v-2h-3.6l2.2-3.3C23,25.3,23.3,24.8,23.5,24.5z"/>
	<path d="M30.2,19h-2.9l-3.2,7.6v1.8h3.7v2.7h2.3v-2.7h1.1v-1.9h-1.1V19H30.2z M27.9,26.6h-1.8l1.8-5.1V26.6z"/>
	<path d="M16.2,28.5L16.2,28.5c-3.6,0.1-6.9-1.4-9.3-4c-2-2.2-3.2-5-3.3-7.9h1.5c0.3,0,0.6-0.3,0.6-0.6s-0.3-0.6-0.6-0.6H3.6
		c0.2-3.3,1.6-6.4,4-8.6c2.2-2,4.9-3.1,7.8-3.3v1.3c0,0.3,0.3,0.6,0.6,0.6c0.3,0,0.6-0.3,0.6-0.6V3.5l0,0c3.3,0.1,6.4,1.6,8.7,4
		c1.6,1.8,2.7,3.9,3.1,6.2c0.1,0.7,0.2,1.4,0.1,2.2c0,0-0.8-1-0.9-1.2s-0.4-0.2-0.7,0c-0.3,0.2-0.2,0.6-0.1,0.7
		c0.1,0.2,2.1,2.6,2.1,2.6s2.3-2.6,2.4-2.7c0.1-0.1,0.2-0.4,0-0.7s-0.6-0.2-0.7-0.1c-0.1,0.1-1.1,1.3-1.1,1.3c0-0.4,0-0.7,0-1l0,0
		c0-0.1,0-0.2,0-0.3c0-0.4-0.1-1.1-0.2-1.4l0,0c-0.5-2.2-1.5-4.3-3.2-6.1c-2.4-2.7-5.8-4.2-9.4-4.3c-0.2,0-0.4,0-0.6,0l0,0l0,0
		c-3.4,0-6.5,1.3-9,3.6c-2.7,2.4-4.2,5.8-4.3,9.4c-0.1,3.6,1.1,7.1,3.6,9.7c2.5,2.8,6.2,4.3,9.9,4.3h0.1c0.3,0,0.5-0.2,0.5-0.5
		S16.8,28.5,16.2,28.5z"/>
	<path d="M23.2,8.5c0.2-0.2,0.2-0.6-0.1-0.8c-0.2-0.2-0.6-0.2-0.8,0.1c0,0-5.8,6.9-5.9,7.1c-0.2-0.1-0.3-0.1-0.5-0.1
		c-0.2,0-0.4,0.1-0.6,0.2l-0.2-0.2l-4.7-4.1c-0.2-0.2-0.6-0.2-0.8,0.1c-0.2,0.2-0.2,0.6,0.1,0.8l4.7,4.1l0.2,0.1
		c-0.1,0.1-0.1,0.3-0.1,0.4c0,0.8,0.6,1.4,1.4,1.4c0.8,0,1.4-0.6,1.4-1.4c0-0.2-0.1-0.5-0.2-0.7C17.2,15.5,23.2,8.5,23.2,8.5z
		 M15.9,16.6c-0.2,0-0.4-0.2-0.4-0.4c0-0.2,0.2-0.4,0.4-0.4s0.4,0.2,0.4,0.4S16.1,16.6,15.9,16.6z"/>
</g>
</svg>
