<?xml version="1.0" encoding="utf-8"?>
<!-- Generator: Adobe Illustrator 22.1.0, SVG Export Plug-In . SVG Version: 6.00 Build 0)  -->
<svg version="1.1" id="Layer_1" xmlns="http://www.w3.org/2000/svg" xmlns:xlink="http://www.w3.org/1999/xlink" x="0px" y="0px"
	 viewBox="0 0 32 32" style="enable-background:new 0 0 32 32;" xml:space="preserve">
<g>
	<path d="M23.7,3.7c-1.8,0-13.5,0-15.4,0S5.8,4.9,5.8,6.3c0,1.4,0,17.7,0,19.5c0,1.8,0.8,2.6,2.6,2.6s14.2,0,15.6,0
		c1.4,0,2.3-0.5,2.3-2.6c0-2,0-17.6,0-19.5C26.2,4.4,25.4,3.7,23.7,3.7z M23.7,25.7H8.3V6.3h15.4V25.7z"/>
	<path d="M4,5.8L4,5.8c-0.4,0-0.8,0.3-0.8,0.8v19c0,0.4,0.3,0.8,0.8,0.8h0c0.4,0,0.8-0.3,0.8-0.8v-19C4.7,6.1,4.4,5.8,4,5.8z"/>
	<path d="M1.4,7.8L1.4,7.8C1,7.8,0.6,8.2,0.6,8.6v14.9c0,0.4,0.3,0.8,0.8,0.8h0c0.4,0,0.8-0.3,0.8-0.8V8.6C2.2,8.2,1.8,7.8,1.4,7.8z
		"/>
	<path d="M28,5.8L28,5.8c-0.4,0-0.8,0.3-0.8,0.8v19c0,0.4,0.3,0.8,0.8,0.8h0c0.4,0,0.8-0.3,0.8-0.8v-19C28.8,6.1,28.5,5.8,28,5.8z"
		/>
	<path d="M30.6,7.8L30.6,7.8c-0.4,0-0.8,0.3-0.8,0.8v12.5v2.4c0,0.4,0.3,0.8,0.8,0.8h0c0.4,0,0.8-0.3,0.8-0.8v-2.4V8.6
		C31.4,8.2,31,7.8,30.6,7.8z"/>
</g>
</svg>
