<?xml version="1.0" encoding="utf-8"?>
<!-- Generated by IcoMoon.io -->
<!DOCTYPE svg PUBLIC "-//W3C//DTD SVG 1.1//EN" "http://www.w3.org/Graphics/SVG/1.1/DTD/svg11.dtd">
<svg version="1.1" xmlns="http://www.w3.org/2000/svg" xmlns:xlink="http://www.w3.org/1999/xlink" width="512" height="512" viewBox="0 0 512 512">
<path fill="#000000" d="M97.784 342.299c0 16.182-12.586 30.563-30.564 30.563-16.181 0-30.564-12.586-30.564-30.563v-125.853c0-16.181 12.586-30.564 30.564-30.564 16.181 0 30.564 12.586 30.564 30.564v125.853z"></path>
<path fill="#000000" d="M358.481 417.812h-21.577v66.522c0 16.181-12.586 30.564-30.563 30.564-16.182 0-30.563-12.586-30.563-30.563v-66.522h-41.353v66.522c0 12.586-7.191 23.373-17.977 26.968-3.595 1.8-7.191 1.8-12.586 1.8-12.586 0-23.373-7.191-26.968-17.978-1.799-3.596-1.799-7.191-1.799-10.786v-66.522h-21.577c-17.977 0-32.363-14.382-32.363-32.363v-194.174h267.891v194.174c1.8 17.978-12.586 32.363-30.563 32.363z"></path>
<path fill="#000000" d="M444.783 371.067c-16.182 0-30.563-12.586-30.563-30.563v-125.853c0-16.181 12.586-30.564 30.563-30.564 16.182 0 30.563 12.586 30.563 30.564v125.853c-1.8 17.978-14.382 30.563-30.563 30.563z"></path>
<path fill="#000000" d="M322.522 51.039l21.577-37.758c1.8-1.8 0-5.395-1.8-5.395-1.8-1.8-5.395 0-5.395 1.8l-21.577 37.758c-17.978-7.191-37.758-12.586-59.331-12.586s-41.353 3.596-59.331 12.586l-21.577-37.758c-1.799-1.8-3.595-3.595-5.395-1.8s-3.595 3.595-1.799 5.395l21.577 37.758c-41.353 21.576-68.322 61.13-68.322 107.876h269.687c0-46.745-26.968-88.099-68.322-107.876zM194.869 121.156c-12.586 0-23.373-10.787-23.373-23.373s10.786-23.373 23.373-23.373c12.586 0 23.373 10.787 23.373 23.373s-10.786 23.373-23.373 23.373zM317.13 121.156c-12.586 0-23.373-10.787-23.373-23.373s10.786-23.373 23.373-23.373c12.586 0 23.373 10.787 23.373 23.373s-10.786 23.373-23.373 23.373z"></path>
</svg>
