<?xml version="1.0" encoding="utf-8"?>
<!-- Generated by IcoMoon.io -->
<!DOCTYPE svg PUBLIC "-//W3C//DTD SVG 1.1//EN" "http://www.w3.org/Graphics/SVG/1.1/DTD/svg11.dtd">
<svg version="1.1" xmlns="http://www.w3.org/2000/svg" xmlns:xlink="http://www.w3.org/1999/xlink" width="512" height="512" viewBox="0 0 512 512">
<path fill="#000000" d="M274.096 56.971c26.134-30.156 68.353-38.197 70.364-36.186s4.022 46.238-22.112 76.394c-26.134 30.156-68.353 38.197-70.364 36.186s-4.022-46.238 22.112-76.394zM453.017 374.613c-8.044 22.112-20.104 40.208-30.156 56.29-26.134 36.186-54.282 56.29-70.364 58.3-34.178 0-62.322-22.112-86.446-22.112 0 0 0 0 0 0v0 0c0 0 0 0 0 0-24.126 0-52.27 22.112-86.446 22.112-16.082 0-44.23-22.112-70.364-58.3-12.060-16.082-22.112-36.186-30.156-56.29s-14.074-40.208-16.082-62.322c-2.008-10.052-2.008-22.112-2.008-32.164s0-20.104 2.008-30.156c4.022-26.134 10.052-46.238 20.104-62.322 28.144-46.238 76.394-56.29 90.468-56.29 30.156-4.022 72.375 20.104 94.486 20.104v0c22.112 0 64.331-24.126 94.486-20.104 14.074 2.008 58.3 8.044 84.435 50.26-4.022 2.008-8.044 4.022-12.060 6.030-20.104 14.074-34.178 36.186-38.197 62.322-2.008 6.030-2.008 12.060-2.008 18.096 0 16.082 4.022 30.156 8.044 44.23 12.060 26.134 32.164 44.23 56.29 52.27-4.022 4.022-4.022 8.044-6.030 10.052z"></path>
</svg>
