<?xml version="1.0" encoding="utf-8"?>
<!-- Generated by IcoMoon.io -->
<!DOCTYPE svg PUBLIC "-//W3C//DTD SVG 1.1//EN" "http://www.w3.org/Graphics/SVG/1.1/DTD/svg11.dtd">
<svg version="1.1" xmlns="http://www.w3.org/2000/svg" xmlns:xlink="http://www.w3.org/1999/xlink" width="512" height="512" viewBox="0 0 512 512">
<path fill="#000000" d="M480 64h-448c-17.664 0-32 14.336-32 32v64h512v-64c0-17.664-14.336-32-32-32zM32 480c0 17.664 14.336 32 32 32h384c17.664 0 32-14.336 32-32v-288h-448v288zM192 256h128c17.664 0 32 14.336 32 32s-14.336 32-32 32h-128c-17.664 0-32-14.336-32-32s14.336-32 32-32z"></path>
</svg>
