<?xml version="1.0" encoding="utf-8"?>
<!-- Generated by IcoMoon.io -->
<!DOCTYPE svg PUBLIC "-//W3C//DTD SVG 1.1//EN" "http://www.w3.org/Graphics/SVG/1.1/DTD/svg11.dtd">
<svg version="1.1" xmlns="http://www.w3.org/2000/svg" xmlns:xlink="http://www.w3.org/1999/xlink" width="512" height="512" viewBox="0 0 512 512">
<path fill="#000000" d="M272 32c-132.544 0-240 107.456-240 240s107.456 240 240 240 240-107.456 240-240-107.456-240-240-240zM416 272c0 0.032 0 0.032 0 0.064 0 2.080-0.416 4.128-1.216 6.048-0.8 1.952-1.984 3.712-3.456 5.184l-96 96c-6.24 6.24-16.384 6.24-22.624 0s-6.24-16.384 0-22.624l68.672-68.672h-249.376c-8.832 0-16-7.168-16-16s7.168-16 16-16h249.376l-68.704-68.672c-6.24-6.24-6.24-16.384 0-22.624s16.384-6.24 22.624 0l96 96c1.472 1.472 2.656 3.232 3.456 5.184 0.832 1.952 1.248 4.032 1.248 6.112v0z"></path>
</svg>
