<?xml version="1.0" encoding="utf-8"?>
<!-- Generated by IcoMoon.io -->
<!DOCTYPE svg PUBLIC "-//W3C//DTD SVG 1.1//EN" "http://www.w3.org/Graphics/SVG/1.1/DTD/svg11.dtd">
<svg version="1.1" xmlns="http://www.w3.org/2000/svg" xmlns:xlink="http://www.w3.org/1999/xlink" width="512" height="512" viewBox="0 0 512 512">
<path fill="#000000" d="M272 32c-132.544 0-240 107.456-240 240s107.456 240 240 240 240-107.456 240-240-107.456-240-240-240zM379.328 315.328l-96 96c-1.472 1.472-3.232 2.656-5.184 3.456-3.904 1.632-8.32 1.632-12.224 0-1.92-0.8-3.616-1.952-5.056-3.36-0.032-0.032-0.096-0.032-0.128-0.096l-96-96c-6.24-6.24-6.24-16.384 0-22.624s16.384-6.24 22.624 0l68.64 68.672v-249.376c0-8.832 7.168-16 16-16s16 7.168 16 16v249.376l68.672-68.672c6.24-6.24 16.384-6.24 22.624 0 6.272 6.24 6.272 16.352 0.032 22.624z"></path>
</svg>
