<?xml version="1.0" encoding="utf-8"?>
<!-- Generated by IcoMoon.io -->
<!DOCTYPE svg PUBLIC "-//W3C//DTD SVG 1.1//EN" "http://www.w3.org/Graphics/SVG/1.1/DTD/svg11.dtd">
<svg version="1.1" xmlns="http://www.w3.org/2000/svg" xmlns:xlink="http://www.w3.org/1999/xlink" width="512" height="512" viewBox="0 0 512 512">
<path fill="#000000" d="M272 32c-132.544 0-240 107.456-240 240s107.456 240 240 240 240-107.456 240-240-107.456-240-240-240zM320 369.44c0 3.936-2.080 7.456-5.408 9.984-0.064 0.064-0.064 0.128-0.128 0.16-6.944 5.44-18.208 5.44-25.152 0l-123.456-97.728c-0.192-0.16-0.448-0.192-0.64-0.352-6.944-5.44-6.944-14.304 0-19.744l124.064-97.984c6.944-5.44 18.208-5.44 25.152 0l-0.064 0.064c3.424 2.528 5.632 6.080 5.632 10.080v195.52z"></path>
</svg>
