<?xml version="1.0" encoding="utf-8"?>
<!-- Generated by IcoMoon.io -->
<!DOCTYPE svg PUBLIC "-//W3C//DTD SVG 1.1//EN" "http://www.w3.org/Graphics/SVG/1.1/DTD/svg11.dtd">
<svg version="1.1" xmlns="http://www.w3.org/2000/svg" xmlns:xlink="http://www.w3.org/1999/xlink" width="512" height="512" viewBox="0 0 512 512">
<path fill="#000000" d="M102.304 102.304c-93.728 93.728-93.728 245.696 0 339.424s245.696 93.728 339.424 0c93.728-93.728 93.728-245.696 0-339.424-93.76-93.728-245.696-93.728-339.424 0zM384 176v135.776c0 8.832-7.168 16-16 16s-16-7.168-16-16v-97.152l-176.32 176.32c-6.24 6.24-16.384 6.24-22.624 0s-6.24-16.384 0-22.624l176.32-176.32h-97.152c-8.832 0-16-7.168-16-16s7.168-16 16-16h135.776c2.080 0 4.16 0.416 6.112 1.248 3.904 1.632 7.040 4.736 8.64 8.64 0.832 1.952 1.248 4.032 1.248 6.112v0z"></path>
</svg>
