<?xml version="1.0" encoding="utf-8"?>
<!-- Generated by IcoMoon.io -->
<!DOCTYPE svg PUBLIC "-//W3C//DTD SVG 1.1//EN" "http://www.w3.org/Graphics/SVG/1.1/DTD/svg11.dtd">
<svg version="1.1" xmlns="http://www.w3.org/2000/svg" xmlns:xlink="http://www.w3.org/1999/xlink" width="512" height="512" viewBox="0 0 512 512">
<path fill="#000000" d="M272 32c-132.544 0-240 107.456-240 240s107.456 240 240 240 240-107.456 240-240-107.456-240-240-240zM379.328 251.328c-6.24 6.24-16.384 6.24-22.624 0l-68.704-68.704v249.376c0 8.832-7.168 16-16 16s-16-7.168-16-16v-249.376l-68.672 68.704c-6.24 6.24-16.384 6.24-22.624 0s-6.24-16.384 0-22.624l96-96c0.032-0.064 0.064-0.064 0.096-0.096 1.44-1.408 3.168-2.592 5.056-3.36 3.904-1.632 8.32-1.632 12.224 0 1.984 0.8 3.744 1.952 5.248 3.424l96 96c6.24 6.272 6.24 16.384 0 22.656z"></path>
</svg>
