<?xml version="1.0" encoding="utf-8"?>
<!-- Generated by IcoMoon.io -->
<!DOCTYPE svg PUBLIC "-//W3C//DTD SVG 1.1//EN" "http://www.w3.org/Graphics/SVG/1.1/DTD/svg11.dtd">
<svg version="1.1" xmlns="http://www.w3.org/2000/svg" xmlns:xlink="http://www.w3.org/1999/xlink" width="512" height="512" viewBox="0 0 512 512">
<path fill="#000000" d="M272 32c-132.544 0-240 107.456-240 240s107.456 240 240 240 240-107.456 240-240-107.456-240-240-240zM448 272c0 8.832-7.168 16-16 16h-249.376l68.672 68.672c6.24 6.24 6.24 16.384 0 22.624s-16.384 6.24-22.624 0l-96-96c-0.032-0.032-0.064-0.096-0.096-0.16-1.408-1.44-2.56-3.136-3.328-5.024-0.8-1.952-1.248-4-1.248-6.048 0-0.032 0-0.032 0-0.064v0c0-2.080 0.416-4.16 1.248-6.112 0.768-1.888 1.92-3.584 3.328-5.024 0.064-0.064 0.064-0.128 0.128-0.192l96-96c6.24-6.24 16.384-6.24 22.624 0s6.24 16.384 0 22.624l-68.704 68.704h249.376c8.832 0 16 7.168 16 16z"></path>
</svg>
