<?xml version="1.0" encoding="utf-8"?>
<!-- Generated by IcoMoon.io -->
<!DOCTYPE svg PUBLIC "-//W3C//DTD SVG 1.1//EN" "http://www.w3.org/Graphics/SVG/1.1/DTD/svg11.dtd">
<svg version="1.1" xmlns="http://www.w3.org/2000/svg" xmlns:xlink="http://www.w3.org/1999/xlink" width="512" height="512" viewBox="0 0 512 512">
<path fill="#000000" d="M102.304 102.304c-93.728 93.728-93.728 245.696 0 339.424s245.696 93.728 339.424 0c93.728-93.728 93.728-245.696 0-339.424-93.76-93.728-245.696-93.728-339.424 0zM390.976 175.68l-176.352 176.32h97.152c8.832 0 16 7.168 16 16s-7.168 16-16 16h-135.776c-2.080 0-4.16-0.416-6.112-1.248-1.92-0.8-3.616-1.952-5.056-3.36-0.032-0.032-0.096-0.032-0.128-0.096-0.064-0.064-0.064-0.128-0.128-0.192-1.408-1.44-2.56-3.136-3.328-5.024-0.8-1.92-1.248-3.968-1.248-6.016 0-0.032 0-0.032 0-0.064v-135.776c0-8.832 7.168-16 16-16s16 7.168 16 16v97.152l176.32-176.32c6.24-6.24 16.384-6.24 22.624 0s6.272 16.352 0.032 22.624z"></path>
</svg>
