<?xml version="1.0" encoding="utf-8"?>
<!-- Generated by IcoMoon.io -->
<!DOCTYPE svg PUBLIC "-//W3C//DTD SVG 1.1//EN" "http://www.w3.org/Graphics/SVG/1.1/DTD/svg11.dtd">
<svg version="1.1" xmlns="http://www.w3.org/2000/svg" xmlns:xlink="http://www.w3.org/1999/xlink" width="512" height="512" viewBox="0 0 512 512">
<path fill="#000000" d="M272 32c-132.544 0-240 107.456-240 240s107.456 240 240 240 240-107.456 240-240-107.456-240-240-240zM379.584 254.72l-97.76 123.424c-0.128 0.192-0.192 0.448-0.352 0.64-5.44 6.944-14.304 6.944-19.744 0l-97.952-124.064c-5.44-6.944-5.44-18.208 0-25.152l0.064 0.064c2.528-3.424 6.080-5.632 10.080-5.632h195.52c3.936 0 7.456 2.080 9.984 5.408 0.064 0.064 0.128 0.064 0.16 0.128 5.472 6.976 5.472 18.24 0 25.184z"></path>
</svg>
