<?xml version="1.0" encoding="utf-8"?>
<!-- Generated by IcoMoon.io -->
<!DOCTYPE svg PUBLIC "-//W3C//DTD SVG 1.1//EN" "http://www.w3.org/Graphics/SVG/1.1/DTD/svg11.dtd">
<svg version="1.1" xmlns="http://www.w3.org/2000/svg" xmlns:xlink="http://www.w3.org/1999/xlink" width="512" height="512" viewBox="0 0 512 512">
<path fill="#000000" d="M72.052 122.22c-26.012 37.16-42.736 83.612-42.736 133.78s14.864 96.62 42.736 133.78v-267.56z"></path>
<path fill="#000000" d="M341.472 81.34l96.62 96.62v211.82c26.012-37.16 42.736-83.612 42.736-133.78 0-126.348-102.192-230.4-226.684-230.4-55.74 0-107.768 20.44-146.788 55.74 1.86 0 234.116 0 234.116 0z"></path>
<path fill="#000000" d="M413.936 200.26h-94.76v-94.76h-221.108v314.012c40.876 40.876 96.62 66.892 157.936 66.892s117.060-26.012 157.936-66.892v-219.252zM324.748 436.232c-11.148 0-20.44-3.716-31.588-13.008-26.012-22.296-152.36-152.36-157.936-157.936 0 0-14.864-16.724-13.008-37.16 1.86-14.864 7.432-27.872 22.296-39.020 7.432-5.576 13.008-11.148 18.58-14.864 37.16-33.444 59.46-48.308 113.34 9.292l87.328 87.328-14.864 13.008-87.328-87.328c-44.592-46.452-52.024-39.020-85.472-9.292-5.576 5.576-11.148 11.148-18.58 16.724-9.292 7.432-14.864 16.724-14.864 26.012 0 13.008 7.432 22.296 7.432 22.296 1.86 1.86 130.064 135.64 156.076 156.076 13.008 9.292 27.872 16.724 57.6-14.864 13.008-14.864 0-31.588-1.86-33.444-42.736-42.736-109.624-109.624-115.2-115.2-5.576-3.716-14.864 3.716-18.58 7.432-7.432 7.432-5.576 13.008-3.716 14.864l68.748 68.748-14.864 13.008-70.608-70.608c-3.716-7.432-9.292-24.156 5.576-39.020 22.296-22.296 39.020-14.864 44.592-9.292 7.432 5.576 105.908 105.908 117.060 117.060 9.292 11.148 22.296 37.16 1.86 59.46-16.724 18.58-35.304 29.728-52.024 29.728z"></path>
</svg>
