<?xml version="1.0" encoding="utf-8"?>
<!-- Generated by IcoMoon.io -->
<!DOCTYPE svg PUBLIC "-//W3C//DTD SVG 1.1//EN" "http://www.w3.org/Graphics/SVG/1.1/DTD/svg11.dtd">
<svg version="1.1" xmlns="http://www.w3.org/2000/svg" xmlns:xlink="http://www.w3.org/1999/xlink" width="512" height="512" viewBox="0 0 512 512">
<path fill="#000000" d="M153.893 444.638l-17.306-242.288 31.152-1.73c3.462 55.38 13.845 223.25 15.576 242.288l-29.42 1.73z"></path>
<path fill="#000000" d="M358.107 444.638l-32.882-1.73c3.462-55.38 15.576-223.25 17.306-242.288l32.882 1.73-17.306 242.288z"></path>
<path fill="#000000" d="M484.442 354.645c-3.462 53.649-51.919 93.454-105.568 91.723l17.306-240.557 1.73-19.036c0-67.494-64.033-122.875-141.911-122.875s-140.181 53.649-140.181 121.143l1.73 27.69 17.306 233.634c-57.111 3.462-105.568-38.074-109.029-93.454l-3.462-43.266c-1.73-39.804 20.768-76.147 55.38-95.185v-34.612c0-84.801 79.609-154.025 178.255-154.025s178.255 69.225 178.255 154.025v34.612c36.343 17.306 58.841 55.38 55.38 95.185l-5.192 44.996z"></path>
</svg>
