<?xml version="1.0" encoding="utf-8"?>
<!-- Generated by IcoMoon.io -->
<!DOCTYPE svg PUBLIC "-//W3C//DTD SVG 1.1//EN" "http://www.w3.org/Graphics/SVG/1.1/DTD/svg11.dtd">
<svg version="1.1" xmlns="http://www.w3.org/2000/svg" xmlns:xlink="http://www.w3.org/1999/xlink" width="512" height="512" viewBox="0 0 512 512">
<path fill="#000000" d="M67.428 265.428c1.885-16.971 15.086-30.172 32.057-32.057 3.77 0 7.543 1.885 7.543 5.658s-1.885 5.658-7.543 7.543c-9.428 0-18.856 7.543-18.856 18.856 0 5.658-5.658 9.428-9.428 7.543s-3.77-3.77-3.77-7.543z"></path>
<path fill="#000000" d="M386.113 235.256c-16.971 0-30.172 13.201-32.057 32.057 0 1.885 0 5.658 3.77 7.543 3.77 3.77 9.428 0 9.428-7.543 0-9.428 9.428-18.856 18.856-18.856 3.77 0 7.543-1.885 7.543-7.543 0-3.77-1.885-5.658-7.543-5.658z"></path>
<path fill="#000000" d="M361.599 91.942c-9.428-16.971-32.057-26.399-54.686-20.744-20.744 5.658-32.057 22.629-32.057 41.485 18.856-15.086 41.485-22.629 65.999-22.629 7.543 0 15.086 0 20.744 1.885z"></path>
<path fill="#000000" d="M448.342 184.343l-15.086-11.313c-5.658-9.428-11.313-18.856-18.856-30.172-9.428-15.086-22.629-26.399-39.6-32.057-1.885 0-1.885 0-1.885-1.885-9.428-3.77-18.856-5.658-30.172-5.658-26.399 0-49.028 11.313-64.114 28.287-3.77 7.543-9.428 13.201-13.201 18.856-3.77 0-7.543-1.885-13.201-1.885-3.77 0-9.428 0-13.201 1.885-3.77-5.658-7.543-11.313-11.313-16.971 0 0 0 0 0 0s0 0 0-1.885v0c-13.201-16.971-35.83-28.287-62.229-28.287-11.313 0-22.629 1.885-32.057 5.658 0 0 0 0 0 0-1.885 0-1.885 1.885-3.77 1.885-15.086 7.543-28.287 16.971-37.715 32.057-9.428 13.201-16.971 24.514-24.514 37.715l-5.658 3.77c-33.942 16.971-56.571 52.801-56.571 92.401 0 58.456 47.143 105.599 105.599 105.599 50.913 0 92.401-35.83 103.714-82.97l9.428-62.229c7.543 9.428 16.971 15.086 30.172 15.086 15.086 0 26.399-7.543 33.942-20.744l9.428 67.887c9.428 47.143 52.801 82.97 103.714 82.97 58.456 0 105.599-47.143 105.599-105.599-1.885-39.6-24.514-73.542-58.456-92.401zM110.801 346.513c-37.715 0-67.887-30.172-67.887-67.887s30.172-67.887 67.887-67.887 67.887 30.172 67.887 67.887c1.885 37.715-30.172 67.887-67.887 67.887zM256 233.371c-9.428 0-18.856-7.543-18.856-18.856 0-9.428 7.543-18.856 18.856-18.856 9.428 0 18.856 7.543 18.856 18.856s-9.428 18.856-18.856 18.856zM399.314 346.513c-37.715 0-67.887-30.172-67.887-67.887s30.172-67.887 67.887-67.887 67.887 30.172 67.887 67.887-30.172 67.887-67.887 67.887z"></path>
<path fill="#000000" d="M227.713 108.913c0-1.885 0-1.885 0-3.77-1.885-16.971-15.086-30.172-33.942-35.83-18.856-3.77-37.715 3.77-47.143 16.971 0 0-1.885 1.885-1.885 1.885 0 1.885-1.885 1.885-1.885 3.77 7.543-1.885 15.086-3.77 22.629-3.77 24.514 0 47.143 7.543 64.114 22.629-1.885 0-1.885 0-1.885-1.885z"></path>
</svg>
