<?xml version="1.0" encoding="utf-8"?>
<!-- Generated by IcoMoon.io -->
<!DOCTYPE svg PUBLIC "-//W3C//DTD SVG 1.1//EN" "http://www.w3.org/Graphics/SVG/1.1/DTD/svg11.dtd">
<svg version="1.1" xmlns="http://www.w3.org/2000/svg" xmlns:xlink="http://www.w3.org/1999/xlink" width="512" height="512" viewBox="0 0 512 512">
<path fill="#000000" d="M86.152 503.998h293.103c17.112 0 31-13.888 31-31v-325.498c0-8.556-6.944-15.5-15.5-15.5 0 0 0 0 0 0h-262.754c-0.775 0-2.294 0.124-3.751 0.217l-42.098-0.217c-26.009 0-47.151-19.871-47.151-45.849 0-26.009 20.491-47.151 46.5-47.151h356.498v356.498c0 8.556 6.2 15.5 14.787 15.5s16.213-6.944 16.213-15.5v-371.998c0-8.556-7.657-15.5-16.213-15.5h-370.634c-42.78 0-77.407 34.379-78.027 77.004l-0.124-0.155v340.998c0 43.152 34.999 78.15 78.15 78.15z"></path>
</svg>
