<?xml version="1.0" encoding="utf-8"?>
<!-- Generator: Adobe Illustrator 22.1.0, SVG Export Plug-In . SVG Version: 6.00 Build 0)  -->
<svg version="1.1" id="Layer_1" xmlns="http://www.w3.org/2000/svg" xmlns:xlink="http://www.w3.org/1999/xlink" x="0px" y="0px"
	 viewBox="0 0 32 32" style="enable-background:new 0 0 32 32;" xml:space="preserve">
<style type="text/css">
	.st0{fill:none;stroke:#FFFFFF;stroke-width:18;stroke-linecap:round;stroke-miterlimit:10;}
	.st1{fill:none;stroke:#FFFFFF;stroke-width:9;stroke-linecap:round;stroke-miterlimit:10;}
</style>
<path class="st0" d="M434-568"/>
<g>
	<path d="M30.4,18.5c0-1.4-0.7-2.5-1.7-3.3c-0.2,0.4-0.4,0.8-0.8,1.1c-0.9,0.9-2.1,1.3-3.8,1.3c-0.1,0-0.2,0-0.4,0
		c-0.1,0-0.2-0.1-0.2-0.2s0.1-0.2,0.2-0.2c3.5,0.1,4.5-1.6,4.9-3.1c0.1-0.3,0.1-0.5,0.1-0.8c0-1.7-1.1-3.2-2.5-3.8
		c0.1-0.2,0.1-0.5,0.1-0.7c0-1.8-1.5-3.3-3.3-3.3c0,0-0.1,0-0.1,0c-0.4-1.4-1.6-2.5-3.2-2.5c-1.8,0-3.3,1.5-3.3,3.3V10
		c0,1.3,0,15.5,0,15.5c0,2,1.7,3.7,3.7,3.7c1.5,0,2.8-0.9,3.3-2.2c-0.6-0.2-1.1-0.6-1.5-1.1c-0.2,0-0.3,0.1-0.5,0.1
		c-0.4,0-0.8-0.1-1.2-0.3c-0.1-0.1-0.1-0.2-0.1-0.3c0.1-0.1,0.2-0.1,0.3-0.1c0.5,0.3,1.1,0.4,1.6,0.2c0.4-0.2,0.7-0.5,0.8-0.9
		c0-0.1,0.2-0.2,0.3-0.2c0.1,0,0.2,0.2,0.2,0.3c-0.1,0.5-0.5,0.9-0.9,1.1c0.4,0.6,1,0.9,1.5,0.9c0.2,0,0.5,0.1,0.7,0
		c1.8-0.2,3.3-1.8,3.3-3.7c0-0.2,0-0.5-0.1-0.7C29.3,21.6,30.4,20.2,30.4,18.5z M23.2,13.1c-0.8,0-1.8-0.3-2.6-1.8
		c-0.1-0.1,0-0.3,0.1-0.3c0.1-0.1,0.3,0,0.3,0.1c0.9,1.8,2,1.6,2.9,1.5c0.1,0,0.1,0,0.2,0c0.1,0,0.2,0.1,0.3,0.2
		c0,0.1-0.1,0.2-0.2,0.3c-0.1,0-0.1,0-0.2,0C23.7,13.1,23.5,13.1,23.2,13.1z"/>
	<path d="M12.3,2.9c-1.5,0-2.8,1.1-3.2,2.5c0,0-0.1,0-0.1,0c-1.8,0-3.3,1.5-3.3,3.3c0,0.2,0,0.5,0.1,0.7c-1.5,0.6-2.5,2.1-2.5,3.8
		c0,0.5,0.1,0.9,0.2,1.3c0.6-0.3,1.2-0.5,1.8-0.6c1.1-0.1,2,0.3,2.6,0.7c0.3-0.5,0.8-0.8,1.4-1c0.1,0,0.2,0,0.3,0.2s0,0.2-0.2,0.3
		c-0.6,0.1-1,0.5-1.2,1C8,15.5,8,15.9,8.2,16.3c0.1,0.1,0,0.3-0.1,0.3c0,0-0.1,0-0.1,0c-0.1,0-0.2,0-0.2-0.1c-0.3-0.4-0.3-1-0.1-1.5
		c-1-0.6-2.4-1-4-0.1c-0.9,0.6-2.1,2-2.1,3.6c0,1.7,1,3.2,2.5,3.8c0,0.2-0.1,0.5-0.1,0.7c0,2,1.7,3.7,3.7,3.7c0.2,0,0.4,0,0.6-0.1
		c0.5,1.5,1.9,2.5,3.5,2.5c2,0,3.7-1.7,3.7-3.7V6.2C15.5,4.4,14.1,2.9,12.3,2.9z M11.4,22.8C11.4,22.8,11.4,22.8,11.4,22.8
		c-0.2,0-0.3,0-0.3-0.1c-0.7-1.9-1.8-1.9-2.7-1.9c-0.1,0-0.1,0-0.2,0c-0.1,0-0.2-0.1-0.2-0.2c0-0.1,0.1-0.2,0.2-0.2c0,0,0,0,0,0
		c0.1,0,0.1,0,0.2,0c0.9,0,2.3,0,3.1,2.2C11.6,22.6,11.5,22.7,11.4,22.8z M10.7,9.9c-0.3,0.2-0.7,0.3-1,0.3c-0.3,0-0.5-0.1-0.7-0.2
		C8.8,10,8.8,9.8,8.8,9.7S9,9.6,9.1,9.6c0.4,0.2,0.9,0.1,1.3-0.1c0.2-0.1,0.6-0.4,0.7-0.9c0-0.1,0.1-0.2,0.3-0.2
		c0.1,0,0.2,0.1,0.2,0.3C11.5,9.2,11.2,9.7,10.7,9.9z"/>
</g>
<path class="st1" d="M609-771"/>
</svg>
