<?xml version="1.0" encoding="utf-8"?>
<!-- Generated by IcoMoon.io -->
<!DOCTYPE svg PUBLIC "-//W3C//DTD SVG 1.1//EN" "http://www.w3.org/Graphics/SVG/1.1/DTD/svg11.dtd">
<svg version="1.1" xmlns="http://www.w3.org/2000/svg" xmlns:xlink="http://www.w3.org/1999/xlink" width="512" height="512" viewBox="0 0 512 512">
<path fill="#000000" d="M459.868 101.183h-116.497v-29.123c0-16.094-13.029-29.123-29.123-29.123h-116.496c-16.094 0-29.124 13.029-29.124 29.123v29.124h-116.496c-16.094 0-29.123 13.029-29.123 29.124v58.248c160.898 48.796 316.074 49.051 465.984 0v-58.248c0-16.094-13.029-29.124-29.123-29.124zM197.752 78.702h116.497v29.124h-116.496v-29.124zM301.321 276.234c1.124 22.736-26.262 20.95-42.308 20.95h-10.935c-16.094 0-37.606 0-36.839-22.276v-29.124c-62.796-2.248-141.992-17.27-188.232-33.671v174.744c0 16.094 13.029 29.123 29.123 29.123h407.737c16.094 0 29.123-13.029 29.123-29.123v-174.744c-71.482 20.796-135.3 33.775-187.671 35.050v29.073zM275.568 282.11h-37.3c-3.014 0-5.466-2.452-5.466-5.466v-23.657c0-3.014 2.452-5.466 5.466-5.466h37.3c3.014 0 5.466 2.452 5.466 5.466v23.657c0 3.014-2.452 5.466-5.466 5.466z"></path>
</svg>
