<?xml version="1.0" encoding="utf-8"?>
<!-- Generated by IcoMoon.io -->
<!DOCTYPE svg PUBLIC "-//W3C//DTD SVG 1.1//EN" "http://www.w3.org/Graphics/SVG/1.1/DTD/svg11.dtd">
<svg version="1.1" xmlns="http://www.w3.org/2000/svg" xmlns:xlink="http://www.w3.org/1999/xlink" width="512" height="512" viewBox="0 0 512 512">
<path fill="#000000" d="M32 512h416c17.664 0 32-14.336 32-32v-192c0-17.664-14.336-32-32-32h-96c-17.664 0-32 14.336-32 32v-256c0-17.664-14.336-32-32-32h-96c-17.664 0-32 14.336-32 32v128c0-17.664-14.336-32-32-32h-96c-17.664 0-32 14.336-32 32v320c0 17.664 14.336 32 32 32zM32 480v-64h32v64h-32zM64 288v32h-32v-32h32zM32 256v-32h32v32h-32zM64 352v32h-32v-32h32zM96 320v-32h32v32h-32zM128 352v32h-32v-32h32zM96 256v-32h32v32h-32zM96 480v-64h32v64h-32zM128 192h-32v-32h32v32zM64 192h-32v-32h32v32zM256 480v-64h32v64h-32zM224 160v32h-32v-32h32zM192 128v-32h32v32h-32zM224 224v32h-32v-32h32zM224 288v32h-32v-32h32zM224 352v32h-32v-32h32zM256 320v-32h32v32h-32zM288 352v32h-32v-32h32zM256 256v-32h32v32h-32zM256 192v-32h32v32h-32zM256 128v-32h32v32h-32zM288 64h-32v-32h32v32zM224 64h-32v-32h32v32zM192 416h32v64h-32v-64zM384 384h-32v-32h32v32zM416 352h32v32h-32v-32zM416 416h32v64h-32v-64zM448 320h-32v-32h32v32zM384 320h-32v-32h32v32zM352 416h32v64h-32v-64z"></path>
</svg>
