<?xml version="1.0" encoding="utf-8"?>
<!-- Generated by IcoMoon.io -->
<!DOCTYPE svg PUBLIC "-//W3C//DTD SVG 1.1//EN" "http://www.w3.org/Graphics/SVG/1.1/DTD/svg11.dtd">
<svg version="1.1" xmlns="http://www.w3.org/2000/svg" xmlns:xlink="http://www.w3.org/1999/xlink" width="512" height="512" viewBox="0 0 512 512">
<path fill="#000000" d="M256 13.377c-40.145 0-78.548 10.473-111.71 27.928 27.928 0 54.11 0 80.293 1.745 1.745 45.383 3.49 92.51 5.238 139.637 54.11 50.62 116.947 101.238 176.295 151.857 8.728 6.983 20.945 15.71 24.438 22.692s3.49 15.71 6.983 20.945c1.745 5.238 6.983 5.238 10.473 10.473 0 3.49 0 6.983 0 10.473 29.673-40.145 48.873-89.020 48.873-143.13 0-136.148-108.22-242.623-240.877-242.623z"></path>
<path fill="#000000" d="M338.038 465.457c10.473-19.2-12.217-27.928-22.692-34.91-3.49-1.745-8.728 1.745-12.217 1.745-3.49-5.238 1.745-5.238 0-10.473-8.728-8.728-15.71-1.745-26.183-5.238-8.728-3.49-17.455-15.71-27.928-17.455-3.49 0-5.238 1.745-6.982 1.745-10.472 0-19.2-5.238-29.672-6.983-5.238-10.473-3.49-31.418-15.71-33.165 0-19.2-22.692-17.455-22.692-36.655-6.982-6.983-15.71-12.217-19.2-26.183 1.745-3.49 5.238 0 8.727-1.745 1.745-12.217-8.727-15.71-17.455-15.71-5.238-10.473-15.71-27.928-8.727-34.91 6.982-1.745 6.982 10.472 13.965 10.472 10.472 10.473 0-6.982 0-12.218 0-3.49 8.727-8.727 8.727-12.218-1.745-5.238-15.71 0-17.455-6.982-3.49 12.218-19.2 10.472-26.183 6.982-1.745-5.238 5.237-5.238 5.237-8.727-5.237-8.727-12.218-12.218-17.455-19.2 1.745-8.727-6.983-10.472-10.472-17.455-1.745-13.965 5.237-26.183-1.745-36.655 6.983-15.71-15.71-12.218-15.71-31.418 5.237-8.728 8.727-19.2 12.218-27.927-1.745-3.49 0-5.237-1.745-6.983-43.638 41.892-69.82 102.983-69.82 169.313 0 132.658 108.22 240.877 240.877 240.877 31.418 0 62.837-6.983 90.765-17.455-3.49-5.238-6.983-6.983-10.473-10.473z"></path>
</svg>
