<?xml version="1.0" encoding="utf-8"?>
<!-- Generated by IcoMoon.io -->
<!DOCTYPE svg PUBLIC "-//W3C//DTD SVG 1.1//EN" "http://www.w3.org/Graphics/SVG/1.1/DTD/svg11.dtd">
<svg version="1.1" xmlns="http://www.w3.org/2000/svg" xmlns:xlink="http://www.w3.org/1999/xlink" width="512" height="512" viewBox="0 0 512 512">
<path fill="#000000" d="M128.8 364.733h256.455v-164.127h-256.455v164.127zM290.879 227.279h47.188v45.133h-45.133v-45.133zM225.224 227.279h45.133v45.133h-45.133c0 0 0-45.133 0-45.133zM159.576 227.279h45.133v45.133h-45.133v-45.133zM159.576 290.879h45.133v45.133h-45.133v-45.133z"></path>
<path fill="#000000" d="M256 1.6c-137.461 0-250.297 114.891-250.297 254.4s112.836 254.4 250.297 254.4c137.461 0 250.297-114.891 250.297-254.4s-112.836-254.4-250.297-254.4zM292.927 67.255c0-8.206 6.158-14.364 14.364-14.364s14.364 6.158 14.364 14.364v71.806c0 8.206-6.158 14.364-14.364 14.364s-14.364-6.158-14.364-14.364v-71.806zM188.297 67.255c0-8.206 6.158-14.364 14.364-14.364s14.364 6.158 14.364 14.364v71.806c0 8.206-6.158 14.364-14.364 14.364s-14.364-6.158-14.364-14.364v-71.806zM424.23 403.715h-334.412v-291.327h86.17v36.927c0 14.364 12.309 26.673 26.673 26.673s26.673-12.309 26.673-26.673v-36.927h51.291v36.927c0 14.364 12.309 26.673 26.673 26.673s26.673-12.309 26.673-26.673v-36.927h90.273v291.327z"></path>
</svg>
