<?xml version="1.0" encoding="utf-8"?>
<!-- Generated by IcoMoon.io -->
<!DOCTYPE svg PUBLIC "-//W3C//DTD SVG 1.1//EN" "http://www.w3.org/Graphics/SVG/1.1/DTD/svg11.dtd">
<svg version="1.1" xmlns="http://www.w3.org/2000/svg" xmlns:xlink="http://www.w3.org/1999/xlink" width="512" height="512" viewBox="0 0 512 512">
<path fill="#000000" d="M96 512h320c17.664 0 32-14.336 32-32v-448c0-17.664-14.336-32-32-32h-320c-17.664 0-32 14.336-32 32v448c0 17.664 14.336 32 32 32zM352 352c-17.664 0-32-14.336-32-32s14.336-32 32-32 32 14.336 32 32c0 17.664-14.336 32-32 32zM384 416c0 17.664-14.336 32-32 32s-32-14.336-32-32c0-17.664 14.336-32 32-32s32 14.336 32 32zM352 256c-17.664 0-32-14.336-32-32s14.336-32 32-32 32 14.336 32 32c0 17.664-14.336 32-32 32zM128 128v-64h256v64h-256zM256 352c-17.664 0-32-14.336-32-32s14.336-32 32-32 32 14.336 32 32c0 17.664-14.336 32-32 32zM288 416c0 17.664-14.336 32-32 32s-32-14.336-32-32c0-17.664 14.336-32 32-32s32 14.336 32 32zM256 256c-17.664 0-32-14.336-32-32s14.336-32 32-32 32 14.336 32 32c0 17.664-14.336 32-32 32zM160 192c17.664 0 32 14.336 32 32s-14.336 32-32 32-32-14.336-32-32c0-17.664 14.336-32 32-32zM160 288c17.664 0 32 14.336 32 32s-14.336 32-32 32-32-14.336-32-32c0-17.664 14.336-32 32-32zM160 384c17.664 0 32 14.336 32 32s-14.336 32-32 32-32-14.336-32-32c0-17.664 14.336-32 32-32z"></path>
</svg>
