<?xml version="1.0" encoding="utf-8"?>
<!-- Generated by IcoMoon.io -->
<!DOCTYPE svg PUBLIC "-//W3C//DTD SVG 1.1//EN" "http://www.w3.org/Graphics/SVG/1.1/DTD/svg11.dtd">
<svg version="1.1" xmlns="http://www.w3.org/2000/svg" xmlns:xlink="http://www.w3.org/1999/xlink" width="512" height="512" viewBox="0 0 512 512">
<path fill="#000000" d="M355.441 79.588v46.477c0 18.937-15.404 34.295-34.296 34.295-18.937 0-34.317-15.359-34.317-34.296v-46.477h-65.228v46.477c0 18.936-15.359 34.296-34.296 34.296s-34.296-15.359-34.296-34.296v-46.477h-108.46v371.259h424.306v-371.259h-113.408zM419.961 400.026h-326.529v-207.28h326.529v207.28z"></path>
<path fill="#000000" d="M187.281 134.777c10.162 0 18.438-8.231 18.438-18.438v-92.082c0-10.184-8.254-18.438-18.438-18.438s-18.438 8.232-18.438 18.438v92.103c0.022 10.162 8.254 18.415 18.438 18.415z"></path>
<path fill="#000000" d="M321.145 134.733c10.145 0 18.377-8.254 18.377-18.416v-92.019c0-10.162-8.231-18.416-18.377-18.416-10.184 0-18.416 8.232-18.416 18.416v92.019c0 10.162 8.231 18.416 18.416 18.416z"></path>
<path fill="#000000" d="M133.34 225.26h58.472v58.45h-58.472v-58.451z"></path>
<path fill="#000000" d="M133.34 306.447h58.472v58.472h-58.472v-58.472z"></path>
<path fill="#000000" d="M217.067 225.26h58.472v58.45h-58.472v-58.451z"></path>
<path fill="#000000" d="M300.711 225.26h58.472v58.45h-58.472v-58.451z"></path>
</svg>
