<?xml version="1.0" encoding="utf-8"?>
<!-- Generated by IcoMoon.io -->
<!DOCTYPE svg PUBLIC "-//W3C//DTD SVG 1.1//EN" "http://www.w3.org/Graphics/SVG/1.1/DTD/svg11.dtd">
<svg version="1.1" xmlns="http://www.w3.org/2000/svg" xmlns:xlink="http://www.w3.org/1999/xlink" width="512" height="512" viewBox="0 0 512 512">
<path fill="#000000" d="M470.669 133.332h-61.333c0 0-17.729 0-30.668-30.668-6.613-15.621-13.752-30.668-30.668-30.668h-122.668c-16.916 0-24.294 14.95-30.668 30.668-12.458 30.668-30.668 30.668-30.668 30.668h-30.668c0-16.916-13.752-30.668-30.668-30.668h-30.668c-16.916 0-30.668 13.752-30.668 30.668-16.916 0-30.668 13.752-30.668 30.668v61.333h170.346c21.275-36.513 60.376-61.333 105.657-61.333s84.381 24.821 105.657 61.333h109.010v-61.333c0-16.916-13.752-30.668-30.668-30.668zM117.999 194.667h-61.333c-8.481 0-15.333-6.852-15.333-15.333s6.852-15.333 15.333-15.333h61.333c8.481 0 15.333 6.852 15.333 15.333s-6.852 15.333-15.333 15.333zM194.667 286.668c0 50.793 41.208 92.001 92.001 92.001s92.001-41.208 92.001-92.001-41.208-92.001-92.001-92.001-92.001 41.208-92.001 92.001zM409.334 286.668c0 67.754-54.913 122.668-122.668 122.668s-122.668-54.913-122.668-122.668c0-10.639 1.773-20.844 4.314-30.668h-157.647v153.334c0 16.916 13.752 30.668 30.668 30.668h429.336c16.916 0 30.668-13.752 30.668-30.668v-153.334h-96.314c2.54 9.823 4.313 20.029 4.313 30.668z"></path>
</svg>
