<?xml version="1.0" encoding="utf-8"?>
<!-- Generated by IcoMoon.io -->
<!DOCTYPE svg PUBLIC "-//W3C//DTD SVG 1.1//EN" "http://www.w3.org/Graphics/SVG/1.1/DTD/svg11.dtd">
<svg version="1.1" xmlns="http://www.w3.org/2000/svg" xmlns:xlink="http://www.w3.org/1999/xlink" width="512" height="512" viewBox="0 0 512 512">
<path fill="#000000" d="M111.719 285.6c-0.277 0.831 1.583 2.731 1.583 2.731v8.587c0 0-3.582 8.548 0 9.815 0 0 34.329-7.856 141.016-7.856 106.707 0 141.016 7.856 141.016 7.856 3.62-1.266 0-9.815 0-9.815v-8.587c0 0 1.92-1.899 1.623-2.731-0.337-0.831 12.288-6.292 1.86-9.637-10.406-3.384-48.239-11.733-144.5-11.733s-134.053 8.351-144.48 11.733c-10.406 3.343 2.177 8.805 1.879 9.637z"></path>
<path fill="#000000" d="M225.43 92.249c0 0-3.482 3.206 0 4.847v6.924c0 0 18.678-3.165 28.888-3.165 10.23 0 28.908 3.165 28.908 3.165v-6.924c3.483-1.641 0-4.847 0-4.847s-2.177-2.573-3.899-3.541v-24.139c0 0 0.851-3.562 0-5.481-0.87-1.958 11.733-6.134 0-10.625-11.752-4.531-16.541-5.164-25.010-5.164-8.489 0-13.257 0.633-24.988 5.164s0.87 8.666 0 10.625c-0.851 1.94 0 5.481 0 5.481v24.139c-1.722 0.97-3.899 3.541-3.899 3.541z"></path>
<path fill="#000000" d="M274.421 28.221c0 0-2.177-6.628-6.094-6.866 0 0-5.005-3.561-4.789-8.232 0 0 1.503-0.613 1.503-3.325l-4.334-5.284h-11.832l-4.353 5.303c0 2.71 1.544 3.325 1.544 3.325 0.218 4.671-4.789 8.232-4.789 8.232-3.879 0.237-6.076 6.866-6.076 6.866v3.917h39.197v-3.937z"></path>
<path fill="#000000" d="M254.575 139.301c1.345 0.079 47.627 2.89 47.627-0.020 0-3.026-1.325-5.284-1.979-9.578-0.672-4.314 0-5.975 0-5.975s-9.397-9.181-45.429-9.181h-0.476c-36.031 0-45.41 9.181-45.41 9.181s0.672 1.662 0 5.975c-0.632 4.314-1.958 6.549-1.958 9.577 0 2.909 46.239 0.079 47.626 0.020z"></path>
<path fill="#000000" d="M255.723 244.168l137.495 6.43c0 0 1.009-18.343-4.531-20.262-2.375-0.792-5.976-4.195-15.355-8.113-0.435-1.029-1.029-1.899-1.92-2.236-3.046-1.168-14.781-71.805-117.115-71.805s-114.069 70.637-117.094 71.805c-1.286 0.476-1.979 2.058-2.393 3.7-7.004 3.284-9.992 5.976-12.050 6.668-5.56 1.94-4.549 20.262-4.549 20.262l137.514-6.451z"></path>
<path fill="#000000" d="M423.332 436.154l-1.049-47.645c0 0 3.483-7.598 1.266-13.059 0 0 9.991-7.637 4.353-15.651l-7.38-4.63 0.455-8.844c0 0-40.82-27.424-166.66-27.878-125.841 0.455-166.679 27.878-166.679 27.878l0.456 8.844-7.419 4.63c-5.62 8.014 4.372 15.651 4.372 15.651-2.195 5.461 1.326 13.059 1.326 13.059l-1.148 50.218c-10.249 10.269 2.949 25.168 2.949 25.168h335.022c0.038 0.020 15.888-17.63 0.139-27.74zM402.774 371.453v59.122c-5.877-1.068-12.743-2.077-20.144-3.106v-56.015h20.144zM361.955 371.453v53.403c-6.587-0.752-13.355-1.484-20.144-2.177v-51.226h20.144zM322.087 371.453v49.267c-6.966-0.653-13.692-1.266-20.123-1.84v-47.428h20.123zM282.238 371.453v45.766c-8.449-0.672-15.493-1.246-20.144-1.583v-44.163h20.144zM242.367 371.453v44.716c-5.441 0.415-12.308 0.97-20.103 1.623v-46.34h20.103zM202.537 371.453v48.061c-6.511 0.574-13.238 1.227-20.143 1.878v-49.921h20.143zM162.688 371.453v51.939c-6.886 0.731-13.592 1.523-20.143 2.316v-54.255h20.143zM124.48 371.453v56.609c-8.013 1.168-15.077 2.316-20.972 3.523v-60.13h20.972z"></path>
</svg>
