<?xml version="1.0" encoding="utf-8"?>
<!-- Generated by IcoMoon.io -->
<!DOCTYPE svg PUBLIC "-//W3C//DTD SVG 1.1//EN" "http://www.w3.org/Graphics/SVG/1.1/DTD/svg11.dtd">
<svg version="1.1" xmlns="http://www.w3.org/2000/svg" xmlns:xlink="http://www.w3.org/1999/xlink" width="512" height="512" viewBox="0 0 512 512">
<path fill="#000000" d="M284.36 197.8c-3.136-3.136-7.232-4.672-11.36-4.672s-8.224 1.536-11.36 4.672l-103.776 103.776c-6.24 6.24-6.24 16.384 0 22.624s16.384 6.24 22.624 0l92.512-92.512 92.512 92.512c6.24 6.24 16.384 6.24 22.624 0s6.24-16.384 0-22.624l-103.776-103.776zM274.056 35.144c-131.968 0-238.944 106.976-238.944 238.944s107.008 238.912 238.944 238.912 238.944-106.976 238.944-238.944-106.976-238.912-238.944-238.912zM274.056 481c-114.112 0-206.944-92.832-206.944-206.944s92.832-206.944 206.944-206.944 206.944 92.864 206.944 206.944-92.832 206.944-206.944 206.944z"></path>
</svg>
