<?xml version="1.0" encoding="utf-8"?>
<!-- Generated by IcoMoon.io -->
<!DOCTYPE svg PUBLIC "-//W3C//DTD SVG 1.1//EN" "http://www.w3.org/Graphics/SVG/1.1/DTD/svg11.dtd">
<svg version="1.1" xmlns="http://www.w3.org/2000/svg" xmlns:xlink="http://www.w3.org/1999/xlink" width="512" height="512" viewBox="0 0 512 512">
<path fill="#000000" d="M367.296 277.824l-95.872 84.8-95.872-84.8c-6.272-6.272-16.48-6.272-22.752 0s-6.272 16.48 0 22.752l107.040 94.688c3.2 3.2 7.392 4.736 11.584 4.672 4.192 0.064 8.416-1.472 11.584-4.672l107.040-94.688c6.272-6.272 6.272-16.48 0-22.752s-16.48-6.272-22.752 0zM367.296 163.072l-95.872 84.8-95.872-84.8c-6.304-6.272-16.512-6.272-22.784 0s-6.272 16.48 0 22.752l107.040 94.688c3.2 3.2 7.392 4.736 11.584 4.672 4.192 0.064 8.416-1.472 11.584-4.672l107.040-94.688c6.272-6.272 6.272-16.48 0-22.752s-16.448-6.272-22.72 0zM273.152 34.304c-131.904 0-238.848 106.944-238.848 238.848s106.944 238.848 238.848 238.848 238.848-106.944 238.848-238.848-106.944-238.848-238.848-238.848zM273.152 480c-114.048 0-206.848-92.8-206.848-206.848s92.8-206.848 206.848-206.848 206.848 92.8 206.848 206.848-92.8 206.848-206.848 206.848z"></path>
</svg>
