<?xml version="1.0" encoding="utf-8"?>
<!-- Generated by IcoMoon.io -->
<!DOCTYPE svg PUBLIC "-//W3C//DTD SVG 1.1//EN" "http://www.w3.org/Graphics/SVG/1.1/DTD/svg11.dtd">
<svg version="1.1" xmlns="http://www.w3.org/2000/svg" xmlns:xlink="http://www.w3.org/1999/xlink" width="512" height="512" viewBox="0 0 512 512">
<path fill="#000000" d="M272 512c132.544 0 240-107.456 240-240s-107.456-240-240-240-240 107.456-240 240 107.456 240 240 240zM156.864 300.576l103.776-103.776c3.136-3.136 7.232-4.672 11.36-4.672s8.224 1.536 11.36 4.672l103.776 103.776c6.24 6.24 6.24 16.384 0 22.624s-16.384 6.24-22.624 0l-92.512-92.512-92.512 92.512c-6.24 6.24-16.384 6.24-22.624 0s-6.24-16.384 0-22.624z"></path>
</svg>
