<?xml version="1.0" encoding="utf-8"?>
<!-- Generated by IcoMoon.io -->
<!DOCTYPE svg PUBLIC "-//W3C//DTD SVG 1.1//EN" "http://www.w3.org/Graphics/SVG/1.1/DTD/svg11.dtd">
<svg version="1.1" xmlns="http://www.w3.org/2000/svg" xmlns:xlink="http://www.w3.org/1999/xlink" width="512" height="512" viewBox="0 0 512 512">
<path fill="#000000" d="M181.344 271.392l84.8-95.872c6.272-6.272 6.272-16.48 0-22.752s-16.48-6.272-22.752 0l-94.688 107.040c-3.2 3.2-4.736 7.392-4.672 11.584-0.032 4.192 1.472 8.416 4.672 11.616l94.688 107.040c6.272 6.272 16.48 6.272 22.752 0s6.272-16.48 0-22.752l-84.8-95.904zM380.928 152.768c-6.272-6.272-16.48-6.272-22.752 0l-94.72 107.040c-3.2 3.2-4.736 7.392-4.672 11.584-0.032 4.192 1.472 8.416 4.672 11.616l94.688 107.040c6.272 6.272 16.48 6.272 22.752 0s6.272-16.48 0-22.752l-84.8-95.872 84.8-95.872c6.304-6.304 6.304-16.512 0.032-22.784zM272 32c-132.544 0-240 107.456-240 240s107.456 240 240 240 240-107.456 240-240-107.456-240-240-240zM272 480c-114.688 0-208-93.312-208-208s93.312-208 208-208 208 93.312 208 208-93.312 208-208 208z"></path>
</svg>
