<?xml version="1.0" encoding="utf-8"?>
<!-- Generated by IcoMoon.io -->
<!DOCTYPE svg PUBLIC "-//W3C//DTD SVG 1.1//EN" "http://www.w3.org/Graphics/SVG/1.1/DTD/svg11.dtd">
<svg version="1.1" xmlns="http://www.w3.org/2000/svg" xmlns:xlink="http://www.w3.org/1999/xlink" width="512" height="512" viewBox="0 0 512 512">
<path fill="#000000" d="M351.296 261.824l-95.872 84.8-95.872-84.8c-6.272-6.272-16.48-6.272-22.752 0s-6.272 16.48 0 22.752l107.040 94.688c3.2 3.2 7.392 4.736 11.584 4.672 4.192 0.064 8.384-1.44 11.584-4.64l107.040-94.688c6.272-6.272 6.272-16.48 0-22.752s-16.48-6.304-22.752-0.032zM374.048 147.072c-6.272-6.272-16.48-6.272-22.752 0l-95.872 84.8-95.872-84.8c-6.304-6.272-16.512-6.272-22.784 0s-6.272 16.48 0 22.752l107.040 94.688c3.2 3.2 7.392 4.736 11.584 4.672 4.192 0.064 8.416-1.472 11.584-4.672l107.040-94.688c6.336-6.272 6.336-16.448 0.032-22.752z"></path>
</svg>
