<?xml version="1.0" encoding="utf-8"?>
<!-- Generated by IcoMoon.io -->
<!DOCTYPE svg PUBLIC "-//W3C//DTD SVG 1.1//EN" "http://www.w3.org/Graphics/SVG/1.1/DTD/svg11.dtd">
<svg version="1.1" xmlns="http://www.w3.org/2000/svg" xmlns:xlink="http://www.w3.org/1999/xlink" width="512" height="512" viewBox="0 0 512 512">
<path fill="#000000" d="M379.296 244.992l-94.688-107.040c-6.272-6.272-16.48-6.272-22.752 0s-6.272 16.48 0 22.752l84.8 95.872-84.8 95.872c-6.272 6.272-6.272 16.48 0 22.752s16.48 6.272 22.752 0l94.688-107.040c3.2-3.2 4.736-7.392 4.672-11.584 0.032-4.192-1.472-8.384-4.672-11.584zM147.072 375.232c6.272 6.272 16.48 6.272 22.752 0l94.688-107.040c3.2-3.2 4.736-7.392 4.672-11.584 0.064-4.192-1.472-8.416-4.672-11.584l-94.656-107.072c-6.272-6.272-16.48-6.272-22.752 0s-6.272 16.48 0 22.752l84.8 95.872-84.8 95.872c-6.304 6.304-6.304 16.512-0.032 22.784z"></path>
</svg>
