<?xml version="1.0" encoding="utf-8"?>
<!-- Generated by IcoMoon.io -->
<!DOCTYPE svg PUBLIC "-//W3C//DTD SVG 1.1//EN" "http://www.w3.org/Graphics/SVG/1.1/DTD/svg11.dtd">
<svg version="1.1" xmlns="http://www.w3.org/2000/svg" xmlns:xlink="http://www.w3.org/1999/xlink" width="512" height="512" viewBox="0 0 512 512">
<path fill="#000000" d="M375.232 227.392l-107.040-94.688c-3.2-3.2-7.392-4.736-11.584-4.672-4.224-0.064-8.416 1.472-11.616 4.672l-107.040 94.688c-6.272 6.272-6.272 16.48 0 22.752s16.48 6.272 22.752 0l95.872-84.832 95.872 84.832c6.272 6.272 16.48 6.272 22.752 0 6.336-6.272 6.336-16.448 0.032-22.752zM268.192 247.456c-3.2-3.2-7.392-4.736-11.584-4.672-4.224-0.064-8.416 1.472-11.616 4.672l-107.040 94.688c-6.272 6.272-6.272 16.48 0 22.752s16.48 6.272 22.752 0l95.872-84.8 95.872 84.8c6.272 6.272 16.48 6.272 22.752 0s6.272-16.48 0-22.752l-107.008-94.688z"></path>
</svg>
