<?xml version="1.0" encoding="utf-8"?>
<!-- Generated by IcoMoon.io -->
<!DOCTYPE svg PUBLIC "-//W3C//DTD SVG 1.1//EN" "http://www.w3.org/Graphics/SVG/1.1/DTD/svg11.dtd">
<svg version="1.1" xmlns="http://www.w3.org/2000/svg" xmlns:xlink="http://www.w3.org/1999/xlink" width="512" height="512" viewBox="0 0 512 512">
<path fill="#000000" d="M273.152 34.272c-131.904 0-238.848 106.944-238.848 238.848-0.032 131.936 106.912 238.88 238.848 238.88 131.904 0 238.848-106.944 238.848-238.848 0-131.936-106.944-238.88-238.848-238.88zM266.176 390.048c-6.272 6.272-16.48 6.272-22.752 0l-94.72-107.040c-3.2-3.2-4.736-7.424-4.672-11.616-0.032-4.192 1.472-8.384 4.672-11.584l94.688-107.040c6.272-6.272 16.48-6.272 22.752 0s6.272 16.48 0 22.752l-84.8 95.872 84.8 95.872c6.304 6.304 6.304 16.512 0.032 22.784zM380.928 367.296c6.272 6.272 6.272 16.48 0 22.752s-16.48 6.272-22.752 0l-94.72-107.040c-3.2-3.2-4.736-7.424-4.672-11.616-0.032-4.192 1.472-8.384 4.672-11.584l94.688-107.040c6.272-6.272 16.48-6.272 22.752 0s6.272 16.48 0 22.752l-84.8 95.872 84.832 95.904z"></path>
</svg>
