<?xml version="1.0" encoding="utf-8"?>
<!-- Generated by IcoMoon.io -->
<!DOCTYPE svg PUBLIC "-//W3C//DTD SVG 1.1//EN" "http://www.w3.org/Graphics/SVG/1.1/DTD/svg11.dtd">
<svg version="1.1" xmlns="http://www.w3.org/2000/svg" xmlns:xlink="http://www.w3.org/1999/xlink" width="512" height="512" viewBox="0 0 512 512">
<path fill="#000000" d="M273.056 34.144c-131.968 0-238.944 106.976-238.944 238.944s107.008 238.912 238.944 238.912 238.944-106.976 238.944-238.944-106.976-238.912-238.944-238.912zM390.048 300.608l-107.040 94.688c-3.2 3.2-7.392 4.736-11.584 4.672-4.224 0.032-8.416-1.472-11.616-4.672l-107.040-94.688c-6.272-6.272-6.272-16.48 0-22.752s16.48-6.272 22.752 0l95.872 84.8 95.872-84.8c6.272-6.272 16.48-6.272 22.752 0s6.336 16.448 0.032 22.752zM390.048 185.856l-107.040 94.688c-3.2 3.2-7.392 4.736-11.584 4.672-4.224 0.032-8.416-1.472-11.616-4.672l-107.040-94.688c-6.272-6.272-6.272-16.48 0-22.752 6.272-6.304 16.48-6.304 22.752-0.032l95.872 84.8 95.872-84.8c6.272-6.272 16.48-6.272 22.752 0s6.336 16.48 0.032 22.784z"></path>
</svg>
