<?xml version="1.0" encoding="utf-8"?>
<!-- Generated by IcoMoon.io -->
<!DOCTYPE svg PUBLIC "-//W3C//DTD SVG 1.1//EN" "http://www.w3.org/Graphics/SVG/1.1/DTD/svg11.dtd">
<svg version="1.1" xmlns="http://www.w3.org/2000/svg" xmlns:xlink="http://www.w3.org/1999/xlink" width="512" height="512" viewBox="0 0 512 512">
<path fill="#000000" d="M256 11.998c-132.939 0-240.636 109.38-240.636 244.002s107.698 244.002 240.636 244.002c132.938 0 240.636-109.38 240.636-244.002s-107.697-244.002-240.636-244.002zM128.109 291.339c10.096 10.096 21.875 15.146 35.339 15.146 8.414 0 15.145-1.683 21.875-6.731s11.779-10.096 15.145-16.828h45.435c-5.049 18.51-16.828 33.656-31.972 43.752s-31.972 16.828-52.166 16.828c-25.242 0-45.435-8.414-62.263-25.242s-25.242-38.704-25.242-63.946 8.414-45.435 25.242-63.946c16.828-16.828 38.704-26.924 62.263-26.924 20.193 0 37.021 5.049 52.166 16.828s25.242 25.242 31.972 43.752h-45.435c-3.365-8.414-8.414-13.462-16.828-18.511-6.732-3.365-15.145-6.732-23.559-6.732-13.462 0-25.242 5.049-33.656 15.145s-13.462 25.242-13.462 38.703c0 15.146 5.049 28.607 15.146 38.704zM407.45 326.676c-15.146 10.096-31.972 16.828-52.166 16.828-25.242 0-45.435-8.414-62.262-25.242s-25.242-38.704-25.242-63.946c0-25.242 8.414-45.435 25.242-63.946 16.828-16.828 38.704-26.924 62.262-26.924 20.193 0 37.021 5.049 52.166 16.828s25.242 25.242 31.972 43.752h-45.435c-3.365-8.414-8.414-13.462-16.828-18.511-6.731-3.365-15.146-6.732-23.559-6.732-13.462 0-25.242 5.049-33.656 15.145s-13.462 25.242-13.462 38.703c0 15.146 5.049 28.607 15.146 38.704s21.875 15.146 35.339 15.146c8.414 0 15.146-1.683 21.875-6.731s11.779-10.096 15.146-16.828h45.435c-6.731 18.51-16.828 33.656-31.972 43.752z"></path>
</svg>
