<?xml version="1.0" encoding="utf-8"?>
<!-- Generator: Adobe Illustrator 22.1.0, SVG Export Plug-In . SVG Version: 6.00 Build 0)  -->
<svg version="1.1" id="Layer_1" xmlns="http://www.w3.org/2000/svg" xmlns:xlink="http://www.w3.org/1999/xlink" x="0px" y="0px"
	 viewBox="0 0 32 32" style="enable-background:new 0 0 32 32;" xml:space="preserve">
<g>
	<path d="M22.4,19.5c0.2-0.1,1-0.4,1.2-0.4c0.3,0,0.7-0.3,1-0.7c0.3-0.4,0.4-0.8,0.3-1.1c-0.3-0.8,0.2-2,1-2.4
		c0.3-0.2,0.5-0.6,0.5-1c0.1-0.5,0-0.9-0.3-1.2c-0.6-0.6-0.8-1.8-0.3-2.6c0.2-0.3,0.2-0.8,0-1.2c-0.2-0.4-0.4-0.7-0.8-0.9
		c-0.9-0.3-1.6-1.3-1.5-2.2c0-0.3-0.2-0.7-0.5-1c-0.3-0.3-0.7-0.5-1.1-0.4c-0.9,0.2-2-0.4-2.3-1.2c-0.2-0.3-0.5-0.6-1-0.7
		c-0.4-0.1-0.9-0.1-1.2,0.1c-0.7,0.6-1.9,0.6-2.6,0c-0.3-0.2-0.7-0.3-1.2-0.1c-0.4,0.1-0.8,0.4-1,0.7c-0.3,0.8-1.5,1.4-2.3,1.2
		c-0.3,0-0.7,0.1-1.1,0.4C8.9,5,8.6,5.4,8.6,5.8C8.7,6.7,8,7.7,7.1,7.9C6.8,8.1,6.5,8.4,6.3,8.8c-0.2,0.4-0.2,0.9,0,1.2
		c0.5,0.8,0.3,2-0.3,2.6c-0.2,0.3-0.3,0.7-0.3,1.1c0.1,0.4,0.3,0.8,0.5,1c0.8,0.4,1.2,1.6,0.9,2.5c-0.1,0.3,0,0.8,0.3,1.1
		c0.3,0.4,0.6,0.6,1,0.7c0.2,0,1,0.5,1.2,0.6L5,29.1l3.8-0.9l2.1,3.3l3.8-9.3c0,0,0.1,0.2,0.1,0.2c0.2,0.3,0.6,0.4,1.1,0.4
		c0.5,0,0.9-0.1,1.1-0.4c0.1-0.1,0.1-0.1,0.2-0.2l3.8,9.3l2.1-3.3l3.8,0.9L22.4,19.5z M16.5,16.5c-0.3,0.3-0.8,0.6-1,0.6
		c-0.4,0-0.8-0.1-1-0.4c-0.3-0.3-3.2-3.2-3.2-3.3c-0.3-0.3-0.3-0.6,0.1-1c0.1-0.1,0.6-0.6,0.8-0.8c0.3-0.3,0.7-0.2,0.9,0.1
		c0.1,0.1,2.5,2.5,2.5,2.5s5.5-5.8,5.6-6c0.3-0.3,0.6-0.3,1,0c0.1,0.1,0.6,0.5,0.6,0.6c0.1,0.3,0.2,0.7-0.1,1
		C22.7,9.7,16.6,16.3,16.5,16.5z"/>
</g>
</svg>
