<?xml version="1.0" encoding="utf-8"?>
<!-- Generator: Adobe Illustrator 22.1.0, SVG Export Plug-In . SVG Version: 6.00 Build 0)  -->
<svg version="1.1" id="Layer_1" xmlns="http://www.w3.org/2000/svg" xmlns:xlink="http://www.w3.org/1999/xlink" x="0px" y="0px"
	 viewBox="0 0 32 32" style="enable-background:new 0 0 32 32;" xml:space="preserve">
<g>
	<path d="M20.8,10.3c-1.6,0-4.2,0-5.9,0c-0.1,0.2-3.4,7.5-3.5,7.7c1.3,0,2.4,0,3.6,0l-2.2,5.6c0.1,0,5.1-5,8.3-8.1
		c-1.4,0-2.4,0-3.8,0C17.3,15.5,19.6,11.9,20.8,10.3z"/>
</g>
<path d="M29.1,13.3c-1.3,0-2.4,1-2.5,2.4h-2c-0.2,0-0.3,0.1-0.3,0.3s0.1,0.3,0.3,0.3h2c0.2,1.2,1.2,2.2,2.5,2.2
	c1.4,0,2.5-1.1,2.5-2.5S30.5,13.3,29.1,13.3z"/>
<path d="M23.3,5c-1,1-1,2.5-0.1,3.5l-1.4,1.4c-0.1,0.1-0.1,0.3,0,0.4c0.1,0.1,0.3,0.1,0.4,0l1.4-1.4c1,0.7,2.4,0.7,3.3-0.2
	c1-1,1-2.6,0-3.6S24.3,4,23.3,5z"/>
<path d="M18.6,28.9c0-1.3-1-2.4-2.4-2.5v-2c0-0.2-0.1-0.3-0.3-0.3s-0.3,0.1-0.3,0.3v2c-1.2,0.2-2.2,1.2-2.2,2.5
	c0,1.4,1.1,2.5,2.5,2.5S18.6,30.3,18.6,28.9z"/>
<path d="M13.4,3c0,1.3,1,2.4,2.4,2.5l0,2c0,0.2,0.1,0.3,0.3,0.3c0.2,0,0.3-0.1,0.3-0.3v-2c1.2-0.2,2.2-1.2,2.2-2.5
	c0-1.4-1.1-2.5-2.5-2.5C14.5,0.5,13.4,1.6,13.4,3z"/>
<path d="M27.1,23.5c-1-1-2.5-1-3.5-0.1L22.2,22c-0.1-0.1-0.3-0.1-0.4,0s-0.1,0.3,0,0.4l1.4,1.4c-0.7,1-0.7,2.4,0.2,3.3
	c1,1,2.6,1,3.6,0C28.1,26.1,28.1,24.5,27.1,23.5z"/>
<path d="M3.1,13.3c1.3,0,2.4,1,2.5,2.4h2c0.2,0,0.3,0.1,0.3,0.3s-0.1,0.3-0.3,0.3h-2c-0.2,1.2-1.2,2.2-2.5,2.2
	c-1.4,0-2.5-1.1-2.5-2.5S1.7,13.3,3.1,13.3z"/>
<path d="M8.8,5c1,1,1,2.5,0.1,3.5l1.4,1.4c0.1,0.1,0.1,0.3,0,0.4c-0.1,0.1-0.3,0.1-0.4,0L8.5,8.8c-1,0.7-2.4,0.7-3.3-0.2
	c-1-1-1-2.6,0-3.6S7.8,4,8.8,5z"/>
<path d="M5.1,23.5c1-1,2.5-1,3.5-0.1L10,22c0.1-0.1,0.3-0.1,0.4,0s0.1,0.3,0,0.4l-1.4,1.4c0.7,1,0.7,2.4-0.2,3.3c-1,1-2.6,1-3.6,0
	S4.1,24.5,5.1,23.5z"/>
</svg>
