<?xml version="1.0" encoding="utf-8"?>
<!-- Generated by IcoMoon.io -->
<!DOCTYPE svg PUBLIC "-//W3C//DTD SVG 1.1//EN" "http://www.w3.org/Graphics/SVG/1.1/DTD/svg11.dtd">
<svg version="1.1" xmlns="http://www.w3.org/2000/svg" xmlns:xlink="http://www.w3.org/1999/xlink" width="512" height="512" viewBox="0 0 512 512">
<path fill="#000000" d="M191.607 186.385c0 15.379-12.466 27.845-27.845 27.845s-27.845-12.466-27.845-27.845c0-15.379 12.466-27.845 27.845-27.845s27.845 12.466 27.845 27.845z"></path>
<path fill="#000000" d="M262.962 186.385c0 15.379-12.466 27.845-27.845 27.845s-27.845-12.466-27.845-27.845c0-15.379 12.466-27.845 27.845-27.845s27.845 12.466 27.845 27.845z"></path>
<path fill="#000000" d="M290.808 207.27c5.22 3.48 10.442 6.963 17.402 6.963 8.702 0 17.402-5.22 22.625-12.183 3.48-5.22 5.22-10.442 5.22-15.662 0-15.662-12.183-27.845-27.845-27.845s-27.845 12.183-27.845 27.845c0 6.963 3.48 13.922 8.702 19.145 0 1.74 1.74 1.74 1.74 1.74z"></path>
<path fill="#000000" d="M256 8.869c-134.008 0-243.65 109.643-243.65 247.131s109.643 248.871 243.65 248.871c134.008 0 243.65-111.383 243.65-248.871s-109.643-247.131-243.65-247.131zM182.905 287.327c-3.48 0-8.703-1.74-12.183-1.74h-1.74l-1.74 1.74c-20.885 13.923-43.51 20.885-69.615 20.885-8.703 0-15.662 0-22.625-1.74 26.105-6.962 33.068-27.845 34.807-41.768v-3.48l-3.48-1.74c-33.068-19.145-50.47-45.25-50.47-73.095 0-55.691 76.576-102.68 170.555-102.68s170.555 45.25 170.555 102.68c0 6.963-1.74 15.662-3.48 22.625 0 0 0 0 0 0-19.145 45.25-87.018 80.056-168.815 80.056-15.662 1.74-27.845 0-41.768-1.74 0 0 0 0 0 0zM365.643 363.902c-13.923 3.48-27.845 5.22-43.51 5.22-62.652 0-114.863-26.105-128.786-62.652 12.183 1.74 24.365 1.74 36.548 1.74 85.278 0 156.633-36.548 175.775-87.018 31.327 15.662 50.47 38.287 50.47 64.393 0 22.625-15.663 43.51-40.028 59.173 1.74 13.923 8.702 31.327 45.25 29.586 0 0-52.211 24.365-95.72-10.442z"></path>
</svg>
