<?xml version="1.0" encoding="utf-8"?>
<!-- Generated by IcoMoon.io -->
<!DOCTYPE svg PUBLIC "-//W3C//DTD SVG 1.1//EN" "http://www.w3.org/Graphics/SVG/1.1/DTD/svg11.dtd">
<svg version="1.1" xmlns="http://www.w3.org/2000/svg" xmlns:xlink="http://www.w3.org/1999/xlink" width="512" height="512" viewBox="0 0 512 512">
<path fill="#000000" d="M506.692 236.975c0-82.475-111.488-149.577-248.567-149.577-137.1 0-248.587 67.119-248.587 149.577 0 39.847 26.038 77.415 73.339 105.807l4.326 2.608-0.484 4.982c-1.737 19.392-11.088 49.467-50.24 60.205 10.12 1.854 21.767 3.108 34.245 3.108 37.548 0 71.078-11.377 99.607-33.8l2.956-2.28 3.612 0.714c5.872 1.257 11.935 2.163 17.924 3.127 0.019 0.289 0.019 0.578 0.039 0.851 19.315 2.78 39.036 4.287 58.989 4.287 119 0 218.841-49.853 245.765-116.704 0.289 0.117 0.598 0.192 0.87 0.308 3.998-10.702 6.2-21.805 6.2-33.221zM272.398 194.519c22.309 0 40.331 18.041 40.331 40.351 0 22.329-18.022 40.37-40.331 40.37-22.328 0-40.351-18.041-40.351-40.37 0-22.309 18.002-40.351 40.351-40.351zM126.087 234.87c0-22.309 18.061-40.351 40.35-40.351s40.406 18.041 40.406 40.351c0 22.329-18.117 40.37-40.406 40.37s-40.35-18.022-40.35-40.37zM378.341 275.238c-9.542 0-17.944-3.787-24.82-9.253-1.293-1.082-2.452-2.358-3.631-3.611v0c-7.145-7.145-11.935-16.515-11.935-27.506 0-22.309 18.098-40.35 40.406-40.35 22.27 0 40.351 18.041 40.351 40.351 0 8.827-3.381 16.535-8.191 23.18-7.399 10.159-18.717 17.19-32.179 17.19z"></path>
</svg>
