<?xml version="1.0" encoding="utf-8"?>
<!-- Generated by IcoMoon.io -->
<!DOCTYPE svg PUBLIC "-//W3C//DTD SVG 1.1//EN" "http://www.w3.org/Graphics/SVG/1.1/DTD/svg11.dtd">
<svg version="1.1" xmlns="http://www.w3.org/2000/svg" xmlns:xlink="http://www.w3.org/1999/xlink" width="512" height="512" viewBox="0 0 512 512">
<path fill="#000000" d="M453.042 376.273c30.544-18.383 49.529-43.979 49.529-72.32 0-32.229-24.603-60.892-62.859-79.426-24.020 60.935-112.064 106.276-216.743 106.276-15.186 0-30.197-1.037-44.994-2.915 17.497 44.303 82.451 77.201 159.953 77.201 18.577 0 36.505-1.901 53.18-5.399 53.656 42.164 116.861 12.918 116.861 12.918-43.203 2.571-53.397-19.462-54.931-36.332z"></path>
<path fill="#000000" d="M428.634 182.904c0-69.597-94.092-126.236-209.764-126.236s-209.764 56.638-209.764 126.236c0 33.611 21.97 65.298 61.886 89.275l3.651 2.204-0.432 4.19c-1.469 16.373-9.373 41.754-42.402 50.827 8.553 1.534 18.383 2.615 28.922 2.615 31.688 0 59.965-9.589 84.070-28.513l2.484-1.923 3.047 0.605c4.945 1.058 10.066 1.837 15.12 2.635 0.022 0.238 0.022 0.476 0.043 0.692 16.287 2.356 32.918 3.63 49.767 3.63 100.399 0 184.688-42.058 207.39-98.5 0.238 0.107 0.498 0.173 0.733 0.281 3.392-9.029 5.249-18.361 5.249-28.017zM230.921 147.089c18.835 0 34.042 15.208 34.042 34.042s-15.208 34.042-34.042 34.042-34.042-15.208-34.042-34.042 15.208-34.042 34.042-34.042zM107.472 181.132c0-18.835 15.229-34.042 34.042-34.042s34.086 15.208 34.086 34.042-15.271 34.042-34.086 34.042-34.042-15.208-34.042-34.042zM320.348 215.174c-8.057 0-15.12-3.176-20.952-7.798-1.124-0.887-2.074-1.988-3.088-3.047v0c-6.026-6.026-10.087-13.955-10.087-23.2 0-18.835 15.271-34.042 34.108-34.042 18.794 0 34.042 15.208 34.042 34.042 0 7.453-2.872 13.955-6.911 19.548-6.2 8.575-15.769 14.494-27.108 14.494z"></path>
</svg>
