<?xml version="1.0" encoding="utf-8"?>
<!-- Generated by IcoMoon.io -->
<!DOCTYPE svg PUBLIC "-//W3C//DTD SVG 1.1//EN" "http://www.w3.org/Graphics/SVG/1.1/DTD/svg11.dtd">
<svg version="1.1" xmlns="http://www.w3.org/2000/svg" xmlns:xlink="http://www.w3.org/1999/xlink" width="512" height="512" viewBox="0 0 512 512">
<path fill="#000000" d="M257.302 8.002c-136.957 0-247.998 111.041-247.998 247.998s111.041 247.998 247.998 247.998 247.998-111.041 247.998-247.998-111.041-247.998-247.998-247.998zM372.187 187.397l-118.791 181.566c-0.031 0.031-0.093 0.062-0.093 0.093-0.62 0.93-0.961 1.984-1.736 2.852-1.085 1.178-2.48 1.798-3.72 2.697-0.31 0.217-0.62 0.465-0.961 0.682-1.922 1.209-3.906 2.015-6.076 2.542-0.713 0.186-1.364 0.372-2.108 0.496-1.767 0.248-3.441 0.248-5.208 0.062-1.24-0.093-2.418-0.248-3.627-0.558-1.24-0.341-2.387-0.868-3.565-1.426-0.992-0.465-2.046-0.589-2.976-1.178-0.682-0.434-1.054-1.116-1.643-1.643-0.248-0.217-0.558-0.279-0.806-0.496l-69.161-63.953c-8.804-8.153-9.331-21.886-1.209-30.659s21.855-9.331 30.659-1.209l50.065 46.314 104.624-159.928c6.572-10.013 19.995-12.834 30.039-6.293 10.044 6.572 12.865 20.026 6.293 30.039z"></path>
</svg>
