<?xml version="1.0" encoding="utf-8"?>
<!-- Generated by IcoMoon.io -->
<!DOCTYPE svg PUBLIC "-//W3C//DTD SVG 1.1//EN" "http://www.w3.org/Graphics/SVG/1.1/DTD/svg11.dtd">
<svg version="1.1" xmlns="http://www.w3.org/2000/svg" xmlns:xlink="http://www.w3.org/1999/xlink" width="512" height="512" viewBox="0 0 512 512">
<path fill="#000000" d="M257.344 0c-141.376 0-256 114.624-256 256s114.624 256 256 256 256-114.624 256-256-114.624-256-256-256zM257.344 480c-123.52 0-224-100.48-224-224s100.48-224 224-224 224 100.48 224 224-100.512 224-224 224zM369.472 154.176c-10.336-6.784-24.224-3.872-31.008 6.496l-108.032 165.088-51.648-47.808c-9.088-8.384-23.264-7.84-31.68 1.248s-7.84 23.232 1.248 31.648l71.392 66.048c0.256 0.224 0.576 0.288 0.832 0.512 0.64 0.512 1.024 1.216 1.696 1.696 0.96 0.64 2.048 0.768 3.072 1.216 1.216 0.576 2.4 1.12 3.68 1.472 1.248 0.32 2.464 0.48 3.744 0.576 1.824 0.192 3.584 0.192 5.376-0.064 0.736-0.128 1.44-0.32 2.176-0.512 2.208-0.544 4.256-1.408 6.272-2.624 0.352-0.224 0.64-0.48 0.992-0.704 1.312-0.896 2.72-1.568 3.84-2.784 0.8-0.864 1.152-1.984 1.792-2.944 0.032-0.032 0.096-0.064 0.096-0.096l122.624-187.424c6.784-10.368 3.872-24.256-6.464-31.040z"></path>
</svg>
