<?xml version="1.0" encoding="utf-8"?>
<!-- Generator: Adobe Illustrator 22.1.0, SVG Export Plug-In . SVG Version: 6.00 Build 0)  -->
<svg version="1.1" id="Layer_1" xmlns="http://www.w3.org/2000/svg" xmlns:xlink="http://www.w3.org/1999/xlink" x="0px" y="0px"
	 viewBox="0 0 32 32" style="enable-background:new 0 0 32 32;" xml:space="preserve">
<style type="text/css">
	.st0{fill:none;}
</style>
<g>
	<path class="st0" d="M20.4,1.5c0.1,0,0.3,0.1,0.3,0.3V4c0,0.1-0.1,0.3-0.3,0.3S20.2,4.1,20.2,4V1.8C20.2,1.7,20.3,1.5,20.4,1.5z"/>
	<path class="st0" d="M20.4,5.8c0.1,0,0.3,0.1,0.3,0.3v8.4c0,0.1-0.1,0.3-0.3,0.3s-0.3-0.1-0.3-0.3V6.1C20.2,5.9,20.3,5.8,20.4,5.8z
		"/>
	<path class="st0" d="M22.5,17.2V6.1c0-0.1,0.1-0.3,0.3-0.3S23,5.9,23,6.1v11.1c0,0.1-0.1,0.3-0.3,0.3S22.5,17.4,22.5,17.2z"/>
	<path class="st0" d="M18.2,14.8c-0.1,0-0.3-0.1-0.3-0.3V6.1c0-0.1,0.1-0.3,0.3-0.3s0.3,0.1,0.3,0.3v8.4
		C18.4,14.7,18.3,14.8,18.2,14.8z"/>
	<path class="st0" d="M15.9,14.8c-0.1,0-0.3-0.1-0.3-0.3V6.1c0-0.1,0.1-0.3,0.3-0.3c0.1,0,0.3,0.1,0.3,0.3v8.4
		C16.1,14.7,16,14.8,15.9,14.8z"/>
	<path class="st0" d="M18.2,4.2c-0.1,0-0.3-0.1-0.3-0.3V1.8c0-0.1,0.1-0.3,0.3-0.3s0.3,0.1,0.3,0.3V4C18.4,4.1,18.3,4.2,18.2,4.2z"
		/>
	<path class="st0" d="M24.2,26.9c0.3,0,0.5,0.2,0.5,0.5v1c0,0.3-0.2,0.5-0.5,0.5c-0.3,0-0.5-0.2-0.5-0.5v-1
		C23.7,27.1,23.9,26.9,24.2,26.9z"/>
	<path class="st0" d="M24.2,23.8c0.3,0,0.5,0.2,0.5,0.5v1c0,0.3-0.2,0.5-0.5,0.5c-0.3,0-0.5-0.2-0.5-0.5v-1
		C23.7,24,23.9,23.8,24.2,23.8z"/>
	<path class="st0" d="M28.4,21.8H30v1l-1.5,0c-0.3,0-0.5-0.2-0.5-0.5C27.9,22,28.1,21.8,28.4,21.8z"/>
	<path class="st0" d="M28.4,28l1.5,0v1h-1.5c-0.3,0-0.5-0.2-0.5-0.5C27.9,28.2,28.1,28,28.4,28z"/>
	<path class="st0" d="M28.4,23.9H30v1h-1.5c-0.3,0-0.5-0.2-0.5-0.5C27.9,24.1,28.1,23.9,28.4,23.9z"/>
	<path class="st0" d="M24.2,20.7c0.3,0,0.5,0.2,0.5,0.5v1c0,0.3-0.2,0.5-0.5,0.5c-0.3,0-0.5-0.2-0.5-0.5v-1
		C23.7,20.9,23.9,20.7,24.2,20.7z"/>
	<path class="st0" d="M28.4,25.9H30v1h-1.5c-0.3,0-0.5-0.2-0.5-0.5C27.9,26.2,28.1,25.9,28.4,25.9z"/>
	<path class="st0" d="M28.4,19.8H30v1l-1.5,0c-0.3,0-0.5-0.2-0.5-0.5S28.1,19.8,28.4,19.8z"/>
	<path class="st0" d="M22.1,20.7c0.3,0,0.5,0.2,0.5,0.5v1c0,0.3-0.2,0.5-0.5,0.5s-0.5-0.2-0.5-0.5v-1C21.6,20.9,21.9,20.7,22.1,20.7
		z"/>
	<path class="st0" d="M22.1,23.8c0.3,0,0.5,0.2,0.5,0.5v1c0,0.3-0.2,0.5-0.5,0.5s-0.5-0.2-0.5-0.5v-1C21.6,24,21.9,23.8,22.1,23.8z"
		/>
	<path class="st0" d="M22.1,26.9c0.3,0,0.5,0.2,0.5,0.5v1c0,0.3-0.2,0.5-0.5,0.5s-0.5-0.2-0.5-0.5v-1C21.6,27.1,21.9,26.9,22.1,26.9
		z"/>
	<path class="st0" d="M11.6,15.9h2.6h2.1h2.1h1.5v2.6v2.1v2.1v2.1v2.1v2.1v1.5h-0.6h-0.4h-0.5v-13c0-0.4-0.3-0.7-0.7-0.7
		s-0.7,0.3-0.7,0.7v13h-0.2H16v-13c0-0.4-0.3-0.7-0.7-0.7s-0.7,0.3-0.7,0.7v13h-0.9v-13c0-0.4-0.3-0.7-0.7-0.7
		c-0.4,0-0.7,0.3-0.7,0.7v13h-0.7h-0.2v-13c0-0.4-0.3-0.7-0.7-0.7S10,17,10,17.4v13H9.5H9.2H8.5V15.9h1H11.6z"/>
	<path d="M1.8,6.2h1V4.6c0-0.3,0.2-0.5,0.5-0.5h3.1C6.7,4.1,7,4.3,7,4.6v1.5h1c0.3,0,0.5,0.2,0.5,0.5v8.2h0.9v-3.1
		c0-0.3,0.2-0.5,0.5-0.5h0.5h1H12c0.3,0,0.5,0.2,0.5,0.5v3.1h1.1V4.6c0-0.3,0.2-0.5,0.5-0.5h1.5V1c0-0.3,0.2-0.5,0.5-0.5h6.2
		c0.3,0,0.5,0.2,0.5,0.5v3.1h1.5c0.3,0,0.5,0.2,0.5,0.5V18h1v-0.6c0-0.3,0.2-0.5,0.5-0.5h3.1c0.3,0,0.5,0.2,0.5,0.5V18h0.5
		c0.3,0,0.5,0.2,0.5,0.5v12.3c0,0.3-0.2,0.5-0.5,0.5h-6.2h-4.1h-2.7c0,0,0,0,0,0s0,0,0,0h-2.2c0,0,0,0,0,0s0,0,0,0H13c0,0,0,0,0,0
		c0,0,0,0,0,0h-2.2c0,0,0,0,0,0s0,0,0,0H8H1.8c-0.3,0-0.5-0.2-0.5-0.5V6.7C1.3,6.4,1.5,6.2,1.8,6.2z M28.4,29H30v-1l-1.5,0
		c-0.3,0-0.5,0.2-0.5,0.5C27.9,28.8,28.1,29,28.4,29z M28.4,27H30v-1h-1.5c-0.3,0-0.5,0.2-0.5,0.5C27.9,26.7,28.1,27,28.4,27z
		 M28.4,24.9H30v-1h-1.5c-0.3,0-0.5,0.2-0.5,0.5C27.9,24.7,28.1,24.9,28.4,24.9z M28.4,22.8l1.5,0v-1h-1.5c-0.3,0-0.5,0.2-0.5,0.5
		C27.9,22.6,28.1,22.8,28.4,22.8z M28.4,20.8l1.5,0v-1h-1.5c-0.3,0-0.5,0.2-0.5,0.5S28.1,20.8,28.4,20.8z M16.1,6.1
		c0-0.1-0.1-0.3-0.3-0.3c-0.1,0-0.3,0.1-0.3,0.3v8.4c0,0.1,0.1,0.3,0.3,0.3c0.1,0,0.3-0.1,0.3-0.3V6.1z M18.4,1.8
		c0-0.1-0.1-0.3-0.3-0.3s-0.3,0.1-0.3,0.3V4c0,0.1,0.1,0.3,0.3,0.3s0.3-0.1,0.3-0.3V1.8z M18.4,6.1c0-0.1-0.1-0.3-0.3-0.3
		s-0.3,0.1-0.3,0.3v8.4c0,0.1,0.1,0.3,0.3,0.3s0.3-0.1,0.3-0.3V6.1z M23.7,28.4c0,0.3,0.2,0.5,0.5,0.5c0.3,0,0.5-0.2,0.5-0.5v-1
		c0-0.3-0.2-0.5-0.5-0.5c-0.3,0-0.5,0.2-0.5,0.5V28.4z M23.7,25.3c0,0.3,0.2,0.5,0.5,0.5c0.3,0,0.5-0.2,0.5-0.5v-1
		c0-0.3-0.2-0.5-0.5-0.5c-0.3,0-0.5,0.2-0.5,0.5V25.3z M23.7,22.2c0,0.3,0.2,0.5,0.5,0.5c0.3,0,0.5-0.2,0.5-0.5v-1
		c0-0.3-0.2-0.5-0.5-0.5c-0.3,0-0.5,0.2-0.5,0.5V22.2z M23,17.2V6.1c0-0.1-0.1-0.3-0.3-0.3s-0.3,0.1-0.3,0.3v11.1
		c0,0.1,0.1,0.3,0.3,0.3S23,17.4,23,17.2z M21.6,28.4c0,0.3,0.2,0.5,0.5,0.5s0.5-0.2,0.5-0.5v-1c0-0.3-0.2-0.5-0.5-0.5
		c-0.3,0-0.5,0.2-0.5,0.5V28.4z M21.6,25.3c0,0.3,0.2,0.5,0.5,0.5s0.5-0.2,0.5-0.5v-1c0-0.3-0.2-0.5-0.5-0.5c-0.3,0-0.5,0.2-0.5,0.5
		V25.3z M21.6,22.2c0,0.3,0.2,0.5,0.5,0.5s0.5-0.2,0.5-0.5v-1c0-0.3-0.2-0.5-0.5-0.5c-0.3,0-0.5,0.2-0.5,0.5V22.2z M20.2,14.5
		c0,0.1,0.1,0.3,0.3,0.3s0.3-0.1,0.3-0.3V6.1c0-0.1-0.1-0.3-0.3-0.3s-0.3,0.1-0.3,0.3V14.5z M20.2,4c0,0.1,0.1,0.3,0.3,0.3
		s0.3-0.1,0.3-0.3V1.8c0-0.1-0.1-0.3-0.3-0.3s-0.3,0.1-0.3,0.3V4z M8.5,30.3h0.7h0.3H10v-13c0-0.4,0.3-0.7,0.7-0.7s0.7,0.3,0.7,0.7
		v13h0.2h0.7v-13c0-0.4,0.3-0.7,0.7-0.7c0.4,0,0.7,0.3,0.7,0.7v13h0.9v-13c0-0.4,0.3-0.7,0.7-0.7S16,17,16,17.4v13h0.8h0.2v-13
		c0-0.4,0.3-0.7,0.7-0.7s0.7,0.3,0.7,0.7v13h0.5h0.4h0.6v-1.5v-2.1v-2.1v-2.1v-2.1v-2.1v-2.6h-1.5h-2.1h-2.1h-2.6H9.5h-1V30.3z
		 M5.3,28.3h1.8v-0.9H5.3V28.3z M5.3,25.6h1.8v-0.9H5.3V25.6z M5.3,22.9h1.8V22H5.3V22.9z M5.3,20.2h1.8v-0.9H5.3V20.2z M5.3,17.5
		h1.8v-0.9H5.3V17.5z M5.3,14.8h1.8v-0.9H5.3V14.8z M5.3,12.1h1.8v-0.9H5.3V12.1z M5.3,9.4h1.8V8.5H5.3V9.4z M2.7,28.3h1.8v-0.9H2.7
		V28.3z M2.7,25.6h1.8v-0.9H2.7V25.6z M2.7,22.9h1.8V22H2.7V22.9z M2.7,20.2h1.8v-0.9H2.7V20.2z M2.7,17.5h1.8v-0.9H2.7V17.5z
		 M2.7,14.8h1.8v-0.9H2.7V14.8z M2.7,12.1h1.8v-0.9H2.7V12.1z M2.7,9.4h1.8V8.5H2.7V9.4z"/>
</g>
</svg>
