<?xml version="1.0" encoding="utf-8"?>
<!-- Generator: Adobe Illustrator 22.1.0, SVG Export Plug-In . SVG Version: 6.00 Build 0)  -->
<svg version="1.1" id="Layer_1" xmlns="http://www.w3.org/2000/svg" xmlns:xlink="http://www.w3.org/1999/xlink" x="0px" y="0px"
	 viewBox="0 0 32 32" style="enable-background:new 0 0 32 32;" xml:space="preserve">
<g>
	<path d="M16,3.9C9.3,3.9,3.9,9.3,3.9,16S9.3,28.1,16,28.1S28.1,22.7,28.1,16S22.7,3.9,16,3.9z M21.1,20c-0.2,0.2-0.6,0.3-0.9,0.1
		l-3.5-2.8c-0.2,0.1-0.4,0.2-0.7,0.2c-0.8,0-1.5-0.7-1.5-1.5c0-0.6,0.4-1.1,0.9-1.3V7.1c0-0.3,0.3-0.6,0.6-0.6
		c0.3,0,0.6,0.3,0.6,0.6v7.5c0.5,0.2,0.9,0.7,0.9,1.3c0,0.1,0,0.2,0,0.3L21,19C21.3,19.3,21.3,19.7,21.1,20z"/>
	<circle cx="16" cy="16" r="0.5"/>
</g>
</svg>
