<?xml version="1.0" encoding="utf-8"?>
<!-- Generated by IcoMoon.io -->
<!DOCTYPE svg PUBLIC "-//W3C//DTD SVG 1.1//EN" "http://www.w3.org/Graphics/SVG/1.1/DTD/svg11.dtd">
<svg version="1.1" xmlns="http://www.w3.org/2000/svg" xmlns:xlink="http://www.w3.org/1999/xlink" width="512" height="512" viewBox="0 0 512 512">
<path fill="#000000" d="M272 32c-132.544 0-240 107.456-240 240s107.456 240 240 240 240-107.456 240-240-107.456-240-240-240zM272 480c-114.688 0-208-93.312-208-208s93.312-208 208-208 208 93.312 208 208-93.312 208-208 208zM360.576 160.8l-87.968 87.968-78.88-87.968c-6.24-6.24-16.384-6.24-22.624 0s-6.24 16.384 0 22.624l78.912 87.968-89.184 89.184c-6.24 6.24-6.24 16.384 0 22.624s16.384 6.24 22.624 0l87.968-87.968 78.912 87.968c6.24 6.24 16.384 6.24 22.624 0s6.24-16.384 0-22.624l-78.944-87.968 89.184-89.184c6.24-6.24 6.24-16.384 0-22.624s-16.384-6.24-22.624 0z"></path>
</svg>
