<?xml version="1.0" encoding="utf-8"?>
<!-- Generated by IcoMoon.io -->
<!DOCTYPE svg PUBLIC "-//W3C//DTD SVG 1.1//EN" "http://www.w3.org/Graphics/SVG/1.1/DTD/svg11.dtd">
<svg version="1.1" xmlns="http://www.w3.org/2000/svg" xmlns:xlink="http://www.w3.org/1999/xlink" width="512" height="512" viewBox="0 0 512 512">
<path fill="#000000" d="M271.733 35.734c-130.334 0-235.999 105.665-235.999 235.999s105.665 235.999 235.999 235.999 235.999-105.664 235.999-235.999-105.664-235.999-235.999-235.999zM381.079 184.634l-87.697 87.698 77.596 86.501c6.136 6.136 6.136 16.111 0 22.247s-16.111 6.136-22.247 0l-77.596-86.502-86.501 86.501c-6.136 6.136-16.111 6.136-22.247 0s-6.136-16.111 0-22.247l87.697-87.697-77.596-86.501c-6.136-6.136-6.136-16.111 0-22.247s16.111-6.136 22.247 0l77.596 86.501 86.501-86.501c6.136-6.136 16.111-6.136 22.247 0s6.136 16.111 0 22.247z"></path>
</svg>
