<?xml version="1.0" encoding="utf-8"?>
<!-- Generator: Adobe Illustrator 22.1.0, SVG Export Plug-In . SVG Version: 6.00 Build 0)  -->
<svg version="1.1" id="Layer_1" xmlns="http://www.w3.org/2000/svg" xmlns:xlink="http://www.w3.org/1999/xlink" x="0px" y="0px"
	 viewBox="0 0 32 32" style="enable-background:new 0 0 32 32;" xml:space="preserve">
<g>
	<path d="M16.4,27.8v-9.1c0-0.3-0.3-0.6-0.6-0.6c-0.3,0-0.6,0.3-0.6,0.6v9.1c-0.7,0.2-1.2,0.9-1.2,1.6c0,0.9,0.8,1.7,1.7,1.7
		c0.9,0,1.7-0.8,1.7-1.7C17.5,28.7,17,28.1,16.4,27.8z"/>
	<path d="M6.5,27.8h3.1c1.9,0,3.1-1.3,3.1-3.3v-4.5c0-0.3-0.2-0.5-0.5-0.5s-0.5,0.2-0.5,0.5v4.5c0,0.9-0.3,2.3-2.1,2.3H6.5
		c-0.2-0.7-0.9-1.2-1.6-1.2c-0.9,0-1.7,0.8-1.7,1.7S3.9,29,4.9,29C5.7,29,6.3,28.5,6.5,27.8z"/>
	<path d="M18.8,19.9v4.5c0,2,1.2,3.3,3.1,3.3h3.1c0.2,0.7,0.9,1.2,1.6,1.2c0.9,0,1.7-0.8,1.7-1.7s-0.8-1.7-1.7-1.7
		c-0.8,0-1.4,0.5-1.6,1.2H22c-1.9,0-2.1-1.4-2.1-2.3v-4.5c0-0.3-0.2-0.5-0.5-0.5S18.8,19.7,18.8,19.9z"/>
</g>
<path d="M24.8,22.9h-1.6c-0.5,0-0.9-0.4-0.9-0.9s0.4-0.9,0.9-0.9h1.6c0.7,0,1.8-0.2,2.8-0.7c1.2-0.6,1.9-1.6,2.1-2.8
	c0.2-1.2,0-2.3-0.7-3.2c-0.7-1-1.8-1.7-3-1.9c0,0-0.3-0.1-0.4-0.1c-0.6-0.1-0.6-0.6-0.5-0.9c0.1-0.3,0.2-0.4,0.2-0.4
	c0,0,0.3-0.6,0.3-1.3c0-0.9-0.4-1.6-1.2-2.2c-2.1-1.5-4.1,0-4.1,0c0,0-0.1,0.1-0.4,0.3c-0.3,0.2-0.7,0-0.8-0.1s-0.2-0.4-0.2-0.4
	c0,0-0.5-0.9-1.6-1.8c-1.4-1.1-3-1.5-4.7-1.3c-1.9,0.2-3.5,1.1-4.4,2.4c-0.8,1.1-1.1,2.3-0.9,3.7l0,0.1c0.1,0.5,0,0.7-0.5,0.8
	l-0.2,0.1c0,0-1.1,0.4-2.3,1.3C3,13.6,2.2,15,2.2,16.6c0,1.3,0.6,2.2,1.2,2.8c1,1,2.4,1.6,3.8,1.6h1.4c0.5,0,0.9,0.4,0.9,0.9
	s-0.4,0.9-0.9,0.9H7.2c-1.9,0-3.8-0.8-5.1-2.2c-1.1-1.2-1.7-2.6-1.7-4.1c0.1-2.2,1.1-4.1,2.9-5.5c0.8-0.6,1.5-1,2.1-1.3
	C5.3,8.2,5.7,6.7,6.7,5.4c1.3-1.7,3.3-2.8,5.7-3.1C14.7,2,16.8,2.5,18.6,4c0.6,0.5,1.1,1.1,1.5,1.5c0.3-0.1,0.7-0.3,1.1-0.4
	c1.1-0.3,2.7-0.3,4.4,0.9c1.7,1.2,2.1,2.8,2,3.9c0,0.4-0.1,0.7-0.1,1c1.3,0.4,2.4,1.3,3.2,2.3c1,1.3,1.3,2.9,1,4.6
	c-0.3,1.8-1.3,3.2-3,4.1C26.9,22.8,25.3,22.9,24.8,22.9z"/>
</svg>
