<?xml version="1.0" encoding="utf-8"?>
<!-- Generator: Adobe Illustrator 22.1.0, SVG Export Plug-In . SVG Version: 6.00 Build 0)  -->
<svg version="1.1" id="Layer_1" xmlns="http://www.w3.org/2000/svg" xmlns:xlink="http://www.w3.org/1999/xlink" x="0px" y="0px"
	 viewBox="0 0 32 32" style="enable-background:new 0 0 32 32;" xml:space="preserve">
<path d="M19.9,25.7c-0.2-0.2-0.6-0.3-0.9,0.1l-2,2.1c0,0,0-0.7,0-1.7c0,0,0,0,0,0c0-0.4,0-8.4,0-8.4l2,2.1c0.3,0.3,0.6,0.3,0.9,0.1
	l0.6-0.6c0.3-0.3,0.2-0.7-0.1-0.9L17,14.9c-0.2-0.2-0.5-0.5-1-0.5s-0.8,0.3-1,0.5l-3.4,3.6c-0.2,0.2-0.3,0.7-0.1,0.9l0.6,0.6
	c0.2,0.2,0.6,0.3,0.9-0.1l2-2.1c0,0,0,0.7,0,1.7c0,0,0,0,0,0c0,0.4,0,8.4,0,8.4l-2-2.1c-0.3-0.3-0.6-0.3-0.9-0.1l-0.6,0.6
	c-0.3,0.3-0.2,0.7,0.1,0.9l3.4,3.6c0.2,0.2,0.5,0.5,1,0.5s0.8-0.3,1-0.5l3.4-3.6c0.2-0.2,0.3-0.7,0.1-0.9L19.9,25.7z"/>
<path d="M24.7,24.1h-1.6c-0.5,0-0.9-0.4-0.9-0.9s0.4-0.9,0.9-0.9h1.6c0.7,0,1.8-0.2,2.8-0.7c1.2-0.6,1.9-1.6,2.1-2.8
	c0.2-1.2,0-2.3-0.7-3.2c-0.7-1-1.8-1.7-3-1.9c0,0-0.3-0.1-0.4-0.1c-0.6-0.1-0.6-0.6-0.5-0.9c0.1-0.3,0.2-0.4,0.2-0.4
	s0.3-0.6,0.3-1.3c0-0.9-0.4-1.6-1.2-2.2c-2.1-1.5-4.1,0-4.1,0s-0.1,0.1-0.4,0.3c-0.3,0.2-0.7,0-0.8-0.1c-0.1-0.1-0.2-0.4-0.2-0.4
	s-0.5-0.9-1.6-1.8c-1.4-1.1-3-1.5-4.7-1.3C10.6,5.7,9,6.6,8.1,7.9C7.3,9,7,10.2,7.2,11.6v0.1c0.1,0.5,0,0.7-0.5,0.8l-0.2,0.1
	c0,0-1.1,0.4-2.3,1.3c-1.3,0.9-2.1,2.3-2.1,3.9c0,1.3,0.6,2.2,1.2,2.8c1,1,2.4,1.6,3.8,1.6h1.4c0.5,0,0.9,0.4,0.9,0.9S9,24,8.5,24
	H7.1c-1.9,0-3.8-0.8-5.1-2.2c-1.1-1.2-1.7-2.6-1.7-4.1c0.1-2.2,1.1-4.1,2.9-5.5c0.8-0.6,1.5-1,2.1-1.3c-0.1-1.5,0.3-3,1.3-4.3
	c1.3-1.7,3.3-2.8,5.7-3.1c2.3-0.3,4.4,0.2,6.2,1.7c0.6,0.5,1.1,1.1,1.5,1.5c0.3-0.1,0.7-0.3,1.1-0.4C22.2,6,23.8,6,25.5,7.2
	c1.7,1.2,2.1,2.8,2,3.9c0,0.4-0.1,0.7-0.1,1c1.3,0.4,2.4,1.3,3.2,2.3c1,1.3,1.3,2.9,1,4.6c-0.3,1.8-1.3,3.2-3,4.1
	C26.8,24,25.2,24.1,24.7,24.1z"/>
</svg>
