<?xml version="1.0" encoding="utf-8"?>
<!-- Generated by IcoMoon.io -->
<!DOCTYPE svg PUBLIC "-//W3C//DTD SVG 1.1//EN" "http://www.w3.org/Graphics/SVG/1.1/DTD/svg11.dtd">
<svg version="1.1" xmlns="http://www.w3.org/2000/svg" xmlns:xlink="http://www.w3.org/1999/xlink" width="512" height="512" viewBox="0 0 512 512">
<path fill="#000000" d="M433.168 149.7c-3.543 0-7.087 0-10.63 0-14.173-49.608-58.465-85.040-113.387-85.040-37.205 0-70.868 17.718-92.127 46.063-8.857-3.543-19.488-3.543-28.347-3.543-40.748 0-74.41 24.803-88.582 58.465-8.858-3.542-17.718-5.315-28.347-5.315-38.977 0-69.095 31.89-69.095 69.095s28.348 67.323 63.78 69.095c0 0 1.772 0 1.772 0h132.875l10.63 42.52h-33.662c-14.172 0-26.575 10.63-26.575 24.803 0 7.087 3.542 14.173 8.857 17.717l93.897 86.813c5.315 5.315 12.402 7.087 17.717 7.087 7.087 0 14.173-1.772 17.717-7.087l93.897-86.813c5.315-5.315 8.858-10.63 8.858-17.717 0-14.173-12.402-24.803-26.575-24.803h-33.663l10.63-42.52h81.498c0 0 1.772 0 1.772 0 1.772 0 1.772 0 3.543 0 40.748 0 74.41-33.663 74.41-74.41 3.543-40.748-30.118-74.41-70.868-74.41zM323.322 298.52l-17.717 63.78h62.007c3.543 0 5.315 1.772 5.315 3.543 0 0 0 1.772-1.772 1.772l-93.897 86.813c0 0-1.772 1.772-3.543 1.772s-3.543-1.772-3.543-1.772l-93.897-86.813c0 0-1.773-1.772-1.773-1.772 0-1.772 1.773-3.543 5.315-3.543h62.007l-17.718-63.78-24.803-90.355h148.82l-24.803 90.355z"></path>
</svg>
