<?xml version="1.0" encoding="utf-8"?>
<!-- Generator: Adobe Illustrator 22.1.0, SVG Export Plug-In . SVG Version: 6.00 Build 0)  -->
<svg version="1.1" id="Layer_1" xmlns="http://www.w3.org/2000/svg" xmlns:xlink="http://www.w3.org/1999/xlink" x="0px" y="0px"
	 viewBox="0 0 32 32" style="enable-background:new 0 0 32 32;" xml:space="preserve">
<g>
	<path d="M6.1,15.8l4.5-4.1c0.6-0.5,0.6-1-0.2-1.8C9.7,9.1,9.3,9.1,8.7,9.6l-5.6,5.1c-0.3,0.3-0.5,0.6-0.5,1c0,0.4,0.1,0.8,0.4,1
		l5.6,5.5c0.6,0.6,1.1,0.5,1.9-0.2c0.6-0.6,0.9-1.1,0.2-1.8L6.1,15.8z"/>
	<path d="M29.1,14.7l-5.6-5.1c-0.6-0.5-1-0.5-1.8,0.2c-0.8,0.8-0.8,1.3-0.2,1.8l4.5,4.1l-4.6,4.5c-0.7,0.7-0.4,1.2,0.2,1.8
		c0.7,0.7,1.2,0.8,1.9,0.2l5.6-5.5c0.3-0.3,0.4-0.7,0.4-1C29.5,15.4,29.4,15,29.1,14.7z"/>
	<path d="M19.8,6.9l-0.9-0.3c-0.5-0.2-1.1,0.1-1.3,0.6l-5.9,16.6c-0.2,0.5,0.1,1.1,0.6,1.3l0.9,0.3c0.5,0.2,1.1-0.1,1.3-0.6
		l5.9-16.6C20.6,7.7,20.3,7.1,19.8,6.9z"/>
</g>
</svg>
