<?xml version="1.0" encoding="utf-8"?>
<!-- Generated by IcoMoon.io -->
<!DOCTYPE svg PUBLIC "-//W3C//DTD SVG 1.1//EN" "http://www.w3.org/Graphics/SVG/1.1/DTD/svg11.dtd">
<svg version="1.1" xmlns="http://www.w3.org/2000/svg" xmlns:xlink="http://www.w3.org/1999/xlink" width="512" height="512" viewBox="0 0 512 512">
<path fill="#000000" d="M283.647 259.252c0 13.473-10.922 24.395-24.395 24.395s-24.395-10.922-24.395-24.395c0-13.473 10.922-24.395 24.395-24.395s24.395 10.922 24.395 24.395z"></path>
<path fill="#000000" d="M163.299 163.299l39.031 91.074 52.042-52.042z"></path>
<path fill="#000000" d="M256 8.799c-133.358 0-242.322 110.59-242.322 247.201s108.963 247.201 242.322 247.201 242.322-110.59 242.322-247.201c0-136.611-108.964-247.201-242.322-247.201zM200.705 317.8l-89.448-204.917 204.917 89.448 89.447 204.917-204.917-89.447z"></path>
</svg>
