<?xml version="1.0" encoding="utf-8"?>
<!-- Generated by IcoMoon.io -->
<!DOCTYPE svg PUBLIC "-//W3C//DTD SVG 1.1//EN" "http://www.w3.org/Graphics/SVG/1.1/DTD/svg11.dtd">
<svg version="1.1" xmlns="http://www.w3.org/2000/svg" xmlns:xlink="http://www.w3.org/1999/xlink" width="512" height="512" viewBox="0 0 512 512">
<path fill="#000000" d="M329.954 438.94c-13.622-5.839-19.461-19.461-21.407-31.139h-107.041c-1.946 11.679-7.786 25.3-21.407 31.139-23.353 11.679-19.46 19.461-1.946 19.461s68.115 0 75.901 0c0 0 1.947 0 1.947 0 7.786 0 58.386 0 75.901 0s19.461-9.733-1.947-19.461z"></path>
<path fill="#000000" d="M475.916 53.598h-439.836c-9.733 0-19.46 7.786-19.46 17.514v289.981c0 9.733 7.786 17.514 17.514 17.514h441.782c9.733 0 17.514-7.786 17.514-17.514v-289.981c1.947-9.733-7.786-17.514-17.514-17.514zM462.294 298.815h-412.589v-214.080h414.536v214.080z"></path>
</svg>
