<?xml version="1.0" encoding="utf-8"?>
<!-- Generated by IcoMoon.io -->
<!DOCTYPE svg PUBLIC "-//W3C//DTD SVG 1.1//EN" "http://www.w3.org/Graphics/SVG/1.1/DTD/svg11.dtd">
<svg version="1.1" xmlns="http://www.w3.org/2000/svg" xmlns:xlink="http://www.w3.org/1999/xlink" width="512" height="512" viewBox="0 0 512 512">
<path fill="#000000" d="M215.398 33.663c1.933-5.799 13.536-13.535 21.268-13.535 19.334-1.933 15.469-1.933 32.865 0 5.799 0 21.267 7.732 23.2 13.535 7.732 29 15.469 56.068 23.2 85.067-42.535 5.799-81.202 5.799-121.803 0 5.799-28.999 13.536-58.001 21.267-85.067z"></path>
<path fill="#000000" d="M176.732 176.732c54.133 7.732 100.536 7.732 154.669 0 7.732 27.066 15.469 52.2 21.267 79.268-71.534 19.334-125.669 19.334-197.204 0 5.799-27.066 13.536-54.133 21.267-79.269z"></path>
<path fill="#000000" d="M459.003 418.401c0 9.665-5.799 17.401-11.598 17.401h-388.606c-5.799 0-11.598-7.732-11.598-17.401v-21.267c0-9.665 5.799-17.401 11.598-17.401h61.867c5.799-23.2 11.598-44.468 19.334-67.668 83.135 21.267 145.004 21.267 228.136 0 5.799 23.2 11.598 46.401 19.334 67.668h61.867c5.799 0 11.598 7.732 11.598 17.401-1.933 1.933-1.933 21.267-1.933 21.267z"></path>
</svg>
