<?xml version="1.0" encoding="utf-8"?>
<!-- Generated by IcoMoon.io -->
<!DOCTYPE svg PUBLIC "-//W3C//DTD SVG 1.1//EN" "http://www.w3.org/Graphics/SVG/1.1/DTD/svg11.dtd">
<svg version="1.1" xmlns="http://www.w3.org/2000/svg" xmlns:xlink="http://www.w3.org/1999/xlink" width="512" height="512" viewBox="0 0 512 512">
<path fill="#000000" d="M46.002 16.004c-16.56 0-30 13.44-30 30v419.994c0 16.56 13.44 30 30 30h30v-479.994h-30zM405.998 16.004h-299.996v479.994h299.996c16.56 0 30-13.44 30-30v-419.994c0-16.56-13.44-30-30-30zM269.35 131.622c25.080 0 45.39 20.34 45.39 45.39 0 25.080-20.34 45.42-45.39 45.42-25.080 0-45.42-20.34-45.42-45.42s20.34-45.39 45.42-45.39zM196 340.208c0-55.020 33.27-99.598 74.279-99.598s74.279 44.61 74.279 99.598-148.558 54.99-148.558 0zM465.998 46.002h30v89.998h-30zM465.998 166.002h30v89.998h-30zM465.998 286h30v89.998h-30z"></path>
</svg>
