<?xml version="1.0" encoding="utf-8"?>
<!-- Generated by IcoMoon.io -->
<!DOCTYPE svg PUBLIC "-//W3C//DTD SVG 1.1//EN" "http://www.w3.org/Graphics/SVG/1.1/DTD/svg11.dtd">
<svg version="1.1" xmlns="http://www.w3.org/2000/svg" xmlns:xlink="http://www.w3.org/1999/xlink" width="512" height="512" viewBox="0 0 512 512">
<path fill="#000000" d="M79.022 111.528h236.572l124.608 124.608v178.785c36.117-43.342 57.788-99.324 57.788-158.917 0-135.443-108.353-245.602-241.989-245.602s-241.989 110.159-241.989 245.602c0 63.207 23.477 122.801 63.207 166.143l1.806-310.615z"></path>
<path fill="#000000" d="M414.917 256h-117.384v-119.188h-193.23v308.808c41.535 34.313 93.906 55.984 151.695 55.984 61.4 0 115.578-23.478 158.917-61.4 0 0 0-184.201 0-184.201zM297.536 445.618h-157.114v-28.894h157.114v28.894zM376.995 386.024h-236.572v-28.894h236.572v28.894zM140.423 326.43v-28.894h236.572v28.894h-236.572z"></path>
</svg>
