<?xml version="1.0" encoding="utf-8"?>
<!-- Generated by IcoMoon.io -->
<!DOCTYPE svg PUBLIC "-//W3C//DTD SVG 1.1//EN" "http://www.w3.org/Graphics/SVG/1.1/DTD/svg11.dtd">
<svg version="1.1" xmlns="http://www.w3.org/2000/svg" xmlns:xlink="http://www.w3.org/1999/xlink" width="512" height="512" viewBox="0 0 512 512">
<path fill="#000000" d="M333.899 10.899l-36.101 239.401h41.801c7.601 0 13.301 5.7 13.301 13.301 0 3.798-1.901 7.601-3.798 9.498l-81.702 81.702c-1.901 1.901-5.7 3.798-9.498 3.798s-7.601-1.901-9.499-3.798l-81.701-81.702c-1.901-1.901-3.798-5.7-3.798-9.498 0-7.601 5.7-13.302 13.302-13.302h41.802l-37.999-239.401h153.9z"></path>
<path fill="#000000" d="M461.2 411.802c0 30.401-24.702 55.099-55.099 55.099h-300.2c-30.401 0-55.099-24.702-55.099-55.099v-298.303c0-30.401 24.702-55.099 55.099-55.099h24.702l47.501 153.9h-3.798c-28.5 0-51.3 22.8-51.3 51.3 0 13.301 5.7 26.599 15.199 36.101l81.701 81.702c9.499 9.498 22.8 15.199 36.101 15.199s26.599-5.7 36.101-15.199l81.702-81.702c9.498-9.498 15.199-22.8 15.199-36.101 0-28.5-22.8-51.3-51.3-51.3h-3.798l47.502-153.9h24.702c30.401 0 55.099 24.701 55.099 55.099 0 0 0 298.303 0 298.303z"></path>
</svg>
