<?xml version="1.0" encoding="utf-8"?>
<!-- Generated by IcoMoon.io -->
<!DOCTYPE svg PUBLIC "-//W3C//DTD SVG 1.1//EN" "http://www.w3.org/Graphics/SVG/1.1/DTD/svg11.dtd">
<svg version="1.1" xmlns="http://www.w3.org/2000/svg" xmlns:xlink="http://www.w3.org/1999/xlink" width="512" height="512" viewBox="0 0 512 512">
<path fill="#000000" d="M448 64c-8.992-20-25.312-32-43.008-32h-300.992c-17.664 0-32 12-40 32l-64 256v144.512c0 8.832 7.168 16 16 16h480c8.832 0 16-7.168 16-16v-142.528l-0.416-1.472-63.584-256.512zM94.24 74.656c1.472-3.296 5.216-10.656 9.76-10.656h300.992c4.384 0 9.44 4.512 12.992 11.392l56.352 229.024c0 0.064-0.096 0-0.096 0.064 0 8.832-7.168 16-16 16-0.032 0-0.032 0.032-0.064 0.032h-122.176c-8.832 0-16 7.168-16 16v31.488c0 8.832-7.168 16-16 16-0.32 0-0.64 0.416-0.96 0.512h-94.496c-0.224-0.096-0.224-0.512-0.544-0.512-8.832 0-16-7.168-16-16v-31.488c0-8.832-7.168-16-16-16h-122.176c-0.032 0-0.032-0.032-0.064-0.032-8.832 0-16.256-7.168-16.256-16 0-0.224-0.256-0.064-0.32-0.224l57.056-229.6z"></path>
</svg>
