<?xml version="1.0" encoding="utf-8"?>
<!-- Generated by IcoMoon.io -->
<!DOCTYPE svg PUBLIC "-//W3C//DTD SVG 1.1//EN" "http://www.w3.org/Graphics/SVG/1.1/DTD/svg11.dtd">
<svg version="1.1" xmlns="http://www.w3.org/2000/svg" xmlns:xlink="http://www.w3.org/1999/xlink" width="512" height="512" viewBox="0 0 512 512">
<path fill="#000000" d="M64 512h384c35.36 0 64-28.64 64-64v-32c0-1.504-0.352-2.912-0.448-4.352 0.096-1.632 0.448-3.488 0.448-4.992l-32-342.656c-1.984-31.328-28.64-64-64-64h-320c-35.36 0-62.016 32.672-64 64l-32 342.656c0 1.504 0.352 3.36 0.448 4.96-0.096 1.472-0.448 2.88-0.448 4.384v32c0 35.36 28.64 64 64 64zM32 448v-32c0-17.632 14.368-32 32-32h384c17.632 0 32 14.368 32 32v32c0 17.632-14.368 32-32 32h-384c-17.632 0-32-14.368-32-32zM416 432c0 8.837 7.163 16 16 16s16-7.163 16-16c0-8.837-7.163-16-16-16s-16 7.163-16 16zM355.328 431.328c0 8.837 7.163 16 16 16s16-7.163 16-16c0-8.837-7.163-16-16-16s-16 7.163-16 16zM80 448h224c8.832 0 16-7.168 16-16s-7.168-16-16-16h-224c-8.832 0-16 7.168-16 16s7.168 16 16 16z"></path>
</svg>
