<?xml version="1.0" encoding="utf-8"?>
<!-- Generator: Adobe Illustrator 22.1.0, SVG Export Plug-In . SVG Version: 6.00 Build 0)  -->
<svg version="1.1" id="Layer_1" xmlns="http://www.w3.org/2000/svg" xmlns:xlink="http://www.w3.org/1999/xlink" x="0px" y="0px"
	 viewBox="0 0 32 32" style="enable-background:new 0 0 32 32;" xml:space="preserve">
<style type="text/css">
	.st0{fill:#030104;}
</style>
<g>
	<path class="st0" d="M18.1,24.1c-0.2,0.3-0.3,0.5-0.4,0.8c-0.6,1.5-2,5-6.2,5c-3.8,0-5-3.9-5-5.4c0-0.6,0.5-1.1,1.1-1.1
		s1.1,0.5,1.1,1.1c0,0,0.3,3.2,2.8,3.2c2.3,0,3.3-1.4,4.2-3.6c0.1-0.4,0.3-0.7,0.5-1.1c0.3-0.5,1-0.7,1.5-0.4
		C18.3,22.9,18.4,23.6,18.1,24.1z M28.4,28.5c-0.2,0.2-0.5,0.3-0.8,0.3c-0.3,0-0.5-0.1-0.8-0.3L15.4,16.9c0,0,0,0,0,0l-4.5-4.5
		c0,0,0,0,0,0L3.4,4.9c-0.4-0.4-0.4-1.1,0-1.5s1.1-0.4,1.5,0l3.4,3.4C9.5,3.9,12.6,2,16,2c4.2,0,8.8,3.5,8.8,9.2
		c0,4.4-1.6,6.9-3.3,8.8l6.9,6.9C28.9,27.4,28.9,28,28.4,28.5z M20,18.5c1.5-1.7,2.7-3.7,2.7-7.3c0-4.4-3.5-7.1-6.7-7.1
		c-3.3,0-5.5,2.2-6.1,4.3l2.3,2.3c1.2-3.6,2.2-4.5,4.5-4.5c2.1,0,4,1.6,4,4.5c0,0.5-0.4,0.8-0.8,0.8c-1,0,0.6-3.2-2.7-3.2
		c-2.1,0-3.1,1.7-2.7,4.6L20,18.5z M9.8,20.3c0,0.3,0,2,2.1,2c1.3,0,2.5-1.1,3.1-2.7l-3.2-3.2c0,0.1,0.1,0.2,0.1,0.3
		C11.9,18.7,9.8,18.2,9.8,20.3z"/>
</g>
</svg>
