<?xml version="1.0" encoding="utf-8"?>
<!-- Generated by IcoMoon.io -->
<!DOCTYPE svg PUBLIC "-//W3C//DTD SVG 1.1//EN" "http://www.w3.org/Graphics/SVG/1.1/DTD/svg11.dtd">
<svg version="1.1" xmlns="http://www.w3.org/2000/svg" xmlns:xlink="http://www.w3.org/1999/xlink" width="512" height="512" viewBox="0 0 512 512">
<path fill="#000000" d="M488.939 135.519c-1.366-21.028-18.021-37.684-39.050-39.073-0.911-0.044-1.8-0.274-2.711-0.274v0.274l-383.104-0.274c-0.911 0-1.8 0.23-2.711 0.274-21.301 1.41-38.118 18.431-39.144 39.804-0.022 0.637-0.203 1.322-0.203 1.982s0.181 1.3 0.203 1.938v272.446h466.7v-271.694c0.066-0.911 0.296-1.778 0.296-2.689 0-0.933-0.204-1.8-0.274-2.711zM412.476 137.957l-156.91 133.604-156.864-133.604h313.774zM63.754 180.245c0.114 0 0.23 0.022 0.34 0.022v-17.246l103.004 87.695-103.344 97.287v-167.757zM84.873 371.103l103.915-103.416 66.801 58.394 67.211-58.783 103.37 103.827h-341.298zM447.45 347.979l-103.37-97.286 103.075-87.761v17.317c0.115 0 0.204-0.022 0.296-0.022v167.757z"></path>
</svg>
