<?xml version="1.0" encoding="utf-8"?>
<!-- Generated by IcoMoon.io -->
<!DOCTYPE svg PUBLIC "-//W3C//DTD SVG 1.1//EN" "http://www.w3.org/Graphics/SVG/1.1/DTD/svg11.dtd">
<svg version="1.1" xmlns="http://www.w3.org/2000/svg" xmlns:xlink="http://www.w3.org/1999/xlink" width="512" height="512" viewBox="0 0 512 512">
<path fill="#000000" d="M120.887 154.666v236.447c0 18.646 15.133 33.778 33.778 33.778h236.447c18.646 0 33.778-15.133 33.778-33.778v-236.447c0-18.646-15.133-33.778-33.778-33.778h-236.447c-18.646 0-33.778 15.133-33.778 33.778zM391.113 391.113h-236.447v-236.447h236.447v236.447zM205.333 289.778h50.667v50.667c0 9.323 7.566 16.889 16.889 16.889s16.889-7.566 16.889-16.889v-50.667h50.667c9.323 0 16.889-7.566 16.889-16.889s-7.566-16.889-16.889-16.889h-50.667v-50.667c0-9.323-7.566-16.889-16.889-16.889s-16.889 7.566-16.889 16.889v50.667h-50.667c-9.323 0-16.889 7.566-16.889 16.889s7.566 16.889 16.889 16.889z"></path>
</svg>
