<?xml version="1.0" encoding="utf-8"?>
<!-- Generator: Adobe Illustrator 22.1.0, SVG Export Plug-In . SVG Version: 6.00 Build 0)  -->
<svg version="1.1" id="Layer_1" xmlns="http://www.w3.org/2000/svg" xmlns:xlink="http://www.w3.org/1999/xlink" x="0px" y="0px"
	 viewBox="0 0 32 32" style="enable-background:new 0 0 32 32;" xml:space="preserve">
<g>
	<path d="M25.9,6.5l-3.6-3.6c-0.2-0.2-0.4-0.3-0.6-0.3h-0.6v5.1h5.1V7.4C26.2,7.1,26.1,6.6,25.9,6.5z"/>
	<path d="M26.1,9.8H21c-1.2,0-2-0.7-2-2V2.6h-1.7h-9H7c-1.1,0-1.1,0-1.1,1.3v24.3c0,1.3,0,1.3,1.3,1.3h17.6c1.4,0,1.3,0,1.3-1.3V9.8
		z M10.3,5.5c0-0.1,0.1-0.3,0.3-0.3h3.8c0.1,0,0.3,0.1,0.3,0.3v1.1c0,0.1-0.1,0.3-0.3,0.3h-3.8c-0.1,0-0.3-0.1-0.3-0.3V5.5z
		 M10.3,9.2V8.2c0-0.1,0.1-0.3,0.3-0.3h3.8c0.1,0,0.3,0.1,0.3,0.3v1.1c0,0.1-0.1,0.3-0.3,0.3h-3.8C10.4,9.5,10.3,9.3,10.3,9.2z
		 M14.7,18.1c0.2,0.2,0.5,0.4,1,0.6s0.9,0.4,1.2,0.6c0.3,0.2,0.6,0.4,0.8,0.6c0.2,0.2,0.4,0.5,0.5,0.8c0.1,0.3,0.2,0.6,0.2,1
		c0,0.7-0.2,1.3-0.7,1.8c-0.4,0.4-1.1,0.7-1.9,0.8v1.3h-1v-1.3c-0.9-0.1-1.5-0.4-2-0.9c-0.5-0.5-0.7-1.2-0.7-2.1h1.8
		c0,0.5,0.1,0.9,0.4,1.2c0.2,0.3,0.6,0.4,1,0.4c0.4,0,0.7-0.1,0.9-0.3c0.2-0.2,0.3-0.5,0.3-0.8c0-0.3-0.1-0.6-0.3-0.8
		c-0.2-0.2-0.5-0.4-1-0.6c-0.5-0.2-0.9-0.3-1.2-0.5c-0.3-0.2-0.6-0.4-0.9-0.6c-0.2-0.2-0.4-0.5-0.6-0.8c-0.1-0.3-0.2-0.7-0.2-1.1
		c0-0.7,0.2-1.3,0.7-1.8c0.5-0.5,1.1-0.7,1.8-0.8v-1.4h1v1.4c0.7,0.1,1.3,0.4,1.8,0.9c0.4,0.5,0.6,1.2,0.6,2h-1.8
		c0-0.5-0.1-0.9-0.3-1.1c-0.2-0.3-0.5-0.4-0.8-0.4c-0.3,0-0.6,0.1-0.8,0.3c-0.2,0.2-0.3,0.5-0.3,0.8C14.4,17.7,14.5,17.9,14.7,18.1z
		"/>
</g>
</svg>
