<?xml version="1.0" encoding="utf-8"?>
<!-- Generator: Adobe Illustrator 22.1.0, SVG Export Plug-In . SVG Version: 6.00 Build 0)  -->
<svg version="1.1" id="Layer_1" xmlns="http://www.w3.org/2000/svg" xmlns:xlink="http://www.w3.org/1999/xlink" x="0px" y="0px"
	 viewBox="0 0 32 32" style="enable-background:new 0 0 32 32;" xml:space="preserve">
<g>
	<path d="M28.6,7c0-0.2-0.1-0.7-0.3-0.9l-3.6-3.6c-0.2-0.2-0.4-0.3-0.6-0.3h-0.6v5.1h5.1V7z"/>
	<path d="M28.6,27.8V9.2h-5.1c-1.2,0-1.8-0.5-1.8-1.8V2.2H9.5c-1.1,0-1.1,0-1.1,1.3v5.8c0.1,0,0.2,0,0.4,0c0.6,0,1.1,0.2,1.4,0.6
		c0.6,0.9,2,1.5,3,1.3c0.5,0,1,0.2,1.4,0.6c0.4,0.4,0.6,0.9,0.6,1.4c-0.2,1.1,0.3,2.5,1.2,3.1c0.3,0.3,0.5,0.8,0.5,1.4
		c0,0.6-0.2,1.1-0.6,1.4c-0.9,0.6-1.5,2-1.3,3c0,0.5-0.2,1-0.6,1.4c-0.2,0.1-0.3,0.3-0.5,0.4v5.3h13.4
		C28.7,29.1,28.6,29.1,28.6,27.8z"/>
	<path d="M14.6,18.7c0.3-0.2,0.4-0.6,0.4-1.1c0-0.4-0.1-0.8-0.4-1.1c-0.7-0.5-1.1-1.5-0.9-2.3c0-0.3-0.1-0.7-0.5-1
		c-0.3-0.3-0.7-0.5-1-0.5c-0.8,0.2-1.9-0.3-2.3-1c-0.2-0.3-0.6-0.4-1.1-0.4c-0.4,0-0.8,0.1-1.1,0.4c-0.5,0.7-1.5,1.1-2.3,0.9
		c-0.3,0-0.7,0.1-1,0.5c-0.3,0.3-0.5,0.7-0.5,1c0.2,0.8-0.3,1.9-1,2.3c-0.3,0.2-0.4,0.6-0.4,1.1c0,0.4,0.1,0.8,0.4,1.1
		C3.5,19,3.9,20,3.7,20.8c0,0.3,0.1,0.7,0.5,1c0.3,0.3,0.7,0.5,1,0.5c0,0,0,0,0,0c0,0,0,0,0,0v9.3l3.4-2.4l3.4,2.4v-9.2
		c0.3,0,0.7-0.2,1-0.4c0.3-0.3,0.5-0.7,0.5-1C13.4,20.2,13.9,19.1,14.6,18.7z M8.6,20.4c-1.6,0-2.9-1.3-2.9-2.9s1.3-2.9,2.9-2.9
		s2.9,1.3,2.9,2.9S10.2,20.4,8.6,20.4z"/>
</g>
</svg>
