<?xml version="1.0" encoding="utf-8"?>
<!-- Generator: Adobe Illustrator 22.1.0, SVG Export Plug-In . SVG Version: 6.00 Build 0)  -->
<svg version="1.1" id="Layer_1" xmlns="http://www.w3.org/2000/svg" xmlns:xlink="http://www.w3.org/1999/xlink" x="0px" y="0px"
	 viewBox="0 0 32 32" style="enable-background:new 0 0 32 32;" xml:space="preserve">
<g>
	<path d="M25.9,6.5l-3.6-3.6c-0.2-0.2-0.4-0.3-0.6-0.3h-0.6v5.1h5.1V7.4C26.2,7.1,26.1,6.6,25.9,6.5z"/>
	<path d="M26.1,9.6h-5.1c-1.2,0-1.8-0.5-1.8-1.8V2.6H7c-1.1,0-1.1,0-1.1,1.3v24.3c0,1.3,0,1.3,1.3,1.3h17.6c1.4,0,1.3,0,1.3-1.3V9.6
		z M21.3,16.6l-6,6.6c-0.2,0.3-0.6,0.4-0.9,0.4c-0.3,0-0.7-0.1-0.9-0.4l-2.9-3c-0.5-0.5-0.5-1,0.2-1.6c0.5-0.5,1-0.8,1.6-0.1
		l2.1,2.1l5.2-5.6c0.5-0.5,0.9-0.5,1.6,0.2C21.7,15.7,21.7,16.1,21.3,16.6z"/>
</g>
</svg>
