<?xml version="1.0" encoding="utf-8"?>
<!-- Generator: Adobe Illustrator 22.1.0, SVG Export Plug-In . SVG Version: 6.00 Build 0)  -->
<svg version="1.1" id="Layer_1" xmlns="http://www.w3.org/2000/svg" xmlns:xlink="http://www.w3.org/1999/xlink" x="0px" y="0px"
	 viewBox="0 0 32 32" style="enable-background:new 0 0 32 32;" xml:space="preserve">
<g>
	<path d="M25.9,6.5l-3.6-3.6c-0.2-0.2-0.4-0.3-0.6-0.3h-0.6v5.1h5.1V7.4C26.2,7.1,26.1,6.6,25.9,6.5z"/>
	<path d="M26.1,9.8H21c-1.2,0-2-0.7-2-2V2.6h-1.7h-9H7c-1.1,0-1.1,0-1.1,1.3v24.3c0,1.3,0,1.3,1.3,1.3h17.6c1.4,0,1.3,0,1.3-1.3V9.8
		z M21.1,19.6c0,0.1,0,0.2-0.1,0.3C20.9,20,20.8,20,20.7,20h-3v3c0,0.1,0,0.2-0.1,0.3s-0.2,0.1-0.3,0.1h-2.6c-0.1,0-0.2,0-0.3-0.1
		s-0.1-0.2-0.1-0.3v-3h-3c-0.1,0-0.2,0-0.3-0.1c-0.1-0.1-0.1-0.2-0.1-0.3V17c0-0.1,0-0.2,0.1-0.3c0.1-0.1,0.2-0.1,0.3-0.1h3v-3
		c0-0.1,0-0.2,0.1-0.3s0.2-0.1,0.3-0.1h2.6c0.1,0,0.2,0,0.3,0.1s0.1,0.2,0.1,0.3v3h3c0.1,0,0.2,0,0.3,0.1c0.1,0.1,0.1,0.2,0.1,0.3
		V19.6z"/>
</g>
</svg>
