<?xml version="1.0" encoding="utf-8"?>
<!-- Generator: Adobe Illustrator 22.1.0, SVG Export Plug-In . SVG Version: 6.00 Build 0)  -->
<svg version="1.1" id="Layer_1" xmlns="http://www.w3.org/2000/svg" xmlns:xlink="http://www.w3.org/1999/xlink" x="0px" y="0px"
	 viewBox="0 0 32 32" style="enable-background:new 0 0 32 32;" xml:space="preserve">
<g>
	<path d="M25.9,6.5l-3.6-3.6c-0.2-0.2-0.4-0.3-0.6-0.3h-0.6v5.1h5.1V7.4C26.2,7.1,26.1,6.6,25.9,6.5z"/>
	<path d="M26.1,9.8h-5.1c-1.2,0-2-0.7-2-2V2.6h-1.7H8.3H7c-1.1,0-1.1,0-1.1,1.3v24.3c0,1.3,0,1.3,1.3,1.3h17.6c1.4,0,1.3,0,1.3-1.3
		V9.8z M12.7,21.1c0.3,0.3,0.2,0.6-0.1,0.9c-0.3,0.3-0.6,0.4-0.9,0.1L9,19.4c-0.1-0.1-0.2-0.3-0.2-0.5c0-0.2,0.1-0.4,0.2-0.5
		l2.7-2.5c0.3-0.3,0.5-0.2,0.9,0.1c0.4,0.4,0.4,0.6,0.1,0.9l-2.2,2L12.7,21.1z M18.6,15.1l-4,8.6c-0.1,0.2-0.4,0.4-0.6,0.4
		c-0.1,0-0.2,0-0.3-0.1c-0.3-0.2-0.5-0.6-0.3-0.9l4-8.6c0.2-0.3,0.6-0.5,0.9-0.3C18.6,14.4,18.8,14.8,18.6,15.1z M23.1,19.4
		l-2.7,2.7c-0.3,0.3-0.5,0.3-0.9-0.1c-0.3-0.3-0.4-0.5-0.1-0.9l2.2-2.2l-2.2-2c-0.3-0.3-0.3-0.5,0.1-0.9c0.4-0.4,0.6-0.4,0.9-0.1
		l2.7,2.5c0.1,0.1,0.2,0.3,0.2,0.5C23.3,19.1,23.2,19.3,23.1,19.4z"/>
</g>
</svg>
