<?xml version="1.0" encoding="utf-8"?>
<!-- Generator: Adobe Illustrator 22.1.0, SVG Export Plug-In . SVG Version: 6.00 Build 0)  -->
<svg version="1.1" id="Layer_1" xmlns="http://www.w3.org/2000/svg" xmlns:xlink="http://www.w3.org/1999/xlink" x="0px" y="0px"
	 viewBox="0 0 32 32" style="enable-background:new 0 0 32 32;" xml:space="preserve">
<g>
	<path d="M25.8,6.5l-3.6-3.6c-0.2-0.2-0.4-0.3-0.6-0.3H21v5.1h5.1V7.4C26.1,7.1,26,6.6,25.8,6.5z"/>
	<path d="M15.6,12.6c-0.3-0.3-0.8-0.5-1.4-0.5h-1.9v3.5h1.9c0.6,0,1.1-0.2,1.4-0.5s0.5-0.7,0.5-1.3C16.1,13.3,15.9,12.9,15.6,12.6z"
		/>
	<path d="M26,9.8h-5.1c-1.2,0-2-0.7-2-2V2.6h-1.7h-9H6.9c-1.1,0-1.1,0-1.1,1.3v24.3c0,1.3,0,1.3,1.3,1.3h17.6c1.4,0,1.3,0,1.3-1.3
		V9.8z M19.6,26.4l-2.3-3.9l-2.3,3.9H13l3.3-5.3l-2.4-3.9h-1.6v4.1h-1.8V10.6h3.7c1.2,0,2.2,0.3,2.8,0.8s1,1.3,1,2.4
		c0,0.7-0.2,1.3-0.5,1.8c-0.3,0.5-0.8,0.8-1.4,1.1l-0.3,0.1l1.7,2.9l2.2-3.8h2.1l-3.2,5.2l3.3,5.3H19.6z"/>
</g>
</svg>
