<?xml version="1.0" encoding="utf-8"?>
<!-- Generator: Adobe Illustrator 22.1.0, SVG Export Plug-In . SVG Version: 6.00 Build 0)  -->
<svg version="1.1" id="Layer_1" xmlns="http://www.w3.org/2000/svg" xmlns:xlink="http://www.w3.org/1999/xlink" x="0px" y="0px"
	 viewBox="0 0 32 32" style="enable-background:new 0 0 32 32;" xml:space="preserve">
<g>
	<path d="M25.9,6.5l-3.6-3.6c-0.2-0.2-0.4-0.3-0.6-0.3h-0.6v5.1h5.1V7.4C26.2,7.1,26.1,6.6,25.9,6.5z"/>
	<path d="M15.8,17.4c-0.4,1.1-0.9,2.4-1.6,3.5c1-0.4,2.1-0.9,3.5-1.2C17,19.2,16.3,18.4,15.8,17.4z"/>
	<path d="M15.8,12.3c-0.2,0-0.2,1.7,0.1,2.6C16.2,14.3,16.3,12.3,15.8,12.3z"/>
	<path d="M10.6,24.3c0,0,0.7-0.3,1.9-2.2C12.2,22.4,11,23.4,10.6,24.3z"/>
	<path d="M20.2,20.1c2,0.9,2.4,0.5,2.4,0.5C22.8,20.4,22.4,19.9,20.2,20.1z"/>
	<path d="M26.1,9.8H21c-1.2,0-2-0.7-2-2V2.6h-1.7h-9H7c-1.1,0-1.1,0-1.1,1.3v24.3c0,1.3,0,1.3,1.3,1.3h17.6c1.4,0,1.3,0,1.3-1.3V9.8
		z M22,21.8c-0.9,0-2.3-0.4-3.5-1.1c-1.4,0.2-2.9,0.8-4.3,1.3c-3.2,5.5-5,3-4.8,2c0.3-1.3,2-2.3,3.2-2.9c0.7-1.2,1.6-3.2,2.2-4.7
		c-0.5-1.8-0.7-3.2-0.4-4.2c0.3-1.1,2.4-1.3,2.7,0.4c0.3,1-0.1,2.5-0.3,3.5c0.5,1.3,1.2,2.3,2.3,2.9c1.1-0.1,3.3-0.3,4.1,0.4
		C23.8,20.1,23.6,21.8,22,21.8z"/>
</g>
</svg>
