<?xml version="1.0" encoding="utf-8"?>
<!-- Generator: Adobe Illustrator 22.1.0, SVG Export Plug-In . SVG Version: 6.00 Build 0)  -->
<svg version="1.1" id="Layer_1" xmlns="http://www.w3.org/2000/svg" xmlns:xlink="http://www.w3.org/1999/xlink" x="0px" y="0px"
	 viewBox="0 0 32 32" style="enable-background:new 0 0 32 32;" xml:space="preserve">
<g>
	<path d="M25.9,6.5l-3.6-3.6c-0.2-0.2-0.4-0.3-0.6-0.3h-0.6v5.1h5.1V7.4C26.2,7.1,26.1,6.6,25.9,6.5z"/>
	<path d="M26.1,9.8H21c-1.2,0-2-0.7-2-2V2.6h-1.7h-9H7c-1.1,0-1.1,0-1.1,1.3v12.4l-2.7,0c-0.4,0-0.8,0.4-0.8,0.8
		c0,0.5,0.4,0.8,0.8,0.8h2.7v0l4.8,0l1.6-3.8c0.1-0.3,0.5-0.5,0.8-0.5c0.4,0,0.6,0.3,0.7,0.6l1.2,5.1l1.6-2.6
		c0.1-0.2,0.4-0.4,0.7-0.4h4.7c0.5,0,0.8,0.4,0.8,0.8c0,0.5-0.4,0.8-0.8,0.8h-4.3l-2.3,3.9c-0.1,0.2-0.4,0.4-0.7,0.4
		c0,0-0.1,0-0.1,0c-0.3-0.1-0.6-0.3-0.7-0.6l-1.1-4.6l-0.9,2c-0.1,0.3-0.4,0.5-0.7,0.5H5.9v8.6c0,1.3,0,1.3,1.3,1.3h17.6
		c1.4,0,1.3,0,1.3-1.3V9.8z"/>
</g>
</svg>
