<?xml version="1.0" encoding="utf-8"?>
<!-- Generator: Adobe Illustrator 22.1.0, SVG Export Plug-In . SVG Version: 6.00 Build 0)  -->
<svg version="1.1" id="Layer_1" xmlns="http://www.w3.org/2000/svg" xmlns:xlink="http://www.w3.org/1999/xlink" x="0px" y="0px"
	 viewBox="0 0 32 32" style="enable-background:new 0 0 32 32;" xml:space="preserve">
<g>
	<path d="M25.9,6.5l-3.6-3.6c-0.2-0.2-0.4-0.3-0.6-0.3H21v5.1h5.1V7.4C26.2,7.1,26,6.6,25.9,6.5z"/>
	<path d="M26,9.8H21c-1.2,0-2-0.7-2-2V2.6h-1.7h-9H7c-1.1,0-1.1,0-1.1,1.3v24.3c0,1.3,0,1.3,1.3,1.3h17.6c1.4,0,1.3,0,1.3-1.3V9.8z
		 M20.5,19.3L17,22.9c-0.2,0.2-0.5,0.5-1,0.5c-0.5,0-0.8-0.3-1-0.5l-3.4-3.6c-0.2-0.2-0.3-0.7-0.1-0.9c0,0,0.6-0.6,0.6-0.6
		c0.2-0.2,0.6-0.3,0.9,0.1l2,2.1c0,0,0-6,0-6.4s0.4-0.9,1-0.9s1,0.4,1,0.9s0,6.4,0,6.4l2-2.1c0.3-0.3,0.6-0.3,0.9-0.1
		c0,0,0.6,0.6,0.6,0.6C20.8,18.6,20.7,19,20.5,19.3z"/>
</g>
</svg>
