<?xml version="1.0" encoding="utf-8"?>
<!-- Generator: Adobe Illustrator 22.1.0, SVG Export Plug-In . SVG Version: 6.00 Build 0)  -->
<svg version="1.1" id="Layer_1" xmlns="http://www.w3.org/2000/svg" xmlns:xlink="http://www.w3.org/1999/xlink" x="0px" y="0px"
	 viewBox="0 0 32 32" style="enable-background:new 0 0 32 32;" xml:space="preserve">
<g>
	<path d="M23.9,17.4c-2.1-3.6-4.8-4.5-6.7-4.6c-2.5-0.2-5.3,0.9-6.8,2.7c-0.3,0.3-0.2,0.8,0.1,1.1c0.3,0.3,0.8,0.2,1.1-0.1
		c1-1.2,3.1-2.4,5.4-2.2c1.5,0.1,3.8,0.9,5.5,3.9c0.1,0.3,0.4,0.4,0.7,0.4c0.1,0,0.3,0,0.4-0.1C24,18.3,24.1,17.8,23.9,17.4z"/>
	<path d="M27.4,17.9c-0.9-3.8-3.9-6.8-8.1-7.9c-3.7-1-6.5-0.5-9.3,1.7c-2.7,2.2-3.6,4.5-2.5,6.4c0.5,0.9,1.3,1.4,2.3,1.6
		c1.3,0.2,2.8-0.2,4.1-1.2c1-0.8,1.9-1.2,2.6-1.2c1-0.1,2.2,0.5,3.1,1.5c1.2,1.3,1.7,2.6,1.7,2.6c0.1,0.3,0.4,0.5,0.7,0.5
		c0.1,0,0.2,0,0.3,0c0.4-0.1,0.6-0.6,0.5-1c0-0.1-0.6-1.6-2.1-3.2c-0.9-1-2.6-2.1-4.4-2c-1,0.1-2.1,0.6-3.4,1.6
		c-1,0.7-2,1.1-2.9,0.9c-0.5-0.1-0.9-0.4-1.2-0.8c-1-1.6,1.2-3.6,2.1-4.4c2.4-1.9,4.7-2.3,7.9-1.5c1.7,0.5,5.8,2,6.9,6.7
		c0.1,0.4,0.5,0.7,1,0.6C27.2,18.8,27.5,18.3,27.4,17.9z"/>
	<path d="M7.9,11.1c0.2,0,0.4-0.1,0.5-0.2c0,0,2.7-2.4,5.9-2.9C14.7,7.9,15,7.5,15,7.1c-0.1-0.4-0.5-0.7-0.9-0.7
		c-3.7,0.5-6.6,3.2-6.7,3.3C7,10,7,10.5,7.3,10.8C7.5,11,7.7,11.1,7.9,11.1z"/>
	<path d="M16.3,7c-0.1,0.4,0.2,0.8,0.6,0.9c3.2,0.6,6.2,2.3,8.5,4.7c0.2,0.2,0.4,0.3,0.6,0.3c0.2,0,0.4-0.1,0.5-0.2
		c0.3-0.3,0.3-0.8,0-1.1c-2.4-2.6-5.8-4.5-9.3-5.1C16.8,6.2,16.4,6.5,16.3,7z"/>
	<path d="M19.8,23.9c0.5-1.2,0.5-2.5-0.2-3.3c-1.5-1.8-3.5-2-5.9-0.7c-1.8,1-3.8,1.3-5.5,0.8c-1.2-0.3-2-1.9-2.3-2.5
		c-0.1-0.4-0.6-0.6-1-0.5c-0.4,0.1-0.6,0.6-0.5,1c0,0.1,1.1,2.9,3.3,3.5c2.1,0.6,4.6,0.2,6.7-1c2.2-1.2,3.2-0.6,3.9,0.3
		c0.2,0.3,0.4,0.9,0,1.7c-0.3,0.7-1.8,3.1-7.7,3.5c-0.4,0-0.8,0.4-0.7,0.8c0,0.4,0.4,0.7,0.8,0.7c0,0,0,0,0.1,0
		C17.3,27.9,19.3,25.1,19.8,23.9z"/>
	<path d="M16.8,22.3c-0.3-0.3-0.8-0.4-1.1-0.1c-0.7,0.6-5,2.7-8.7,1.2c-0.4-0.2-0.9,0-1,0.4c-0.2,0.4,0,0.9,0.4,1
		c1.2,0.5,2.3,0.7,3.5,0.7c3.2,0,6.1-1.5,6.8-2.1C17.1,23.1,17.1,22.6,16.8,22.3z"/>
	<path d="M22.5,22.6c-0.4,0-0.8,0.3-0.9,0.7c-0.1,0.9-0.9,2.8-3.3,4.1c-0.4,0.2-0.5,0.7-0.3,1.1c0.1,0.3,0.4,0.4,0.7,0.4
		c0.1,0,0.2,0,0.4-0.1c3-1.6,4-4.1,4.1-5.3C23.2,23,22.9,22.7,22.5,22.6z"/>
	<path d="M24.4,19.7c-0.4,0.1-0.7,0.5-0.6,1c0,0,0.5,1.8,0.2,3.5c-0.1,0.4,0.2,0.8,0.7,0.9c0,0,0.1,0,0.1,0c0.4,0,0.7-0.3,0.8-0.7
		c0.3-2-0.2-4-0.2-4.1C25.3,19.9,24.8,19.6,24.4,19.7z"/>
	<path d="M5.3,16.5c0.4,0,0.8-0.4,0.8-0.8c0-1.6,0.6-2.3,0.7-2.3c0.3-0.3,0.3-0.8,0-1.1c-0.3-0.3-0.8-0.3-1.1,0
		c-0.1,0.1-1.1,1.2-1.1,3.5C4.5,16.1,4.9,16.5,5.3,16.5z"/>
	<path d="M8.1,7.2c0.2,0,0.3-0.1,0.5-0.2c2.5-1.9,7.7-4.4,14.2-0.3c0.4,0.2,0.9,0.1,1.1-0.2c0.2-0.4,0.1-0.9-0.2-1.1
		C18.3,2,12.4,2.2,7.6,5.8C7.3,6,7.2,6.5,7.5,6.9C7.6,7.1,7.9,7.2,8.1,7.2z"/>
</g>
</svg>
