<?xml version="1.0" encoding="utf-8"?>
<!-- Generated by IcoMoon.io -->
<!DOCTYPE svg PUBLIC "-//W3C//DTD SVG 1.1//EN" "http://www.w3.org/Graphics/SVG/1.1/DTD/svg11.dtd">
<svg version="1.1" xmlns="http://www.w3.org/2000/svg" xmlns:xlink="http://www.w3.org/1999/xlink" width="512" height="512" viewBox="0 0 512 512">
<path fill="#000000" d="M393.7 460.635c53.55-153-42.075-254.36-42.075-254.36-11.475 76.5-34.425 110.925-34.425 110.925-53.55-28.685-57.375-141.525-57.375-141.525-63.11 89.885-3.825 223.76-3.825 223.76-26.775 0-82.235-38.25-82.235-38.25-5.735 86.060 63.11 130.050 105.185 139.61-19.125 3.825-34.425 3.825-61.2-3.825-11.475-3.825-225.675-78.41-103.275-304.085 0 0 22.95 74.585 61.2 101.36 0 0-38.25-76.5 21.035-164.475 61.2-87.975 65.025-114.75 65.025-114.75s38.25 49.725 43.985 149.175c0 0 26.775-34.425 38.25-82.235 3.825-5.735 181.685 198.9 49.725 378.675z"></path>
</svg>
