<?xml version="1.0" encoding="utf-8"?>
<!-- Generated by IcoMoon.io -->
<!DOCTYPE svg PUBLIC "-//W3C//DTD SVG 1.1//EN" "http://www.w3.org/Graphics/SVG/1.1/DTD/svg11.dtd">
<svg version="1.1" xmlns="http://www.w3.org/2000/svg" xmlns:xlink="http://www.w3.org/1999/xlink" width="512" height="512" viewBox="0 0 512 512">
<path fill="#000000" d="M387.735 155.465c-55.468 0-102.268 43.334-102.268 102.268 0 55.468 43.334 102.268 102.268 102.268 55.468 0 102.268-43.334 102.268-102.268-3.467-57.201-48.534-102.268-102.268-102.268zM387.735 325.334c-36.401 0-65.868-29.467-65.868-65.868s29.467-65.868 65.868-65.868 65.868 29.467 65.868 65.868-29.467 65.868-65.868 65.868z"></path>
<path fill="#000000" d="M228.266 254.267c0 56.481-45.787 102.268-102.268 102.268s-102.268-45.788-102.268-102.268c0-56.481 45.787-102.268 102.268-102.268s102.268 45.787 102.268 102.268z"></path>
</svg>
