<?xml version="1.0" encoding="utf-8"?>
<!-- Generated by IcoMoon.io -->
<!DOCTYPE svg PUBLIC "-//W3C//DTD SVG 1.1//EN" "http://www.w3.org/Graphics/SVG/1.1/DTD/svg11.dtd">
<svg version="1.1" xmlns="http://www.w3.org/2000/svg" xmlns:xlink="http://www.w3.org/1999/xlink" width="512" height="512" viewBox="0 0 512 512">
<path fill="#000000" d="M463.902 295.656c-3.628-7.574-7.995-14.673-13.148-21.142l11.781-41.075c-8.099-7.258-16.987-13.622-26.455-18.933l-35.028 24.403c-7.731-2.735-15.883-4.628-24.245-5.575l-20.774-37.446c-5.364 0.315-10.781 0.842-16.2 1.736s-10.729 2.156-15.883 3.577l-7.521 42.127c-7.574 3.629-14.673 7.994-21.089 13.148l-41.075-11.78c-7.258 8.099-13.622 16.987-18.933 26.455l24.403 35.028c-2.735 7.731-4.628 15.883-5.575 24.245l-37.447 20.774c0.315 5.364 0.842 10.781 1.736 16.2s2.156 10.729 3.577 15.883l42.18 7.521c3.628 7.574 7.995 14.673 13.148 21.142l-11.781 41.075c8.099 7.259 16.987 13.622 26.455 18.933l35.028-24.403c7.731 2.735 15.883 4.628 24.245 5.575l20.774 37.447c5.313-0.315 10.729-0.842 16.147-1.736s10.729-2.156 15.883-3.577l7.521-42.18c7.574-3.628 14.673-7.995 21.142-13.148l41.075 11.781c7.259-8.099 13.622-16.987 18.933-26.455l-24.403-35.028c2.735-7.731 4.628-15.883 5.575-24.245l37.447-20.774c-0.315-5.313-0.842-10.729-1.736-16.147s-2.156-10.729-3.577-15.883l-42.18-7.521zM376.123 416.094c-40.234 6.68-78.26-20.511-84.938-60.692-6.68-40.234 20.511-78.26 60.692-84.938 40.234-6.68 78.26 20.511 84.938 60.692s-20.459 78.26-60.692 84.938z"></path>
<path fill="#000000" d="M330 136.77c1.946-5.838 3.207-11.781 3.786-17.776l26.981-15.672c-0.579-7.942-2.050-15.725-4.366-23.352l-30.82-4.891c-2.682-5.364-5.995-10.466-9.94-15.2l7.995-30.188c-2.945-2.578-6.101-4.996-9.413-7.259s-6.731-4.313-10.151-6.153l-25.298 18.355c-5.838-1.946-11.781-3.207-17.724-3.786l-15.673-26.98c-7.941 0.579-15.726 2.050-23.352 4.366l-4.892 30.82c-5.364 2.682-10.466 5.995-15.2 9.941l-30.188-7.995c-2.577 2.946-4.996 6.102-7.258 9.413s-4.313 6.731-6.153 10.151l18.355 25.298c-1.946 5.838-3.208 11.781-3.786 17.776l-26.928 15.621c0.578 7.942 2.050 15.778 4.366 23.352l30.82 4.892c2.682 5.364 5.995 10.466 9.94 15.2l-8.048 30.188c2.946 2.524 6.101 4.996 9.413 7.258s6.732 4.313 10.151 6.153l25.298-18.355c5.838 1.946 11.78 3.208 17.776 3.786l15.673 26.981c7.942-0.578 15.779-2.050 23.352-4.366l4.892-30.82c5.364-2.682 10.466-5.995 15.2-9.94l30.241 7.994c2.524-2.946 4.996-6.101 7.259-9.413s4.313-6.732 6.153-10.151l-18.461-25.245zM222.918 155.757c-24.56-16.829-30.82-50.333-13.99-74.893s50.332-30.82 74.893-13.99c24.56 16.829 30.82 50.332 13.99 74.893s-50.384 30.767-74.893 13.99z"></path>
<path fill="#000000" d="M208.456 283.138c0-6.784-0.683-13.411-2.156-19.881l22.825-25.666c-3.367-8.099-7.573-15.779-12.623-22.931l-33.922 5.523c-4.681-4.681-9.887-8.888-15.621-12.465l-2.050-34.344c-3.996-1.631-8.099-3.156-12.359-4.366s-8.52-2.156-12.78-2.946l-20.143 27.927c-6.731 0-13.412 0.683-19.881 2.156l-25.666-22.825c-8.099 3.367-15.779 7.573-22.931 12.623l5.523 33.923c-4.681 4.681-8.888 9.887-12.465 15.621l-34.343 1.893c-1.631 3.996-3.156 8.099-4.366 12.359s-2.156 8.52-2.946 12.78l27.927 20.143c0 6.784 0.683 13.411 2.156 19.881l-22.773 25.666c3.367 8.099 7.573 15.779 12.623 22.931l33.922-5.523c4.681 4.681 9.888 8.888 15.621 12.465l1.999 34.397c3.996 1.631 8.099 3.103 12.308 4.366s8.52 2.156 12.78 2.945l20.143-27.927c6.784 0 13.412-0.683 19.881-2.156l25.666 22.825c8.099-3.366 15.779-7.574 22.931-12.623l-5.523-33.923c4.681-4.681 8.888-9.887 12.465-15.621l34.397-1.999c1.631-3.997 3.103-8.099 4.366-12.308 1.21-4.26 2.156-8.52 2.946-12.78l-27.927-20.143zM102.9 339.887c-31.451-9.151-49.595-42.075-40.445-73.579s42.075-49.595 73.578-40.445 49.595 42.075 40.445 73.579-42.075 49.595-73.579 40.445z"></path>
</svg>
