<?xml version="1.0" encoding="utf-8"?>
<!-- Generated by IcoMoon.io -->
<!DOCTYPE svg PUBLIC "-//W3C//DTD SVG 1.1//EN" "http://www.w3.org/Graphics/SVG/1.1/DTD/svg11.dtd">
<svg version="1.1" xmlns="http://www.w3.org/2000/svg" xmlns:xlink="http://www.w3.org/1999/xlink" width="512" height="512" viewBox="0 0 512 512">
<path fill="#000000" d="M420.95 208.5c-3.6-12.55-8.5-24.45-14.7-35.65l28.45-59.85c-10.55-13.15-22.55-25.15-35.7-35.7l-59.85 28.45c-11.15-6.2-23.15-11.1-35.65-14.7l-22.3-62.6c-8.25-0.9-16.65-1.45-25.2-1.45s-16.95 0.55-25.2 1.45l-22.3 62.6c-12.5 3.6-24.45 8.55-35.65 14.7l-59.85-28.45c-13.15 10.55-25.15 22.55-35.7 35.7l28.45 59.85c-6.2 11.15-11.1 23.15-14.7 35.65l-62.6 22.3c-0.9 8.25-1.45 16.65-1.45 25.2s0.55 16.95 1.45 25.2l62.6 22.3c3.6 12.55 8.5 24.45 14.7 35.65l-28.45 59.85c10.55 13.15 22.55 25.15 35.7 35.7l59.85-28.45c11.15 6.2 23.15 11.1 35.65 14.7l22.25 62.6c8.25 0.9 16.65 1.45 25.2 1.45s16.95-0.55 25.2-1.45l22.35-62.6c12.55-3.6 24.45-8.5 35.65-14.7l59.85 28.45c13.15-10.55 25.15-22.55 35.7-35.7l-28.45-59.85c6.2-11.15 11.1-23.15 14.7-35.65l62.6-22.25c0.9-8.25 1.45-16.65 1.45-25.2s-0.55-16.95-1.45-25.2l-62.6-22.35zM256 370.5c-63.25 0-114.5-51.25-114.5-114.5s51.25-114.5 114.5-114.5 114.5 51.25 114.5 114.5-51.25 114.5-114.5 114.5z"></path>
</svg>
