<?xml version="1.0" encoding="utf-8"?>
<!-- Generator: Adobe Illustrator 25.4.2, SVG Export Plug-In . SVG Version: 6.00 Build 0)  -->
<svg version="1.1" id="Layer_1" xmlns="http://www.w3.org/2000/svg" xmlns:xlink="http://www.w3.org/1999/xlink" x="0px" y="0px"
	 width="512px" height="512px" viewBox="0 0 512 512" style="enable-background:new 0 0 512 512;" xml:space="preserve">
<g>
	<path d="M13,245.3c1.2-8.9,2.3-17.8,3.7-26.7c5.6-34.8,18.9-66.4,38.8-95.4C85.6,79.5,125.9,48.8,175.8,31
		c33.9-12.1,68.9-15.5,104.7-12.1c44.6,4.2,84.7,19.9,120.5,46.6c43.6,32.4,73,74.9,88.5,126.9c10,33.4,12.1,67.5,7.3,101.9
		c-9.5,67.9-43.2,121.6-97.2,162.9c-19.6,15-41.7,25.7-65,33.7c-10.7,3.7-18-1.5-18-12.8c-0.1-21,0-42.1-0.1-63.1
		c0-10.5-0.6-21-5.2-30.6c-2.7-5.6-6.4-10.8-9.7-16.2c8.9-1.6,18.5-2.9,27.9-5.3c24.8-6.4,47-17.4,62-39.1
		c10.9-15.8,16-33.9,18.2-52.8c1.7-14.3,2.2-28.7-0.6-43c-3.1-15.9-9.9-29.9-20.6-42.1c-1.9-2.2-2.3-4-1.3-6.7
		c7-20,4.3-39.6-3.1-58.8c-0.5-1.2-2.5-2.3-3.9-2.5c-8.4-1.2-16.4,1.2-23.9,4.7c-12.3,5.8-24.1,12.4-36.3,18.5
		c-2.2,1.1-5.2,1.8-7.4,1.2c-37.9-9.5-75.7-9.5-113.6,0c-2.2,0.6-5.4-0.1-7.4-1.3c-15.4-9.8-31.7-17.7-49.5-22.3
		c-0.3-0.1-0.6-0.2-0.9-0.3c-11.3-2.4-13.4-1.1-16.6,10c-5,17.3-6,34.5,0.1,51.8c0.5,1.4,0,3.8-0.9,4.9
		c-20.4,23.2-25,50.6-22.2,80.3c1.6,17.3,5.7,33.9,13.5,49.5c11,22,29.5,35.4,51.9,43.2c13.3,4.6,27.6,6.5,41.4,9.7
		c0.7,0.2,1.5,0.2,1.6,0.3c-3.5,6.4-7.2,12.8-10.5,19.3c-1.1,2.2-2,4.8-2.1,7.2c-0.2,5.1-2.9,7.4-7.5,8.7
		c-15.4,4.2-30.7,6.9-45.4-2.2c-7.7-4.7-13.5-11.4-18-19.1c-7-11.9-16.8-20.7-30.1-24.6c-4.9-1.5-10.5-1.1-15.8-0.7
		c-3.2,0.2-4.2,2.8-2.1,5.5c2.2,2.7,4.3,5.8,7.2,7.4c13,7.6,20.4,19.5,26.2,32.7c3.3,7.5,6.5,15,12.9,20.8
		c10.2,9.2,22.5,12.6,35.7,13.2c11.4,0.5,22.9,0.1,35.1,0.1c0,6.9,0,14.9,0,22.9c0,6.2,0.2,12.3,0.2,18.5c0,11.4-7.5,16.9-18.3,13.2
		c-35.9-12.2-67.5-31.5-94.1-58.8c-25.7-26.4-45.3-56.7-57.5-91.7c-6.9-19.8-10.9-40.2-12.4-61.1c-0.1-1.9-0.5-3.7-0.7-5.6
		C13,264.3,13,254.8,13,245.3z"/>
</g>
</svg>
