<?xml version="1.0" encoding="utf-8"?>
<!-- Generated by IcoMoon.io -->
<!DOCTYPE svg PUBLIC "-//W3C//DTD SVG 1.1//EN" "http://www.w3.org/Graphics/SVG/1.1/DTD/svg11.dtd">
<svg version="1.1" xmlns="http://www.w3.org/2000/svg" xmlns:xlink="http://www.w3.org/1999/xlink" width="512" height="512" viewBox="0 0 512 512">
<path fill="#000000" d="M232.543 150.438c117.291-31.276 150.524-70.376 160.296-91.876-39.096-27.366-86.014-44.962-136.839-44.962-130.977 0-238.492 109.472-238.492 242.401 0 80.148 39.096 150.524 97.743 195.486-43.005-89.924-58.643-250.22 117.291-301.043z"></path>
<path fill="#000000" d="M400.658 64.423c56.69 322.548-226.762 308.868-226.762 308.868-43.005-62.558 127.067-177.891 127.067-177.891-256.087 103.605-170.072 244.358-138.796 283.454 29.324 11.728 60.6 19.548 93.834 19.548 130.977 0 238.492-109.472 238.492-242.401 0-78.195-37.143-146.615-93.834-191.577z"></path>
</svg>
