<?xml version="1.0" encoding="utf-8"?>
<!-- Generated by IcoMoon.io -->
<!DOCTYPE svg PUBLIC "-//W3C//DTD SVG 1.1//EN" "http://www.w3.org/Graphics/SVG/1.1/DTD/svg11.dtd">
<svg version="1.1" xmlns="http://www.w3.org/2000/svg" xmlns:xlink="http://www.w3.org/1999/xlink" width="512" height="512" viewBox="0 0 512 512">
<path fill="#000000" d="M89.332 222.666h100.001c18.4 0 33.334-14.933 33.334-33.334v-100.001c0-18.4-14.933-33.334-33.334-33.334h-100.001c-18.4 0-33.334 14.933-33.334 33.334v100.001c0 18.4 14.933 33.334 33.334 33.334zM322.667 222.666h100.001c18.4 0 33.334-14.933 33.334-33.334v-100.001c0-18.4-14.933-33.334-33.334-33.334h-100.001c-18.4 0-33.334 14.933-33.334 33.334v100.001c0 18.4 14.933 33.334 33.334 33.334zM55.998 422.668c0 18.4 14.933 33.334 33.334 33.334h100.001c18.4 0 33.334-14.933 33.334-33.334v-100.001c0-18.4-14.933-33.334-33.334-33.334h-100.001c-18.4 0-33.334 14.933-33.334 33.334v100.001zM289.334 422.668c0 18.4 14.933 33.334 33.334 33.334h100.001c18.4 0 33.334-14.933 33.334-33.334v-100.001c0-18.4-14.933-33.334-33.334-33.334h-100.001c-18.4 0-33.334 14.933-33.334 33.334v100.001z"></path>
</svg>
