<?xml version="1.0" encoding="utf-8"?>
<!-- Generator: Adobe Illustrator 22.1.0, SVG Export Plug-In . SVG Version: 6.00 Build 0)  -->
<svg version="1.1" id="Layer_1" xmlns="http://www.w3.org/2000/svg" xmlns:xlink="http://www.w3.org/1999/xlink" x="0px" y="0px"
	 viewBox="0 0 32 32" style="enable-background:new 0 0 32 32;" xml:space="preserve">
<path d="M28.9,14.7c-0.2-0.3-0.6-0.5-1-0.5c-0.8,0-1.8,0.3-2.5,0.8s-1.7,1.3-2.6,2.8c-0.2,0.3-0.4,0.5-0.7,0.5c0-0.1,0-0.1,0-0.2
	s0-0.3,0-0.5L23,6c0-1.1-0.9-1.9-1.9-1.9S19.2,5,19.2,6l-0.9,8.4c0,0.1-0.1,0.2-0.2,0.2s-0.2-0.1-0.2-0.2V3.5c0-1.1-0.9-1.9-1.9-1.9
	s-2.1,0.8-2.1,1.9L14,14.2c0,0.4-0.2,0.4-0.3,0.4s-0.2-0.1-0.2-0.2L13,4.8c0-0.9-0.8-1.7-1.7-1.7s-1.7,0.8-2,1.7l0.9,10.4
	c0,0.2-0.1,0.3-0.2,0.4c-0.1,0-0.3-0.1-0.3-0.3L8.5,9.1c0-0.9-0.8-1.7-1.7-1.7c-1,0-1.7,0.8-1.7,1.7l1.1,13.4
	c0.5,6.8,4.6,7.7,8.6,7.7c3.3,0,6.3-1.6,7.8-4.3c0.2-0.3,0.7-1.1,1.3-2.1c1.5-2.4,2.8-4.4,3-4.7c0.4-0.8,0.9-1.4,1.3-1.8
	c0.4-0.3,0.7-0.8,0.9-1.2C29.1,15.9,29.2,15.2,28.9,14.7z"/>
</svg>
