<?xml version="1.0" encoding="utf-8"?>
<!-- Generator: Adobe Illustrator 22.1.0, SVG Export Plug-In . SVG Version: 6.00 Build 0)  -->
<svg version="1.1" id="Layer_1" xmlns="http://www.w3.org/2000/svg" xmlns:xlink="http://www.w3.org/1999/xlink" x="0px" y="0px"
	 viewBox="0 0 32 32" style="enable-background:new 0 0 32 32;" xml:space="preserve">
<style type="text/css">
	.st0{fill:none;}
</style>
<g>
	<circle class="st0" cx="28.9" cy="20.4" r="1.1"/>
	<path class="st0" d="M17,11.3c-0.1,0-0.1,0-0.2,0c-0.7,0.1-1.2,0.4-1.4,0.6c-0.2,0.3-1,1-2.2,2.2c-0.7,0.7-1.4,1.3-1.6,1.6
		c-0.1,0.1-0.2,0.3-0.2,0.4c0,0.1,0.2,0.3,0.5,0.4c0.9,0.4,2.3,0.1,2.9-0.5c0.9-0.8,2.1-1.8,2.1-1.8l0.2-0.2h2.2l0.2,0.2
		c0,0,4.3,3.4,5.8,4.6v-7.4c0,0,0,0,0,0h-7.5C17.5,11.3,17.3,11.3,17,11.3z"/>
	<path class="st0" d="M24.4,19.8c-1.2-1-4.7-3.8-5.6-4.5h-1.1c-0.4,0.3-1.2,1-1.8,1.6c-1,0.9-3,1.5-4.5,0.7
		c-0.9-0.4-1.2-1.1-1.3-1.5c-0.1-0.6,0.1-1.2,0.5-1.6c0.2-0.2,0.9-0.9,1.7-1.6c0.8-0.8,1.9-1.8,2.1-2.1c0.6-0.7,1.7-1.1,2.9-1.1h0.4
		C19.3,9.5,19.9,8.3,20,8c0-0.1,0.1-0.3,0-0.4c-0.1-0.1-0.3-0.2-0.6-0.2h-5.1c-1.1,0-2.2,0.7-3.1,1.3c-1.3,1-3.6,2.5-5,2.7v9.7
		c0,0,0,0,0,0h3.7c1,0,1.9,0.8,2.3,1.3c0.3,0.4,1.6,1.9,2.9,2.1c0.9,0.1,1.3-0.3,1.5-0.6c0.1-0.2,0.3-0.3,0.5-0.4
		c0.4-0.1,0.7,0,1.2,0.3c0.5,0.3,1.3,0.7,1.9,0.7c0.5-0.1,0.8-0.5,1.1-1c0.1-0.3,0.3-0.5,0.5-0.6c0.2-0.1,0.3-0.1,0.8-0.2
		c0.5-0.1,2.2-0.4,2.5-0.9C25.4,21.5,25.8,21,24.4,19.8z"/>
	<path d="M30.5,9.5h-3.2c-0.5,0-0.9,0.2-1.2,0.6c-0.2-0.1-0.3-0.2-0.5-0.3l-0.1,0h-5c0.3-0.4,0.6-0.8,0.8-1.3
		c0.2-0.6,0.2-1.3-0.1-1.7c-0.4-0.5-1-0.8-1.8-0.8h-5.1c-1.6,0-2.9,0.8-4,1.6C8.4,9,6.6,10,5.9,10H5.8C5.5,9.7,5.1,9.5,4.7,9.5H1.5
		C0.7,9.5,0,10.2,0,11v10.6c0,0.8,0.7,1.5,1.5,1.5h3.2c0.5,0,0.9-0.2,1.2-0.6c0.1,0,0.2,0.1,0.3,0.1h3.7c0.3,0,0.8,0.4,1.2,0.8
		c0.6,0.7,2,2.4,3.9,2.6c1.4,0.2,2.2-0.5,2.6-0.9c0,0,0.1,0,0.1,0c0.6,0.3,1.5,0.9,2.5,0.9c0.1,0,0.2,0,0.3,0
		c1.3-0.1,1.9-1.2,2.2-1.8c0,0,0,0,0,0c0.1,0,0.2,0,0.2,0c1.3-0.3,2.8-0.6,3.4-1.4c0.3,0.2,0.6,0.4,1,0.4h3.2c0.8,0,1.5-0.7,1.5-1.5
		V11C32,10.2,31.3,9.5,30.5,9.5z M3.1,21.8c-0.6,0-1.1-0.5-1.1-1.1s0.5-1.1,1.1-1.1c0.6,0,1.1,0.5,1.1,1.1S3.7,21.8,3.1,21.8z
		 M25.3,11.2C25.3,11.2,25.3,11.2,25.3,11.2l0,7.4c-1.4-1.2-5.7-4.6-5.8-4.6l-0.2-0.2h-2.2l-0.2,0.2c0,0-1.2,1-2.1,1.8
		c-0.6,0.6-2,0.9-2.9,0.5c-0.3-0.1-0.5-0.3-0.5-0.4c0-0.1,0-0.2,0.2-0.4c0.2-0.2,0.9-0.9,1.6-1.6c1.2-1.1,2-1.9,2.2-2.2
		c0.2-0.2,0.7-0.5,1.4-0.6c0.1,0,0.1,0,0.2,0c0.2,0,0.5,0,0.7,0H25.3z M25.2,21.8c-0.3,0.5-2,0.8-2.5,0.9c-0.4,0.1-0.6,0.1-0.8,0.2
		c-0.2,0.1-0.4,0.4-0.5,0.6c-0.3,0.5-0.5,0.9-1.1,1c-0.6,0.1-1.4-0.4-1.9-0.7c-0.5-0.3-0.8-0.4-1.2-0.3c-0.2,0.1-0.4,0.2-0.5,0.4
		c-0.3,0.3-0.6,0.7-1.5,0.6c-1.4-0.2-2.6-1.6-2.9-2.1c-0.4-0.5-1.3-1.3-2.3-1.3H6.2c0,0,0,0,0,0v-9.7c1.4-0.2,3.7-1.7,5-2.7
		c0.9-0.7,2-1.3,3.1-1.3h5.1c0.3,0,0.5,0.1,0.6,0.2C20,7.7,20,7.9,20,8c-0.1,0.3-0.7,1.5-2.3,1.8h-0.4c-1.2,0-2.3,0.4-2.9,1.1
		c-0.2,0.2-1.3,1.3-2.1,2.1c-0.8,0.7-1.4,1.4-1.7,1.6c-0.4,0.5-0.6,1.1-0.5,1.6c0.1,0.4,0.4,1,1.3,1.5c1.5,0.7,3.5,0.2,4.5-0.7
		c0.6-0.6,1.5-1.3,1.8-1.6h1.1c0.9,0.7,4.4,3.5,5.6,4.5C25.8,21,25.4,21.5,25.2,21.8z M28.9,21.5c-0.6,0-1.1-0.5-1.1-1.1
		s0.5-1.1,1.1-1.1c0.6,0,1.1,0.5,1.1,1.1S29.5,21.5,28.9,21.5z"/>
</g>
</svg>
