<?xml version="1.0" encoding="utf-8"?>
<!-- Generated by IcoMoon.io -->
<!DOCTYPE svg PUBLIC "-//W3C//DTD SVG 1.1//EN" "http://www.w3.org/Graphics/SVG/1.1/DTD/svg11.dtd">
<svg version="1.1" xmlns="http://www.w3.org/2000/svg" xmlns:xlink="http://www.w3.org/1999/xlink" width="512" height="512" viewBox="0 0 512 512">
<path fill="#000000" d="M475.543 250.351c0 7.568-6.158 13.748-13.748 13.748-3.531 0-6.682-1.411-9.060-3.595l-197.258-197.258-0.281 0.281-0.060-0.038-197.037 197.016c-2.401 2.157-5.552 3.574-9.060 3.574-7.59 0-13.748-6.174-13.748-13.748 0-3.816 1.535-7.244 4.054-9.731v0l206.341-206.363c2.503-2.503 5.935-4.038 9.731-4.038 3.773 0 7.228 1.535 9.688 4.038l206.38 206.381c2.541 2.46 4.055 5.893 4.055 9.731zM420.519 290.193v152.712c0 15.218-12.31 27.533-27.533 27.533h-96.298v-137.533h-82.572v137.554h-96.278c-15.218 0-27.533-12.31-27.533-27.533v-152.712l165.103-165.125 165.103 165.103z"></path>
</svg>
