<?xml version="1.0" encoding="utf-8"?>
<!-- Generated by IcoMoon.io -->
<!DOCTYPE svg PUBLIC "-//W3C//DTD SVG 1.1//EN" "http://www.w3.org/Graphics/SVG/1.1/DTD/svg11.dtd">
<svg version="1.1" xmlns="http://www.w3.org/2000/svg" xmlns:xlink="http://www.w3.org/1999/xlink" width="512" height="512" viewBox="0 0 512 512">
<path fill="#000000" d="M256 10.397c-132.895 0-240.555 111.025-240.555 245.603s107.662 245.603 240.555 245.603 240.555-109.343 240.555-245.603-107.662-245.603-240.555-245.603zM397.306 395.623c0 13.457-10.094 23.55-23.55 23.55h-82.428v-117.754h-70.653v117.754h-84.11c-13.457 0-23.55-10.094-23.55-23.55v-131.213l142.987-142.987 141.306 141.306v132.895zM432.632 240.861c-3.365 0-5.046-1.683-8.411-3.365l-168.221-168.221-169.903 168.221c-1.683 1.683-5.046 3.365-8.411 3.365-6.728 0-11.776-5.046-11.776-11.776 0-3.365 1.683-6.728 3.365-8.411l178.314-176.632c1.683-1.682 5.046-3.365 8.411-3.365s6.728 1.682 8.411 3.365l176.632 176.632c1.683 1.683 3.365 5.046 3.365 8.411 0 6.728-5.046 11.776-11.776 11.776z"></path>
</svg>
