<?xml version="1.0" encoding="utf-8"?>
<!-- Generated by IcoMoon.io -->
<!DOCTYPE svg PUBLIC "-//W3C//DTD SVG 1.1//EN" "http://www.w3.org/Graphics/SVG/1.1/DTD/svg11.dtd">
<svg version="1.1" xmlns="http://www.w3.org/2000/svg" xmlns:xlink="http://www.w3.org/1999/xlink" width="512" height="512" viewBox="0 0 512 512">
<path fill="#000000" d="M312.65 376.226h-130.15c-7.185 0-13.025 5.841-13.025 13.025s5.841 13.025 13.025 13.025h130.15c7.185 0 13.025-5.841 13.025-13.025s-5.841-13.025-13.025-13.025z"></path>
<path fill="#000000" d="M245.094 472.211h-57.219l46.933 23.983c3.722 1.912 7.805 2.843 11.837 2.843s8.063-0.93 11.733-2.791l47.605-24.087-60.888 0.052z"></path>
<path fill="#000000" d="M187.203 131.432c0 19.952 17.781 36.233 39.645 36.233h8.632v-72.415h-8.632c-21.864 0-39.645 16.23-39.645 36.182z"></path>
<path fill="#000000" d="M312.65 422.952h-130.15c-7.185 0-13.025 5.841-13.025 13.025s5.841 13.025 13.025 13.025h130.15c7.185 0 13.025-5.841 13.025-13.025s-5.841-13.025-13.025-13.025z"></path>
<path fill="#000000" d="M259.618 264.27h8.632c21.864 0 39.645-16.23 39.645-36.233s-17.781-36.233-39.645-36.233h-8.632v72.466z"></path>
<path fill="#000000" d="M246.644 8.983c-90.971 0-164.936 74.172-164.936 165.35 0 6.461 0.414 12.922 1.189 19.228 0.155 1.241 0.414 2.429 0.569 3.618 0.724 5.22 1.602 10.441 2.843 15.558 0.207 0.93 0.517 1.861 0.775 2.739 1.396 5.427 3.050 10.854 4.962 16.075 0.207 0.517 0.414 0.982 0.569 1.499 2.171 5.634 4.6 11.165 7.391 16.54 0.103 0.207 0.207 0.414 0.31 0.62 2.895 5.582 6.099 10.958 9.614 16.178 0.103 0.155 0.207 0.31 0.31 0.465 3.411 5.117 7.185 9.976 11.165 14.679 0.31 0.362 0.62 0.724 0.982 1.137 3.618 4.238 7.546 8.218 11.63 12.095 0.93 0.879 1.757 1.706 2.688 2.533 1.189 1.085 2.274 2.274 3.566 3.36 0.724 0.62 1.654 1.034 2.481 1.551 2.739 2.274 5.324 4.652 8.218 6.719 1.137 0.827 1.861 1.602 2.843 2.429 18.969 15.765 9.717 45.33 30.806 45.33 2.946 0 96.45 0 124.154 0 21.089 0 11.837-29.565 30.858-45.33 0.982-0.827 1.706-1.602 2.843-2.429 2.895-2.119 5.479-4.445 8.218-6.719 0.775-0.569 1.706-0.93 2.481-1.551 1.241-1.034 2.326-2.274 3.566-3.36 0.93-0.827 1.809-1.706 2.688-2.533 4.083-3.877 7.96-7.857 11.63-12.095 0.31-0.362 0.62-0.724 0.982-1.137 3.98-4.704 7.701-9.614 11.165-14.679 0.103-0.155 0.207-0.31 0.31-0.465 3.515-5.22 6.668-10.596 9.562-16.178 0.103-0.207 0.207-0.414 0.31-0.62 2.791-5.376 5.22-10.906 7.391-16.54 0.155-0.517 0.362-0.982 0.569-1.499 1.964-5.22 3.566-10.648 4.962-16.075 0.258-0.93 0.569-1.809 0.775-2.739 1.241-5.117 2.119-10.286 2.843-15.558 0.155-1.189 0.465-2.429 0.62-3.618 0.724-6.358 1.137-12.767 1.137-19.28-0.052-91.126-74.069-165.298-165.040-165.298zM268.25 167.665c35.199 0 63.835 27.084 63.835 60.371s-28.635 60.371-63.835 60.371h-8.632v12.043c0 6.668-5.427 12.095-12.095 12.095s-12.095-5.427-12.095-12.095v-12.095h-8.632c-35.199 0-63.835-27.084-63.835-60.371 0-6.668 5.427-12.095 12.095-12.095s12.095 5.427 12.095 12.095c0 19.952 17.781 36.233 39.645 36.233h8.632v-72.415h-8.632c-35.199 0-63.835-27.084-63.835-60.371s28.635-60.371 63.835-60.371h8.632v-12.095c0-6.668 5.427-12.095 12.095-12.095s12.095 5.427 12.095 12.095v12.095h8.632c35.199 0 63.835 27.084 63.835 60.371 0 6.668-5.427 12.095-12.095 12.095s-12.095-5.427-12.095-12.095c0-19.952-17.781-36.233-39.645-36.233h-8.632v72.415h8.632z"></path>
</svg>
