<?xml version="1.0" encoding="utf-8"?>
<!-- Generated by IcoMoon.io -->
<!DOCTYPE svg PUBLIC "-//W3C//DTD SVG 1.1//EN" "http://www.w3.org/Graphics/SVG/1.1/DTD/svg11.dtd">
<svg version="1.1" xmlns="http://www.w3.org/2000/svg" xmlns:xlink="http://www.w3.org/1999/xlink" width="512" height="512" viewBox="0 0 512 512">
<path fill="#000000" d="M258.104 87.397c-137.1 0-248.587 67.12-248.587 149.577 0 39.847 26.038 77.415 73.339 105.807l4.326 2.608-0.484 4.982c-1.737 19.412-11.088 49.486-50.24 60.205 10.12 1.874 21.767 3.108 34.245 3.108 37.548 0 71.078-11.377 99.607-33.8l2.956-2.28 3.612 0.714c5.872 1.257 11.935 2.163 17.924 3.127 0.019 0.289 0.019 0.578 0.039 0.851 19.315 2.8 39.036 4.287 58.989 4.287 119 0 218.84-49.853 245.746-116.704 0.308 0.117 0.598 0.192 0.89 0.308 4.037-10.663 6.2-21.748 6.2-33.183 0.019-82.514-111.488-149.617-248.567-149.617zM257.738 115.135c15.277 0 25.709 11.647 25.709 26.635 0 15.895-11.338 26.925-25.709 26.925-14.080 0-25.418-11.010-25.418-26.925 0-15.625 11.338-26.635 25.418-26.635zM300.29 343.711v0h-82.94v-12.865c18.061 0 19.585-2.725 19.585-25.362v-70.075c0-22.637-1.218-24.183-19.585-24.183v-12.263c18.678-1.218 38.552-6.102 59.685-14.969l5.236 2.761v119.038c0 22.289 1.815 25.070 18.041 25.070v12.845z"></path>
</svg>
