<?xml version="1.0" encoding="utf-8"?>
<!-- Generated by IcoMoon.io -->
<!DOCTYPE svg PUBLIC "-//W3C//DTD SVG 1.1//EN" "http://www.w3.org/Graphics/SVG/1.1/DTD/svg11.dtd">
<svg version="1.1" xmlns="http://www.w3.org/2000/svg" xmlns:xlink="http://www.w3.org/1999/xlink" width="512" height="512" viewBox="0 0 512 512">
<path fill="#000000" d="M256 178.069c-17.087 0-30.979 13.892-30.979 30.979v185.873c0 17.087 13.892 30.979 30.979 30.979s30.979-13.892 30.979-30.979v-185.873c0-17.087-13.892-30.979-30.979-30.979z"></path>
<path fill="#000000" d="M256 80.147c-19.41 0-35.142 15.731-35.142 35.142s15.731 35.142 35.142 35.142 35.142-15.731 35.142-35.142c0-19.362-15.731-35.142-35.142-35.142z"></path>
<path fill="#000000" d="M256.194 13.010c-134.080 0-242.797 108.716-242.797 242.797s108.716 242.797 242.797 242.797 242.797-108.716 242.797-242.797-108.716-242.797-242.797-242.797zM256.194 470.625c-118.639 0-214.819-96.18-214.819-214.819s96.18-214.867 214.819-214.867 214.819 96.18 214.819 214.819-96.131 214.867-214.819 214.867z"></path>
</svg>
