<?xml version="1.0" encoding="utf-8"?>
<!-- Generated by IcoMoon.io -->
<!DOCTYPE svg PUBLIC "-//W3C//DTD SVG 1.1//EN" "http://www.w3.org/Graphics/SVG/1.1/DTD/svg11.dtd">
<svg version="1.1" xmlns="http://www.w3.org/2000/svg" xmlns:xlink="http://www.w3.org/1999/xlink" width="512" height="512" viewBox="0 0 512 512">
<path fill="#000000" d="M256.179 33.021c-123.037 0-222.8 99.763-222.8 222.8s99.763 222.8 222.8 222.8 222.8-99.763 222.8-222.8-99.763-222.8-222.8-222.8zM284.426 383.481c0 15.68-12.747 28.426-28.427 28.426s-28.427-12.747-28.427-28.426v-170.566c0-15.679 12.747-28.427 28.427-28.427s28.427 12.747 28.427 28.427v170.566zM256 159.124c-17.81 0-32.247-14.437-32.247-32.247s14.437-32.247 32.247-32.247 32.247 14.437 32.247 32.247c0 17.81-14.437 32.247-32.247 32.247z"></path>
</svg>
