<?xml version="1.0" encoding="utf-8"?>
<!-- Generated by IcoMoon.io -->
<!DOCTYPE svg PUBLIC "-//W3C//DTD SVG 1.1//EN" "http://www.w3.org/Graphics/SVG/1.1/DTD/svg11.dtd">
<svg version="1.1" xmlns="http://www.w3.org/2000/svg" xmlns:xlink="http://www.w3.org/1999/xlink" width="512" height="512" viewBox="0 0 512 512">
<path fill="#000000" d="M425.603 43.092h-324.774c-27.063 0-48.717 21.651-48.717 48.717v326.578c0 27.063 21.651 48.717 48.717 48.717h326.578c27.063 0 48.717-21.651 48.717-48.717v-326.578c0-27.063-23.455-48.717-50.521-48.717zM265.020 174.808c45.106 0 81.192 36.086 81.192 81.192s-36.086 81.192-81.192 81.192c-45.106 0-81.192-36.086-81.192-81.192s36.086-81.192 81.192-81.192zM425.603 402.148c0 9.020-7.216 16.239-16.239 16.239h-294.1c-9.020 0-16.239-7.216-16.239-16.239v-180.43h37.89c-1.804 10.827-3.608 21.651-3.608 34.282 0 72.172 57.737 129.909 129.909 129.909s129.909-57.737 129.909-129.909c0-10.827-1.804-21.651-3.608-34.282h36.086v180.43zM425.603 156.765c0 9.020-7.216 16.239-16.239 16.239h-48.717c-9.020 0-16.239-7.216-16.239-16.239v-48.717c0-9.020 7.216-16.239 16.239-16.239h48.717c9.020 0 16.239 7.216 16.239 16.239v48.717z"></path>
</svg>
