<?xml version="1.0" encoding="utf-8"?>
<!-- Generated by IcoMoon.io -->
<!DOCTYPE svg PUBLIC "-//W3C//DTD SVG 1.1//EN" "http://www.w3.org/Graphics/SVG/1.1/DTD/svg11.dtd">
<svg version="1.1" xmlns="http://www.w3.org/2000/svg" xmlns:xlink="http://www.w3.org/1999/xlink" width="512" height="512" viewBox="0 0 512 512">
<path fill="#000000" d="M395.598 335.769c48.95 0 88.837-39.887 87.024-90.647l-81.583-163.166-5.44-9.064c-1.813-1.814-5.44-1.814-9.064-1.814l-103.338 10.877v-16.318c9.064-5.441 16.318-16.318 16.318-27.195 0-18.128-14.505-32.633-32.632-32.633s-32.632 14.505-32.632 32.633c0 10.877 7.25 23.569 16.318 27.195v23.569l-99.715 10.877c-1.814 0-5.44 1.814-7.25 5.441l-3.627 9.064-81.583 163.166c1.813 47.137 41.7 87.024 90.647 87.024s88.837-38.073 90.647-87.024l-81.583-163.166v-3.627l97.901-10.877v324.522h-77.956c-7.25 0-10.877 5.44-10.877 10.877 0 1.813 0 1.813 0 5.44h-27.196c-7.25 0-14.505 7.25-14.505 16.318v9.064c0 9.064 7.25 16.318 14.505 16.318h264.694c7.25 0 14.505-7.25 14.505-16.318v-9.064c0-9.064-7.25-16.318-14.505-16.318h-27.195c0-1.813 0-1.813 0-5.44 0-7.25-5.44-10.877-10.877-10.877h-77.956v-329.959l97.901-10.877-79.769 163.166c0 48.95 39.887 88.837 88.837 88.837zM219.74 274.128h-141.411l68.892-159.542 72.519 159.542zM391.974 85.58l72.519 163.166h-141.411l68.892-163.166z"></path>
</svg>
