<?xml version="1.0" encoding="utf-8"?>
<!-- Generated by IcoMoon.io -->
<!DOCTYPE svg PUBLIC "-//W3C//DTD SVG 1.1//EN" "http://www.w3.org/Graphics/SVG/1.1/DTD/svg11.dtd">
<svg version="1.1" xmlns="http://www.w3.org/2000/svg" xmlns:xlink="http://www.w3.org/1999/xlink" width="512" height="512" viewBox="0 0 512 512">
<path fill="#000000" d="M450.436 59.496c-47.577-47.577-122.036-47.577-169.613 0-33.094 33.094-43.441 80.671-28.959 122.036l-206.843 206.843v64.12l18.618 18.618h41.365l6.204-6.204v-43.441l18.618-18.618h35.162l10.34-10.34v-31.026l18.619-18.618h33.094l12.408-12.408v-35.163l18.619-18.618h31.026c0 0 6.204 6.204 12.408 10.34l28.959-28.959c41.365 14.483 88.942 4.136 122.036-28.959 45.509-47.577 45.509-122.037-2.068-169.613zM396.655 156.718c-24.822 0-43.441-18.619-43.441-43.441 0-22.755 18.618-43.441 43.441-43.441s43.441 18.618 43.441 43.441c-2.068 24.822-20.687 43.441-43.441 43.441z"></path>
</svg>
