<?xml version="1.0" encoding="utf-8"?>
<!-- Generated by IcoMoon.io -->
<!DOCTYPE svg PUBLIC "-//W3C//DTD SVG 1.1//EN" "http://www.w3.org/Graphics/SVG/1.1/DTD/svg11.dtd">
<svg version="1.1" xmlns="http://www.w3.org/2000/svg" xmlns:xlink="http://www.w3.org/1999/xlink" width="512" height="512" viewBox="0 0 512 512">
<path fill="#000000" d="M401.243 231.603c1.964-5.22 3.566-10.648 4.962-16.075 0.258-0.93 0.569-1.809 0.775-2.739 1.241-5.117 2.119-10.286 2.843-15.558 0.155-1.189 0.465-2.429 0.62-3.618 0.724-6.358 1.137-12.767 1.137-19.28 0-91.177-74.017-165.35-164.936-165.35s-164.936 74.172-164.936 165.35c0 6.461 0.414 12.922 1.189 19.228 0.155 1.241 0.414 2.429 0.569 3.618 0.724 5.22 1.602 10.441 2.843 15.558 0.207 0.93 0.517 1.861 0.775 2.739 1.396 5.427 3.050 10.854 4.962 16.075 0.207 0.517 0.414 0.982 0.569 1.499 2.171 5.634 4.6 11.165 7.391 16.54 0.103 0.207 0.207 0.414 0.31 0.62 2.895 5.582 6.099 10.958 9.614 16.178 0.103 0.155 0.207 0.31 0.31 0.465 3.411 5.117 7.185 9.976 11.165 14.679 0.31 0.362 0.62 0.724 0.982 1.137 3.618 4.238 7.546 8.218 11.63 12.095 0.93 0.879 1.757 1.706 2.688 2.533 1.189 1.085 2.274 2.274 3.566 3.36 0.724 0.62 1.654 1.034 2.481 1.551 2.739 2.274 5.324 4.652 8.218 6.719 1.137 0.827 1.861 1.602 2.843 2.429 18.969 15.765 9.717 45.33 30.806 45.33 2.946 0 96.45 0 124.154 0 21.089 0 11.837-29.565 30.858-45.33 0.982-0.827 1.706-1.602 2.843-2.429 2.895-2.119 5.479-4.445 8.218-6.719 0.775-0.569 1.706-0.93 2.481-1.551 1.241-1.034 2.326-2.274 3.566-3.36 0.93-0.827 1.809-1.706 2.688-2.533 4.083-3.877 7.96-7.857 11.63-12.095 0.31-0.362 0.62-0.724 0.982-1.137 3.98-4.704 7.701-9.614 11.165-14.679 0.103-0.155 0.207-0.31 0.31-0.465 3.515-5.22 6.668-10.596 9.562-16.178 0.103-0.207 0.207-0.414 0.31-0.62 2.791-5.376 5.22-10.906 7.391-16.54 0.052-0.517 0.258-0.982 0.465-1.447v0zM338.701 169.474c-7.185 0-13.025-5.841-13.025-13.025 0-39.645-35.768-66.316-65.075-66.316-7.185 0-13.025-5.841-13.025-13.025s5.841-13.025 13.025-13.025c44.762 0 91.126 32.977 91.126 92.315-0.052 7.236-5.841 13.077-13.025 13.077zM245.094 472.211h-57.219l46.933 23.983c3.722 1.912 7.805 2.843 11.837 2.843s8.063-0.93 11.733-2.791l47.605-24.087-60.888 0.052zM325.675 435.977c0-7.185-5.841-13.025-13.025-13.025h-130.15c-7.185 0-13.025 5.841-13.025 13.025s5.841 13.025 13.025 13.025h130.15c7.185 0 13.025-5.841 13.025-13.025zM325.675 389.2c0-7.185-5.841-13.025-13.025-13.025h-130.15c-7.185 0-13.025 5.841-13.025 13.025s5.841 13.025 13.025 13.025h130.15c7.185 0 13.025-5.841 13.025-13.025z"></path>
</svg>
