<?xml version="1.0" encoding="utf-8"?>
<!-- Generated by IcoMoon.io -->
<!DOCTYPE svg PUBLIC "-//W3C//DTD SVG 1.1//EN" "http://www.w3.org/Graphics/SVG/1.1/DTD/svg11.dtd">
<svg version="1.1" xmlns="http://www.w3.org/2000/svg" xmlns:xlink="http://www.w3.org/1999/xlink" width="512" height="512" viewBox="0 0 512 512">
<path fill="#000000" d="M160.28 88.49c0 27.532-22.319 49.855-49.855 49.855s-49.855-22.319-49.855-49.855c0-27.532 22.319-49.855 49.855-49.855s49.855 22.319 49.855 49.855z"></path>
<path fill="#000000" d="M68.55 174.24h83.755v269.214h-83.755v-269.214z"></path>
<path fill="#000000" d="M365.68 166.26c-39.885 0-67.8 21.935-77.775 43.87v-37.89h-83.755v269.214h83.755v-133.61c0-33.9 5.985-67.8 49.855-67.8s43.87 39.885 43.87 71.79v131.615h83.755v-147.57c0-71.79-15.955-129.62-99.71-129.62z"></path>
</svg>
