<?xml version="1.0" encoding="utf-8"?>
<!-- Generated by IcoMoon.io -->
<!DOCTYPE svg PUBLIC "-//W3C//DTD SVG 1.1//EN" "http://www.w3.org/Graphics/SVG/1.1/DTD/svg11.dtd">
<svg version="1.1" xmlns="http://www.w3.org/2000/svg" xmlns:xlink="http://www.w3.org/1999/xlink" width="512" height="512" viewBox="0 0 512 512">
<path fill="#000000" d="M110.018 294.93l-40.876-50.609c-46.716-56.448-38.93-140.143 15.572-186.858 56.448-46.716 140.143-38.93 186.858 15.572l50.609 60.341c7.786 7.786 13.625 17.518 17.519 27.251 0 0 0 0 0 0 0 1.946 1.947 1.946 1.947 3.893 0 0 0 1.946 0 1.946s0 0 0 0c1.947 3.893 1.947 5.839 3.893 9.732 7.786 27.251 7.786 54.502 0 81.753 0 0 0 0 0 1.947 0 0 0 0 0 0 0 1.947-1.947 5.839-1.947 7.786-1.947 3.893-1.947 5.839-3.893 9.733-7.786 15.572-19.465 29.197-33.091 42.823-7.786 5.839-15.572 11.679-25.305 15.572-17.519-15.572-33.090-36.983-27.251-52.555 5.84-1.947 9.732-5.839 15.572-9.733 11.679-9.733 19.465-21.411 23.358-35.037 0 0 0 0 0 0s1.947-3.893 1.947-7.786c0-1.946 0-5.839 0-7.786 0 0 0 0 0 0 0-15.572-5.839-33.090-15.572-46.716l-11.679-13.625-7.786-3.893-5.839-7.786-33.090-38.93c-23.358-29.198-68.127-33.090-97.325-9.733-29.198 25.305-33.091 68.127-7.786 99.271l13.626 17.518c-9.733 19.465-17.519 44.77-19.465 75.913z"></path>
<path fill="#000000" d="M421.447 458.43c-56.449 46.716-140.143 38.93-186.858-15.572l-50.609-60.341c-7.786-9.733-13.625-17.519-17.518-27.251 0 0 0 0 0 0 0-1.947-1.946-1.947-1.946-3.893 0 0 0-1.947 0-1.947s0 0 0 0c-1.946-3.893-1.946-5.839-3.893-9.733-7.786-27.251-7.786-56.449 0-81.753 0 0 0 0 0-1.946 0 0 0 0 0 0 0-1.946 1.946-5.839 1.946-7.786 1.946-3.893 1.946-5.839 3.893-9.732 7.786-15.572 19.465-29.197 33.090-42.823 7.786-5.839 15.572-11.679 25.304-15.572 15.572 15.572 29.197 36.983 27.251 52.555-5.839 1.946-9.732 5.839-13.625 9.732-11.679 9.732-19.465 21.411-23.358 35.037 0 0-1.946 3.893-1.946 7.786 0 1.947 0 5.839 0 7.786 0 0 0 0 0 0 0 15.572 5.839 33.091 15.572 46.716l11.679 13.625 11.679 15.572 33.091 38.93c25.305 29.197 68.127 33.091 99.272 7.786 29.197-25.305 33.091-68.127 7.786-99.272l-15.572-17.519c9.733-21.411 17.519-46.716 17.519-75.913l42.823 50.609c48.663 54.502 40.877 138.196-15.572 184.912z"></path>
</svg>
