<?xml version="1.0" encoding="utf-8"?>
<!-- Generated by IcoMoon.io -->
<!DOCTYPE svg PUBLIC "-//W3C//DTD SVG 1.1//EN" "http://www.w3.org/Graphics/SVG/1.1/DTD/svg11.dtd">
<svg version="1.1" xmlns="http://www.w3.org/2000/svg" xmlns:xlink="http://www.w3.org/1999/xlink" width="512" height="512" viewBox="0 0 512 512">
<path fill="#000000" d="M244.352 503.328c2.688 2.976 5.28 4.896 7.776 6.24 0.032 0.032 0.096 0.032 0.128 0.064 1.728 0.896 3.424 1.568 5.024 1.568s3.296-0.672 5.024-1.568c0.032-0.032 0.096-0.032 0.128-0.064 2.496-1.344 5.088-3.264 7.776-6.24 0 0 148.736-161.76 163.68-301.92 0.896-7.232 1.504-14.56 1.504-22.016 0-99.072-80.32-179.392-179.392-179.392s-179.392 80.32-179.392 179.392c0 7.584 0.608 14.976 1.536 22.304 15.328 140.096 166.208 301.632 166.208 301.632zM256 64c63.616 0 115.392 51.776 115.392 115.392s-51.776 115.392-115.392 115.392-115.392-51.776-115.392-115.392c0-63.616 51.776-115.392 115.392-115.392z"></path>
</svg>
