<?xml version="1.0" encoding="utf-8"?>
<!-- Generated by IcoMoon.io -->
<!DOCTYPE svg PUBLIC "-//W3C//DTD SVG 1.1//EN" "http://www.w3.org/Graphics/SVG/1.1/DTD/svg11.dtd">
<svg version="1.1" xmlns="http://www.w3.org/2000/svg" xmlns:xlink="http://www.w3.org/1999/xlink" width="512" height="512" viewBox="0 0 512 512">
<path fill="#000000" d="M404.661 179.857h-45.324v-74.329c0-58.014-47.137-105.151-105.151-105.151s-105.151 47.137-105.151 105.151v74.329h-41.697c-16.318 0-29.005 12.691-29.005 29.006v239.305c0 16.318 12.691 29.005 29.005 29.005h299.133c16.318 0 29.005-12.691 29.005-29.005v0-237.495c0-16.318-14.505-30.819-30.819-30.819zM207.049 107.338c0-27.195 21.755-48.95 48.951-48.95s48.95 21.755 48.95 48.95v76.142h-97.897v-76.142zM205.239 426.416l27.196-94.271c-12.691-9.064-21.755-23.568-21.755-39.883 0-25.382 21.755-47.137 47.137-47.137 27.195 0 47.137 21.755 47.137 47.137 0 18.128-10.877 32.632-25.382 41.697l25.382 94.271h-99.711z"></path>
</svg>
