<?xml version="1.0" encoding="utf-8"?>
<!-- Generated by IcoMoon.io -->
<!DOCTYPE svg PUBLIC "-//W3C//DTD SVG 1.1//EN" "http://www.w3.org/Graphics/SVG/1.1/DTD/svg11.dtd">
<svg version="1.1" xmlns="http://www.w3.org/2000/svg" xmlns:xlink="http://www.w3.org/1999/xlink" width="512" height="512" viewBox="0 0 512 512">
<path fill="#000000" d="M139.743 335.545c28.558 2.043 55.069 2.043 75.464 4.077-34.67-36.712-87.704-114.219-40.79-222.314-30.593 30.593-61.189 61.189-67.305 67.305-34.67 65.266 14.275 136.656 32.635 150.931z"></path>
<path fill="#000000" d="M78.554 207.048l-46.91 46.91c-16.317 40.79 14.275 77.506 14.275 77.506l61.188 4.077c-50.987-67.305-28.558-128.494-28.558-128.494z"></path>
<path fill="#000000" d="M217.245 376.339c0-2.043 2.042-6.12-4.077-8.155 0 0-14.275 0-40.79-2.043-26.515 0-46.91-2.043-48.953 0 0 2.043 2.043 6.12 4.078 8.155 8.155 12.24 22.438 34.67 40.79 79.545 26.515 69.347 12.24 87.703 53.030 83.623 40.79-6.12-10.197-75.464-4.077-161.129z"></path>
<path fill="#000000" d="M386.536 31.644c-50.988-46.91-93.824-12.24-106.060-2.043-26.515 20.395-34.67 26.515-57.108 48.953-32.635 40.79-79.545 140.733 22.438 261.068 59.15 6.12 116.257 12.24 159.086 12.24 16.317 0 53.030-10.197 61.188-63.228 14.275-85.665-14.275-195.798-79.545-256.991zM411.009 325.348c-36.712 10.197-85.665-44.871-110.137-126.455s-14.275-155.008 22.438-167.249c36.712-10.197 85.665 44.871 110.137 126.455 22.438 81.584 14.275 155.009-22.438 167.249z"></path>
<path fill="#000000" d="M376.968 176.486c10.137 33.412 6.127 64.216-8.966 68.794s-35.545-18.794-45.686-52.211c-10.137-33.412-6.127-64.216 8.966-68.794s35.544 18.794 45.686 52.211z"></path>
</svg>
