<?xml version="1.0" encoding="utf-8"?>
<!-- Generated by IcoMoon.io -->
<!DOCTYPE svg PUBLIC "-//W3C//DTD SVG 1.1//EN" "http://www.w3.org/Graphics/SVG/1.1/DTD/svg11.dtd">
<svg version="1.1" xmlns="http://www.w3.org/2000/svg" xmlns:xlink="http://www.w3.org/1999/xlink" width="512" height="512" viewBox="0 0 512 512">
<path fill="#000000" d="M343.906 384.925c-27.35 17.579-58.604 27.35-89.858 27.35-83.996 0-154.318-70.322-154.318-156.276 0-83.996 72.279-156.275 156.275-156.275 41.019 0 80.092 15.627 111.346 44.929 29.302 31.254 44.929 72.279 44.929 111.346 0 27.35-7.813 52.743-19.536 76.183l64.46 52.743c23.44-37.115 37.115-82.045 37.115-130.877 0-132.829-107.437-242.224-238.315-242.224s-238.315 111.347-238.315 244.176 107.437 242.224 238.315 242.224c58.604 0 113.298-21.488 154.318-58.604l-66.418-54.695z"></path>
<path fill="#000000" d="M160.28 256c0 52.743 44.929 95.719 95.72 95.719 25.392 0 48.833-9.765 68.37-27.35 17.579-19.536 27.35-42.977 27.35-68.37 0-52.743-42.977-95.719-95.719-95.719s-95.719 44.929-95.719 95.719z"></path>
</svg>
