<?xml version="1.0" encoding="utf-8"?>
<!-- Generator: Adobe Illustrator 22.1.0, SVG Export Plug-In . SVG Version: 6.00 Build 0)  -->
<svg version="1.1" id="Layer_1" xmlns="http://www.w3.org/2000/svg" xmlns:xlink="http://www.w3.org/1999/xlink" x="0px" y="0px"
	 viewBox="0 0 32 32" style="enable-background:new 0 0 32 32;" xml:space="preserve">
<g>
	<path d="M29.7,8.3c-0.7-0.7-1.6-1.1-2.6-1.1h-4.7V4.6h0c0-0.4-0.2-0.8-0.5-1.1C21.6,3.2,21.3,3,20.8,3h-9.4c-0.4,0-0.8,0.2-1.1,0.5
		C10,3.8,9.9,4.2,9.9,4.6v2.6H5.2c-1,0-1.9,0.4-2.6,1.1C1.9,9,1.5,9.9,1.5,10.9v13.6c0,1,0.4,1.9,1.1,2.6c0.7,0.7,1.6,1.1,2.6,1.1
		h21.9c1,0,1.9-0.4,2.6-1.1c0.7-0.7,1.1-1.6,1.1-2.6V10.9C30.7,9.9,30.4,9,29.7,8.3z M11.9,5h8.4v2.2h-8.4V5z M22.4,19.2
		c0,0.2,0,0.3-0.1,0.4c-0.1,0.1-0.2,0.1-0.4,0.1h-3.7v3.7c0,0.2,0,0.3-0.1,0.4c-0.1,0.1-0.2,0.1-0.4,0.1h-3.1c-0.2,0-0.3,0-0.4-0.1
		c-0.1-0.1-0.1-0.2-0.1-0.4v-3.7h-3.7c-0.2,0-0.3,0-0.4-0.1c-0.1-0.1-0.1-0.2-0.1-0.4v-3.1c0-0.2,0-0.3,0.1-0.4
		c0.1-0.1,0.2-0.1,0.4-0.1H14v-3.7c0-0.2,0-0.3,0.1-0.4c0.1-0.1,0.2-0.1,0.4-0.1h3.1c0.2,0,0.3,0,0.4,0.1c0.1,0.1,0.1,0.2,0.1,0.4
		v3.7h3.7c0.2,0,0.3,0,0.4,0.1c0.1,0.1,0.1,0.2,0.1,0.4L22.4,19.2L22.4,19.2L22.4,19.2z"/>
</g>
</svg>
