<?xml version="1.0" encoding="utf-8"?>
<!-- Generator: Adobe Illustrator 22.1.0, SVG Export Plug-In . SVG Version: 6.00 Build 0)  -->
<svg version="1.1" id="Layer_1" xmlns="http://www.w3.org/2000/svg" xmlns:xlink="http://www.w3.org/1999/xlink" x="0px" y="0px"
	 viewBox="0 0 32 32" style="enable-background:new 0 0 32 32;" xml:space="preserve">
<path d="M7.7,16.9h8.2l1.2,1.2h-2.3v7.4h5.6c1.7,0,3.2-1.2,3.6-2.8h0.1c0.4,0,0.8,0,1.1-0.1c-0.4,2.3-2.4,4.1-4.8,4.1H7.7
	c-2.7,0-4.9-2.2-4.9-4.9S5,16.9,7.7,16.9z M8.8,25.4h4c0.3,0,0.5-0.2,0.5-0.5s-0.2-0.5-0.5-0.5h-4c-0.3,0-0.5,0.2-0.5,0.5
	S8.5,25.4,8.8,25.4z M6.7,25.4h0.2c0.3,0,0.5-0.2,0.5-0.5s-0.2-0.5-0.5-0.5H6.7c-0.3,0-0.5,0.2-0.5,0.5S6.5,25.4,6.7,25.4z
	 M11.7,4.4C12.6,3.5,13.8,3,15.2,3s2.5,0.5,3.5,1.4l9,9c0.9,0.9,1.4,2.1,1.4,3.5s-0.5,2.5-1.4,3.5c-1,1-2.2,1.4-3.5,1.4
	s-2.5-0.5-3.5-1.4l-9-9c-0.9-0.9-1.4-2.1-1.4-3.5S10.7,5.3,11.7,4.4z M21.6,19.5c1.4,1.4,3.8,1.4,5.2,0c0.7-0.7,1.1-1.6,1.1-2.6
	s-0.4-1.9-1.1-2.6l-4-4l-5.2,5.2L21.6,19.5z M13.4,11.2l2.9,2.9c0.1,0.1,0.2,0.2,0.4,0.2s0.3-0.1,0.4-0.2c0.2-0.2,0.2-0.5,0-0.7
	l-2.9-2.9c-0.2-0.2-0.5-0.2-0.7,0C13.2,10.6,13.2,11,13.4,11.2z M11.9,9.7L12,9.8c0.1,0.1,0.2,0.2,0.4,0.2c0.1,0,0.3-0.1,0.4-0.2
	c0.2-0.2,0.2-0.5,0-0.7L12.7,9c-0.2-0.2-0.5-0.2-0.7,0C11.7,9.2,11.7,9.5,11.9,9.7z"/>
</svg>
