<?xml version="1.0" encoding="utf-8"?>
<!-- Generated by IcoMoon.io -->
<!DOCTYPE svg PUBLIC "-//W3C//DTD SVG 1.1//EN" "http://www.w3.org/Graphics/SVG/1.1/DTD/svg11.dtd">
<svg version="1.1" xmlns="http://www.w3.org/2000/svg" xmlns:xlink="http://www.w3.org/1999/xlink" width="512" height="512" viewBox="0 0 512 512">
<path fill="#000000" d="M224 412.928v67.072h-48c-8.832 0-16 7.168-16 16s7.168 16 16 16h160c8.832 0 16-7.168 16-16s-7.168-16-16-16h-48v-67.264c66.656-13.152 128-67.104 128-156.736v-48c0-8.832-7.168-16-16-16s-16 7.168-16 16v48c0 84.032-64.416 128-128 128-61.664 0-128-40.064-128-128v-48c0-8.832-7.168-16-16-16s-16 7.168-16 16v48c0 90.88 60.256 144.192 128 156.928zM256 320c35.36 0 64-28.64 64-64v-192c0-35.36-28.64-64-64-64s-64 28.64-64 64v192c0 35.36 28.64 64 64 64z"></path>
</svg>
