<?xml version="1.0" encoding="utf-8"?>
<!-- Generated by IcoMoon.io -->
<!DOCTYPE svg PUBLIC "-//W3C//DTD SVG 1.1//EN" "http://www.w3.org/Graphics/SVG/1.1/DTD/svg11.dtd">
<svg version="1.1" xmlns="http://www.w3.org/2000/svg" xmlns:xlink="http://www.w3.org/1999/xlink" width="512" height="512" viewBox="0 0 512 512">
<path fill="#000000" d="M27.616 473.176c22.474 29.176 68.896 31.068 103.69 4.266 14.152-10.906 23.948-24.908 29.386-39.602 3.124-6.19 5.168-14.964 5.168-24.998v-224.538l270.42-51.11v118.564c0 41.824-32 51.44-43.328 53.574-0.992 0.12-1.954 0.36-2.944 0.54-0.51 0.060-1.262 0.15-1.262 0.15l0.18 0.060c-13.4 2.434-26.892 8.052-39 17.366-34.794 26.802-44.8 72.172-22.324 101.348s68.896 31.098 103.69 4.296c17.608-13.582 28.814-31.91 32.72-50.478 1.352-4.507 2.314-9.464 2.314-15.084v-291.632c0-1.832-0.36-3.396-0.51-5.138 0.060-0.902 0.51-1.922 0.51-2.824v-30.046c0-16.586-13.46-25.96-30.046-20.882l-270.42 51.11c-16.586 5.048-30.046 22.626-30.046 39.21v30.046c0 0.42 0.21 0.722 0.24 1.112-0.030 0.902-0.24 1.682-0.24 2.584v159.066c0 41.885-32.090 51.47-43.388 53.574-0.57 0.090-1.142 0.27-1.742 0.36-1.472 0.24-2.434 0.33-2.434 0.33l0.33 0.15c-13.28 2.494-26.652 8.052-38.64 17.276-34.794 26.802-44.77 72.172-22.324 101.348z"></path>
</svg>
