<?xml version="1.0" encoding="utf-8"?>
<!-- Generated by IcoMoon.io -->
<!DOCTYPE svg PUBLIC "-//W3C//DTD SVG 1.1//EN" "http://www.w3.org/Graphics/SVG/1.1/DTD/svg11.dtd">
<svg version="1.1" xmlns="http://www.w3.org/2000/svg" xmlns:xlink="http://www.w3.org/1999/xlink" width="512" height="512" viewBox="0 0 512 512">
<path fill="#000000" d="M258.451 511.41c-4.913 0-9.827 0-14.74 0 0 0 0-2.451-2.451-2.451-44.21-58.939-78.582-117.878-122.791-176.817-12.278-17.192-41.748-39.296-24.556-49.112 19.642-9.827 58.939-2.451 71.217 14.74 0 0 36.834 39.296 46.661 51.575 0-73.68 0-112.964 0-186.644 0-17.191 4.913-31.921 22.105-31.921s31.92 14.74 31.92 31.921c0 56.488 4.913 63.852 4.913 117.878l115.427 12.278c17.192 0 49.112 19.642 49.112 36.834l-14.74 122.791c-22.105 73.679-100.687 58.939-162.088 58.939z"></path>
<path fill="#000000" d="M231.444 27.608c-61.39 0-110.513 49.112-110.513 110.513 0 49.112 31.921 88.409 73.68 105.6 0 12.278 0 22.105 0 34.383-61.39-17.192-105.6-71.217-105.6-137.52 0-78.582 63.852-142.434 142.434-142.434s142.434 63.852 142.434 142.434c0 58.939-34.383 108.051-85.957 130.156 0-12.278 0-22.105-2.451-34.383 31.921-19.643 54.026-54.025 54.026-95.773 2.451-63.852-46.661-112.965-108.051-112.965z"></path>
</svg>
