<?xml version="1.0" encoding="utf-8"?>
<!-- Generated by IcoMoon.io -->
<!DOCTYPE svg PUBLIC "-//W3C//DTD SVG 1.1//EN" "http://www.w3.org/Graphics/SVG/1.1/DTD/svg11.dtd">
<svg version="1.1" xmlns="http://www.w3.org/2000/svg" xmlns:xlink="http://www.w3.org/1999/xlink" width="512" height="512" viewBox="0 0 512 512">
<path fill="#000000" d="M214.964 382.392c0 18.056-14.773 31.188-32.829 31.188h-16.415c-18.056 0-32.829-14.773-32.829-31.188v-254.426c0-18.056 14.773-31.188 32.829-31.188h16.415c18.056 0 32.829 14.773 32.829 31.188v254.426z"></path>
<path fill="#000000" d="M382.392 382.392c0 18.056-14.773 31.188-32.829 31.188h-16.414c-18.056 0-32.829-14.773-32.829-31.188v-254.426c0-18.056 14.773-31.188 32.829-31.188h16.414c18.056 0 32.829 14.773 32.829 31.188v254.426z"></path>
</svg>
