<?xml version="1.0" encoding="utf-8"?>
<!-- Generated by IcoMoon.io -->
<!DOCTYPE svg PUBLIC "-//W3C//DTD SVG 1.1//EN" "http://www.w3.org/Graphics/SVG/1.1/DTD/svg11.dtd">
<svg version="1.1" xmlns="http://www.w3.org/2000/svg" xmlns:xlink="http://www.w3.org/1999/xlink" width="512" height="512" viewBox="0 0 512 512">
<path fill="#000000" d="M65.588 118.572c-26.492 38.082-43.050 86.1-43.050 137.428s16.558 99.346 43.050 137.428v-274.856z"></path>
<path fill="#000000" d="M264.279 275.869c0 0-1.656-1.656-1.656-3.312-11.59-16.558-16.558-29.804-18.213-29.804 0-1.656-1.656-3.312-1.656-3.312s0 0 0 1.656-1.656 4.967-3.312 9.935c-8.279 21.525-16.558 39.738-16.558 39.738s-4.967 8.279-6.623 13.246c-4.967 11.59-11.59 21.525-16.558 29.804 28.148-11.59 61.263-21.525 94.378-26.492-4.967-3.312-8.279-6.623-13.246-9.935-4.967-6.623-11.59-13.246-16.558-21.525z"></path>
<path fill="#000000" d="M345.411 75.522l101.001 101.001v218.56c28.148-39.738 43.050-86.1 43.050-137.428 0-130.805-104.313-238.429-233.462-238.429-57.952 0-110.936 21.525-150.674 56.296 0 0 240.085 0 240.085 0z"></path>
<path fill="#000000" d="M419.92 199.704h-97.69v-97.69h-230.151v324.529c41.394 43.050 99.346 67.886 163.92 67.886s120.87-26.492 163.92-67.886v-226.839zM403.363 325.542v1.656c-1.656 4.967-4.967 9.935-19.869 9.935-18.213 0-46.361-8.279-71.198-21.525-41.394 4.967-86.1 13.246-117.559 24.836-29.804 51.329-52.984 76.165-69.542 76.165-3.312 0-4.967 0-6.623-1.656l-8.279-3.312c-1.656-3.312-3.312-6.623-1.656-9.935 3.312-13.246 18.213-34.771 54.64-52.984l3.312 4.967c-26.492 18.213-44.706 43.050-46.361 52.984 18.213-4.967 46.361-43.050 81.132-114.247 0 0 0-1.656 1.656-3.312 0-1.656 1.656-1.656 1.656-3.312l1.656-3.312c1.656-1.656 1.656-4.967 4.967-9.935 3.312-6.623 6.623-14.902 11.59-28.148v0l1.656-3.312c3.312-8.279 6.623-16.558 8.279-24.836-9.935-31.459-11.59-64.575-6.623-84.444 1.656-8.279 6.623-9.935 9.935-9.935h4.967c1.656 0 6.623 0 9.935 3.312s3.312 9.935 1.656 18.213h-4.967c-1.656-8.279-3.312-11.59-6.623-14.902 0 1.656-1.656 3.312-3.312 4.967-3.312 9.935-1.656 29.804 1.656 51.329 1.656-8.279 3.312-16.558 3.312-23.181 1.656-6.623 1.656-11.59 3.312-14.902h4.967v8.279c0 18.213 0 36.427-4.967 57.952 1.656 6.623 4.967 11.59 6.623 18.213v0l1.656 3.312c3.312 8.279 13.246 24.836 13.246 24.836 4.967 8.279 13.246 16.558 21.525 24.836 8.279 6.623 16.558 11.59 24.836 16.558 13.246-1.656 24.836-1.656 34.771-1.656 18.213 0 43.050 1.656 49.673 13.246 4.967 3.312 6.623 6.623 4.967 13.246v0 0z"></path>
<path fill="#000000" d="M396.74 320.575c-1.656-1.656-9.935-8.279-43.050-8.279-3.312 0-6.623 0-11.59 0 18.213 8.279 36.427 11.59 48.017 11.59 3.312 0 6.623 0 8.279-1.656v0h-1.656c0 0 0 0 0-1.656z"></path>
</svg>
