<?xml version="1.0" encoding="utf-8"?>
<!-- Generated by IcoMoon.io -->
<!DOCTYPE svg PUBLIC "-//W3C//DTD SVG 1.1//EN" "http://www.w3.org/Graphics/SVG/1.1/DTD/svg11.dtd">
<svg version="1.1" xmlns="http://www.w3.org/2000/svg" xmlns:xlink="http://www.w3.org/1999/xlink" width="512" height="512" viewBox="0 0 512 512">
<path fill="#000000" d="M354.574 372.31c0 0-38.514-61.848-65.892-51.966-29.684 10.656-47.622 28.97-66.568 16.134-10.672-7.244-25.874-23.574-40.972-47.66l-0.022 0.038c-12.858-21.59-23.372-44.586-25.356-57.106-3.668-22.62 20.554-31.052 42.798-53.432 20.554-20.636-19.126-81.748-19.126-81.748s-22.538-43.97-48.81-36.764c-26.332 7.2-57.106 15.638-57.106 15.638s-64.682 19.328-10.018 136.494c26.506 56.746 40.694 85.302 58.158 111.846l0.098-0.038c13.888 23.154 39.364 56.948 79.246 104.646 82.936 99.19 127.8 48.772 127.8 48.772s20.674-24.304 38.372-45.060c17.682-20.712-12.602-59.782-12.602-59.782z"></path>
<path fill="#000000" d="M329.79 279.154c11.528-56.114-24.13-110.974-79.704-122.404l8.672-42.144c78.614 16.15 129.070 93.696 112.74 173.122l-41.708-8.574z"></path>
<path fill="#000000" d="M267.114 266.574c4.742-23.176-8.906-40.122-28.768-44.21l6.688-33.178c37.996 7.838 62.42 45.3 54.506 83.71l-32.42-6.328z"></path>
<path fill="#000000" d="M409.598 295.544c20.614-100.258-43.038-198.080-142.244-218.52l9.326-45.36c124.012 25.498 203.618 147.76 177.842 273.14l-44.924-9.266z"></path>
</svg>
