<?xml version="1.0" encoding="utf-8"?>
<!-- Generated by IcoMoon.io -->
<!DOCTYPE svg PUBLIC "-//W3C//DTD SVG 1.1//EN" "http://www.w3.org/Graphics/SVG/1.1/DTD/svg11.dtd">
<svg version="1.1" xmlns="http://www.w3.org/2000/svg" xmlns:xlink="http://www.w3.org/1999/xlink" width="512" height="512" viewBox="0 0 512 512">
<path fill="#000000" d="M256 508.003c81.26 0 153.318-38.637 199.387-98.291l-199.387-153.712v-252.003c-139.192 0-252.003 112.811-252.003 252.003s112.811 252.003 252.003 252.003zM224.5 37.714v218.286c0 9.745 4.528 18.998 12.256 24.954l172.661 133.137c-40.903 39.966-95.337 62.411-153.417 62.411-121.572 0-220.501-98.93-220.501-220.502 0-110.892 82.294-202.93 189.001-218.286zM299.313 8.232v225.374l179.946 138.7c18.26-34.798 28.745-74.271 28.745-116.305 0-124.377-90.219-227.196-208.689-247.768v0z"></path>
</svg>
