<?xml version="1.0" encoding="utf-8"?>
<!-- Generated by IcoMoon.io -->
<!DOCTYPE svg PUBLIC "-//W3C//DTD SVG 1.1//EN" "http://www.w3.org/Graphics/SVG/1.1/DTD/svg11.dtd">
<svg version="1.1" xmlns="http://www.w3.org/2000/svg" xmlns:xlink="http://www.w3.org/1999/xlink" width="512" height="512" viewBox="0 0 512 512">
<path fill="#000000" d="M289.162 367.187c-31.21 0-58.522-15.605-68.276-35.114 0 0-15.605 64.372-19.509 76.079-11.707 44.863-48.767 89.731-50.719 91.683s-5.851 1.952-5.851-1.952c0-5.851-9.755-60.468 0-107.288 5.851-21.456 37.060-154.103 37.060-154.103s-7.803-17.557-7.803-44.863c0-42.916 23.407-72.174 54.618-72.174 25.359 0 39.012 17.557 39.012 42.917s-15.605 64.372-23.407 99.486c-5.851 31.21 13.653 54.618 44.863 54.618 52.666 0 89.731-68.276 89.731-150.2 0-60.468-40.964-107.288-117.038-107.288-89.731 0-142.397 64.372-142.397 134.595 0 23.407 7.802 42.917 17.557 54.618 5.851 5.851 5.851 7.802 3.904 15.605-1.952 5.851-3.904 17.557-5.851 21.455-1.952 9.755-7.802 11.707-13.653 9.755-39.013-15.605-56.569-58.522-56.569-107.288-1.952-78.025 66.324-175.559 198.966-175.559 107.288 0 177.511 76.079 177.511 159.954-1.952 111.187-62.42 195.068-152.151 195.068z"></path>
</svg>
