<?xml version="1.0" encoding="utf-8"?>
<!-- Generated by IcoMoon.io -->
<!DOCTYPE svg PUBLIC "-//W3C//DTD SVG 1.1//EN" "http://www.w3.org/Graphics/SVG/1.1/DTD/svg11.dtd">
<svg version="1.1" xmlns="http://www.w3.org/2000/svg" xmlns:xlink="http://www.w3.org/1999/xlink" width="512" height="512" viewBox="0 0 512 512">
<path fill="#000000" d="M271.733 35.734c-130.334 0-235.999 105.665-235.999 235.999s105.665 235.999 235.999 235.999 235.999-105.664 235.999-235.999-105.664-235.999-235.999-235.999zM397.599 287.466h-110.133v110.133c0 8.685-7.048 15.733-15.733 15.733s-15.733-7.048-15.733-15.733v-110.133h-110.133c-8.685 0-15.733-7.048-15.733-15.733s7.048-15.733 15.733-15.733h110.133v-110.133c0-8.685 7.048-15.733 15.733-15.733s15.733 7.048 15.733 15.733v110.133h110.133c8.685 0 15.733 7.048 15.733 15.733s-7.048 15.733-15.733 15.733z"></path>
</svg>
