<?xml version="1.0" encoding="utf-8"?>
<!-- Generated by IcoMoon.io -->
<!DOCTYPE svg PUBLIC "-//W3C//DTD SVG 1.1//EN" "http://www.w3.org/Graphics/SVG/1.1/DTD/svg11.dtd">
<svg version="1.1" xmlns="http://www.w3.org/2000/svg" xmlns:xlink="http://www.w3.org/1999/xlink" width="512" height="512" viewBox="0 0 512 512">
<path fill="#000000" d="M63.999 117.142c-27.428 39.429-42.858 87.429-42.858 138.858s17.143 99.429 44.572 138.858v-277.716z"></path>
<path fill="#000000" d="M345.143 72.571l101.143 101.143v221.144c27.428-39.429 44.572-87.429 44.572-138.858 0-132.001-106.287-240.002-234.859-240.002-58.286 0-111.429 22.286-152.573 58.286 0-1.714 241.716-1.714 241.716-1.714z"></path>
<path fill="#000000" d="M194.285 196h-8.572v63.429h8.572c24 0 60 3.428 60-30.858 0-36-36-32.572-60-32.572z"></path>
<path fill="#000000" d="M420.573 197.714h-97.715v-97.715h-231.43v327.43c42.858 42.858 101.143 68.572 164.573 68.572 65.143 0 123.429-25.714 164.573-68.572v-229.716zM238.857 403.429h-25.714v-25.714h25.714v25.714zM238.857 353.715h-25.714v-25.714h25.714v25.714zM214.857 297.143h-30.858v108.001h-44.572v-246.859h87.429c53.143 0 73.715 37.714 73.715 70.286 0 34.286-20.572 68.572-85.715 68.572zM370.858 403.429h-106.287v-25.714h106.287c0 0 0 25.714 0 25.714zM264.572 353.715v-25.714h106.287v25.714h-106.287z"></path>
</svg>
