<?xml version="1.0" encoding="utf-8"?>
<!-- Generator: Adobe Illustrator 22.1.0, SVG Export Plug-In . SVG Version: 6.00 Build 0)  -->
<svg version="1.1" id="Layer_1" xmlns="http://www.w3.org/2000/svg" xmlns:xlink="http://www.w3.org/1999/xlink" x="0px" y="0px"
	 viewBox="0 0 32 32" style="enable-background:new 0 0 32 32;" xml:space="preserve">
<g>
	<path d="M4.4,1.9h10.8v4.7c-1.8-0.2-3.3,1.1-3.3,2.7c-0.1,1.8,1.5,3.2,3.3,2.9v3h-4.1c-0.6,0-1,0.7-0.7,1.2l0.2,0.3
		c0.2,0.4,0.2,0.8-0.1,1.2c-0.2,0.4-0.6,0.6-1.1,0.6s-0.8-0.4-0.9-0.6c-0.2-0.4-0.3-0.9-0.1-1.3c0.1-0.3,0.1-0.3,0.1-0.3
		c0.3-0.6-0.2-1.2-0.7-1.2H1.9V4.3C2,3,3.1,1.9,4.4,1.9z"/>
	<path d="M22.6,11.9c-1.7,0.1-2.9,1.7-2.7,3.3h-3V11c0-0.6-0.7-1-1.2-0.7l-0.3,0.2c-0.4,0.2-0.8,0.2-1.2-0.1
		c-0.4-0.2-0.6-0.6-0.6-1.1s0.4-0.8,0.6-0.9c0.4-0.2,0.9-0.3,1.3-0.1l0.2,0.1c0.5,0.3,1.2-0.2,1.2-0.7V1.9h10.9
		c1.3,0,2.4,1.1,2.4,2.4v10.8h-4.7C25.9,13.4,24.5,11.8,22.6,11.9z"/>
	<path d="M9.4,20.1c1.7,0.1,3.2-1.5,2.9-3.3h3V21c0,0.6,0.6,1,1.2,0.7l0.3-0.2c0.4-0.2,0.8-0.2,1.2,0.1c0.4,0.2,0.6,0.6,0.6,1.1
		s-0.4,0.8-0.6,0.9c-0.4,0.2-0.9,0.3-1.3,0.1l-0.2-0.1c-0.6-0.3-1.2,0.1-1.2,0.7v5.9H4.5c-1.4,0-2.5-1.1-2.5-2.5V16.8h4.7
		C6.5,18.6,7.8,20.1,9.4,20.1z"/>
	<path d="M20.2,22.7c0.1-1.9-1.6-3.2-3.3-2.9v-3h4.2c0.6,0,1-0.6,0.7-1.2l-0.1-0.2c-0.2-0.4-0.2-0.9,0.1-1.3
		c0.1-0.2,0.4-0.6,0.9-0.6c0.4,0,0.8,0.2,1.1,0.6c0.2,0.4,0.3,0.8,0.1,1.2l-0.2,0.3c-0.3,0.6,0.1,1.2,0.7,1.2h5.8v10.8
		c0,1.4-1.1,2.5-2.5,2.5H16.9v-4.7C18.6,25.6,20.2,24.4,20.2,22.7z"/>
</g>
</svg>
