<?xml version="1.0" encoding="utf-8"?>
<!-- Generated by IcoMoon.io -->
<!DOCTYPE svg PUBLIC "-//W3C//DTD SVG 1.1//EN" "http://www.w3.org/Graphics/SVG/1.1/DTD/svg11.dtd">
<svg version="1.1" xmlns="http://www.w3.org/2000/svg" xmlns:xlink="http://www.w3.org/1999/xlink" width="512" height="512" viewBox="0 0 512 512">
<path fill="#000000" d="M256.2 5c-138.5 0-250.8 112.3-250.8 250.8s112.3 250.8 250.8 250.8 250.8-112.3 250.8-250.8-112.3-250.8-250.8-250.8zM256.2 477.7c-122.55 0-221.9-99.35-221.9-221.9s99.35-221.95 221.9-221.95 221.9 99.35 221.9 221.9-99.3 221.95-221.9 221.95z"></path>
<path fill="#000000" d="M255.5 69c61.7 0 124 35.35 124 114.35 0 45.95-22.8 81.85-67.7 106.6-13 7.15-25.3 21.35-25.3 27.1 0 17.1-13.9 31-31 31s-31-13.9-31-31c0-39.35 36.1-69.7 57.4-81.4 31.35-17.3 35.6-36.15 35.6-52.25 0-45.55-38.85-52.35-62-52.35-29.85 0-62 19.6-62 62.65 0 17.1-13.9 31-31 31s-31-13.9-31-31c0-81 63.9-124.7 124-124.7v0z"></path>
<path fill="#000000" d="M255.5 442.35c-17.65 0-31.95-14.3-31.95-31.95s14.3-31.9 31.95-31.9 31.95 14.3 31.95 31.95-14.3 31.9-31.95 31.9z"></path>
</svg>
