<?xml version="1.0" encoding="utf-8"?>
<!-- Generated by IcoMoon.io -->
<!DOCTYPE svg PUBLIC "-//W3C//DTD SVG 1.1//EN" "http://www.w3.org/Graphics/SVG/1.1/DTD/svg11.dtd">
<svg version="1.1" xmlns="http://www.w3.org/2000/svg" xmlns:xlink="http://www.w3.org/1999/xlink" width="512" height="512" viewBox="0 0 512 512">
<path fill="#000000" d="M256 503.998c136.957 0 247.998-111.041 247.998-247.998s-111.041-247.998-247.998-247.998-247.998 111.041-247.998 247.998 111.041 247.998 247.998 247.998zM256 70.001c61.721 0 123.999 35.34 123.999 114.327 0 45.973-22.785 81.87-67.704 106.577-13.020 7.161-25.296 21.328-25.296 27.094 0 17.112-13.888 31-31 31s-31-13.888-31-31c0-39.339 36.084-69.688 57.412-81.405 31.341-17.298 35.588-36.146 35.588-52.266 0-45.539-38.843-52.328-62-52.328-29.853 0-62 19.592-62 62.651 0 17.112-13.888 31-31 31s-31-13.888-31-31c0-80.971 63.891-124.65 123.999-124.65zM256 443.363c-17.639 0-31.93-14.291-31.93-31.93s14.291-31.93 31.93-31.93 31.93 14.291 31.93 31.93-14.291 31.93-31.93 31.93z"></path>
</svg>
