<?xml version="1.0" encoding="utf-8"?>
<!-- Generated by IcoMoon.io -->
<!DOCTYPE svg PUBLIC "-//W3C//DTD SVG 1.1//EN" "http://www.w3.org/Graphics/SVG/1.1/DTD/svg11.dtd">
<svg version="1.1" xmlns="http://www.w3.org/2000/svg" xmlns:xlink="http://www.w3.org/1999/xlink" width="512" height="512" viewBox="0 0 512 512">
<path fill="#000000" d="M217.091 478.034c-77.827-25.178-116.736-36.625-194.563-59.51-9.154-2.293-18.308-11.447-16.024-20.601 0 9.154-2.293 18.308-2.293 27.471s6.87 18.308 16.024 20.601c77.827 25.178 116.736 36.625 194.563 59.51 9.154 2.293 18.308-2.293 18.308-9.154 0-9.154 2.293-18.308 2.293-27.471 0 6.87-6.87 11.447-18.308 9.154z"></path>
<path fill="#000000" d="M219.375 109.5c-57.226-18.308-84.697-27.471-141.914-45.779-13.731-6.87-22.894-9.154-38.909-13.731-32.048-13.731-32.048 6.87-32.048 25.178 0 20.601 0 29.755 0 50.356 0 96.135 0 144.207 0 240.342 0 11.447 9.154 25.178 18.308 27.471 77.827 25.178 116.736 38.909 194.563 64.096 9.154 2.293 18.308-4.577 18.308-16.024 0-121.313 0-183.116 0-304.438 0-13.731-6.87-25.178-18.308-27.471zM203.351 391.053c-59.51-20.601-86.981-29.755-153.361-50.356-13.731-2.293-13.731-16.024-13.731-22.894s4.577-9.154 9.154-6.87c61.803 20.601 93.851 32.048 157.938 52.649 4.577 2.293 9.154 6.87 9.154 13.731-2.293 4.577 0 16.024-9.154 13.731zM203.351 329.25c-59.51-20.601-86.981-29.755-153.361-50.356-13.731-2.293-13.731-16.024-13.731-22.894s4.577-9.154 9.154-6.87c61.803 20.601 93.851 32.048 157.938 52.649 4.577 2.293 9.154 6.87 9.154 13.731-2.293 2.293 0 16.024-9.154 13.731zM203.351 262.87c-59.51-20.601-86.981-29.755-153.361-50.356-13.731-2.293-13.731-16.024-13.731-22.894s4.577-9.154 9.154-6.87c61.803 20.601 93.851 32.048 157.938 52.649 4.577 2.293 9.154 6.87 9.154 13.731-2.293 2.293 0 16.024-9.154 13.731zM203.351 196.49c-59.51-20.601-86.981-29.755-153.361-50.356-13.731-2.293-13.731-16.024-13.731-22.894s4.577-9.154 9.154-6.87c61.803 20.601 93.851 32.048 157.938 52.649 4.577 2.293 9.154 6.87 9.154 13.731-2.293 4.577 0 16.024-9.154 13.731z"></path>
<path fill="#000000" d="M484.904 425.385c-77.827 22.894-119.029 34.332-196.856 59.51-9.154 2.293-18.308-2.293-18.308-11.447 0 9.154 0 18.308 2.293 27.471 0 9.154 9.154 13.731 18.308 11.447 77.827-22.894 119.029-34.332 196.856-59.51 9.154-2.293 18.308-11.447 16.024-20.601 0-9.154-2.293-18.308-2.293-27.471 2.293 6.87-6.87 16.024-16.024 20.601z"></path>
<path fill="#000000" d="M429.962 127.817c0-27.471 0-38.909 0-66.38-57.226 18.308-86.981 27.471-144.207 48.072-9.154 2.293-18.308 16.024-18.308 27.471 0 123.606 0 185.409 0 309.015 0 11.447 9.154 18.308 18.308 16.024 80.111-25.178 119.029-38.909 196.856-64.096 9.154-2.293 18.308-16.024 18.308-27.471 0-96.135 0-146.5 0-242.635-20.601 6.87-32.048 11.447-54.933 18.308-6.87 0-16.024-6.87-16.024-18.308zM304.072 169.019c64.096-22.894 13.731-4.577 75.534-25.178 4.577-2.293 9.154 2.293 9.154 6.87 0 6.87 0 20.601-13.731 22.894-66.38 20.601-11.447 4.577-73.25 25.178-6.87 2.293-6.87-9.154-6.87-16.024 2.293-6.87 4.577-13.731 9.154-13.731zM457.433 340.697c-66.38 20.601-93.851 29.755-153.361 50.356-6.87 2.293-6.87-9.154-6.87-16.024s4.577-11.447 9.154-13.731c61.803-20.601 93.851-32.048 157.938-52.649 4.577-2.293 9.154 2.293 9.154 6.87-2.293 9.154-2.293 20.601-16.024 25.178zM457.433 278.894c-66.38 20.601-93.851 29.755-153.361 50.356-6.87 2.293-6.87-9.154-6.87-16.024s4.577-11.447 9.154-13.731c61.803-20.601 93.851-32.048 157.938-52.649 4.577-2.293 9.154 2.293 9.154 6.87-2.293 6.87-2.293 20.601-16.024 25.178zM471.164 189.62c0 6.87 0 20.601-13.731 22.894-66.38 20.601-93.851 29.755-153.361 50.356-6.87 2.293-6.87-9.154-6.87-16.024s4.577-11.447 9.154-13.731c61.803-20.601 93.851-32.048 157.938-52.649 2.293 0 6.87 2.293 6.87 9.154z"></path>
<path fill="#000000" d="M507.789 93.485c-20.601-18.308-32.048-29.755-54.933-48.072 0 27.471 0 38.909 0 66.38 22.894-6.87 34.332-11.447 54.933-18.308z"></path>
</svg>
