<?xml version="1.0" encoding="utf-8"?>
<!-- Generator: Adobe Illustrator 22.1.0, SVG Export Plug-In . SVG Version: 6.00 Build 0)  -->
<svg version="1.1" id="Layer_1" xmlns="http://www.w3.org/2000/svg" xmlns:xlink="http://www.w3.org/1999/xlink" x="0px" y="0px"
	 viewBox="0 0 32 32" style="enable-background:new 0 0 32 32;" xml:space="preserve">
<g>
	<path d="M1.4,11l1.8,1.4l-1.7,3.3c-0.9,1.5,0.6,3,1.6,3.6c0.9,0.5,2.4,0.6,3.7,0.6l2.4-4l1.8,1l-3.2-5.9L1.4,11z M1.7,19.1l4,7.3
		c0.8,1,2.3,1.3,3.9,1.2h4.2v-6.9l-7.9-0.1C4.5,20.8,2.9,20.5,1.7,19.1z M26.6,5.6l-2.2,0.9l-2.1-3.1c-0.9-1.5-3-0.9-3.9-0.3
		c-0.9,0.6-1.7,1.8-2.3,3l2.3,4.1l-1.8,1.1l6.8,0.1L26.6,5.6z M19.4,1.9L11,1.8C9.8,2,8.8,3.2,8.1,4.6l-2,3.7l6.1,3.4L16,4.7
		C16.6,3.6,17.6,2.3,19.4,1.9z M19.7,30.2l0.2-2.3l3.7-0.3c1.8-0.1,2.2-2.1,2.2-3.2c-0.1-1.1-0.8-2.3-1.5-3.5l-4.7,0l-0.1-2.1
		l-3.3,5.9L19.7,30.2z M26.5,25.6l4.1-7.2c0.4-1.2-0.2-2.6-1-3.9l-2.2-3.5l-5.9,3.7l4.2,6.8C26.4,22.4,27,23.9,26.5,25.6z"/>
</g>
</svg>
