<?xml version="1.0" encoding="utf-8"?>
<!-- Generator: Adobe Illustrator 22.1.0, SVG Export Plug-In . SVG Version: 6.00 Build 0)  -->
<svg version="1.1" id="Layer_1" xmlns="http://www.w3.org/2000/svg" xmlns:xlink="http://www.w3.org/1999/xlink" x="0px" y="0px"
	 viewBox="0 0 32 32" style="enable-background:new 0 0 32 32;" xml:space="preserve">
<g>
	<path d="M29.6,0.8H6.8C5.8,0.8,5,1.6,5,2.7v4.2h1.7V2.4h23.2v14.2H19.8v6.5H23c0.1,0,0.2-0.1,0.2-0.2v-0.8c0-0.1-0.1-0.2-0.2-0.2
		h-1.4V20h7.9c1,0,1.9-0.8,1.9-1.9V2.6C31.5,1.6,30.6,0.8,29.6,0.8z"/>
	<path d="M19.1,8.8c0-0.8-0.6-1.4-1.4-1.4h-0.9l0,0V7.3h-1.3c0,0,0,0,0,0.1l0,0H5C4.2,7.4,3.6,8,3.6,8.8v2.8H3.5v0.9c0,0,0,0,0.1,0
		v1.8H3.5v0.9c0,0,0,0,0.1,0v0.3h1.3V9.7h12.9V25h-8v2h8c0.8,0,1.4-0.6,1.4-1.4V13.4h0.1v-1.8c0,0,0,0-0.1,0L19.1,8.8L19.1,8.8z"/>
	<path d="M9.3,17.1C9.3,16.5,8.7,16,8,16H7.7l0,0l0,0H6.5l0,0l0,0H1.8c-0.7,0-1.3,0.5-1.3,1.1v2.3l0,0v0.5l0,0v0.8l0,0v0.5l0,0v3
		v6.3c0,0.6,0.6,1.1,1.3,1.1h2.9h0.2H8c0.7,0,1.3-0.5,1.3-1.1v-6.3l0,0V20l0,0v-0.5l0,0V17.1z M8.8,29.4H4.9H4.7H1.1v-5.1v-6.1h7.7
		v6.1V29.4z"/>
</g>
</svg>
