<?xml version="1.0" encoding="utf-8"?>
<!-- Generated by IcoMoon.io -->
<!DOCTYPE svg PUBLIC "-//W3C//DTD SVG 1.1//EN" "http://www.w3.org/Graphics/SVG/1.1/DTD/svg11.dtd">
<svg version="1.1" xmlns="http://www.w3.org/2000/svg" xmlns:xlink="http://www.w3.org/1999/xlink" width="512" height="512" viewBox="0 0 512 512">
<path fill="#000000" d="M155.167 242.555h30.25l6.722-25.209h-25.209z"></path>
<path fill="#000000" d="M203.903 180.375h-20.166l-10.083 21.847h23.528z"></path>
<path fill="#000000" d="M408.93 397.166l-26.889-55.458h-42.014l11.764 40.334h-60.5l-23.528-272.25h21.847l183.18 262.166c18.486-35.292 28.57-73.945 28.57-115.957 0-137.806-110.916-250.403-245.36-250.403s-245.36 112.597-245.36 250.403c0 38.653 8.404 73.945 23.528 107.555l178.138-253.763h21.847l-28.57 292.416h-68.903l18.487-62.18h-38.653l-18.487 42.014h-53.777c42.014 73.945 121.001 124.361 211.749 124.361 84.027 0 157.972-43.694 201.666-109.237h-48.736z"></path>
<path fill="#000000" d="M340.027 245.917l-10.083-25.209h-25.209l6.723 25.209z"></path>
<path fill="#000000" d="M366.916 306.416l-16.805-38.652h-31.93l11.764 38.653z"></path>
<path fill="#000000" d="M129.958 303.056h36.971l11.764-38.652h-31.93z"></path>
<path fill="#000000" d="M292.971 182.055l6.723 21.847h23.528l-10.083-21.847z"></path>
</svg>
