<?xml version="1.0" encoding="utf-8"?>
<!-- Generated by IcoMoon.io -->
<!DOCTYPE svg PUBLIC "-//W3C//DTD SVG 1.1//EN" "http://www.w3.org/Graphics/SVG/1.1/DTD/svg11.dtd">
<svg version="1.1" xmlns="http://www.w3.org/2000/svg" xmlns:xlink="http://www.w3.org/1999/xlink" width="512" height="512" viewBox="0 0 512 512">
<path fill="#000000" d="M480.531 391.055l-15.089-12.524 0.080-0.080-47.896-38.692-67.608-55.961c13.868-24.803 21.014-52.294 21.014-80.153 0-41.663-15.985-83.308-48.18-115.444-31.421-31.442-73.044-46.776-115.401-46.776-87.686 0-162.197 74.532-162.197 162.216 0 88.42 73.085 162.909 161.443 162.909 32.846 0 65.672-9.855 93.755-29.019l69.541 57.609 47.651 38.488-0.042 0.042 16.372 13.562c8.022 6.68 19.918 5.539 26.494-2.466l22.584-27.226c6.64-7.984 5.459-19.853-2.525-26.494zM278.991 274.51c-19.671 19.713-45.269 29.202-71.537 29.202-53.374 0-99.375-45.289-99.375-100.068 0-53.355 45.29-99.375 99.375-99.375 55.512 0 100.739 45.31 100.739 99.375 0 25.554-10.182 51.133-29.202 70.865z"></path>
</svg>
