<?xml version="1.0" encoding="utf-8"?>
<!-- Generated by IcoMoon.io -->
<!DOCTYPE svg PUBLIC "-//W3C//DTD SVG 1.1//EN" "http://www.w3.org/Graphics/SVG/1.1/DTD/svg11.dtd">
<svg version="1.1" xmlns="http://www.w3.org/2000/svg" xmlns:xlink="http://www.w3.org/1999/xlink" width="512" height="512" viewBox="0 0 512 512">
<path fill="#000000" d="M298.091 30.832c-101.081 0-183.025 81.944-183.025 183.025 0 43.517 15.269 83.42 40.615 114.874l-120.981 120.981c-7.584 7.584-7.584 19.952 0 27.586 7.584 7.584 19.951 7.584 27.586 0l120.981-120.981c31.404 25.346 71.358 40.615 114.874 40.615 101.081 0 183.025-81.944 183.025-183.025s-81.944-183.076-183.076-183.076v0zM298.091 360.084c-80.62 0-146.226-65.555-146.226-146.226s65.606-146.175 146.226-146.175 146.226 65.555 146.226 146.226-65.555 146.175-146.226 146.175z"></path>
</svg>
