<?xml version="1.0" encoding="utf-8"?>
<!-- Generator: Adobe Illustrator 22.1.0, SVG Export Plug-In . SVG Version: 6.00 Build 0)  -->
<svg version="1.1" id="Layer_1" xmlns="http://www.w3.org/2000/svg" xmlns:xlink="http://www.w3.org/1999/xlink" x="0px" y="0px"
	 viewBox="0 0 32 32" style="enable-background:new 0 0 32 32;" xml:space="preserve">
<g>
	<path d="M22.8,11.1h-2V7.9c0-2.5-2-4.5-4.5-4.5s-4.5,2-4.5,4.5v3.2H9.9c-0.7,0-1.3,0.5-1.3,1.3v10.3c0,0.7,0.5,1.3,1.3,1.3h12.9
		c0.7,0,1.3-0.5,1.3-1.3V12.5C24.1,11.8,23.5,11.1,22.8,11.1z M18.5,21.8h-4.3v-0.1l1.2-4.1c-0.5-0.4-0.9-1-0.9-1.7c0-1.1,0.9-2,2-2
		c1.2,0,2,0.9,2,2c0,0.8-0.5,1.4-1.1,1.8L18.5,21.8z M18.5,11.3h-4.2V8c0-1.2,0.9-2.1,2.1-2.1s2.1,0.9,2.1,2.1V11.3z"/>
	<path d="M25.8,15.1h0.1c1,0,3.5,0,3.5-3.5V5.2c0.6-0.2,1-0.8,1-1.4c0-0.9-0.7-1.6-1.6-1.6s-1.6,0.7-1.6,1.6c0,0.7,0.5,1.3,1.1,1.5
		v6.3c0,2.3-1.2,2.5-2.5,2.5h-0.1c-0.3,0-0.5,0.2-0.5,0.5S25.5,15.1,25.8,15.1z"/>
	<path d="M29.4,27.2V25c0-1.4,0-4.5-2.8-4.5h-0.8c-0.3,0-0.5,0.2-0.5,0.5s0.2,0.5,0.5,0.5h0.8c1.3,0,1.8,1,1.8,3.5v2.2
		c-0.7,0.2-1.1,0.8-1.1,1.5c0,0.9,0.7,1.6,1.6,1.6s1.6-0.7,1.6-1.6C30.4,28,30,27.5,29.4,27.2z"/>
	<path d="M2.9,8.5v3.1c0,3.5,2.5,3.5,3.5,3.5c0,0,0.3,0,0.5,0s0.6-0.1,0.6-0.5S7,14.1,6.9,14.1s-0.5,0-0.5,0c-1.3,0-2.5-0.2-2.5-2.5
		V8.5C4.5,8.3,5,7.7,5,7c0-0.9-0.7-1.6-1.6-1.6S1.8,6.1,1.8,7C1.8,7.7,2.3,8.3,2.9,8.5z"/>
	<path d="M3.4,22.5c0.7,0,1.2-0.4,1.5-1h2.2c0.3,0,0.5-0.2,0.5-0.5s-0.2-0.5-0.5-0.5H4.9c-0.2-0.7-0.8-1.2-1.5-1.2
		c-0.9,0-1.6,0.7-1.6,1.6S2.5,22.5,3.4,22.5z"/>
	<path d="M20.1,27.3v-1.5c0-0.3-0.2-0.5-0.5-0.5s-0.5,0.2-0.5,0.5v1.5c-0.6,0.2-1.1,0.8-1.1,1.5c0,0.9,0.7,1.6,1.6,1.6
		s1.6-0.7,1.6-1.6C21.2,28.1,20.7,27.5,20.1,27.3z"/>
	<path d="M13.1,25.9c0-0.2-0.1-0.6-0.5-0.6c-0.4,0-0.5,0.4-0.5,0.6c0,0.2,0,0.5,0,0.5c0,1.5-0.6,1.8-3.2,1.8h-4
		c-0.2-0.6-0.8-1.1-1.5-1.1c-0.9,0-1.6,0.7-1.6,1.6s0.7,1.6,1.6,1.6c0.7,0,1.3-0.5,1.5-1.1h4c2.2,0,4.2-0.2,4.2-2.8
		C13.1,26.4,13.1,26.1,13.1,25.9z"/>
</g>
</svg>
