<?xml version="1.0" encoding="utf-8"?>
<!-- Generated by IcoMoon.io -->
<!DOCTYPE svg PUBLIC "-//W3C//DTD SVG 1.1//EN" "http://www.w3.org/Graphics/SVG/1.1/DTD/svg11.dtd">
<svg version="1.1" xmlns="http://www.w3.org/2000/svg" xmlns:xlink="http://www.w3.org/1999/xlink" width="512" height="512" viewBox="0 0 512 512">
<path fill="#000000" d="M434.601 164.466c13.399 0 20.095-4.466 17.858-8.933-26.791-49.114-53.581-98.23-80.372-147.352-2.229-4.466-11.162-8.933-17.858-8.933-78.142 0-118.325 0-196.467 0-6.696 0-15.629 4.466-17.857 8.933-26.791 49.114-53.581 98.23-80.371 147.352-2.229 4.466 4.466 8.933 17.858 8.933 118.324 0 238.886 0 357.211 0z"></path>
<path fill="#000000" d="M454.696 197.952c-2.229 4.466-8.933 6.696-17.858 6.696-120.561 0-243.35 0-363.906 0-8.933 0-15.629-2.229-17.858-6.696v8.933c0 0 0 0 0 0s0 0 0 0v80.371c0 0 0 0 0 0s0 0 0 0v91.534c0 2.229 0 4.466 2.229 6.695 0 0 0 0-2.229-2.229v8.933c0 0 0 0 0 0s0 0 0 0v66.981c0 11.162 8.933 20.095 17.858 20.095h361.676c8.933 0 17.858-8.933 17.858-20.095v-66.981c0 0 0 0 0 0s0 0 0 0v-8.933c0 0 0 0-2.229 2.229 0-2.229 2.229-4.466 2.229-6.695v-91.534c0 0 0 0 0 0s0 0 0 0v0-75.906c0 0 0 0 0 0s0 0 0 0v-13.399zM128.743 267.162v183.067c0 4.466-6.695 6.695-13.4 6.695s-13.4-2.229-13.4-6.695v-218.791c0-4.466 6.695-6.696 13.4-6.696s13.4 2.229 13.4 6.696v35.724zM193.486 267.162v183.067c0 4.466-6.696 6.695-13.399 6.695s-13.399-2.229-13.399-6.695v-218.791c0-4.466 6.696-6.696 13.399-6.696s13.399 2.229 13.399 6.696v35.724zM260.466 267.162v183.067c0 4.466-6.696 6.695-13.399 6.695s-13.399-2.229-13.399-6.695v-218.791c0-4.466 6.696-6.696 13.399-6.696s13.399 2.229 13.399 6.696v35.724zM327.439 267.162v183.067c0 4.466-6.695 6.695-13.399 6.695s-13.399-2.229-13.399-6.695v-218.791c0-4.466 6.695-6.696 13.399-6.696s13.399 2.229 13.399 6.696v35.724zM387.724 276.095c-13.399 0-26.791-11.162-26.791-26.791 0-13.399 11.162-26.791 26.791-26.791 13.399 0 26.791 11.162 26.791 26.791 0 13.399-11.162 26.791-26.791 26.791z"></path>
</svg>
