<?xml version="1.0" encoding="utf-8"?>
<!-- Generated by IcoMoon.io -->
<!DOCTYPE svg PUBLIC "-//W3C//DTD SVG 1.1//EN" "http://www.w3.org/Graphics/SVG/1.1/DTD/svg11.dtd">
<svg version="1.1" xmlns="http://www.w3.org/2000/svg" xmlns:xlink="http://www.w3.org/1999/xlink" width="512" height="512" viewBox="0 0 512 512">
<path fill="#000000" d="M425.228 47.862h-333.638c-27.636 0-49.988 21.918-49.988 48.978v326.657c0 27.041 22.35 48.978 49.988 48.978h333.638c27.619 0 50.005-21.937 50.005-48.978v-326.657c0-27.060-22.388-48.978-50.005-48.978zM420.627 272.398c0 26.644-3.265 53.253-3.265 53.253s-3.211 22.693-12.987 32.705c-12.447 13.133-26.355 13.168-32.742 13.944-45.711 3.319-114.352 3.408-114.352 3.408s-84.912-0.775-111.068-3.284c-7.27-1.388-23.577-0.975-36.024-14.089-9.776-10.011-12.971-32.705-12.971-32.705s-3.284-26.625-3.284-53.253v-24.967c0-26.663 3.284-53.288 3.284-53.288s3.192-22.693 12.971-32.669c12.447-13.133 26.355-13.187 32.742-13.944 45.711-3.354 114.262-3.354 114.262-3.354h0.181c0 0 68.55 0 114.262 3.354 6.387 0.759 20.295 0.829 32.742 13.944 9.776 9.976 12.987 32.669 12.987 32.669s3.265 26.644 3.265 53.288v24.984z"></path>
<path fill="#000000" d="M210.63 327.021l125.519-68.369-125.519-65.735z"></path>
</svg>
