<?xml version="1.0" encoding="utf-8"?>
<!-- Generated by IcoMoon.io -->
<!DOCTYPE svg PUBLIC "-//W3C//DTD SVG 1.1//EN" "http://www.w3.org/Graphics/SVG/1.1/DTD/svg11.dtd">
<svg version="1.1" xmlns="http://www.w3.org/2000/svg" xmlns:xlink="http://www.w3.org/1999/xlink" width="512" height="512" viewBox="0 0 512 512">
<path fill="#000000" d="M428.418 43.938h-339.926c-28.157 0-50.93 22.331-50.93 49.901v332.813c0 27.55 22.771 49.901 50.93 49.901h339.926c28.139 0 50.948-22.351 50.948-49.901v-332.813c0-27.57-22.81-49.901-50.948-49.901zM408.584 349.68c-5.808 35.841-39.572 60.156-75.411 54.329-35.802-5.825-60.118-39.572-54.274-75.411 0.019-0.091 0.055-0.185 0.075-0.275l-85.096-36.336c-12.497 13.216-31.097 20.218-50.379 17.075-30.987-5.035-51.977-34.223-46.977-65.21 5.055-30.932 34.241-51.977 65.21-46.94 10.255 1.673 19.225 6.158 26.706 12.313l90.96-53.392c-0.719-4.834-0.938-9.795-0.11-14.888 4.281-26.412 29.224-44.368 55.653-40.067 26.447 4.3 44.387 29.242 40.087 55.653-4.3 26.447-29.204 44.405-55.635 40.102-7.902-1.288-14.904-4.576-20.917-9.025l-90.5 53.136c1.233 5.605 1.469 11.451 0.939 17.406l86.842 36.134c14.445-15.438 36.079-23.618 58.538-19.998 35.802 5.844 60.118 39.608 54.292 75.392z"></path>
</svg>
