<?xml version="1.0" encoding="utf-8"?>
<!-- Generated by IcoMoon.io -->
<!DOCTYPE svg PUBLIC "-//W3C//DTD SVG 1.1//EN" "http://www.w3.org/Graphics/SVG/1.1/DTD/svg11.dtd">
<svg version="1.1" xmlns="http://www.w3.org/2000/svg" xmlns:xlink="http://www.w3.org/1999/xlink" width="512" height="512" viewBox="0 0 512 512">
<path fill="#000000" d="M123.135 196.101v12.093h-0.22v117.722l72.525-68.262z"></path>
<path fill="#000000" d="M367.654 178.53h-220.185l110.075 93.773z"></path>
<path fill="#000000" d="M392.007 196.065l-72.342 61.589 72.545 68.262v-117.721h-0.2z"></path>
<path fill="#000000" d="M427.517 43.937h-339.927c-28.158 0-50.93 22.331-50.93 49.901v332.815c0 27.55 22.771 49.901 50.93 49.901h339.927c28.139 0 50.949-22.351 50.949-49.901v-332.815c0-27.57-22.81-49.901-50.949-49.901zM421.324 180.588v190.687h-327.54v-191.202c-0.019-0.44-0.145-0.883-0.145-1.343 0-0.479 0.129-0.954 0.145-1.398 0.719-14.999 12.536-26.962 27.46-27.935 0.644-0.036 1.269-0.201 1.912-0.201v0.201l268.853-0.201c0.625 0 1.249 0.165 1.913 0.201 14.759 0.974 26.447 12.646 27.405 27.405 0.036 0.644 0.2 1.249 0.2 1.912 0 0.644-0.165 1.249-0.2 1.874z"></path>
<path fill="#000000" d="M257.543 310.551l-46.868-40.986-72.93 72.6h239.521l-72.562-72.875z"></path>
</svg>
