<?xml version="1.0" encoding="utf-8"?>
<!-- Generated by IcoMoon.io -->
<!DOCTYPE svg PUBLIC "-//W3C//DTD SVG 1.1//EN" "http://www.w3.org/Graphics/SVG/1.1/DTD/svg11.dtd">
<svg version="1.1" xmlns="http://www.w3.org/2000/svg" xmlns:xlink="http://www.w3.org/1999/xlink" width="512" height="512" viewBox="0 0 512 512">
<path fill="#000000" d="M257.646 51.889h165.438c-0.371 0-0.692-0.106-1.063-0.106h-327.334c-0.371 0-0.692 0.087-1.063 0.106h164.021z"></path>
<path fill="#000000" d="M200.936 218.583c0-25.151-6.425-50.514-19.311-76.090-6.071-12.247-13.964-22.231-23.805-29.93-10.072-7.273-21.645-11.15-34.674-11.558-17.328 0.408-31.7 7.398-43.116 20.885-9.682 14.16-14.372 29.93-13.948 47.416 0 23.081 6.796 47.099 20.284 72.055 6.531 11.63 14.992 21.487 25.328 29.593 10.318 8.106 22.141 12.178 35.452 12.178 16.778-0.601 30.744-6.656 41.983-18.071 5.381-8.106 8.903-16.443 10.408-24.939 0.938-8.532 1.399-15.718 1.399-21.54z"></path>
<path fill="#000000" d="M167.856 385.842c-4.054-0.389-8.85-0.62-14.338-0.62-3.291-0.424-11.593 0-24.992 1.221-13.185 1.858-26.762 4.886-40.567 9.027-3.238 1.221-7.769 3.151-13.682 5.61-5.877 2.69-11.876 6.549-17.965 11.505-3.841 3.381-7.221 7.274-10.265 11.683 2.072 24.656 22.904 44.125 48.638 44.125h141.242c-0.371-15.416-5.541-28.921-15.681-40.55-11.15-11.415-28.655-25.416-52.39-42z"></path>
<path fill="#000000" d="M131.839 324.284c0-5.61 0.744-10.284 2.424-14.054 1.327-4.001 2.655-7.628 3.895-10.957-7.257 0.779-14.107 1.256-20.531 1.256-30.425-0.371-54.319-9.027-71.807-25.841v113.791c15.612-7.168 31.788-12.178 48.479-15.098 22.549-3.31 41.257-5.204 56.143-5.575-4.602-6.052-8.673-12.514-12.284-19.417-4.213-6.619-6.32-14.673-6.32-24.107z"></path>
<path fill="#000000" d="M469.421 87.944c-5.344-20.442-23.911-35.593-46.32-36.072h-329.477c-26.036 0.567-46.886 20.868-47.806 46.284v22.779c1.858-1.982 3.805-3.964 5.806-5.877 18.142-14.955 36.992-24.709 56.568-29.274 19.327-3.911 37.505-5.893 54.408-5.893h127.577l-39.399 22.992h-39.382c4.036 2.496 8.532 6.142 13.559 10.903 4.815 4.974 9.523 11.097 14.142 18.354 4.391 6.85 8.302 14.939 11.717 24.285 2.78 9.327 4.195 20.196 4.195 32.655-0.371 22.833-5.398 41.099-15.115 54.798-4.762 6.619-9.806 12.743-15.115 18.336-5.911 5.647-12.178 11.346-18.815 17.151-3.786 3.911-7.327 8.408-10.548 13.381-3.823 5.223-5.734 11.187-5.734 18.071 0 6.603 1.947 12.106 5.877 16.443 3.328 4.213 6.513 7.841 9.629 10.938l21.683 17.735c13.452 10.973 25.238 23.151 35.382 36.425 9.558 13.487 14.512 31.168 14.886 52.868 0 8.018-1.044 15.718-2.849 23.187h147.738c22.885 0 41.947-15.416 47.382-36.178v-344.291zM463.084 181.999h-66.957v66.957h-32.409v-66.957h-66.976v-32.443h66.976v-66.975h32.409v66.975h66.957v32.443z"></path>
</svg>
