<?xml version="1.0" encoding="utf-8"?>
<!-- Generated by IcoMoon.io -->
<!DOCTYPE svg PUBLIC "-//W3C//DTD SVG 1.1//EN" "http://www.w3.org/Graphics/SVG/1.1/DTD/svg11.dtd">
<svg version="1.1" xmlns="http://www.w3.org/2000/svg" xmlns:xlink="http://www.w3.org/1999/xlink" width="512" height="512" viewBox="0 0 512 512">
<path fill="#000000" d="M428.418 43.935h-339.931c-28.159 0-50.93 22.331-50.93 49.901v332.815c0 27.55 22.771 49.901 50.93 49.901h161.371v-172.583h-59.385v-68.795h59.385v-50.745c0-58.906 35.97-90.961 88.499-90.961 25.178 0 46.83 1.912 53.117 2.683v61.573h-36.411c-28.579 0-34.113 13.581-34.113 33.489v43.963h68.115l-8.821 68.795h-59.291v172.583h107.483c28.139 0 50.949-22.351 50.949-49.901v-332.815c-0.019-27.57-22.826-49.901-50.966-49.901z"></path>
</svg>
