<?xml version="1.0" encoding="utf-8"?>
<!-- Generated by IcoMoon.io -->
<!DOCTYPE svg PUBLIC "-//W3C//DTD SVG 1.1//EN" "http://www.w3.org/Graphics/SVG/1.1/DTD/svg11.dtd">
<svg version="1.1" xmlns="http://www.w3.org/2000/svg" xmlns:xlink="http://www.w3.org/1999/xlink" width="512" height="512" viewBox="0 0 512 512">
<path fill="#000000" d="M422.040 51.783h-327.353c-27.116 0-49.046 21.505-49.046 48.055v320.504c0 26.531 21.929 48.055 49.046 48.055h327.353c27.099 0 49.063-21.524 49.063-48.055v-320.503c0-26.55-21.966-48.055-49.063-48.055zM148.688 180.016c-19.168 0-34.691-15.541-34.691-34.691 0-19.133 15.522-34.709 34.691-34.709 19.115 0 34.674 15.575 34.674 34.709 0 19.151-15.559 34.691-34.674 34.691zM178.6 206.299v192.5h-59.895v-192.5h59.895zM402.604 398.8h-59.753v-93.56c0-22.39-0.424-51.046-31.115-51.046-31.134 0-35.841 24.266-35.841 49.417v95.188h-59.806v-192.5h57.382v26.301h0.813c7.965-15.117 27.505-31.099 56.603-31.099 60.533 0 71.719 39.859 71.719 91.684v105.613z"></path>
</svg>
