<?xml version="1.0" encoding="utf-8"?>
<!-- Generated by IcoMoon.io -->
<!DOCTYPE svg PUBLIC "-//W3C//DTD SVG 1.1//EN" "http://www.w3.org/Graphics/SVG/1.1/DTD/svg11.dtd">
<svg version="1.1" xmlns="http://www.w3.org/2000/svg" xmlns:xlink="http://www.w3.org/1999/xlink" width="512" height="512" viewBox="0 0 512 512">
<path fill="#000000" d="M422.040 52.508h-327.353c-27.116 0-49.046 21.505-49.046 48.055v320.503c0 26.55 21.913 48.055 49.046 48.055h327.353c27.099 0 49.063-21.505 49.063-48.055v-320.503c0-26.55-21.966-48.055-49.063-48.055zM258.372 180.689c45.204 0 81.807 35.877 81.807 80.162 0 44.249-36.603 80.090-81.807 80.090-45.222 0-81.86-35.841-81.86-80.090 0-44.285 36.637-80.161 81.86-80.161zM422.040 404.995c0 8.885-7.345 16.070-16.443 16.070h-294.45c-9.097 0-16.478-7.186-16.478-16.070v-176.252h37.099c-2.708 10.265-4.338 21.028-4.338 32.106 0 70.763 58.638 128.181 130.924 128.181 72.267 0 130.905-57.418 130.905-128.181 0-11.097-1.574-21.841-4.284-32.106h37.063v176.252zM422.040 164.687c0 8.85-7.345 16-16.443 16h-49.046c-9.027 0-16.373-7.151-16.373-16v-48.055c0-8.903 7.345-16.070 16.373-16.070h49.046c9.096 0 16.443 7.168 16.443 16.070v48.055z"></path>
</svg>
