<?xml version="1.0" encoding="utf-8"?>
<!-- Generated by IcoMoon.io -->
<!DOCTYPE svg PUBLIC "-//W3C//DTD SVG 1.1//EN" "http://www.w3.org/Graphics/SVG/1.1/DTD/svg11.dtd">
<svg version="1.1" xmlns="http://www.w3.org/2000/svg" xmlns:xlink="http://www.w3.org/1999/xlink" width="512" height="512" viewBox="0 0 512 512">
<path fill="#000000" d="M491.284 396.492c-8.464 50.781-55.858 84.633-104.947 76.17-50.781-8.464-84.634-55.858-76.17-104.947 0 0 0 0 0 0l-118.488-50.781c-16.927 18.62-44.009 28.775-71.093 23.697-44.009-6.771-72.785-47.395-66.015-91.406s47.395-72.786 91.406-66.015c13.541 1.693 27.084 8.464 37.238 16.927l126.951-74.478c-1.693-6.77-1.693-13.541 0-20.311 6.771-37.239 40.625-62.629 77.863-55.858s62.629 40.624 55.858 77.863c-6.771 37.238-40.625 62.629-77.863 55.858-11.849-1.693-20.312-6.77-28.775-11.85l-126.951 74.478c1.693 8.464 1.693 15.234 1.693 23.698l121.874 50.781c20.312-22.005 50.781-33.854 81.249-28.775 49.088 6.771 84.634 54.166 76.17 104.947z"></path>
</svg>
