<?xml version="1.0" encoding="utf-8"?>
<!-- Generated by IcoMoon.io -->
<!DOCTYPE svg PUBLIC "-//W3C//DTD SVG 1.1//EN" "http://www.w3.org/Graphics/SVG/1.1/DTD/svg11.dtd">
<svg version="1.1" xmlns="http://www.w3.org/2000/svg" xmlns:xlink="http://www.w3.org/1999/xlink" width="512" height="512" viewBox="0 0 512 512">
<path fill="#000000" d="M272.793 419.347v0c-1.527 1.527-3.053 1.527-6.106 1.527-6.106 0-10.686-7.633-10.686-16.793v-102.283l-137.394 117.549c-1.527 1.527-3.053 3.053-4.58 3.053-6.106 0-10.686-7.633-10.686-16.793v-299.215c0-9.16 4.58-16.793 10.686-16.793 1.527 0 3.053 1.527 4.58 3.053v0l137.394 117.549v-103.809c0-9.16 4.58-16.793 10.686-16.793 1.527 0 3.053 1.527 4.58 3.053v0l177.086 148.081c3.053 3.053 6.106 7.633 6.106 13.739s-3.053 10.686-6.106 13.739v0l-175.56 151.134z"></path>
</svg>
