<?xml version="1.0" encoding="utf-8"?>
<!-- Generated by IcoMoon.io -->
<!DOCTYPE svg PUBLIC "-//W3C//DTD SVG 1.1//EN" "http://www.w3.org/Graphics/SVG/1.1/DTD/svg11.dtd">
<svg version="1.1" xmlns="http://www.w3.org/2000/svg" xmlns:xlink="http://www.w3.org/1999/xlink" width="512" height="512" viewBox="0 0 512 512">
<path fill="#000000" d="M396.017 394.33c0 8.435-5.061 15.183-10.122 15.183-1.687 0-3.374-1.687-5.061-1.687v0l-128.209-109.652v96.157c0 8.435-5.061 15.183-10.122 15.183-1.687 0-3.374-1.687-5.061-1.687v0l-165.322-140.017c-3.374-3.374-5.061-6.748-5.061-13.496 0-5.061 1.687-10.122 5.061-13.496v0l165.322-140.017c1.687-1.687 3.374-1.687 5.061-1.687 5.061 0 10.122 6.748 10.122 15.183v96.157l128.209-109.652c1.687-1.687 3.374-1.687 5.061-1.687 5.061 0 10.122 6.748 10.122 15.183v280.035z"></path>
</svg>
