<?xml version="1.0" encoding="utf-8"?>
<!-- Generated by IcoMoon.io -->
<!DOCTYPE svg PUBLIC "-//W3C//DTD SVG 1.1//EN" "http://www.w3.org/Graphics/SVG/1.1/DTD/svg11.dtd">
<svg version="1.1" xmlns="http://www.w3.org/2000/svg" xmlns:xlink="http://www.w3.org/1999/xlink" width="512" height="512" viewBox="0 0 512 512">
<path fill="#000000" d="M347.625 11.664h-185.161c-19.090 0-34.36 17.18-34.36 38.18v418.046c0 21 15.27 38.18 34.36 38.18h185.161c19.090 0 34.36-17.18 34.36-38.18v-418.046c0-21-15.27-38.18-34.36-38.18zM221.64 57.474h64.9c5.725 0 9.545 3.82 9.545 9.545s-3.82 9.545-9.545 9.545h-64.9c-5.725 0-9.545-3.82-9.545-9.545s3.82-9.545 9.545-9.545zM254.090 485.065c-13.36 0-24.815-11.455-24.815-24.815s11.455-24.815 24.815-24.815c13.36 0 24.815 11.455 24.815 24.815s-11.455 24.815-24.815 24.815zM353.355 418.255h-198.525v-320.691h198.525v320.691z"></path>
</svg>
