<?xml version="1.0" encoding="utf-8"?>
<!-- Generated by IcoMoon.io -->
<!DOCTYPE svg PUBLIC "-//W3C//DTD SVG 1.1//EN" "http://www.w3.org/Graphics/SVG/1.1/DTD/svg11.dtd">
<svg version="1.1" xmlns="http://www.w3.org/2000/svg" xmlns:xlink="http://www.w3.org/1999/xlink" width="512" height="512" viewBox="0 0 512 512">
<path fill="#000000" d="M256 16c-61.406 0-122.86 23.438-169.688 70.312-93.75 93.704-93.75 245.672 0 339.375 46.875 46.875 108.282 70.312 169.688 70.312s122.86-23.438 169.688-70.312c93.75-93.704 93.75-245.672 0-339.375-46.828-46.875-108.282-70.312-169.688-70.312v0zM171.156 340.844c-22.688-22.64-35.156-52.782-35.156-84.844s12.468-62.204 35.156-84.844c22.64-22.688 52.782-35.156 84.844-35.156s62.204 12.468 84.844 35.156c22.688 22.64 35.156 52.782 35.156 84.844s-12.468 62.204-35.156 84.844c-22.64 22.688-52.782 35.156-84.844 35.156s-62.204-12.468-84.844-35.156zM348.812 67.75l-46.312 46.312c-15.14-4.968-30.75-8.062-46.5-8.062-14.344 0-28.546 2.718-42.422 6.796l-46.782-46.782c27.562-12.938 57.844-20.016 89.204-20.016 32.766 0 64.266 7.64 92.812 21.75zM66.062 166.796l46.782 46.782c-8.578 29.11-8.204 60 1.218 88.922l-46.312 46.312c-14.11-28.546-21.75-60.046-21.75-92.812 0-31.36 7.078-61.64 20.062-89.204zM107.5 404.454v0c0 0.046 0 0.046 0 0v0zM170.406 447.672l47.296-47.296c12.562 3.328 25.36 5.625 38.296 5.625 14.344 0 28.546-2.718 42.422-6.844l46.782 46.782c-27.562 12.984-57.844 20.062-89.204 20.062-30.046 0-58.968-6.468-85.594-18.328v0zM445.89 345.11l-46.688-46.688c7.734-26.39 8.204-54.188 1.172-80.718l47.204-47.204c24.704 55.546 24.14 119.484-1.688 174.61z"></path>
</svg>
