<?xml version="1.0" encoding="utf-8"?>
<!-- Generated by IcoMoon.io -->
<!DOCTYPE svg PUBLIC "-//W3C//DTD SVG 1.1//EN" "http://www.w3.org/Graphics/SVG/1.1/DTD/svg11.dtd">
<svg version="1.1" xmlns="http://www.w3.org/2000/svg" xmlns:xlink="http://www.w3.org/1999/xlink" width="512" height="512" viewBox="0 0 512 512">
<path fill="#000000" d="M213.159 14.87c1.429 49.66 4.174 100.109 5.226 149.627 58.965 53.883 126.302 108.269 189.009 163.298 9.017 7.921 21.969 16.173 26.694 23.805 4.366 7.036 4.104 17.101 7.205 23.305 2.55 5.106 7.471 6.416 11.522 10.447 3.22 16.555-13.047 21.92-8.897 39.144-3.315 1.385-2.148 5.344-4.844 7.107 3.434 5.985 1.861 7.896 0.452 12.476 2.288 7.036 9.688 5.295 11.329 13.404-2.124 5.126-11.522 6.058-12.238 11.999-30.603 5.033-61.78 10.853-92.546 16.099-1.548-8.73-8.158-8.779-10.878-15.478 11.642-19.914-13.572-29.721-24.663-37.949-3.245-1.026-9.18 2.601-12.283 1.409-2.933-5.295 2.457-5.726 0.070-10.658-10.233-8.466-16.964-2.099-27.765-6.129-10.302-3.791-19.155-16.817-29.388-19.25-2.839-0.646-4.844 1.122-7.47 1.072-10.853-0.332-20.754-4.913-31.225-8.134-6.11-11.235-3.96-33.87-16.481-36.232-0.262-20.779-24.307-18.723-24.902-38.832-7.895-7.538-17.174-12.57-20.227-28.48 2.431-3.529 5.772-0.189 9.281-1.503 1.623-13.954-9.587-16.793-18.198-17.389-4.868-10.615-16.674-29.457-9.255-38.212 7.776-1.122 8.064 10.685 14.693 11.594 10.828 11.711 0.262-6.585-0.551-12.952 0.883-3.245 8.949-10.184 9.494-13.286-2.243-6.248-17.031-0.833-18.987-7.607-4.461 13.667-20.846 10.402-27.79 8.158-1.861-5.126 5.344-5.056 5.295-9.179-4.844-8.873-12.263-13.191-18.034-20.321 1.623-9.689-7.681-11.831-10.759-18.392-5.463-11.831 1.98-25.334-6.724-35.994 8.040-16.624-16.41-14.263-15.98-34.37 5.106-9.543 8.491-20.084 12.188-30.365-1.336-3.578 0.214-5.489-1.623-9.349 9.445-9.543 0.834-29.552 1.786-44.058 50.161-1.361 99.514-1.29 147.458 1.191z"></path>
</svg>
