<?xml version="1.0" encoding="utf-8"?>
<!-- Generated by IcoMoon.io -->
<!DOCTYPE svg PUBLIC "-//W3C//DTD SVG 1.1//EN" "http://www.w3.org/Graphics/SVG/1.1/DTD/svg11.dtd">
<svg version="1.1" xmlns="http://www.w3.org/2000/svg" xmlns:xlink="http://www.w3.org/1999/xlink" width="512" height="512" viewBox="0 0 512 512">
<path fill="#000000" d="M498.68 72.022c-1.337-15.657-13.983-28.82-29.882-28.82h-425.596c-15.899 0-28.545 13.163-29.883 28.82h-0.517v396.776c0 16.781 13.619 30.399 30.399 30.399h425.596c16.781 0 30.399-13.619 30.399-30.399v-396.776h-0.517zM195.201 225.601v-91.198h121.597v91.198h-121.597zM316.799 256v93.722h-121.597v-93.722h121.597zM164.802 134.403v91.198h-121.597v-91.198h121.597zM43.202 256h121.597v93.722h-121.597v-93.722zM43.202 468.798v-91.198h121.597v91.198h-121.597zM195.201 468.798v-91.198h121.597v91.198h-121.597zM468.798 468.798h-121.597v-91.198h121.597v91.198zM468.798 349.723h-121.597v-93.723h121.597v93.722zM468.798 225.601h-121.597v-91.198h121.597v91.198z"></path>
</svg>
