<?xml version="1.0" encoding="utf-8"?>
<!-- Generated by IcoMoon.io -->
<!DOCTYPE svg PUBLIC "-//W3C//DTD SVG 1.1//EN" "http://www.w3.org/Graphics/SVG/1.1/DTD/svg11.dtd">
<svg version="1.1" xmlns="http://www.w3.org/2000/svg" xmlns:xlink="http://www.w3.org/1999/xlink" width="512" height="512" viewBox="0 0 512 512">
<path fill="#000000" d="M402.979 6.314h-295.729c-24.791 0-46.041 21.249-46.041 44.27v409.062c0 24.791 21.249 44.27 46.041 44.27h295.729c24.791 0 44.27-19.478 44.27-44.27v-409.062c0-23.020-19.478-44.27-44.27-44.27zM254.229 18.709c8.855 0 15.937 7.084 15.937 15.937s-7.084 15.937-15.937 15.937c-8.855 0-15.937-7.084-15.937-15.937 1.771-8.855 7.084-15.937 15.937-15.937zM254.229 491.52c-14.168 0-26.562-12.397-26.562-26.562s12.397-26.562 26.562-26.562c14.168 0 26.562 12.397 26.562 26.562s-10.626 26.562-26.562 26.562zM404.75 425.999h-299.271v-364.792h299.271v364.792z"></path>
</svg>
