<?xml version="1.0" encoding="utf-8"?>
<!-- Generated by IcoMoon.io -->
<!DOCTYPE svg PUBLIC "-//W3C//DTD SVG 1.1//EN" "http://www.w3.org/Graphics/SVG/1.1/DTD/svg11.dtd">
<svg version="1.1" xmlns="http://www.w3.org/2000/svg" xmlns:xlink="http://www.w3.org/1999/xlink" width="512" height="512" viewBox="0 0 512 512">
<path fill="#000000" d="M455.137 11.997c-0.274 0-0.549 0-0.824 0-0.244 0-0.457-0.030-0.702 0h-161.255c-4.666 0.244-15.281 7.534-16.653 8.906l-194.136 194.105c-11.895 11.895-11.895 31.171 0 43.066l24.217 24.217-24.217 24.217c-11.895 11.895-11.895 31.171 0 43.066l141.704 141.704c5.947 5.947 13.725 8.906 21.533 8.906s15.586-2.959 21.533-8.906l194.105-194.136c1.403-1.373 9.058-10.767 9.058-16.623v-253.367c0.427-8.509-6.009-15.159-14.365-15.159zM423.752 42.375c8.418 0 15.25 6.832 15.25 15.25s-6.832 15.25-15.25 15.25-15.25-6.832-15.25-15.25 6.832-15.25 15.25-15.25zM438.91 275.611l-194.044 194.135-141.704-141.644 24.217-24.217 95.924 95.924c5.947 5.947 13.725 8.906 21.533 8.906s15.586-2.959 21.533-8.906l172.631-172.662v48.22c-0.091 0.152-0.152 0.244-0.091 0.244-0.031 0-0.031 0 0 0z"></path>
</svg>
