<?xml version="1.0" encoding="utf-8"?>
<!-- Generator: Adobe Illustrator 22.1.0, SVG Export Plug-In . SVG Version: 6.00 Build 0)  -->
<svg version="1.1" id="Layer_1" xmlns="http://www.w3.org/2000/svg" xmlns:xlink="http://www.w3.org/1999/xlink" x="0px" y="0px"
	 viewBox="0 0 32 32" style="enable-background:new 0 0 32 32;" xml:space="preserve">
<g>
	<g>
		<path d="M29,16.3c0.6-0.7,0.9-1.6,0.9-2.6c0-0.9-0.3-1.7-1-2.3c-0.7-0.7-1.4-1-2.3-1h-5.3c0-0.2,0.1-0.3,0.1-0.4
			c0-0.1,0.1-1,0.2-1.2c0.1-0.1,0.1-0.2,0.2-0.3c0.2-0.4,0.4-0.7,0.5-1c0.1-0.3,0.2-0.6,0.3-1c0.1-0.4,0.2-0.9,0.2-1.3
			c0-0.3,0-0.5,0-0.7c0-0.2,0-0.4-0.1-0.8c-0.1-0.3-0.1-0.6-0.2-0.9c-0.1-0.2-0.2-0.5-0.4-0.8c-0.2-0.3-0.4-0.5-0.7-0.7
			c-0.3-0.2-0.6-0.3-1-0.4c-0.4-0.1-0.3-0.2-0.8-0.2c-0.3,0-0.6,0.1-0.8,0.3c-0.2,0.2-0.4,0.5-0.6,0.9c-0.2,0.3-0.3,0.6-0.3,0.9
			c-0.1,0.3-0.1,0.6-0.2,1c-0.1,0.5-0.2,0.8-0.2,1c-0.1,0.2-0.2,0.5-0.3,0.8c-0.1,0.3-0.3,0.6-0.5,0.8c-0.4,0.4-1,1.9-1.7,2.9
			c-0.6,0.7-1.1,1.4-1.7,2.1c-0.6,0.7-1,1-1.3,1c-0.3,0-0.5,0.1-0.7,0.4c-0.2,0.2-0.3,0.5-0.3,0.7v11c0,0.3,0.1,0.6,0.3,0.8
			c0.2,0.2,0.5,0.3,0.8,0.3c0.4,0,1.3,0.3,2.7,0.8c0.9,0.3,1.6,0.5,2.1,0.7c0.5,0.2,1.2,0.3,2.1,0.5c0.9,0.2,1.7,0.3,2.5,0.3h0.3
			h1.3h0.6c1.5,0,2.6-0.5,3.4-1.3c0.7-0.8,0.9-1.8,0.8-3.1c0.4-0.4,0.8-1,0.9-1.6c0.2-0.7,0.2-1.4,0-2c0.5-0.7,0.8-1.5,0.7-2.3
			C29.3,17.2,29.2,16.8,29,16.3z"/>
		<path d="M8.6,12.6H3.6c-0.3,0-0.6,0.1-0.8,0.3c-0.2,0.2-0.3,0.5-0.3,0.8v11c0,0.3,0.1,0.6,0.3,0.8c0.2,0.2,0.5,0.3,0.8,0.3h4.9
			c0.3,0,0.6-0.1,0.8-0.3c0.2-0.2,0.3-0.5,0.3-0.8v-11c0-0.3-0.1-0.6-0.3-0.8C9.1,12.8,8.9,12.6,8.6,12.6z M6.6,23.3
			c-0.2,0.2-0.5,0.3-0.8,0.3c-0.3,0-0.6-0.1-0.8-0.3c-0.2-0.2-0.3-0.5-0.3-0.8c0-0.3,0.1-0.6,0.3-0.8c0.2-0.2,0.5-0.3,0.8-0.3
			c0.3,0,0.6,0.1,0.8,0.3c0.2,0.2,0.3,0.5,0.3,0.8C6.9,22.8,6.8,23.1,6.6,23.3z"/>
	</g>
</g>
</svg>
