<?xml version="1.0" encoding="utf-8"?>
<!-- Generated by IcoMoon.io -->
<!DOCTYPE svg PUBLIC "-//W3C//DTD SVG 1.1//EN" "http://www.w3.org/Graphics/SVG/1.1/DTD/svg11.dtd">
<svg version="1.1" xmlns="http://www.w3.org/2000/svg" xmlns:xlink="http://www.w3.org/1999/xlink" width="512" height="512" viewBox="0 0 512 512">
<path fill="#000000" d="M256 9.6c-133.138 0-242.426 111.278-242.426 246.4s109.288 246.4 242.426 246.4c133.138 0 242.426-111.278 242.426-246.4s-109.288-246.4-242.426-246.4zM426.888 178.504c5.964 0 9.938 3.974 9.938 9.938s-3.974 9.938-9.938 9.938c-5.964 0-9.938-3.974-9.938-9.938 0-3.974 3.974-9.938 9.938-9.938zM327.538 81.138c5.964 0 9.938 3.974 9.938 9.938s-3.974 9.938-9.938 9.938c-5.964 0-9.938-3.974-9.938-9.938s5.964-9.938 9.938-9.938zM379.2 244.078c7.948 0 15.896 7.948 15.896 15.896 0 9.938-7.948 15.896-15.896 15.896h-143.070v-162.94c0-9.938 7.948-15.896 17.886-15.896s15.896 7.948 15.896 15.896v131.148h109.288zM236.13 51.33c3.974-9.938 17.886-15.896 27.818-11.922 11.922 5.964 15.896 17.886 11.922 27.818s-17.886 15.896-27.818 11.922c-11.922-3.974-15.896-17.886-11.922-27.818zM83.122 178.504c5.964 0 9.938 3.974 9.938 9.938s-3.974 9.938-9.938 9.938c-5.964 0-9.938-3.974-9.938-9.938s3.974-9.938 9.938-9.938zM47.356 261.964c0-11.922 9.938-21.86 21.86-21.86s21.86 9.938 21.86 21.86c0 11.922-9.938 21.86-21.86 21.86-11.922-1.99-21.86-11.922-21.86-21.86zM89.086 341.444c-5.964 1.99-11.922 0-13.912-5.964s0-11.922 5.964-13.912c5.964-1.99 11.922 0 13.912 5.964 0 5.964-1.99 11.922-5.964 13.912zM110.94 130.81c0-5.964 3.974-9.938 9.938-9.938s9.938 3.974 9.938 9.938-3.974 9.938-9.938 9.938c-3.974 0-9.938-3.974-9.938-9.938zM130.81 401.060c-5.964 1.99-11.922 0-13.912-5.964s0-11.922 5.964-13.912c5.964-1.99 11.922 0 13.912 5.964 0 5.964-1.99 11.922-5.964 13.912zM182.478 81.138c5.964 0 9.938 3.974 9.938 9.938s-3.974 9.938-9.938 9.938-9.938-3.974-9.938-7.948c0-5.964 3.974-11.922 9.938-11.922zM188.436 440.8c-5.964 1.99-11.922 0-13.912-5.964s0-11.922 5.964-13.912c5.964-1.99 11.922 0 13.912 5.964 1.99 3.974 0 11.922-5.964 13.912zM275.87 450.738c-3.974 9.938-17.886 15.896-27.818 11.922s-15.896-17.886-11.922-27.818c3.974-9.938 17.886-15.896 27.818-11.922 11.922 3.974 15.896 15.896 11.922 27.818zM335.486 434.836c-1.99 5.964-7.948 7.948-13.912 5.964s-7.948-7.948-5.964-13.912c1.99-5.964 7.948-7.948 13.912-5.964s7.948 7.948 5.964 13.912zM395.096 395.096c-1.99 5.964-7.948 7.948-13.912 5.964s-7.948-7.948-5.964-13.912c1.99-5.964 7.948-7.948 13.912-5.964 5.964 3.974 7.948 9.938 5.964 13.912zM389.138 140.748c-5.964 0-9.938-3.974-9.938-9.938s3.974-9.938 9.938-9.938c5.964 0 9.938 3.974 9.938 9.938s-3.974 9.938-9.938 9.938zM436.826 335.486c-1.99 5.964-7.948 7.948-13.912 5.964s-7.948-7.948-5.964-13.912c1.99-5.964 7.948-7.948 13.912-5.964 5.964 3.974 7.948 9.938 5.964 13.912zM440.8 281.834c-11.922 0-21.86-9.938-21.86-21.86s9.938-21.86 21.86-21.86c11.922 0 21.86 9.938 21.86 21.86s-9.938 21.86-21.86 21.86z"></path>
</svg>
