<?xml version="1.0" encoding="utf-8"?>
<!-- Generated by IcoMoon.io -->
<!DOCTYPE svg PUBLIC "-//W3C//DTD SVG 1.1//EN" "http://www.w3.org/Graphics/SVG/1.1/DTD/svg11.dtd">
<svg version="1.1" xmlns="http://www.w3.org/2000/svg" xmlns:xlink="http://www.w3.org/1999/xlink" width="512" height="512" viewBox="0 0 512 512">
<path fill="#000000" d="M408.248 387.858h22.031l56.718 56.718c5.624-11.718 9-24.702 9-38.578 0-47.624-37.124-86.202-83.952-89.39-2.062-0.14-3.984-0.61-6.046-0.61-10.968 0-21.374 2.25-31.124 5.86l-184.732-184.732c3.61-9.703 5.86-20.11 5.86-31.124 0-2.062-0.468-4.032-0.61-6.046-3.188-46.828-41.766-83.952-89.39-83.952-13.874 0-26.859 3.375-38.578 9l58.828 58.828v20.11l-21.094 21.094h-22.594l-57.562-57.608c-5.624 11.718-9 24.702-9 38.578 0 47.624 37.124 86.202 83.952 89.39 2.062 0.14 3.984 0.61 6.046 0.61 10.968 0 21.374-2.25 31.124-5.86l184.732 184.732c-3.61 9.703-5.86 20.11-5.86 31.124 0 2.062 0.468 4.032 0.61 6.046 3.188 46.828 41.766 83.952 89.39 83.952 13.874 0 26.86-3.375 38.578-9l-57.422-57.422v-20.672l21.094-21.046z"></path>
</svg>
