<?xml version="1.0" encoding="utf-8"?>
<!-- Generated by IcoMoon.io -->
<!DOCTYPE svg PUBLIC "-//W3C//DTD SVG 1.1//EN" "http://www.w3.org/Graphics/SVG/1.1/DTD/svg11.dtd">
<svg version="1.1" xmlns="http://www.w3.org/2000/svg" xmlns:xlink="http://www.w3.org/1999/xlink" width="512" height="512" viewBox="0 0 512 512">
<path fill="#000000" d="M356.317 105.522l-32.245-8.957-125.397 77.030 136.145 32.245z"></path>
<path fill="#000000" d="M478.132 286.452l34.037-71.655-28.663-8.958-93.153 50.16-71.655-25.080-123.605-41.202-116.44-39.41c-19.705-7.165-60.907-3.583-68.073 16.123s23.288 46.575 42.992 53.743l100.317 34.037 73.448 202.428 41.202 14.33 35.827-164.808 42.993 14.33c0 0 118.233 28.663 146.895-21.498-3.582-5.375-8.957-10.748-16.123-12.54zM123.438 195.093c-3.582 12.54-12.54 19.705-21.498 17.915s-14.33-14.33-10.748-26.87c3.582-12.54 12.54-19.705 21.498-17.915 8.957 3.583 14.33 16.123 10.748 26.87zM170.012 205.84c0 19.705-19.705 23.287-16.123 23.287-19.705 0-17.915-19.705-17.915-23.287 0-19.705 19.705-23.287 17.915-23.287 21.498 1.792 16.123 28.662 16.123 23.287zM214.798 221.963c0 19.705-19.705 23.287-16.123 23.287-19.705 0-16.123-19.705-16.123-23.287 0-19.705 19.705-23.287 16.123-23.287 19.705 1.792 16.123 21.498 16.123 23.287zM261.375 236.295c0 19.705-19.705 23.287-16.123 23.287-19.705 0-17.915-19.705-17.915-23.287 0-19.705 19.705-23.287 17.915-23.287 17.915 1.792 16.123 21.498 16.123 23.287zM306.16 250.625c0 19.705-19.705 23.288-17.915 23.288-19.705 0-17.915-19.705-17.915-23.287 0-19.705 19.705-23.287 17.915-23.287 19.705 0 17.915 21.498 17.915 23.287z"></path>
</svg>
