<?xml version="1.0" encoding="utf-8"?>
<!-- Generated by IcoMoon.io -->
<!DOCTYPE svg PUBLIC "-//W3C//DTD SVG 1.1//EN" "http://www.w3.org/Graphics/SVG/1.1/DTD/svg11.dtd">
<svg version="1.1" xmlns="http://www.w3.org/2000/svg" xmlns:xlink="http://www.w3.org/1999/xlink" width="512" height="512" viewBox="0 0 512 512">
<path fill="#000000" d="M175.031 296.485c0 25.714-20.844 46.558-46.558 46.558s-46.558-20.844-46.558-46.558c0-25.714 20.844-46.558 46.558-46.558s46.558 20.844 46.558 46.558z"></path>
<path fill="#000000" d="M430.085 296.485c0 25.714-20.844 46.558-46.558 46.558s-46.558-20.844-46.558-46.558c0-25.714 20.844-46.558 46.558-46.558s46.558 20.844 46.558 46.558z"></path>
<path fill="#000000" d="M480.693 179.078h-62.753v-44.535c0-14.168-70.848-58.703-82.995-58.703h-155.867c-14.168 0-85.019 44.535-85.019 58.703v44.535h-62.753c-18.218 0-32.387 14.168-32.387 32.387v93.117c0 18.219 14.168 32.387 32.387 32.387h22.266c-4.047-16.195-6.074-28.339-6.074-46.558 0-44.535 36.437-82.995 82.996-82.995 44.535 0 82.996 36.437 82.996 82.995 0 16.195 0 28.339-4.047 44.534h97.163c-4.047-18.219-4.047-28.339-4.047-44.534 0-44.535 36.437-82.995 82.995-82.995s82.995 36.437 82.995 82.995c0 16.195-2.024 30.363-6.074 46.558h22.266c18.219 0 32.387-14.168 32.387-32.387v-93.117c-4.047-18.219-18.219-32.387-36.437-32.387zM231.708 156.813c0 8.097-6.074 16.195-12.144 18.219-2.024 0-2.024 0-4.047 0h-68.824c-2.024 0-6.074 0-8.097-2.024-4.047-4.047-8.097-10.121-8.097-16.195v-12.144c0-10.121 28.339-32.387 52.632-38.46h32.387c8.097 0 16.195 8.097 16.195 18.219v32.387zM381.503 156.813c0 8.097-4.047 14.168-8.098 16.195-2.024 2.024-4.047 2.024-8.098 2.024h-70.848c-2.024 0-2.024 0-4.047 0-8.098-2.024-12.144-10.121-12.144-18.219v-30.364c0-10.121 8.098-18.218 16.195-18.218h32.387c24.293 4.047 54.656 28.339 54.656 38.46v10.121z"></path>
</svg>
