<?xml version="1.0" encoding="utf-8"?>
<!-- Generated by IcoMoon.io -->
<!DOCTYPE svg PUBLIC "-//W3C//DTD SVG 1.1//EN" "http://www.w3.org/Graphics/SVG/1.1/DTD/svg11.dtd">
<svg version="1.1" xmlns="http://www.w3.org/2000/svg" xmlns:xlink="http://www.w3.org/1999/xlink" width="512" height="512" viewBox="0 0 512 512">
<path fill="#000000" d="M272 32c-132.544 0-240 107.456-240 240s107.456 240 240 240 240-107.456 240-240-107.456-240-240-240zM272 480c-114.688 0-208-93.312-208-208s93.312-208 208-208 208 93.312 208 208-93.312 208-208 208zM281.6 197.216c-5.44-6.944-14.304-6.944-19.744 0-0.16 0.192-0.192 0.448-0.352 0.64l-97.728 123.424c-5.44 6.944-5.44 18.208 0 25.152 0.032 0.064 0.128 0.064 0.16 0.128 2.528 3.36 6.048 5.44 9.984 5.44h195.52c4 0 7.552-2.208 10.080-5.632l0.064 0.064c5.44-6.944 5.44-18.208 0-25.152l-97.984-124.064z"></path>
</svg>
