<?xml version="1.0" encoding="utf-8"?>
<!-- Generated by IcoMoon.io -->
<!DOCTYPE svg PUBLIC "-//W3C//DTD SVG 1.1//EN" "http://www.w3.org/Graphics/SVG/1.1/DTD/svg11.dtd">
<svg version="1.1" xmlns="http://www.w3.org/2000/svg" xmlns:xlink="http://www.w3.org/1999/xlink" width="512" height="512" viewBox="0 0 512 512">
<path fill="#000000" d="M272 32c-132.544 0-240 107.456-240 240s107.456 240 240 240 240-107.456 240-240-107.456-240-240-240zM272 480c-114.688 0-208-93.312-208-208s93.312-208 208-208 208 93.312 208 208-93.312 208-208 208zM314.432 163.776c-6.944-5.44-18.208-5.44-25.152 0l-124.064 97.984c-6.944 5.44-6.944 14.304 0 19.744 0.192 0.16 0.448 0.192 0.64 0.352l123.424 97.76c6.944 5.44 18.208 5.44 25.152 0 0.064-0.032 0.064-0.128 0.128-0.16 3.36-2.56 5.44-6.080 5.44-10.016v-195.52c0-4-2.208-7.552-5.632-10.080l0.064-0.064z"></path>
</svg>
