<?xml version="1.0" encoding="utf-8"?>
<!-- Generated by IcoMoon.io -->
<!DOCTYPE svg PUBLIC "-//W3C//DTD SVG 1.1//EN" "http://www.w3.org/Graphics/SVG/1.1/DTD/svg11.dtd">
<svg version="1.1" xmlns="http://www.w3.org/2000/svg" xmlns:xlink="http://www.w3.org/1999/xlink" width="512" height="512" viewBox="0 0 512 512">
<path fill="#000000" d="M256 13.741c-134.202 0-244.003 109.802-244.003 244.003s109.802 244.003 244.003 244.003c134.202 0 244.003-109.802 244.003-244.003 0-135.944-109.801-244.003-244.003-244.003zM465.144 257.743c0 43.572-13.942 83.657-36.6 116.772h-69.715c-19.173 0-26.142-3.485-26.142-19.173 0 15.685-10.457 29.629-26.142 34.858h-20.915c5.228-15.685 3.485-26.142 3.485-41.829 0-41.829-33.115-74.944-74.944-74.944s-74.944 33.115-74.944 74.944c0 15.685 1.743 27.885 5.227 41.829h-19.172c-13.942 0-26.142-13.942-26.142-29.629v-83.657c0-15.685 12.2-29.629 29.629-29.629h57.515v-40.087c0-12.2 62.744-54.029 76.687-54.029h71.457v-62.744c0-10.457 5.228-19.172 12.2-22.657 69.715 34.858 118.515 106.315 118.515 189.974zM174.085 351.858c0-22.657 19.172-41.829 41.829-41.829s41.829 19.173 41.829 41.829c0 22.657-19.173 41.829-41.829 41.829-22.657 1.743-41.829-17.429-41.829-41.829z"></path>
<path fill="#000000" d="M297.829 181.056h-29.629c-22.657 3.485-50.542 26.143-50.542 34.857v10.458c0 6.972 3.485 12.2 6.972 15.685 1.743 1.743 5.227 1.743 6.972 1.743h64.487c1.743 0 1.743 0 3.485 0 6.973-1.743 12.2-8.715 12.2-17.429 0 0 0-29.629 0-29.629 0-6.972-5.228-15.685-13.942-15.685z"></path>
</svg>
