<?xml version="1.0" encoding="utf-8"?>
<!-- Generated by IcoMoon.io -->
<!DOCTYPE svg PUBLIC "-//W3C//DTD SVG 1.1//EN" "http://www.w3.org/Graphics/SVG/1.1/DTD/svg11.dtd">
<svg version="1.1" xmlns="http://www.w3.org/2000/svg" xmlns:xlink="http://www.w3.org/1999/xlink" width="512" height="512" viewBox="0 0 512 512">
<path fill="#000000" d="M452.38 170.618c0 5.123 0 8.538 0 13.661 0 128.073-97.335 274.931-274.931 274.931-54.644 0-104.167-15.369-148.565-42.691 6.831 0 15.369 1.708 22.2 1.708 46.107 0 87.090-15.369 121.243-40.983-42.691 0-76.844-29.030-90.504-66.599 6.831 1.708 11.953 1.708 18.784 1.708 8.538 0 18.784-1.708 25.614-1.708-42.691-8.538-76.844-47.813-76.844-95.629 0 0 0 0 0-1.708 13.661 6.831 27.322 11.953 42.691 11.953-25.614-18.784-42.691-47.814-42.691-80.26 0-18.784 5.123-34.153 13.661-47.814 47.813 59.768 117.828 97.335 198.087 100.751-5.123-6.831-5.123-13.661-5.123-23.907 0-52.938 42.691-95.629 95.628-95.629 27.322 0 52.938 11.953 70.013 29.030 22.2-5.123 42.691-11.953 61.474-22.2-5.123 23.907-22.2 40.983-42.691 52.938 20.491-1.708 39.276-6.831 54.644-15.369-6.83 15.369-22.2 34.153-42.691 47.814z"></path>
</svg>
