<?xml version="1.0" encoding="utf-8"?>
<!-- Generator: Adobe Illustrator 22.1.0, SVG Export Plug-In . SVG Version: 6.00 Build 0)  -->
<svg version="1.1" id="Layer_1" xmlns="http://www.w3.org/2000/svg" xmlns:xlink="http://www.w3.org/1999/xlink" x="0px" y="0px"
	 viewBox="0 0 32 32" style="enable-background:new 0 0 32 32;" xml:space="preserve">
<g>
	<path d="M8.1,10c0.7,0,1.4-0.2,2-0.5c0.2-1.7,1.1-3.2,2.4-4.1C12.4,3.1,10.4,1.1,8,1.1S3.5,3.2,3.5,5.6C3.7,8,5.7,10,8.1,10z"/>
	<path d="M13.3,15.3c-1.4-0.8-2.5-2.1-3-3.6c-0.7-0.2-1.5-0.4-2.2-0.4c-6.4,0-7.8,3.6-7.8,10.8c0,2.1,3,3.3,6.3,3.6
		C6.9,20.9,8.1,16.4,13.3,15.3z"/>
	<path d="M21.8,9.5c0.6,0.3,1.3,0.5,2,0.5c2.4,0,4.5-2.1,4.5-4.5S26.2,1,23.8,1c-2.3,0-4.4,2-4.5,4.3C20.7,6.3,21.6,7.8,21.8,9.5z"
		/>
	<path d="M11.5,8.6c-0.1,0.2-0.1,0.4-0.2,0.6c0,0.1,0,0.1,0,0.2c0,0.3-0.1,0.5-0.1,0.8s0,0.5,0.1,0.8c0,0.1,0,0.2,0.1,0.3
		c0,0.1,0.1,0.2,0.1,0.3c0,0,0,0.1,0,0.1c0.1,0.2,0.2,0.5,0.3,0.7c0,0,0,0.1,0,0.1c0,0,0,0,0,0c0.8,1.5,2.4,2.4,4.2,2.4
		c2.7,0,4.8-2.2,4.8-4.8c0-2.7-2.2-4.8-4.8-4.8C14,5.3,12.2,6.6,11.5,8.6C11.5,8.5,11.5,8.6,11.5,8.6z"/>
	<path d="M23.8,11.3c-0.8,0-1.5,0.1-2.2,0.4c-0.5,1.6-1.6,2.9-3,3.7c4.1,1,6.4,4.4,6.7,10.3c3.4-0.3,6.4-1.5,6.4-3.6
		C31.7,14.9,30,11.3,23.8,11.3z"/>
	<path d="M17.1,16.2c-0.3,0-0.7,0-1.1,0s-0.7,0-1.1,0C10,16.6,8,19.8,7.7,25.7c0,0.6,0,1.2,0,1.8c0,1.3,1,2.3,2.6,2.9
		c0.4,0.2,0.8,0.3,1.3,0.4c0.4,0.1,0.9,0.2,1.4,0.3c1,0.2,2,0.2,3,0.2c0.8,0,1.6,0,2.3-0.1c0.5-0.1,1-0.1,1.5-0.2
		c1.2-0.3,2.2-0.6,3-1.1c0.5-0.3,0.9-0.7,1.1-1c0.3-0.4,0.4-0.8,0.4-1.3c0-0.6,0-1.2-0.1-1.8C23.9,19.8,21.6,16.6,17.1,16.2z"/>
</g>
</svg>
