<?xml version="1.0" encoding="utf-8"?>
<!-- Generated by IcoMoon.io -->
<!DOCTYPE svg PUBLIC "-//W3C//DTD SVG 1.1//EN" "http://www.w3.org/Graphics/SVG/1.1/DTD/svg11.dtd">
<svg version="1.1" xmlns="http://www.w3.org/2000/svg" xmlns:xlink="http://www.w3.org/1999/xlink" width="512" height="512" viewBox="0 0 512 512">
<path fill="#000000" d="M465.067 76.799h-149.334v29.866c16.474 0 29.866 13.394 29.866 29.866s-13.394 29.866-29.866 29.866h-119.466c-16.474 0-29.866-13.394-29.866-29.866s13.394-29.866 29.866-29.866v-29.866h-149.334c-16.474 0-29.866 13.394-29.866 29.866v328.536c0 16.474 13.394 29.866 29.866 29.866h418.135c16.474 0 29.866-13.394 29.866-29.866v-328.536c0-16.474-13.394-29.866-29.866-29.866zM241.066 226.134h181.675c8.26 0 14.934 6.674 14.934 14.934s-6.674 14.934-14.934 14.934h-181.675c-8.26 0-14.934-6.674-14.934-14.934s6.674-14.934 14.934-14.934zM241.066 285.866h181.675c8.26 0 14.934 6.674 14.934 14.934s-6.674 14.934-14.934 14.934h-181.675c-8.26 0-14.934-6.674-14.934-14.934s6.674-14.934 14.934-14.934zM241.066 345.601h181.675c8.26 0 14.934 6.674 14.934 14.934s-6.674 14.934-14.934 14.934h-181.675c-8.26 0-14.934-6.674-14.934-14.934s6.674-14.934 14.934-14.934zM196.266 361.981c0 43.726-118.066 43.726-118.066 0s26.415-79.146 59.035-79.146c32.62 0 59.035 35.42 59.035 79.146zM172.56 232.34c0 19.926-16.146 36.074-36.075 36.074s-36.075-16.146-36.075-36.075c0.046-19.926 16.146-36.075 36.075-36.075s36.075 16.146 36.075 36.075zM226.134 17.065h59.734v119.466h-59.734v-119.466z"></path>
</svg>
