<?xml version="1.0" encoding="utf-8"?>
<!-- Generator: Adobe Illustrator 22.1.0, SVG Export Plug-In . SVG Version: 6.00 Build 0)  -->
<svg version="1.1" id="Layer_1" xmlns="http://www.w3.org/2000/svg" xmlns:xlink="http://www.w3.org/1999/xlink" x="0px" y="0px"
	 viewBox="0 0 32 32" style="enable-background:new 0 0 32 32;" xml:space="preserve">
<g>
	<path d="M1.5,21.1c0.3-6,1.6-9.6,7.5-9.6c2.6,0,4.2,0.6,5.3,1.6c0.8-1.4,2.1-2.2,4.5-2.2c2,0,3.2,0.4,3.9,1.3
		c0.5-1.5,1.5-2.3,3.6-2.3c3.6,0,3.9,2,4,5.2c0,0.3,0,3.4,0,3.7c0,0.7-0.5,1.3-1.4,1.6c-0.2,0.1-0.4,0.2-0.7,0.2
		c-0.2,0.1-0.5,0.1-0.8,0.2c-0.5,0.1-0.6,0.1-1.1,0.1c-0.4,0-0.5,0-0.9-0.1c-0.3-0.1-0.5-0.1-0.8-0.1c-0.2,0-0.3-0.1-0.5-0.1
		c0,1.1,0,2.1,0,2.3c0,0.9-0.7,1.7-1.9,2.1c-0.3,0.1-0.6,0.2-0.9,0.3c-0.3,0.1-0.7,0.1-1,0.2c-0.7,0.1-0.8,0.1-1.5,0.1
		c-0.6,0-0.7,0-1.2-0.1c-0.4-0.1-0.7-0.1-1.1-0.1c0,0-0.1,0-0.1,0c0,1.2,0,2.3,0,2.5c0,1.3-1,2.3-2.6,2.9c-0.4,0.2-0.8,0.3-1.3,0.4
		c-0.4,0.1-0.9,0.2-1.4,0.3c-1,0.2-1.1,0.2-2.1,0.2c-0.8,0-0.9,0-1.6-0.1c-0.5-0.1-1-0.1-1.5-0.2c-1.2-0.3-2.2-0.6-3-1.1
		c-0.5-0.3-0.9-0.7-1.1-1c-0.3-0.4-0.4-0.8-0.4-1.3C1.4,27.3,1.4,21.7,1.5,21.1z"/>
	<ellipse transform="matrix(0.2298 -0.9732 0.9732 0.2298 1.3323 12.9918)" cx="8.9" cy="5.7" rx="4.9" ry="4.9"/>
	<path d="M18.5,10c-2.2,0-3.9-1.8-3.9-3.9c0-2.2,1.8-3.9,3.9-3.9s3.9,1.8,3.9,3.9C22.4,8.2,20.6,10,18.5,10z"/>
	<circle cx="26.5" cy="6.5" r="2.8"/>
</g>
</svg>
