<?xml version="1.0" encoding="utf-8"?>
<!-- Generator: Adobe Illustrator 22.1.0, SVG Export Plug-In . SVG Version: 6.00 Build 0)  -->
<svg version="1.1" id="Layer_1" xmlns="http://www.w3.org/2000/svg" xmlns:xlink="http://www.w3.org/1999/xlink" x="0px" y="0px"
	 viewBox="0 0 32 32" style="enable-background:new 0 0 32 32;" xml:space="preserve">
<path d="M28.2,8.4c-1.2,0.7-7.4,4.1-8.8,5v-2.1c0-2.1-1.7-4.1-4.1-4.1H5.7c-2.1,0-4.1,1.7-4.1,4.1V16v4.8c0,2.1,1.7,4.1,4.1,4.1h9.6
	c2.1,0,4.1-1.7,4.1-4.1v-1.9c1.4,1,7.9,4.5,8.8,5c1.4,0.7,2.1,0.5,2.1-0.5c0-1.7,0-6.7,0-7.4s0-5.7,0-7.2S29.4,7.6,28.2,8.4z"/>
</svg>
