<?xml version="1.0" encoding="utf-8"?>
<!-- Generated by IcoMoon.io -->
<!DOCTYPE svg PUBLIC "-//W3C//DTD SVG 1.1//EN" "http://www.w3.org/Graphics/SVG/1.1/DTD/svg11.dtd">
<svg version="1.1" xmlns="http://www.w3.org/2000/svg" xmlns:xlink="http://www.w3.org/1999/xlink" width="512" height="512" viewBox="0 0 512 512">
<path fill="#000000" d="M340.093 197.936c24.029-14.017 40.046-40.046 40.046-70.076 0-44.047-36.041-82.093-82.092-82.093s-82.093 38.041-82.093 82.093c0 30.035 16.018 54.059 38.041 70.076h-84.093c16.017-12.012 26.029-30.035 26.029-52.058 0-34.040-28.029-62.070-62.070-62.070s-62.070 28.029-62.070 62.070c0 22.023 10.011 40.046 26.029 52.058h-4.005c-14.017 0-28.029 6.006-38.041 16.018-8.011-4.006-16.017-10.012-24.029-14.017-16.017 26.029-20.023 44.047-20.023 76.087 10.012 0 20.023-2 28.029-2v70.076c0 30.034 24.029 54.058 54.059 54.058h238.267c24.029 0 42.046-16.017 50.058-36.041 10.012-56.063 6.006-98.11 0-124.139-4.005-22.024-22.024-38.041-42.046-40.046zM258 328.081h-164.185v-92.104h164.185v92.104zM320.070 292.041c-14.017 0-26.029-12.012-26.029-26.029s12.012-26.029 26.029-26.029 26.029 12.012 26.029 26.029c0 14.017-12.012 26.029-26.029 26.029z"></path>
<path fill="#000000" d="M496.267 199.936c-34.040 12.012-56.063 20.023-82.093 30.035 6.006 30.034 10.012 80.087-2 144.162 26.029 10.012 50.058 18.018 84.093 30.034 16.017-82.092 16.017-126.139 0-204.226z"></path>
</svg>
