<?xml version="1.0" encoding="utf-8"?>
<!-- Generated by IcoMoon.io -->
<!DOCTYPE svg PUBLIC "-//W3C//DTD SVG 1.1//EN" "http://www.w3.org/Graphics/SVG/1.1/DTD/svg11.dtd">
<svg version="1.1" xmlns="http://www.w3.org/2000/svg" xmlns:xlink="http://www.w3.org/1999/xlink" width="512" height="512" viewBox="0 0 512 512">
<path fill="#000000" d="M393.325 352.5c-63.098 83.508-116.914 122.481-161.45 122.481-25.981 0-50.106-24.125-68.664-74.231-12.992-46.394-24.125-92.789-37.114-139.183-12.992-50.106-27.836-74.231-44.539-74.231-3.711 0-14.847 7.422-37.114 22.269l-22.27-27.836c24.125-20.414 48.25-40.828 70.519-63.097 31.547-25.981 51.961-38.972 68.664-42.684 37.113-3.711 59.383 22.269 68.664 74.231 9.278 57.528 14.847 92.789 20.414 107.633 11.133 48.25 22.269 70.519 35.258 70.519 9.277 0 24.125-14.848 44.539-46.394s31.547-55.672 31.547-70.519c1.856-25.981-7.422-38.972-31.547-38.972-11.133 0-22.269 1.856-35.258 7.422 22.269-74.231 66.808-111.344 131.758-109.489 48.25 1.856 70.519 33.403 68.664 94.645-9.277 44.539-38.972 107.633-102.067 187.43z"></path>
</svg>
