<?xml version="1.0" encoding="utf-8"?>
<!-- Generated by IcoMoon.io -->
<!DOCTYPE svg PUBLIC "-//W3C//DTD SVG 1.1//EN" "http://www.w3.org/Graphics/SVG/1.1/DTD/svg11.dtd">
<svg version="1.1" xmlns="http://www.w3.org/2000/svg" xmlns:xlink="http://www.w3.org/1999/xlink" width="512" height="512" viewBox="0 0 512 512">
<path fill="#000000" d="M42.485 381.882h70.002c5.52 5.49 132.714 112.553 132.714 112.553 7.655 4.636 14.153 5.978 19.705 5.459 11.286-1.067 19.216-10.524 21.626-20.498 0.122-0.976 0.122-445.821-0.031-446.797-2.379-10.005-10.341-19.46-21.596-20.528-5.551-0.518-12.049 0.823-19.704 5.459 0 0-127.194 110.966-132.714 116.458h-70.002c-16.837 0-30.502 13.666-30.502 30.502v186.887c0 16.868 13.665 30.502 30.502 30.502zM333.507 309.288c-7.534 3.813-10.554 12.964-6.771 20.498 2.684 5.307 8.052 8.387 13.604 8.387 2.318 0 4.636-0.519 6.863-1.616 30.838-15.557 49.993-46.394 49.993-80.557s-19.156-65-49.993-80.556c-7.534-3.813-16.654-0.762-20.467 6.771-3.782 7.534-0.762 16.685 6.771 20.498 20.467 10.31 33.187 30.715 33.187 53.288s-12.72 42.978-33.187 53.288zM312.521 431.053c1.433 7.289 7.808 12.324 14.947 12.324 0.976 0 1.952-0.091 2.959-0.274 89.432-17.447 154.342-96.144 154.342-187.101s-64.909-169.653-154.373-187.101c-8.144-1.647-16.288 3.782-17.875 12.049-1.616 8.266 3.782 16.288 12.049 17.905 75.158 14.642 129.695 80.74 129.695 157.148s-54.538 142.506-129.695 157.148c-8.265 1.616-13.666 9.638-12.049 17.905z"></path>
</svg>
