<?xml version="1.0" encoding="utf-8"?>
<!-- Generated by IcoMoon.io -->
<!DOCTYPE svg PUBLIC "-//W3C//DTD SVG 1.1//EN" "http://www.w3.org/Graphics/SVG/1.1/DTD/svg11.dtd">
<svg version="1.1" xmlns="http://www.w3.org/2000/svg" xmlns:xlink="http://www.w3.org/1999/xlink" width="512" height="512" viewBox="0 0 512 512">
<path fill="#000000" d="M367.816 17.085c-5.828-5.828-13.702-9.083-21.948-9.083h-179.737c-8.215 0-16.12 3.255-21.917 9.083l-127.099 127.13c-5.859 5.797-9.114 13.671-9.114 21.917v179.768c0 8.215 3.255 16.12 9.083 21.917l127.099 127.13c5.828 5.797 13.702 9.052 21.948 9.052h179.768c8.215 0 16.12-3.255 21.917-9.083l127.099-127.13c5.828-5.797 9.083-13.671 9.083-21.917v-179.737c0-8.215-3.255-16.12-9.083-21.917l-127.099-127.13zM256 318c-17.112 0-31-13.888-31-31v-185.999c0-17.112 13.888-31 31-31s31 13.888 31 31v185.999c0 17.112-13.888 31-31 31zM287 410.999c0 17.112-13.888 31-31 31s-31-13.888-31-31c0-17.112 13.888-31 31-31s31 13.888 31 31z"></path>
</svg>
