<?xml version="1.0" encoding="utf-8"?>
<!-- Generated by IcoMoon.io -->
<!DOCTYPE svg PUBLIC "-//W3C//DTD SVG 1.1//EN" "http://www.w3.org/Graphics/SVG/1.1/DTD/svg11.dtd">
<svg version="1.1" xmlns="http://www.w3.org/2000/svg" xmlns:xlink="http://www.w3.org/1999/xlink" width="512" height="512" viewBox="0 0 512 512">
<path fill="#000000" d="M64.064 115.357c-28.129 39.711-44.675 87.695-44.675 140.643s16.546 100.932 44.675 140.643v-281.285z"></path>
<path fill="#000000" d="M347.004 72.337l102.586 100.932v221.719c28.129-39.711 44.675-87.695 44.675-140.643 0-132.369-105.896-241.574-236.61-241.574-57.912 0-112.514 21.51-153.879 57.912-1.655 1.655 243.229 1.655 243.229 1.655z"></path>
<path fill="#000000" d="M421.462 198.088h-99.277l-1.655-99.277h-229.992v329.269c43.020 43.020 100.932 69.494 165.462 69.494s122.442-26.474 165.462-69.494v-229.992zM376.787 252.691l-79.422 160.498h-38.056v-107.55l-59.566 105.896h-57.912v-160.498h-18.201v-26.474h76.112v26.474h-18.201v97.622l72.803-124.096h43.020v110.859l41.365-84.386h-14.892v-26.474h69.494v26.474h-16.546z"></path>
</svg>
