<?xml version="1.0" encoding="utf-8"?>
<!-- Generated by IcoMoon.io -->
<!DOCTYPE svg PUBLIC "-//W3C//DTD SVG 1.1//EN" "http://www.w3.org/Graphics/SVG/1.1/DTD/svg11.dtd">
<svg version="1.1" xmlns="http://www.w3.org/2000/svg" xmlns:xlink="http://www.w3.org/1999/xlink" width="512" height="512" viewBox="0 0 512 512">
<path fill="#000000" d="M193.352 420.449h35.24v19.575h-35.24v-19.575z"></path>
<path fill="#000000" d="M346.056 71.971l101.803 101.803v223.185c27.411-39.156 45.028-88.099 45.028-140.959 0-133.129-107.675-242.762-238.846-242.762-58.733 0-113.548 21.535-154.661 58.733 1.957 0 246.677 0 246.677 0z"></path>
<path fill="#000000" d="M62.184 115.041c-27.41 39.156-45.028 88.098-45.028 140.959s15.66 101.803 45.028 140.958v-281.917z"></path>
<path fill="#000000" d="M422.406 197.268h-99.846v-99.846h-82.226v29.368h-29.368v-29.368h-121.382v330.86c25.453 25.453 56.775 45.028 92.016 56.775v-88.099h58.733v97.888c5.873 0 9.787 0 15.66 0 64.605 0 123.339-27.411 166.406-70.478v-227.1zM209.014 348.015h-29.368v-29.368h29.368v29.368zM209.014 285.368h-29.368v-29.368h29.368v29.368zM209.014 222.717h-29.368v-29.368h29.368v29.368zM209.014 160.070h-29.368v-29.368h29.368v29.368zM240.34 381.296h-29.368v-29.368h29.368v29.368zM240.34 316.69h-29.368v-29.368h29.368v29.368zM240.34 254.042h-29.368v-29.368h29.368v29.368zM240.34 191.395h-29.368v-29.368h29.368v29.368zM383.256 395.001v27.411h-105.718v-25.453l68.52-107.675h-66.563v-27.411h101.803v25.453l-66.563 107.675h68.52z"></path>
</svg>
