<?xml version="1.0" encoding="utf-8"?>
<!-- Generated by IcoMoon.io -->
<!DOCTYPE svg PUBLIC "-//W3C//DTD SVG 1.1//EN" "http://www.w3.org/Graphics/SVG/1.1/DTD/svg11.dtd">
<svg version="1.1" xmlns="http://www.w3.org/2000/svg" xmlns:xlink="http://www.w3.org/1999/xlink" width="512" height="512" viewBox="0 0 512 512">
<path fill="#000000" d="M221.6 120.21c-28.969 1.81-52.506 14.484-66.991 28.968-16.293 16.293-28.969 43.454-28.969 72.421 0 30.78 12.673 56.127 30.78 72.421 61.559 59.748 173.812 16.293 172-74.233-1.81-61.559-47.074-103.201-106.823-99.579zM281.347 236.083h-103.202c-10.863 0-19.917-9.054-19.917-19.917s9.054-19.917 19.917-19.917h103.202c10.863 0 19.917 9.054 19.917 19.917s-9.053 19.917-19.917 19.917z"></path>
<path fill="#000000" d="M382.738 375.497c-21.727-14.483-47.074-23.537-50.695-56.127-14.483 10.863-27.157 23.537-43.454 30.781-99.579 47.074-204.591-30.781-204.591-130.36 0-74.233 61.559-144.844 139.413-144.844 106.823 0 179.244 103.202 133.98 206.401 28.969-9.053 52.505 16.293 72.421 28.969 25.347 16.293 30.781 19.917 48.884 23.537 7.243-23.537 12.673-48.884 12.673-77.853 0-132.17-105.012-240.803-235.371-240.803s-235.371 108.633-235.371 240.803 105.011 240.803 235.371 240.803c68.801 0 130.36-30.781 173.812-77.853-10.863-19.917-21.727-27.157-47.074-43.454z"></path>
</svg>
