<?xml version="1.0" encoding="utf-8"?>
<!-- Generated by IcoMoon.io -->
<!DOCTYPE svg PUBLIC "-//W3C//DTD SVG 1.1//EN" "http://www.w3.org/Graphics/SVG/1.1/DTD/svg11.dtd">
<svg version="1.1" xmlns="http://www.w3.org/2000/svg" xmlns:xlink="http://www.w3.org/1999/xlink" width="512" height="512" viewBox="0 0 512 512">
<path fill="#000000" d="M386.614 378.347c-23.147-14.88-49.6-23.147-52.907-56.214-14.88 9.92-28.107 23.147-44.64 31.414-102.507 47.947-211.628-31.414-211.628-133.921 0-76.054 62.827-148.801 143.841-148.801 110.774 0 185.175 107.467 137.228 213.281 29.76-9.92 52.907 16.533 74.4 29.76 26.454 18.187 33.067 19.84 51.254 24.8 8.267-26.454 14.88-52.907 14.88-82.667 0-135.574-109.121-248.002-243.042-248.002s-243.042 112.427-243.042 248.002 109.121 248.002 243.042 248.002c71.094 0 133.921-31.414 178.561-81.014-9.92-19.84-21.493-26.454-47.947-44.64z"></path>
<path fill="#000000" d="M221.28 115.466c-29.76 1.653-54.56 14.88-67.787 29.76-16.533 16.533-29.76 44.64-29.76 74.4 0 33.067 13.227 57.867 31.414 74.4 62.827 61.174 178.561 16.533 176.908-76.054-3.307-62.827-51.254-105.814-110.774-102.507zM282.454 236.16h-31.414v39.68c0 11.573-9.92 21.493-21.493 21.493s-21.493-9.92-21.493-21.493v-39.68h-31.414c-11.573 0-21.493-9.92-21.493-21.493s9.92-21.493 21.493-21.493h31.414v-24.8c0-11.573 9.92-21.493 21.493-21.493s21.493 9.92 21.493 21.493v24.8h31.414c11.573 0 21.493 9.92 21.493 21.493s-9.92 21.493-21.493 21.493z"></path>
</svg>
