<!-- Generated by IcoMoon.io -->
<svg version="1.1" xmlns="http://www.w3.org/2000/svg" width="24" height="24" viewBox="0 0 24 24">
<title>air-polution</title>
<path d="M21.417 10.706c0 0 1.791-3.338-1.116-5.213-2.409-1.556-4.57 0.309-4.57 0.309s-1.781-3.6-4.898-3.544c-3.122 0.056-5.742 1.369-6.745 5.269 0 0-3.511 0.225-3.9 3.455s1.894 4.289 4.847 4.627c0.103 0.014 0.216 0.023 0.333 0.033 0-0.009 0-0.019 0-0.028 0-3.525 2.855-6.38 6.38-6.38s6.38 2.855 6.38 6.38c0 0.3-0.023 0.595-0.061 0.886 0.708 0 1.57 0 2.18 0 2.119 0 3.272-1.083 3.567-2.564 0.333-1.688-1.172-3.173-2.395-3.23z"></path>
<path d="M11.766 11.264c-2.55 0-4.617 2.067-4.617 4.617 0 1.411 0.637 2.677 1.636 3.525-0.005 0.028-0.005 0.061-0.005 0.089v1.781c0 0.375 0.309 0.459 0.684 0.459s0.684-0.084 0.684-0.459v-1.781c0-0.014 0-0.028 0-0.042h0.947c0 0.014 0 0.028 0 0.042v1.781c0 0.375 0.309 0.459 0.684 0.459s0.684-0.084 0.684-0.459v-1.781c0-0.014 0-0.028 0-0.042h0.9c0 0.014 0 0.028 0 0.042v1.781c0 0.375 0.309 0.459 0.684 0.459s0.684-0.084 0.684-0.459v-1.781c0-0.019 0-0.037-0.005-0.056 1.022-0.848 1.678-2.128 1.678-3.558-0.023-2.55-2.091-4.617-4.641-4.617zM9.98 17.559c-0.67 0-1.214-0.544-1.214-1.214s0.544-1.214 1.214-1.214c0.67 0 1.214 0.544 1.214 1.214-0.005 0.67-0.544 1.214-1.214 1.214zM13.514 17.559c-0.67 0-1.214-0.544-1.214-1.214s0.544-1.214 1.214-1.214c0.67 0 1.214 0.544 1.214 1.214-0.005 0.67-0.548 1.214-1.214 1.214z"></path>
</svg>
