<!-- Generated by IcoMoon.io -->
<svg version="1.1" xmlns="http://www.w3.org/2000/svg" width="24" height="24" viewBox="0 0 24 24">
<title>air-quality</title>
<path d="M5.091 22.439c0-1.683 0-3.347 0-5.053-1.022 0.511-2.011 1.003-3.037 1.514-0.544 0.211-1.012 0.038-1.177-0.291-0.239-0.478-0.070-0.998 0.389-1.275 0.206-0.103 0.398-0.202 0.586-0.3 1.013-0.502 2.020-1.008 3.037-1.505 0.155-0.075 0.206-0.159 0.206-0.328-0.009-0.703-0.005-1.411-0.005-2.166-1.017 0.506-2.011 1.003-3.037 1.514-0.534 0.258-0.98 0.033-1.2-0.342-0.155-0.258-0.188-0.867 0.412-1.223 0.098-0.052 0.183-0.098 0.272-0.141 1.106-0.548 2.217-1.102 3.328-1.65 0.164-0.080 0.239-0.169 0.234-0.366-0.014-0.694-0.005-1.392-0.005-2.137-1.027 0.511-2.020 1.008-3.037 1.514-0.614 0.239-0.956 0.075-1.2-0.333-0.277-0.459-0.094-0.928 0.412-1.233 0.098-0.052 0.183-0.098 0.267-0.141 1.102-0.548 2.198-1.097 3.305-1.636 0.183-0.089 0.263-0.183 0.263-0.403-0.014-1.477-0.005-2.948-0.009-4.425 0-0.136 0-0.267 0-0.422 4.636 0 9.253 0 13.898 0 0 1.678 0 3.342 0 5.058 1.031-0.516 2.020-1.008 3.042-1.514 0.422-0.159 0.919-0.075 1.139 0.338 0.295 0.563 0 1.008-0.352 1.233-0.267 0.136-0.52 0.258-0.769 0.384-0.989 0.492-1.964 0.998-2.963 1.467-2.348 1.097-4.711 1.097-7.078 0.033-0.98-0.441-1.964-0.891-3.070-0.9-0.398-0.005-0.792 0-1.214 0 0-0.534 0-1.097 0-1.688 0.591 0 1.186-0.033 1.777 0.005 1.186 0.075 2.255 0.563 3.323 1.027 1.388 0.605 3.056 0.731 4.416 0.319 0-1.331 0-2.662 0-4.017-3.464 0-6.919 0-10.392 0 0 5.775 0 11.545 0 17.334 3.459 0 6.919 0 10.392 0 0-0.933 0-1.856 0-2.794-1.327 0.258-2.644 0.258-3.933-0.127-0.647-0.192-1.284-0.436-1.894-0.727-1.083-0.52-2.203-0.731-3.394-0.628-0.098 0.009-0.192 0-0.305 0 0-0.563 0-1.12 0-1.706 0.6 0 1.195-0.033 1.786 0.005 1.148 0.075 2.189 0.53 3.225 0.984 1.978 0.862 3.933 0.825 5.864-0.136 1.078-0.534 2.152-1.073 3.225-1.608 0.066-0.033 0.127-0.061 0.22-0.103 0.548-0.22 1.069-0.169 1.303 0.295 0.267 0.534-0.042 0.952-0.516 1.27-0.652 0.323-1.28 0.637-1.912 0.952-0.558 0.277-1.116 0.563-1.678 0.825-0.178 0.084-0.244 0.183-0.244 0.384 0.009 1.43 0.005 2.859 0.005 4.289 0 0.178 0 0.361 0 0.563-4.636 0.009-9.253 0.009-13.908 0.009z"></path>
<path d="M7.711 12.112c0-0.595 0-1.148 0-1.716 0.066-0.014 0.136-0.033 0.202-0.038 1.444-0.108 2.827 0.131 4.144 0.736 1.092 0.497 2.208 0.9 3.436 0.891 1.078-0.009 2.095-0.248 3.056-0.727 1.083-0.544 2.166-1.083 3.248-1.627 0.070-0.037 0.145-0.066 0.239-0.108 0.445-0.202 0.984-0.159 1.233 0.319 0.248 0.473-0.028 0.975-0.459 1.223-0.047 0.033-0.075 0.066-0.112 0.084-1.261 0.623-2.508 1.289-3.792 1.866-2.278 1.027-4.57 0.984-6.858-0.023-0.825-0.366-1.636-0.797-2.555-0.862-0.581-0.052-1.172-0.019-1.781-0.019z"></path>
</svg>
