<?xml version="1.0" standalone="no"?>
<!DOCTYPE svg PUBLIC "-//W3C//DTD SVG 1.1//EN" "http://www.w3.org/Graphics/SVG/1.1/DTD/svg11.dtd" >
<svg xmlns="http://www.w3.org/2000/svg" xmlns:xlink="http://www.w3.org/1999/xlink" version="1.1">
<metadata>
Created by FontForge 20161003 at Mon Sep 30 17:47:01 2019
 By www-data
Original Fonts are (c) Bitstream. OpenDyslexic changes and additional glyphs by Abelardo Gonzalez are licensed under a Creative Commons Attribution 3.0 Unported License.
Based on a work at http://dyslexicfonts.com. 2012 by Abelardo Gonzalez. Copying is an act of love. Please copy.
Bitstream license available here: http://opendyslexic.org/legal/
</metadata>
<defs>
<font id="OpenDyslexicAlta-Regular" horiz-adv-x="1328" >
  <font-face 
    font-family="OpenDyslexicAlta"
    font-weight="400"
    font-stretch="normal"
    units-per-em="2048"
    panose-1="0 0 5 0 0 0 0 0 0 0"
    ascent="1638"
    descent="-410"
    x-height="1120"
    cap-height="1493"
    bbox="-91 -1068 2673 2419"
    underline-thickness="50"
    underline-position="-213"
    unicode-range="U+0020-FB02"
  />
<missing-glyph horiz-adv-x="1324" 
d="M1174 1444v-1806h-1024v1806h1024zM1060 1329h-795v-1397h795v1397z" />
    <glyph glyph-name="fi" unicode="fi" horiz-adv-x="1391" 
d="M521 1120h690l30 -1120h-235l20 987h-505l30 -987h-245l20 987h-176v133h176v78q0 91 23 157.5t68.5 113t113 74.5t157.5 43l185 20v-153l-176 -40q-50 0 -83.5 -14.5t-54 -40.5t-29.5 -61.5t-9 -77.5v-99zM1211 1321h-185v233h185v-233z" />
    <glyph glyph-name="fl" unicode="fl" horiz-adv-x="1462" 
d="M1201 1556v-1348l110 2v-210h-295v1423h-329q-50 0 -83.5 -9t-54 -30.5t-29.5 -57t-9 -87.5l10 -119h293v-143h-293l60 -977h-295l30 977h-166v143h166l10 78q0 93 21.5 161t65.5 111.5t112.5 64.5t163.5 21h512z" />
    <glyph glyph-name=".notdef" horiz-adv-x="1324" 
d="M1174 1444v-1806h-1024v1806h1024zM1060 1329h-795v-1397h795v1397z" />
    <glyph glyph-name="NULL" horiz-adv-x="0" 
 />
    <glyph glyph-name="NULL" horiz-adv-x="0" 
 />
    <glyph glyph-name="space" unicode=" " horiz-adv-x="800" 
 />
    <glyph glyph-name="exclam" unicode="!" horiz-adv-x="572" 
d="M150 481l19 357l20 655h193l10 -655l30 -357h-272zM412 0h-253l20 254h213z" />
    <glyph glyph-name="quotedbl" unicode="&#x22;" horiz-adv-x="901" 
d="M150 906l11 587h179l11 -587h-201zM550 906l10 587h180l11 -587h-201z" />
    <glyph glyph-name="numbersign" unicode="#" horiz-adv-x="1701" 
d="M625 1055l102 415h162l-104 -415h292l105 415h160l-103 -415h312v-154h-351l-82 -334h318v-153h-357l-104 -414h-160l103 414h-293l-103 -414h-161l104 414h-315v153h352l84 334h-322v154h361zM664 567h293l82 334h-291z" />
    <glyph glyph-name="dollar" unicode="$" horiz-adv-x="1268" 
d="M715 -294l-180 3l24 301q-96 3 -199.5 27t-209.5 72l4 240q102 -66 205 -100.5t205 -36.5l7 395q-105 20 -180.5 51.5t-124.5 76.5t-73.5 104t-27.5 134q3 164 113 255.5t315 101.5l4 235l100 -2l-4 -232q94 -5 180.5 -22t168.5 -46l-3 -155q-82 45 -168.5 69t-179.5 29
l-8 -466q114 -20 194.5 -49t133 -72t78.5 -101.5t29 -136.5q-2 -84 -32.5 -150.5t-85.5 -114t-131 -74.5t-169 -33zM575 1200q-63 -6 -113 -26t-84.5 -50t-52.5 -68.5t-18 -82.5q0 -87 66 -144.5t192 -78.5zM685 205q54 9 97.5 17.5t74 24.5t47.5 43t17 72q0 88 -61 140
t-185 76z" />
    <glyph glyph-name="percent" unicode="%" horiz-adv-x="2020" 
d="M494 1520q79 0 143 -28.5t109 -81t69.5 -128t24.5 -168.5q0 -95 -24.5 -170t-69.5 -128t-109 -81t-143 -28q-80 0 -143.5 28.5t-108 81t-68.5 128t-24 169.5q0 93 24 168t69 128t108.5 81.5t142.5 28.5zM624 -29h-161l943 1549h161zM494 1393q-43 0 -77.5 -19t-58.5 -54
t-36.5 -86t-12.5 -114q0 -130 48.5 -202t136.5 -72t137 72t49 202q0 63 -13 113.5t-37 86t-58.5 54.5t-77.5 19zM1526 784q79 0 142.5 -28.5t108.5 -81.5t69 -128.5t24 -168.5t-24.5 -168.5t-69.5 -128t-108.5 -81t-141.5 -28.5q-80 0 -144 28.5t-109 81t-69 128t-24 168.5
q0 94 24 169.5t69 128t109 81t144 28.5zM1526 657q-88 0 -137 -68.5t-49 -191.5q0 -121 49 -190.5t137 -69.5q42 0 76 18t58 51.5t37 82t13 108.5t-13 108.5t-37 82t-58 51.5t-76 18z" />
    <glyph glyph-name="ampersand" unicode="&#x26;" horiz-adv-x="1705" 
d="M1138 415q30 45 48 89.5t29 91.5t16 97.5t8 107.5h186q-6 -66 -12.5 -131.5t-21.5 -130t-42 -128t-73 -126.5l279 -285h-252l-143 147q-105 -90 -218 -133t-245 -43q-120 0 -220.5 36t-173 101t-113 155t-40.5 198q0 254 268 452q-48 63 -73 125.5t-25 122.5q0 81 29 147
t82 113.5t128 73t167 25.5q84 0 166 -18t167 -54l-70 -142q-88 48 -166 72t-147 24q-53 0 -96 -14.5t-74.5 -41t-48.5 -63t-17 -80.5q0 -51 30 -102q14 -26 44 -62t76 -84zM471 843q-93 -82 -135.5 -162.5t-42.5 -170.5q0 -74 28.5 -136.5t78.5 -108.5t118.5 -72t149.5 -26
q191 0 337 128z" />
    <glyph glyph-name="quotesingle" unicode="'" horiz-adv-x="470" 
d="M150 938v555h170v-555h-170z" />
    <glyph glyph-name="parenleft" unicode="(" horiz-adv-x="724" 
d="M687 1547q-154 -217 -238.5 -435.5t-94.5 -448.5q5 -116 14.5 -231t30.5 -231t56.5 -233.5t92.5 -237.5l-210 14q-99 247 -143.5 479.5t-44.5 456.5q19 223 112 440.5t265 440.5z" />
    <glyph glyph-name="parenright" unicode=")" horiz-adv-x="724" 
d="M355 1573q64 -124 106.5 -243.5t67 -236t35 -229.5t10.5 -224q0 -112 -25.5 -222.5t-68.5 -221t-98.5 -220t-115.5 -220.5l-229 14q152 217 237 436.5t106 450.5q0 115 -8 229.5t-28.5 230t-56 233t-91.5 237.5z" />
    <glyph glyph-name="asterisk" unicode="*" horiz-adv-x="1272" 
d="M688 1143l376 243l18 -139l-359 -194l399 -155l-98 -138l-336 203l40 -347l-154 -30v377l-296 -243l-98 138l359 195l-389 154l88 139l336 -203l-40 337l154 40v-377z" />
    <glyph glyph-name="plus" unicode="+" horiz-adv-x="1582" 
d="M707 727v557h168v-557h557v-170h-557v-557h-168v557h-557v170h557z" />
    <glyph glyph-name="comma" unicode="," horiz-adv-x="653" 
d="M150 -288l102 320v212h251v-212l-224 -320h-129z" />
    <glyph glyph-name="hyphen" unicode="-" horiz-adv-x="846" 
d="M689 488l-539 -9l7 164l539 10z" />
    <glyph glyph-name="period" unicode="." horiz-adv-x="599" 
d="M449 0h-299v323h299v-323z" />
    <glyph glyph-name="slash" unicode="/" horiz-adv-x="1028" 
d="M380 -198l-230 8l578 1664l150 -5z" />
    <glyph glyph-name="zero" unicode="0" horiz-adv-x="1332" 
d="M676 1520q251 0 378.5 -198.5t127.5 -576.5q-10 -377 -142.5 -575.5t-383.5 -198.5q-126 0 -220.5 50t-158 148t-95.5 242.5t-32 333.5q10 378 142.5 576.5t383.5 198.5zM676 1440q-313 0 -313 -550q0 -142 16.5 -245.5t52 -171t91 -100t133.5 -32.5t136.5 34.5t99 103
t64.5 171.5t34 240q0 550 -314 550z" />
    <glyph glyph-name="one" unicode="1" horiz-adv-x="1189" 
d="M1039 0h-860v280h330v1029l-359 -72v184l357 72h202v-1213h330v-280z" />
    <glyph glyph-name="two" unicode="2" horiz-adv-x="1248" 
d="M1098 290v-290h-948v290q79 66 162 131.5t173 133.5q88 67 149 120.5t102 98t67 83t46 76.5q38 76 38 148q0 60 -22 109.5t-61.5 85t-95 55t-122.5 19.5q-96 0 -200.5 -33t-225.5 -100v204q123 49 228.5 74t193.5 25q116 0 210 -30t160 -85.5t102 -134.5t36 -176
q0 -46 -8 -88.5t-26.5 -86t-49.5 -91t-76 -103.5q-13 -14 -52.5 -56t-106.5 -111q-134 -140 -168 -268h495z" />
    <glyph glyph-name="three" unicode="3" horiz-adv-x="1283" 
d="M150 360q85 -49 184.5 -74t208.5 -25q190 0 290 85q99 85 99 138q0 51 -24 96.5t-69 80t-110 54.5t-147 20h-174v166h182q150 0 228.5 59.5t78.5 171.5q0 115 -81 176.5t-234 61.5q-84 0 -178 -18t-209 -56v160q228 64 405 64q115 0 207.5 -27t157 -77.5t99 -122
t34.5 -160.5q0 -125 -70.5 -210t-202.5 -118q72 -6 129.5 -34.5t97 -75t60.5 -108t21 -133.5q0 -120 -39 -210.5t-113.5 -151t-183 -91t-248.5 -30.5q-186 0 -399 74v315z" />
    <glyph glyph-name="four" unicode="4" horiz-adv-x="1388" 
d="M150 422v125l621 946h254l10 -903h203v-168h-203l20 -422h-271l20 422h-654zM314 590h500l10 797z" />
    <glyph glyph-name="five" unicode="5" horiz-adv-x="1266" 
d="M213 1493h793v-150h-628v-386q32 7 58 13t49.5 9.5t45 5.5t43.5 2q125 0 225 -35.5t170.5 -101.5t108.5 -160t38 -211q0 -120 -38.5 -214.5t-111.5 -160t-180 -99.5t-243 -34q-186 0 -393 64v313q91 -49 186 -73t203 -24q87 0 154.5 26t114.5 65t71.5 84t24.5 83
q0 156 -96 232t-269 76q-81 0 -161 -18t-165 -56v750z" />
    <glyph glyph-name="six" unicode="6" horiz-adv-x="1331" 
d="M1084 1276q-76 36 -153.5 55t-153.5 19q-200 0 -305.5 -135t-120.5 -408q60 88 148 134t196 46q112 0 202 -35.5t153 -101.5t97 -160t34 -211q0 -115 -35.5 -209t-100.5 -160.5t-157 -102.5t-205 -36q-129 0 -228.5 50t-167 148t-102.5 242.5t-35 333.5q0 177 43.5 320
t124.5 244.5t195.5 156t255.5 54.5q76 0 153 -15t162 -45v-184zM683 827q-68 0 -122.5 -24t-93 -69t-59 -109.5t-20.5 -145.5q0 -51 20.5 -91t59 -68.5t93 -43.5t122.5 -15t122.5 15t93 43.5t59 68.5t20.5 91q0 81 -20.5 145.5t-59 109.5t-93 69t-122.5 24z" />
    <glyph glyph-name="seven" unicode="7" horiz-adv-x="1250" 
d="M917 1343h-767v150h950v-86l-372 -1407h-361z" />
    <glyph glyph-name="eight" unicode="8" horiz-adv-x="1364" 
d="M480 795q-130 32 -192.5 121t-62.5 217q0 79 30 146.5t87.5 116.5t143 76.5t196.5 27.5t196.5 -27.5t143.5 -76.5t87.5 -116.5t29.5 -146.5q0 -128 -62.5 -217t-191.5 -121q73 -17 133.5 -51t104 -82t67.5 -109t24 -133q0 -108 -37 -192t-106 -141t-167.5 -86.5
t-221.5 -29.5t-221.5 29.5t-167.5 86.5t-106 141t-37 192q0 72 24 133t67.5 109t104.5 82t134 51zM406 1174q0 -117 72 -181.5t204 -64.5q65 0 116.5 16.5t87 48t54.5 77.5t19 104q0 48 -19 89.5t-54.5 71.5t-87 47.5t-116.5 17.5q-66 0 -117 -17.5t-86.5 -47.5t-54 -71.5
t-18.5 -89.5zM682 729q-72 0 -129.5 -20t-97 -57t-61 -91t-21.5 -121q0 -38 21.5 -76.5t61 -70.5t97 -52t129.5 -20t129.5 20.5t97.5 52t61.5 70.5t21.5 76q0 67 -21.5 121t-61.5 91t-97.5 57t-129.5 20z" />
    <glyph glyph-name="nine" unicode="9" horiz-adv-x="1330" 
d="M246 335q76 -36 154 -55t153 -19q100 0 176.5 15t129.5 60t82.5 128t37.5 220q-58 -87 -146.5 -132.5t-197.5 -45.5q-112 0 -202 35t-153 100.5t-96.5 159.5t-33.5 211q0 115 35.5 209t100.5 160.5t157 102.5t205 36q129 0 228.5 -50t167 -148.5t102 -243t34.5 -333.5
q0 -177 -43.5 -320t-124 -244t-195 -155.5t-255.5 -54.5q-76 0 -153.5 15t-162.5 45v304zM631 806q82 0 148.5 7t113.5 31t72 71.5t25 128.5t-25 145.5t-72 109.5t-113.5 69t-148.5 24q-83 0 -149.5 -24t-113.5 -69t-72 -109.5t-25 -145.5t25 -128.5t72 -71.5t113.5 -31
t149.5 -7z" />
    <glyph glyph-name="colon" unicode=":" horiz-adv-x="561" 
d="M411 816h-261v285h261v-285zM411 0h-261v306h261v-306z" />
    <glyph glyph-name="semicolon" unicode=";" horiz-adv-x="629" 
d="M479 803h-243v293h243v-293zM150 -328l91 355v191h234v-191l-182 -355h-143z" />
    <glyph glyph-name="less" unicode="&#x3c;" horiz-adv-x="1637" 
d="M170 817l1317 351l-16 -181l-1060 -276l997 -453l-21 -241l-1237 574z" />
    <glyph glyph-name="equal" unicode="=" horiz-adv-x="1582" 
d="M1432 762h-1282v168h1282v-168zM1432 352h-1282v200h1282v-200z" />
    <glyph glyph-name="greater" unicode="&#x3e;" horiz-adv-x="1637" 
d="M171 378l1058 274l-994 455l16 182l1236 -575l-19 -226l-1318 -351z" />
    <glyph glyph-name="question" unicode="?" horiz-adv-x="1087" 
d="M601 401h-261v154q0 51 6 92t22 79t44.5 75.5t73.5 80.5l100 89q39 31 66.5 55t46 45t29.5 41.5t16 44.5q0 45 -17 86t-48.5 73t-75.5 51t-98 19q-79 0 -168.5 -35t-186.5 -102v158q186 113 390 113q92 0 165.5 -25.5t125 -71.5t79 -111.5t27.5 -144.5q0 -38 -12 -73
t-34 -71t-54 -74t-72 -81l-78 -86q-14 -23 -25 -41.5t-21 -31.5q-20 -27 -27 -50t-10 -53t-3 -82v-123zM597 -10h-263v284h263v-284z" />
    <glyph glyph-name="at" unicode="@" horiz-adv-x="2070" 
d="M1322 238q-60 -78 -137.5 -114t-180.5 -36q-86 0 -157 32.5t-122 92t-79.5 142t-28.5 182.5t28.5 183t79.5 142t122 92t157 33q103 0 180.5 -37.5t137.5 -113.5v131h143v-736q73 11 131 45t98 88.5t61 127t21 161.5q0 215 -127 375q-105 132 -253.5 201t-325.5 69
q-124 0 -236 -32.5t-209 -96.5q-78 -51 -140 -119t-105 -148.5t-66 -171.5t-23 -187q0 -80 14 -141.5t43.5 -117t75.5 -111t111 -123.5q52 -52 110.5 -87t123 -56.5t135.5 -30.5t149 -9q130 0 253.5 38.5t228.5 119.5l90 -181q-126 -97 -272.5 -148.5t-299.5 -51.5
q-186 0 -349 65t-292 191t-195.5 289.5t-66.5 353.5q0 183 67.5 347t194.5 290q130 128 298 195t358 67q214 0 394 -86.5t304 -247.5q75 -99 114.5 -213t39.5 -238q0 -132 -41 -236.5t-118 -178.5t-188 -114.5t-251 -43.5v154zM747 619q0 -64 18.5 -115t53 -86t83.5 -54
t111 -19q61 0 110 19t83.5 54.5t52.5 86.5t18 114t-18.5 113.5t-53 86t-84 54.5t-110.5 19q-60 0 -109 -19t-83.5 -54.5t-53 -86t-18.5 -113.5z" />
    <glyph glyph-name="A" unicode="A" horiz-adv-x="1668" 
d="M423 0h-273l590 1493h189l589 -1493h-290l-56 243h-673zM560 481h549l-275 828z" />
    <glyph glyph-name="B" unicode="B" horiz-adv-x="1379" 
d="M150 0v1493h466q115 0 205 -24.5t151 -71.5t93 -116t32 -157q0 -138 -63.5 -218.5t-188.5 -100.5q99 -16 171.5 -50t120 -83.5t70 -113.5t22.5 -140q0 -100 -37.5 -178t-108 -131t-171 -81t-226.5 -28h-536zM352 1357v-480h299q149 0 221 55t72 170q0 57 -18 103.5
t-54.5 80.5t-91.5 52.5t-129 18.5h-299zM352 713v-417h324q81 0 141.5 10.5t100 37t59 72t19.5 114.5q0 49 -78 117q-80 66 -242 66h-324z" />
    <glyph glyph-name="C" unicode="C" horiz-adv-x="1504" 
d="M1354 1165q-202 189 -463 189q-128 0 -226.5 -39.5t-165.5 -117t-101.5 -191t-34.5 -261.5q2 -131 36.5 -220.5t101.5 -144.5t164.5 -79t225.5 -24q261 0 463 189v-351q-212 -144 -475 -144q-170 0 -305 53.5t-229 154t-144.5 243.5t-50.5 323t50.5 323.5t144.5 244
t229 154t305 53.5q267 0 475 -142v-213z" />
    <glyph glyph-name="D" unicode="D" horiz-adv-x="1555" 
d="M150 0v1493h415q217 0 375.5 -44.5t261.5 -136t153 -232t50 -332.5q0 -193 -50.5 -334t-154 -233t-261.5 -136.5t-374 -44.5h-415zM362 1327v-951h244q154 0 257 18.5t170 63.5t105 120.5t64 189.5q0 280 -143.5 419.5t-452.5 139.5h-244z" />
    <glyph glyph-name="E" unicode="E" horiz-adv-x="1262" 
d="M1112 0h-962v1493h944v-170h-742v-442h711v-170h-711v-401h760v-310z" />
    <glyph glyph-name="F" unicode="F" horiz-adv-x="1158" 
d="M402 0h-252l40 1493h818v-180h-616l-20 -430h582v-210h-572z" />
    <glyph glyph-name="G" unicode="G" horiz-adv-x="1604" 
d="M1224 534h-320v216h550v-611q-118 -84 -258 -126t-301 -42q-175 0 -313.5 52.5t-234.5 152t-146.5 243t-50.5 326.5t50.5 327t146.5 243.5t234.5 152t313.5 52.5q147 0 277.5 -36t242.5 -106v-195q-224 191 -503 191q-275 0 -412 -152t-137 -457q5 -138 40 -228.5
t102.5 -143.5t168.5 -74.5t238 -21.5q54 0 102.5 4.5t89 14t71.5 23.5t49 34v161z" />
    <glyph glyph-name="H" unicode="H" horiz-adv-x="1458" 
d="M382 0h-232l20 1493h212v-712h694v712h212l20 -1493h-232v501h-694v-501z" />
    <glyph glyph-name="I" unicode="I" horiz-adv-x="542" 
d="M150 0q11 187 17.5 373.5t10 373t6 373t6.5 373.5h172q5 -374 7.5 -747t22.5 -746h-242z" />
    <glyph glyph-name="J" unicode="J" horiz-adv-x="926" 
d="M564 1495l212 -14l-54 -1418q-3 -135 -29 -228.5t-80.5 -152t-139 -85.5t-202.5 -29l-117 12l-4 330l102 -22q67 3 115.5 21t79.5 44.5t46.5 58.5t16.5 64z" />
    <glyph glyph-name="K" unicode="K" horiz-adv-x="1505" 
d="M412 0h-262l40 1493h202l-20 -631l670 631h260l-741 -696l794 -797h-476l-507 719z" />
    <glyph glyph-name="L" unicode="L" horiz-adv-x="1239" 
d="M1069 0h-919l20 1493h202v-1183h717z" />
    <glyph glyph-name="M" unicode="M" horiz-adv-x="1706" 
d="M406 0h-256l30 1493h301l371 -886l393 886h281l30 -1493h-257l40 1311l-365 -1074h-243l-365 1074z" />
    <glyph glyph-name="N" unicode="N" horiz-adv-x="1450" 
d="M406 0h-256l40 1463h252l642 -1179l30 1209h186v-1493h-292l-662 1249z" />
    <glyph glyph-name="O" unicode="O" horiz-adv-x="1682" 
d="M842 1520q157 0 284.5 -54.5t217.5 -156t139 -244.5t49 -320t-49 -320t-139 -244t-217.5 -155.5t-284.5 -54.5q-158 0 -285.5 54.5t-218 155.5t-139.5 244t-49 320t49 320t139.5 244.5t218 156t285.5 54.5zM842 1356q-110 0 -198.5 -42.5t-151 -121.5t-96 -192.5
t-33.5 -254.5q0 -116 33.5 -191.5t96 -119.5t151 -61.5t198.5 -17.5t198 17.5t150 61.5t95.5 119.5t33.5 191.5q0 141 -33.5 254.5t-95.5 192.5t-150 121.5t-198 42.5z" />
    <glyph glyph-name="P" unicode="P" horiz-adv-x="1314" 
d="M392 0h-242l60 1493h446q253 0 380.5 -113t127.5 -333q0 -111 -32.5 -197.5t-96 -146.5t-158.5 -91.5t-221 -31.5h-244zM422 1407l-20 -561h273q152 0 234 72.5t82 208.5q0 135 -82 207.5t-234 72.5h-253z" />
    <glyph glyph-name="Q" unicode="Q" horiz-adv-x="1751" 
d="M1601 -264h-474l-211 239q-33 -2 -50.5 -3t-33.5 -1q-153 0 -278.5 54.5t-215 155.5t-139 244t-49.5 320t49 320t139.5 244.5t218 156t285.5 54.5q157 0 284.5 -54.5t217.5 -156t139 -244.5t49 -320q0 -130 -22 -230.5t-57.5 -179.5t-79.5 -139t-88 -109zM806 341l83 139
q120 -55 242 -71q188 104 188 336q0 141 -33.5 254.5t-95.5 192.5t-150 121.5t-198 42.5t-198.5 -42.5t-151 -121.5t-96 -192.5t-33.5 -254.5q0 -77 17.5 -135t46.5 -100.5t65.5 -70.5t75.5 -45.5t76.5 -26.5t67.5 -12z" />
    <glyph glyph-name="R" unicode="R" horiz-adv-x="1463" 
d="M1313 0h-287l-151 383q-37 75 -71 123t-72.5 76t-84 38.5t-105.5 10.5h-150v-631h-242v1493h456q113 0 201.5 -26.5t150 -80.5t94 -134.5t32.5 -188.5q0 -142 -60 -234.5t-166 -128.5q66 -22 126.5 -93.5t123.5 -198.5zM372 1387v-550h254q58 0 114.5 18.5t101 49.5
t72 72t27.5 86q0 96 -27.5 158.5t-72 99t-101 51.5t-114.5 15h-254z" />
    <glyph glyph-name="S" unicode="S" horiz-adv-x="1351" 
d="M1111 1247q-115 55 -216.5 82t-197.5 27q-166 0 -255 -64t-89 -182q0 -50 13.5 -86.5t46 -63.5t87.5 -46.5t138 -34.5l122 -25q226 -43 333.5 -151.5t107.5 -290.5q0 -218 -144.5 -329.5t-427.5 -111.5q-106 0 -225 23.5t-248 71.5v318q124 -69 241 -104t232 -35
q87 0 154 19t113 49t70 65.5t24 68.5q0 30 -16.5 61.5t-51.5 60.5t-89.5 53.5t-131.5 39.5l-123 24q-113 22 -194 56.5t-133 84t-76.5 115.5t-24.5 152q0 99 36 178t103.5 134t164.5 84.5t220 29.5q210 0 437 -76v-197z" />
    <glyph glyph-name="T" unicode="T" horiz-adv-x="1563" 
d="M680 1343l-530 -20v170h1263v-170l-530 20l40 -1343h-283z" />
    <glyph glyph-name="U" unicode="U" horiz-adv-x="1443" 
d="M150 1493h213l-20 -767q-3 -120 19.5 -205.5t69.5 -140t119.5 -80t170.5 -25.5q97 0 169 25.5t119.5 80t69.5 140t19 205.5l-19 767h213v-932q0 -292 -144.5 -441t-426.5 -149q-283 0 -427.5 149t-144.5 441v932z" />
    <glyph glyph-name="V" unicode="V" horiz-adv-x="1668" 
d="M1518 1493l-519 -1493h-329l-520 1493h211l473 -1117l474 1117h210z" />
    <glyph glyph-name="W" unicode="W" horiz-adv-x="2190" 
d="M798 0h-314l-334 1493h194l304 -1072l353 692h177l324 -712l343 1092h195l-375 -1493h-294l-275 806z" />
    <glyph glyph-name="X" unicode="X" horiz-adv-x="1578" 
d="M150 0l513 697l-445 796h217l371 -635l373 635h217l-460 -797l492 -696h-327l-310 535l-313 -535h-328z" />
    <glyph glyph-name="Y" unicode="Y" horiz-adv-x="1559" 
d="M638 0v511l-488 982h217l414 -764l411 764h217l-498 -982v-511h-273z" />
    <glyph glyph-name="Z" unicode="Z" horiz-adv-x="1519" 
d="M1094 1323h-921v170h1173v-154l-944 -1039h967v-300h-1219v284z" />
    <glyph glyph-name="bracketleft" unicode="[" horiz-adv-x="674" 
d="M574 -270h-424v1826h424v-143h-240v-1460h240v-223z" />
    <glyph glyph-name="backslash" unicode="\" horiz-adv-x="931" 
d="M571 -206l-421 1698l170 -5l461 -1701z" />
    <glyph glyph-name="bracketright" unicode="]" horiz-adv-x="674" 
d="M100 1413v143h424v-1826h-424v213h239v1470h-239z" />
    <glyph glyph-name="asciicircum" unicode="^" horiz-adv-x="1582" 
d="M150 936l563 557h156l563 -557h-311l-330 455l-330 -455h-311z" />
    <glyph glyph-name="underscore" unicode="_" horiz-adv-x="1364" 
d="M150 -264h1064v-179h-1064v179z" />
    <glyph glyph-name="grave" unicode="`" horiz-adv-x="779" 
d="M356 1344l-206 374h197l282 -374h-273z" />
    <glyph glyph-name="a" unicode="a" horiz-adv-x="1246" 
d="M967 1120h157v-1119l-157 -2v169q-58 -100 -146 -148.5t-213 -48.5q-102 0 -186 42.5t-144.5 119.5t-94 185.5t-33.5 240.5t33.5 240.5t94 185.5t144.5 119.5t186 42.5q125 0 213 -48.5t146 -148.5v170zM282 579q12 -73 34 -125t58.5 -85t89.5 -48t126 -15t122.5 10
t81.5 41t49.5 87t26.5 149q5 204 -61.5 312t-213.5 108q-73 0 -131 -29.5t-98.5 -85.5t-62 -136.5t-21.5 -182.5z" />
    <glyph glyph-name="b" unicode="b" horiz-adv-x="1302" 
d="M335 970q29 50 65.5 84t81 54.5t97 29.5t114.5 9q102 0 186.5 -42.5t145 -119.5t94 -185.5t33.5 -240.5t-33.5 -240.5t-94 -185.5t-145 -119.5t-186.5 -42.5q-110 0 -184 15.5t-123 45.5t-78 73t-49 98q-10 21 -18 85t-15 160.5t-13 221t-12.5 268t-14 300.5t-16.5 318
h185zM1035 601q-3 97 -22.5 174t-56.5 130.5t-92 82t-128 28.5t-131 -28t-98.5 -82t-62 -133t-21.5 -181q7 -52 14 -93.5t19.5 -74.5t32.5 -56.5t52.5 -38.5t80 -22.5t114.5 -7.5q61 4 111 19.5t88 49t63 90t37 143.5z" />
    <glyph glyph-name="c" unicode="c" horiz-adv-x="1186" 
d="M1036 915q-157 86 -315 86q-90 0 -158.5 -30.5t-115 -88t-70 -139.5t-23.5 -184q7 -72 30.5 -121.5t66.5 -81t107.5 -47.5t154.5 -21q40 0 80.5 -1t80.5 2t79.5 12.5t78.5 30.5l4 -289q-78 -36 -159.5 -54t-175.5 -18q-126 0 -228 41t-174 117.5t-110.5 185.5t-38.5 244
q0 137 39 246t111.5 185t177 116.5t235.5 40.5q85 0 166 -17.5t157 -52.5v-162z" />
    <glyph glyph-name="d" unicode="d" horiz-adv-x="1321" 
d="M987 1556h184l-20 -1556h-184v168q-58 -100 -146 -148.5t-213 -48.5q-102 0 -186 42.5t-144.5 119.5t-94 185.5t-33.5 240.5t33.5 240.5t94 185.5t144.5 119.5t186 42.5q125 0 213 -48.5t146 -148.5zM282 579q12 -73 34 -125t58.5 -85t89.5 -48t126 -15t127.5 10t90.5 41
t55 87t22 149q-5 203 -74.5 311.5t-215.5 108.5q-73 0 -131 -29.5t-98.5 -85.5t-62 -136.5t-21.5 -182.5z" />
    <glyph glyph-name="e" unicode="e" 
d="M1178 606h-836q1 -112 29 -181t79 -107.5t123.5 -53.5t164.5 -20q53 0 104 1t101.5 7t100 19.5t98.5 39.5l4 -254q-100 -42 -203 -64t-212 -22q-134 5 -241 46t-183 115t-116.5 179t-40.5 238q5 138 44 248.5t109.5 188t170.5 119.5t226 42q112 -5 197.5 -34t144.5 -86
t93 -144t43 -207v-70zM1018 766q-8 47 -33 97.5t-65.5 92t-95.5 68t-123 26.5q-77 0 -139.5 -25.5t-107 -66t-68.5 -91t-24 -101.5h656z" />
    <glyph glyph-name="f" unicode="f" horiz-adv-x="964" 
d="M803 1516v-153l-166 20q-35 0 -59 -6t-39 -24t-21.5 -50t-6.5 -84l10 -99h293v-183h-293l30 -937h-265l30 937h-166v183h166l10 78q0 93 24.5 157.5t67.5 104.5t99.5 58t121.5 18z" />
    <glyph glyph-name="g" unicode="g" horiz-adv-x="1321" 
d="M987 1120h184l-30 -981q-6 -193 -40 -322.5t-98.5 -208t-160.5 -111.5t-227 -33q-97 0 -183 14.5t-167 44.5v328q81 -45 160 -65.5t161 -20.5q90 0 155.5 34.5t110 86.5t70 111t35.5 109v61q-24 -35 -58 -65t-78 -53t-97.5 -36t-115.5 -13q-103 0 -187.5 41t-144.5 116
t-93 181t-33 235q0 130 33 236t93 181t144.5 116t187.5 41q246 0 359 -197zM887 584q0 100 -21 178t-61.5 132t-98.5 82t-133 28q-74 0 -132 -28t-98.5 -82t-61.5 -132t-21 -178q10 -99 30.5 -156.5t55.5 -86t87 -36t126 -7.5q75 0 135.5 7.5t103 36t66 86t23.5 156.5z" />
    <glyph glyph-name="h" unicode="h" horiz-adv-x="1278" 
d="M1128 0h-234l30 670q4 96 -11 160.5t-47 103.5t-80 56t-110 17q-75 0 -134.5 -27.5t-101 -77t-63.5 -118.5t-22 -151l20 -633h-225l40 1556h185l-20 -610q66 102 155 151.5t207 49.5q194 0 292.5 -119t98.5 -352z" />
    <glyph glyph-name="i" unicode="i" horiz-adv-x="534" 
d="M354 1323h-184l10 233h164zM150 0q20 297 26 575.5t4 544.5h164q-9 -253 -0.5 -532.5t40.5 -587.5h-234z" />
    <glyph glyph-name="j" unicode="j" horiz-adv-x="734" 
d="M584 1323h-184l10 233h164zM367 1115l174 -3l-40 -1140q-2 -107 -23 -186t-64 -132.5t-108.5 -81t-155.5 -30.5l-100 2l5 276h79q52 4 86 14.5t54.5 39t30.5 81t14 140.5z" />
    <glyph glyph-name="k" unicode="k" horiz-adv-x="1324" 
d="M395 0h-245l40 1556h185l-10 -879l379 443h235l-424 -524l619 -596h-380l-429 527z" />
    <glyph glyph-name="l" unicode="l" horiz-adv-x="700" 
d="M550 0h-400q3 195 7 375t10.5 358t14.5 358t18 375h174q-9 -166 -15.5 -318t-12 -301t-8.5 -301t-4 -318h216v-228z" />
    <glyph glyph-name="m" unicode="m" horiz-adv-x="1985" 
d="M1835 0h-275l70 700q0 81 -9.5 140.5t-32.5 98.5t-62 58.5t-97 19.5q-72 0 -126 -29t-91.5 -80.5t-57.5 -122t-24 -152.5l-30 -633h-255l90 710q0 163 -56.5 240t-176.5 77q-71 0 -129 -31t-100 -84.5t-65 -125.5t-23 -153l20 -633h-255l50 1120h185l-20 -174
q63 103 151 152t209 49q123 0 217.5 -62t136.5 -180q34 62 72 107.5t83 75.5t98 44.5t118 14.5q87 0 155 -31.5t114.5 -91.5t71 -147.5t24.5 -200.5z" />
    <glyph glyph-name="n" unicode="n" horiz-adv-x="1308" 
d="M1158 0h-264l40 680q0 159 -52 238t-176 79q-84 0 -146.5 -24.5t-103.5 -70.5t-61 -111.5t-20 -147.5l30 -643h-255l30 1130h185v-134q33 25 71.5 52t83.5 49t96.5 36t110.5 14q194 0 292.5 -119t108.5 -352z" />
    <glyph glyph-name="o" unicode="o" 
d="M664 1147q120 0 215.5 -40t161.5 -116t101.5 -185t35.5 -247t-35.5 -247t-101.5 -184.5t-161.5 -116t-215.5 -40.5t-215.5 40.5t-162 116t-101.5 184.5t-35 247t35 247t101.5 185t162 116t215.5 40zM664 1011q-74 0 -133 -29t-100.5 -83.5t-64 -132.5t-22.5 -175
q0 -98 22 -157.5t63.5 -91.5t100.5 -42.5t134 -10.5q73 0 132.5 10.5t100.5 43t63.5 91.5t22.5 157q0 96 -22.5 174t-63.5 132.5t-100.5 84t-132.5 29.5z" />
    <glyph glyph-name="p" unicode="p" horiz-adv-x="1360" 
d="M385 -426h-235l89 686v843h185l-31 -153q58 100 146 148.5t212 48.5q102 0 186.5 -42.5t145 -119.5t94 -185.5t33.5 -240.5t-33.5 -240.5t-94 -185.5t-145 -119.5t-186.5 -42.5q-124 0 -212 48.5t-146 148.5zM1092 591q0 102 -21.5 182.5t-62 136.5t-98.5 85.5t-131 29.5
t-131 -29.5t-98.5 -85.5t-62 -136.5t-21.5 -182.5t23 -164t65.5 -96t102 -45.5t132.5 -11.5t129.5 11.5t95 45.5t58.5 96t20 164z" />
    <glyph glyph-name="q" unicode="q" horiz-adv-x="1488" 
d="M1171 -423l-260 -3l56 594q-58 -100 -146 -148.5t-213 -48.5q-102 0 -186 42.5t-144.5 119.5t-94 185.5t-33.5 240.5t33.5 240.5t94 185.5t144.5 119.5t186 42.5q125 0 213 -48.5t146 -148.5l30 170h178l-63 -1186l226 -216zM272 585q0 -102 20.5 -162.5t60 -92.5t97 -42
t130.5 -10t132 10t100.5 42t64 92.5t22.5 162.5t-21.5 182.5t-62 136.5t-99 85.5t-131.5 29.5t-131 -29.5t-98.5 -85.5t-62 -136.5t-21.5 -182.5z" />
    <glyph glyph-name="r" unicode="r" horiz-adv-x="979" 
d="M828 928q-30 18 -61.5 21.5t-75.5 3.5q-78 0 -133.5 -27.5t-91 -79t-52 -124t-16.5 -162.5l40 -560h-288q21 116 36 210t25 177.5t15 161.5t7 163t0.5 181.5t-5.5 216.5h170v-114q14 11 45 33t76 43.5t102.5 38t123.5 16.5q19 0 37 -2.5t46 -7.5v-189z" />
    <glyph glyph-name="s" unicode="s" horiz-adv-x="1156" 
d="M946 933q-157 80 -336 80q-138 0 -211 -46.5t-73 -131.5q0 -37 12.5 -65t42 -50.5t78.5 -40.5t123 -34l63 -14q98 -21 166.5 -48t112 -65t63 -89t19.5 -120q0 -78 -32 -140.5t-91.5 -106.5t-145.5 -67.5t-194 -23.5q-179 0 -393 70v270q203 -106 397 -106q130 0 190 39
t60 111q-32 59 -57 88q-23 26 -195 64l-64 15q-86 18 -147 42t-100 58.5t-57.5 82t-18.5 112.5q0 79 28.5 140.5t83.5 103.5t135 64t183 22q206 0 358 -60v-154z" />
    <glyph glyph-name="t" unicode="t" horiz-adv-x="999" 
d="M285 1120l10 278h195l-10 -278h259v-143h-259l-10 -488q0 -69 8 -111t29.5 -65t58.5 -31t94 -8h189v-274h-189q-107 0 -180 18.5t-119 61t-66 113.5t-20 176l10 608h-135v143h135z" />
    <glyph glyph-name="u" unicode="u" horiz-adv-x="1248" 
d="M150 1120h154v-511q10 -159 67 -238.5t181 -79.5q75 0 132.5 24.5t98 70.5t63.5 111.5t28 147.5l20 475h204l-20 -1120h-184l10 172q-67 -103 -155 -152t-206 -49q-194 0 -293.5 119.5t-99.5 351.5v678z" />
    <glyph glyph-name="v" unicode="v" horiz-adv-x="1390" 
d="M830 0h-270l-410 1120h195l350 -820l350 820h195z" />
    <glyph glyph-name="w" unicode="w" horiz-adv-x="1803" 
d="M690 0h-247l-293 1120h184l230 -784l209 414h257l210 -414l229 784h184l-293 -1120h-257l-201 508z" />
    <glyph glyph-name="x" unicode="x" horiz-adv-x="1426" 
d="M711 661l337 459h187l-395 -595l436 -525h-297l-256 390l-276 -390h-297l445 536l-388 584h197z" />
    <glyph glyph-name="y" unicode="y" horiz-adv-x="1390" 
d="M1045 1120h195l-472 -1224q-49 -110 -93 -177t-89.5 -104t-95.5 -49t-112 -12h-167v244h128q38 0 66 9.5t52 27t45.5 42.5t47.5 57l79 159l-479 1027h195l396 -651z" />
    <glyph glyph-name="z" unicode="z" horiz-adv-x="1209" 
d="M862 983h-667v137h864v-168l-632 -705h622v-247h-899v268z" />
    <glyph glyph-name="braceleft" unicode="{" horiz-adv-x="1059" 
d="M928 -143v-205h-64q-125 3 -203.5 21t-124 60.5t-63.5 114t-21 182.5l4 238q-3 75 -15.5 126.5t-39.5 83.5t-73 46t-117 16h-61l2 144h61q72 3 120 15.5t77.5 41.5t42.5 77.5t15 123.5l4 240q2 111 22 180t68 108t129 54.5t206 18.5h62l-3 -144h-68q-75 -3 -120 -12
t-69 -32.5t-32.5 -66.5t-9.5 -113l-4 -248q-2 -78 -13.5 -133.5t-36 -93t-63.5 -59.5t-94 -34q55 -15 91.5 -39.5t58 -62t32 -88.5t13.5 -119l-4 -248q4 -51 13 -86.5t32 -59t65 -35t113 -12.5h68z" />
    <glyph glyph-name="bar" unicode="|" horiz-adv-x="510" 
d="M240 1565h170l-40 -1038l-30 -1010h-190z" />
    <glyph glyph-name="braceright" unicode="}" horiz-adv-x="911" 
d="M117 -334v154h70q70 0 114 9t68.5 34t33.5 69.5t9 116.5v248q0 73 10.5 126.5t34.5 91t62 60.5t94 37q-56 12 -94 35t-62 61t-34.5 94t-10.5 134v248q0 71 -9 115.5t-33.5 70t-68.5 34.5t-114 9h-70v143h63q124 0 205 -16t127.5 -57.5t65 -112.5t18.5 -182v-240
q0 -75 12.5 -125.5t41.5 -81t77 -44t119 -13.5h62v-143h-62q-71 0 -119 -13.5t-77 -44.5t-41.5 -82.5t-12.5 -126.5v-239q0 -111 -18.5 -182.5t-65 -113t-127.5 -57.5t-205 -16h-63z" />
    <glyph glyph-name="asciitilde" unicode="~" horiz-adv-x="1582" 
d="M1432 659q-53 -39 -100.5 -75t-94 -63t-92.5 -43t-94 -16q-110 0 -256 89q-5 2 -9.5 3.5t-6.5 2.5q-4 2 -9 4t-13 4q-154 82 -249 82q-44 0 -87 -17t-87 -46t-89.5 -67t-94.5 -80v208q52 39 100 67t94.5 46t92.5 26.5t94 8.5q110 0 257 -60l37 -14q156 -62 249 -62
q43 0 85 9t85.5 28.5t90 50t97.5 72.5v-158z" />
    <glyph glyph-name="uni00A0" unicode="&#xa0;" horiz-adv-x="1603" 
 />
    <glyph glyph-name="exclamdown" unicode="&#xa1;" horiz-adv-x="601" 
d="M180 1533h183l30 -274h-243zM385 1015l32 -356l34 -655l-263 -8l-14 655l9 357z" />
    <glyph glyph-name="cent" unicode="&#xa2;" horiz-adv-x="1196" 
d="M1044 919q-73 43 -140.5 65t-136.5 26l-15 -814q70 4 139 24t142 57l-5 -250q-66 -28 -134 -44.5t-146 -22.5l-5 -284l-102 2l5 288q-120 12 -213 58t-156.5 122t-96 180t-30.5 233q3 129 38.5 232t101.5 176.5t161 116.5t216 52l5 287l102 -2l-4 -287q73 -5 141 -23
t135 -50zM664 1008q-148 -15 -231.5 -131.5t-87.5 -321.5q-1 -72 19 -132.5t59 -106t96.5 -75t130.5 -39.5z" />
    <glyph glyph-name="sterling" unicode="&#xa3;" horiz-adv-x="1313" 
d="M1158 1261q-75 42 -142.5 64t-128.5 23q-74 -4 -125 -21.5t-83 -58t-47.5 -109t-18.5 -174.5l-6 -215l391 -7l-3 -123l-391 7l-12 -435l557 -9l-6 -220l-993 17l6 220l236 -4l12 435l-199 3l3 123l199 -3l7 238q3 130 31.5 223t85 152.5t141.5 88.5t202 32
q60 -1 135.5 -18t153.5 -47z" />
    <glyph glyph-name="currency" unicode="&#xa4;" horiz-adv-x="1418" 
d="M1154 1202l114 -115l-206 -206q73 -118 73 -240q0 -63 -19 -120.5t-59 -114.5l209 -207l-114 -113l-207 207q-60 -40 -117.5 -59t-118.5 -19q-117 0 -239 74l-207 -207l-113 115l207 206q-74 125 -74 238q0 64 19 121.5t57 114.5l-207 206l115 115l207 -207
q55 39 113 57.5t122 18.5q60 0 118.5 -18t119.5 -56zM978 643q0 56 -20.5 104.5t-57 84.5t-85.5 56.5t-106 20.5q-56 0 -105 -20.5t-86 -56.5t-58 -84.5t-21 -104.5q0 -57 21 -94.5t57.5 -59.5t85.5 -31t106 -9t106 9t85 31.5t57 59.5t21 94z" />
    <glyph glyph-name="yen" unicode="&#xa5;" horiz-adv-x="1457" 
d="M838 578h415v-163h-413l20 -415h-261l30 415h-416v163h416v51l-104 155h-332v123h264l-307 586h210l369 -700l367 700h211l-318 -586h264v-123h-331l-84 -155v-51z" />
    <glyph glyph-name="brokenbar" unicode="&#xa6;" horiz-adv-x="470" 
d="M410 1565l-39 -932h-170l39 932h170zM200 526h170l-30 -1009h-190z" />
    <glyph glyph-name="section" unicode="&#xa7;" horiz-adv-x="1138" 
d="M887 1298q-167 78 -282 78q-97 0 -151 -39.5t-54 -111.5q0 -89 206 -205l40 -23q106 -60 175 -109t102 -87q65 -77 65 -178q0 -91 -45.5 -160t-139.5 -123q63 -52 91 -106.5t28 -118.5q0 -71 -26.5 -128t-75.5 -97.5t-118.5 -62.5t-156.5 -22q-73 0 -150 14.5t-165 43.5
v214q88 -39 161.5 -58.5t131.5 -19.5q51 0 91 6t67.5 21t42 40t14.5 63q0 82 -221 205l-25 14q-108 60 -177 109.5t-101 87.5q-64 76 -64 178q0 91 46.5 162.5t137.5 120.5q-118 88 -118 225q0 65 26 118t74 91t115.5 59t150.5 21q73 0 149.5 -14.5t155.5 -43.5v-164z
M437 960q-125 -91 -125 -182q0 -76 70 -142q68 -67 319 -202q125 89 125 182q0 75 -71 143q-72 67 -318 201z" />
    <glyph glyph-name="dieresis" unicode="&#xa8;" horiz-adv-x="937" 
d="M368 1350h-218v217h218v-217zM787 1350h-218v217h218v-217z" />
    <glyph glyph-name="copyright" unicode="&#xa9;" horiz-adv-x="1782" 
d="M891 1485q305 0 524 -219q217 -217 217 -525q0 -305 -217 -522q-219 -219 -524 -219t-524 219q-217 217 -217 522q0 308 217 525q219 219 524 219zM891 1382q-263 0 -451 -188q-94 -94 -142 -208t-48 -245q0 -130 48 -232.5t142 -187.5q94 -64 206.5 -101.5t244.5 -37.5
q133 0 246 37.5t207 101.5q94 73 140 180.5t46 239.5q0 265 -186 453q-188 188 -453 188zM1190 1038q-130 65 -262 65q-75 0 -133.5 -27t-99 -75.5t-62 -115t-21.5 -144.5q0 -50 22 -98.5t63.5 -87.5t102 -63t138.5 -24q64 0 125 15.5t127 49.5v-187q-67 -29 -135.5 -43
t-138.5 -14q-108 0 -194.5 31.5t-147 90.5t-93 142.5t-32.5 187.5q0 105 32.5 188.5t93 142t147 89.5t194.5 31q73 0 140.5 -14t133.5 -41v-99z" />
    <glyph glyph-name="ordfeminine" unicode="&#xaa;" horiz-adv-x="1012" 
d="M860 717h-149v112q-45 -63 -116 -97t-165 -34q-64 0 -116 17.5t-88.5 50t-56 78t-19.5 102.5q0 136 95 204.5t284 68.5h182v4q0 182 -234 182q-63 0 -130 -17t-136 -51v127q147 56 287 56q184 0 273 -87.5t89 -267.5v-448zM701 1169h-127q-161 0 -224 -33
q-63 -35 -63 -113q0 -64 49 -102.5t131 -38.5q52 0 95 19t74 53t48 81.5t17 104.5v29zM862 469h-688v123h688v-123z" />
    <glyph glyph-name="guillemotleft" unicode="&#xab;" horiz-adv-x="1261" 
d="M150 519l44 120l484 402l-7 -191l-310 -257l291 -279l-48 -229zM584 504l44 120l483 402l-6 -191l-311 -258l292 -278l-48 -229z" />
    <glyph glyph-name="logicalnot" unicode="&#xac;" horiz-adv-x="1612" 
d="M1264 692l-1114 -20v190h1282l30 -575h-248z" />
    <glyph glyph-name="registered" unicode="&#xae;" horiz-adv-x="1782" 
d="M891 1485q305 0 524 -219q217 -217 217 -525q0 -305 -217 -522q-219 -219 -524 -219t-524 219q-217 217 -217 522q0 308 217 525q219 219 524 219zM891 1382q-264 0 -451 -174q-94 -88 -142 -192.5t-48 -225.5t48 -224.5t142 -191.5q189 -175 451 -175q264 0 453 175
q186 172 186 416t-186 418q-188 174 -453 174zM586 338v836h285q350 0 350 -240q0 -87 -52 -142.5t-149 -72.5q22 -7 58 -46q32 -38 79 -112l137 -223h-172l-129 209q-59 96 -95 122q-37 25 -51 25h-56v-356h-205zM791 1121v-276h123q55 0 92.5 7.5t61 23.5t33.5 42t10 64
t-10.5 64.5t-33.5 43t-61 24t-92 7.5h-123z" />
    <glyph glyph-name="macron" unicode="&#xaf;" horiz-adv-x="898" 
d="M748 1378h-598v148h598v-148z" />
    <glyph glyph-name="degree" unicode="&#xb0;" horiz-adv-x="934" 
d="M467 1520q64 0 123 -24.5t102 -70.5q46 -45 69 -102t23 -123t-24.5 -123.5t-67.5 -100t-101.5 -67t-125.5 -24.5q-68 0 -125.5 24t-99.5 66t-66 99.5t-24 125.5q0 67 24.5 125.5t67.5 101.5t101 68t124 25zM467 1441q-40 0 -75 -13.5t-60.5 -37t-40 -55.5t-14.5 -68
t14.5 -67t40 -54.5t60.5 -36.5t75 -13t75 13t60.5 36.5t40 54.5t14.5 67t-15 67.5t-40.5 55.5t-60.5 37.5t-74 13.5z" />
    <glyph glyph-name="plusminus" unicode="&#xb1;" horiz-adv-x="1582" 
d="M707 897v387h168v-387h557v-170h-557v-387h-168v387h-557v170h557zM1432 0h-1282v190h1282v-190z" />
    <glyph glyph-name="twosuperior" unicode="&#xb2;" horiz-adv-x="898" 
d="M324 833h424v-165h-598v161q17 16 41 37.5t56 49.5q86 76 150.5 131t107.5 95.5t64.5 69t21.5 52.5q0 33 -13.5 60t-38.5 46.5t-60 30t-77 10.5q-103 0 -246 -70v123q78 28 144 42t123 14q72 0 131 -17.5t101 -49t64.5 -75.5t22.5 -98q0 -35 -20.5 -71t-62 -79
t-103.5 -97t-145 -125z" />
    <glyph glyph-name="threesuperior" unicode="&#xb3;" horiz-adv-x="919" 
d="M159 859q102 -53 238 -53q54 0 95.5 3.5t69 14.5t41.5 31.5t14 55.5q0 75 -55 112.5t-164 37.5h-86v108h94q94 0 142.5 31.5t48.5 91.5q0 58 -49.5 88.5t-145.5 30.5q-40 0 -91 -9t-132 -32v115q148 35 256 35q72 0 130 -15.5t98.5 -43.5t62.5 -68.5t22 -89.5
q0 -69 -45 -117t-127 -66q93 -18 143 -72.5t50 -136.5q0 -125 -94.5 -191.5t-272.5 -66.5q-57 0 -119.5 10.5t-132.5 30.5z" />
    <glyph glyph-name="acute" unicode="&#xb4;" horiz-adv-x="833" 
d="M320 1320h-170l312 418h221z" />
    <glyph glyph-name="mu" unicode="&#xb5;" horiz-adv-x="1429" 
d="M354 -426h-184l-20 1546l184 10l10 -496q0 -146 68.5 -219.5t204.5 -73.5q297 0 297 336l10 443h184l-10 -862q0 -60 112 -67q8 0 25 6q8 2 19 6.5t25 10.5v-148q-42 -23 -97 -59q-57 -36 -92 -36q-136 0 -166 158q-51 -79 -122.5 -118.5t-170.5 -39.5q-203 0 -287 156z
" />
    <glyph glyph-name="paragraph" unicode="&#xb6;" horiz-adv-x="1433" 
d="M1063 1493l220 -1690h-361v1567h-180v-1567h-322l70 846q-53 9 -112.5 41.5t-110 86.5t-84 128t-33.5 166q0 95 34 172.5t96 133t149.5 86t195.5 30.5h438z" />
    <glyph glyph-name="periodcentered" unicode="&#xb7;" horiz-adv-x="511" 
d="M361 584h-211v254h211v-254z" />
    <glyph glyph-name="cedilla" unicode="&#xb8;" horiz-adv-x="714" 
d="M455 0q55 -63 82 -115t27 -100q0 -180 -238 -180q-91 0 -176 24v131q34 -17 70.5 -24.5t84.5 -7.5q119 0 119 94q0 30 -21.5 73.5t-66.5 104.5h119z" />
    <glyph glyph-name="onesuperior" unicode="&#xb9;" horiz-adv-x="872" 
d="M722 668h-553v184h204v537l-223 -41v116l230 39h137v-651h205v-184z" />
    <glyph glyph-name="ordmasculine" unicode="&#xba;" horiz-adv-x="1072" 
d="M537 1520q90 0 161 -28.5t121 -82t76.5 -129.5t26.5 -172t-26.5 -172t-76.5 -129t-121 -81t-161 -28t-161.5 28.5t-121.5 81.5t-77 129t-27 171q0 96 27 172t77 129.5t121.5 82t161.5 28.5zM537 1442q-53 0 -95.5 -17.5t-72.5 -50.5t-46.5 -79.5t-16.5 -103.5
t16.5 -102.5t47 -78t73 -50t94.5 -17.5t94.5 17.5t72.5 50t46.5 78t16.5 102.5q0 58 -16 104.5t-46 79t-72.5 50t-95.5 17.5zM881 469h-688v123h688v-123z" />
    <glyph glyph-name="guillemotright" unicode="&#xbb;" horiz-adv-x="1251" 
d="M465 609l-287 283l10 191l447 -442l33 -124l-490 -393l-28 233zM898 586l-287 283l10 191l447 -442l33 -124l-490 -393l-28 233z" />
    <glyph glyph-name="onequarter" unicode="&#xbc;" horiz-adv-x="1972" 
d="M659 -29h-160l932 1549h160zM722 668h-553v110h204v611l-223 -41v116l230 39h137v-725h205v-110zM1129 188v121l392 528h166v-540h135v-109h-135v-186h-144v186h-414zM1234 297h309v419z" />
    <glyph glyph-name="onehalf" unicode="&#xbd;" horiz-adv-x="1981" 
d="M609 -29h-160l932 1549h160zM722 668h-553v110h204v611l-223 -41v116l230 39h137v-725h205v-110zM1407 116h424v-114h-598v110q17 16 41 37.5t56 49.5q344 305 344 399q0 33 -13.5 60t-38.5 46.5t-60 30t-77 10.5q-103 0 -246 -70v123q78 28 144 42t123 14
q72 0 131 -17.5t101 -49t64.5 -75.5t22.5 -98q0 -140 -331 -423z" />
    <glyph glyph-name="threequarters" unicode="&#xbe;" horiz-adv-x="1960" 
d="M150 815q102 -53 238 -53q109 0 169 39.5t60 109.5q0 75 -55 112.5t-164 37.5h-86v108h94q94 0 142.5 31.5t48.5 91.5q0 58 -49.5 88.5t-145.5 30.5q-40 0 -91 -9t-132 -32v115q148 35 256 35q72 0 130 -15.5t98.5 -43.5t62.5 -68.5t22 -89.5q0 -69 -45 -117t-127 -66
q93 -18 143 -72.5t50 -136.5q0 -125 -94.5 -191.5t-272.5 -66.5q-57 0 -119.5 10.5t-132.5 30.5v121zM687 -29h-160l932 1549h160zM1117 188v121l392 528h166v-540h135v-109h-135v-186h-144v186h-414zM1222 297h309v419z" />
    <glyph glyph-name="questiondown" unicode="&#xbf;" horiz-adv-x="1097" 
d="M501 1493h202v-254h-202v254zM507 1092h160v-156q0 -51 -5 -83t-17.5 -58t-35 -52t-57.5 -65l-90 -88q-58 -54 -83.5 -100.5t-25.5 -95.5q0 -45 17 -81.5t48.5 -62.5t76 -40.5t98.5 -14.5q78 0 167.5 35t186.5 102v-248q-186 -113 -389 -113q-92 0 -167 25.5t-128.5 71.5
t-83 111t-29.5 145q0 38 8.5 73t28 71t50 74t75.5 81l88 86q24 24 40 41.5t26.5 32t17 27t10.5 24.5q7 21 10 51t3 84v123z" />
    <glyph glyph-name="Agrave" unicode="&#xc0;" horiz-adv-x="1668" 
d="M721 1924l-206 374h197l282 -374h-273zM423 0h-273l590 1493h189l589 -1493h-290l-56 243h-673zM560 481h549l-275 828z" />
    <glyph glyph-name="Aacute" unicode="&#xc1;" horiz-adv-x="1668" 
d="M933 1903h-170l312 418h221zM423 0h-273l590 1493h189l589 -1493h-290l-56 243h-673zM560 481h549l-275 828z" />
    <glyph glyph-name="Acircumflex" unicode="&#xc2;" horiz-adv-x="1668" 
d="M665 1502h-139l245 376h148l245 -376h-139l-180 245zM423 0h-273l590 1493h189l589 -1493h-290l-56 243h-673zM560 481h549l-275 828z" />
    <glyph glyph-name="Atilde" unicode="&#xc3;" horiz-adv-x="1668" 
d="M784 2001q-42 39 -68 39q-38 0 -56 -36q-19 -39 -20 -119h-125q2 136 53 209t142 73q38 0 70 -14t69 -47l57 -55q42 -39 68 -39q38 0 56 37q19 37 20 118h125q-2 -136 -53 -209t-142 -73q-38 0 -70 14t-69 47zM423 0h-273l590 1493h189l589 -1493h-290l-56 243h-673z
M560 481h549l-275 828z" />
    <glyph glyph-name="Adieresis" unicode="&#xc4;" horiz-adv-x="1668" 
d="M744 1625h-218v217h218v-217zM1163 1625h-218v217h218v-217zM423 0h-273l590 1493h189l589 -1493h-290l-56 243h-673zM560 481h549l-275 828z" />
    <glyph glyph-name="Aring" unicode="&#xc5;" horiz-adv-x="1668" 
d="M1119 1799q0 -57 -21.5 -107.5t-58.5 -87.5t-87 -58.5t-107 -21.5t-107 21.5t-87 58.5t-58.5 87.5t-21.5 107.5t21.5 107t58.5 87t87 58.5t107 21.5t107 -21.5t87 -58.5t58.5 -87t21.5 -107zM997 1799q0 31 -12 59t-32.5 48t-48 32t-59.5 12q-33 0 -60.5 -11.5t-48 -32
t-32 -48t-11.5 -59.5q0 -33 11.5 -60.5t32 -48t48 -32t60.5 -11.5q32 0 59.5 12t48 32.5t32.5 48t12 59.5zM423 0h-273l590 1493h189l589 -1493h-290l-56 243h-673zM560 481h549l-275 828z" />
    <glyph glyph-name="AE" unicode="&#xc6;" horiz-adv-x="2173" 
d="M103 0l625 1493h1212v-170h-741v-612h711v-170h-711v-281h760v-260h-963v263h-528l10 -263h-375zM996 431v904h-129l-330 -904h459z" />
    <glyph glyph-name="Ccedilla" unicode="&#xc7;" horiz-adv-x="1504" 
d="M1354 1165q-202 189 -463 189q-128 0 -226.5 -39.5t-165.5 -117t-101.5 -191t-34.5 -261.5q2 -131 36.5 -220.5t101.5 -144.5t164.5 -79t225.5 -24q261 0 463 189v-351q-201 -137 -449 -144q85 -104 85 -186q0 -180 -238 -180q-91 0 -176 24v131q34 -17 70.5 -24.5
t84.5 -7.5q119 0 119 94q0 53 -71 154q-147 15 -263.5 75t-198 159t-124.5 234t-43 301q0 180 50.5 323.5t144.5 244t229 154t305 53.5q267 0 475 -142v-213z" />
    <glyph glyph-name="Egrave" unicode="&#xc8;" horiz-adv-x="1262" 
d="M475 1972l-206 374h197l282 -374h-273zM1112 0h-962v1493h944v-170h-742v-442h711v-170h-711v-401h760v-310z" />
    <glyph glyph-name="Eacute" unicode="&#xc9;" horiz-adv-x="1262" 
d="M687 1951h-170l312 418h221zM1112 0h-962v1493h944v-170h-742v-442h711v-170h-711v-401h760v-310z" />
    <glyph glyph-name="Ecircumflex" unicode="&#xca;" horiz-adv-x="1262" 
d="M419 1550h-139l245 376h148l245 -376h-139l-180 245zM1112 0h-962v1493h944v-170h-742v-442h711v-170h-711v-401h760v-310z" />
    <glyph glyph-name="Edieresis" unicode="&#xcb;" horiz-adv-x="1262" 
d="M498 1673h-218v217h218v-217zM917 1673h-218v217h218v-217zM1112 0h-962v1493h944v-170h-742v-442h711v-170h-711v-401h760v-310z" />
    <glyph glyph-name="Igrave" unicode="&#xcc;" horiz-adv-x="542" 
d="M157 2022l-206 374h197l282 -374h-273zM150 0q11 187 17.5 373.5t10 373t6 373t6.5 373.5h172q5 -374 7.5 -747t22.5 -746h-242z" />
    <glyph glyph-name="Iacute" unicode="&#xcd;" horiz-adv-x="542" 
d="M369 2001h-170l312 418h221zM150 0q11 187 17.5 373.5t10 373t6 373t6.5 373.5h172q5 -374 7.5 -747t22.5 -746h-242z" />
    <glyph glyph-name="Icircumflex" unicode="&#xce;" horiz-adv-x="542" 
d="M101 1600h-139l245 376h148l245 -376h-139l-180 245zM150 0q11 187 17.5 373.5t10 373t6 373t6.5 373.5h172q5 -374 7.5 -747t22.5 -746h-242z" />
    <glyph glyph-name="Idieresis" unicode="&#xcf;" horiz-adv-x="542" 
d="M180 1723h-218v217h218v-217zM599 1723h-218v217h218v-217zM150 0q11 187 17.5 373.5t10 373t6 373t6.5 373.5h172q5 -374 7.5 -747t22.5 -746h-242z" />
    <glyph glyph-name="Eth" unicode="&#xd0;" horiz-adv-x="1771" 
d="M134 844h201v649h416q216 0 374.5 -44.5t261.5 -136t153 -232t50 -332.5q0 -193 -50 -334t-153.5 -233t-261.5 -136.5t-374 -44.5h-416v700h-201v144zM538 1327v-483h336v-144h-336v-394h243q154 0 266.5 12.5t186 57.5t108.5 133t35 239q0 150 -35 259t-108.5 180.5
t-186 105.5t-266.5 34h-243z" />
    <glyph glyph-name="Ntilde" unicode="&#xd1;" horiz-adv-x="1450" 
d="M676 2099q-42 39 -68 39q-38 0 -56 -36q-19 -39 -20 -119h-125q2 136 53 209t142 73q38 0 70 -14t69 -47l57 -55q42 -39 68 -39q38 0 56 37q19 37 20 118h125q-2 -136 -53 -209t-142 -73q-38 0 -70 14t-69 47zM406 0h-256l40 1463h252l642 -1179l30 1209h186v-1493h-292
l-662 1249z" />
    <glyph glyph-name="Ograve" unicode="&#xd2;" horiz-adv-x="1682" 
d="M717 2022l-206 374h197l282 -374h-273zM842 1520q157 0 284.5 -54.5t217.5 -156t139 -244.5t49 -320t-49 -320t-139 -244t-217.5 -155.5t-284.5 -54.5q-158 0 -285.5 54.5t-218 155.5t-139.5 244t-49 320t49 320t139.5 244.5t218 156t285.5 54.5zM842 1356
q-110 0 -198.5 -42.5t-151 -121.5t-96 -192.5t-33.5 -254.5q0 -116 33.5 -191.5t96 -119.5t151 -61.5t198.5 -17.5t198 17.5t150 61.5t95.5 119.5t33.5 191.5q0 141 -33.5 254.5t-95.5 192.5t-150 121.5t-198 42.5z" />
    <glyph glyph-name="Oacute" unicode="&#xd3;" horiz-adv-x="1682" 
d="M929 2001h-170l312 418h221zM842 1520q157 0 284.5 -54.5t217.5 -156t139 -244.5t49 -320t-49 -320t-139 -244t-217.5 -155.5t-284.5 -54.5q-158 0 -285.5 54.5t-218 155.5t-139.5 244t-49 320t49 320t139.5 244.5t218 156t285.5 54.5zM842 1356q-110 0 -198.5 -42.5
t-151 -121.5t-96 -192.5t-33.5 -254.5q0 -116 33.5 -191.5t96 -119.5t151 -61.5t198.5 -17.5t198 17.5t150 61.5t95.5 119.5t33.5 191.5q0 141 -33.5 254.5t-95.5 192.5t-150 121.5t-198 42.5z" />
    <glyph glyph-name="Ocircumflex" unicode="&#xd4;" horiz-adv-x="1682" 
d="M661 1600h-139l245 376h148l245 -376h-139l-180 245zM842 1520q157 0 284.5 -54.5t217.5 -156t139 -244.5t49 -320t-49 -320t-139 -244t-217.5 -155.5t-284.5 -54.5q-158 0 -285.5 54.5t-218 155.5t-139.5 244t-49 320t49 320t139.5 244.5t218 156t285.5 54.5zM842 1356
q-110 0 -198.5 -42.5t-151 -121.5t-96 -192.5t-33.5 -254.5q0 -116 33.5 -191.5t96 -119.5t151 -61.5t198.5 -17.5t198 17.5t150 61.5t95.5 119.5t33.5 191.5q0 141 -33.5 254.5t-95.5 192.5t-150 121.5t-198 42.5z" />
    <glyph glyph-name="Otilde" unicode="&#xd5;" horiz-adv-x="1682" 
d="M780 2099q-42 39 -68 39q-38 0 -56 -36q-19 -39 -20 -119h-125q2 136 53 209t142 73q38 0 70 -14t69 -47l57 -55q42 -39 68 -39q38 0 56 37q19 37 20 118h125q-2 -136 -53 -209t-142 -73q-38 0 -70 14t-69 47zM842 1520q157 0 284.5 -54.5t217.5 -156t139 -244.5t49 -320
t-49 -320t-139 -244t-217.5 -155.5t-284.5 -54.5q-158 0 -285.5 54.5t-218 155.5t-139.5 244t-49 320t49 320t139.5 244.5t218 156t285.5 54.5zM842 1356q-110 0 -198.5 -42.5t-151 -121.5t-96 -192.5t-33.5 -254.5q0 -116 33.5 -191.5t96 -119.5t151 -61.5t198.5 -17.5
t198 17.5t150 61.5t95.5 119.5t33.5 191.5q0 141 -33.5 254.5t-95.5 192.5t-150 121.5t-198 42.5z" />
    <glyph glyph-name="Odieresis" unicode="&#xd6;" horiz-adv-x="1682" 
d="M740 1723h-218v217h218v-217zM1159 1723h-218v217h218v-217zM842 1520q157 0 284.5 -54.5t217.5 -156t139 -244.5t49 -320t-49 -320t-139 -244t-217.5 -155.5t-284.5 -54.5q-158 0 -285.5 54.5t-218 155.5t-139.5 244t-49 320t49 320t139.5 244.5t218 156t285.5 54.5z
M842 1356q-110 0 -198.5 -42.5t-151 -121.5t-96 -192.5t-33.5 -254.5q0 -116 33.5 -191.5t96 -119.5t151 -61.5t198.5 -17.5t198 17.5t150 61.5t95.5 119.5t33.5 191.5q0 141 -33.5 254.5t-95.5 192.5t-150 121.5t-198 42.5z" />
    <glyph glyph-name="multiply" unicode="&#xd7;" horiz-adv-x="1405" 
d="M697 832l389 389l169 -171l-387 -389l377 -377l-169 -171l-379 379l-379 -379l-168 171l376 377l-356 359l168 171z" />
    <glyph glyph-name="Oslash" unicode="&#xd8;" horiz-adv-x="1682" 
d="M1195 1431q79 -46 142 -113.5t106 -154.5t66 -192.5t23 -225.5q0 -177 -49 -320t-139 -244t-217.5 -155.5t-284.5 -54.5q-21 0 -41.5 1t-40.5 3l-18 -59l-230 8l37 105q-93 41 -167 108.5t-125.5 159t-79 204.5t-27.5 244q0 177 49 320t139.5 244.5t218 156t285.5 54.5
q115 0 214 -30l34 98l150 -5zM1000 1330q-73 26 -158 26q-110 0 -198.5 -42.5t-151 -121.5t-96 -192.5t-33.5 -254.5q0 -91 21 -156.5t60 -110.5t95 -71.5t127 -38.5zM873 355q103 2 185.5 21.5t140.5 64t89 118.5t31 186q0 169 -46.5 296.5t-132.5 205.5z" />
    <glyph glyph-name="Ugrave" unicode="&#xd9;" horiz-adv-x="1443" 
d="M597 2022l-206 374h197l282 -374h-273zM150 1493h213l-20 -767q-3 -120 19.5 -205.5t69.5 -140t119.5 -80t170.5 -25.5q97 0 169 25.5t119.5 80t69.5 140t19 205.5l-19 767h213v-932q0 -292 -144.5 -441t-426.5 -149q-283 0 -427.5 149t-144.5 441v932z" />
    <glyph glyph-name="Uacute" unicode="&#xda;" horiz-adv-x="1443" 
d="M809 2001h-170l312 418h221zM150 1493h213l-20 -767q-3 -120 19.5 -205.5t69.5 -140t119.5 -80t170.5 -25.5q97 0 169 25.5t119.5 80t69.5 140t19 205.5l-19 767h213v-932q0 -292 -144.5 -441t-426.5 -149q-283 0 -427.5 149t-144.5 441v932z" />
    <glyph glyph-name="Ucircumflex" unicode="&#xdb;" horiz-adv-x="1443" 
d="M541 1600h-139l245 376h148l245 -376h-139l-180 245zM150 1493h213l-20 -767q-3 -120 19.5 -205.5t69.5 -140t119.5 -80t170.5 -25.5q97 0 169 25.5t119.5 80t69.5 140t19 205.5l-19 767h213v-932q0 -292 -144.5 -441t-426.5 -149q-283 0 -427.5 149t-144.5 441v932z" />
    <glyph glyph-name="Udieresis" unicode="&#xdc;" horiz-adv-x="1443" 
d="M620 1723h-218v217h218v-217zM1039 1723h-218v217h218v-217zM150 1493h213l-20 -767q-3 -120 19.5 -205.5t69.5 -140t119.5 -80t170.5 -25.5q97 0 169 25.5t119.5 80t69.5 140t19 205.5l-19 767h213v-932q0 -292 -144.5 -441t-426.5 -149q-283 0 -427.5 149t-144.5 441
v932z" />
    <glyph glyph-name="Yacute" unicode="&#xdd;" horiz-adv-x="1559" 
d="M866 2001h-170l312 418h221zM638 0v511l-488 982h217l414 -764l411 764h217l-498 -982v-511h-273z" />
    <glyph glyph-name="Thorn" unicode="&#xde;" horiz-adv-x="1264" 
d="M352 0h-202v1493h202v-264h254q253 0 380.5 -112t127.5 -333t-127.5 -333.5t-380.5 -112.5h-254v-338zM352 1063v-559h254q142 0 218.5 72.5t76.5 207.5t-76 207t-219 72h-254z" />
    <glyph glyph-name="germandbls" unicode="&#xdf;" horiz-adv-x="1422" 
d="M490 0h-277l60 1137q0 100 30.5 178t89 131.5t143.5 81.5t194 28q209 0 318 -115t112 -341q-151 -8 -235 -65.5t-84 -153.5q0 -48 28.5 -88t94.5 -82l57 -37q83 -53 134 -95t79.5 -82t38.5 -80.5t10 -90.5q0 -173 -112 -264t-324 -91q-64 0 -132 12.5t-141 36.5v244
q81 -30 150 -44.5t135 -14.5q117 0 176.5 32.5t59.5 93.5q0 42 -29 85q-30 42 -131 104l-82 55q-23 30 -46.5 61t-43 65.5t-31.5 74t-12 84.5q0 63 13.5 117t50 96t100 71t164.5 44q-39 91 -73 142.5t-70.5 76.5t-79 30.5t-99.5 5.5q-65 0 -114 -16.5t-84 -53t-56.5 -96
t-31.5 -144.5z" />
    <glyph glyph-name="agrave" unicode="&#xe0;" horiz-adv-x="1246" 
d="M527 1649l-206 374h197l282 -374h-273zM967 1120h157v-1119l-157 -2v169q-58 -100 -146 -148.5t-213 -48.5q-102 0 -186 42.5t-144.5 119.5t-94 185.5t-33.5 240.5t33.5 240.5t94 185.5t144.5 119.5t186 42.5q125 0 213 -48.5t146 -148.5v170zM282 579q12 -73 34 -125
t58.5 -85t89.5 -48t126 -15t122.5 10t81.5 41t49.5 87t26.5 149q5 204 -61.5 312t-213.5 108q-73 0 -131 -29.5t-98.5 -85.5t-62 -136.5t-21.5 -182.5z" />
    <glyph glyph-name="aacute" unicode="&#xe1;" horiz-adv-x="1246" 
d="M739 1628h-170l312 418h221zM967 1120h157v-1119l-157 -2v169q-58 -100 -146 -148.5t-213 -48.5q-102 0 -186 42.5t-144.5 119.5t-94 185.5t-33.5 240.5t33.5 240.5t94 185.5t144.5 119.5t186 42.5q125 0 213 -48.5t146 -148.5v170zM282 579q12 -73 34 -125t58.5 -85
t89.5 -48t126 -15t122.5 10t81.5 41t49.5 87t26.5 149q5 204 -61.5 312t-213.5 108q-73 0 -131 -29.5t-98.5 -85.5t-62 -136.5t-21.5 -182.5z" />
    <glyph glyph-name="acircumflex" unicode="&#xe2;" horiz-adv-x="1246" 
d="M471 1227h-139l245 376h148l245 -376h-139l-180 245zM967 1120h157v-1119l-157 -2v169q-58 -100 -146 -148.5t-213 -48.5q-102 0 -186 42.5t-144.5 119.5t-94 185.5t-33.5 240.5t33.5 240.5t94 185.5t144.5 119.5t186 42.5q125 0 213 -48.5t146 -148.5v170zM282 579
q12 -73 34 -125t58.5 -85t89.5 -48t126 -15t122.5 10t81.5 41t49.5 87t26.5 149q5 204 -61.5 312t-213.5 108q-73 0 -131 -29.5t-98.5 -85.5t-62 -136.5t-21.5 -182.5z" />
    <glyph glyph-name="atilde" unicode="&#xe3;" horiz-adv-x="1246" 
d="M590 1726q-42 39 -68 39q-38 0 -56 -36q-19 -39 -20 -119h-125q2 136 53 209t142 73q38 0 70 -14t69 -47l57 -55q42 -39 68 -39q38 0 56 37q19 37 20 118h125q-2 -136 -53 -209t-142 -73q-38 0 -70 14t-69 47zM967 1120h157v-1119l-157 -2v169q-58 -100 -146 -148.5
t-213 -48.5q-102 0 -186 42.5t-144.5 119.5t-94 185.5t-33.5 240.5t33.5 240.5t94 185.5t144.5 119.5t186 42.5q125 0 213 -48.5t146 -148.5v170zM282 579q12 -73 34 -125t58.5 -85t89.5 -48t126 -15t122.5 10t81.5 41t49.5 87t26.5 149q5 204 -61.5 312t-213.5 108
q-73 0 -131 -29.5t-98.5 -85.5t-62 -136.5t-21.5 -182.5z" />
    <glyph glyph-name="adieresis" unicode="&#xe4;" horiz-adv-x="1246" 
d="M550 1350h-218v217h218v-217zM969 1350h-218v217h218v-217zM967 1120h157v-1119l-157 -2v169q-58 -100 -146 -148.5t-213 -48.5q-102 0 -186 42.5t-144.5 119.5t-94 185.5t-33.5 240.5t33.5 240.5t94 185.5t144.5 119.5t186 42.5q125 0 213 -48.5t146 -148.5v170z
M282 579q12 -73 34 -125t58.5 -85t89.5 -48t126 -15t122.5 10t81.5 41t49.5 87t26.5 149q5 204 -61.5 312t-213.5 108q-73 0 -131 -29.5t-98.5 -85.5t-62 -136.5t-21.5 -182.5z" />
    <glyph glyph-name="aring" unicode="&#xe5;" horiz-adv-x="1246" 
d="M925 1524q0 -57 -21.5 -107.5t-58.5 -87.5t-87 -58.5t-107 -21.5t-107 21.5t-87 58.5t-58.5 87.5t-21.5 107.5t21.5 107t58.5 87t87 58.5t107 21.5t107 -21.5t87 -58.5t58.5 -87t21.5 -107zM803 1524q0 31 -12 59t-32.5 48t-48 32t-59.5 12q-33 0 -60.5 -11.5t-48 -32
t-32 -48t-11.5 -59.5q0 -33 11.5 -60.5t32 -48t48 -32t60.5 -11.5q32 0 59.5 12t48 32.5t32.5 48t12 59.5zM967 1120h157v-1119l-157 -2v169q-58 -100 -146 -148.5t-213 -48.5q-102 0 -186 42.5t-144.5 119.5t-94 185.5t-33.5 240.5t33.5 240.5t94 185.5t144.5 119.5
t186 42.5q125 0 213 -48.5t146 -148.5v170zM282 579q12 -73 34 -125t58.5 -85t89.5 -48t126 -15t122.5 10t81.5 41t49.5 87t26.5 149q5 204 -61.5 312t-213.5 108q-73 0 -131 -29.5t-98.5 -85.5t-62 -136.5t-21.5 -182.5z" />
    <glyph glyph-name="ae" unicode="&#xe6;" horiz-adv-x="2218" 
d="M2004 576h-846q6 -66 35 -125.5t79 -105.5t121.5 -73t163.5 -27q105 0 204.5 26t199.5 80v-264q-50 -21 -101 -42t-103 -37.5t-104.5 -26.5t-105.5 -10q-337 0 -492 240q-146 -240 -432 -240q-95 0 -169 24t-125 69.5t-78 111.5t-27 150q0 124 31.5 208.5t94.5 136.5
t157.5 74t220.5 22h258v18q0 33 -21.5 76t-62 80.5t-100 63.5t-134.5 26q-193 0 -362 -92v130q202 78 381 78q142 0 248.5 -48t160.5 -136q75 91 180 137.5t238 46.5q113 0 203.5 -39.5t154.5 -106t98 -153.5t34 -182v-90zM1819 719q0 55 -22 112.5t-61.5 105t-95 78
t-124.5 30.5q-77 0 -138.5 -29t-106.5 -75.5t-72.5 -105t-34.5 -116.5h655zM986 623h-183q-111 0 -187 -8t-122 -32.5t-66 -69.5t-20 -118q0 -39 16.5 -70.5t48 -53.5t75.5 -34t100 -12q76 0 138.5 21t107 65.5t68.5 113.5t24 165v33z" />
    <glyph glyph-name="ccedilla" unicode="&#xe7;" horiz-adv-x="1186" 
d="M1036 915q-157 86 -315 86q-90 0 -158.5 -30.5t-115 -88t-70 -139.5t-23.5 -184q7 -72 30.5 -121.5t66.5 -81t107.5 -47.5t154.5 -21q40 0 80.5 -1t80.5 2t79.5 12.5t78.5 30.5l4 -289q-66 -31 -134.5 -48t-145.5 -22q86 -105 86 -188q0 -180 -238 -180q-91 0 -176 24
v131q34 -17 70.5 -24.5t84.5 -7.5q119 0 119 94q0 27 -17 64t-52 88q-112 11 -201.5 56.5t-152 121t-96 178.5t-33.5 229q0 137 39 246t111.5 185t177 116.5t235.5 40.5q85 0 166 -17.5t157 -52.5v-162z" />
    <glyph glyph-name="egrave" unicode="&#xe8;" 
d="M549 1649l-206 374h197l282 -374h-273zM1178 606h-836q1 -112 29 -181t79 -107.5t123.5 -53.5t164.5 -20q53 0 104 1t101.5 7t100 19.5t98.5 39.5l4 -254q-100 -42 -203 -64t-212 -22q-134 5 -241 46t-183 115t-116.5 179t-40.5 238q5 138 44 248.5t109.5 188
t170.5 119.5t226 42q112 -5 197.5 -34t144.5 -86t93 -144t43 -207v-70zM1018 766q-8 47 -33 97.5t-65.5 92t-95.5 68t-123 26.5q-77 0 -139.5 -25.5t-107 -66t-68.5 -91t-24 -101.5h656z" />
    <glyph glyph-name="eacute" unicode="&#xe9;" 
d="M761 1628h-170l312 418h221zM1178 606h-836q1 -112 29 -181t79 -107.5t123.5 -53.5t164.5 -20q53 0 104 1t101.5 7t100 19.5t98.5 39.5l4 -254q-100 -42 -203 -64t-212 -22q-134 5 -241 46t-183 115t-116.5 179t-40.5 238q5 138 44 248.5t109.5 188t170.5 119.5t226 42
q112 -5 197.5 -34t144.5 -86t93 -144t43 -207v-70zM1018 766q-8 47 -33 97.5t-65.5 92t-95.5 68t-123 26.5q-77 0 -139.5 -25.5t-107 -66t-68.5 -91t-24 -101.5h656z" />
    <glyph glyph-name="ecircumflex" unicode="&#xea;" 
d="M493 1227h-139l245 376h148l245 -376h-139l-180 245zM1178 606h-836q1 -112 29 -181t79 -107.5t123.5 -53.5t164.5 -20q53 0 104 1t101.5 7t100 19.5t98.5 39.5l4 -254q-100 -42 -203 -64t-212 -22q-134 5 -241 46t-183 115t-116.5 179t-40.5 238q5 138 44 248.5
t109.5 188t170.5 119.5t226 42q112 -5 197.5 -34t144.5 -86t93 -144t43 -207v-70zM1018 766q-8 47 -33 97.5t-65.5 92t-95.5 68t-123 26.5q-77 0 -139.5 -25.5t-107 -66t-68.5 -91t-24 -101.5h656z" />
    <glyph glyph-name="edieresis" unicode="&#xeb;" 
d="M572 1350h-218v217h218v-217zM991 1350h-218v217h218v-217zM1178 606h-836q1 -112 29 -181t79 -107.5t123.5 -53.5t164.5 -20q53 0 104 1t101.5 7t100 19.5t98.5 39.5l4 -254q-100 -42 -203 -64t-212 -22q-134 5 -241 46t-183 115t-116.5 179t-40.5 238q5 138 44 248.5
t109.5 188t170.5 119.5t226 42q112 -5 197.5 -34t144.5 -86t93 -144t43 -207v-70zM1018 766q-8 47 -33 97.5t-65.5 92t-95.5 68t-123 26.5q-77 0 -139.5 -25.5t-107 -66t-68.5 -91t-24 -101.5h656z" />
    <glyph glyph-name="igrave" unicode="&#xec;" horiz-adv-x="785" 
d="M356 1264l-206 374h197l282 -374h-273zM635 0h-184v1120h184v-1120z" />
    <glyph glyph-name="iacute" unicode="&#xed;" horiz-adv-x="833" 
d="M320 1220h-170l312 418h221zM443 0h-184v1120h184v-1120z" />
    <glyph glyph-name="icircumflex" unicode="&#xee;" horiz-adv-x="938" 
d="M289 1262h-139l245 376h148l245 -376h-139l-180 245zM616 0h-184v1120h184v-1120z" />
    <glyph glyph-name="idieresis" unicode="&#xef;" horiz-adv-x="937" 
d="M368 1350h-218v217h218v-217zM787 1350h-218v217h218v-217zM559 0h-184v1120h184v-1120z" />
    <glyph glyph-name="eth" unicode="&#xf0;" 
d="M1069 1425l-295 -98l164 -186q63 -72 108.5 -142.5t74.5 -144.5t43 -152t14 -165q0 -128 -37 -232t-104.5 -178.5t-162.5 -115t-210 -40.5q-116 0 -210.5 40.5t-162 115t-104.5 178.5t-37 232q0 125 36 228t101.5 177t157 115t202.5 41q18 0 44 -2.5t68 -7.5l-159 180
l-319 -107l-33 99l281 92l-181 204h228l127 -145l333 111zM875 915q-51 17 -94 25t-85 8q-84 0 -149.5 -27.5t-110.5 -80.5t-68.5 -129.5t-23.5 -173.5q0 -94 22.5 -147t64.5 -78.5t101 -31t132 -5.5q72 0 131 5.5t101 31t64.5 78.5t22.5 147q0 123 -27 216t-81 162z" />
    <glyph glyph-name="ntilde" unicode="&#xf1;" horiz-adv-x="1308" 
d="M574 1726q-42 39 -68 39q-38 0 -56 -36q-19 -39 -20 -119h-125q2 136 53 209t142 73q38 0 70 -14t69 -47l57 -55q42 -39 68 -39q38 0 56 37q19 37 20 118h125q-2 -136 -53 -209t-142 -73q-38 0 -70 14t-69 47zM1158 0h-264l40 680q0 159 -52 238t-176 79
q-84 0 -146.5 -24.5t-103.5 -70.5t-61 -111.5t-20 -147.5l30 -643h-255l30 1130h185v-134q33 25 71.5 52t83.5 49t96.5 36t110.5 14q194 0 292.5 -119t108.5 -352z" />
    <glyph glyph-name="ograve" unicode="&#xf2;" 
d="M540 1649l-206 374h197l282 -374h-273zM664 1147q120 0 215.5 -40t161.5 -116t101.5 -185t35.5 -247t-35.5 -247t-101.5 -184.5t-161.5 -116t-215.5 -40.5t-215.5 40.5t-162 116t-101.5 184.5t-35 247t35 247t101.5 185t162 116t215.5 40zM664 1011q-74 0 -133 -29
t-100.5 -83.5t-64 -132.5t-22.5 -175q0 -98 22 -157.5t63.5 -91.5t100.5 -42.5t134 -10.5q73 0 132.5 10.5t100.5 43t63.5 91.5t22.5 157q0 96 -22.5 174t-63.5 132.5t-100.5 84t-132.5 29.5z" />
    <glyph glyph-name="oacute" unicode="&#xf3;" 
d="M752 1628h-170l312 418h221zM664 1147q120 0 215.5 -40t161.5 -116t101.5 -185t35.5 -247t-35.5 -247t-101.5 -184.5t-161.5 -116t-215.5 -40.5t-215.5 40.5t-162 116t-101.5 184.5t-35 247t35 247t101.5 185t162 116t215.5 40zM664 1011q-74 0 -133 -29t-100.5 -83.5
t-64 -132.5t-22.5 -175q0 -98 22 -157.5t63.5 -91.5t100.5 -42.5t134 -10.5q73 0 132.5 10.5t100.5 43t63.5 91.5t22.5 157q0 96 -22.5 174t-63.5 132.5t-100.5 84t-132.5 29.5z" />
    <glyph glyph-name="ocircumflex" unicode="&#xf4;" 
d="M484 1227h-139l245 376h148l245 -376h-139l-180 245zM664 1147q120 0 215.5 -40t161.5 -116t101.5 -185t35.5 -247t-35.5 -247t-101.5 -184.5t-161.5 -116t-215.5 -40.5t-215.5 40.5t-162 116t-101.5 184.5t-35 247t35 247t101.5 185t162 116t215.5 40zM664 1011
q-74 0 -133 -29t-100.5 -83.5t-64 -132.5t-22.5 -175q0 -98 22 -157.5t63.5 -91.5t100.5 -42.5t134 -10.5q73 0 132.5 10.5t100.5 43t63.5 91.5t22.5 157q0 96 -22.5 174t-63.5 132.5t-100.5 84t-132.5 29.5z" />
    <glyph glyph-name="otilde" unicode="&#xf5;" 
d="M603 1726q-42 39 -68 39q-38 0 -56 -36q-19 -39 -20 -119h-125q2 136 53 209t142 73q38 0 70 -14t69 -47l57 -55q42 -39 68 -39q38 0 56 37q19 37 20 118h125q-2 -136 -53 -209t-142 -73q-38 0 -70 14t-69 47zM664 1147q120 0 215.5 -40t161.5 -116t101.5 -185t35.5 -247
t-35.5 -247t-101.5 -184.5t-161.5 -116t-215.5 -40.5t-215.5 40.5t-162 116t-101.5 184.5t-35 247t35 247t101.5 185t162 116t215.5 40zM664 1011q-74 0 -133 -29t-100.5 -83.5t-64 -132.5t-22.5 -175q0 -98 22 -157.5t63.5 -91.5t100.5 -42.5t134 -10.5q73 0 132.5 10.5
t100.5 43t63.5 91.5t22.5 157q0 96 -22.5 174t-63.5 132.5t-100.5 84t-132.5 29.5z" />
    <glyph glyph-name="odieresis" unicode="&#xf6;" 
d="M563 1350h-218v217h218v-217zM982 1350h-218v217h218v-217zM664 1147q120 0 215.5 -40t161.5 -116t101.5 -185t35.5 -247t-35.5 -247t-101.5 -184.5t-161.5 -116t-215.5 -40.5t-215.5 40.5t-162 116t-101.5 184.5t-35 247t35 247t101.5 185t162 116t215.5 40zM664 1011
q-74 0 -133 -29t-100.5 -83.5t-64 -132.5t-22.5 -175q0 -98 22 -157.5t63.5 -91.5t100.5 -42.5t134 -10.5q73 0 132.5 10.5t100.5 43t63.5 91.5t22.5 157q0 96 -22.5 174t-63.5 132.5t-100.5 84t-132.5 29.5z" />
    <glyph glyph-name="divide" unicode="&#xf7;" horiz-adv-x="1632" 
d="M964 889h-296v296h296v-296zM1482 507h-1332v220h1332v-220zM964 50h-296v295h296v-295z" />
    <glyph glyph-name="oslash" unicode="&#xf8;" horiz-adv-x="1410" 
d="M246 -94l-96 78l149 182q-108 154 -108 393q0 138 35 247t101.5 185t162 116t215.5 40q186 0 319 -103l139 168l95 -79l-146 -179q107 -155 107 -395q0 -138 -35.5 -247t-101.5 -184.5t-161.5 -116t-215.5 -40.5q-193 0 -320 103zM912 909q-83 82 -207 82
q-75 0 -134.5 -30t-101 -87.5t-63 -140.5t-21.5 -188q0 -72 9.5 -127t29.5 -101zM496 209q81 -82 209 -82q73 0 132.5 30t100.5 86t63.5 136t22.5 180q0 79 -10 137.5t-31 104.5z" />
    <glyph glyph-name="ugrave" unicode="&#xf9;" horiz-adv-x="1248" 
d="M507 1649l-206 374h197l282 -374h-273zM150 1120h154v-511q10 -159 67 -238.5t181 -79.5q75 0 132.5 24.5t98 70.5t63.5 111.5t28 147.5l20 475h204l-20 -1120h-184l10 172q-67 -103 -155 -152t-206 -49q-194 0 -293.5 119.5t-99.5 351.5v678z" />
    <glyph glyph-name="uacute" unicode="&#xfa;" horiz-adv-x="1248" 
d="M719 1628h-170l312 418h221zM150 1120h154v-511q10 -159 67 -238.5t181 -79.5q75 0 132.5 24.5t98 70.5t63.5 111.5t28 147.5l20 475h204l-20 -1120h-184l10 172q-67 -103 -155 -152t-206 -49q-194 0 -293.5 119.5t-99.5 351.5v678z" />
    <glyph glyph-name="ucircumflex" unicode="&#xfb;" horiz-adv-x="1248" 
d="M451 1227h-139l245 376h148l245 -376h-139l-180 245zM150 1120h154v-511q10 -159 67 -238.5t181 -79.5q75 0 132.5 24.5t98 70.5t63.5 111.5t28 147.5l20 475h204l-20 -1120h-184l10 172q-67 -103 -155 -152t-206 -49q-194 0 -293.5 119.5t-99.5 351.5v678z" />
    <glyph glyph-name="udieresis" unicode="&#xfc;" horiz-adv-x="1248" 
d="M530 1350h-218v217h218v-217zM949 1350h-218v217h218v-217zM150 1120h154v-511q10 -159 67 -238.5t181 -79.5q75 0 132.5 24.5t98 70.5t63.5 111.5t28 147.5l20 475h204l-20 -1120h-184l10 172q-67 -103 -155 -152t-206 -49q-194 0 -293.5 119.5t-99.5 351.5v678z" />
    <glyph glyph-name="yacute" unicode="&#xfd;" horiz-adv-x="1390" 
d="M695 1628h-170l312 418h221zM1045 1120h195l-472 -1224q-49 -110 -93 -177t-89.5 -104t-95.5 -49t-112 -12h-167v244h128q38 0 66 9.5t52 27t45.5 42.5t47.5 57l79 159l-479 1027h195l396 -651z" />
    <glyph glyph-name="thorn" unicode="&#xfe;" horiz-adv-x="1278" 
d="M460 -426h-185v1982h185v-606q58 100 146 148.5t212 48.5q102 0 186.5 -42.5t145 -119.5t94 -185.5t33.5 -240.5t-33.5 -240.5t-94 -185.5t-145 -119.5t-186.5 -42.5q-124 0 -212 48.5t-146 148.5v-594zM1086 559q0 102 -21.5 182.5t-62 136.5t-98.5 85.5t-131 29.5
t-131 -29.5t-98.5 -85.5t-62 -136.5t-21.5 -182.5t21.5 -182.5t62 -136.5t98.5 -85.5t131 -29.5t131 29.5t98.5 85.5t62 136.5t21.5 182.5z" />
    <glyph glyph-name="ydieresis" unicode="&#xff;" horiz-adv-x="1390" 
d="M506 1350h-218v217h218v-217zM925 1350h-218v217h218v-217zM1045 1120h195l-472 -1224q-49 -110 -93 -177t-89.5 -104t-95.5 -49t-112 -12h-167v244h128q38 0 66 9.5t52 27t45.5 42.5t47.5 57l79 159l-479 1027h195l396 -651z" />
    <glyph glyph-name="Cacute" unicode="&#x106;" horiz-adv-x="1504" 
d="M871 2001h-170l312 418h221zM1354 1165q-202 189 -463 189q-128 0 -226.5 -39.5t-165.5 -117t-101.5 -191t-34.5 -261.5q2 -131 36.5 -220.5t101.5 -144.5t164.5 -79t225.5 -24q261 0 463 189v-351q-212 -144 -475 -144q-170 0 -305 53.5t-229 154t-144.5 243.5
t-50.5 323t50.5 323.5t144.5 244t229 154t305 53.5q267 0 475 -142v-213z" />
    <glyph glyph-name="cacute" unicode="&#x107;" horiz-adv-x="1186" 
d="M723 1628h-170l312 418h221zM1036 915q-157 86 -315 86q-90 0 -158.5 -30.5t-115 -88t-70 -139.5t-23.5 -184q7 -72 30.5 -121.5t66.5 -81t107.5 -47.5t154.5 -21q40 0 80.5 -1t80.5 2t79.5 12.5t78.5 30.5l4 -289q-78 -36 -159.5 -54t-175.5 -18q-126 0 -228 41
t-174 117.5t-110.5 185.5t-38.5 244q0 137 39 246t111.5 185t177 116.5t235.5 40.5q85 0 166 -17.5t157 -52.5v-162z" />
    <glyph glyph-name="Ccaron" unicode="&#x10c;" horiz-adv-x="1504" 
d="M1102 2011l-245 -376h-148l-245 376h139l180 -245l180 245h139zM1354 1165q-202 189 -463 189q-128 0 -226.5 -39.5t-165.5 -117t-101.5 -191t-34.5 -261.5q2 -131 36.5 -220.5t101.5 -144.5t164.5 -79t225.5 -24q261 0 463 189v-351q-212 -144 -475 -144
q-170 0 -305 53.5t-229 154t-144.5 243.5t-50.5 323t50.5 323.5t144.5 244t229 154t305 53.5q267 0 475 -142v-213z" />
    <glyph glyph-name="ccaron" unicode="&#x10d;" horiz-adv-x="1186" 
d="M954 1638l-245 -376h-148l-245 376h139l180 -245l180 245h139zM1036 915q-157 86 -315 86q-90 0 -158.5 -30.5t-115 -88t-70 -139.5t-23.5 -184q7 -72 30.5 -121.5t66.5 -81t107.5 -47.5t154.5 -21q40 0 80.5 -1t80.5 2t79.5 12.5t78.5 30.5l4 -289q-78 -36 -159.5 -54
t-175.5 -18q-126 0 -228 41t-174 117.5t-110.5 185.5t-38.5 244q0 137 39 246t111.5 185t177 116.5t235.5 40.5q85 0 166 -17.5t157 -52.5v-162z" />
    <glyph glyph-name="dcroat" unicode="&#x111;" horiz-adv-x="1455" 
d="M967 1284h-326v125h326v147h184v-147h154v-125h-154v-1284h-184v168q-58 -100 -146 -148.5t-213 -48.5q-102 0 -186 42.5t-144.5 119.5t-94 185.5t-33.5 240.5t33.5 240.5t94 185.5t144.5 119.5t186 42.5q125 0 213 -48.5t146 -148.5v334zM340 602q0 -92 21.5 -164.5
t62 -122.5t98.5 -77t131 -27t131.5 27t99 77t62 122.5t21.5 164.5q0 91 -21.5 164t-62 123t-99 77t-131.5 27t-131 -27t-98.5 -77t-62 -123t-21.5 -164z" />
    <glyph glyph-name="Gbreve" unicode="&#x11e;" horiz-adv-x="1604" 
d="M632 1926q22 -150 195 -150q170 0 195 150h118q-10 -144 -88.5 -215.5t-224.5 -71.5t-224.5 71.5t-88.5 215.5h118zM1224 534h-320v216h550v-611q-118 -84 -258 -126t-301 -42q-175 0 -313.5 52.5t-234.5 152t-146.5 243t-50.5 326.5t50.5 327t146.5 243.5t234.5 152
t313.5 52.5q147 0 277.5 -36t242.5 -106v-195q-224 191 -503 191q-275 0 -412 -152t-137 -457q5 -138 40 -228.5t102.5 -143.5t168.5 -74.5t238 -21.5q54 0 102.5 4.5t89 14t71.5 23.5t49 34v161z" />
    <glyph glyph-name="gbreve" unicode="&#x11f;" horiz-adv-x="1321" 
d="M487 1553q22 -150 195 -150q170 0 195 150h118q-10 -144 -88.5 -215.5t-224.5 -71.5t-224.5 71.5t-88.5 215.5h118zM987 1120h184l-30 -981q-6 -193 -40 -322.5t-98.5 -208t-160.5 -111.5t-227 -33q-97 0 -183 14.5t-167 44.5v328q81 -45 160 -65.5t161 -20.5
q90 0 155.5 34.5t110 86.5t70 111t35.5 109v61q-24 -35 -58 -65t-78 -53t-97.5 -36t-115.5 -13q-103 0 -187.5 41t-144.5 116t-93 181t-33 235q0 130 33 236t93 181t144.5 116t187.5 41q246 0 359 -197zM887 584q0 100 -21 178t-61.5 132t-98.5 82t-133 28q-74 0 -132 -28
t-98.5 -82t-61.5 -132t-21 -178q10 -99 30.5 -156.5t55.5 -86t87 -36t126 -7.5q75 0 135.5 7.5t103 36t66 86t23.5 156.5z" />
    <glyph glyph-name="Idotaccent" unicode="&#x130;" horiz-adv-x="542" 
d="M383 1721h-204v204h204v-204zM150 0q11 187 17.5 373.5t10 373t6 373t6.5 373.5h172q5 -374 7.5 -747t22.5 -746h-242z" />
    <glyph glyph-name="dotlessi" unicode="&#x131;" horiz-adv-x="534" 
d="M150 0q20 297 26 575.5t4 544.5h164q-9 -253 -0.5 -532.5t40.5 -587.5h-234z" />
    <glyph glyph-name="Lslash" unicode="&#x141;" horiz-adv-x="1455" 
d="M150 575l225 158v760h203v-616l313 219l80 -111l-393 -274v-541h727v-170h-930v571l-148 -106z" />
    <glyph glyph-name="lslash" unicode="&#x142;" horiz-adv-x="618" 
d="M20 684l197 141v731h184v-602l125 90l76 -106l-201 -141v-797h-184v666l-123 -88z" />
    <glyph glyph-name="OE" unicode="&#x152;" horiz-adv-x="2334" 
d="M2121 1493v-130h-742v-412h731v-170h-731v-501h760v-280h-1065q-433 0 -656.5 190t-223.5 558q0 183 56.5 322t167.5 233t275.5 142t380.5 48h1047zM1177 280v1083h-129q-161 0 -281 -34.5t-200 -109t-120 -191t-40 -280.5q0 -90 40 -174t120 -149.5t200 -105t281 -39.5
h129z" />
    <glyph glyph-name="oe" unicode="&#x153;" horiz-adv-x="2306" 
d="M2094 666h-846q4 -113 18 -192.5t38 -133t58 -84t77 -46t95 -19.5t113 -4q106 0 205.5 26t198.5 78v-234q-100 -42 -204 -64t-210 -22q-320 0 -483 219q-142 -219 -420 -219q-120 0 -215.5 40.5t-162 116t-101.5 184.5t-35 247t35 247t101.5 185t162 116t215.5 40
q141 0 246 -55t171 -164q78 108 193.5 163.5t259.5 55.5q75 0 140.5 -19.5t120 -52t97 -74t72 -85t45 -85.5t15.5 -75v-90zM1909 799q-1 31 -23 73t-61 79.5t-94.5 63.5t-124.5 26q-77 0 -138.5 -25t-106.5 -62t-72.5 -79t-34.5 -76h655zM734 1021q-74 0 -133 -27.5
t-100.5 -79t-64 -125t-22.5 -166.5t22 -166.5t63.5 -125t100.5 -79t134 -27.5q73 0 132.5 27.5t100.5 79.5t63.5 125.5t22.5 165.5q0 91 -22.5 165t-63.5 125.5t-100.5 79.5t-132.5 28z" />
    <glyph glyph-name="Scedilla" unicode="&#x15e;" horiz-adv-x="1351" 
d="M760 854q226 -43 333.5 -151.5t107.5 -290.5q0 -189 -108 -297.5t-320 -135.5q46 -55 68.5 -102t22.5 -92q0 -180 -238 -180q-91 0 -176 24v131q34 -17 70.5 -24.5t84.5 -7.5q119 0 119 94q0 51 -67 149h-28q-106 0 -225 23.5t-248 71.5v318q124 -69 241 -104t232 -35
q87 0 154 19t113 49t70 65.5t24 68.5q0 30 -16.5 61.5t-51.5 60.5t-89.5 53.5t-131.5 39.5l-123 24q-113 22 -194 56.5t-133 84t-76.5 115.5t-24.5 152q0 99 36 178t103.5 134t164.5 84.5t220 29.5q210 0 437 -76v-197q-115 55 -216.5 82t-197.5 27q-166 0 -255 -64
t-89 -182q0 -50 13.5 -86.5t46 -63.5t87.5 -46.5t138 -34.5z" />
    <glyph glyph-name="scedilla" unicode="&#x15f;" horiz-adv-x="1156" 
d="M645 631q98 -21 166.5 -48t112 -65t63 -89t19.5 -120q0 -65 -22.5 -119.5t-65 -96.5t-104 -70.5t-139.5 -41.5q47 -56 70 -103.5t23 -92.5q0 -180 -238 -180q-91 0 -176 24v131q34 -17 70.5 -24.5t84.5 -7.5q119 0 119 94q0 51 -67 149h-18q-179 0 -393 70v270
q203 -106 397 -106q130 0 190 39t60 111q-32 59 -57 88q-23 26 -195 64l-64 15q-86 18 -147 42t-100 58.5t-57.5 82t-18.5 112.5q0 79 28.5 140.5t83.5 103.5t135 64t183 22q206 0 358 -60v-154q-157 80 -336 80q-138 0 -211 -46.5t-73 -131.5q0 -37 12.5 -65t42 -50.5
t78.5 -40.5t123 -34z" />
    <glyph glyph-name="Scaron" unicode="&#x160;" horiz-adv-x="1351" 
d="M976 2011l-245 -376h-148l-245 376h139l180 -245l180 245h139zM1111 1247q-115 55 -216.5 82t-197.5 27q-166 0 -255 -64t-89 -182q0 -50 13.5 -86.5t46 -63.5t87.5 -46.5t138 -34.5l122 -25q226 -43 333.5 -151.5t107.5 -290.5q0 -218 -144.5 -329.5t-427.5 -111.5
q-106 0 -225 23.5t-248 71.5v318q124 -69 241 -104t232 -35q87 0 154 19t113 49t70 65.5t24 68.5q0 30 -16.5 61.5t-51.5 60.5t-89.5 53.5t-131.5 39.5l-123 24q-113 22 -194 56.5t-133 84t-76.5 115.5t-24.5 152q0 99 36 178t103.5 134t164.5 84.5t220 29.5q210 0 437 -76
v-197z" />
    <glyph glyph-name="scaron" unicode="&#x161;" horiz-adv-x="1156" 
d="M880 1638l-245 -376h-148l-245 376h139l180 -245l180 245h139zM946 933q-157 80 -336 80q-138 0 -211 -46.5t-73 -131.5q0 -37 12.5 -65t42 -50.5t78.5 -40.5t123 -34l63 -14q98 -21 166.5 -48t112 -65t63 -89t19.5 -120q0 -78 -32 -140.5t-91.5 -106.5t-145.5 -67.5
t-194 -23.5q-179 0 -393 70v270q203 -106 397 -106q130 0 190 39t60 111q-32 59 -57 88q-23 26 -195 64l-64 15q-86 18 -147 42t-100 58.5t-57.5 82t-18.5 112.5q0 79 28.5 140.5t83.5 103.5t135 64t183 22q206 0 358 -60v-154z" />
    <glyph glyph-name="Ydieresis" unicode="&#x178;" horiz-adv-x="1559" 
d="M677 1723h-218v217h218v-217zM1096 1723h-218v217h218v-217zM638 0v511l-488 982h217l414 -764l411 764h217l-498 -982v-511h-273z" />
    <glyph glyph-name="Zcaron" unicode="&#x17d;" horiz-adv-x="1519" 
d="M1123 2011l-245 -376h-148l-245 376h139l180 -245l180 245h139zM1094 1323h-921v170h1173v-154l-944 -1039h967v-300h-1219v284z" />
    <glyph glyph-name="zcaron" unicode="&#x17e;" horiz-adv-x="1209" 
d="M970 1638l-245 -376h-148l-245 376h139l180 -245l180 245h139zM862 983h-667v137h864v-168l-632 -705h622v-247h-899v268z" />
    <glyph glyph-name="florin" unicode="&#x192;" horiz-adv-x="1551" 
d="M1401 1376q-75 57 -162 57q-96 0 -153 -61t-82 -193l-60 -331l287 20v-143l-317 -20l-67 -485q-22 -159 -50 -268t-62 -181t-74 -111.5t-87.5 -58.5t-102 -23t-116.5 -4q-58 0 -107.5 10.5t-97.5 32.5l60 316q103 -66 196 -66q48 0 85.5 16.5t66 52.5t50 93.5t38.5 140.5
l77 535l-248 -20v143l279 20l63 330q36 184 134.5 281t250.5 97q107 0 199 -36v-144z" />
    <glyph glyph-name="circumflex" unicode="&#x2c6;" horiz-adv-x="938" 
d="M289 1262h-139l245 376h148l245 -376h-139l-180 245z" />
    <glyph glyph-name="caron" unicode="&#x2c7;" horiz-adv-x="938" 
d="M788 1638l-245 -376h-148l-245 376h139l180 -245l180 245h139z" />
    <glyph glyph-name="breve" unicode="&#x2d8;" horiz-adv-x="926" 
d="M268 1608q22 -150 195 -150q170 0 195 150h118q-10 -144 -88.5 -215.5t-224.5 -71.5t-224.5 71.5t-88.5 215.5h118z" />
    <glyph glyph-name="dotaccent" unicode="&#x2d9;" horiz-adv-x="504" 
d="M354 1348h-204v204h204v-204z" />
    <glyph glyph-name="ring" unicode="&#x2da;" horiz-adv-x="848" 
d="M698 1524q0 -57 -21.5 -107.5t-58.5 -87.5t-87 -58.5t-107 -21.5t-107 21.5t-87 58.5t-58.5 87.5t-21.5 107.5t21.5 107t58.5 87t87 58.5t107 21.5t107 -21.5t87 -58.5t58.5 -87t21.5 -107zM576 1524q0 31 -12 59t-32.5 48t-48 32t-59.5 12q-33 0 -60.5 -11.5t-48 -32
t-32 -48t-11.5 -59.5q0 -33 11.5 -60.5t32 -48t48 -32t60.5 -11.5q32 0 59.5 12t48 32.5t32.5 48t12 59.5z" />
    <glyph glyph-name="ogonek" unicode="&#x2db;" horiz-adv-x="673" 
d="M377 0q-45 -61 -66.5 -105t-21.5 -75q0 -92 109 -92q63 0 125 30v-133q-78 -20 -136 -20q-123 0 -180 43t-57 137q0 48 26.5 100t81.5 115h119z" />
    <glyph glyph-name="tilde" unicode="&#x2dc;" horiz-adv-x="960" 
d="M419 1425q-42 39 -68 39q-38 0 -56 -36q-19 -39 -20 -119h-125q2 136 53 209t142 73q38 0 70 -14t69 -47l57 -55q42 -39 68 -39q38 0 56 37q19 37 20 118h125q-2 -136 -53 -209t-142 -73q-38 0 -70 14t-69 47z" />
    <glyph glyph-name="hungarumlaut" unicode="&#x2dd;" horiz-adv-x="1002" 
d="M287 1262h-137l190 376h170zM604 1262h-135l205 376h178z" />
    <glyph glyph-name="pi" unicode="&#x3c0;" horiz-adv-x="1525" 
d="M1375 1071l-35 -148h-182l-105 -497q-8 -37 -13 -67t-9 -53t-6 -40t-2 -28q0 -58 23.5 -82.5t78.5 -24.5q17 0 40 2.5t60 7.5l-30 -211q-58 -16 -111 -16q-59 0 -111.5 24t-92 62.5t-62.5 87t-23 98.5q0 23 3 52.5t8 65.5t21 94t43 139l110 386h-326l-164 -923h-291
l275 923h-41q-54 0 -84 -32t-39 -111h-160q14 83 37 139t62 89.5t96.5 48t140.5 14.5h889z" />
    <glyph glyph-name="endash" unicode="&#x2013;" horiz-adv-x="1324" 
d="M1174 489h-1024v144h1024v-144z" />
    <glyph glyph-name="emdash" unicode="&#x2014;" horiz-adv-x="2348" 
d="M2198 489h-2048v144h2048v-144z" />
    <glyph glyph-name="quoteleft" unicode="&#x2018;" horiz-adv-x="618" 
d="M510 1519l-100 -393v-212h-260v212l201 393h159z" />
    <glyph glyph-name="quoteright" unicode="&#x2019;" horiz-adv-x="589" 
d="M150 939l99 386v185h256v-185l-199 -386h-156z" />
    <glyph glyph-name="quotesinglbase" unicode="&#x201a;" horiz-adv-x="593" 
d="M150 -238l82 320v172h211v-172l-164 -320h-129z" />
    <glyph glyph-name="quotedblleft" unicode="&#x201c;" horiz-adv-x="1174" 
d="M514 1493l-102 -397v-215h-262v215l204 397h160zM1024 1493l-102 -397v-215h-262v215l204 397h160z" />
    <glyph glyph-name="quotedblright" unicode="&#x201d;" horiz-adv-x="1117" 
d="M150 921l95 372v200h246v-200l-191 -372h-150zM626 921l96 372v200h245v-200l-191 -372h-150z" />
    <glyph glyph-name="quotedblbase" unicode="&#x201e;" horiz-adv-x="1183" 
d="M150 -238l103 402v216h265v-216l-206 -402h-162zM665 -238l103 402v216h265v-216l-206 -402h-162z" />
    <glyph glyph-name="dagger" unicode="&#x2020;" horiz-adv-x="1210" 
d="M150 1073h367v420h176v-420h367v-153h-367v-1117h-176v1117h-367v153z" />
    <glyph glyph-name="daggerdbl" unicode="&#x2021;" horiz-adv-x="1210" 
d="M713 377h347v-224h-327l20 -350h-296l20 350h-327v224h347l20 543h-367v153h367v420h176v-420h367v-153h-367z" />
    <glyph glyph-name="bullet" unicode="&#x2022;" horiz-adv-x="894" 
d="M150 762q0 62 23 116t63.5 93.5t95 62.5t117.5 23q62 0 116 -23t93.5 -62.5t62.5 -93.5t23 -116q0 -63 -23 -117t-63 -94t-94 -63t-117 -23t-117 23t-94 63t-63 94t-23 117z" />
    <glyph glyph-name="ellipsis" unicode="&#x2026;" horiz-adv-x="1986" 
d="M473 0h-323v364h323v-364zM1154 0h-322v364h322v-364zM1836 0h-323v364h323v-364z" />
    <glyph glyph-name="perthousand" unicode="&#x2030;" horiz-adv-x="2823" 
d="M494 1520q79 0 143 -28.5t109 -81t69.5 -128t24.5 -168.5q0 -95 -24.5 -170t-69.5 -128t-109 -81t-143 -28q-80 0 -143.5 28.5t-108 81t-68.5 128t-24 169.5q0 93 24 168t69 128t108.5 81.5t142.5 28.5zM623 -29h-230l1004 1549h160zM494 1393q-87 0 -136 -57.5
t-49 -160.5t48.5 -160.5t136.5 -57.5t137 57.5t49 160.5q0 102 -49.5 160t-136.5 58zM1526 784q79 0 142.5 -28.5t108.5 -81.5t69 -128.5t24 -168.5t-24.5 -168.5t-69.5 -128t-108.5 -81t-141.5 -28.5q-80 0 -144 28.5t-109 81t-69 128t-24 168.5q0 94 24 169.5t69 128
t109 81t144 28.5zM2329 784q79 0 142.5 -28.5t108.5 -81.5t69 -128.5t24 -168.5t-24.5 -168.5t-69.5 -128t-108.5 -81t-141.5 -28.5q-80 0 -144 28.5t-109 81t-69 128t-24 168.5q0 94 24 169.5t69 128t109 81t144 28.5zM1526 657q-88 0 -137 -53t-49 -147t49 -147t137 -53
q85 0 134.5 53t49.5 147t-49.5 147t-134.5 53zM2329 657q-88 0 -137.5 -53t-49.5 -147t49.5 -147t137.5 -53q85 0 134.5 53t49.5 147t-49.5 147t-134.5 53z" />
    <glyph glyph-name="guilsinglleft" unicode="&#x2039;" horiz-adv-x="769" 
d="M150 559v82l469 418v-191l-301 -268l301 -268v-191z" />
    <glyph glyph-name="guilsinglright" unicode="&#x203a;" horiz-adv-x="769" 
d="M451 600l-301 268v191l469 -418v-82l-469 -418v191z" />
    <glyph glyph-name="fraction" unicode="&#x2044;" horiz-adv-x="1392" 
d="M310 -29h-160l932 1549h160z" />
    <glyph glyph-name="trademark" unicode="&#x2122;" horiz-adv-x="1641" 
d="M150 1399v94h518v-94h-203l30 -484h-174l30 484h-201zM751 915l40 578h172l164 -326l174 326h170l20 -578h-173l30 484l-175 -433h-95l-183 433l30 -484h-174z" />
    <glyph glyph-name="Omega" unicode="&#x2126;" horiz-adv-x="1709" 
d="M1559 238v-238h-600v238q88 28 158 83t118 130t73.5 166t25.5 192q0 145 -34.5 254t-97.5 181.5t-151.5 108.5t-196.5 36t-196.5 -36.5t-152 -109t-98 -181.5t-34.5 -253q0 -101 25.5 -192t74 -166t118.5 -130t159 -83v-238h-600v238h319q-79 69 -136.5 131t-94.5 127
t-54.5 138t-17.5 165q0 159 50.5 290t141 225t217 145.5t279.5 51.5q151 0 277.5 -52t218 -145t142 -222t50.5 -283q0 -97 -17 -172t-54 -140t-94 -127t-138 -132h320z" />
    <glyph glyph-name="partialdiff" unicode="&#x2202;" horiz-adv-x="1157" 
d="M802 621q30 174 30 325q0 260 -145 260q-186 -11 -202 -48q-17 -38 -53 -38t-50 7t-14 38t19.5 60t52.5 51t77.5 35.5t95.5 13.5q90 0 163 -40t124 -114.5t79 -180.5t28 -238q0 -168 -38.5 -310t-106 -246t-159.5 -162.5t-198 -58.5q-76 0 -141 28.5t-112.5 79.5
t-74.5 120.5t-27 150.5q0 99 29.5 182.5t81 144t121.5 94.5t151 34q102 0 166.5 -45.5t102.5 -142.5zM714 538q0 100 -48 153t-136 53q-60 0 -110.5 -29t-87.5 -81.5t-57.5 -126t-20.5 -161.5q0 -100 47 -152.5t137 -52.5q60 0 110.5 29.5t87.5 82t57.5 125.5t20.5 160z" />
    <glyph glyph-name="Delta" unicode="&#x2206;" horiz-adv-x="1682" 
d="M1532 0h-1382l579 1473h224zM422 298h836l-418 1084z" />
    <glyph glyph-name="product" unicode="&#x220f;" horiz-adv-x="1537" 
d="M459 -393h-309l-20 1866h1237l90 -1866h-310l-20 1661h-758z" />
    <glyph glyph-name="summation" unicode="&#x2211;" horiz-adv-x="1614" 
d="M1075 557l-895 779v137h1258v-153h-959l872 -757l-894 -684h1007v-272h-1314v229z" />
    <glyph glyph-name="minus" unicode="&#x2212;" horiz-adv-x="1582" 
d="M1432 557h-1282v170h1282v-170z" />
    <glyph glyph-name="middot.001" unicode="&#x2219;" horiz-adv-x="572" 
d="M422 584h-272v327h272v-327z" />
    <glyph glyph-name="radical" unicode="&#x221a;" horiz-adv-x="1544" 
d="M433 975l256 -709l516 1395h189v-96h-115l-594 -1606h-66l-319 883l-125 -45l-25 80z" />
    <glyph glyph-name="infinity" unicode="&#x221e;" horiz-adv-x="1566" 
d="M793 483q-70 -136 -148.5 -199t-172.5 -63q-68 0 -126.5 29.5t-102 82t-68.5 123.5t-25 154q0 87 22 159t61.5 123.5t95 80t122.5 28.5q95 0 171.5 -63t148.5 -201q68 138 147 203.5t176 65.5q67 0 126 -30t102.5 -82.5t68.5 -124t25 -155.5q0 -87 -22 -159t-61.5 -123
t-95 -79t-122.5 -28q-47 0 -88.5 14.5t-80 45.5t-76.5 80t-77 118zM844 649q49 -88 115.5 -133t151.5 -45q51 0 93 18t72 49.5t47 75.5t17 97q0 51 -15.5 94t-43.5 74.5t-65.5 49t-82.5 17.5q-41 0 -77.5 -16t-71 -51.5t-69 -92t-71.5 -137.5zM722 646q-24 44 -53 91
t-62.5 86t-71.5 64t-80 25q-51 0 -93 -17.5t-72.5 -49t-47 -75t-16.5 -96.5q0 -51 15.5 -94t43.5 -74.5t65.5 -49t82.5 -17.5q41 0 77.5 2t71.5 21t69.5 61t70.5 123z" />
    <glyph glyph-name="integral" unicode="&#x222b;" horiz-adv-x="1271" 
d="M414 -262q107 0 120 688q1 108 3 165q12 514 107 737q94 222 297 222q40 0 73 -11t57 -31t37 -47t13 -60q0 -54 -32 -85.5t-87 -31.5q-85 0 -110 73q-5 13 -10 51q-5 36 -21 36q-108 0 -121 -619q-2 -97 -4 -172.5t-4 -130.5q-17 -479 -111 -686q-95 -207 -291 -207
q-39 0 -72 11t-57 30.5t-37.5 46.5t-13.5 60q0 57 34 88t95 31q65 0 96 -57q10 -18 15 -59q4 -42 24 -42z" />
    <glyph glyph-name="approxequal" unicode="&#x2248;" horiz-adv-x="1582" 
d="M1432 834q-53 -39 -100.5 -67t-94 -46t-92.5 -26.5t-94 -8.5q-109 0 -256 59l-17 7q-3 1 -8 3t-13 5q-156 71 -249 71q-88 0 -174 -38t-184 -121v178q52 39 100 67t94.5 45.5t92.5 26t94 8.5q110 -11 257 -69q10 -5 15 -6l22 -9q153 -61 249 -61q43 0 85 9t85.5 28.5
t90 50t97.5 72.5v-178zM1432 444q-53 -39 -100.5 -67t-94 -45.5t-92.5 -26t-94 -8.5q-109 0 -256 59l-17 7q-3 1 -8 3t-13 5q-156 71 -249 71q-88 0 -174 -38t-184 -122v179q52 39 100 67t94.5 45.5t92.5 26t94 8.5q110 -11 257 -69l16 -7q3 -1 8 -3t13 -5q153 -61 249 -61
q43 0 85 9t85.5 28.5t90 50t97.5 72.5v-179z" />
    <glyph glyph-name="notequal" unicode="&#x2260;" horiz-adv-x="1582" 
d="M783 762h-633v168h772l256 315l125 -102l-174 -213h303v-168h-440l-195 -240h635v-170h-774l-258 -313l-125 102l174 211h-299v170h438z" />
    <glyph glyph-name="lessequal" unicode="&#x2264;" horiz-adv-x="1582" 
d="M150 825l1282 367v-176l-960 -277l960 -274v-178l-1282 368v170zM1432 0h-1282v170h1282v-170z" />
    <glyph glyph-name="greaterequal" unicode="&#x2265;" horiz-adv-x="1582" 
d="M150 465l961 274l-961 277v176l1282 -367v-170l-1282 -368v178zM150 0v170h1282v-170h-1282z" />
    <glyph glyph-name="lozenge" unicode="&#x25ca;" horiz-adv-x="1300" 
d="M650 -477l-500 1069l500 1061l500 -1061zM650 27l385 565l-385 817l-385 -817z" />
    <glyph glyph-name="c6459" horiz-adv-x="894" 
d="M353 1294h-203v203h203v-203zM744 1294h-203v203h203v-203z" />
    <glyph glyph-name="c6460" horiz-adv-x="681" 
d="M303 1262h-153l196 264h185z" />
    <glyph glyph-name="c6461" horiz-adv-x="960" 
d="M419 1370q-25 14 -40.5 19.5t-27.5 5.5q-36 0 -56 -25t-20 -70v-6h-125q0 102 51 160.5t138 58.5q18 0 34 -1.5t32.5 -6.5t35.5 -13.5t43 -21.5l57 -30q23 -13 40 -19t32 -6q32 0 52 25t20 67v6h125q-1 -50 -15 -90.5t-38.5 -69t-59 -44t-76.5 -15.5q-17 0 -32 1.5
t-31.5 6.5t-36 13t-45.5 22z" />
    <glyph glyph-name="c6462" horiz-adv-x="683" 
d="M380 1262l-230 264h187l196 -264h-153z" />
    <glyph glyph-name="c6463" horiz-adv-x="910" 
d="M289 1262h-139l211 266h188l211 -266h-139l-166 178z" />
    <glyph glyph-name="c6466" horiz-adv-x="910" 
d="M760 1528l-211 -266h-188l-211 266h139l166 -178l166 178h139z" />
    <glyph glyph-name="c6467" horiz-adv-x="993" 
d="M150 854v121l392 528h166v-540h135v-109h-135v-186h-144v186h-414zM255 963h309v419z" />
    <glyph glyph-name="c6468" horiz-adv-x="926" 
d="M268 1528q13 -54 62 -82.5t133 -28.5q164 0 195 111h118q-10 -120 -89.5 -181t-223.5 -61q-145 0 -224 60.5t-89 181.5h118z" />
    <glyph glyph-name="c6469" horiz-adv-x="504" 
d="M354 1294h-204v205h204v-205z" />
    <glyph glyph-name="glyph268" horiz-adv-x="0" 
 />
    <glyph glyph-name="Abreve" unicode="&#x102;" horiz-adv-x="1668" 
d="M650 1828q22 -150 195 -150q170 0 195 150h118q-10 -144 -88.5 -215.5t-224.5 -71.5t-224.5 71.5t-88.5 215.5h118zM423 0h-273l590 1493h189l589 -1493h-290l-56 243h-673zM560 481h549l-275 828z" />
    <glyph glyph-name="Abreveacute" unicode="&#x1eae;" horiz-adv-x="1668" 
d="M933 1903h-170l312 418h221zM650 1828q22 -150 195 -150q170 0 195 150h118q-10 -144 -88.5 -215.5t-224.5 -71.5t-224.5 71.5t-88.5 215.5h118zM423 0h-273l590 1493h189l589 -1493h-290l-56 243h-673zM560 481h549l-275 828z" />
    <glyph glyph-name="Abrevedotbelow" unicode="&#x1eb6;" horiz-adv-x="1668" 
d="M650 1828q22 -150 195 -150q170 0 195 150h118q-10 -144 -88.5 -215.5t-224.5 -71.5t-224.5 71.5t-88.5 215.5h118zM423 0h-273l590 1493h189l589 -1493h-290l-56 243h-673zM560 481h549l-275 828zM924 -299h-205v221h205v-221z" />
    <glyph glyph-name="Abrevegrave" unicode="&#x1eb0;" horiz-adv-x="1668" 
d="M721 1924l-206 374h197l282 -374h-273zM650 1828q22 -150 195 -150q170 0 195 150h118q-10 -144 -88.5 -215.5t-224.5 -71.5t-224.5 71.5t-88.5 215.5h118zM423 0h-273l590 1493h189l589 -1493h-290l-56 243h-673zM560 481h549l-275 828z" />
    <glyph glyph-name="Abrevehookabove" unicode="&#x1eb2;" horiz-adv-x="1668" 
d="M732 1944q54 25 106 25q50 0 82 -21q31 -22 31 -53t-43 -62l-22 -15q-17 -14 -19 -17q-3 -9 -3 -24h-58v6q0 20 7 33q7 12 32 31l22 17q23 17 23 36q0 10 -15 19t-50 9q-43 0 -93 -26v42zM650 1828q22 -150 195 -150q170 0 195 150h118q-10 -144 -88.5 -215.5
t-224.5 -71.5t-224.5 71.5t-88.5 215.5h118zM423 0h-273l590 1493h189l589 -1493h-290l-56 243h-673zM560 481h549l-275 828z" />
    <glyph glyph-name="Abrevetilde" unicode="&#x1eb4;" horiz-adv-x="1668" 
d="M784 2001q-42 39 -68 39q-38 0 -56 -36q-19 -39 -20 -119h-125q2 136 53 209t142 73q38 0 70 -14t69 -47l57 -55q42 -39 68 -39q38 0 56 37q19 37 20 118h125q-2 -136 -53 -209t-142 -73q-38 0 -70 14t-69 47zM650 1828q22 -150 195 -150q170 0 195 150h118
q-10 -144 -88.5 -215.5t-224.5 -71.5t-224.5 71.5t-88.5 215.5h118zM423 0h-273l590 1493h189l589 -1493h-290l-56 243h-673zM560 481h549l-275 828z" />
    <glyph glyph-name="Acaron" unicode="&#x1cd;" horiz-adv-x="1668" 
d="M1164 1913l-245 -376h-148l-245 376h139l180 -245l180 245h139zM423 0h-273l590 1493h189l589 -1493h-290l-56 243h-673zM560 481h549l-275 828z" />
    <glyph glyph-name="Acircumflexacute" unicode="&#x1ea4;" horiz-adv-x="1668" 
d="M933 1903h-170l312 418h221zM665 1502h-139l245 376h148l245 -376h-139l-180 245zM423 0h-273l590 1493h189l589 -1493h-290l-56 243h-673zM560 481h549l-275 828z" />
    <glyph glyph-name="Acircumflexdotbelow" unicode="&#x1eac;" horiz-adv-x="1668" 
d="M665 1502h-139l245 376h148l245 -376h-139l-180 245zM423 0h-273l590 1493h189l589 -1493h-290l-56 243h-673zM560 481h549l-275 828zM924 -299h-205v221h205v-221z" />
    <glyph glyph-name="Acircumflexgrave" unicode="&#x1ea6;" horiz-adv-x="1668" 
d="M721 1924l-206 374h197l282 -374h-273zM665 1502h-139l245 376h148l245 -376h-139l-180 245zM423 0h-273l590 1493h189l589 -1493h-290l-56 243h-673zM560 481h549l-275 828z" />
    <glyph glyph-name="Acircumflexhookabove" unicode="&#x1ea8;" horiz-adv-x="1668" 
d="M665 1502h-139l245 376h148l245 -376h-139l-180 245zM1139 1794q54 25 106 25q50 0 82 -21q31 -22 31 -53t-43 -62l-22 -15q-17 -14 -19 -17q-3 -9 -3 -24h-58v6q0 20 7 33q7 12 32 31l22 17q23 17 23 36q0 10 -15 19t-50 9q-43 0 -93 -26v42zM423 0h-273l590 1493h189
l589 -1493h-290l-56 243h-673zM560 481h549l-275 828z" />
    <glyph glyph-name="Acircumflextilde" unicode="&#x1eaa;" horiz-adv-x="1668" 
d="M784 2001q-42 39 -68 39q-38 0 -56 -36q-19 -39 -20 -119h-125q2 136 53 209t142 73q38 0 70 -14t69 -47l57 -55q42 -39 68 -39q38 0 56 37q19 37 20 118h125q-2 -136 -53 -209t-142 -73q-38 0 -70 14t-69 47zM665 1502h-139l245 376h148l245 -376h-139l-180 245zM423 0
h-273l590 1493h189l589 -1493h-290l-56 243h-673zM560 481h549l-275 828z" />
    <glyph glyph-name="Adieresismacron" unicode="&#x1de;" horiz-adv-x="1668" 
d="M526 1625v217h218v-122h201v122h218v-217h-19v-53h-598v53h-20zM1228 0l-56 243h-673l-76 -243h-273l590 1493h189l589 -1493h-290zM834 1309l-274 -828h549z" />
    <glyph glyph-name="Adotbelow" unicode="&#x1ea0;" horiz-adv-x="1668" 
d="M423 0h-273l590 1493h189l589 -1493h-290l-56 243h-673zM560 481h549l-275 828zM924 -299h-205v221h205v-221z" />
    <glyph glyph-name="Ahookabove" unicode="&#x1ea2;" horiz-adv-x="1668" 
d="M726 1724q54 25 106 25q50 0 82 -21q31 -22 31 -53t-43 -62l-22 -15q-17 -14 -19 -17q-3 -9 -3 -24h-58v6q0 20 7 33q7 12 32 31l22 17q23 17 23 36q0 10 -15 19t-50 9q-43 0 -93 -26v42zM423 0h-273l590 1493h189l589 -1493h-290l-56 243h-673zM560 481h549l-275 828z
" />
    <glyph glyph-name="Amacron" unicode="&#x100;" horiz-adv-x="1668" 
d="M1144 1572h-598v148h598v-148zM423 0h-273l590 1493h189l589 -1493h-290l-56 243h-673zM560 481h549l-275 828z" />
    <glyph glyph-name="Aogonek" unicode="&#x104;" horiz-adv-x="1668" 
d="M1370 0q-45 -61 -66.5 -105t-21.5 -75q0 -92 109 -92q63 0 125 30v-133q-78 -20 -136 -20q-123 0 -180 43t-57 137q0 48 26.5 100t81.5 115h-23l-56 243h-673l-76 -243h-273l590 1493h189l589 -1493h-148zM834 1309l-274 -828h549z" />
    <glyph glyph-name="Bdotbelow" unicode="&#x1e04;" horiz-adv-x="1379" 
d="M150 0v1493h466q115 0 205 -24.5t151 -71.5t93 -116t32 -157q0 -138 -63.5 -218.5t-188.5 -100.5q99 -16 171.5 -50t120 -83.5t70 -113.5t22.5 -140q0 -100 -37.5 -178t-108 -131t-171 -81t-226.5 -28h-536zM352 1357v-480h299q149 0 221 55t72 170q0 57 -18 103.5
t-54.5 80.5t-91.5 52.5t-129 18.5h-299zM352 713v-417h324q81 0 141.5 10.5t100 37t59 72t19.5 114.5q0 49 -78 117q-80 66 -242 66h-324zM710 -299h-205v221h205v-221z" />
    <glyph glyph-name="Cdotaccent" unicode="&#x10a;" horiz-adv-x="1504" 
d="M885 1721h-204v204h204v-204zM1354 1165q-202 189 -463 189q-128 0 -226.5 -39.5t-165.5 -117t-101.5 -191t-34.5 -261.5q2 -131 36.5 -220.5t101.5 -144.5t164.5 -79t225.5 -24q261 0 463 189v-351q-212 -144 -475 -144q-170 0 -305 53.5t-229 154t-144.5 243.5
t-50.5 323t50.5 323.5t144.5 244t229 154t305 53.5q267 0 475 -142v-213z" />
    <glyph glyph-name="Dcaron" unicode="&#x10e;" horiz-adv-x="1555" 
d="M1043 2011l-245 -376h-148l-245 376h139l180 -245l180 245h139zM150 0v1493h415q217 0 375.5 -44.5t261.5 -136t153 -232t50 -332.5q0 -193 -50.5 -334t-154 -233t-261.5 -136.5t-374 -44.5h-415zM362 1327v-951h244q154 0 257 18.5t170 63.5t105 120.5t64 189.5
q0 280 -143.5 419.5t-452.5 139.5h-244z" />
    <glyph glyph-name="Dcircumflexbelow" unicode="&#x1e12;" horiz-adv-x="1555" 
d="M150 0v1493h415q217 0 375.5 -44.5t261.5 -136t153 -232t50 -332.5q0 -193 -50.5 -334t-154 -233t-261.5 -136.5t-374 -44.5h-415zM362 1327v-951h244q154 0 257 18.5t170 63.5t105 120.5t64 189.5q0 280 -143.5 419.5t-452.5 139.5h-244zM460 -451h-139l245 376h148
l245 -376h-139l-180 245z" />
    <glyph glyph-name="Dcroat" unicode="&#x110;" horiz-adv-x="1555" 
d="M1023 1670h-598v148h598v-148zM150 0v1493h415q217 0 375.5 -44.5t261.5 -136t153 -232t50 -332.5q0 -193 -50.5 -334t-154 -233t-261.5 -136.5t-374 -44.5h-415zM362 1327v-951h244q154 0 257 18.5t170 63.5t105 120.5t64 189.5q0 280 -143.5 419.5t-452.5 139.5h-244z
" />
    <glyph glyph-name="Ddotbelow" unicode="&#x1e0c;" horiz-adv-x="1555" 
d="M150 0v1493h415q217 0 375.5 -44.5t261.5 -136t153 -232t50 -332.5q0 -193 -50.5 -334t-154 -233t-261.5 -136.5t-374 -44.5h-415zM362 1327v-951h244q154 0 257 18.5t170 63.5t105 120.5t64 189.5q0 280 -143.5 419.5t-452.5 139.5h-244zM791 -299h-205v221h205v-221z
" />
    <glyph glyph-name="Dlinebelow" unicode="&#x1e0e;" horiz-adv-x="1555" 
d="M150 0v1493h415q217 0 375.5 -44.5t261.5 -136t153 -232t50 -332.5q0 -193 -50.5 -334t-154 -233t-261.5 -136.5t-374 -44.5h-415zM362 1327v-951h244q154 0 257 18.5t170 63.5t105 120.5t64 189.5q0 280 -143.5 419.5t-452.5 139.5h-244zM850 -247l-539 -9l7 164l539 10
z" />
    <glyph glyph-name="Ecaron" unicode="&#x11a;" horiz-adv-x="1262" 
d="M918 1961l-245 -376h-148l-245 376h139l180 -245l180 245h139zM1112 0h-962v1493h944v-170h-742v-442h711v-170h-711v-401h760v-310z" />
    <glyph glyph-name="uni0228" unicode="&#x228;" horiz-adv-x="1262" 
d="M777 0q55 -63 82 -115t27 -100q0 -180 -238 -180q-91 0 -176 24v131q34 -17 70.5 -24.5t84.5 -7.5q119 0 119 94q0 30 -21.5 73.5t-66.5 104.5h-508v1493h944v-170h-742v-442h711v-170h-711v-401h760v-310h-335z" />
    <glyph glyph-name="Ecircumflexacute" unicode="&#x1ebe;" horiz-adv-x="1262" 
d="M687 1951h-170l312 418h221zM419 1550h-139l245 376h148l245 -376h-139l-180 245zM1112 0h-962v1493h944v-170h-742v-442h711v-170h-711v-401h760v-310z" />
    <glyph glyph-name="Ecircumflexdotbelow" unicode="&#x1ec6;" horiz-adv-x="1262" 
d="M419 1550h-139l245 376h148l245 -376h-139l-180 245zM1112 0h-962v1493h944v-170h-742v-442h711v-170h-711v-401h760v-310zM741 -299h-205v221h205v-221z" />
    <glyph glyph-name="Ecircumflexgrave" unicode="&#x1ec0;" horiz-adv-x="1262" 
d="M475 1972l-206 374h197l282 -374h-273zM419 1550h-139l245 376h148l245 -376h-139l-180 245zM1112 0h-962v1493h944v-170h-742v-442h711v-170h-711v-401h760v-310z" />
    <glyph glyph-name="Ecircumflexhookabove" unicode="&#x1ec2;" horiz-adv-x="1262" 
d="M419 1550h-139l245 376h148l245 -376h-139l-180 245zM870 1833q54 25 106 25q50 0 82 -21q31 -22 31 -53t-43 -62l-22 -15q-17 -14 -19 -17q-3 -9 -3 -24h-58v6q0 20 7 33q7 12 32 31l22 17q23 17 23 36q0 10 -15 19t-50 9q-43 0 -93 -26v42zM1112 0h-962v1493h944v-170
h-742v-442h711v-170h-711v-401h760v-310z" />
    <glyph glyph-name="Ecircumflextilde" unicode="&#x1ec4;" horiz-adv-x="1262" 
d="M538 2049q-42 39 -68 39q-38 0 -56 -36q-19 -39 -20 -119h-125q2 136 53 209t142 73q38 0 70 -14t69 -47l57 -55q42 -39 68 -39q38 0 56 37q19 37 20 118h125q-2 -136 -53 -209t-142 -73q-38 0 -70 14t-69 47zM419 1550h-139l245 376h148l245 -376h-139l-180 245zM1112 0
h-962v1493h944v-170h-742v-442h711v-170h-711v-401h760v-310z" />
    <glyph glyph-name="Edotaccent" unicode="&#x116;" horiz-adv-x="1262" 
d="M701 1671h-204v204h204v-204zM1112 0h-962v1493h944v-170h-742v-442h711v-170h-711v-401h760v-310z" />
    <glyph glyph-name="Edotbelow" unicode="&#x1eb8;" horiz-adv-x="1262" 
d="M1112 0h-962v1493h944v-170h-742v-442h711v-170h-711v-401h760v-310zM741 -299h-205v221h205v-221z" />
    <glyph glyph-name="Ehookabove" unicode="&#x1eba;" horiz-adv-x="1262" 
d="M519 1741q54 25 106 25q50 0 82 -21q31 -22 31 -53t-43 -62l-22 -15q-17 -14 -19 -17q-3 -9 -3 -24h-58v6q0 20 7 33q7 12 32 31l22 17q23 17 23 36q0 10 -15 19t-50 9q-43 0 -93 -26v42zM1112 0h-962v1493h944v-170h-742v-442h711v-170h-711v-401h760v-310z" />
    <glyph glyph-name="Emacron" unicode="&#x112;" horiz-adv-x="1262" 
d="M898 1620h-598v148h598v-148zM1112 0h-962v1493h944v-170h-742v-442h711v-170h-711v-401h760v-310z" />
    <glyph glyph-name="Eogonek" unicode="&#x118;" horiz-adv-x="1262" 
d="M745 0q-45 -61 -66.5 -105t-21.5 -75q0 -92 109 -92q63 0 125 30v-133q-78 -20 -136 -20q-123 0 -180 43t-57 137q0 48 26.5 100t81.5 115h-476v1493h944v-170h-742v-442h711v-170h-711v-401h760v-310h-367z" />
    <glyph glyph-name="Etilde" unicode="&#x1ebc;" horiz-adv-x="1262" 
d="M538 2049q-42 39 -68 39q-38 0 -56 -36q-19 -39 -20 -119h-125q2 136 53 209t142 73q38 0 70 -14t69 -47l57 -55q42 -39 68 -39q38 0 56 37q19 37 20 118h125q-2 -136 -53 -209t-142 -73q-38 0 -70 14t-69 47zM1112 0h-962v1493h944v-170h-742v-442h711v-170h-711v-401
h760v-310z" />
    <glyph glyph-name="Gcaron" unicode="&#x1e6;" horiz-adv-x="1604" 
d="M1146 2011l-245 -376h-148l-245 376h139l180 -245l180 245h139zM1224 534h-320v216h550v-611q-118 -84 -258 -126t-301 -42q-175 0 -313.5 52.5t-234.5 152t-146.5 243t-50.5 326.5t50.5 327t146.5 243.5t234.5 152t313.5 52.5q147 0 277.5 -36t242.5 -106v-195
q-224 191 -503 191q-275 0 -412 -152t-137 -457q5 -138 40 -228.5t102.5 -143.5t168.5 -74.5t238 -21.5q54 0 102.5 4.5t89 14t71.5 23.5t49 34v161z" />
    <glyph glyph-name="Gcommaaccent" unicode="&#x122;" horiz-adv-x="1604" 
d="M1224 534h-320v216h550v-611q-118 -84 -258 -126t-301 -42q-175 0 -313.5 52.5t-234.5 152t-146.5 243t-50.5 326.5t50.5 327t146.5 243.5t234.5 152t313.5 52.5q147 0 277.5 -36t242.5 -106v-195q-224 191 -503 191q-275 0 -412 -152t-137 -457q5 -138 40 -228.5
t102.5 -143.5t168.5 -74.5t238 -21.5q54 0 102.5 4.5t89 14t71.5 23.5t49 34v161zM634 -687l102 320v212h251v-212l-224 -320h-129z" />
    <glyph glyph-name="Gdotaccent" unicode="&#x120;" horiz-adv-x="1604" 
d="M929 1721h-204v204h204v-204zM1224 534h-320v216h550v-611q-118 -84 -258 -126t-301 -42q-175 0 -313.5 52.5t-234.5 152t-146.5 243t-50.5 326.5t50.5 327t146.5 243.5t234.5 152t313.5 52.5q147 0 277.5 -36t242.5 -106v-195q-224 191 -503 191q-275 0 -412 -152
t-137 -457q5 -138 40 -228.5t102.5 -143.5t168.5 -74.5t238 -21.5q54 0 102.5 4.5t89 14t71.5 23.5t49 34v161z" />
    <glyph glyph-name="Hbar" unicode="&#x126;" horiz-adv-x="1458" 
d="M1308 0h-232v501h-694v-501h-232l15 1110h-129l10 144h121l3 239h212v-239h694v239h212l3 -239h119l10 -144h-127zM382 1110v-329h694v329h-694z" />
    <glyph glyph-name="Hdotbelow" unicode="&#x1e24;" horiz-adv-x="1458" 
d="M382 0h-232l20 1493h212v-712h694v712h212l20 -1493h-232v501h-694v-501zM805 -299h-205v221h205v-221z" />
    <glyph glyph-name="IJ" unicode="&#x132;" horiz-adv-x="1368" 
d="M1006 1495l212 -14l-54 -1418q-3 -135 -29 -228.5t-80.5 -152t-139 -85.5t-202.5 -29l-117 12l-4 330l102 -22q67 3 115.5 21t79.5 44.5t46.5 58.5t16.5 64zM150 0q11 187 17.5 373.5t10 373t6 373t6.5 373.5h172q5 -374 7.5 -747t22.5 -746h-242z" />
    <glyph glyph-name="Icaron" unicode="&#x1cf;" horiz-adv-x="542" 
d="M600 2011l-245 -376h-148l-245 376h139l180 -245l180 245h139zM150 0q11 187 17.5 373.5t10 373t6 373t6.5 373.5h172q5 -374 7.5 -747t22.5 -746h-242z" />
    <glyph glyph-name="Idieresisacute" unicode="&#x1e2e;" horiz-adv-x="542" 
d="M369 2001h-170l312 418h221zM180 1723h-218v217h218v-217zM599 1723h-218v217h218v-217zM150 0q11 187 17.5 373.5t10 373t6 373t6.5 373.5h172q5 -374 7.5 -747t22.5 -746h-242z" />
    <glyph glyph-name="Idotbelow" unicode="&#x1eca;" horiz-adv-x="542" 
d="M150 0q11 187 17.5 373.5t10 373t6 373t6.5 373.5h172q5 -374 7.5 -747t22.5 -746h-242zM371 -299h-205v221h205v-221z" />
    <glyph glyph-name="Ihookabove" unicode="&#x1ec8;" horiz-adv-x="542" 
d="M168 1740q54 25 106 25q50 0 82 -21q31 -22 31 -53t-43 -62l-22 -15q-17 -14 -19 -17q-3 -9 -3 -24h-58v6q0 20 7 33q7 12 32 31l22 17q23 17 23 36q0 10 -15 19t-50 9q-43 0 -93 -26v42zM150 0q11 187 17.5 373.5t10 373t6 373t6.5 373.5h172q5 -374 7.5 -747t22.5 -746
h-242z" />
    <glyph glyph-name="Imacron" unicode="&#x12a;" horiz-adv-x="542" 
d="M580 1670h-598v148h598v-148zM150 0q11 187 17.5 373.5t10 373t6 373t6.5 373.5h172q5 -374 7.5 -747t22.5 -746h-242z" />
    <glyph glyph-name="Iogonek" unicode="&#x12e;" horiz-adv-x="542" 
d="M340 0q-45 -61 -66.5 -105t-21.5 -75q0 -92 109 -92q63 0 125 30v-133q-78 -20 -136 -20q-123 0 -180 43t-57 137q0 48 26.5 100t81.5 115h-71q11 187 17.5 373.5t10 373t6 373t6.5 373.5h172q5 -374 7.5 -747t22.5 -746h-52z" />
    <glyph glyph-name="Itilde" unicode="&#x128;" horiz-adv-x="542" 
d="M220 2099q-42 39 -68 39q-38 0 -56 -36q-19 -39 -20 -119h-125q2 136 53 209t142 73q38 0 70 -14t69 -47l57 -55q42 -39 68 -39q38 0 56 37q19 37 20 118h125q-2 -136 -53 -209t-142 -73q-38 0 -70 14t-69 47zM150 0q11 187 17.5 373.5t10 373t6 373t6.5 373.5h172
q5 -374 7.5 -747t22.5 -746h-242z" />
    <glyph glyph-name="Kcommaaccent" unicode="&#x136;" horiz-adv-x="1505" 
d="M412 0h-262l40 1493h202l-20 -631l670 631h260l-741 -696l794 -797h-476l-507 719zM407 -654l102 320v212h251v-212l-224 -320h-129z" />
    <glyph glyph-name="Lacute" unicode="&#x139;" horiz-adv-x="1239" 
d="M395 2001h-170l312 418h221zM1069 0h-919l20 1493h202v-1183h717z" />
    <glyph glyph-name="Lcaron" unicode="&#x13d;" horiz-adv-x="1239" 
d="M645 1047l99 386v185h256v-185l-199 -386h-156zM1069 0h-919l20 1493h202v-1183h717z" />
    <glyph glyph-name="Lcircumflexbelow" unicode="&#x1e3c;" horiz-adv-x="1239" 
d="M1069 0h-919l20 1493h202v-1183h717zM449 -451h-139l245 376h148l245 -376h-139l-180 245z" />
    <glyph glyph-name="Lcommaaccent" unicode="&#x13b;" horiz-adv-x="1239" 
d="M1069 0h-919l20 1493h202v-1183h717zM371 -648l102 320v212h251v-212l-224 -320h-129z" />
    <glyph glyph-name="Ldot" unicode="&#x13f;" horiz-adv-x="1239" 
d="M1069 0h-919l20 1493h202v-1183h717zM870 584h-211v254h211v-254z" />
    <glyph glyph-name="Ldotbelow" unicode="&#x1e36;" horiz-adv-x="1239" 
d="M1069 0h-919l20 1493h202v-1183h717zM691 -299h-205v221h205v-221z" />
    <glyph glyph-name="Macute" unicode="&#x1e3e;" horiz-adv-x="1706" 
d="M933 1506h-170l312 418h221zM406 0h-256l30 1493h301l371 -886l393 886h281l30 -1493h-257l40 1311l-365 -1074h-243l-365 1074z" />
    <glyph glyph-name="Nacute" unicode="&#x143;" horiz-adv-x="1450" 
d="M825 2001h-170l312 418h221zM406 0h-256l40 1463h252l642 -1179l30 1209h186v-1493h-292l-662 1249z" />
    <glyph glyph-name="Ncaron" unicode="&#x147;" horiz-adv-x="1450" 
d="M1056 2011l-245 -376h-148l-245 376h139l180 -245l180 245h139zM406 0h-256l40 1463h252l642 -1179l30 1209h186v-1493h-292l-662 1249z" />
    <glyph glyph-name="Ncircumflexbelow" unicode="&#x1e4a;" horiz-adv-x="1450" 
d="M406 0h-256l40 1463h252l642 -1179l30 1209h186v-1493h-292l-662 1249zM580 -451h-139l245 376h148l245 -376h-139l-180 245z" />
    <glyph glyph-name="Ncommaaccent" unicode="&#x145;" horiz-adv-x="1450" 
d="M406 0h-256l40 1463h252l642 -1179l30 1209h186v-1493h-292l-662 1249zM462 -603l102 320v212h251v-212l-224 -320h-129z" />
    <glyph glyph-name="Ndotaccent" unicode="&#x1e44;" horiz-adv-x="1450" 
d="M839 1721h-204v204h204v-204zM406 0h-256l40 1463h252l642 -1179l30 1209h186v-1493h-292l-662 1249z" />
    <glyph glyph-name="Ndotbelow" unicode="&#x1e46;" horiz-adv-x="1450" 
d="M406 0h-256l40 1463h252l642 -1179l30 1209h186v-1493h-292l-662 1249zM791 -299h-205v221h205v-221z" />
    <glyph glyph-name="Eng" unicode="&#x14a;" horiz-adv-x="1450" 
d="M1299 0l-106 -288l-106 -184q-18 10 -50 22t-71 25t-81 27.5t-79 31t-66 34t-42 37.5q24 23 59 50t72 54t73 54t62 50q17 23 27.5 44t16.5 43h-1l-662 1249l60 -1249h-256l40 1463h252l642 -1179l30 1209h186v-1493z" />
    <glyph glyph-name="Ocaron" unicode="&#x1d1;" horiz-adv-x="1682" 
d="M1160 2011l-245 -376h-148l-245 376h139l180 -245l180 245h139zM842 1520q157 0 284.5 -54.5t217.5 -156t139 -244.5t49 -320t-49 -320t-139 -244t-217.5 -155.5t-284.5 -54.5q-158 0 -285.5 54.5t-218 155.5t-139.5 244t-49 320t49 320t139.5 244.5t218 156t285.5 54.5z
M842 1356q-110 0 -198.5 -42.5t-151 -121.5t-96 -192.5t-33.5 -254.5q0 -116 33.5 -191.5t96 -119.5t151 -61.5t198.5 -17.5t198 17.5t150 61.5t95.5 119.5t33.5 191.5q0 141 -33.5 254.5t-95.5 192.5t-150 121.5t-198 42.5z" />
    <glyph glyph-name="Ocircumflexacute" unicode="&#x1ed0;" horiz-adv-x="1682" 
d="M929 2001h-170l312 418h221zM661 1600h-139l245 376h148l245 -376h-139l-180 245zM842 1520q157 0 284.5 -54.5t217.5 -156t139 -244.5t49 -320t-49 -320t-139 -244t-217.5 -155.5t-284.5 -54.5q-158 0 -285.5 54.5t-218 155.5t-139.5 244t-49 320t49 320t139.5 244.5
t218 156t285.5 54.5zM842 1356q-110 0 -198.5 -42.5t-151 -121.5t-96 -192.5t-33.5 -254.5q0 -116 33.5 -191.5t96 -119.5t151 -61.5t198.5 -17.5t198 17.5t150 61.5t95.5 119.5t33.5 191.5q0 141 -33.5 254.5t-95.5 192.5t-150 121.5t-198 42.5z" />
    <glyph glyph-name="Ocircumflexdotbelow" unicode="&#x1ed8;" horiz-adv-x="1682" 
d="M661 1600h-139l245 376h148l245 -376h-139l-180 245zM842 1520q157 0 284.5 -54.5t217.5 -156t139 -244.5t49 -320t-49 -320t-139 -244t-217.5 -155.5t-284.5 -54.5q-158 0 -285.5 54.5t-218 155.5t-139.5 244t-49 320t49 320t139.5 244.5t218 156t285.5 54.5zM842 1356
q-110 0 -198.5 -42.5t-151 -121.5t-96 -192.5t-33.5 -254.5q0 -116 33.5 -191.5t96 -119.5t151 -61.5t198.5 -17.5t198 17.5t150 61.5t95.5 119.5t33.5 191.5q0 141 -33.5 254.5t-95.5 192.5t-150 121.5t-198 42.5zM930 -299h-205v221h205v-221z" />
    <glyph glyph-name="Ocircumflexgrave" unicode="&#x1ed2;" horiz-adv-x="1682" 
d="M717 2022l-206 374h197l282 -374h-273zM661 1600h-139l245 376h148l245 -376h-139l-180 245zM842 1520q157 0 284.5 -54.5t217.5 -156t139 -244.5t49 -320t-49 -320t-139 -244t-217.5 -155.5t-284.5 -54.5q-158 0 -285.5 54.5t-218 155.5t-139.5 244t-49 320t49 320
t139.5 244.5t218 156t285.5 54.5zM842 1356q-110 0 -198.5 -42.5t-151 -121.5t-96 -192.5t-33.5 -254.5q0 -116 33.5 -191.5t96 -119.5t151 -61.5t198.5 -17.5t198 17.5t150 61.5t95.5 119.5t33.5 191.5q0 141 -33.5 254.5t-95.5 192.5t-150 121.5t-198 42.5z" />
    <glyph glyph-name="Ocircumflexhookabove" unicode="&#x1ed4;" horiz-adv-x="1682" 
d="M661 1600h-139l245 376h148l245 -376h-139l-180 245zM1135 1901q54 25 106 25q50 0 82 -21q31 -22 31 -53t-43 -62l-22 -15q-17 -14 -19 -17q-3 -9 -3 -24h-58v6q0 20 7 33q7 12 32 31l22 17q23 17 23 36q0 10 -15 19t-50 9q-43 0 -93 -26v42zM842 1520
q157 0 284.5 -54.5t217.5 -156t139 -244.5t49 -320t-49 -320t-139 -244t-217.5 -155.5t-284.5 -54.5q-158 0 -285.5 54.5t-218 155.5t-139.5 244t-49 320t49 320t139.5 244.5t218 156t285.5 54.5zM842 1356q-110 0 -198.5 -42.5t-151 -121.5t-96 -192.5t-33.5 -254.5
q0 -116 33.5 -191.5t96 -119.5t151 -61.5t198.5 -17.5t198 17.5t150 61.5t95.5 119.5t33.5 191.5q0 141 -33.5 254.5t-95.5 192.5t-150 121.5t-198 42.5z" />
    <glyph glyph-name="Ocircumflextilde" unicode="&#x1ed6;" horiz-adv-x="1682" 
d="M780 2099q-42 39 -68 39q-38 0 -56 -36q-19 -39 -20 -119h-125q2 136 53 209t142 73q38 0 70 -14t69 -47l57 -55q42 -39 68 -39q38 0 56 37q19 37 20 118h125q-2 -136 -53 -209t-142 -73q-38 0 -70 14t-69 47zM661 1600h-139l245 376h148l245 -376h-139l-180 245z
M842 1520q157 0 284.5 -54.5t217.5 -156t139 -244.5t49 -320t-49 -320t-139 -244t-217.5 -155.5t-284.5 -54.5q-158 0 -285.5 54.5t-218 155.5t-139.5 244t-49 320t49 320t139.5 244.5t218 156t285.5 54.5zM842 1356q-110 0 -198.5 -42.5t-151 -121.5t-96 -192.5
t-33.5 -254.5q0 -116 33.5 -191.5t96 -119.5t151 -61.5t198.5 -17.5t198 17.5t150 61.5t95.5 119.5t33.5 191.5q0 141 -33.5 254.5t-95.5 192.5t-150 121.5t-198 42.5z" />
    <glyph glyph-name="uni022A" unicode="&#x22a;" horiz-adv-x="1682" 
d="M522 1723v217h218v-122h201v122h218v-217h-19v-53h-598v53h-20zM842 1520q157 0 284.5 -54.5t217.5 -156t139 -244.5t49 -320t-49 -320t-139 -244t-217.5 -155.5t-284.5 -54.5q-158 0 -285.5 54.5t-218 155.5t-139.5 244t-49 320t49 320t139.5 244.5t218 156t285.5 54.5z
M842 355q110 0 198 17.5t150 61.5t95.5 119.5t33.5 191.5q0 141 -33.5 254.5t-95.5 192.5t-150 121.5t-198 42.5t-198.5 -42.5t-151 -121.5t-96 -192.5t-33.5 -254.5q0 -116 33.5 -191.5t96 -119.5t151 -61.5t198.5 -17.5z" />
    <glyph glyph-name="Odotbelow" unicode="&#x1ecc;" horiz-adv-x="1682" 
d="M842 1520q157 0 284.5 -54.5t217.5 -156t139 -244.5t49 -320t-49 -320t-139 -244t-217.5 -155.5t-284.5 -54.5q-158 0 -285.5 54.5t-218 155.5t-139.5 244t-49 320t49 320t139.5 244.5t218 156t285.5 54.5zM842 1356q-110 0 -198.5 -42.5t-151 -121.5t-96 -192.5
t-33.5 -254.5q0 -116 33.5 -191.5t96 -119.5t151 -61.5t198.5 -17.5t198 17.5t150 61.5t95.5 119.5t33.5 191.5q0 141 -33.5 254.5t-95.5 192.5t-150 121.5t-198 42.5zM930 -299h-205v221h205v-221z" />
    <glyph glyph-name="Ohookabove" unicode="&#x1ece;" horiz-adv-x="1682" 
d="M709 1748q54 25 106 25q50 0 82 -21q31 -22 31 -53t-43 -62l-22 -15q-17 -14 -19 -17q-3 -9 -3 -24h-58v6q0 20 7 33q7 12 32 31l22 17q23 17 23 36q0 10 -15 19t-50 9q-43 0 -93 -26v42zM842 1520q157 0 284.5 -54.5t217.5 -156t139 -244.5t49 -320t-49 -320t-139 -244
t-217.5 -155.5t-284.5 -54.5q-158 0 -285.5 54.5t-218 155.5t-139.5 244t-49 320t49 320t139.5 244.5t218 156t285.5 54.5zM842 1356q-110 0 -198.5 -42.5t-151 -121.5t-96 -192.5t-33.5 -254.5q0 -116 33.5 -191.5t96 -119.5t151 -61.5t198.5 -17.5t198 17.5t150 61.5
t95.5 119.5t33.5 191.5q0 141 -33.5 254.5t-95.5 192.5t-150 121.5t-198 42.5z" />
    <glyph glyph-name="Ohorn" unicode="&#x1a0;" horiz-adv-x="1682" 
d="M1612 1394q10 -36 10 -67q0 -30 -4.5 -62t-14 -63t-25.5 -59t-40 -48q-18 -15 -29 -24.5t-22 -17.5q22 -69 33.5 -146t11.5 -162q0 -177 -49 -320t-139 -244t-217.5 -155.5t-284.5 -54.5q-158 0 -285.5 54.5t-218 155.5t-139.5 244t-49 320t49 320t139.5 244.5t218 156
t285.5 54.5q105 0 197.5 -25t169.5 -72.5t137.5 -116t102.5 -155.5q11 5 19.5 10.5t18.5 13.5q17 15 25.5 38.5t12 48.5t3.5 47.5v35.5q0 31 -15 61zM842 355q110 0 198 17.5t150 61.5t95.5 119.5t33.5 191.5q0 141 -33.5 254.5t-95.5 192.5t-150 121.5t-198 42.5
t-198.5 -42.5t-151 -121.5t-96 -192.5t-33.5 -254.5q0 -116 33.5 -191.5t96 -119.5t151 -61.5t198.5 -17.5z" />
    <glyph glyph-name="Ohornacute" unicode="&#x1eda;" horiz-adv-x="1682" 
d="M759 2001l312 418h221l-363 -418h-170zM1612 1394q10 -36 10 -67q0 -30 -4.5 -62t-14 -63t-25.5 -59t-40 -48q-18 -15 -29 -24.5t-22 -17.5q22 -69 33.5 -146t11.5 -162q0 -177 -49 -320t-139 -244t-217.5 -155.5t-284.5 -54.5q-158 0 -285.5 54.5t-218 155.5t-139.5 244
t-49 320t49 320t139.5 244.5t218 156t285.5 54.5q105 0 197.5 -25t169.5 -72.5t137.5 -116t102.5 -155.5q11 5 19.5 10.5t18.5 13.5q17 15 25.5 38.5t12 48.5t3.5 47.5v35.5q0 31 -15 61zM842 355q110 0 198 17.5t150 61.5t95.5 119.5t33.5 191.5q0 141 -33.5 254.5
t-95.5 192.5t-150 121.5t-198 42.5t-198.5 -42.5t-151 -121.5t-96 -192.5t-33.5 -254.5q0 -116 33.5 -191.5t96 -119.5t151 -61.5t198.5 -17.5z" />
    <glyph glyph-name="Ohorndotbelow" unicode="&#x1ee2;" horiz-adv-x="1682" 
d="M1612 1394q10 -36 10 -67q0 -30 -4.5 -62t-14 -63t-25.5 -59t-40 -48q-18 -15 -29 -24.5t-22 -17.5q22 -69 33.5 -146t11.5 -162q0 -177 -49 -320t-139 -244t-217.5 -155.5t-284.5 -54.5q-158 0 -285.5 54.5t-218 155.5t-139.5 244t-49 320t49 320t139.5 244.5t218 156
t285.5 54.5q105 0 197.5 -25t169.5 -72.5t137.5 -116t102.5 -155.5q11 5 19.5 10.5t18.5 13.5q17 15 25.5 38.5t12 48.5t3.5 47.5v35.5q0 31 -15 61zM842 355q110 0 198 17.5t150 61.5t95.5 119.5t33.5 191.5q0 141 -33.5 254.5t-95.5 192.5t-150 121.5t-198 42.5
t-198.5 -42.5t-151 -121.5t-96 -192.5t-33.5 -254.5q0 -116 33.5 -191.5t96 -119.5t151 -61.5t198.5 -17.5zM930 -78v-221h-205v221h205z" />
    <glyph glyph-name="Ohorngrave" unicode="&#x1edc;" horiz-adv-x="1682" 
d="M511 2396h197l282 -374h-273zM1612 1394q10 -36 10 -67q0 -30 -4.5 -62t-14 -63t-25.5 -59t-40 -48q-18 -15 -29 -24.5t-22 -17.5q22 -69 33.5 -146t11.5 -162q0 -177 -49 -320t-139 -244t-217.5 -155.5t-284.5 -54.5q-158 0 -285.5 54.5t-218 155.5t-139.5 244t-49 320
t49 320t139.5 244.5t218 156t285.5 54.5q105 0 197.5 -25t169.5 -72.5t137.5 -116t102.5 -155.5q11 5 19.5 10.5t18.5 13.5q17 15 25.5 38.5t12 48.5t3.5 47.5v35.5q0 31 -15 61zM842 355q110 0 198 17.5t150 61.5t95.5 119.5t33.5 191.5q0 141 -33.5 254.5t-95.5 192.5
t-150 121.5t-198 42.5t-198.5 -42.5t-151 -121.5t-96 -192.5t-33.5 -254.5q0 -116 33.5 -191.5t96 -119.5t151 -61.5t198.5 -17.5z" />
    <glyph glyph-name="Ohornhookabove" unicode="&#x1ede;" horiz-adv-x="1682" 
d="M846 1688q23 17 23 36q0 10 -15 19t-50 9q-43 0 -93 -26v42q54 25 106 25q50 0 82 -21q31 -22 31 -53t-43 -62l-22 -15q-17 -14 -19 -17q-3 -9 -3 -24h-58v6q0 20 7 33q7 12 32 31zM1612 1394q10 -36 10 -67q0 -30 -4.5 -62t-14 -63t-25.5 -59t-40 -48q-18 -15 -29 -24.5
t-22 -17.5q22 -69 33.5 -146t11.5 -162q0 -177 -49 -320t-139 -244t-217.5 -155.5t-284.5 -54.5q-158 0 -285.5 54.5t-218 155.5t-139.5 244t-49 320t49 320t139.5 244.5t218 156t285.5 54.5q105 0 197.5 -25t169.5 -72.5t137.5 -116t102.5 -155.5q11 5 19.5 10.5t18.5 13.5
q17 15 25.5 38.5t12 48.5t3.5 47.5v35.5q0 31 -15 61zM842 355q110 0 198 17.5t150 61.5t95.5 119.5t33.5 191.5q0 141 -33.5 254.5t-95.5 192.5t-150 121.5t-198 42.5t-198.5 -42.5t-151 -121.5t-96 -192.5t-33.5 -254.5q0 -116 33.5 -191.5t96 -119.5t151 -61.5
t198.5 -17.5z" />
    <glyph glyph-name="Ohorntilde" unicode="&#x1ee0;" horiz-adv-x="1682" 
d="M780 2099q-42 39 -68 39q-38 0 -56 -36q-19 -39 -20 -119h-125q2 136 53 209t142 73q38 0 70 -14t69 -47l57 -55q42 -39 68 -39q38 0 56 37q19 37 20 118h125q-2 -136 -53 -209t-142 -73q-38 0 -70 14t-69 47zM1612 1394q10 -36 10 -67q0 -30 -4.5 -62t-14 -63t-25.5 -59
t-40 -48q-18 -15 -29 -24.5t-22 -17.5q22 -69 33.5 -146t11.5 -162q0 -177 -49 -320t-139 -244t-217.5 -155.5t-284.5 -54.5q-158 0 -285.5 54.5t-218 155.5t-139.5 244t-49 320t49 320t139.5 244.5t218 156t285.5 54.5q105 0 197.5 -25t169.5 -72.5t137.5 -116
t102.5 -155.5q11 5 19.5 10.5t18.5 13.5q17 15 25.5 38.5t12 48.5t3.5 47.5v35.5q0 31 -15 61zM842 355q110 0 198 17.5t150 61.5t95.5 119.5t33.5 191.5q0 141 -33.5 254.5t-95.5 192.5t-150 121.5t-198 42.5t-198.5 -42.5t-151 -121.5t-96 -192.5t-33.5 -254.5
q0 -116 33.5 -191.5t96 -119.5t151 -61.5t198.5 -17.5z" />
    <glyph glyph-name="Ohungarumlaut" unicode="&#x150;" horiz-adv-x="1682" 
d="M627 1635h-137l190 376h170zM944 1635h-135l205 376h178zM842 1520q157 0 284.5 -54.5t217.5 -156t139 -244.5t49 -320t-49 -320t-139 -244t-217.5 -155.5t-284.5 -54.5q-158 0 -285.5 54.5t-218 155.5t-139.5 244t-49 320t49 320t139.5 244.5t218 156t285.5 54.5z
M842 1356q-110 0 -198.5 -42.5t-151 -121.5t-96 -192.5t-33.5 -254.5q0 -116 33.5 -191.5t96 -119.5t151 -61.5t198.5 -17.5t198 17.5t150 61.5t95.5 119.5t33.5 191.5q0 141 -33.5 254.5t-95.5 192.5t-150 121.5t-198 42.5z" />
    <glyph glyph-name="Omacron" unicode="&#x14c;" horiz-adv-x="1682" 
d="M1140 1670h-598v148h598v-148zM842 1520q157 0 284.5 -54.5t217.5 -156t139 -244.5t49 -320t-49 -320t-139 -244t-217.5 -155.5t-284.5 -54.5q-158 0 -285.5 54.5t-218 155.5t-139.5 244t-49 320t49 320t139.5 244.5t218 156t285.5 54.5zM842 1356q-110 0 -198.5 -42.5
t-151 -121.5t-96 -192.5t-33.5 -254.5q0 -116 33.5 -191.5t96 -119.5t151 -61.5t198.5 -17.5t198 17.5t150 61.5t95.5 119.5t33.5 191.5q0 141 -33.5 254.5t-95.5 192.5t-150 121.5t-198 42.5z" />
    <glyph glyph-name="Omacronacute" unicode="&#x1e52;" horiz-adv-x="1682" 
d="M929 2001h-170l312 418h221zM1151 1730h-598v148h598v-148zM842 1520q157 0 284.5 -54.5t217.5 -156t139 -244.5t49 -320t-49 -320t-139 -244t-217.5 -155.5t-284.5 -54.5q-158 0 -285.5 54.5t-218 155.5t-139.5 244t-49 320t49 320t139.5 244.5t218 156t285.5 54.5z
M842 1356q-110 0 -198.5 -42.5t-151 -121.5t-96 -192.5t-33.5 -254.5q0 -116 33.5 -191.5t96 -119.5t151 -61.5t198.5 -17.5t198 17.5t150 61.5t95.5 119.5t33.5 191.5q0 141 -33.5 254.5t-95.5 192.5t-150 121.5t-198 42.5z" />
    <glyph glyph-name="Omacrongrave" unicode="&#x1e50;" horiz-adv-x="1682" 
d="M717 2022l-206 374h197l282 -374h-273zM1140 1738h-598v148h598v-148zM842 1520q157 0 284.5 -54.5t217.5 -156t139 -244.5t49 -320t-49 -320t-139 -244t-217.5 -155.5t-284.5 -54.5q-158 0 -285.5 54.5t-218 155.5t-139.5 244t-49 320t49 320t139.5 244.5t218 156
t285.5 54.5zM842 1356q-110 0 -198.5 -42.5t-151 -121.5t-96 -192.5t-33.5 -254.5q0 -116 33.5 -191.5t96 -119.5t151 -61.5t198.5 -17.5t198 17.5t150 61.5t95.5 119.5t33.5 191.5q0 141 -33.5 254.5t-95.5 192.5t-150 121.5t-198 42.5z" />
    <glyph glyph-name="Oslashacute" unicode="&#x1fe;" horiz-adv-x="1682" 
d="M803 2001l312 418h221l-363 -418h-170zM1195 1431q79 -46 142 -113.5t106 -154.5t66 -192.5t23 -225.5q0 -177 -49 -320t-139 -244t-217.5 -155.5t-284.5 -54.5q-21 0 -41.5 1t-40.5 3l-18 -59l-230 8l37 105q-93 41 -167 108.5t-125.5 159t-79 204.5t-27.5 244
q0 177 49 320t139.5 244.5t218 156t285.5 54.5q115 0 214 -30l34 98l150 -5zM1000 1330q-73 26 -158 26q-110 0 -198.5 -42.5t-151 -121.5t-96 -192.5t-33.5 -254.5q0 -91 21 -156.5t60 -110.5t95 -71.5t127 -38.5zM873 355q103 2 185.5 21.5t140.5 64t89 118.5t31 186
q0 169 -46.5 296.5t-132.5 205.5z" />
    <glyph glyph-name="Otildeacute" unicode="&#x1e4c;" horiz-adv-x="1682" 
d="M929 2001h-170l312 418h221zM780 1771q-42 39 -68 39q-38 0 -56 -36q-19 -39 -20 -119h-125q2 136 53 209t142 73q38 0 70 -14t69 -47l57 -55q42 -39 68 -39q38 0 56 37q19 37 20 118h125q-2 -136 -53 -209t-142 -73q-38 0 -70 14t-69 47zM842 1520q157 0 284.5 -54.5
t217.5 -156t139 -244.5t49 -320t-49 -320t-139 -244t-217.5 -155.5t-284.5 -54.5q-158 0 -285.5 54.5t-218 155.5t-139.5 244t-49 320t49 320t139.5 244.5t218 156t285.5 54.5zM842 1356q-110 0 -198.5 -42.5t-151 -121.5t-96 -192.5t-33.5 -254.5q0 -116 33.5 -191.5
t96 -119.5t151 -61.5t198.5 -17.5t198 17.5t150 61.5t95.5 119.5t33.5 191.5q0 141 -33.5 254.5t-95.5 192.5t-150 121.5t-198 42.5z" />
    <glyph glyph-name="Racute" unicode="&#x154;" horiz-adv-x="1463" 
d="M730 2001h-170l312 418h221zM1313 0h-287l-151 383q-37 75 -71 123t-72.5 76t-84 38.5t-105.5 10.5h-150v-631h-242v1493h456q113 0 201.5 -26.5t150 -80.5t94 -134.5t32.5 -188.5q0 -142 -60 -234.5t-166 -128.5q66 -22 126.5 -93.5t123.5 -198.5zM372 1387v-550h254
q58 0 114.5 18.5t101 49.5t72 72t27.5 86q0 96 -27.5 158.5t-72 99t-101 51.5t-114.5 15h-254z" />
    <glyph glyph-name="Rcaron" unicode="&#x158;" horiz-adv-x="1463" 
d="M961 2011l-245 -376h-148l-245 376h139l180 -245l180 245h139zM1313 0h-287l-151 383q-37 75 -71 123t-72.5 76t-84 38.5t-105.5 10.5h-150v-631h-242v1493h456q113 0 201.5 -26.5t150 -80.5t94 -134.5t32.5 -188.5q0 -142 -60 -234.5t-166 -128.5q66 -22 126.5 -93.5
t123.5 -198.5zM372 1387v-550h254q58 0 114.5 18.5t101 49.5t72 72t27.5 86q0 96 -27.5 158.5t-72 99t-101 51.5t-114.5 15h-254z" />
    <glyph glyph-name="Rcommaaccent" unicode="&#x156;" horiz-adv-x="1463" 
d="M1313 0h-287l-151 383q-37 75 -71 123t-72.5 76t-84 38.5t-105.5 10.5h-150v-631h-242v1493h456q113 0 201.5 -26.5t150 -80.5t94 -134.5t32.5 -188.5q0 -142 -60 -234.5t-166 -128.5q66 -22 126.5 -93.5t123.5 -198.5zM372 1387v-550h254q58 0 114.5 18.5t101 49.5
t72 72t27.5 86q0 96 -27.5 158.5t-72 99t-101 51.5t-114.5 15h-254zM428 -530l102 320v212h251v-212l-224 -320h-129z" />
    <glyph glyph-name="Sacute" unicode="&#x15a;" horiz-adv-x="1351" 
d="M745 2001h-170l312 418h221zM1111 1247q-115 55 -216.5 82t-197.5 27q-166 0 -255 -64t-89 -182q0 -50 13.5 -86.5t46 -63.5t87.5 -46.5t138 -34.5l122 -25q226 -43 333.5 -151.5t107.5 -290.5q0 -218 -144.5 -329.5t-427.5 -111.5q-106 0 -225 23.5t-248 71.5v318
q124 -69 241 -104t232 -35q87 0 154 19t113 49t70 65.5t24 68.5q0 30 -16.5 61.5t-51.5 60.5t-89.5 53.5t-131.5 39.5l-123 24q-113 22 -194 56.5t-133 84t-76.5 115.5t-24.5 152q0 99 36 178t103.5 134t164.5 84.5t220 29.5q210 0 437 -76v-197z" />
    <glyph glyph-name="Scommaaccent" unicode="&#x218;" horiz-adv-x="1351" 
d="M1111 1247q-115 55 -216.5 82t-197.5 27q-166 0 -255 -64t-89 -182q0 -50 13.5 -86.5t46 -63.5t87.5 -46.5t138 -34.5l122 -25q226 -43 333.5 -151.5t107.5 -290.5q0 -218 -144.5 -329.5t-427.5 -111.5q-106 0 -225 23.5t-248 71.5v318q124 -69 241 -104t232 -35
q87 0 154 19t113 49t70 65.5t24 68.5q0 30 -16.5 61.5t-51.5 60.5t-89.5 53.5t-131.5 39.5l-123 24q-113 22 -194 56.5t-133 84t-76.5 115.5t-24.5 152q0 99 36 178t103.5 134t164.5 84.5t220 29.5q210 0 437 -76v-197zM419 -602l102 320v212h251v-212l-224 -320h-129z" />
    <glyph glyph-name="Sdotbelow" unicode="&#x1e62;" horiz-adv-x="1351" 
d="M1111 1247q-115 55 -216.5 82t-197.5 27q-166 0 -255 -64t-89 -182q0 -50 13.5 -86.5t46 -63.5t87.5 -46.5t138 -34.5l122 -25q226 -43 333.5 -151.5t107.5 -290.5q0 -218 -144.5 -329.5t-427.5 -111.5q-106 0 -225 23.5t-248 71.5v318q124 -69 241 -104t232 -35
q87 0 154 19t113 49t70 65.5t24 68.5q0 30 -16.5 61.5t-51.5 60.5t-89.5 53.5t-131.5 39.5l-123 24q-113 22 -194 56.5t-133 84t-76.5 115.5t-24.5 152q0 99 36 178t103.5 134t164.5 84.5t220 29.5q210 0 437 -76v-197zM751 -299h-205v221h205v-221z" />
    <glyph glyph-name="Tbar" unicode="&#x166;" horiz-adv-x="1563" 
d="M1080 1670h-598v148h598v-148zM680 1343l-530 -20v170h1263v-170l-530 20l40 -1343h-283z" />
    <glyph glyph-name="Tcaron" unicode="&#x164;" horiz-adv-x="1563" 
d="M1100 2011l-245 -376h-148l-245 376h139l180 -245l180 245h139zM680 1343l-530 -20v170h1263v-170l-530 20l40 -1343h-283z" />
    <glyph glyph-name="Tcedilla" unicode="&#x162;" horiz-adv-x="1563" 
d="M883 1343l40 -1343h-44q55 -63 82 -115t27 -100q0 -180 -238 -180q-91 0 -176 24v131q34 -17 70.5 -24.5t84.5 -7.5q119 0 119 94q0 30 -21.5 73.5t-66.5 104.5h-120l40 1343l-530 -20v170h1263v-170z" />
    <glyph glyph-name="Tcircumflexbelow" unicode="&#x1e70;" horiz-adv-x="1563" 
d="M680 1343l-530 -20v170h1263v-170l-530 20l40 -1343h-283zM609 -451h-139l245 376h148l245 -376h-139l-180 245z" />
    <glyph glyph-name="uni021A" unicode="&#x21a;" horiz-adv-x="1563" 
d="M680 1343l-530 -20v170h1263v-170l-530 20l40 -1343h-283zM550 -584l102 320v212h251v-212l-224 -320h-129z" />
    <glyph glyph-name="Tdotbelow" unicode="&#x1e6c;" horiz-adv-x="1563" 
d="M680 1343l-530 -20v170h1263v-170l-530 20l40 -1343h-283zM871 -299h-205v221h205v-221z" />
    <glyph glyph-name="Tlinebelow" unicode="&#x1e6e;" horiz-adv-x="1563" 
d="M680 1343l-530 -20v170h1263v-170l-530 20l40 -1343h-283zM1047 -256l-539 -9l7 164l539 10z" />
    <glyph glyph-name="Ucaron" unicode="&#x1d3;" horiz-adv-x="1443" 
d="M1040 2011l-245 -376h-148l-245 376h139l180 -245l180 245h139zM150 1493h213l-20 -767q-3 -120 19.5 -205.5t69.5 -140t119.5 -80t170.5 -25.5q97 0 169 25.5t119.5 80t69.5 140t19 205.5l-19 767h213v-932q0 -292 -144.5 -441t-426.5 -149q-283 0 -427.5 149
t-144.5 441v932z" />
    <glyph glyph-name="Udieresisacute" unicode="&#x1d7;" horiz-adv-x="1443" 
d="M809 2001h-170l312 418h221zM620 1723h-218v217h218v-217zM1039 1723h-218v217h218v-217zM150 1493h213l-20 -767q-3 -120 19.5 -205.5t69.5 -140t119.5 -80t170.5 -25.5q97 0 169 25.5t119.5 80t69.5 140t19 205.5l-19 767h213v-932q0 -292 -144.5 -441t-426.5 -149
q-283 0 -427.5 149t-144.5 441v932z" />
    <glyph glyph-name="Udieresiscaron" unicode="&#x1d9;" horiz-adv-x="1443" 
d="M402 1723v217h46l-46 71h139l52 -71h27v-37l101 -137l100 136v38h28l52 71h139l-46 -71h45v-217h-187l-57 -88h-148l-57 88h-188zM1293 561q0 -292 -144.5 -441t-426.5 -149q-283 0 -427.5 149t-144.5 441v932h213l-20 -767q-3 -120 19.5 -205.5t69.5 -140t119.5 -80
t170.5 -25.5q97 0 169 25.5t119.5 80t69.5 140t19 205.5l-19 767h213v-932z" />
    <glyph glyph-name="Udieresisgrave" unicode="&#x1db;" horiz-adv-x="1443" 
d="M597 2022l-206 374h197l282 -374h-273zM620 1723h-218v217h218v-217zM1039 1723h-218v217h218v-217zM150 1493h213l-20 -767q-3 -120 19.5 -205.5t69.5 -140t119.5 -80t170.5 -25.5q97 0 169 25.5t119.5 80t69.5 140t19 205.5l-19 767h213v-932q0 -292 -144.5 -441
t-426.5 -149q-283 0 -427.5 149t-144.5 441v932z" />
    <glyph glyph-name="Udieresismacron" unicode="&#x1d5;" horiz-adv-x="1443" 
d="M402 1723v217h218v-122h201v122h218v-217h-19v-53h-598v53h-20zM1293 561q0 -292 -144.5 -441t-426.5 -149q-283 0 -427.5 149t-144.5 441v932h213l-20 -767q-3 -120 19.5 -205.5t69.5 -140t119.5 -80t170.5 -25.5q97 0 169 25.5t119.5 80t69.5 140t19 205.5l-19 767h213
v-932z" />
    <glyph glyph-name="Udotbelow" unicode="&#x1ee4;" horiz-adv-x="1443" 
d="M150 1493h213l-20 -767q-3 -120 19.5 -205.5t69.5 -140t119.5 -80t170.5 -25.5q97 0 169 25.5t119.5 80t69.5 140t19 205.5l-19 767h213v-932q0 -292 -144.5 -441t-426.5 -149q-283 0 -427.5 149t-144.5 441v932zM811 -299h-205v221h205v-221z" />
    <glyph glyph-name="Uhookabove" unicode="&#x1ee6;" horiz-adv-x="1443" 
d="M592 1668q54 25 106 25q50 0 82 -21q31 -22 31 -53t-43 -62l-22 -15q-17 -14 -19 -17q-3 -9 -3 -24h-58v6q0 20 7 33q7 12 32 31l22 17q23 17 23 36q0 10 -15 19t-50 9q-43 0 -93 -26v42zM150 1493h213l-20 -767q-3 -120 19.5 -205.5t69.5 -140t119.5 -80t170.5 -25.5
q97 0 169 25.5t119.5 80t69.5 140t19 205.5l-19 767h213v-932q0 -292 -144.5 -441t-426.5 -149q-283 0 -427.5 149t-144.5 441v932z" />
    <glyph glyph-name="Uhorn" unicode="&#x1af;" horiz-adv-x="1443" 
d="M1460 1531q10 -36 10 -67q0 -30 -4.5 -62t-14 -63t-25.5 -59t-40 -48q-16 -14 -26.5 -23t-19.5 -16t-20 -13.5t-27 -14.5v-604q0 -292 -144.5 -441t-426.5 -149q-283 0 -427.5 149t-144.5 441v932h213l-20 -767q-3 -120 19.5 -205.5t69.5 -140t119.5 -80t170.5 -25.5
q97 0 169 25.5t119.5 80t69.5 140t19 205.5l-19 767h213v-207q12 6 21.5 11.5t20.5 14.5q17 15 25.5 38.5t12 48.5t3.5 47.5v35.5q0 31 -15 61z" />
    <glyph glyph-name="Uhornacute" unicode="&#x1ee8;" horiz-adv-x="1443" 
d="M639 2001l312 418h221l-363 -418h-170zM1460 1531q10 -36 10 -67q0 -30 -4.5 -62t-14 -63t-25.5 -59t-40 -48q-16 -14 -26.5 -23t-19.5 -16t-20 -13.5t-27 -14.5v-604q0 -292 -144.5 -441t-426.5 -149q-283 0 -427.5 149t-144.5 441v932h213l-20 -767
q-3 -120 19.5 -205.5t69.5 -140t119.5 -80t170.5 -25.5q97 0 169 25.5t119.5 80t69.5 140t19 205.5l-19 767h213v-207q12 6 21.5 11.5t20.5 14.5q17 15 25.5 38.5t12 48.5t3.5 47.5v35.5q0 31 -15 61z" />
    <glyph glyph-name="Uhorndotbelow" unicode="&#x1ef0;" horiz-adv-x="1443" 
d="M1460 1531q10 -36 10 -67q0 -30 -4.5 -62t-14 -63t-25.5 -59t-40 -48q-16 -14 -26.5 -23t-19.5 -16t-20 -13.5t-27 -14.5v-604q0 -292 -144.5 -441t-426.5 -149q-283 0 -427.5 149t-144.5 441v932h213l-20 -767q-3 -120 19.5 -205.5t69.5 -140t119.5 -80t170.5 -25.5
q97 0 169 25.5t119.5 80t69.5 140t19 205.5l-19 767h213v-207q12 6 21.5 11.5t20.5 14.5q17 15 25.5 38.5t12 48.5t3.5 47.5v35.5q0 31 -15 61zM811 -78v-221h-205v221h205z" />
    <glyph glyph-name="Uhorngrave" unicode="&#x1eea;" horiz-adv-x="1443" 
d="M391 2396h197l282 -374h-273zM1460 1531q10 -36 10 -67q0 -30 -4.5 -62t-14 -63t-25.5 -59t-40 -48q-16 -14 -26.5 -23t-19.5 -16t-20 -13.5t-27 -14.5v-604q0 -292 -144.5 -441t-426.5 -149q-283 0 -427.5 149t-144.5 441v932h213l-20 -767q-3 -120 19.5 -205.5
t69.5 -140t119.5 -80t170.5 -25.5q97 0 169 25.5t119.5 80t69.5 140t19 205.5l-19 767h213v-207q12 6 21.5 11.5t20.5 14.5q17 15 25.5 38.5t12 48.5t3.5 47.5v35.5q0 31 -15 61z" />
    <glyph glyph-name="Uhornhookabove" unicode="&#x1eec;" horiz-adv-x="1443" 
d="M745 1575q23 17 23 36q0 10 -15 19t-50 9q-43 0 -93 -26v42q54 25 106 25q50 0 82 -21q31 -22 31 -53t-43 -62l-22 -15q-17 -14 -19 -17q-3 -9 -3 -24h-58v6q0 20 7 33q7 12 32 31zM1460 1531q10 -36 10 -67q0 -30 -4.5 -62t-14 -63t-25.5 -59t-40 -48q-16 -14 -26.5 -23
t-19.5 -16t-20 -13.5t-27 -14.5v-604q0 -292 -144.5 -441t-426.5 -149q-283 0 -427.5 149t-144.5 441v932h213l-20 -767q-3 -120 19.5 -205.5t69.5 -140t119.5 -80t170.5 -25.5q97 0 169 25.5t119.5 80t69.5 140t19 205.5l-19 767h213v-207q12 6 21.5 11.5t20.5 14.5
q17 15 25.5 38.5t12 48.5t3.5 47.5v35.5q0 31 -15 61z" />
    <glyph glyph-name="Uhorntilde" unicode="&#x1eee;" horiz-adv-x="1443" 
d="M660 2099q-42 39 -68 39q-38 0 -56 -36q-19 -39 -20 -119h-125q2 136 53 209t142 73q38 0 70 -14t69 -47l57 -55q42 -39 68 -39q38 0 56 37q19 37 20 118h125q-2 -136 -53 -209t-142 -73q-38 0 -70 14t-69 47zM1460 1531q10 -36 10 -67q0 -30 -4.5 -62t-14 -63t-25.5 -59
t-40 -48q-16 -14 -26.5 -23t-19.5 -16t-20 -13.5t-27 -14.5v-604q0 -292 -144.5 -441t-426.5 -149q-283 0 -427.5 149t-144.5 441v932h213l-20 -767q-3 -120 19.5 -205.5t69.5 -140t119.5 -80t170.5 -25.5q97 0 169 25.5t119.5 80t69.5 140t19 205.5l-19 767h213v-207
q12 6 21.5 11.5t20.5 14.5q17 15 25.5 38.5t12 48.5t3.5 47.5v35.5q0 31 -15 61z" />
    <glyph glyph-name="Uhungarumlaut" unicode="&#x170;" horiz-adv-x="1443" 
d="M507 1635h-137l190 376h170zM824 1635h-135l205 376h178zM150 1493h213l-20 -767q-3 -120 19.5 -205.5t69.5 -140t119.5 -80t170.5 -25.5q97 0 169 25.5t119.5 80t69.5 140t19 205.5l-19 767h213v-932q0 -292 -144.5 -441t-426.5 -149q-283 0 -427.5 149t-144.5 441v932z
" />
    <glyph glyph-name="Umacron" unicode="&#x16a;" horiz-adv-x="1443" 
d="M1020 1670h-598v148h598v-148zM150 1493h213l-20 -767q-3 -120 19.5 -205.5t69.5 -140t119.5 -80t170.5 -25.5q97 0 169 25.5t119.5 80t69.5 140t19 205.5l-19 767h213v-932q0 -292 -144.5 -441t-426.5 -149q-283 0 -427.5 149t-144.5 441v932z" />
    <glyph glyph-name="Uogonek" unicode="&#x172;" horiz-adv-x="1443" 
d="M1293 561q0 -276 -127.5 -423.5t-379.5 -164.5q-35 -51 -52 -88.5t-17 -64.5q0 -92 109 -92q63 0 125 30v-133q-78 -20 -136 -20q-123 0 -180 43t-57 137q0 43 21 88.5t64 99.5q-255 15 -384 162.5t-129 425.5v932h213l-20 -767q-3 -120 19.5 -205.5t69.5 -140t119.5 -80
t170.5 -25.5q97 0 169 25.5t119.5 80t69.5 140t19 205.5l-19 767h213v-932z" />
    <glyph glyph-name="Uring" unicode="&#x16e;" horiz-adv-x="1443" 
d="M995 1897q0 -57 -21.5 -107.5t-58.5 -87.5t-87 -58.5t-107 -21.5t-107 21.5t-87 58.5t-58.5 87.5t-21.5 107.5t21.5 107t58.5 87t87 58.5t107 21.5t107 -21.5t87 -58.5t58.5 -87t21.5 -107zM873 1897q0 31 -12 59t-32.5 48t-48 32t-59.5 12q-33 0 -60.5 -11.5t-48 -32
t-32 -48t-11.5 -59.5q0 -33 11.5 -60.5t32 -48t48 -32t60.5 -11.5q32 0 59.5 12t48 32.5t32.5 48t12 59.5zM150 1493h213l-20 -767q-3 -120 19.5 -205.5t69.5 -140t119.5 -80t170.5 -25.5q97 0 169 25.5t119.5 80t69.5 140t19 205.5l-19 767h213v-932q0 -292 -144.5 -441
t-426.5 -149q-283 0 -427.5 149t-144.5 441v932z" />
    <glyph glyph-name="Utilde" unicode="&#x168;" horiz-adv-x="1443" 
d="M660 2099q-42 39 -68 39q-38 0 -56 -36q-19 -39 -20 -119h-125q2 136 53 209t142 73q38 0 70 -14t69 -47l57 -55q42 -39 68 -39q38 0 56 37q19 37 20 118h125q-2 -136 -53 -209t-142 -73q-38 0 -70 14t-69 47zM150 1493h213l-20 -767q-3 -120 19.5 -205.5t69.5 -140
t119.5 -80t170.5 -25.5q97 0 169 25.5t119.5 80t69.5 140t19 205.5l-19 767h213v-932q0 -292 -144.5 -441t-426.5 -149q-283 0 -427.5 149t-144.5 441v932z" />
    <glyph glyph-name="Wacute" unicode="&#x1e82;" horiz-adv-x="2190" 
d="M1178 2001h-170l312 418h221zM798 0h-314l-334 1493h194l304 -1072l353 692h177l324 -712l343 1092h195l-375 -1493h-294l-275 806z" />
    <glyph glyph-name="Wcircumflex" unicode="&#x174;" horiz-adv-x="2190" 
d="M910 1600h-139l245 376h148l245 -376h-139l-180 245zM798 0h-314l-334 1493h194l304 -1072l353 692h177l324 -712l343 1092h195l-375 -1493h-294l-275 806z" />
    <glyph glyph-name="Wdieresis" unicode="&#x1e84;" horiz-adv-x="2190" 
d="M989 1723h-218v217h218v-217zM1408 1723h-218v217h218v-217zM798 0h-314l-334 1493h194l304 -1072l353 692h177l324 -712l343 1092h195l-375 -1493h-294l-275 806z" />
    <glyph glyph-name="Wgrave" unicode="&#x1e80;" horiz-adv-x="2190" 
d="M966 2022l-206 374h197l282 -374h-273zM798 0h-314l-334 1493h194l304 -1072l353 692h177l324 -712l343 1092h195l-375 -1493h-294l-275 806z" />
    <glyph glyph-name="Ycircumflex" unicode="&#x176;" horiz-adv-x="1559" 
d="M598 1600h-139l245 376h148l245 -376h-139l-180 245zM638 0v511l-488 982h217l414 -764l411 764h217l-498 -982v-511h-273z" />
    <glyph glyph-name="Ydotbelow" unicode="&#x1ef4;" horiz-adv-x="1559" 
d="M638 0v511l-488 982h217l414 -764l411 764h217l-498 -982v-511h-273zM881 -299h-205v221h205v-221z" />
    <glyph glyph-name="Ygrave" unicode="&#x1ef2;" horiz-adv-x="1559" 
d="M654 2022l-206 374h197l282 -374h-273zM638 0v511l-488 982h217l414 -764l411 764h217l-498 -982v-511h-273z" />
    <glyph glyph-name="Yhookabove" unicode="&#x1ef6;" horiz-adv-x="1559" 
d="M684 1618q54 25 106 25q50 0 82 -21q31 -22 31 -53t-43 -62l-22 -15q-17 -14 -19 -17q-3 -9 -3 -24h-58v6q0 20 7 33q7 12 32 31l22 17q23 17 23 36q0 10 -15 19t-50 9q-43 0 -93 -26v42zM638 0v511l-488 982h217l414 -764l411 764h217l-498 -982v-511h-273z" />
    <glyph glyph-name="Ytilde" unicode="&#x1ef8;" horiz-adv-x="1559" 
d="M717 2099q-42 39 -68 39q-38 0 -56 -36q-19 -39 -20 -119h-125q2 136 53 209t142 73q38 0 70 -14t69 -47l57 -55q42 -39 68 -39q38 0 56 37q19 37 20 118h125q-2 -136 -53 -209t-142 -73q-38 0 -70 14t-69 47zM638 0v511l-488 982h217l414 -764l411 764h217l-498 -982
v-511h-273z" />
    <glyph glyph-name="Zacute" unicode="&#x179;" horiz-adv-x="1519" 
d="M892 2001h-170l312 418h221zM1094 1323h-921v170h1173v-154l-944 -1039h967v-300h-1219v284z" />
    <glyph glyph-name="Zdotaccent" unicode="&#x17b;" horiz-adv-x="1519" 
d="M906 1721h-204v204h204v-204zM1094 1323h-921v170h1173v-154l-944 -1039h967v-300h-1219v284z" />
    <glyph glyph-name="Zdotbelow" unicode="&#x1e92;" horiz-adv-x="1519" 
d="M1094 1323h-921v170h1173v-154l-944 -1039h967v-300h-1219v284zM881 -299h-205v221h205v-221z" />
    <glyph glyph-name="abreve" unicode="&#x103;" horiz-adv-x="1246" 
d="M456 1553q22 -150 195 -150q170 0 195 150h118q-10 -144 -88.5 -215.5t-224.5 -71.5t-224.5 71.5t-88.5 215.5h118zM967 1120h157v-1119l-157 -2v169q-58 -100 -146 -148.5t-213 -48.5q-102 0 -186 42.5t-144.5 119.5t-94 185.5t-33.5 240.5t33.5 240.5t94 185.5
t144.5 119.5t186 42.5q125 0 213 -48.5t146 -148.5v170zM282 579q12 -73 34 -125t58.5 -85t89.5 -48t126 -15t122.5 10t81.5 41t49.5 87t26.5 149q5 204 -61.5 312t-213.5 108q-73 0 -131 -29.5t-98.5 -85.5t-62 -136.5t-21.5 -182.5z" />
    <glyph glyph-name="abreveacute" unicode="&#x1eaf;" horiz-adv-x="1246" 
d="M739 1628h-170l312 418h221zM456 1553q22 -150 195 -150q170 0 195 150h118q-10 -144 -88.5 -215.5t-224.5 -71.5t-224.5 71.5t-88.5 215.5h118zM967 1120h157v-1119l-157 -2v169q-58 -100 -146 -148.5t-213 -48.5q-102 0 -186 42.5t-144.5 119.5t-94 185.5t-33.5 240.5
t33.5 240.5t94 185.5t144.5 119.5t186 42.5q125 0 213 -48.5t146 -148.5v170zM282 579q12 -73 34 -125t58.5 -85t89.5 -48t126 -15t122.5 10t81.5 41t49.5 87t26.5 149q5 204 -61.5 312t-213.5 108q-73 0 -131 -29.5t-98.5 -85.5t-62 -136.5t-21.5 -182.5z" />
    <glyph glyph-name="abrevedotbelow" unicode="&#x1eb7;" horiz-adv-x="1246" 
d="M456 1553q22 -150 195 -150q170 0 195 150h118q-10 -144 -88.5 -215.5t-224.5 -71.5t-224.5 71.5t-88.5 215.5h118zM967 1120h157v-1119l-157 -2v169q-58 -100 -146 -148.5t-213 -48.5q-102 0 -186 42.5t-144.5 119.5t-94 185.5t-33.5 240.5t33.5 240.5t94 185.5
t144.5 119.5t186 42.5q125 0 213 -48.5t146 -148.5v170zM282 579q12 -73 34 -125t58.5 -85t89.5 -48t126 -15t122.5 10t81.5 41t49.5 87t26.5 149q5 204 -61.5 312t-213.5 108q-73 0 -131 -29.5t-98.5 -85.5t-62 -136.5t-21.5 -182.5zM689 -299h-205v221h205v-221z" />
    <glyph glyph-name="abrevegrave" unicode="&#x1eb1;" horiz-adv-x="1246" 
d="M527 1649l-206 374h197l282 -374h-273zM456 1553q22 -150 195 -150q170 0 195 150h118q-10 -144 -88.5 -215.5t-224.5 -71.5t-224.5 71.5t-88.5 215.5h118zM967 1120h157v-1119l-157 -2v169q-58 -100 -146 -148.5t-213 -48.5q-102 0 -186 42.5t-144.5 119.5t-94 185.5
t-33.5 240.5t33.5 240.5t94 185.5t144.5 119.5t186 42.5q125 0 213 -48.5t146 -148.5v170zM282 579q12 -73 34 -125t58.5 -85t89.5 -48t126 -15t122.5 10t81.5 41t49.5 87t26.5 149q5 204 -61.5 312t-213.5 108q-73 0 -131 -29.5t-98.5 -85.5t-62 -136.5t-21.5 -182.5z" />
    <glyph glyph-name="abrevehookabove" unicode="&#x1eb3;" horiz-adv-x="1246" 
d="M549 1675q54 25 106 25q50 0 82 -21q31 -22 31 -53t-43 -62l-22 -15q-17 -14 -19 -17q-3 -9 -3 -24h-58v6q0 20 7 33q7 12 32 31l22 17q23 17 23 36q0 10 -15 19t-50 9q-43 0 -93 -26v42zM456 1553q22 -150 195 -150q170 0 195 150h118q-10 -144 -88.5 -215.5
t-224.5 -71.5t-224.5 71.5t-88.5 215.5h118zM967 1120h157v-1119l-157 -2v169q-58 -100 -146 -148.5t-213 -48.5q-102 0 -186 42.5t-144.5 119.5t-94 185.5t-33.5 240.5t33.5 240.5t94 185.5t144.5 119.5t186 42.5q125 0 213 -48.5t146 -148.5v170zM282 579q12 -73 34 -125
t58.5 -85t89.5 -48t126 -15t122.5 10t81.5 41t49.5 87t26.5 149q5 204 -61.5 312t-213.5 108q-73 0 -131 -29.5t-98.5 -85.5t-62 -136.5t-21.5 -182.5z" />
    <glyph glyph-name="abrevetilde" unicode="&#x1eb5;" horiz-adv-x="1246" 
d="M590 1726q-42 39 -68 39q-38 0 -56 -36q-19 -39 -20 -119h-125q2 136 53 209t142 73q38 0 70 -14t69 -47l57 -55q42 -39 68 -39q38 0 56 37q19 37 20 118h125q-2 -136 -53 -209t-142 -73q-38 0 -70 14t-69 47zM456 1553q22 -150 195 -150q170 0 195 150h118
q-10 -144 -88.5 -215.5t-224.5 -71.5t-224.5 71.5t-88.5 215.5h118zM967 1120h157v-1119l-157 -2v169q-58 -100 -146 -148.5t-213 -48.5q-102 0 -186 42.5t-144.5 119.5t-94 185.5t-33.5 240.5t33.5 240.5t94 185.5t144.5 119.5t186 42.5q125 0 213 -48.5t146 -148.5v170z
M282 579q12 -73 34 -125t58.5 -85t89.5 -48t126 -15t122.5 10t81.5 41t49.5 87t26.5 149q5 204 -61.5 312t-213.5 108q-73 0 -131 -29.5t-98.5 -85.5t-62 -136.5t-21.5 -182.5z" />
    <glyph glyph-name="acaron" unicode="&#x1ce;" horiz-adv-x="1246" 
d="M970 1638l-245 -376h-148l-245 376h139l180 -245l180 245h139zM967 1120h157v-1119l-157 -2v169q-58 -100 -146 -148.5t-213 -48.5q-102 0 -186 42.5t-144.5 119.5t-94 185.5t-33.5 240.5t33.5 240.5t94 185.5t144.5 119.5t186 42.5q125 0 213 -48.5t146 -148.5v170z
M282 579q12 -73 34 -125t58.5 -85t89.5 -48t126 -15t122.5 10t81.5 41t49.5 87t26.5 149q5 204 -61.5 312t-213.5 108q-73 0 -131 -29.5t-98.5 -85.5t-62 -136.5t-21.5 -182.5z" />
    <glyph glyph-name="acircumflexacute" unicode="&#x1ea5;" horiz-adv-x="1246" 
d="M739 1628h-170l312 418h221zM471 1227h-139l245 376h148l245 -376h-139l-180 245zM967 1120h157v-1119l-157 -2v169q-58 -100 -146 -148.5t-213 -48.5q-102 0 -186 42.5t-144.5 119.5t-94 185.5t-33.5 240.5t33.5 240.5t94 185.5t144.5 119.5t186 42.5q125 0 213 -48.5
t146 -148.5v170zM282 579q12 -73 34 -125t58.5 -85t89.5 -48t126 -15t122.5 10t81.5 41t49.5 87t26.5 149q5 204 -61.5 312t-213.5 108q-73 0 -131 -29.5t-98.5 -85.5t-62 -136.5t-21.5 -182.5z" />
    <glyph glyph-name="acircumflexdotbelow" unicode="&#x1ead;" horiz-adv-x="1246" 
d="M471 1227h-139l245 376h148l245 -376h-139l-180 245zM967 1120h157v-1119l-157 -2v169q-58 -100 -146 -148.5t-213 -48.5q-102 0 -186 42.5t-144.5 119.5t-94 185.5t-33.5 240.5t33.5 240.5t94 185.5t144.5 119.5t186 42.5q125 0 213 -48.5t146 -148.5v170zM282 579
q12 -73 34 -125t58.5 -85t89.5 -48t126 -15t122.5 10t81.5 41t49.5 87t26.5 149q5 204 -61.5 312t-213.5 108q-73 0 -131 -29.5t-98.5 -85.5t-62 -136.5t-21.5 -182.5zM621 -299h-205v221h205v-221z" />
    <glyph glyph-name="acircumflexgrave" unicode="&#x1ea7;" horiz-adv-x="1246" 
d="M527 1649l-206 374h197l282 -374h-273zM471 1227h-139l245 376h148l245 -376h-139l-180 245zM967 1120h157v-1119l-157 -2v169q-58 -100 -146 -148.5t-213 -48.5q-102 0 -186 42.5t-144.5 119.5t-94 185.5t-33.5 240.5t33.5 240.5t94 185.5t144.5 119.5t186 42.5
q125 0 213 -48.5t146 -148.5v170zM282 579q12 -73 34 -125t58.5 -85t89.5 -48t126 -15t122.5 10t81.5 41t49.5 87t26.5 149q5 204 -61.5 312t-213.5 108q-73 0 -131 -29.5t-98.5 -85.5t-62 -136.5t-21.5 -182.5z" />
    <glyph glyph-name="acircumflexhookabove" unicode="&#x1ea9;" horiz-adv-x="1246" 
d="M471 1227h-139l245 376h148l245 -376h-139l-180 245zM906 1555q54 25 106 25q50 0 82 -21q31 -22 31 -53t-43 -62l-22 -15q-17 -14 -19 -17q-3 -9 -3 -24h-58v6q0 20 7 33q7 12 32 31l22 17q23 17 23 36q0 10 -15 19t-50 9q-43 0 -93 -26v42zM967 1120h157v-1119l-157 -2
v169q-58 -100 -146 -148.5t-213 -48.5q-102 0 -186 42.5t-144.5 119.5t-94 185.5t-33.5 240.5t33.5 240.5t94 185.5t144.5 119.5t186 42.5q125 0 213 -48.5t146 -148.5v170zM282 579q12 -73 34 -125t58.5 -85t89.5 -48t126 -15t122.5 10t81.5 41t49.5 87t26.5 149
q5 204 -61.5 312t-213.5 108q-73 0 -131 -29.5t-98.5 -85.5t-62 -136.5t-21.5 -182.5z" />
    <glyph glyph-name="acircumflextilde" unicode="&#x1eab;" horiz-adv-x="1246" 
d="M590 1726q-42 39 -68 39q-38 0 -56 -36q-19 -39 -20 -119h-125q2 136 53 209t142 73q38 0 70 -14t69 -47l57 -55q42 -39 68 -39q38 0 56 37q19 37 20 118h125q-2 -136 -53 -209t-142 -73q-38 0 -70 14t-69 47zM471 1227h-139l245 376h148l245 -376h-139l-180 245z
M967 1120h157v-1119l-157 -2v169q-58 -100 -146 -148.5t-213 -48.5q-102 0 -186 42.5t-144.5 119.5t-94 185.5t-33.5 240.5t33.5 240.5t94 185.5t144.5 119.5t186 42.5q125 0 213 -48.5t146 -148.5v170zM282 579q12 -73 34 -125t58.5 -85t89.5 -48t126 -15t122.5 10t81.5 41
t49.5 87t26.5 149q5 204 -61.5 312t-213.5 108q-73 0 -131 -29.5t-98.5 -85.5t-62 -136.5t-21.5 -182.5z" />
    <glyph glyph-name="adieresismacron" unicode="&#x1df;" horiz-adv-x="1246" 
d="M332 1350v217h218v-122h201v122h218v-217h-19v-53h-598v53h-20zM1121 1l-154 -2v169q-58 -100 -146 -148.5t-213 -48.5q-102 0 -186 42.5t-144.5 119.5t-94 185.5t-33.5 240.5t33.5 240.5t94 185.5t144.5 119.5t186 42.5q245 0 358 -197v170h155v-1119zM870 593
q5 204 -61.5 312t-213.5 108q-73 0 -131 -29.5t-98.5 -85.5t-62 -136.5t-21.5 -182.5q12 -73 34 -125t58.5 -85t89.5 -48t126 -15t122.5 10t81.5 41t49.5 87t26.5 149z" />
    <glyph glyph-name="adotbelow" unicode="&#x1ea1;" horiz-adv-x="1246" 
d="M967 1120h157v-1119l-157 -2v169q-58 -100 -146 -148.5t-213 -48.5q-102 0 -186 42.5t-144.5 119.5t-94 185.5t-33.5 240.5t33.5 240.5t94 185.5t144.5 119.5t186 42.5q125 0 213 -48.5t146 -148.5v170zM282 579q12 -73 34 -125t58.5 -85t89.5 -48t126 -15t122.5 10
t81.5 41t49.5 87t26.5 149q5 204 -61.5 312t-213.5 108q-73 0 -131 -29.5t-98.5 -85.5t-62 -136.5t-21.5 -182.5zM621 -299h-205v221h205v-221z" />
    <glyph glyph-name="ahookabove" unicode="&#x1ea3;" horiz-adv-x="1246" 
d="M491 1411q54 25 106 25q50 0 82 -21q31 -22 31 -53t-43 -62l-22 -15q-17 -14 -19 -17q-3 -9 -3 -24h-58v6q0 20 7 33q7 12 32 31l22 17q23 17 23 36q0 10 -15 19t-50 9q-43 0 -93 -26v42zM967 1120h157v-1119l-157 -2v169q-58 -100 -146 -148.5t-213 -48.5
q-102 0 -186 42.5t-144.5 119.5t-94 185.5t-33.5 240.5t33.5 240.5t94 185.5t144.5 119.5t186 42.5q125 0 213 -48.5t146 -148.5v170zM282 579q12 -73 34 -125t58.5 -85t89.5 -48t126 -15t122.5 10t81.5 41t49.5 87t26.5 149q5 204 -61.5 312t-213.5 108q-73 0 -131 -29.5
t-98.5 -85.5t-62 -136.5t-21.5 -182.5z" />
    <glyph glyph-name="amacron" unicode="&#x101;" horiz-adv-x="1246" 
d="M950 1297h-598v148h598v-148zM967 1120h157v-1119l-157 -2v169q-58 -100 -146 -148.5t-213 -48.5q-102 0 -186 42.5t-144.5 119.5t-94 185.5t-33.5 240.5t33.5 240.5t94 185.5t144.5 119.5t186 42.5q125 0 213 -48.5t146 -148.5v170zM282 579q12 -73 34 -125t58.5 -85
t89.5 -48t126 -15t122.5 10t81.5 41t49.5 87t26.5 149q5 204 -61.5 312t-213.5 108q-73 0 -131 -29.5t-98.5 -85.5t-62 -136.5t-21.5 -182.5z" />
    <glyph glyph-name="aogonek" unicode="&#x105;" horiz-adv-x="1246" 
d="M1094 1q-66 -97 -66 -150q0 -92 109 -92q63 0 125 30v-133q-78 -20 -136 -20q-123 0 -180 43t-57 137q0 42 19.5 86.5t61.5 96.5h-3v169q-58 -100 -146 -148.5t-213 -48.5q-102 0 -186 42.5t-144.5 119.5t-94 185.5t-33.5 240.5t33.5 240.5t94 185.5t144.5 119.5
t186 42.5q245 0 358 -197v170h155v-1119h-27zM870 593q5 204 -61.5 312t-213.5 108q-73 0 -131 -29.5t-98.5 -85.5t-62 -136.5t-21.5 -182.5q12 -73 34 -125t58.5 -85t89.5 -48t126 -15t122.5 10t81.5 41t49.5 87t26.5 149z" />
    <glyph glyph-name="bdotbelow" unicode="&#x1e05;" horiz-adv-x="1302" 
d="M335 970q29 50 65.5 84t81 54.5t97 29.5t114.5 9q102 0 186.5 -42.5t145 -119.5t94 -185.5t33.5 -240.5t-33.5 -240.5t-94 -185.5t-145 -119.5t-186.5 -42.5q-110 0 -184 15.5t-123 45.5t-78 73t-49 98q-10 21 -18 85t-15 160.5t-13 221t-12.5 268t-14 300.5t-16.5 318
h185zM1035 601q-3 97 -22.5 174t-56.5 130.5t-92 82t-128 28.5t-131 -28t-98.5 -82t-62 -133t-21.5 -181q7 -52 14 -93.5t19.5 -74.5t32.5 -56.5t52.5 -38.5t80 -22.5t114.5 -7.5q61 4 111 19.5t88 49t63 90t37 143.5zM576 -299v221h205v-221h-205z" />
    <glyph glyph-name="cdotaccent" unicode="&#x10b;" horiz-adv-x="1186" 
d="M737 1348h-204v204h204v-204zM1036 915q-157 86 -315 86q-90 0 -158.5 -30.5t-115 -88t-70 -139.5t-23.5 -184q7 -72 30.5 -121.5t66.5 -81t107.5 -47.5t154.5 -21q40 0 80.5 -1t80.5 2t79.5 12.5t78.5 30.5l4 -289q-78 -36 -159.5 -54t-175.5 -18q-126 0 -228 41
t-174 117.5t-110.5 185.5t-38.5 244q0 137 39 246t111.5 185t177 116.5t235.5 40.5q85 0 166 -17.5t157 -52.5v-162z" />
    <glyph glyph-name="dcaron" unicode="&#x10f;" horiz-adv-x="1321" 
d="M1244 1195l99 386v185h256v-185l-199 -386h-156zM987 1556h184l-20 -1556h-184v168q-58 -100 -146 -148.5t-213 -48.5q-102 0 -186 42.5t-144.5 119.5t-94 185.5t-33.5 240.5t33.5 240.5t94 185.5t144.5 119.5t186 42.5q125 0 213 -48.5t146 -148.5zM282 579
q12 -73 34 -125t58.5 -85t89.5 -48t126 -15t127.5 10t90.5 41t55 87t22 149q-5 203 -74.5 311.5t-215.5 108.5q-73 0 -131 -29.5t-98.5 -85.5t-62 -136.5t-21.5 -182.5z" />
    <glyph glyph-name="dcircumflexbelow" unicode="&#x1e13;" horiz-adv-x="1321" 
d="M987 1556h184l-20 -1556h-184v168q-58 -100 -146 -148.5t-213 -48.5q-102 0 -186 42.5t-144.5 119.5t-94 185.5t-33.5 240.5t33.5 240.5t94 185.5t144.5 119.5t186 42.5q125 0 213 -48.5t146 -148.5zM282 579q12 -73 34 -125t58.5 -85t89.5 -48t126 -15t127.5 10t90.5 41
t55 87t22 149q-5 203 -74.5 311.5t-215.5 108.5q-73 0 -131 -29.5t-98.5 -85.5t-62 -136.5t-21.5 -182.5zM449 -451h-139l245 376h148l245 -376h-139l-180 245z" />
    <glyph glyph-name="ddotbelow" unicode="&#x1e0d;" horiz-adv-x="1321" 
d="M987 1556h184l-20 -1556h-184v168q-58 -100 -146 -148.5t-213 -48.5q-102 0 -186 42.5t-144.5 119.5t-94 185.5t-33.5 240.5t33.5 240.5t94 185.5t144.5 119.5t186 42.5q125 0 213 -48.5t146 -148.5zM282 579q12 -73 34 -125t58.5 -85t89.5 -48t126 -15t127.5 10t90.5 41
t55 87t22 149q-5 203 -74.5 311.5t-215.5 108.5q-73 0 -131 -29.5t-98.5 -85.5t-62 -136.5t-21.5 -182.5zM701 -299h-205v221h205v-221z" />
    <glyph glyph-name="dlinebelow" unicode="&#x1e0f;" horiz-adv-x="1321" 
d="M987 1556h184l-20 -1556h-184v168q-58 -100 -146 -148.5t-213 -48.5q-102 0 -186 42.5t-144.5 119.5t-94 185.5t-33.5 240.5t33.5 240.5t94 185.5t144.5 119.5t186 42.5q125 0 213 -48.5t146 -148.5zM282 579q12 -73 34 -125t58.5 -85t89.5 -48t126 -15t127.5 10t90.5 41
t55 87t22 149q-5 203 -74.5 311.5t-215.5 108.5q-73 0 -131 -29.5t-98.5 -85.5t-62 -136.5t-21.5 -182.5zM920 -256l-539 -9l7 164l539 10z" />
    <glyph glyph-name="ecaron" unicode="&#x11b;" 
d="M992 1638l-245 -376h-148l-245 376h139l180 -245l180 245h139zM1178 606h-836q1 -112 29 -181t79 -107.5t123.5 -53.5t164.5 -20q53 0 104 1t101.5 7t100 19.5t98.5 39.5l4 -254q-100 -42 -203 -64t-212 -22q-134 5 -241 46t-183 115t-116.5 179t-40.5 238
q5 138 44 248.5t109.5 188t170.5 119.5t226 42q112 -5 197.5 -34t144.5 -86t93 -144t43 -207v-70zM1018 766q-8 47 -33 97.5t-65.5 92t-95.5 68t-123 26.5q-77 0 -139.5 -25.5t-107 -66t-68.5 -91t-24 -101.5h656z" />
    <glyph glyph-name="uni0229" unicode="&#x229;" 
d="M342 606q1 -112 29 -181t79 -107.5t123.5 -53.5t164.5 -20q53 0 104 1t101.5 7t100 19.5t98.5 39.5l4 -254q-86 -36 -173.5 -57.5t-178.5 -26.5q86 -105 86 -188q0 -180 -238 -180q-91 0 -176 24v131q34 -17 70.5 -24.5t84.5 -7.5q119 0 119 94q0 27 -17 64.5t-53 88.5
q-120 13 -216.5 57t-164 117.5t-103.5 174t-36 225.5q5 138 44 248.5t109.5 188t170.5 119.5t226 42q112 -5 197.5 -34t144.5 -86t93 -144t43 -207v-70h-836zM1018 766q-8 47 -33 97.5t-65.5 92t-95.5 68t-123 26.5q-77 0 -139.5 -25.5t-107 -66t-68.5 -91t-24 -101.5h656z
" />
    <glyph glyph-name="ecircumflexacute" unicode="&#x1ebf;" 
d="M761 1628h-170l312 418h221zM493 1227h-139l245 376h148l245 -376h-139l-180 245zM1178 606h-836q1 -112 29 -181t79 -107.5t123.5 -53.5t164.5 -20q53 0 104 1t101.5 7t100 19.5t98.5 39.5l4 -254q-100 -42 -203 -64t-212 -22q-134 5 -241 46t-183 115t-116.5 179
t-40.5 238q5 138 44 248.5t109.5 188t170.5 119.5t226 42q112 -5 197.5 -34t144.5 -86t93 -144t43 -207v-70zM1018 766q-8 47 -33 97.5t-65.5 92t-95.5 68t-123 26.5q-77 0 -139.5 -25.5t-107 -66t-68.5 -91t-24 -101.5h656z" />
    <glyph glyph-name="ecircumflexdotbelow" unicode="&#x1ec7;" 
d="M493 1227h-139l245 376h148l245 -376h-139l-180 245zM1178 606h-836q1 -112 29 -181t79 -107.5t123.5 -53.5t164.5 -20q53 0 104 1t101.5 7t100 19.5t98.5 39.5l4 -254q-100 -42 -203 -64t-212 -22q-134 5 -241 46t-183 115t-116.5 179t-40.5 238q5 138 44 248.5
t109.5 188t170.5 119.5t226 42q112 -5 197.5 -34t144.5 -86t93 -144t43 -207v-70zM1018 766q-8 47 -33 97.5t-65.5 92t-95.5 68t-123 26.5q-77 0 -139.5 -25.5t-107 -66t-68.5 -91t-24 -101.5h656zM831 -299h-205v221h205v-221z" />
    <glyph glyph-name="ecircumflexgrave" unicode="&#x1ec1;" 
d="M549 1649l-206 374h197l282 -374h-273zM493 1227h-139l245 376h148l245 -376h-139l-180 245zM1178 606h-836q1 -112 29 -181t79 -107.5t123.5 -53.5t164.5 -20q53 0 104 1t101.5 7t100 19.5t98.5 39.5l4 -254q-100 -42 -203 -64t-212 -22q-134 5 -241 46t-183 115
t-116.5 179t-40.5 238q5 138 44 248.5t109.5 188t170.5 119.5t226 42q112 -5 197.5 -34t144.5 -86t93 -144t43 -207v-70zM1018 766q-8 47 -33 97.5t-65.5 92t-95.5 68t-123 26.5q-77 0 -139.5 -25.5t-107 -66t-68.5 -91t-24 -101.5h656z" />
    <glyph glyph-name="ecircumflexhookabove" unicode="&#x1ec3;" 
d="M493 1227h-139l245 376h148l245 -376h-139l-180 245zM1016 1393q54 25 106 25q50 0 82 -21q31 -22 31 -53t-43 -62l-22 -15q-17 -14 -19 -17q-3 -9 -3 -24h-58v6q0 20 7 33q7 12 32 31l22 17q23 17 23 36q0 10 -15 19t-50 9q-43 0 -93 -26v42zM1178 606h-836
q1 -112 29 -181t79 -107.5t123.5 -53.5t164.5 -20q53 0 104 1t101.5 7t100 19.5t98.5 39.5l4 -254q-100 -42 -203 -64t-212 -22q-134 5 -241 46t-183 115t-116.5 179t-40.5 238q5 138 44 248.5t109.5 188t170.5 119.5t226 42q112 -5 197.5 -34t144.5 -86t93 -144t43 -207
v-70zM1018 766q-8 47 -33 97.5t-65.5 92t-95.5 68t-123 26.5q-77 0 -139.5 -25.5t-107 -66t-68.5 -91t-24 -101.5h656z" />
    <glyph glyph-name="ecircumflextilde" unicode="&#x1ec5;" 
d="M612 1726q-42 39 -68 39q-38 0 -56 -36q-19 -39 -20 -119h-125q2 136 53 209t142 73q38 0 70 -14t69 -47l57 -55q42 -39 68 -39q38 0 56 37q19 37 20 118h125q-2 -136 -53 -209t-142 -73q-38 0 -70 14t-69 47zM493 1227h-139l245 376h148l245 -376h-139l-180 245z
M1178 606h-836q1 -112 29 -181t79 -107.5t123.5 -53.5t164.5 -20q53 0 104 1t101.5 7t100 19.5t98.5 39.5l4 -254q-100 -42 -203 -64t-212 -22q-134 5 -241 46t-183 115t-116.5 179t-40.5 238q5 138 44 248.5t109.5 188t170.5 119.5t226 42q112 -5 197.5 -34t144.5 -86
t93 -144t43 -207v-70zM1018 766q-8 47 -33 97.5t-65.5 92t-95.5 68t-123 26.5q-77 0 -139.5 -25.5t-107 -66t-68.5 -91t-24 -101.5h656z" />
    <glyph glyph-name="edotaccent" unicode="&#x117;" 
d="M775 1348h-204v204h204v-204zM1178 606h-836q1 -112 29 -181t79 -107.5t123.5 -53.5t164.5 -20q53 0 104 1t101.5 7t100 19.5t98.5 39.5l4 -254q-100 -42 -203 -64t-212 -22q-134 5 -241 46t-183 115t-116.5 179t-40.5 238q5 138 44 248.5t109.5 188t170.5 119.5t226 42
q112 -5 197.5 -34t144.5 -86t93 -144t43 -207v-70zM1018 766q-8 47 -33 97.5t-65.5 92t-95.5 68t-123 26.5q-77 0 -139.5 -25.5t-107 -66t-68.5 -91t-24 -101.5h656z" />
    <glyph glyph-name="edotbelow" unicode="&#x1eb9;" 
d="M1178 606h-836q1 -112 29 -181t79 -107.5t123.5 -53.5t164.5 -20q53 0 104 1t101.5 7t100 19.5t98.5 39.5l4 -254q-100 -42 -203 -64t-212 -22q-134 5 -241 46t-183 115t-116.5 179t-40.5 238q5 138 44 248.5t109.5 188t170.5 119.5t226 42q112 -5 197.5 -34t144.5 -86
t93 -144t43 -207v-70zM1018 766q-8 47 -33 97.5t-65.5 92t-95.5 68t-123 26.5q-77 0 -139.5 -25.5t-107 -66t-68.5 -91t-24 -101.5h656zM831 -299h-205v221h205v-221z" />
    <glyph glyph-name="ehookabove" unicode="&#x1ebb;" 
d="M557 1359q54 25 106 25q50 0 82 -21q31 -22 31 -53t-43 -62l-22 -15q-17 -14 -19 -17q-3 -9 -3 -24h-58v6q0 20 7 33q7 12 32 31l22 17q23 17 23 36q0 10 -15 19t-50 9q-43 0 -93 -26v42zM1178 606h-836q1 -112 29 -181t79 -107.5t123.5 -53.5t164.5 -20q53 0 104 1
t101.5 7t100 19.5t98.5 39.5l4 -254q-100 -42 -203 -64t-212 -22q-134 5 -241 46t-183 115t-116.5 179t-40.5 238q5 138 44 248.5t109.5 188t170.5 119.5t226 42q112 -5 197.5 -34t144.5 -86t93 -144t43 -207v-70zM1018 766q-8 47 -33 97.5t-65.5 92t-95.5 68t-123 26.5
q-77 0 -139.5 -25.5t-107 -66t-68.5 -91t-24 -101.5h656z" />
    <glyph glyph-name="emacron" unicode="&#x113;" 
d="M972 1297h-598v148h598v-148zM1178 606h-836q1 -112 29 -181t79 -107.5t123.5 -53.5t164.5 -20q53 0 104 1t101.5 7t100 19.5t98.5 39.5l4 -254q-100 -42 -203 -64t-212 -22q-134 5 -241 46t-183 115t-116.5 179t-40.5 238q5 138 44 248.5t109.5 188t170.5 119.5t226 42
q112 -5 197.5 -34t144.5 -86t93 -144t43 -207v-70zM1018 766q-8 47 -33 97.5t-65.5 92t-95.5 68t-123 26.5q-77 0 -139.5 -25.5t-107 -66t-68.5 -91t-24 -101.5h656z" />
    <glyph glyph-name="eogonek" unicode="&#x119;" 
d="M342 606q1 -112 29 -181t79 -107.5t123.5 -53.5t164.5 -20q53 0 104 1t101.5 7t100 19.5t98.5 39.5l4 -254q-119 -50 -240 -71h36q-45 -61 -66.5 -105t-21.5 -75q0 -92 109 -92q63 0 125 30v-133q-78 -20 -136 -20q-123 0 -180 43t-57 137q0 89 98 203q-41 -3 -82 -3
q-134 5 -241 46t-183 115t-116.5 179t-40.5 238q5 138 44 248.5t109.5 188t170.5 119.5t226 42q112 -5 197.5 -34t144.5 -86t93 -144t43 -207v-70h-836zM1018 766q-8 47 -33 97.5t-65.5 92t-95.5 68t-123 26.5q-77 0 -139.5 -25.5t-107 -66t-68.5 -91t-24 -101.5h656z" />
    <glyph glyph-name="etilde" unicode="&#x1ebd;" 
d="M612 1726q-42 39 -68 39q-38 0 -56 -36q-19 -39 -20 -119h-125q2 136 53 209t142 73q38 0 70 -14t69 -47l57 -55q42 -39 68 -39q38 0 56 37q19 37 20 118h125q-2 -136 -53 -209t-142 -73q-38 0 -70 14t-69 47zM1178 606h-836q1 -112 29 -181t79 -107.5t123.5 -53.5
t164.5 -20q53 0 104 1t101.5 7t100 19.5t98.5 39.5l4 -254q-100 -42 -203 -64t-212 -22q-134 5 -241 46t-183 115t-116.5 179t-40.5 238q5 138 44 248.5t109.5 188t170.5 119.5t226 42q112 -5 197.5 -34t144.5 -86t93 -144t43 -207v-70zM1018 766q-8 47 -33 97.5t-65.5 92
t-95.5 68t-123 26.5q-77 0 -139.5 -25.5t-107 -66t-68.5 -91t-24 -101.5h656z" />
    <glyph glyph-name="gcaron" unicode="&#x1e7;" horiz-adv-x="1321" 
d="M1001 1638l-245 -376h-148l-245 376h139l180 -245l180 245h139zM987 1120h184l-30 -981q-6 -193 -40 -322.5t-98.5 -208t-160.5 -111.5t-227 -33q-97 0 -183 14.5t-167 44.5v328q81 -45 160 -65.5t161 -20.5q90 0 155.5 34.5t110 86.5t70 111t35.5 109v61
q-24 -35 -58 -65t-78 -53t-97.5 -36t-115.5 -13q-103 0 -187.5 41t-144.5 116t-93 181t-33 235q0 130 33 236t93 181t144.5 116t187.5 41q246 0 359 -197zM887 584q0 100 -21 178t-61.5 132t-98.5 82t-133 28q-74 0 -132 -28t-98.5 -82t-61.5 -132t-21 -178
q10 -99 30.5 -156.5t55.5 -86t87 -36t126 -7.5q75 0 135.5 7.5t103 36t66 86t23.5 156.5z" />
    <glyph glyph-name="gcommaaccent" unicode="&#x123;" horiz-adv-x="1321" 
d="M987 1120h184l-30 -981q-6 -193 -40 -322.5t-98.5 -208t-160.5 -111.5t-227 -33q-97 0 -183 14.5t-167 44.5v328q81 -45 160 -65.5t161 -20.5q90 0 155.5 34.5t110 86.5t70 111t35.5 109v61q-24 -35 -58 -65t-78 -53t-97.5 -36t-115.5 -13q-103 0 -187.5 41t-144.5 116
t-93 181t-33 235q0 130 33 236t93 181t144.5 116t187.5 41q246 0 359 -197zM887 584q0 100 -21 178t-61.5 132t-98.5 82t-133 28q-74 0 -132 -28t-98.5 -82t-61.5 -132t-21 -178q10 -99 30.5 -156.5t55.5 -86t87 -36t126 -7.5q75 0 135.5 7.5t103 36t66 86t23.5 156.5z
M385 -1068l102 320v212h251v-212l-224 -320h-129z" />
    <glyph glyph-name="gdotaccent" unicode="&#x121;" horiz-adv-x="1321" 
d="M784 1348h-204v204h204v-204zM987 1120h184l-30 -981q-6 -193 -40 -322.5t-98.5 -208t-160.5 -111.5t-227 -33q-97 0 -183 14.5t-167 44.5v328q81 -45 160 -65.5t161 -20.5q90 0 155.5 34.5t110 86.5t70 111t35.5 109v61q-24 -35 -58 -65t-78 -53t-97.5 -36t-115.5 -13
q-103 0 -187.5 41t-144.5 116t-93 181t-33 235q0 130 33 236t93 181t144.5 116t187.5 41q246 0 359 -197zM887 584q0 100 -21 178t-61.5 132t-98.5 82t-133 28q-74 0 -132 -28t-98.5 -82t-61.5 -132t-21 -178q10 -99 30.5 -156.5t55.5 -86t87 -36t126 -7.5q75 0 135.5 7.5
t103 36t66 86t23.5 156.5z" />
    <glyph glyph-name="hbar" unicode="&#x127;" horiz-adv-x="1278" 
d="M924 670q4 96 -11 160.5t-47 103.5t-80 56t-110 17q-75 0 -134.5 -27.5t-101 -77t-63.5 -118.5t-22 -151l20 -633h-225l33 1269h-139l30 124h112l4 163h185l-5 -163h359l20 -124h-383l-11 -323q66 102 155 151.5t207 49.5q194 0 292.5 -119t98.5 -352l20 -676h-234z" />
    <glyph glyph-name="hdotbelow" unicode="&#x1e25;" horiz-adv-x="1278" 
d="M1128 0h-234l30 670q4 96 -11 160.5t-47 103.5t-80 56t-110 17q-75 0 -134.5 -27.5t-101 -77t-63.5 -118.5t-22 -151l20 -633h-225l40 1556h185l-20 -610q66 102 155 151.5t207 49.5q194 0 292.5 -119t98.5 -352zM748 -299h-205v221h205v-221z" />
    <glyph glyph-name="icaron" unicode="&#x1d0;" horiz-adv-x="534" 
d="M558 1638l-245 -376h-148l-245 376h139l180 -245l180 245h139zM150 0q20 297 26 575.5t4 544.5h164q-9 -253 -0.5 -532.5t40.5 -587.5h-234z" />
    <glyph glyph-name="idieresisacute" unicode="&#x1e2f;" horiz-adv-x="534" 
d="M327 1628h-170l312 418h221zM138 1350h-218v217h218v-217zM557 1350h-218v217h218v-217zM150 0q20 297 26 575.5t4 544.5h164q-9 -253 -0.5 -532.5t40.5 -587.5h-234z" />
    <glyph glyph-name="idotbelow" unicode="&#x1ecb;" horiz-adv-x="534" 
d="M354 1323h-184l10 233h164zM150 0q20 297 26 575.5t4 544.5h164q-9 -253 -0.5 -532.5t40.5 -587.5h-234zM368 -299h-205v221h205v-221z" />
    <glyph glyph-name="ihookabove" unicode="&#x1ec9;" horiz-adv-x="534" 
d="M163 1362q54 25 106 25q50 0 82 -21q31 -22 31 -53t-43 -62l-22 -15q-17 -14 -19 -17q-3 -9 -3 -24h-58v6q0 20 7 33q7 12 32 31l22 17q23 17 23 36q0 10 -15 19t-50 9q-43 0 -93 -26v42zM150 0q20 297 26 575.5t4 544.5h164q-9 -253 -0.5 -532.5t40.5 -587.5h-234z" />
    <glyph glyph-name="ij" unicode="&#x133;" horiz-adv-x="1268" 
d="M354 1323h-184l10 233h164zM1118 1323h-184l10 233h164zM150 0q20 297 26 575.5t4 544.5h164q-9 -253 -0.5 -532.5t40.5 -587.5h-234zM901 1115l174 -3l-40 -1140q-2 -107 -23 -186t-64 -132.5t-108.5 -81t-155.5 -30.5l-100 2l5 276h79q52 4 86 14.5t54.5 39t30.5 81
t14 140.5z" />
    <glyph glyph-name="imacron" unicode="&#x12b;" horiz-adv-x="534" 
d="M538 1297h-598v148h598v-148zM150 0q20 297 26 575.5t4 544.5h164q-9 -253 -0.5 -532.5t40.5 -587.5h-234z" />
    <glyph glyph-name="iogonek" unicode="&#x12f;" horiz-adv-x="534" 
d="M137 1348v204h204v-204h-204zM315 0q-34 -49 -50 -85.5t-16 -63.5q0 -92 109 -92q63 0 125 30v-133q-78 -20 -136 -20q-123 0 -180 43t-57 137q0 42 20 87t62 97h-42q20 297 26 575.5t4 544.5h164q-9 -253 -0.5 -532.5t40.5 -587.5h-69z" />
    <glyph glyph-name="itilde" unicode="&#x129;" horiz-adv-x="534" 
d="M178 1726q-42 39 -68 39q-38 0 -56 -36q-19 -39 -20 -119h-125q2 136 53 209t142 73q38 0 70 -14t69 -47l57 -55q42 -39 68 -39q38 0 56 37q19 37 20 118h125q-2 -136 -53 -209t-142 -73q-38 0 -70 14t-69 47zM150 0q20 297 26 575.5t4 544.5h164q-9 -253 -0.5 -532.5
t40.5 -587.5h-234z" />
    <glyph glyph-name="kcommaaccent" unicode="&#x137;" horiz-adv-x="1324" 
d="M395 0h-245l40 1556h185l-10 -879l379 443h235l-424 -524l619 -596h-380l-429 527zM346 -591l102 320v212h251v-212l-224 -320h-129z" />
    <glyph glyph-name="lacute" unicode="&#x13a;" horiz-adv-x="700" 
d="M377 1911h-170l312 418h221zM550 0h-400q3 195 7 375t10.5 358t14.5 358t18 375h174q-9 -166 -15.5 -318t-12 -301t-8.5 -301t-4 -318h216v-228z" />
    <glyph glyph-name="lcaron" unicode="&#x13e;" horiz-adv-x="700" 
d="M447 1199l99 386v185h256v-185l-199 -386h-156zM550 0h-400q3 195 7 375t10.5 358t14.5 358t18 375h174q-9 -166 -15.5 -318t-12 -301t-8.5 -301t-4 -318h216v-228z" />
    <glyph glyph-name="lcircumflexbelow" unicode="&#x1e3d;" horiz-adv-x="700" 
d="M550 0h-400q3 195 7 375t10.5 358t14.5 358t18 375h174q-9 -166 -15.5 -318t-12 -301t-8.5 -301t-4 -318h216v-228zM123 -451h-139l245 376h148l245 -376h-139l-180 245z" />
    <glyph glyph-name="lcommaaccent" unicode="&#x13c;" horiz-adv-x="700" 
d="M550 0h-400q3 195 7 375t10.5 358t14.5 358t18 375h174q-9 -166 -15.5 -318t-12 -301t-8.5 -301t-4 -318h216v-228zM88 -608l102 320v212h251v-212l-224 -320h-129z" />
    <glyph glyph-name="ldot" unicode="&#x140;" horiz-adv-x="700" 
d="M550 0h-400q3 195 7 375t10.5 358t14.5 358t18 375h174q-9 -166 -15.5 -318t-12 -301t-8.5 -301t-4 -318h216v-228zM685 645h-211v254h211v-254z" />
    <glyph glyph-name="ldotbelow" unicode="&#x1e37;" horiz-adv-x="700" 
d="M550 0h-400q3 195 7 375t10.5 358t14.5 358t18 375h174q-9 -166 -15.5 -318t-12 -301t-8.5 -301t-4 -318h216v-228zM391 -299h-205v221h205v-221z" />
    <glyph glyph-name="macute" unicode="&#x1e3f;" horiz-adv-x="1985" 
d="M320 1320h-170l312 418h221zM1835 0h-275l70 700q0 81 -9.5 140.5t-32.5 98.5t-62 58.5t-97 19.5q-72 0 -126 -29t-91.5 -80.5t-57.5 -122t-24 -152.5l-30 -633h-255l90 710q0 163 -56.5 240t-176.5 77q-71 0 -129 -31t-100 -84.5t-65 -125.5t-23 -153l20 -633h-255
l50 1120h185l-20 -174q63 103 151 152t209 49q123 0 217.5 -62t136.5 -180q34 62 72 107.5t83 75.5t98 44.5t118 14.5q87 0 155 -31.5t114.5 -91.5t71 -147.5t24.5 -200.5z" />
    <glyph glyph-name="nacute" unicode="&#x144;" horiz-adv-x="1308" 
d="M723 1628h-170l312 418h221zM1158 0h-264l40 680q0 159 -52 238t-176 79q-84 0 -146.5 -24.5t-103.5 -70.5t-61 -111.5t-20 -147.5l30 -643h-255l30 1130h185v-134q33 25 71.5 52t83.5 49t96.5 36t110.5 14q194 0 292.5 -119t108.5 -352z" />
    <glyph glyph-name="ncaron" unicode="&#x148;" horiz-adv-x="1308" 
d="M954 1638l-245 -376h-148l-245 376h139l180 -245l180 245h139zM1158 0h-264l40 680q0 159 -52 238t-176 79q-84 0 -146.5 -24.5t-103.5 -70.5t-61 -111.5t-20 -147.5l30 -643h-255l30 1130h185v-134q33 25 71.5 52t83.5 49t96.5 36t110.5 14q194 0 292.5 -119t108.5 -352
z" />
    <glyph glyph-name="ncircumflexbelow" unicode="&#x1e4b;" horiz-adv-x="1308" 
d="M1158 0h-264l40 680q0 159 -52 238t-176 79q-84 0 -146.5 -24.5t-103.5 -70.5t-61 -111.5t-20 -147.5l30 -643h-255l30 1130h185v-134q33 25 71.5 52t83.5 49t96.5 36t110.5 14q194 0 292.5 -119t108.5 -352zM123 -451h-139l245 376h148l245 -376h-139l-180 245z" />
    <glyph glyph-name="ncommaaccent" unicode="&#x146;" horiz-adv-x="1308" 
d="M1158 0h-264l40 680q0 159 -52 238t-176 79q-84 0 -146.5 -24.5t-103.5 -70.5t-61 -111.5t-20 -147.5l30 -643h-255l30 1130h185v-134q33 25 71.5 52t83.5 49t96.5 36t110.5 14q194 0 292.5 -119t108.5 -352zM379 -591l102 320v212h251v-212l-224 -320h-129z" />
    <glyph glyph-name="ndotaccent" unicode="&#x1e45;" horiz-adv-x="1308" 
d="M737 1348h-204v204h204v-204zM1158 0h-264l40 680q0 159 -52 238t-176 79q-84 0 -146.5 -24.5t-103.5 -70.5t-61 -111.5t-20 -147.5l30 -643h-255l30 1130h185v-134q33 25 71.5 52t83.5 49t96.5 36t110.5 14q194 0 292.5 -119t108.5 -352z" />
    <glyph glyph-name="ndotbelow" unicode="&#x1e47;" horiz-adv-x="1308" 
d="M1158 0h-264l40 680q0 159 -52 238t-176 79q-84 0 -146.5 -24.5t-103.5 -70.5t-61 -111.5t-20 -147.5l30 -643h-255l30 1130h185v-134q33 25 71.5 52t83.5 49t96.5 36t110.5 14q194 0 292.5 -119t108.5 -352zM722 -299h-205v221h205v-221z" />
    <glyph glyph-name="eng" unicode="&#x14b;" horiz-adv-x="1308" 
d="M934 680q0 159 -52 238t-176 79q-84 0 -146.5 -24.5t-103.5 -70.5t-61 -111.5t-20 -147.5l30 -643h-255l30 1130h185v-134q33 25 71.5 52t83.5 49t96.5 36t110.5 14q88 0 152 -22t108.5 -59t72 -85.5t42.5 -100.5t20.5 -105t5.5 -99q7 -192 10.5 -320t3.5 -210
q0 -71 -2 -114.5t-6 -71t-9.5 -45t-12.5 -36.5q-10 -28 -38.5 -54.5t-65.5 -49.5t-77.5 -42.5t-74.5 -33.5t-56.5 -21.5t-23.5 -7.5q-23 0 -51.5 26t-52 61.5t-35 72.5t0.5 60q6 12 29 23t53.5 22.5t65 22.5t63.5 22t48 22t19 22z" />
    <glyph glyph-name="ocaron" unicode="&#x1d2;" 
d="M983 1638l-245 -376h-148l-245 376h139l180 -245l180 245h139zM664 1147q120 0 215.5 -40t161.5 -116t101.5 -185t35.5 -247t-35.5 -247t-101.5 -184.5t-161.5 -116t-215.5 -40.5t-215.5 40.5t-162 116t-101.5 184.5t-35 247t35 247t101.5 185t162 116t215.5 40z
M664 1011q-74 0 -133 -29t-100.5 -83.5t-64 -132.5t-22.5 -175q0 -98 22 -157.5t63.5 -91.5t100.5 -42.5t134 -10.5q73 0 132.5 10.5t100.5 43t63.5 91.5t22.5 157q0 96 -22.5 174t-63.5 132.5t-100.5 84t-132.5 29.5z" />
    <glyph glyph-name="ocircumflexacute" unicode="&#x1ed1;" 
d="M752 1628h-170l312 418h221zM484 1227h-139l245 376h148l245 -376h-139l-180 245zM664 1147q120 0 215.5 -40t161.5 -116t101.5 -185t35.5 -247t-35.5 -247t-101.5 -184.5t-161.5 -116t-215.5 -40.5t-215.5 40.5t-162 116t-101.5 184.5t-35 247t35 247t101.5 185t162 116
t215.5 40zM664 1011q-74 0 -133 -29t-100.5 -83.5t-64 -132.5t-22.5 -175q0 -98 22 -157.5t63.5 -91.5t100.5 -42.5t134 -10.5q73 0 132.5 10.5t100.5 43t63.5 91.5t22.5 157q0 96 -22.5 174t-63.5 132.5t-100.5 84t-132.5 29.5z" />
    <glyph glyph-name="ocircumflexdotbelow" unicode="&#x1ed9;" 
d="M484 1227h-139l245 376h148l245 -376h-139l-180 245zM664 1147q120 0 215.5 -40t161.5 -116t101.5 -185t35.5 -247t-35.5 -247t-101.5 -184.5t-161.5 -116t-215.5 -40.5t-215.5 40.5t-162 116t-101.5 184.5t-35 247t35 247t101.5 185t162 116t215.5 40zM664 1011
q-74 0 -133 -29t-100.5 -83.5t-64 -132.5t-22.5 -175q0 -98 22 -157.5t63.5 -91.5t100.5 -42.5t134 -10.5q73 0 132.5 10.5t100.5 43t63.5 91.5t22.5 157q0 96 -22.5 174t-63.5 132.5t-100.5 84t-132.5 29.5zM691 -299h-205v221h205v-221z" />
    <glyph glyph-name="ocircumflexgrave" unicode="&#x1ed3;" 
d="M540 1649l-206 374h197l282 -374h-273zM484 1227h-139l245 376h148l245 -376h-139l-180 245zM664 1147q120 0 215.5 -40t161.5 -116t101.5 -185t35.5 -247t-35.5 -247t-101.5 -184.5t-161.5 -116t-215.5 -40.5t-215.5 40.5t-162 116t-101.5 184.5t-35 247t35 247
t101.5 185t162 116t215.5 40zM664 1011q-74 0 -133 -29t-100.5 -83.5t-64 -132.5t-22.5 -175q0 -98 22 -157.5t63.5 -91.5t100.5 -42.5t134 -10.5q73 0 132.5 10.5t100.5 43t63.5 91.5t22.5 157q0 96 -22.5 174t-63.5 132.5t-100.5 84t-132.5 29.5z" />
    <glyph glyph-name="ocircumflexhookabove" unicode="&#x1ed5;" 
d="M484 1227h-139l245 376h148l245 -376h-139l-180 245zM1033 1303q54 25 106 25q50 0 82 -21q31 -22 31 -53t-43 -62l-22 -15q-17 -14 -19 -17q-3 -9 -3 -24h-58v6q0 20 7 33q7 12 32 31l22 17q23 17 23 36q0 10 -15 19t-50 9q-43 0 -93 -26v42zM664 1147q120 0 215.5 -40
t161.5 -116t101.5 -185t35.5 -247t-35.5 -247t-101.5 -184.5t-161.5 -116t-215.5 -40.5t-215.5 40.5t-162 116t-101.5 184.5t-35 247t35 247t101.5 185t162 116t215.5 40zM664 1011q-74 0 -133 -29t-100.5 -83.5t-64 -132.5t-22.5 -175q0 -98 22 -157.5t63.5 -91.5
t100.5 -42.5t134 -10.5q73 0 132.5 10.5t100.5 43t63.5 91.5t22.5 157q0 96 -22.5 174t-63.5 132.5t-100.5 84t-132.5 29.5z" />
    <glyph glyph-name="ocircumflextilde" unicode="&#x1ed7;" 
d="M603 1726q-42 39 -68 39q-38 0 -56 -36q-19 -39 -20 -119h-125q2 136 53 209t142 73q38 0 70 -14t69 -47l57 -55q42 -39 68 -39q38 0 56 37q19 37 20 118h125q-2 -136 -53 -209t-142 -73q-38 0 -70 14t-69 47zM484 1227h-139l245 376h148l245 -376h-139l-180 245z
M664 1147q120 0 215.5 -40t161.5 -116t101.5 -185t35.5 -247t-35.5 -247t-101.5 -184.5t-161.5 -116t-215.5 -40.5t-215.5 40.5t-162 116t-101.5 184.5t-35 247t35 247t101.5 185t162 116t215.5 40zM664 1011q-74 0 -133 -29t-100.5 -83.5t-64 -132.5t-22.5 -175
q0 -98 22 -157.5t63.5 -91.5t100.5 -42.5t134 -10.5q73 0 132.5 10.5t100.5 43t63.5 91.5t22.5 157q0 96 -22.5 174t-63.5 132.5t-100.5 84t-132.5 29.5z" />
    <glyph glyph-name="uni022B" unicode="&#x22b;" 
d="M345 1350v217h218v-122h201v122h218v-217h-19v-53h-598v53h-20zM664 1147q120 0 215.5 -40t161.5 -116t101.5 -185t35.5 -247t-35.5 -247t-101.5 -184.5t-161.5 -116t-215.5 -40.5t-215.5 40.5t-162 116t-101.5 184.5t-35 247t35 247t101.5 185t162 116t215.5 40z
M664 289q73 0 132.5 10.5t100.5 43t63.5 91.5t22.5 157q0 96 -22.5 174t-63.5 132.5t-100.5 84t-132.5 29.5q-74 0 -133 -29t-100.5 -83.5t-64 -132.5t-22.5 -175q0 -98 22 -157.5t63.5 -91.5t100.5 -42.5t134 -10.5z" />
    <glyph glyph-name="odotbelow" unicode="&#x1ecd;" 
d="M664 1147q120 0 215.5 -40t161.5 -116t101.5 -185t35.5 -247t-35.5 -247t-101.5 -184.5t-161.5 -116t-215.5 -40.5t-215.5 40.5t-162 116t-101.5 184.5t-35 247t35 247t101.5 185t162 116t215.5 40zM664 1011q-74 0 -133 -29t-100.5 -83.5t-64 -132.5t-22.5 -175
q0 -98 22 -157.5t63.5 -91.5t100.5 -42.5t134 -10.5q73 0 132.5 10.5t100.5 43t63.5 91.5t22.5 157q0 96 -22.5 174t-63.5 132.5t-100.5 84t-132.5 29.5zM751 -299h-205v221h205v-221z" />
    <glyph glyph-name="ohookabove" unicode="&#x1ecf;" 
d="M565 1381q54 25 106 25q50 0 82 -21q31 -22 31 -53t-43 -62l-22 -15q-17 -14 -19 -17q-3 -9 -3 -24h-58v6q0 20 7 33q7 12 32 31l22 17q23 17 23 36q0 10 -15 19t-50 9q-43 0 -93 -26v42zM664 1147q120 0 215.5 -40t161.5 -116t101.5 -185t35.5 -247t-35.5 -247
t-101.5 -184.5t-161.5 -116t-215.5 -40.5t-215.5 40.5t-162 116t-101.5 184.5t-35 247t35 247t101.5 185t162 116t215.5 40zM664 1011q-74 0 -133 -29t-100.5 -83.5t-64 -132.5t-22.5 -175q0 -98 22 -157.5t63.5 -91.5t100.5 -42.5t134 -10.5q73 0 132.5 10.5t100.5 43
t63.5 91.5t22.5 157q0 96 -22.5 174t-63.5 132.5t-100.5 84t-132.5 29.5z" />
    <glyph glyph-name="ohorn" unicode="&#x1a1;" 
d="M1270 1078q10 -36 10 -67q0 -30 -4.5 -62t-14 -63t-25.5 -59t-40 -48l-37 -32q9 -43 14 -90t5 -98q0 -138 -35.5 -247t-101.5 -184.5t-161.5 -116t-215.5 -40.5t-215.5 40.5t-162 116t-101.5 184.5t-35 247t35 247t101.5 185t162 116t215.5 40q170 0 288 -78t176 -223
q7 5 17 13q17 15 25.5 38.5t12 48.5t3.5 47.5v35.5q0 31 -15 61zM664 289q73 0 132.5 10.5t100.5 43t63.5 91.5t22.5 157q0 96 -22.5 174t-63.5 132.5t-100.5 84t-132.5 29.5q-74 0 -133 -29t-100.5 -83.5t-64 -132.5t-22.5 -175q0 -98 22 -157.5t63.5 -91.5t100.5 -42.5
t134 -10.5z" />
    <glyph glyph-name="ohornacute" unicode="&#x1edb;" 
d="M582 1628l312 418h221l-363 -418h-170zM1270 1078q10 -36 10 -67q0 -30 -4.5 -62t-14 -63t-25.5 -59t-40 -48l-37 -32q9 -43 14 -90t5 -98q0 -138 -35.5 -247t-101.5 -184.5t-161.5 -116t-215.5 -40.5t-215.5 40.5t-162 116t-101.5 184.5t-35 247t35 247t101.5 185
t162 116t215.5 40q170 0 288 -78t176 -223q7 5 17 13q17 15 25.5 38.5t12 48.5t3.5 47.5v35.5q0 31 -15 61zM664 289q73 0 132.5 10.5t100.5 43t63.5 91.5t22.5 157q0 96 -22.5 174t-63.5 132.5t-100.5 84t-132.5 29.5q-74 0 -133 -29t-100.5 -83.5t-64 -132.5t-22.5 -175
q0 -98 22 -157.5t63.5 -91.5t100.5 -42.5t134 -10.5z" />
    <glyph glyph-name="ohorndotbelow" unicode="&#x1ee3;" 
d="M1270 1078q10 -36 10 -67q0 -30 -4.5 -62t-14 -63t-25.5 -59t-40 -48l-37 -32q9 -43 14 -90t5 -98q0 -138 -35.5 -247t-101.5 -184.5t-161.5 -116t-215.5 -40.5t-215.5 40.5t-162 116t-101.5 184.5t-35 247t35 247t101.5 185t162 116t215.5 40q170 0 288 -78t176 -223
q7 5 17 13q17 15 25.5 38.5t12 48.5t3.5 47.5v35.5q0 31 -15 61zM664 289q73 0 132.5 10.5t100.5 43t63.5 91.5t22.5 157q0 96 -22.5 174t-63.5 132.5t-100.5 84t-132.5 29.5q-74 0 -133 -29t-100.5 -83.5t-64 -132.5t-22.5 -175q0 -98 22 -157.5t63.5 -91.5t100.5 -42.5
t134 -10.5zM751 -78v-221h-205v221h205z" />
    <glyph glyph-name="ohorngrave" unicode="&#x1edd;" 
d="M334 2023h197l282 -374h-273zM1270 1078q10 -36 10 -67q0 -30 -4.5 -62t-14 -63t-25.5 -59t-40 -48l-37 -32q9 -43 14 -90t5 -98q0 -138 -35.5 -247t-101.5 -184.5t-161.5 -116t-215.5 -40.5t-215.5 40.5t-162 116t-101.5 184.5t-35 247t35 247t101.5 185t162 116
t215.5 40q170 0 288 -78t176 -223q7 5 17 13q17 15 25.5 38.5t12 48.5t3.5 47.5v35.5q0 31 -15 61zM664 289q73 0 132.5 10.5t100.5 43t63.5 91.5t22.5 157q0 96 -22.5 174t-63.5 132.5t-100.5 84t-132.5 29.5q-74 0 -133 -29t-100.5 -83.5t-64 -132.5t-22.5 -175
q0 -98 22 -157.5t63.5 -91.5t100.5 -42.5t134 -10.5z" />
    <glyph glyph-name="ohornhookabove" unicode="&#x1edf;" 
d="M709 1309q23 17 23 36q0 10 -15 19t-50 9q-43 0 -93 -26v42q54 25 106 25q50 0 82 -21q31 -22 31 -53t-43 -62l-22 -15q-17 -14 -19 -17q-3 -9 -3 -24h-58v6q0 20 7 33q7 12 32 31zM1270 1078q10 -36 10 -67q0 -30 -4.5 -62t-14 -63t-25.5 -59t-40 -48l-37 -32
q9 -43 14 -90t5 -98q0 -138 -35.5 -247t-101.5 -184.5t-161.5 -116t-215.5 -40.5t-215.5 40.5t-162 116t-101.5 184.5t-35 247t35 247t101.5 185t162 116t215.5 40q170 0 288 -78t176 -223q7 5 17 13q17 15 25.5 38.5t12 48.5t3.5 47.5v35.5q0 31 -15 61zM664 289
q73 0 132.5 10.5t100.5 43t63.5 91.5t22.5 157q0 96 -22.5 174t-63.5 132.5t-100.5 84t-132.5 29.5q-74 0 -133 -29t-100.5 -83.5t-64 -132.5t-22.5 -175q0 -98 22 -157.5t63.5 -91.5t100.5 -42.5t134 -10.5z" />
    <glyph glyph-name="ohorntilde" unicode="&#x1ee1;" 
d="M603 1726q-42 39 -68 39q-38 0 -56 -36q-19 -39 -20 -119h-125q2 136 53 209t142 73q38 0 70 -14t69 -47l57 -55q42 -39 68 -39q38 0 56 37q19 37 20 118h125q-2 -136 -53 -209t-142 -73q-38 0 -70 14t-69 47zM1270 1078q10 -36 10 -67q0 -30 -4.5 -62t-14 -63t-25.5 -59
t-40 -48l-37 -32q9 -43 14 -90t5 -98q0 -138 -35.5 -247t-101.5 -184.5t-161.5 -116t-215.5 -40.5t-215.5 40.5t-162 116t-101.5 184.5t-35 247t35 247t101.5 185t162 116t215.5 40q170 0 288 -78t176 -223q7 5 17 13q17 15 25.5 38.5t12 48.5t3.5 47.5v35.5q0 31 -15 61z
M664 289q73 0 132.5 10.5t100.5 43t63.5 91.5t22.5 157q0 96 -22.5 174t-63.5 132.5t-100.5 84t-132.5 29.5q-74 0 -133 -29t-100.5 -83.5t-64 -132.5t-22.5 -175q0 -98 22 -157.5t63.5 -91.5t100.5 -42.5t134 -10.5z" />
    <glyph glyph-name="ohungarumlaut" unicode="&#x151;" 
d="M450 1262h-137l190 376h170zM767 1262h-135l205 376h178zM664 1147q120 0 215.5 -40t161.5 -116t101.5 -185t35.5 -247t-35.5 -247t-101.5 -184.5t-161.5 -116t-215.5 -40.5t-215.5 40.5t-162 116t-101.5 184.5t-35 247t35 247t101.5 185t162 116t215.5 40zM664 1011
q-74 0 -133 -29t-100.5 -83.5t-64 -132.5t-22.5 -175q0 -98 22 -157.5t63.5 -91.5t100.5 -42.5t134 -10.5q73 0 132.5 10.5t100.5 43t63.5 91.5t22.5 157q0 96 -22.5 174t-63.5 132.5t-100.5 84t-132.5 29.5z" />
    <glyph glyph-name="omacron" unicode="&#x14d;" 
d="M963 1297h-598v148h598v-148zM664 1147q120 0 215.5 -40t161.5 -116t101.5 -185t35.5 -247t-35.5 -247t-101.5 -184.5t-161.5 -116t-215.5 -40.5t-215.5 40.5t-162 116t-101.5 184.5t-35 247t35 247t101.5 185t162 116t215.5 40zM664 1011q-74 0 -133 -29t-100.5 -83.5
t-64 -132.5t-22.5 -175q0 -98 22 -157.5t63.5 -91.5t100.5 -42.5t134 -10.5q73 0 132.5 10.5t100.5 43t63.5 91.5t22.5 157q0 96 -22.5 174t-63.5 132.5t-100.5 84t-132.5 29.5z" />
    <glyph glyph-name="omacronacute" unicode="&#x1e53;" 
d="M752 1628h-170l312 418h221zM963 1297h-598v148h598v-148zM664 1147q120 0 215.5 -40t161.5 -116t101.5 -185t35.5 -247t-35.5 -247t-101.5 -184.5t-161.5 -116t-215.5 -40.5t-215.5 40.5t-162 116t-101.5 184.5t-35 247t35 247t101.5 185t162 116t215.5 40zM664 1011
q-74 0 -133 -29t-100.5 -83.5t-64 -132.5t-22.5 -175q0 -98 22 -157.5t63.5 -91.5t100.5 -42.5t134 -10.5q73 0 132.5 10.5t100.5 43t63.5 91.5t22.5 157q0 96 -22.5 174t-63.5 132.5t-100.5 84t-132.5 29.5z" />
    <glyph glyph-name="omacrongrave" unicode="&#x1e51;" 
d="M540 1649l-206 374h197l282 -374h-273zM963 1297h-598v148h598v-148zM664 1147q120 0 215.5 -40t161.5 -116t101.5 -185t35.5 -247t-35.5 -247t-101.5 -184.5t-161.5 -116t-215.5 -40.5t-215.5 40.5t-162 116t-101.5 184.5t-35 247t35 247t101.5 185t162 116t215.5 40z
M664 1011q-74 0 -133 -29t-100.5 -83.5t-64 -132.5t-22.5 -175q0 -98 22 -157.5t63.5 -91.5t100.5 -42.5t134 -10.5q73 0 132.5 10.5t100.5 43t63.5 91.5t22.5 157q0 96 -22.5 174t-63.5 132.5t-100.5 84t-132.5 29.5z" />
    <glyph glyph-name="oslashacute" unicode="&#x1ff;" horiz-adv-x="1410" 
d="M793 1628h-170l312 418h221zM246 -94l-96 78l149 182q-108 154 -108 393q0 138 35 247t101.5 185t162 116t215.5 40q186 0 319 -103l139 168l95 -79l-146 -179q107 -155 107 -395q0 -138 -35.5 -247t-101.5 -184.5t-161.5 -116t-215.5 -40.5q-193 0 -320 103zM912 909
q-83 82 -207 82q-75 0 -134.5 -30t-101 -87.5t-63 -140.5t-21.5 -188q0 -72 9.5 -127t29.5 -101zM496 209q81 -82 209 -82q73 0 132.5 30t100.5 86t63.5 136t22.5 180q0 79 -10 137.5t-31 104.5z" />
    <glyph glyph-name="otildeacute" unicode="&#x1e4d;" 
d="M603 1726q-42 39 -68 39q-38 0 -56 -36q-19 -39 -20 -119h-125q2 136 53 209t142 73q38 0 70 -14t69 -47l38 -37l188 252h221l-134 -154h13q-2 -136 -53 -209t-142 -73q-22 0 -41 4t-38 14h-138l51 69zM664 1147q120 0 215.5 -40t161.5 -116t101.5 -185t35.5 -247
t-35.5 -247t-101.5 -184.5t-161.5 -116t-215.5 -40.5t-215.5 40.5t-162 116t-101.5 184.5t-35 247t35 247t101.5 185t162 116t215.5 40zM664 289q73 0 132.5 10.5t100.5 43t63.5 91.5t22.5 157q0 96 -22.5 174t-63.5 132.5t-100.5 84t-132.5 29.5q-74 0 -133 -29
t-100.5 -83.5t-64 -132.5t-22.5 -175q0 -98 22 -157.5t63.5 -91.5t100.5 -42.5t134 -10.5z" />
    <glyph glyph-name="racute" unicode="&#x155;" horiz-adv-x="979" 
d="M490 1628h-170l312 418h221zM828 928q-30 18 -61.5 21.5t-75.5 3.5q-78 0 -133.5 -27.5t-91 -79t-52 -124t-16.5 -162.5l40 -560h-288q21 116 36 210t25 177.5t15 161.5t7 163t0.5 181.5t-5.5 216.5h170v-114q14 11 45 33t76 43.5t102.5 38t123.5 16.5q19 0 37 -2.5
t46 -7.5v-189z" />
    <glyph glyph-name="rcaron" unicode="&#x159;" horiz-adv-x="979" 
d="M721 1638l-245 -376h-148l-245 376h139l180 -245l180 245h139zM828 928q-30 18 -61.5 21.5t-75.5 3.5q-78 0 -133.5 -27.5t-91 -79t-52 -124t-16.5 -162.5l40 -560h-288q21 116 36 210t25 177.5t15 161.5t7 163t0.5 181.5t-5.5 216.5h170v-114q14 11 45 33t76 43.5
t102.5 38t123.5 16.5q19 0 37 -2.5t46 -7.5v-189z" />
    <glyph glyph-name="rcommaaccent" unicode="&#x157;" horiz-adv-x="979" 
d="M828 928q-30 18 -61.5 21.5t-75.5 3.5q-78 0 -133.5 -27.5t-91 -79t-52 -124t-16.5 -162.5l40 -560h-288q21 116 36 210t25 177.5t15 161.5t7 163t0.5 181.5t-5.5 216.5h170v-114q14 11 45 33t76 43.5t102.5 38t123.5 16.5q19 0 37 -2.5t46 -7.5v-189zM45 -584l102 320
v212h251v-212l-224 -320h-129z" />
    <glyph glyph-name="sacute" unicode="&#x15b;" horiz-adv-x="1156" 
d="M649 1628h-170l312 418h221zM946 933q-157 80 -336 80q-138 0 -211 -46.5t-73 -131.5q0 -37 12.5 -65t42 -50.5t78.5 -40.5t123 -34l63 -14q98 -21 166.5 -48t112 -65t63 -89t19.5 -120q0 -78 -32 -140.5t-91.5 -106.5t-145.5 -67.5t-194 -23.5q-179 0 -393 70v270
q203 -106 397 -106q130 0 190 39t60 111q-32 59 -57 88q-23 26 -195 64l-64 15q-86 18 -147 42t-100 58.5t-57.5 82t-18.5 112.5q0 79 28.5 140.5t83.5 103.5t135 64t183 22q206 0 358 -60v-154z" />
    <glyph glyph-name="scommaaccent" unicode="&#x219;" horiz-adv-x="1156" 
d="M946 933q-157 80 -336 80q-138 0 -211 -46.5t-73 -131.5q0 -37 12.5 -65t42 -50.5t78.5 -40.5t123 -34l63 -14q98 -21 166.5 -48t112 -65t63 -89t19.5 -120q0 -78 -32 -140.5t-91.5 -106.5t-145.5 -67.5t-194 -23.5q-179 0 -393 70v270q203 -106 397 -106q130 0 190 39
t60 111q-32 59 -57 88q-23 26 -195 64l-64 15q-86 18 -147 42t-100 58.5t-57.5 82t-18.5 112.5q0 79 28.5 140.5t83.5 103.5t135 64t183 22q206 0 358 -60v-154zM297 -607l102 320v212h251v-212l-224 -320h-129z" />
    <glyph glyph-name="sdotbelow" unicode="&#x1e63;" horiz-adv-x="1156" 
d="M946 933q-157 80 -336 80q-138 0 -211 -46.5t-73 -131.5q0 -37 12.5 -65t42 -50.5t78.5 -40.5t123 -34l63 -14q98 -21 166.5 -48t112 -65t63 -89t19.5 -120q0 -78 -32 -140.5t-91.5 -106.5t-145.5 -67.5t-194 -23.5q-179 0 -393 70v270q203 -106 397 -106q130 0 190 39
t60 111q-32 59 -57 88q-23 26 -195 64l-64 15q-86 18 -147 42t-100 58.5t-57.5 82t-18.5 112.5q0 79 28.5 140.5t83.5 103.5t135 64t183 22q206 0 358 -60v-154zM641 -299h-205v221h205v-221z" />
    <glyph glyph-name="tbar" unicode="&#x167;" horiz-adv-x="999" 
d="M688 1530h-598v148h598v-148zM285 1120l10 278h195l-10 -278h259v-143h-259l-10 -488q0 -69 8 -111t29.5 -65t58.5 -31t94 -8h189v-274h-189q-107 0 -180 18.5t-119 61t-66 113.5t-20 176l10 608h-135v143h135z" />
    <glyph glyph-name="tcaron" unicode="&#x165;" horiz-adv-x="999" 
d="M561 1322l99 386v185h256v-185l-199 -386h-156zM285 1120l10 278h195l-10 -278h259v-143h-259l-10 -488q0 -69 8 -111t29.5 -65t58.5 -31t94 -8h189v-274h-189q-107 0 -180 18.5t-119 61t-66 113.5t-20 176l10 608h-135v143h135z" />
    <glyph glyph-name="tcedilla" unicode="&#x163;" horiz-adv-x="999" 
d="M676 0q55 -63 82 -115t27 -100q0 -180 -238 -180q-91 0 -176 24v131q34 -17 70.5 -24.5t84.5 -7.5q119 0 119 94q0 30 -21.5 73.5t-66.5 104.5h103q-107 0 -180 18.5t-119 61t-66 113.5t-20 176l10 608h-135v143h135l10 278h195l-10 -278h259v-143h-259l-10 -488
q0 -69 8 -111t29.5 -65t58.5 -31t94 -8h189v-274h-173z" />
    <glyph glyph-name="tcircumflexbelow" unicode="&#x1e71;" horiz-adv-x="999" 
d="M285 1120l10 278h195l-10 -278h259v-143h-259l-10 -488q0 -69 8 -111t29.5 -65t58.5 -31t94 -8h189v-274h-189q-107 0 -180 18.5t-119 61t-66 113.5t-20 176l10 608h-135v143h135zM438 -502h-139l245 376h148l245 -376h-139l-180 245z" />
    <glyph glyph-name="uni021B" unicode="&#x21b;" horiz-adv-x="999" 
d="M285 1120l10 278h195l-10 -278h259v-143h-259l-10 -488q0 -69 8 -111t29.5 -65t58.5 -31t94 -8h189v-274h-189q-107 0 -180 18.5t-119 61t-66 113.5t-20 176l10 608h-135v143h135zM270 -566l102 320v212h251v-212l-224 -320h-129z" />
    <glyph glyph-name="tdotbelow" unicode="&#x1e6d;" horiz-adv-x="999" 
d="M285 1120l10 278h195l-10 -278h259v-143h-259l-10 -488q0 -69 8 -111t29.5 -65t58.5 -31t94 -8h189v-274h-189q-107 0 -180 18.5t-119 61t-66 113.5t-20 176l10 608h-135v143h135zM651 -299h-205v221h205v-221z" />
    <glyph glyph-name="tlinebelow" unicode="&#x1e6f;" horiz-adv-x="999" 
d="M285 1120l10 278h195l-10 -278h259v-143h-259l-10 -488q0 -69 8 -111t29.5 -65t58.5 -31t94 -8h189v-274h-189q-107 0 -180 18.5t-119 61t-66 113.5t-20 176l10 608h-135v143h135zM739 -256l-539 -9l7 164l539 10z" />
    <glyph glyph-name="ucaron" unicode="&#x1d4;" horiz-adv-x="1248" 
d="M950 1638l-245 -376h-148l-245 376h139l180 -245l180 245h139zM150 1120h154v-511q10 -159 67 -238.5t181 -79.5q75 0 132.5 24.5t98 70.5t63.5 111.5t28 147.5l20 475h204l-20 -1120h-184l10 172q-67 -103 -155 -152t-206 -49q-194 0 -293.5 119.5t-99.5 351.5v678z" />
    <glyph glyph-name="udieresisacute" unicode="&#x1d8;" horiz-adv-x="1248" 
d="M719 1628h-170l312 418h221zM530 1350h-218v217h218v-217zM949 1350h-218v217h218v-217zM150 1120h154v-511q10 -159 67 -238.5t181 -79.5q75 0 132.5 24.5t98 70.5t63.5 111.5t28 147.5l20 475h204l-20 -1120h-184l10 172q-67 -103 -155 -152t-206 -49
q-194 0 -293.5 119.5t-99.5 351.5v678z" />
    <glyph glyph-name="udieresiscaron" unicode="&#x1da;" horiz-adv-x="1248" 
d="M312 1350v217h46l-46 71h139l52 -71h27v-37l101 -137l100 136v38h28l52 71h139l-46 -71h45v-217h-187l-57 -88h-148l-57 88h-188zM1078 0h-184l10 172q-67 -103 -155 -152t-206 -49q-194 0 -293.5 119.5t-99.5 351.5v678h154v-511q10 -159 67 -238.5t181 -79.5
q75 0 132.5 24.5t98 70.5t63.5 111.5t28 147.5l20 475h204z" />
    <glyph glyph-name="udieresisgrave" unicode="&#x1dc;" horiz-adv-x="1248" 
d="M507 1649l-206 374h197l282 -374h-273zM530 1350h-218v217h218v-217zM949 1350h-218v217h218v-217zM150 1120h154v-511q10 -159 67 -238.5t181 -79.5q75 0 132.5 24.5t98 70.5t63.5 111.5t28 147.5l20 475h204l-20 -1120h-184l10 172q-67 -103 -155 -152t-206 -49
q-194 0 -293.5 119.5t-99.5 351.5v678z" />
    <glyph glyph-name="udieresismacron" unicode="&#x1d6;" horiz-adv-x="1248" 
d="M312 1350v217h218v-122h201v122h218v-217h-19v-53h-598v53h-20zM1078 0h-184l10 172q-67 -103 -155 -152t-206 -49q-194 0 -293.5 119.5t-99.5 351.5v678h154v-511q10 -159 67 -238.5t181 -79.5q75 0 132.5 24.5t98 70.5t63.5 111.5t28 147.5l20 475h204z" />
    <glyph glyph-name="udotbelow" unicode="&#x1ee5;" horiz-adv-x="1248" 
d="M150 1120h154v-511q10 -159 67 -238.5t181 -79.5q75 0 132.5 24.5t98 70.5t63.5 111.5t28 147.5l20 475h204l-20 -1120h-184l10 172q-67 -103 -155 -152t-206 -49q-194 0 -293.5 119.5t-99.5 351.5v678zM631 -299h-205v221h205v-221z" />
    <glyph glyph-name="uhookabove" unicode="&#x1ee7;" horiz-adv-x="1248" 
d="M456 1259q54 25 106 25q50 0 82 -21q31 -22 31 -53t-43 -62l-22 -15q-17 -14 -19 -17q-3 -9 -3 -24h-58v6q0 20 7 33q7 12 32 31l22 17q23 17 23 36q0 10 -15 19t-50 9q-43 0 -93 -26v42zM150 1120h154v-511q10 -159 67 -238.5t181 -79.5q75 0 132.5 24.5t98 70.5
t63.5 111.5t28 147.5l20 475h204l-20 -1120h-184l10 172q-67 -103 -155 -152t-206 -49q-194 0 -293.5 119.5t-99.5 351.5v678z" />
    <glyph glyph-name="uhorn" unicode="&#x1b0;" horiz-adv-x="1248" 
d="M1265 1187q10 -36 10 -67q0 -30 -4.5 -62t-14 -63t-25.5 -59t-40 -48q-17 -14 -27.5 -23t-20 -16.5t-21 -14t-29.5 -15.5l-15 -819h-184l10 172q-67 -103 -155 -152t-206 -49q-194 0 -293.5 119.5t-99.5 351.5v678h154v-511q10 -159 67 -238.5t181 -79.5q75 0 132.5 24.5
t98 70.5t63.5 111.5t28 147.5l20 475h204l-3 -180q14 7 24 13t21 15q17 15 25.5 38.5t12 48.5t3.5 47.5v35.5q0 31 -15 61z" />
    <glyph glyph-name="uhornacute" unicode="&#x1ee9;" horiz-adv-x="1248" 
d="M549 1628l312 418h221l-363 -418h-170zM1265 1187q10 -36 10 -67q0 -30 -4.5 -62t-14 -63t-25.5 -59t-40 -48q-17 -14 -27.5 -23t-20 -16.5t-21 -14t-29.5 -15.5l-15 -819h-184l10 172q-67 -103 -155 -152t-206 -49q-194 0 -293.5 119.5t-99.5 351.5v678h154v-511
q10 -159 67 -238.5t181 -79.5q75 0 132.5 24.5t98 70.5t63.5 111.5t28 147.5l20 475h204l-3 -180q14 7 24 13t21 15q17 15 25.5 38.5t12 48.5t3.5 47.5v35.5q0 31 -15 61z" />
    <glyph glyph-name="uhorndotbelow" unicode="&#x1ef1;" horiz-adv-x="1248" 
d="M1265 1187q10 -36 10 -67q0 -30 -4.5 -62t-14 -63t-25.5 -59t-40 -48q-17 -14 -27.5 -23t-20 -16.5t-21 -14t-29.5 -15.5l-15 -819h-184l10 172q-67 -103 -155 -152t-206 -49q-194 0 -293.5 119.5t-99.5 351.5v678h154v-511q10 -159 67 -238.5t181 -79.5q75 0 132.5 24.5
t98 70.5t63.5 111.5t28 147.5l20 475h204l-3 -180q14 7 24 13t21 15q17 15 25.5 38.5t12 48.5t3.5 47.5v35.5q0 31 -15 61zM631 -78v-221h-205v221h205z" />
    <glyph glyph-name="uhorngrave" unicode="&#x1eeb;" horiz-adv-x="1248" 
d="M301 2023h197l282 -374h-273zM1265 1187q10 -36 10 -67q0 -30 -4.5 -62t-14 -63t-25.5 -59t-40 -48q-17 -14 -27.5 -23t-20 -16.5t-21 -14t-29.5 -15.5l-15 -819h-184l10 172q-67 -103 -155 -152t-206 -49q-194 0 -293.5 119.5t-99.5 351.5v678h154v-511
q10 -159 67 -238.5t181 -79.5q75 0 132.5 24.5t98 70.5t63.5 111.5t28 147.5l20 475h204l-3 -180q14 7 24 13t21 15q17 15 25.5 38.5t12 48.5t3.5 47.5v35.5q0 31 -15 61z" />
    <glyph glyph-name="uhornhookabove" unicode="&#x1eed;" horiz-adv-x="1248" 
d="M639 1210q23 17 23 36q0 10 -15 19t-50 9q-43 0 -93 -26v42q54 25 106 25q50 0 82 -21q31 -22 31 -53t-43 -62l-22 -15q-17 -14 -19 -17q-3 -9 -3 -24h-58v6q0 20 7 33q7 12 32 31zM1265 1187q10 -36 10 -67q0 -30 -4.5 -62t-14 -63t-25.5 -59t-40 -48q-17 -14 -27.5 -23
t-20 -16.5t-21 -14t-29.5 -15.5l-15 -819h-184l10 172q-67 -103 -155 -152t-206 -49q-194 0 -293.5 119.5t-99.5 351.5v678h154v-511q10 -159 67 -238.5t181 -79.5q75 0 132.5 24.5t98 70.5t63.5 111.5t28 147.5l20 475h204l-3 -180q14 7 24 13t21 15q17 15 25.5 38.5
t12 48.5t3.5 47.5v35.5q0 31 -15 61z" />
    <glyph glyph-name="uhorntilde" unicode="&#x1eef;" horiz-adv-x="1248" 
d="M570 1726q-42 39 -68 39q-38 0 -56 -36q-19 -39 -20 -119h-125q2 136 53 209t142 73q38 0 70 -14t69 -47l57 -55q42 -39 68 -39q38 0 56 37q19 37 20 118h125q-2 -136 -53 -209t-142 -73q-38 0 -70 14t-69 47zM1265 1187q10 -36 10 -67q0 -30 -4.5 -62t-14 -63t-25.5 -59
t-40 -48q-17 -14 -27.5 -23t-20 -16.5t-21 -14t-29.5 -15.5l-15 -819h-184l10 172q-67 -103 -155 -152t-206 -49q-194 0 -293.5 119.5t-99.5 351.5v678h154v-511q10 -159 67 -238.5t181 -79.5q75 0 132.5 24.5t98 70.5t63.5 111.5t28 147.5l20 475h204l-3 -180q14 7 24 13
t21 15q17 15 25.5 38.5t12 48.5t3.5 47.5v35.5q0 31 -15 61z" />
    <glyph glyph-name="uhungarumlaut" unicode="&#x171;" horiz-adv-x="1248" 
d="M417 1262h-137l190 376h170zM734 1262h-135l205 376h178zM150 1120h154v-511q10 -159 67 -238.5t181 -79.5q75 0 132.5 24.5t98 70.5t63.5 111.5t28 147.5l20 475h204l-20 -1120h-184l10 172q-67 -103 -155 -152t-206 -49q-194 0 -293.5 119.5t-99.5 351.5v678z" />
    <glyph glyph-name="umacron" unicode="&#x16b;" horiz-adv-x="1248" 
d="M930 1297h-598v148h598v-148zM150 1120h154v-511q10 -159 67 -238.5t181 -79.5q75 0 132.5 24.5t98 70.5t63.5 111.5t28 147.5l20 475h204l-20 -1120h-184l10 172q-67 -103 -155 -152t-206 -49q-194 0 -293.5 119.5t-99.5 351.5v678z" />
    <glyph glyph-name="uogonek" unicode="&#x173;" horiz-adv-x="1248" 
d="M1052 0q-81 -112 -81 -170q0 -92 109 -92q63 0 125 30v-133q-78 -20 -136 -20q-123 0 -180 43t-57 137q0 90 99 205h-37l10 172q-67 -103 -155 -152t-206 -49q-194 0 -293.5 119.5t-99.5 351.5v678h154v-511q10 -159 67 -238.5t181 -79.5q75 0 132.5 24.5t98 70.5
t63.5 111.5t28 147.5l20 475h204l-20 -1120h-26z" />
    <glyph glyph-name="uring" unicode="&#x16f;" horiz-adv-x="1248" 
d="M905 1524q0 -57 -21.5 -107.5t-58.5 -87.5t-87 -58.5t-107 -21.5t-107 21.5t-87 58.5t-58.5 87.5t-21.5 107.5t21.5 107t58.5 87t87 58.5t107 21.5t107 -21.5t87 -58.5t58.5 -87t21.5 -107zM783 1524q0 31 -12 59t-32.5 48t-48 32t-59.5 12q-33 0 -60.5 -11.5t-48 -32
t-32 -48t-11.5 -59.5q0 -33 11.5 -60.5t32 -48t48 -32t60.5 -11.5q32 0 59.5 12t48 32.5t32.5 48t12 59.5zM150 1120h154v-511q10 -159 67 -238.5t181 -79.5q75 0 132.5 24.5t98 70.5t63.5 111.5t28 147.5l20 475h204l-20 -1120h-184l10 172q-67 -103 -155 -152t-206 -49
q-194 0 -293.5 119.5t-99.5 351.5v678z" />
    <glyph glyph-name="utilde" unicode="&#x169;" horiz-adv-x="1248" 
d="M570 1726q-42 39 -68 39q-38 0 -56 -36q-19 -39 -20 -119h-125q2 136 53 209t142 73q38 0 70 -14t69 -47l57 -55q42 -39 68 -39q38 0 56 37q19 37 20 118h125q-2 -136 -53 -209t-142 -73q-38 0 -70 14t-69 47zM150 1120h154v-511q10 -159 67 -238.5t181 -79.5
q75 0 132.5 24.5t98 70.5t63.5 111.5t28 147.5l20 475h204l-20 -1120h-184l10 172q-67 -103 -155 -152t-206 -49q-194 0 -293.5 119.5t-99.5 351.5v678z" />
    <glyph glyph-name="wacute" unicode="&#x1e83;" horiz-adv-x="1803" 
d="M990 1628h-170l312 418h221zM690 0h-247l-293 1120h184l230 -784l209 414h257l210 -414l229 784h184l-293 -1120h-257l-201 508z" />
    <glyph glyph-name="wcircumflex" unicode="&#x175;" horiz-adv-x="1803" 
d="M722 1227h-139l245 376h148l245 -376h-139l-180 245zM690 0h-247l-293 1120h184l230 -784l209 414h257l210 -414l229 784h184l-293 -1120h-257l-201 508z" />
    <glyph glyph-name="wdieresis" unicode="&#x1e85;" horiz-adv-x="1803" 
d="M801 1350h-218v217h218v-217zM1220 1350h-218v217h218v-217zM690 0h-247l-293 1120h184l230 -784l209 414h257l210 -414l229 784h184l-293 -1120h-257l-201 508z" />
    <glyph glyph-name="wgrave" unicode="&#x1e81;" horiz-adv-x="1803" 
d="M778 1649l-206 374h197l282 -374h-273zM690 0h-247l-293 1120h184l230 -784l209 414h257l210 -414l229 784h184l-293 -1120h-257l-201 508z" />
    <glyph glyph-name="ycircumflex" unicode="&#x177;" horiz-adv-x="1390" 
d="M427 1227h-139l245 376h148l245 -376h-139l-180 245zM1045 1120h195l-472 -1224q-49 -110 -93 -177t-89.5 -104t-95.5 -49t-112 -12h-167v244h128q38 0 66 9.5t52 27t45.5 42.5t47.5 57l79 159l-479 1027h195l396 -651z" />
    <glyph glyph-name="ydotbelow" unicode="&#x1ef5;" horiz-adv-x="1390" 
d="M1045 1120h195l-472 -1224q-49 -110 -93 -177t-89.5 -104t-95.5 -49t-112 -12h-167v244h128q38 0 66 9.5t52 27t45.5 42.5t47.5 57l79 159l-479 1027h195l396 -651zM981 -409h-205v221h205v-221z" />
    <glyph glyph-name="ygrave" unicode="&#x1ef3;" horiz-adv-x="1390" 
d="M483 1649l-206 374h197l282 -374h-273zM1045 1120h195l-472 -1224q-49 -110 -93 -177t-89.5 -104t-95.5 -49t-112 -12h-167v244h128q38 0 66 9.5t52 27t45.5 42.5t47.5 57l79 159l-479 1027h195l396 -651z" />
    <glyph glyph-name="yhookabove" unicode="&#x1ef7;" horiz-adv-x="1390" 
d="M606 1297q54 25 106 25q50 0 82 -21q31 -22 31 -53t-43 -62l-22 -15q-17 -14 -19 -17q-3 -9 -3 -24h-58v6q0 20 7 33q7 12 32 31l22 17q23 17 23 36q0 10 -15 19t-50 9q-43 0 -93 -26v42zM1045 1120h195l-472 -1224q-49 -110 -93 -177t-89.5 -104t-95.5 -49t-112 -12
h-167v244h128q38 0 66 9.5t52 27t45.5 42.5t47.5 57l79 159l-479 1027h195l396 -651z" />
    <glyph glyph-name="ytilde" unicode="&#x1ef9;" horiz-adv-x="1390" 
d="M546 1726q-42 39 -68 39q-38 0 -56 -36q-19 -39 -20 -119h-125q2 136 53 209t142 73q38 0 70 -14t69 -47l57 -55q42 -39 68 -39q38 0 56 37q19 37 20 118h125q-2 -136 -53 -209t-142 -73q-38 0 -70 14t-69 47zM1045 1120h195l-472 -1224q-49 -110 -93 -177t-89.5 -104
t-95.5 -49t-112 -12h-167v244h128q38 0 66 9.5t52 27t45.5 42.5t47.5 57l79 159l-479 1027h195l396 -651z" />
    <glyph glyph-name="zacute" unicode="&#x17a;" horiz-adv-x="1209" 
d="M739 1628h-170l312 418h221zM862 983h-667v137h864v-168l-632 -705h622v-247h-899v268z" />
    <glyph glyph-name="zdotaccent" unicode="&#x17c;" horiz-adv-x="1209" 
d="M753 1348h-204v204h204v-204zM862 983h-667v137h864v-168l-632 -705h622v-247h-899v268z" />
    <glyph glyph-name="zdotbelow" unicode="&#x1e93;" horiz-adv-x="1209" 
d="M862 983h-667v137h864v-168l-632 -705h622v-247h-899v268zM691 -299h-205v221h205v-221z" />
    <glyph glyph-name="y.001" horiz-adv-x="1390" 
d="M646 -52q-141 0 -233.5 41.5t-148.5 117.5t-82.5 182.5t-35.5 236.5t-7.5 280.5t1.5 313.5h195q7 -124 6.5 -227.5t-2.5 -189.5t-2.5 -154t8.5 -120t30 -89.5t60.5 -61t102 -34.5t154.5 -11q55 0 95 53.5t70 163t53.5 276.5t44.5 394h262q-52 -285 -93 -539.5t-87 -470.5
t-104 -388t-143 -293t-205 -185.5t-290 -64.5h-167v318q126 0 238.5 17.5t199.5 66.5t141.5 137.5t65.5 229.5h-127z" />
    <glyph glyph-name="softhyphen" unicode="&#xad;" horiz-adv-x="846" 
d="M689 488l-539 -9l7 164l539 10z" />
    <glyph glyph-name="Euro" unicode="&#x20ac;" horiz-adv-x="1467" 
d="M1317 1215q-45 52 -88.5 89.5t-87 60.5t-89.5 34t-97 11q-78 0 -143 -33.5t-114.5 -92t-83.5 -138.5t-50 -173h577l-55 -123h-538q-2 -24 -2.5 -47t-0.5 -58q0 -32 0.5 -55t2.5 -47h446l-56 -163h-364q4 -19 18.5 -45.5t38.5 -55.5t56.5 -57t72 -50.5t86.5 -36.5t99 -14
q51 0 96.5 11t90 34t89.5 60t96 90v-301q-179 -144 -370 -144q-119 0 -218 38.5t-173.5 106.5t-122 161t-62.5 203h-221l55 163h139v47q-1 11 -1 25v30v32t1 27v46h-194l55 123h156q20 129 69.5 230.5t125 172t174.5 107.5t217 37q197 0 370 -142v-163z" />
    <glyph glyph-name="circumflexbelowcomb" unicode="&#x32d;" horiz-adv-x="0" 
d="M123 -451h-139l245 376h148l245 -376h-139l-180 245z" />
    <glyph glyph-name="commaaccentcomb" unicode="&#x326;" horiz-adv-x="0" 
d="M150 -288l102 320v212h251v-212l-224 -320h-129z" />
    <glyph glyph-name="dotbelowcomb" unicode="&#x323;" horiz-adv-x="0" 
d="M391 1h-205v221h205v-221z" />
    <glyph glyph-name="hookabovecomb" unicode="&#x309;" horiz-adv-x="0" 
d="M200 1185q54 25 106 25q50 0 82 -21q31 -22 31 -53t-43 -62l-22 -15q-17 -14 -19 -17q-3 -9 -3 -24h-58v6q0 20 7 33q7 12 32 31l22 17q23 17 23 36q0 10 -15 19t-50 9q-43 0 -93 -26v42z" />
    <glyph glyph-name="horncomb" unicode="&#x31b;" horiz-adv-x="0" 
d="M135 986q18 11 31.5 18t24.5 12.5t20 11t18 13.5q17 15 25.5 38.5t12 48.5t3.5 47.5v35.5q0 31 -15 61l99 -12q10 -36 10 -67q0 -30 -4.5 -62t-14 -63t-25.5 -59t-40 -48q-17 -14 -27.5 -23.5t-20 -17t-21 -14t-30.5 -15.5z" />
    <glyph glyph-name="macronbelowcomb" unicode="&#x331;" horiz-adv-x="0" 
d="M568 -256l-539 -9l7 164l539 10z" />
    </font>
</defs>
</svg>
