<?xml version="1.0" encoding="utf-8"?>
<!-- Generator: Adobe Illustrator 24.3.2, SVG Export Plug-In . SVG Version: 6.00 Build 0)  -->
<svg version="1.1" id="Layer_1" xmlns="http://www.w3.org/2000/svg" xmlns:xlink="http://www.w3.org/1999/xlink" x="0px" y="0px"
	 viewBox="0 0 922.5 45.7" style="enable-background:new 0 0 922.5 45.7;" xml:space="preserve">
<style type="text/css">
	.st0{fill:#EEF8FB;}
	.st1{fill:#3B3A48;}
	.st2{fill:#FDB71B;}
	.st3{fill:#233E82;}
</style>
<rect x="-0.6" y="0.4" class="st0" width="924" height="45.4"/>
<path class="st1" d="M95.6,28.5c-0.9,0-1.7-0.2-2.3-0.6c-0.7-0.4-1.2-1-1.5-1.8c-0.4-0.8-0.5-1.7-0.5-2.8c0-1.1,0.2-2,0.5-2.8
	c0.4-0.8,0.9-1.4,1.5-1.8c0.7-0.4,1.4-0.6,2.3-0.6c0.9,0,1.7,0.2,2.3,0.6c0.7,0.4,1.2,1,1.5,1.8c0.4,0.8,0.5,1.7,0.5,2.8
	c0,1.1-0.2,2-0.5,2.8c-0.3,0.8-0.9,1.4-1.5,1.8C97.3,28.3,96.5,28.5,95.6,28.5z M95.6,27.4c0.6,0,1.2-0.1,1.6-0.4s0.8-0.7,1-1.3
	c0.2-0.6,0.3-1.4,0.3-2.3c0-0.9-0.1-1.7-0.3-2.3c-0.2-0.6-0.6-1.1-1-1.3c-0.4-0.3-1-0.4-1.6-0.4c-0.6,0-1.1,0.1-1.6,0.4
	c-0.4,0.3-0.8,0.7-1,1.4c-0.2,0.6-0.4,1.4-0.4,2.3c0,0.9,0.1,1.7,0.4,2.3s0.6,1,1,1.3C94.4,27.2,95,27.4,95.6,27.4z M105.9,21.1v0.9
	h-1.8v6.3h-1.3v-6.3h-1.5v-0.9h1.5V20c0-0.6,0.1-1,0.4-1.3c0.3-0.3,0.7-0.5,1.3-0.5h1.4l0,0.9h-1.1c-0.3,0-0.5,0.1-0.6,0.2
	c-0.1,0.2-0.2,0.4-0.2,0.7v1H105.9z M111.5,21.1v0.9h-1.8v6.3h-1.3v-6.3h-1.5v-0.9h1.5V20c0-0.6,0.1-1,0.4-1.3
	c0.3-0.3,0.7-0.5,1.3-0.5h1.4l0,0.9h-1.1c-0.3,0-0.5,0.1-0.6,0.2c-0.1,0.2-0.2,0.4-0.2,0.7v1H111.5z M114.5,21.1v7.2h-1.3v-7.2
	H114.5z M114.5,18.2v1.3h-1.3v-1.3H114.5z M119.7,21c0.5,0,1,0.1,1.4,0.3c0.4,0.2,0.8,0.5,1,0.8c0.3,0.4,0.4,0.8,0.5,1.3h-1.1
	c0-0.3-0.1-0.5-0.3-0.7c-0.1-0.2-0.3-0.4-0.6-0.5c-0.2-0.1-0.5-0.2-0.9-0.2c-0.6,0-1.1,0.2-1.5,0.7c-0.4,0.4-0.6,1.1-0.6,2.1
	c0,0.8,0.2,1.5,0.5,2c0.4,0.5,0.9,0.7,1.6,0.7c0.3,0,0.6-0.1,0.9-0.2c0.2-0.1,0.4-0.3,0.6-0.5c0.1-0.2,0.2-0.4,0.3-0.7h1.1
	c-0.1,0.5-0.2,0.9-0.5,1.3s-0.6,0.6-1,0.8c-0.4,0.2-0.9,0.3-1.4,0.3c-0.6,0-1.2-0.1-1.7-0.4c-0.5-0.3-0.9-0.7-1.2-1.3
	c-0.3-0.6-0.4-1.2-0.4-2c0-0.8,0.1-1.4,0.4-2c0.3-0.6,0.6-1,1.1-1.3C118.4,21.1,119,21,119.7,21z M125.7,21.1v7.2h-1.3v-7.2H125.7z
	 M125.8,18.2v1.3h-1.3v-1.3H125.8z M130,28.5c-0.5,0-0.9-0.1-1.2-0.2c-0.4-0.2-0.6-0.4-0.8-0.7c-0.2-0.3-0.3-0.7-0.3-1.1
	c0-0.8,0.3-1.4,0.8-1.8c0.6-0.4,1.5-0.6,2.7-0.6l1.3,0v-0.6c0-0.4-0.1-0.8-0.4-1.1c-0.3-0.3-0.7-0.4-1.2-0.4c-0.4,0-0.8,0.1-1.1,0.3
	c-0.3,0.2-0.5,0.5-0.6,0.9H128c0-0.5,0.2-0.9,0.4-1.2c0.2-0.3,0.6-0.6,1-0.7c0.4-0.2,0.9-0.3,1.5-0.3c0.6,0,1.2,0.1,1.6,0.3
	c0.4,0.2,0.7,0.4,0.9,0.8c0.2,0.3,0.3,0.8,0.3,1.3v5.1h-1.1l-0.1-1.4c-0.3,0.6-0.6,1-1.1,1.2C131,28.4,130.5,28.5,130,28.5z
	 M130.4,27.6c0.2,0,0.5,0,0.7-0.1c0.2-0.1,0.5-0.2,0.7-0.4c0.2-0.2,0.4-0.3,0.5-0.5c0.1-0.2,0.2-0.4,0.2-0.6v-1.2l-1.1,0
	c-0.6,0-1,0.1-1.4,0.2c-0.4,0.1-0.6,0.3-0.8,0.5c-0.2,0.2-0.3,0.5-0.3,0.9c0,0.4,0.1,0.7,0.4,1C129.6,27.5,130,27.6,130.4,27.6z
	 M137.7,28.5c-0.4,0-0.7-0.1-1-0.2c-0.2-0.1-0.4-0.3-0.6-0.4c-0.1-0.2-0.2-0.4-0.3-0.6c0-0.2-0.1-0.5-0.1-0.7V18h1.3v8.4
	c0,0.4,0.1,0.6,0.2,0.8c0.1,0.2,0.3,0.3,0.6,0.3l0.4,0v0.8c-0.1,0-0.2,0.1-0.3,0.1C137.9,28.4,137.8,28.5,137.7,28.5z M152.7,21.1
	l-2.2,7.2h-1.3l-1.7-5.3l-1.6,5.3h-1.3l-2.2-7.2h1.2l1.7,5.6h0.1l1.6-5.6h1l1.7,5.6h0.1l1.6-5.6H152.7z M154.9,25
	c0,0.5,0.1,0.9,0.2,1.2c0.2,0.4,0.4,0.7,0.7,0.9c0.3,0.2,0.7,0.3,1.2,0.3c0.5,0,0.9-0.1,1.2-0.3c0.3-0.2,0.6-0.5,0.6-0.9h1.2
	c-0.1,0.5-0.3,0.9-0.6,1.2c-0.3,0.3-0.7,0.6-1.1,0.8c-0.4,0.2-0.9,0.3-1.3,0.3c-0.7,0-1.3-0.1-1.8-0.4c-0.5-0.3-0.9-0.7-1.2-1.3
	c-0.3-0.6-0.4-1.2-0.4-2c0-0.8,0.1-1.4,0.4-2c0.3-0.6,0.6-1,1.1-1.3c0.5-0.3,1.1-0.5,1.8-0.5c0.7,0,1.3,0.1,1.7,0.4
	c0.5,0.3,0.8,0.7,1.1,1.2c0.2,0.5,0.4,1.2,0.4,1.9V25H154.9z M154.9,24.2h3.9c0-0.4-0.1-0.8-0.2-1.1c-0.1-0.3-0.4-0.6-0.6-0.8
	c-0.3-0.2-0.6-0.3-1.1-0.3c-0.5,0-0.8,0.1-1.1,0.3c-0.3,0.2-0.5,0.5-0.7,0.8C154.9,23.5,154.9,23.8,154.9,24.2z M165.4,28.5
	c-0.4,0-0.8-0.1-1.1-0.2c-0.3-0.1-0.5-0.3-0.7-0.4c-0.2-0.2-0.3-0.4-0.4-0.5c-0.1-0.2-0.2-0.4-0.2-0.5l-0.1,1.5h-1V18h1.3v4.3
	c0.1-0.1,0.2-0.3,0.3-0.4c0.1-0.1,0.3-0.3,0.5-0.4c0.2-0.1,0.4-0.2,0.7-0.3c0.3-0.1,0.6-0.1,0.9-0.1c0.9,0,1.6,0.3,2.2,0.9
	c0.5,0.6,0.8,1.6,0.8,2.8c0,0.8-0.1,1.4-0.3,2c-0.2,0.6-0.6,1-1,1.3C166.7,28.3,166.1,28.5,165.4,28.5z M165.2,27.5
	c0.6,0,1.1-0.2,1.4-0.7c0.4-0.5,0.6-1.2,0.6-2.2c0-0.8-0.2-1.5-0.5-2c-0.3-0.5-0.8-0.7-1.5-0.7c-0.5,0-0.9,0.1-1.2,0.3
	c-0.3,0.2-0.5,0.5-0.6,0.9c-0.1,0.4-0.2,0.9-0.2,1.4c0,1,0.2,1.7,0.5,2.2C163.9,27.3,164.5,27.5,165.2,27.5z M172.7,28.5
	c-0.5,0-1-0.1-1.4-0.2c-0.4-0.2-0.8-0.4-1.1-0.7c-0.3-0.3-0.5-0.8-0.5-1.3h1.2c0.1,0.3,0.2,0.5,0.4,0.7c0.2,0.2,0.4,0.3,0.6,0.4
	c0.3,0.1,0.5,0.1,0.8,0.1c0.5,0,0.9-0.1,1.2-0.3c0.3-0.2,0.4-0.5,0.4-0.8c0-0.3-0.1-0.5-0.2-0.6c-0.2-0.2-0.4-0.3-0.7-0.4l-1.5-0.4
	c-0.6-0.1-1.1-0.4-1.4-0.7c-0.3-0.3-0.5-0.7-0.5-1.3c0-0.4,0.1-0.8,0.3-1.1c0.2-0.3,0.5-0.6,0.9-0.8c0.4-0.2,0.9-0.3,1.5-0.3
	c0.8,0,1.4,0.2,1.9,0.5c0.5,0.4,0.7,0.9,0.8,1.5h-1.1c0-0.3-0.2-0.6-0.5-0.8c-0.3-0.2-0.6-0.3-1.1-0.3c-0.5,0-0.8,0.1-1.1,0.3
	c-0.3,0.2-0.4,0.5-0.4,0.9c0,0.3,0.1,0.5,0.3,0.6c0.2,0.1,0.5,0.3,0.9,0.4l1.4,0.4c0.3,0.1,0.6,0.2,0.8,0.4c0.2,0.1,0.4,0.3,0.5,0.5
	c0.1,0.2,0.2,0.4,0.3,0.6c0.1,0.2,0.1,0.4,0.1,0.6c0,0.4-0.1,0.8-0.3,1.1c-0.2,0.3-0.5,0.6-1,0.7C173.8,28.4,173.3,28.5,172.7,28.5z
	 M178.7,21.1v7.2h-1.3v-7.2H178.7z M178.7,18.2v1.3h-1.3v-1.3H178.7z M184.7,22.1h-1.6v4.5c0,0.3,0,0.4,0.1,0.6
	c0.1,0.1,0.1,0.2,0.3,0.2c0.1,0,0.3,0,0.5,0h0.8v0.9c-0.1,0-0.2,0.1-0.4,0.1c-0.2,0-0.4,0-0.7,0c-0.5,0-0.9-0.1-1.2-0.2
	c-0.3-0.1-0.5-0.3-0.6-0.6c-0.1-0.3-0.2-0.6-0.2-1v-4.5h-1.2v-0.9h1.2l0.3-2.1h1v2.1h1.6V22.1z M187.3,25c0,0.5,0.1,0.9,0.2,1.2
	c0.2,0.4,0.4,0.7,0.7,0.9c0.3,0.2,0.7,0.3,1.2,0.3c0.5,0,0.9-0.1,1.2-0.3c0.3-0.2,0.6-0.5,0.6-0.9h1.2c-0.1,0.5-0.3,0.9-0.6,1.2
	c-0.3,0.3-0.7,0.6-1.1,0.8c-0.4,0.2-0.9,0.3-1.3,0.3c-0.7,0-1.3-0.1-1.8-0.4c-0.5-0.3-0.9-0.7-1.2-1.3c-0.3-0.6-0.4-1.2-0.4-2
	c0-0.8,0.1-1.4,0.4-2c0.3-0.6,0.6-1,1.1-1.3c0.5-0.3,1.1-0.5,1.8-0.5c0.7,0,1.3,0.1,1.7,0.4c0.5,0.3,0.8,0.7,1.1,1.2
	c0.2,0.5,0.4,1.2,0.4,1.9V25H187.3z M187.3,24.2h3.9c0-0.4-0.1-0.8-0.2-1.1c-0.1-0.3-0.4-0.6-0.6-0.8c-0.3-0.2-0.6-0.3-1.1-0.3
	c-0.5,0-0.8,0.1-1.1,0.3c-0.3,0.2-0.5,0.5-0.7,0.8C187.4,23.5,187.3,23.8,187.3,24.2z M200.1,28.5c-0.7,0-1.3-0.1-1.8-0.4
	c-0.5-0.3-0.9-0.7-1.2-1.3c-0.3-0.6-0.4-1.2-0.4-2c0-0.8,0.1-1.4,0.4-2c0.3-0.6,0.6-1,1.1-1.3c0.5-0.3,1.1-0.5,1.8-0.5
	c0.7,0,1.2,0.1,1.7,0.4c0.5,0.3,0.9,0.7,1.1,1.3c0.3,0.6,0.4,1.3,0.4,2.1c0,0.7-0.1,1.4-0.4,1.9c-0.2,0.6-0.6,1-1.1,1.3
	C201.5,28.3,200.9,28.5,200.1,28.5z M200.1,27.5c0.4,0,0.8-0.1,1.1-0.3c0.3-0.2,0.5-0.5,0.7-0.9c0.2-0.4,0.2-0.9,0.2-1.5
	c0-0.5-0.1-1-0.2-1.4c-0.1-0.4-0.4-0.7-0.7-1c-0.3-0.2-0.7-0.4-1.2-0.4c-0.4,0-0.8,0.1-1.1,0.3c-0.3,0.2-0.5,0.5-0.7,0.9
	c-0.2,0.4-0.2,0.9-0.2,1.5c0,0.5,0.1,1,0.2,1.4s0.4,0.7,0.7,1C199.3,27.4,199.7,27.5,200.1,27.5z M208.9,21.1v0.9h-1.8v6.3h-1.3
	v-6.3h-1.5v-0.9h1.5V20c0-0.6,0.1-1,0.4-1.3c0.3-0.3,0.7-0.5,1.3-0.5h1.4l0,0.9h-1.1c-0.3,0-0.5,0.1-0.6,0.2
	c-0.1,0.2-0.2,0.4-0.2,0.7v1H208.9z M217.4,22.1h-1.6v4.5c0,0.3,0,0.4,0.1,0.6c0.1,0.1,0.1,0.2,0.3,0.2c0.1,0,0.3,0,0.5,0h0.8v0.9
	c-0.1,0-0.2,0.1-0.4,0.1c-0.2,0-0.4,0-0.7,0c-0.5,0-0.9-0.1-1.2-0.2c-0.3-0.1-0.5-0.3-0.6-0.6c-0.1-0.3-0.2-0.6-0.2-1v-4.5h-1.2
	v-0.9h1.2l0.3-2.1h1v2.1h1.6V22.1z M219.3,28.4V18h1.3v4.2c0.1-0.2,0.3-0.4,0.5-0.6c0.2-0.2,0.5-0.3,0.7-0.4c0.3-0.1,0.6-0.2,1-0.2
	c0.5,0,0.9,0.1,1.3,0.3c0.4,0.2,0.7,0.4,0.9,0.7c0.2,0.3,0.3,0.7,0.3,1.1v5.2h-1.3v-4.9c0-0.4-0.1-0.8-0.4-1
	c-0.3-0.2-0.7-0.4-1.2-0.4c-0.3,0-0.6,0.1-0.9,0.2c-0.3,0.1-0.5,0.3-0.7,0.5c-0.2,0.2-0.3,0.5-0.3,0.8v4.8H219.3z M228.3,25
	c0,0.5,0.1,0.9,0.2,1.2c0.2,0.4,0.4,0.7,0.7,0.9c0.3,0.2,0.7,0.3,1.2,0.3c0.5,0,0.9-0.1,1.2-0.3c0.3-0.2,0.6-0.5,0.6-0.9h1.2
	c-0.1,0.5-0.3,0.9-0.6,1.2c-0.3,0.3-0.7,0.6-1.1,0.8c-0.4,0.2-0.9,0.3-1.3,0.3c-0.7,0-1.3-0.1-1.8-0.4c-0.5-0.3-0.9-0.7-1.2-1.3
	c-0.3-0.6-0.4-1.2-0.4-2c0-0.8,0.1-1.4,0.4-2c0.3-0.6,0.6-1,1.1-1.3c0.5-0.3,1.1-0.5,1.8-0.5c0.7,0,1.3,0.1,1.7,0.4
	c0.5,0.3,0.8,0.7,1.1,1.2c0.2,0.5,0.4,1.2,0.4,1.9V25H228.3z M228.3,24.2h3.9c0-0.4-0.1-0.8-0.2-1.1c-0.1-0.3-0.4-0.6-0.6-0.8
	c-0.3-0.2-0.6-0.3-1.1-0.3c-0.5,0-0.8,0.1-1.1,0.3c-0.3,0.2-0.5,0.5-0.7,0.8C228.4,23.5,228.3,23.8,228.3,24.2z M242.1,28.5
	c-0.5,0-0.9-0.1-1.4-0.2c-0.4-0.1-0.9-0.3-1.2-0.5c-0.4-0.2-0.7-0.5-0.9-0.9c-0.2-0.4-0.4-0.8-0.4-1.2h1.4c0.1,0.4,0.2,0.7,0.5,1
	c0.3,0.3,0.6,0.5,0.9,0.6c0.4,0.1,0.8,0.2,1.2,0.2c0.5,0,0.9-0.1,1.3-0.2c0.4-0.1,0.7-0.3,0.9-0.6c0.2-0.2,0.3-0.5,0.3-0.9
	c0-0.3-0.1-0.6-0.2-0.8c-0.1-0.2-0.3-0.4-0.6-0.6c-0.3-0.1-0.6-0.3-1-0.4l-2-0.5c-0.7-0.2-1.3-0.5-1.8-0.9c-0.4-0.4-0.6-1-0.6-1.7
	c0-0.6,0.2-1.1,0.5-1.5c0.3-0.4,0.7-0.8,1.3-1c0.5-0.2,1.2-0.4,1.9-0.4c0.8,0,1.5,0.1,2,0.4c0.6,0.3,1,0.6,1.2,1.1s0.4,0.9,0.4,1.4
	h-1.3c0-0.5-0.2-0.8-0.4-1.1c-0.2-0.3-0.5-0.5-0.8-0.6c-0.3-0.1-0.7-0.2-1.1-0.2c-0.3,0-0.6,0-0.8,0.1c-0.3,0.1-0.5,0.2-0.7,0.3
	c-0.2,0.1-0.4,0.3-0.5,0.5c-0.1,0.2-0.2,0.5-0.2,0.7c0,0.4,0.1,0.7,0.4,0.9c0.3,0.2,0.7,0.4,1.4,0.6l1.9,0.5
	c0.5,0.1,0.9,0.3,1.2,0.5c0.3,0.2,0.6,0.4,0.7,0.7c0.2,0.3,0.3,0.5,0.4,0.8c0.1,0.3,0.1,0.6,0.1,0.9c0,0.5-0.2,1-0.5,1.4
	c-0.3,0.4-0.7,0.7-1.3,1C243.6,28.4,242.9,28.5,242.1,28.5z M251.3,22.1h-1.6v4.5c0,0.3,0,0.4,0.1,0.6c0.1,0.1,0.1,0.2,0.3,0.2
	c0.1,0,0.3,0,0.5,0h0.8v0.9c-0.1,0-0.2,0.1-0.4,0.1c-0.2,0-0.4,0-0.7,0c-0.5,0-0.9-0.1-1.2-0.2c-0.3-0.1-0.5-0.3-0.6-0.6
	c-0.1-0.3-0.2-0.6-0.2-1v-4.5h-1.2v-0.9h1.2l0.3-2.1h1v2.1h1.6V22.1z M255.1,28.5c-0.5,0-0.9-0.1-1.2-0.2c-0.4-0.2-0.6-0.4-0.8-0.7
	c-0.2-0.3-0.3-0.7-0.3-1.1c0-0.8,0.3-1.4,0.8-1.8c0.6-0.4,1.5-0.6,2.7-0.6l1.3,0v-0.6c0-0.4-0.1-0.8-0.4-1.1
	c-0.3-0.3-0.7-0.4-1.2-0.4c-0.4,0-0.8,0.1-1.1,0.3c-0.3,0.2-0.5,0.5-0.6,0.9h-1.1c0-0.5,0.2-0.9,0.4-1.2c0.2-0.3,0.6-0.6,1-0.7
	c0.4-0.2,0.9-0.3,1.5-0.3c0.6,0,1.2,0.1,1.6,0.3c0.4,0.2,0.7,0.4,0.9,0.8c0.2,0.3,0.3,0.8,0.3,1.3v5.1h-1.1l-0.1-1.4
	c-0.3,0.6-0.6,1-1.1,1.2C256.1,28.4,255.7,28.5,255.1,28.5z M255.5,27.6c0.2,0,0.5,0,0.7-0.1c0.2-0.1,0.5-0.2,0.7-0.4
	c0.2-0.2,0.4-0.3,0.5-0.5c0.1-0.2,0.2-0.4,0.2-0.6v-1.2l-1.1,0c-0.6,0-1,0.1-1.4,0.2c-0.4,0.1-0.6,0.3-0.8,0.5
	c-0.2,0.2-0.3,0.5-0.3,0.9c0,0.4,0.1,0.7,0.4,1C254.7,27.5,255.1,27.6,255.5,27.6z M264.4,22.1h-1.6v4.5c0,0.3,0,0.4,0.1,0.6
	c0.1,0.1,0.1,0.2,0.3,0.2c0.1,0,0.3,0,0.5,0h0.8v0.9c-0.1,0-0.2,0.1-0.4,0.1c-0.2,0-0.4,0-0.7,0c-0.5,0-0.9-0.1-1.2-0.2
	c-0.3-0.1-0.5-0.3-0.6-0.6c-0.1-0.3-0.2-0.6-0.2-1v-4.5h-1.2v-0.9h1.2l0.3-2.1h1v2.1h1.6V22.1z M267,25c0,0.5,0.1,0.9,0.2,1.2
	c0.2,0.4,0.4,0.7,0.7,0.9c0.3,0.2,0.7,0.3,1.2,0.3c0.5,0,0.9-0.1,1.2-0.3c0.3-0.2,0.5-0.5,0.6-0.9h1.2c-0.1,0.5-0.3,0.9-0.6,1.2
	c-0.3,0.3-0.7,0.6-1.1,0.8c-0.4,0.2-0.9,0.3-1.3,0.3c-0.7,0-1.3-0.1-1.8-0.4c-0.5-0.3-0.9-0.7-1.2-1.3c-0.3-0.6-0.4-1.2-0.4-2
	c0-0.8,0.1-1.4,0.4-2c0.3-0.6,0.6-1,1.1-1.3c0.5-0.3,1.1-0.5,1.8-0.5c0.7,0,1.3,0.1,1.7,0.4c0.5,0.3,0.8,0.7,1.1,1.2
	c0.2,0.5,0.4,1.2,0.4,1.9V25H267z M267,24.2h3.9c0-0.4-0.1-0.8-0.2-1.1c-0.1-0.3-0.4-0.6-0.6-0.8c-0.3-0.2-0.6-0.3-1.1-0.3
	c-0.5,0-0.8,0.1-1.1,0.3c-0.3,0.2-0.5,0.5-0.7,0.8C267,23.5,267,23.8,267,24.2z M279.8,28.5c-0.7,0-1.2-0.1-1.8-0.4
	c-0.5-0.3-0.9-0.7-1.2-1.3c-0.3-0.6-0.4-1.2-0.4-2c0-0.8,0.1-1.4,0.4-2c0.3-0.6,0.6-1,1.1-1.3c0.5-0.3,1.1-0.5,1.8-0.5
	c0.7,0,1.2,0.1,1.7,0.4c0.5,0.3,0.9,0.7,1.1,1.3c0.3,0.6,0.4,1.3,0.4,2.1c0,0.7-0.1,1.4-0.4,1.9c-0.2,0.6-0.6,1-1.1,1.3
	C281.1,28.3,280.5,28.5,279.8,28.5z M279.8,27.5c0.4,0,0.8-0.1,1.1-0.3c0.3-0.2,0.5-0.5,0.7-0.9s0.2-0.9,0.2-1.5
	c0-0.5-0.1-1-0.2-1.4c-0.1-0.4-0.4-0.7-0.7-1c-0.3-0.2-0.7-0.4-1.2-0.4c-0.4,0-0.8,0.1-1.1,0.3c-0.3,0.2-0.5,0.5-0.7,0.9
	c-0.2,0.4-0.2,0.9-0.2,1.5c0,0.5,0.1,1,0.2,1.4c0.1,0.4,0.4,0.7,0.7,1C278.9,27.4,279.3,27.5,279.8,27.5z M288.6,21.1v0.9h-1.8v6.3
	h-1.3v-6.3H284v-0.9h1.5V20c0-0.6,0.1-1,0.4-1.3c0.3-0.3,0.7-0.5,1.3-0.5h1.4l0,0.9h-1.1c-0.3,0-0.5,0.1-0.6,0.2
	c-0.1,0.2-0.2,0.4-0.2,0.7v1H288.6z M297.4,18.1c0.7,0,1.3,0.1,1.9,0.4c0.5,0.3,1,0.7,1.3,1.2c0.3,0.5,0.5,1,0.6,1.6h-1.4
	c-0.1-0.4-0.2-0.8-0.4-1.1c-0.2-0.3-0.5-0.6-0.8-0.8c-0.3-0.2-0.7-0.3-1.2-0.3c-0.6,0-1.1,0.1-1.6,0.4c-0.4,0.3-0.7,0.7-1,1.3
	c-0.2,0.6-0.3,1.4-0.3,2.3c0,1.4,0.2,2.4,0.7,3.1c0.5,0.7,1.2,1,2.1,1c0.5,0,0.9-0.1,1.2-0.3c0.3-0.2,0.6-0.5,0.8-0.8
	s0.4-0.7,0.4-1.1h1.4c-0.1,0.4-0.2,0.8-0.4,1.2c-0.2,0.4-0.4,0.8-0.7,1.1c-0.3,0.3-0.7,0.6-1.2,0.7c-0.5,0.2-1,0.3-1.6,0.3
	c-0.9,0-1.7-0.2-2.3-0.6c-0.6-0.4-1.1-1-1.5-1.8c-0.3-0.8-0.5-1.7-0.5-2.8c0-1.1,0.2-2,0.5-2.8c0.3-0.8,0.8-1.4,1.5-1.8
	C295.7,18.3,296.5,18.1,297.4,18.1z M304.9,28.5c-0.5,0-0.9-0.1-1.2-0.2c-0.4-0.2-0.6-0.4-0.8-0.7c-0.2-0.3-0.3-0.7-0.3-1.1
	c0-0.8,0.3-1.4,0.8-1.8c0.6-0.4,1.5-0.6,2.7-0.6l1.3,0v-0.6c0-0.4-0.1-0.8-0.4-1.1c-0.3-0.3-0.7-0.4-1.2-0.4c-0.4,0-0.8,0.1-1.1,0.3
	c-0.3,0.2-0.5,0.5-0.6,0.9h-1.1c0-0.5,0.2-0.9,0.4-1.2c0.2-0.3,0.6-0.6,1-0.7c0.4-0.2,0.9-0.3,1.5-0.3c0.6,0,1.2,0.1,1.6,0.3
	c0.4,0.2,0.7,0.4,0.9,0.8c0.2,0.3,0.3,0.8,0.3,1.3v5.1h-1.1l-0.1-1.4c-0.3,0.6-0.6,1-1.1,1.2C305.9,28.4,305.5,28.5,304.9,28.5z
	 M305.3,27.6c0.2,0,0.5,0,0.7-0.1c0.2-0.1,0.5-0.2,0.7-0.4c0.2-0.2,0.4-0.3,0.5-0.5c0.1-0.2,0.2-0.4,0.2-0.6v-1.2l-1.1,0
	c-0.6,0-1,0.1-1.4,0.2c-0.4,0.1-0.6,0.3-0.8,0.5c-0.2,0.2-0.3,0.5-0.3,0.9c0,0.4,0.1,0.7,0.4,1C304.5,27.5,304.9,27.6,305.3,27.6z
	 M312.7,28.5c-0.4,0-0.7-0.1-1-0.2c-0.2-0.1-0.4-0.3-0.6-0.4c-0.1-0.2-0.2-0.4-0.3-0.6c0-0.2-0.1-0.5-0.1-0.7V18h1.3v8.4
	c0,0.4,0.1,0.6,0.2,0.8c0.1,0.2,0.3,0.3,0.6,0.3l0.4,0v0.8c-0.1,0-0.2,0.1-0.3,0.1C312.9,28.4,312.8,28.5,312.7,28.5z M316.4,21.1
	v7.2h-1.3v-7.2H316.4z M316.4,18.2v1.3h-1.3v-1.3H316.4z M322.7,21.1v0.9H321v6.3h-1.3v-6.3h-1.5v-0.9h1.5V20c0-0.6,0.1-1,0.4-1.3
	c0.3-0.3,0.7-0.5,1.3-0.5h1.4l0,0.9h-1.1c-0.3,0-0.5,0.1-0.6,0.2c-0.1,0.2-0.2,0.4-0.2,0.7v1H322.7z M327.1,28.5
	c-0.7,0-1.3-0.1-1.8-0.4c-0.5-0.3-0.9-0.7-1.2-1.3c-0.3-0.6-0.4-1.2-0.4-2c0-0.8,0.1-1.4,0.4-2c0.3-0.6,0.6-1,1.1-1.3
	c0.5-0.3,1.1-0.5,1.8-0.5c0.7,0,1.2,0.1,1.7,0.4c0.5,0.3,0.9,0.7,1.1,1.3c0.3,0.6,0.4,1.3,0.4,2.1c0,0.7-0.1,1.4-0.4,1.9
	c-0.2,0.6-0.6,1-1.1,1.3C328.5,28.3,327.9,28.5,327.1,28.5z M327.1,27.5c0.4,0,0.8-0.1,1.1-0.3c0.3-0.2,0.5-0.5,0.7-0.9
	c0.2-0.4,0.2-0.9,0.2-1.5c0-0.5-0.1-1-0.2-1.4c-0.1-0.4-0.4-0.7-0.7-1c-0.3-0.2-0.7-0.4-1.2-0.4c-0.4,0-0.8,0.1-1.1,0.3
	c-0.3,0.2-0.5,0.5-0.7,0.9c-0.2,0.4-0.2,0.9-0.2,1.5c0,0.5,0.1,1,0.2,1.4c0.1,0.4,0.4,0.7,0.7,1C326.3,27.4,326.7,27.5,327.1,27.5z
	 M332.1,28.4v-7.2h1.2v1.4c0.1-0.3,0.3-0.6,0.5-0.9c0.2-0.2,0.5-0.4,0.7-0.5c0.3-0.1,0.6-0.2,0.9-0.2c0.1,0,0.2,0,0.3,0
	s0.2,0,0.2,0.1v1.3c-0.1,0-0.2-0.1-0.3-0.1c-0.1,0-0.2,0-0.3,0c-0.3,0-0.6,0-0.8,0.1c-0.3,0.1-0.5,0.1-0.7,0.3
	c-0.2,0.1-0.3,0.3-0.5,0.5c-0.1,0.2-0.2,0.5-0.2,0.8v4.5H332.1z M337.6,28.4v-7.2h1.3v1.1c0.1-0.2,0.3-0.4,0.5-0.6
	c0.2-0.2,0.5-0.3,0.8-0.4c0.3-0.1,0.6-0.2,1-0.2c0.5,0,0.9,0.1,1.3,0.3c0.4,0.2,0.7,0.5,0.9,0.9c0.2,0.4,0.3,0.9,0.3,1.5v4.7h-1.3
	v-4.6c0-0.6-0.1-1-0.4-1.3c-0.3-0.3-0.7-0.4-1.1-0.4c-0.3,0-0.6,0.1-0.9,0.2c-0.3,0.1-0.5,0.3-0.7,0.5c-0.2,0.2-0.3,0.5-0.3,0.8v4.8
	H337.6z M347,21.1v7.2h-1.3v-7.2H347z M347.1,18.2v1.3h-1.3v-1.3H347.1z M351.3,28.5c-0.5,0-0.9-0.1-1.2-0.2
	c-0.4-0.2-0.6-0.4-0.8-0.7c-0.2-0.3-0.3-0.7-0.3-1.1c0-0.8,0.3-1.4,0.8-1.8c0.6-0.4,1.5-0.6,2.7-0.6l1.3,0v-0.6
	c0-0.4-0.1-0.8-0.4-1.1c-0.3-0.3-0.7-0.4-1.2-0.4c-0.4,0-0.8,0.1-1.1,0.3c-0.3,0.2-0.5,0.5-0.6,0.9h-1.1c0-0.5,0.2-0.9,0.4-1.2
	c0.2-0.3,0.6-0.6,1-0.7c0.4-0.2,0.9-0.3,1.5-0.3c0.6,0,1.2,0.1,1.6,0.3c0.4,0.2,0.7,0.4,0.9,0.8c0.2,0.3,0.3,0.8,0.3,1.3v5.1h-1.1
	l-0.1-1.4c-0.3,0.6-0.6,1-1.1,1.2C352.3,28.4,351.8,28.5,351.3,28.5z M351.7,27.6c0.2,0,0.5,0,0.7-0.1c0.2-0.1,0.5-0.2,0.7-0.4
	c0.2-0.2,0.4-0.3,0.5-0.5c0.1-0.2,0.2-0.4,0.2-0.6v-1.2l-1.1,0c-0.6,0-1,0.1-1.4,0.2c-0.4,0.1-0.6,0.3-0.8,0.5
	c-0.2,0.2-0.3,0.5-0.3,0.9c0,0.4,0.1,0.7,0.4,1C350.9,27.5,351.3,27.6,351.7,27.6z"/>
<path class="st1" d="M808.2,21.1c-0.2-0.6-0.4-1.1-0.7-1.7l1.3-2.8c-0.5-0.6-1.1-1.2-1.7-1.7l-2.8,1.3c-0.5-0.3-1.1-0.5-1.7-0.7
	l-1-2.9c-0.4,0-0.8-0.1-1.2-0.1s-0.8,0-1.2,0.1l-1,2.9c-0.6,0.2-1.1,0.4-1.7,0.7l-2.8-1.3c-0.6,0.5-1.2,1.1-1.7,1.7l1.3,2.8
	c-0.3,0.5-0.5,1.1-0.7,1.7l-2.9,1c0,0.4-0.1,0.8-0.1,1.2c0,0.4,0,0.8,0.1,1.2l2.9,1c0.2,0.6,0.4,1.1,0.7,1.7l-1.3,2.8
	c0.5,0.6,1.1,1.2,1.7,1.7l2.8-1.3c0.5,0.3,1.1,0.5,1.7,0.7l1,2.9c0.4,0,0.8,0.1,1.2,0.1s0.8,0,1.2-0.1l1-2.9
	c0.6-0.2,1.1-0.4,1.7-0.7l2.8,1.3c0.6-0.5,1.2-1.1,1.7-1.7l-1.3-2.8c0.3-0.5,0.5-1.1,0.7-1.7l2.9-1c0-0.4,0.1-0.8,0.1-1.2
	c0-0.4,0-0.8-0.1-1.2L808.2,21.1L808.2,21.1z M800.4,28.7c-3,0-5.4-2.4-5.4-5.4s2.4-5.4,5.4-5.4s5.4,2.4,5.4,5.4
	S803.4,28.7,800.4,28.7z"/>
<path class="st1" d="M822.2,28.5c-0.5,0-0.9-0.1-1.4-0.2c-0.4-0.1-0.9-0.3-1.2-0.5c-0.4-0.2-0.7-0.5-0.9-0.9
	c-0.2-0.4-0.4-0.8-0.4-1.2h1.4c0.1,0.4,0.2,0.7,0.5,1c0.3,0.3,0.6,0.5,0.9,0.6c0.4,0.1,0.8,0.2,1.2,0.2c0.5,0,0.9-0.1,1.3-0.2
	c0.4-0.1,0.7-0.3,0.9-0.6c0.2-0.2,0.3-0.5,0.3-0.9c0-0.3-0.1-0.6-0.2-0.8c-0.1-0.2-0.3-0.4-0.6-0.6c-0.3-0.1-0.6-0.3-1-0.4l-2-0.5
	c-0.7-0.2-1.3-0.5-1.8-0.9c-0.4-0.4-0.6-1-0.6-1.7c0-0.6,0.2-1.1,0.5-1.5c0.3-0.4,0.7-0.8,1.3-1c0.5-0.2,1.2-0.4,1.9-0.4
	c0.8,0,1.5,0.1,2,0.4c0.6,0.3,1,0.6,1.2,1.1c0.3,0.4,0.4,0.9,0.4,1.4h-1.3c0-0.5-0.2-0.8-0.4-1.1c-0.2-0.3-0.5-0.5-0.8-0.6
	c-0.3-0.1-0.7-0.2-1.1-0.2c-0.3,0-0.6,0-0.8,0.1c-0.3,0.1-0.5,0.2-0.7,0.3c-0.2,0.1-0.4,0.3-0.5,0.5c-0.1,0.2-0.2,0.5-0.2,0.7
	c0,0.4,0.1,0.7,0.4,0.9c0.3,0.2,0.7,0.4,1.4,0.6l1.9,0.5c0.5,0.1,0.9,0.3,1.2,0.5c0.3,0.2,0.6,0.4,0.7,0.7c0.2,0.3,0.3,0.5,0.4,0.8
	c0.1,0.3,0.1,0.6,0.1,0.9c0,0.5-0.2,1-0.5,1.4c-0.3,0.4-0.7,0.7-1.3,1C823.7,28.4,823,28.5,822.2,28.5z M828.9,25
	c0,0.5,0.1,0.9,0.2,1.2c0.2,0.4,0.4,0.7,0.7,0.9c0.3,0.2,0.7,0.3,1.2,0.3c0.5,0,0.9-0.1,1.2-0.3c0.3-0.2,0.5-0.5,0.6-0.9h1.2
	c-0.1,0.5-0.3,0.9-0.6,1.2c-0.3,0.3-0.7,0.6-1.1,0.8c-0.4,0.2-0.9,0.3-1.3,0.3c-0.7,0-1.3-0.1-1.8-0.4c-0.5-0.3-0.9-0.7-1.2-1.3
	c-0.3-0.6-0.4-1.2-0.4-2c0-0.8,0.1-1.4,0.4-2c0.3-0.6,0.6-1,1.1-1.3c0.5-0.3,1.1-0.5,1.8-0.5c0.7,0,1.3,0.1,1.7,0.4
	c0.5,0.3,0.8,0.7,1.1,1.2c0.2,0.5,0.4,1.2,0.4,1.9V25H828.9z M828.9,24.2h3.9c0-0.4-0.1-0.8-0.2-1.1c-0.1-0.3-0.4-0.6-0.6-0.8
	c-0.3-0.2-0.6-0.3-1.1-0.3c-0.5,0-0.8,0.1-1.1,0.3c-0.3,0.2-0.5,0.5-0.7,0.8C828.9,23.5,828.9,23.8,828.9,24.2z M839.3,22.1h-1.6
	v4.5c0,0.3,0,0.4,0.1,0.6c0.1,0.1,0.1,0.2,0.3,0.2c0.1,0,0.3,0,0.5,0h0.8v0.9c-0.1,0-0.2,0.1-0.4,0.1c-0.2,0-0.4,0-0.7,0
	c-0.5,0-0.9-0.1-1.2-0.2c-0.3-0.1-0.5-0.3-0.6-0.6c-0.1-0.3-0.2-0.6-0.2-1v-4.5h-1.2v-0.9h1.2l0.3-2.1h1v2.1h1.6V22.1z M844.7,22.1
	h-1.6v4.5c0,0.3,0,0.4,0.1,0.6c0.1,0.1,0.1,0.2,0.3,0.2c0.1,0,0.3,0,0.5,0h0.8v0.9c-0.1,0-0.2,0.1-0.4,0.1c-0.2,0-0.4,0-0.7,0
	c-0.5,0-0.9-0.1-1.2-0.2c-0.3-0.1-0.5-0.3-0.6-0.6c-0.1-0.3-0.2-0.6-0.2-1v-4.5h-1.2v-0.9h1.2l0.3-2.1h1v2.1h1.6V22.1z M848,21.1
	v7.2h-1.3v-7.2H848z M848,18.2v1.3h-1.3v-1.3H848z M850.3,28.4v-7.2h1.3v1.1c0.1-0.2,0.3-0.4,0.5-0.6c0.2-0.2,0.5-0.3,0.8-0.4
	c0.3-0.1,0.6-0.2,1-0.2c0.5,0,0.9,0.1,1.3,0.3c0.4,0.2,0.7,0.5,0.9,0.9c0.2,0.4,0.4,0.9,0.4,1.5v4.7h-1.3v-4.6c0-0.6-0.1-1-0.4-1.3
	c-0.3-0.3-0.7-0.4-1.1-0.4c-0.3,0-0.6,0.1-0.9,0.2c-0.3,0.1-0.5,0.3-0.7,0.5c-0.2,0.2-0.3,0.5-0.3,0.8v4.8H850.3z M861.5,30.8
	c-1.1,0-2-0.2-2.7-0.5c-0.6-0.3-0.9-0.8-0.9-1.4c0-0.3,0.1-0.5,0.2-0.7c0.1-0.2,0.3-0.3,0.4-0.5c0.2-0.1,0.3-0.2,0.5-0.3
	c0.1-0.1,0.2-0.1,0.3-0.2c-0.1,0-0.2-0.1-0.3-0.2c-0.1-0.1-0.2-0.2-0.3-0.3c-0.1-0.1-0.1-0.3-0.1-0.5c0-0.2,0.1-0.4,0.3-0.6
	c0.2-0.2,0.5-0.3,1-0.4c-0.4-0.2-0.8-0.5-1-0.9c-0.2-0.4-0.4-0.7-0.4-1.2c0-0.5,0.1-0.9,0.4-1.2c0.3-0.3,0.6-0.6,1.1-0.8
	c0.5-0.2,1-0.3,1.7-0.3c0.5,0,0.9,0.1,1.2,0.2c0.3,0.1,0.6,0.3,0.9,0.5c0.1,0,0.2-0.1,0.4-0.1c0.2-0.1,0.3-0.1,0.5-0.2
	c0.2-0.1,0.4-0.2,0.5-0.2c0.2-0.1,0.3-0.1,0.4-0.2l0,1.2l-1.3,0.2c0.1,0.1,0.1,0.3,0.2,0.5c0,0.2,0.1,0.3,0.1,0.5
	c0,0.4-0.1,0.8-0.3,1.2c-0.2,0.3-0.6,0.6-1,0.8s-1,0.3-1.7,0.3c-0.1,0-0.1,0-0.2,0c-0.1,0-0.2,0-0.2,0c-0.5,0-0.8,0.1-1,0.2
	c-0.2,0.1-0.3,0.2-0.3,0.3c0,0.1,0.1,0.2,0.3,0.3s0.6,0.1,1.1,0.1c0.2,0,0.4,0,0.7,0c0.3,0,0.6,0,0.9,0.1c0.8,0,1.3,0.2,1.8,0.6
	s0.6,0.8,0.6,1.4c0,0.7-0.3,1.2-0.9,1.6S862.7,30.8,861.5,30.8z M861.7,29.9c0.7,0,1.2-0.1,1.5-0.3c0.4-0.2,0.5-0.5,0.5-0.9
	c0-0.3-0.1-0.5-0.3-0.7c-0.2-0.2-0.5-0.3-1-0.3l-2-0.1c-0.2,0-0.4,0-0.6,0.1c-0.2,0.1-0.4,0.2-0.5,0.4c-0.1,0.2-0.2,0.4-0.2,0.6
	c0,0.4,0.2,0.7,0.6,0.9C860.2,29.8,860.8,29.9,861.7,29.9z M861.5,24.8c0.5,0,0.9-0.1,1.3-0.4c0.3-0.2,0.5-0.6,0.5-1.1
	c0-0.5-0.2-0.9-0.5-1.1c-0.3-0.3-0.7-0.4-1.3-0.4c-0.5,0-1,0.1-1.3,0.4c-0.3,0.3-0.5,0.6-0.5,1.1c0,0.5,0.2,0.8,0.5,1.1
	C860.5,24.6,860.9,24.8,861.5,24.8z M869.4,28.5c-0.5,0-1-0.1-1.4-0.2c-0.4-0.2-0.8-0.4-1.1-0.7c-0.3-0.3-0.5-0.8-0.5-1.3h1.2
	c0.1,0.3,0.2,0.5,0.3,0.7c0.2,0.2,0.4,0.3,0.6,0.4c0.3,0.1,0.5,0.1,0.8,0.1c0.5,0,0.9-0.1,1.2-0.3c0.3-0.2,0.4-0.5,0.4-0.8
	c0-0.3-0.1-0.5-0.2-0.6c-0.2-0.2-0.4-0.3-0.7-0.4l-1.5-0.4c-0.6-0.1-1-0.4-1.4-0.7c-0.4-0.3-0.5-0.7-0.5-1.3c0-0.4,0.1-0.8,0.3-1.1
	c0.2-0.3,0.5-0.6,0.9-0.8c0.4-0.2,0.9-0.3,1.5-0.3c0.8,0,1.4,0.2,1.9,0.5c0.5,0.4,0.7,0.9,0.8,1.5h-1.1c0-0.3-0.2-0.6-0.5-0.8
	c-0.3-0.2-0.6-0.3-1.1-0.3c-0.5,0-0.8,0.1-1.1,0.3c-0.3,0.2-0.4,0.5-0.4,0.9c0,0.3,0.1,0.5,0.3,0.6c0.2,0.1,0.5,0.3,0.9,0.4l1.4,0.4
	c0.3,0.1,0.6,0.2,0.8,0.4c0.2,0.1,0.4,0.3,0.5,0.5c0.1,0.2,0.2,0.4,0.3,0.6c0.1,0.2,0.1,0.4,0.1,0.6c0,0.4-0.1,0.8-0.3,1.1
	c-0.2,0.3-0.5,0.6-1,0.7C870.5,28.4,870,28.5,869.4,28.5z"/>
<g>
	<path class="st2" d="M67.8,21.3c0.1-0.4,0.4-1.3,0.9-2.9c0.1-0.4,0.4-1.2,0.9-2.5c0.4-1.3,0.8-2.3,1.1-3c-0.9,0.6-1.7,1.3-2.4,2.1
		c-2.9,3.2-6.4,7.1-7.6,9.1c0.4-0.1,1.4-1.1,4.4-2.1C65.8,21.6,66.8,21.4,67.8,21.3z M67.2,23.3c-9.3,0-13.4,14.9-19.9,14.9
		c-1.5,0-2.6-0.7-3.4-2c-0.5-0.9-0.8-1.9-0.8-2.9c0-2.7,1.3-6.1,3.8-10.3c2.2-3.5,4.5-6.3,6.9-8.5c2.1-1.9,3.9-2.8,5.4-2.8
		c0.8,0,1.5,0.3,2,0.9c0.4,0.5,0.6,1.1,0.5,1.7c0,1.2-0.4,2.6-1.2,4.2C59.9,20,59,21.2,58,22.3c-0.7,0.7-1.3,1-1.7,1
		c-0.3,0-0.5-0.2-0.7-0.4c-0.2-0.2-0.3-0.4-0.3-0.6c0-0.4,0.4-0.9,1.2-1.5c1-0.7,1.9-1.6,2.6-2.6c0.9-1.4,1.4-2.6,1.4-3.5
		c0-0.3-0.1-0.6-0.3-0.9c-0.2-0.2-0.5-0.3-0.8-0.3c-0.7,0-1.7,0.5-2.9,1.5c-1.7,1.4-3.2,2.9-4.6,4.6c-1.9,2.2-3.5,4.7-4.7,7.3
		c-1.1,2.5-1.7,4.6-1.7,6.4c0,0.8,0.3,1.5,0.7,2.1c0.4,0.6,1.2,1,2,1c2.9-0.1,6.6-6.9,7.8-8.4c11.3-15.6,12.2-15.6,13.8-17.2
		c1-1,1.8-1.4,2.3-1.4c0.3,0,0.6,0.2,0.8,0.4c0.2,0.2,0.3,0.5,0.3,0.8c-0.1,0.6-0.3,1.3-0.5,1.9c-0.6,1.5-1.2,3.2-1.7,5
		c-0.5,1.6-0.8,2.8-1,3.6c0.2,0,0.3,0,0.4,0c0.4,0,0.7,0,0.9,0c0.7,0,1.1,0.3,1.1,0.8c0,0.3-0.1,0.5-0.2,0.7
		c-0.1,0.2-0.3,0.4-0.5,0.4c-0.2,0-0.4,0-0.6,0c-0.5,0-1.1,0-1.6,0.1c-0.1,0.4-0.5,3.8-1,3.9C67.1,28.2,67.2,23.8,67.2,23.3
		L67.2,23.3z"/>
	<path class="st3" d="M58,33.5c0.4,0,0.8,0.2,1.1,0.4s0.4,0.6,0.4,1.1c0,0.8-0.7,1.5-1.5,1.5c-0.8,0-1.5-0.7-1.5-1.5
		C56.5,34.2,57.2,33.5,58,33.5L58,33.5z"/>
	<path class="st3" d="M67.1,29.6l-1.1,1c-0.6-0.7-1.4-1.1-2.3-1.1c-0.7,0-1.4,0.3-1.9,0.8c-0.5,0.5-0.8,1.2-0.8,1.9
		c0,0.7,0.3,1.4,0.8,1.9c0.5,0.5,1.3,0.8,2,0.8c0.4,0,0.9-0.1,1.3-0.3c0.4-0.3,0.7-0.6,0.8-1h-2.2v-1.4h3.9v0.3
		c0,0.7-0.2,1.3-0.5,1.9c-0.3,0.6-0.8,1.1-1.4,1.4c-0.6,0.3-1.3,0.5-2,0.5c-0.8,0-1.5-0.2-2.1-0.5c-0.6-0.4-1.2-0.9-1.5-1.5
		c-0.4-0.6-0.5-1.4-0.5-2.1c0-1,0.4-2,1-2.7c0.8-0.9,2-1.4,3.2-1.3c0.6,0,1.3,0.1,1.9,0.4C66.2,28.7,66.7,29.1,67.1,29.6L67.1,29.6z
		"/>
	<path class="st3" d="M72.2,28.1c1.1,0,2.1,0.4,2.9,1.2c0.8,0.8,1.2,1.8,1.2,2.9c0,1.1-0.4,2.1-1.2,2.9c-1.6,1.6-4.2,1.6-5.7,0
		c0,0,0,0,0,0c-1.6-1.6-1.6-4.2,0-5.8C70.1,28.5,71.1,28.1,72.2,28.1L72.2,28.1z M72.2,29.6c-0.7,0-1.3,0.3-1.8,0.7
		c-0.5,0.5-0.8,1.2-0.7,1.9c0,0.8,0.3,1.5,0.9,2.1c0.4,0.4,1.1,0.6,1.6,0.6c0.7,0,1.3-0.3,1.8-0.8c1-1.1,1-2.7,0-3.8
		C73.5,29.8,72.9,29.6,72.2,29.6L72.2,29.6z"/>
	<polygon class="st3" points="76,28.4 77.5,28.4 79.4,33.9 81.4,28.4 82.9,28.4 80.1,36.2 78.7,36.2 	"/>
</g>
</svg>
