<?xml version="1.0" encoding="UTF-8"?>
<svg id="Layer_1" xmlns="http://www.w3.org/2000/svg" version="1.1" viewBox="0 0 922.5 45.7">
  <!-- Generator: Adobe Illustrator 29.1.0, SVG Export Plug-In . SVG Version: 2.1.0 Build 142)  -->
  <defs>
    <style>
      .st0 {
        fill: #eef8fb;
      }

      .st1 {
        fill: #3b3a48;
      }

      .st2 {
        fill: #2e84af;
      }

      .st3 {
        fill: #b81f38;
      }

      .st4 {
        fill: #316030;
      }

      .st5 {
        fill: #683a17;
      }
    </style>
  </defs>
  <rect class="st0" x="-.6" y=".4" width="924" height="45.4"/>
  <path class="st1" d="M95.6,28.5c-.9,0-1.7-.2-2.3-.6-.7-.4-1.2-1-1.5-1.8-.4-.8-.5-1.7-.5-2.8s.2-2,.5-2.8c.4-.8.9-1.4,1.5-1.8.7-.4,1.4-.6,2.3-.6s1.7.2,2.3.6c.7.4,1.2,1,1.5,1.8.4.8.5,1.7.5,2.8s-.2,2-.5,2.8-.9,1.4-1.5,1.8-1.4.6-2.3.6ZM95.6,27.4c.6,0,1.2-.1,1.6-.4s.8-.7,1-1.3c.2-.6.3-1.4.3-2.3s0-1.7-.3-2.3c-.2-.6-.6-1.1-1-1.3-.4-.3-1-.4-1.6-.4s-1.1.1-1.6.4c-.4.3-.8.7-1,1.4-.2.6-.4,1.4-.4,2.3s0,1.7.4,2.3.6,1,1,1.3c.4.1,1,.3,1.6.3ZM105.9,21.1v.9h-1.8v6.3h-1.3v-6.3h-1.5v-.9h1.5v-1.1c0-.6,0-1,.4-1.3s.7-.5,1.3-.5h1.4v.9h-1.1c-.3,0-.5.1-.6.2,0,.2-.2.4-.2.7v1h1.9ZM111.5,21.1v.9h-1.8v6.3h-1.3v-6.3h-1.5v-.9h1.5v-1.1c0-.6,0-1,.4-1.3s.7-.5,1.3-.5h1.4v.9h-1.1c-.3,0-.5.1-.6.2,0,.2-.2.4-.2.7v1h1.9ZM114.5,21.1v7.2h-1.3v-7.2s1.3,0,1.3,0ZM114.5,18.2v1.3h-1.3v-1.3h1.3ZM119.7,21c.5,0,1,.1,1.4.3.4.2.8.5,1,.8.3.4.4.8.5,1.3h-1.1c0-.3,0-.5-.3-.7,0-.2-.3-.4-.6-.5-.2-.1-.5-.2-.9-.2-.6,0-1.1.2-1.5.7-.4.4-.6,1.1-.6,2.1s.2,1.5.5,2c.4.5.9.7,1.6.7s.6-.1.9-.2c.2-.1.4-.3.6-.5,0-.2.2-.4.3-.7h1.1c0,.5-.2.9-.5,1.3s-.6.6-1,.8c-.4.2-.9.3-1.4.3s-1.2-.1-1.7-.4-.9-.7-1.2-1.3c-.3-.6-.4-1.2-.4-2s0-1.4.4-2,.6-1,1.1-1.3c.5-.4,1.1-.5,1.8-.5ZM125.7,21.1v7.2h-1.3v-7.2s1.3,0,1.3,0ZM125.8,18.2v1.3h-1.3v-1.3h1.3ZM130,28.5c-.5,0-.9-.1-1.2-.2-.4-.2-.6-.4-.8-.7-.2-.3-.3-.7-.3-1.1,0-.8.3-1.4.8-1.8.6-.4,1.5-.6,2.7-.6h1.3v-.6c0-.4-.1-.8-.4-1.1-.3-.3-.7-.4-1.2-.4s-.8.1-1.1.3c-.3.2-.5.5-.6.9h-1.2c0-.5.2-.9.4-1.2.2-.3.6-.6,1-.7.4-.2.9-.3,1.5-.3s1.2.1,1.6.3c.4.2.7.4.9.8.2.3.3.8.3,1.3v5.1h-1.1v-1.4c-.4.6-.7,1-1.2,1.2-.4.1-.9.2-1.4.2ZM130.4,27.6c.2,0,.5,0,.7-.1s.5-.2.7-.4c.2-.2.4-.3.5-.5s.2-.4.2-.6v-1.2h-1.1c-.6,0-1,.1-1.4.2s-.6.3-.8.5-.3.5-.3.9.1.7.4,1c.3.1.7.2,1.1.2ZM137.7,28.5c-.4,0-.7-.1-1-.2-.2-.1-.4-.3-.6-.4-.1-.2-.2-.4-.3-.6,0-.2-.1-.5-.1-.7v-8.6h1.3v8.4c0,.4.1.6.2.8.1.2.3.3.6.3h.4v.8c-.1,0-.2.1-.3.1,0,0,0,.1-.2.1ZM152.7,21.1l-2.2,7.2h-1.3l-1.7-5.3-1.6,5.3h-1.3l-2.2-7.2h1.2l1.7,5.6h.1l1.6-5.6h1l1.7,5.6h.1l1.6-5.6s1.3,0,1.3,0ZM154.9,25c0,.5.1.9.2,1.2.2.4.4.7.7.9.3.2.7.3,1.2.3s.9-.1,1.2-.3c.3-.2.6-.5.6-.9h1.2c-.1.5-.3.9-.6,1.2-.3.3-.7.6-1.1.8-.4.2-.9.3-1.3.3-.7,0-1.3-.1-1.8-.4s-.9-.7-1.2-1.3c-.3-.6-.4-1.2-.4-2s.1-1.4.4-2c.3-.6.6-1,1.1-1.3s1.1-.5,1.8-.5,1.3.1,1.7.4c.5.3.8.7,1.1,1.2.2.5.4,1.2.4,1.9v.5h-5.2ZM154.9,24.2h3.9c0-.4-.1-.8-.2-1.1-.1-.3-.4-.6-.6-.8-.3-.2-.6-.3-1.1-.3s-.8.1-1.1.3c-.3.2-.5.5-.7.8-.2.4-.2.7-.2,1.1ZM165.4,28.5c-.4,0-.8-.1-1.1-.2s-.5-.3-.7-.4c-.2-.2-.3-.4-.4-.5-.1-.2-.2-.4-.2-.5v1.5h-1.1v-10.4h1.3v4.3c.1-.1.2-.3.3-.4s.3-.3.5-.4.4-.2.7-.3c.3-.1.6-.1.9-.1.9,0,1.6.3,2.2.9.5.6.8,1.6.8,2.8s-.1,1.4-.3,2-.6,1-1,1.3c-.6.2-1.2.4-1.9.4ZM165.2,27.5c.6,0,1.1-.2,1.4-.7.4-.5.6-1.2.6-2.2s-.2-1.5-.5-2-.8-.7-1.5-.7-.9.1-1.2.3c-.3.2-.5.5-.6.9s-.2.9-.2,1.4c0,1,.2,1.7.5,2.2.2.6.8.8,1.5.8ZM172.7,28.5c-.5,0-1-.1-1.4-.2-.4-.2-.8-.4-1.1-.7-.3-.3-.5-.8-.5-1.3h1.2c.1.3.2.5.4.7s.4.3.6.4c.3.1.5.1.8.1.5,0,.9-.1,1.2-.3.3-.2.4-.5.4-.8s-.1-.5-.2-.6c-.2-.2-.4-.3-.7-.4l-1.5-.4c-.6-.1-1.1-.4-1.4-.7-.3-.3-.5-.7-.5-1.3s.1-.8.3-1.1c.2-.3.5-.6.9-.8.4-.2.9-.3,1.5-.3s1.4.2,1.9.5c.5.4.7.9.8,1.5h-1.1c0-.3-.2-.6-.5-.8-.3-.2-.6-.3-1.1-.3s-.8.1-1.1.3c-.3.2-.4.5-.4.9s.1.5.3.6.5.3.9.4l1.4.4c.3.1.6.2.8.4.2.1.4.3.5.5s.2.4.3.6.1.4.1.6c0,.4-.1.8-.3,1.1-.2.3-.5.6-1,.7-.4.2-.9.3-1.5.3ZM178.7,21.1v7.2h-1.3v-7.2s1.3,0,1.3,0ZM178.7,18.2v1.3h-1.3v-1.3h1.3ZM184.7,22.1h-1.6v4.5c0,.3,0,.4.1.6.1.1.1.2.3.2h1.3v.9c-.1,0-.2.1-.4.1h-.7c-.5,0-.9-.1-1.2-.2s-.5-.3-.6-.6c-.1-.3-.2-.6-.2-1v-4.5h-1.2v-.9h1.2l.3-2.1h1v2.1h1.6v.9h0ZM187.3,25c0,.5.1.9.2,1.2.2.4.4.7.7.9.3.2.7.3,1.2.3s.9-.1,1.2-.3c.3-.2.6-.5.6-.9h1.2c-.1.5-.3.9-.6,1.2-.3.3-.7.6-1.1.8-.4.2-.9.3-1.3.3-.7,0-1.3-.1-1.8-.4s-.9-.7-1.2-1.3c-.3-.6-.4-1.2-.4-2s.1-1.4.4-2c.3-.6.6-1,1.1-1.3s1.1-.5,1.8-.5,1.3.1,1.7.4c.5.3.8.7,1.1,1.2.2.5.4,1.2.4,1.9v.5h-5.2ZM187.3,24.2h3.9c0-.4-.1-.8-.2-1.1-.1-.3-.4-.6-.6-.8-.3-.2-.6-.3-1.1-.3s-.8.1-1.1.3c-.3.2-.5.5-.7.8,0,.4-.2.7-.2,1.1ZM200.1,28.5c-.7,0-1.3-.1-1.8-.4s-.9-.7-1.2-1.3c-.3-.6-.4-1.2-.4-2s.1-1.4.4-2c.3-.6.6-1,1.1-1.3s1.1-.5,1.8-.5,1.2.1,1.7.4.9.7,1.1,1.3c.3.6.4,1.3.4,2.1s-.1,1.4-.4,1.9c-.2.6-.6,1-1.1,1.3-.2.3-.8.5-1.6.5ZM200.1,27.5c.4,0,.8-.1,1.1-.3.3-.2.5-.5.7-.9s.2-.9.2-1.5-.1-1-.2-1.4c-.1-.4-.4-.7-.7-1-.3-.2-.7-.4-1.2-.4s-.8.1-1.1.3c-.3.2-.5.5-.7.9s-.2.9-.2,1.5.1,1,.2,1.4.4.7.7,1c.4.3.8.4,1.2.4ZM208.9,21.1v.9h-1.8v6.3h-1.3v-6.3h-1.5v-.9h1.5v-1.1c0-.6.1-1,.4-1.3.3-.3.7-.5,1.3-.5h1.4v.9h-1.1c-.3,0-.5.1-.6.2-.1.2-.2.4-.2.7v1h1.9ZM217.4,22.1h-1.6v4.5c0,.3,0,.4.1.6.1.1.1.2.3.2h1.3v.9c-.1,0-.2.1-.4.1h-.7c-.5,0-.9-.1-1.2-.2s-.5-.3-.6-.6c-.1-.3-.2-.6-.2-1v-4.5h-1.2v-.9h1.2l.3-2.1h1v2.1h1.6v.9h0ZM219.3,28.4v-10.4h1.3v4.2c.1-.2.3-.4.5-.6s.5-.3.7-.4c.3-.1.6-.2,1-.2s.9.1,1.3.3c.4.2.7.4.9.7.2.3.3.7.3,1.1v5.2h-1.3v-4.9c0-.4-.1-.8-.4-1-.3-.2-.7-.4-1.2-.4s-.6.1-.9.2c-.3.1-.5.3-.7.5s-.3.5-.3.8v4.8h-1.2ZM228.3,25c0,.5.1.9.2,1.2.2.4.4.7.7.9.3.2.7.3,1.2.3s.9-.1,1.2-.3c.3-.2.6-.5.6-.9h1.2c-.1.5-.3.9-.6,1.2-.3.3-.7.6-1.1.8-.4.2-.9.3-1.3.3-.7,0-1.3-.1-1.8-.4s-.9-.7-1.2-1.3c-.3-.6-.4-1.2-.4-2s.1-1.4.4-2c.3-.6.6-1,1.1-1.3s1.1-.5,1.8-.5,1.3.1,1.7.4c.5.3.8.7,1.1,1.2.2.5.4,1.2.4,1.9v.5h-5.2ZM228.3,24.2h3.9c0-.4-.1-.8-.2-1.1-.1-.3-.4-.6-.6-.8-.3-.2-.6-.3-1.1-.3s-.8.1-1.1.3c-.3.2-.5.5-.7.8,0,.4-.2.7-.2,1.1ZM242.1,28.5c-.5,0-.9-.1-1.4-.2-.4-.1-.9-.3-1.2-.5-.4-.2-.7-.5-.9-.9s-.4-.8-.4-1.2h1.4c.1.4.2.7.5,1s.6.5.9.6c.4.1.8.2,1.2.2s.9-.1,1.3-.2c.4-.1.7-.3.9-.6.2-.2.3-.5.3-.9s-.1-.6-.2-.8c-.1-.2-.3-.4-.6-.6-.3-.1-.6-.3-1-.4l-2-.5c-.7-.2-1.3-.5-1.8-.9-.4-.4-.6-1-.6-1.7s.2-1.1.5-1.5.7-.8,1.3-1c.5-.2,1.2-.4,1.9-.4s1.5.1,2,.4c.6.3,1,.6,1.2,1.1s.4.9.4,1.4h-1.3c0-.5-.2-.8-.4-1.1-.2-.3-.5-.5-.8-.6s-.7-.2-1.1-.2-.6,0-.8.1c-.3.1-.5.2-.7.3-.2.1-.4.3-.5.5s-.2.5-.2.7c0,.4.1.7.4.9.3.2.7.4,1.4.6l1.9.5c.5.1.9.3,1.2.5s.6.4.7.7c.2.3.3.5.4.8.1.3.1.6.1.9,0,.5-.2,1-.5,1.4s-.7.7-1.3,1c-.7.5-1.4.6-2.2.6ZM251.3,22.1h-1.6v4.5c0,.3,0,.4.1.6.1.1.1.2.3.2h1.3v.9c-.1,0-.2.1-.4.1h-.7c-.5,0-.9-.1-1.2-.2s-.5-.3-.6-.6c-.1-.3-.2-.6-.2-1v-4.5h-1.2v-.9h1.2l.3-2.1h1v2.1h1.6v.9h0ZM255.1,28.5c-.5,0-.9-.1-1.2-.2-.4-.2-.6-.4-.8-.7-.2-.3-.3-.7-.3-1.1,0-.8.3-1.4.8-1.8.6-.4,1.5-.6,2.7-.6h1.3v-.6c0-.4-.1-.8-.4-1.1-.3-.3-.7-.4-1.2-.4s-.8.1-1.1.3c-.3.2-.5.5-.6.9h-1.1c0-.5.2-.9.4-1.2.2-.3.6-.6,1-.7.4-.2.9-.3,1.5-.3s1.2.1,1.6.3c.4.2.7.4.9.8.2.3.3.8.3,1.3v5.1h-1.1v-1.4c-.4.6-.7,1-1.2,1.2-.5.1-.9.2-1.5.2ZM255.5,27.6c.2,0,.5,0,.7-.1s.5-.2.7-.4c.2-.2.4-.3.5-.5s.2-.4.2-.6v-1.2h-1.1c-.6,0-1,.1-1.4.2s-.6.3-.8.5-.3.5-.3.9.1.7.4,1c.3.1.7.2,1.1.2ZM264.4,22.1h-1.6v4.5c0,.3,0,.4.1.6.1.1.1.2.3.2h1.3v.9c-.1,0-.2.1-.4.1h-.7c-.5,0-.9-.1-1.2-.2-.3-.1-.5-.3-.6-.6-.1-.3-.2-.6-.2-1v-4.5h-1.2v-.9h1.2l.3-2.1h1v2.1h1.6v.9h.1ZM267,25c0,.5.1.9.2,1.2.2.4.4.7.7.9.3.2.7.3,1.2.3s.9-.1,1.2-.3c.3-.2.5-.5.6-.9h1.2c-.1.5-.3.9-.6,1.2-.3.3-.7.6-1.1.8-.4.2-.9.3-1.3.3-.7,0-1.3-.1-1.8-.4s-.9-.7-1.2-1.3c-.3-.6-.4-1.2-.4-2s.1-1.4.4-2,.6-1,1.1-1.3,1.1-.5,1.8-.5,1.3.1,1.7.4c.5.3.8.7,1.1,1.2.2.5.4,1.2.4,1.9v.5h-5.2ZM267,24.2h3.9c0-.4-.1-.8-.2-1.1-.1-.3-.4-.6-.6-.8-.3-.2-.6-.3-1.1-.3s-.8.1-1.1.3c-.3.2-.5.5-.7.8-.2.4-.2.7-.2,1.1ZM279.8,28.5c-.7,0-1.2-.1-1.8-.4-.5-.3-.9-.7-1.2-1.3-.3-.6-.4-1.2-.4-2s.1-1.4.4-2,.6-1,1.1-1.3,1.1-.5,1.8-.5,1.2.1,1.7.4.9.7,1.1,1.3c.3.6.4,1.3.4,2.1s-.1,1.4-.4,1.9c-.2.6-.6,1-1.1,1.3-.3.3-.9.5-1.6.5ZM279.8,27.5c.4,0,.8-.1,1.1-.3.3-.2.5-.5.7-.9s.2-.9.2-1.5-.1-1-.2-1.4-.4-.7-.7-1c-.3-.2-.7-.4-1.2-.4s-.8.1-1.1.3c-.3.2-.5.5-.7.9s-.2.9-.2,1.5.1,1,.2,1.4.4.7.7,1,.7.4,1.2.4ZM288.6,21.1v.9h-1.8v6.3h-1.3v-6.3h-1.5v-.9h1.5v-1.1c0-.6.1-1,.4-1.3s.7-.5,1.3-.5h1.4v.9h-1.1c-.3,0-.5.1-.6.2-.1.2-.2.4-.2.7v1h1.9ZM297.4,18.1c.7,0,1.3.1,1.9.4.5.3,1,.7,1.3,1.2s.5,1,.6,1.6h-1.4c-.1-.4-.2-.8-.4-1.1-.2-.3-.5-.6-.8-.8-.3-.2-.7-.3-1.2-.3s-1.1.1-1.6.4c-.4.3-.7.7-1,1.3-.2.6-.3,1.4-.3,2.3,0,1.4.2,2.4.7,3.1s1.2,1,2.1,1,.9-.1,1.2-.3c.3-.2.6-.5.8-.8s.4-.7.4-1.1h1.4c-.1.4-.2.8-.4,1.2-.2.4-.4.8-.7,1.1-.3.3-.7.6-1.2.7-.5.2-1,.3-1.6.3-.9,0-1.7-.2-2.3-.6-.6-.4-1.1-1-1.5-1.8-.3-.8-.5-1.7-.5-2.8s.2-2,.5-2.8.8-1.4,1.5-1.8c.8-.2,1.6-.4,2.5-.4ZM304.9,28.5c-.5,0-.9-.1-1.2-.2-.4-.2-.6-.4-.8-.7-.2-.3-.3-.7-.3-1.1,0-.8.3-1.4.8-1.8.6-.4,1.5-.6,2.7-.6h1.3v-.6c0-.4-.1-.8-.4-1.1-.3-.3-.7-.4-1.2-.4s-.8.1-1.1.3c-.3.2-.5.5-.6.9h-1.1c0-.5.2-.9.4-1.2.2-.3.6-.6,1-.7.4-.2.9-.3,1.5-.3s1.2.1,1.6.3c.4.2.7.4.9.8.2.3.3.8.3,1.3v5.1h-1.1v-1.4c-.4.6-.7,1-1.2,1.2-.5.1-.9.2-1.5.2ZM305.3,27.6c.2,0,.5,0,.7-.1s.5-.2.7-.4c.2-.2.4-.3.5-.5s.2-.4.2-.6v-1.2h-1.1c-.6,0-1,.1-1.4.2s-.6.3-.8.5c-.2.2-.3.5-.3.9s.1.7.4,1c.3.1.7.2,1.1.2ZM312.7,28.5c-.4,0-.7-.1-1-.2-.2-.1-.4-.3-.6-.4-.1-.2-.2-.4-.3-.6,0-.2-.1-.5-.1-.7v-8.6h1.3v8.4c0,.4.1.6.2.8.1.2.3.3.6.3h.4v.8c-.1,0-.2.1-.3.1,0,0-.1.1-.2.1ZM316.4,21.1v7.2h-1.3v-7.2s1.3,0,1.3,0ZM316.4,18.2v1.3h-1.3v-1.3h1.3ZM322.7,21.1v.9h-1.7v6.3h-1.3v-6.3h-1.5v-.9h1.5v-1.1c0-.6.1-1,.4-1.3s.7-.5,1.3-.5h1.4v.9h-1.1c-.3,0-.5.1-.6.2-.1.2-.2.4-.2.7v1h1.8ZM327.1,28.5c-.7,0-1.3-.1-1.8-.4s-.9-.7-1.2-1.3c-.3-.6-.4-1.2-.4-2s.1-1.4.4-2,.6-1,1.1-1.3,1.1-.5,1.8-.5,1.2.1,1.7.4.9.7,1.1,1.3c.3.6.4,1.3.4,2.1s-.1,1.4-.4,1.9c-.2.6-.6,1-1.1,1.3-.2.3-.8.5-1.6.5ZM327.1,27.5c.4,0,.8-.1,1.1-.3.3-.2.5-.5.7-.9s.2-.9.2-1.5-.1-1-.2-1.4-.4-.7-.7-1c-.3-.2-.7-.4-1.2-.4s-.8.1-1.1.3c-.3.2-.5.5-.7.9s-.2.9-.2,1.5.1,1,.2,1.4.4.7.7,1c.4.3.8.4,1.2.4ZM332.1,28.4v-7.2h1.2v1.4c.1-.3.3-.6.5-.9.2-.2.5-.4.7-.5.3-.1.6-.2.9-.2h.3c0,0,.2,0,.2.1v1.3c-.1,0-.2-.1-.3-.1h-.3c-.3,0-.6,0-.8.1-.3.1-.5.1-.7.3-.2.1-.3.3-.5.5-.1.2-.2.5-.2.8v4.5h-1ZM337.6,28.4v-7.2h1.3v1.1c.1-.2.3-.4.5-.6s.5-.3.8-.4.6-.2,1-.2.9.1,1.3.3c.4.2.7.5.9.9.2.4.3.9.3,1.5v4.7h-1.3v-4.6c0-.6-.1-1-.4-1.3s-.7-.4-1.1-.4-.6.1-.9.2-.5.3-.7.5-.3.5-.3.8v4.8h-1.4,0ZM347,21.1v7.2h-1.3v-7.2s1.3,0,1.3,0ZM347.1,18.2v1.3h-1.3v-1.3h1.3ZM351.3,28.5c-.5,0-.9-.1-1.2-.2-.4-.2-.6-.4-.8-.7-.2-.3-.3-.7-.3-1.1,0-.8.3-1.4.8-1.8.6-.4,1.5-.6,2.7-.6h1.3v-.6c0-.4-.1-.8-.4-1.1-.3-.3-.7-.4-1.2-.4s-.8.1-1.1.3c-.3.2-.5.5-.6.9h-1.1c0-.5.2-.9.4-1.2.2-.3.6-.6,1-.7.4-.2.9-.3,1.5-.3s1.2.1,1.6.3c.4.2.7.4.9.8.2.3.3.8.3,1.3v5.1h-1.1v-1.4c-.4.6-.7,1-1.2,1.2-.5.1-1,.2-1.5.2ZM351.7,27.6c.2,0,.5,0,.7-.1s.5-.2.7-.4c.2-.2.4-.3.5-.5s.2-.4.2-.6v-1.2h-1.1c-.6,0-1,.1-1.4.2s-.6.3-.8.5c-.2.2-.3.5-.3.9s.1.7.4,1c.3.1.7.2,1.1.2Z"/>
  <g>
    <path d="M742.5,24.7l-1.1,3.3h-1.4l3.5-10.4h1.6l3.5,10.4h-1.4l-1.1-3.3h-3.6ZM745.9,23.7l-1-3c-.2-.7-.4-1.3-.5-1.9h0c-.2.6-.3,1.2-.5,1.9l-1,3h3Z"/>
    <path d="M750.1,28c0-.5,0-1.3,0-1.9v-9h1.3v4.7h0c.5-.8,1.3-1.4,2.5-1.4,1.8,0,3.2,1.5,3.1,3.8,0,2.7-1.7,4-3.3,4s-1.9-.4-2.5-1.4h0v1.2h-1.2ZM751.5,25c0,.2,0,.3,0,.5.3.9,1,1.6,2,1.6s2.3-1.2,2.3-2.9-.8-2.8-2.2-2.8-1.8.6-2.1,1.7c0,.2,0,.3,0,.6v1.3Z"/>
    <path d="M765.6,24.2c0,2.8-1.9,4-3.7,4s-3.6-1.5-3.6-3.8,1.6-4,3.7-4c2.2,0,3.6,1.5,3.6,3.8ZM759.7,24.3c0,1.6.9,2.9,2.3,2.9s2.3-1.2,2.3-2.9-.6-2.9-2.2-2.9-2.4,1.5-2.4,2.9Z"/>
    <path d="M773.6,26c0,.8,0,1.4,0,2h-1.2v-1.2h0c-.4.6-1.1,1.4-2.5,1.4s-2.6-.6-2.6-3.3v-4.4h1.4v4.1c0,1.4.4,2.4,1.7,2.4s1.5-.6,1.8-1.2c0-.2,0-.4,0-.7v-4.6h1.4v5.5h-.1Z"/>
    <path d="M777.5,18.4v2.1h1.9v1h-1.9v4c0,.9.3,1.4,1,1.4s.6,0,.8-.1v1c-.2.1-.6.2-1.1.2s-1.1-.2-1.5-.6-.5-1.1-.5-1.9v-4.1h-1.2v-1h1.2v-1.8l1.3-.2Z"/>
    <path d="M790.5,26c0,.8,0,1.4,0,2h-1.2v-1.2h0c-.4.6-1.1,1.4-2.5,1.4s-2.6-.6-2.6-3.3v-4.4h1.4v4.1c0,1.4.4,2.4,1.7,2.4s1.5-.6,1.8-1.2c0-.2,0-.4,0-.7v-4.6h1.4v5.5h-.1Z"/>
    <path d="M792.5,26.6c.4.3,1.1.5,1.8.5,1,0,1.4-.5,1.4-1.1s-.4-1-1.4-1.4c-1.3-.5-2-1.2-2-2.1s1-2.2,2.6-2.2,1.4.2,1.8.5l-.3,1c-.3-.2-.8-.4-1.5-.4s-1.2.5-1.2,1,.4.9,1.4,1.3c1.3.5,2,1.1,2,2.3s-1,2.2-2.8,2.2-1.6-.2-2.1-.5l.3-1.1Z"/>
    <path d="M739.6,29.9v-.8h58.1v.8h-58.1Z"/>
  </g>
  <g>
    <path d="M826.6,27.6c-.5.2-1.5.5-2.7.5-2.9,0-5.1-1.8-5.1-5.3s2.2-5.5,5.4-5.5,2.1.3,2.5.5l-.3,1.1c-.5-.2-1.2-.4-2.1-.4-2.4,0-4.1,1.6-4.1,4.3s1.5,4.2,4,4.2,1.6-.2,2.2-.4l.2,1Z"/>
    <path d="M834.8,24.2c0,2.8-1.9,4-3.7,4s-3.6-1.5-3.6-3.8,1.6-4,3.7-4c2.1,0,3.6,1.5,3.6,3.8ZM828.9,24.3c0,1.6.9,2.9,2.3,2.9s2.3-1.2,2.3-2.9-.6-2.9-2.2-2.9-2.4,1.5-2.4,2.9Z"/>
    <path d="M836.5,22.5c0-.8,0-1.4,0-2h1.2v1.2h0c.4-.7,1.2-1.4,2.5-1.4s2.6.6,2.6,3.2v4.5h-1.4v-4.3c0-1.2-.4-2.2-1.7-2.2s-1.6.6-1.8,1.4c0,.2,0,.4,0,.6v4.5h-1.4v-5.5h.1Z"/>
    <path d="M846.6,18.4v2.1h1.9v1h-1.9v4c0,.9.3,1.4,1,1.4s.6,0,.8-.1v1c-.2.1-.6.2-1.1.2s-1.1-.2-1.5-.6-.5-1.1-.5-1.9v-4.1h-1.2v-1h1.2v-1.8l1.3-.2Z"/>
    <path d="M854.2,28v-.9h0c-.4.6-1.2,1.1-2.3,1.1s-2.3-1.1-2.3-2.1c0-1.8,1.6-2.8,4.5-2.8v-.2c0-.6-.2-1.7-1.7-1.7s-1.4.2-1.9.6l-.3-.9c.6-.4,1.5-.7,2.5-.7,2.3,0,2.8,1.6,2.8,3.1v2.8c0,.6,0,1.3,0,1.8h-1.3ZM854,24.2c-1.5,0-3.2.2-3.2,1.7s.6,1.3,1.3,1.3c1,0,1.6-.6,1.8-1.2,0-.1,0-.3,0-.4v-1.4h0Z"/>
    <path d="M862.8,27.7c-.4.2-1.1.4-2.1.4-2.2,0-3.7-1.5-3.7-3.8s1.6-4,4-4,1.5.2,1.9.4l-.3,1c-.3-.2-.8-.4-1.6-.4-1.7,0-2.6,1.3-2.6,2.8s1.1,2.8,2.6,2.8,1.3-.2,1.7-.4v1.2Z"/>
    <path d="M866.3,18.4v2.1h1.9v1h-1.9v4c0,.9.3,1.4,1,1.4s.6,0,.8-.1v1c-.2.1-.6.2-1.1.2s-1.1-.2-1.5-.6-.5-1.1-.5-1.9v-4.1h-1.2v-1h1.2v-1.8l1.3-.2Z"/>
    <path d="M869.5,26.6c.4.3,1.1.5,1.8.5,1,0,1.4-.5,1.4-1.1s-.4-1-1.4-1.4c-1.3-.5-2-1.2-2-2.1s1-2.2,2.6-2.2,1.4.2,1.8.5l-.3,1c-.3-.2-.8-.4-1.5-.4s-1.2.5-1.2,1,.4.9,1.4,1.3c1.3.5,2,1.1,2,2.3s-1,2.2-2.8,2.2-1.6-.2-2.1-.5l.3-1.1Z"/>
    <path d="M818.1,29.9v-.8h56.6v.8h-56.6Z"/>
  </g>
  <g id="Logo">
    <path class="st2" d="M53.3,19.8c.2,0,.4,0,.6,0,1.1,0,2.3.4,3.5.9.1,0,.3.1.4.2,0,0,.1,0,.2,0l2.4-6.2,2.3,6c0,0,.2,0,.3,0h0s0,0,0,0h0c.2,0,.4,0,.7,0s.1,0,.2,0c0,0,0,0,0,0h0c1.6,0,3,.2,4.4.5l-5.2-13.6h-5.7l-4.8,12.4c.2,0,.4-.1.6-.1Z"/>
    <path class="st3" d="M40.1,21.5c.1,0,2.5-1.7,2.5-1.9h-3.1c-.1,0-.2,0-.3-.2h0c-.3-.9-1-2.9-1.1-2.9-.3,1-.7,2-1,3,0,.1-.1.1-.2.1-.7,0-2.8,0-3.2,0,0,0,1.8,1.3,2.6,1.8.1,0,.2.1.1.3-.3.8-.9,2.7-.9,2.9,0,0,1.6-1.1,2.4-1.7q.3-.2.6,0s1.6,1.1,2.4,1.7c0-.1-.6-2.1-.9-3,0-.1,0-.2,0-.3Z"/>
    <path class="st5" d="M75.9,31.5h0c0-.9-.8-2.8-1.5-3.4.3-.8-.1-1.3-.3-1.6-.1-.2-.6-.3-.8-.4-.7-1.1-2.2-2.1-4.4-2.7-1.4-.4-3-.7-4.9-.7,0,0-.2,0-.3,0-.2,0-.4,0-.6,0-1.7,0-4.3.5-4.9.5h0c-.3,0-.9-.3-1.6-.6-.9-.3-1.9-.7-2.7-.7s-.2,0-.2,0c-.7,0-2.4,1.2-3,1.5-.4.2-1.8.8-2.2,1.1,0,0-.3,0-.4,0-1,.3-1.7,1.5-2,1.7,0-.1-.4-.6-.9-.6s-.1,0-.2,0c-.6.3-.6.7-.6,1-.1,0-.3-.3-.7-.3s-.3,0-.4,0c-.7.4-.3,1-.5,1.2-.3.3-1.1,1.2-1.4,1.7-.1.2,0,.8,0,1.1-.3.7-1.8,1.9-1.9,2.1,0,.1.4.5.8.9.4.4,1,.7,1.3.8.9,0,2.8-.4,3.3-.4h0c.1,0,.3,0,.6.2.3,0,.6.1.9.1s.2,0,.3,0c.4,0,.7-.3,1-.5.4-.4.6-.9,1.1-1.1.4-.2.8-.3,1.2-.3s.4,0,.5,0c-.7,1.3-.6,3.1-.8,3.3-.3.3-.5.6-.7.8-.6,1-.7,1.8-1,2,0,0-.2,0-.3,0-.3,0-.8-.2-1.1-.2s-.2,0-.2,0c-.4.1-1.3,1-1,1.2.1,0,1.6,0,3.2,0h1.4s.9-.8.9-.8h2.2c.2,0,.2-.4,1.1-.8,1.1-.4.6-2.5,1.9-4.1,0,0,.4-.4.5-.4.5,0,1.3.9,4.2.9s3.6-1,4-1,.6.3.6.4c-1.3,2.2,2,4.7,1.7,4.8,0,0,0,0,0,0-.1,0-.4-.2-.9-.2s-.4,0-.6.1c-.5.2-1,.8-.5,1,.1,0,1.4,0,2.7,0s1.4,0,1.9,0c.2,0,.2-.3.1-.6,0-.2,0-.4,0-.5.1-.2.3-.8.6-1.2.3-.4.6-.7.9-.7s.2,0,.4.2c.6.3,2.1.5,2.9.8.3.1.6.3.6.5,0,.1,0,.1-.2.1s-.1,0-.2,0c-.2,0-.5,0-.7,0s-.3,0-.4,0c-.4.1-.8.6-.9.9,0,.2,0,.3.1.3h3.5c.4,0,.3-.8,1.1-2.6.1-.5-1.1-1.2-1.3-2.1-.1-.6-.2-1.8-.3-3Z"/>
    <g>
      <path class="st2" d="M34.8,39.6c3.5,0,6.2-.7,8.5-2l.5-1.3c-.8.1-1.6.2-2.2.2h-.6c-.6-.2-1.3-.6-2.1-1.3-.3-.2-.8-.6-1.2-1.2-.9.2-1.8.3-2.9.3-6.8,0-11.6-4.7-11.6-11.5s5-11.4,11.4-11.4,6.8,1.4,9.7,4.4l2.1-5.3c-3.3-2.7-7.4-4.2-11.7-4.2s-8.7,1.6-11.9,4.5c-3.2,3-5,7.3-5,12.1,0,9.8,6.9,16.7,16.8,16.7Z"/>
      <path class="st4" d="M34.8,39.6c3.5,0,6.2-.7,8.5-2l.5-1.3c-.8.1-1.6.2-2.2.2h-.6c-.6-.2-1.3-.6-2.1-1.3-.3-.2-.8-.6-1.2-1.2-.9.2-1.8.3-2.9.3-4.6,0-8.3-2.2-10.2-5.8h-5.8c2.2,6.6,8.1,10.9,15.9,10.9Z"/>
    </g>
  </g>
</svg>