<?xml version="1.0" encoding="utf-8"?>
<!-- Generator: Adobe Illustrator 27.4.1, SVG Export Plug-In . SVG Version: 6.00 Build 0)  -->
<svg version="1.1" id="Layer_1" xmlns="http://www.w3.org/2000/svg" xmlns:xlink="http://www.w3.org/1999/xlink" x="0px" y="0px"
	 viewBox="0 0 426.6 35.8" style="enable-background:new 0 0 426.6 35.8;" xml:space="preserve">
<style type="text/css">
	.st0{fill:#EEF8FB;}
	.st1{fill:#3B3A48;}
	.st2{fill:#FDB71B;}
	.st3{fill:#233E82;}
</style>
<rect x="-3.9" y="-0.1" class="st0" width="432" height="36.3"/>
<path class="st1" d="M91.9,24.3c-0.5,0-0.9-0.1-1.4-0.2c-0.4-0.1-0.9-0.3-1.2-0.5c-0.4-0.2-0.7-0.5-0.9-0.9
	c-0.2-0.4-0.4-0.8-0.4-1.2h1.4c0.1,0.4,0.2,0.7,0.5,1s0.6,0.5,0.9,0.6c0.4,0.1,0.8,0.2,1.2,0.2c0.5,0,0.9-0.1,1.3-0.2
	s0.7-0.3,0.9-0.6c0.2-0.2,0.3-0.5,0.3-0.9c0-0.3-0.1-0.6-0.2-0.8c-0.1-0.2-0.3-0.4-0.6-0.6s-0.6-0.3-1-0.4l-2-0.5
	c-0.7-0.2-1.3-0.5-1.8-0.9c-0.4-0.4-0.6-1-0.6-1.7c0-0.6,0.2-1.1,0.5-1.5s0.7-0.8,1.3-1c0.5-0.2,1.2-0.4,1.9-0.4
	c0.8,0,1.5,0.1,2,0.4s1,0.6,1.2,1.1c0.3,0.4,0.4,0.9,0.4,1.4h-1.3c0-0.5-0.2-0.8-0.4-1.1c-0.2-0.3-0.5-0.5-0.8-0.6s-0.7-0.2-1.1-0.2
	c-0.3,0-0.6,0-0.8,0.1c-0.3,0.1-0.5,0.2-0.7,0.3s-0.4,0.3-0.5,0.5s-0.2,0.5-0.2,0.7c0,0.4,0.1,0.7,0.4,0.9c0.3,0.2,0.7,0.4,1.4,0.6
	l1.9,0.5c0.5,0.1,0.9,0.3,1.2,0.5c0.3,0.2,0.6,0.4,0.7,0.7c0.2,0.3,0.3,0.5,0.4,0.8s0.1,0.6,0.1,0.9c0,0.5-0.2,1-0.5,1.4
	s-0.7,0.7-1.3,1C93.4,24.2,92.7,24.3,91.9,24.3z M101.1,17.9h-1.6v4.5c0,0.3,0,0.4,0.1,0.6c0.1,0.1,0.1,0.2,0.3,0.2
	c0.1,0,0.3,0,0.5,0h0.8v0.9c-0.1,0-0.2,0.1-0.4,0.1c-0.2,0-0.4,0-0.7,0c-0.5,0-0.9-0.1-1.2-0.2c-0.3-0.1-0.5-0.3-0.6-0.6
	c-0.1-0.3-0.2-0.6-0.2-1v-4.5H97V17h1.2l0.3-2.1h1V17h1.6V17.9z M104.9,24.3c-0.5,0-0.9-0.1-1.2-0.2c-0.4-0.2-0.6-0.4-0.8-0.7
	c-0.2-0.3-0.3-0.7-0.3-1.1c0-0.8,0.3-1.4,0.8-1.8s1.5-0.6,2.7-0.6h1.3v-0.6c0-0.4-0.1-0.8-0.4-1c-0.3-0.3-0.7-0.4-1.2-0.4
	c-0.4,0-0.8,0.1-1.1,0.3c-0.3,0.2-0.5,0.5-0.6,0.9H103c0-0.5,0.2-0.9,0.4-1.2c0.2-0.3,0.6-0.6,1-0.7c0.4-0.2,0.9-0.3,1.5-0.3
	s1.2,0.1,1.6,0.3c0.4,0.2,0.7,0.4,0.9,0.8c0.2,0.3,0.3,0.8,0.3,1.3v5.1h-1.1l-0.1-1.4c-0.3,0.6-0.6,1-1.1,1.2
	C105.9,24.2,105.4,24.3,104.9,24.3z M105.3,23.4c0.2,0,0.5,0,0.7-0.1s0.5-0.2,0.7-0.4c0.2-0.2,0.4-0.3,0.5-0.5s0.2-0.4,0.2-0.6v-1.2
	h-1.1c-0.6,0-1,0.1-1.4,0.2s-0.6,0.3-0.8,0.5c-0.2,0.2-0.3,0.5-0.3,0.9s0.1,0.7,0.4,1C104.5,23.3,104.9,23.4,105.3,23.4z
	 M114.2,17.9h-1.6v4.5c0,0.3,0,0.4,0.1,0.6c0.1,0.1,0.1,0.2,0.3,0.2c0.1,0,0.3,0,0.5,0h0.8v0.9c-0.1,0-0.2,0.1-0.4,0.1
	c-0.2,0-0.4,0-0.7,0c-0.5,0-0.9-0.1-1.2-0.2c-0.3-0.1-0.5-0.3-0.6-0.6c-0.1-0.3-0.2-0.6-0.2-1v-4.5H110V17h1.2l0.3-2.1h1V17h1.6
	L114.2,17.9L114.2,17.9z M116.7,20.9c0,0.5,0.1,0.9,0.2,1.2c0.2,0.4,0.4,0.7,0.7,0.9c0.3,0.2,0.7,0.3,1.2,0.3s0.9-0.1,1.2-0.3
	c0.3-0.2,0.6-0.5,0.6-0.9h1.2c-0.1,0.5-0.3,0.9-0.6,1.2c-0.3,0.3-0.7,0.6-1.1,0.8c-0.4,0.2-0.9,0.3-1.3,0.3c-0.7,0-1.3-0.1-1.8-0.4
	s-0.9-0.7-1.2-1.3c-0.3-0.6-0.4-1.2-0.4-2s0.1-1.4,0.4-2s0.6-1,1.1-1.3s1.1-0.5,1.8-0.5c0.7,0,1.3,0.1,1.7,0.4
	c0.5,0.3,0.8,0.7,1.1,1.2c0.2,0.5,0.4,1.2,0.4,1.9v0.5C121.9,20.9,116.7,20.9,116.7,20.9z M116.8,20h3.9c0-0.4-0.1-0.8-0.2-1.1
	c-0.1-0.3-0.4-0.6-0.6-0.8c-0.3-0.2-0.6-0.3-1.1-0.3s-0.8,0.1-1.1,0.3c-0.3,0.2-0.5,0.5-0.7,0.8C116.8,19.3,116.8,19.6,116.8,20z
	 M129.6,24.3c-0.7,0-1.3-0.1-1.7-0.4c-0.5-0.3-0.9-0.7-1.2-1.3c-0.3-0.6-0.4-1.2-0.4-2s0.1-1.4,0.4-2s0.6-1,1.1-1.3
	c0.5-0.3,1.1-0.5,1.8-0.5s1.2,0.1,1.7,0.4s0.9,0.7,1.1,1.3c0.3,0.6,0.4,1.3,0.4,2.1c0,0.7-0.1,1.4-0.4,1.9c-0.2,0.6-0.6,1-1.1,1.3
	C130.9,24.2,130.3,24.3,129.6,24.3z M129.6,23.3c0.4,0,0.8-0.1,1.1-0.3c0.3-0.2,0.5-0.5,0.7-0.9s0.2-0.9,0.2-1.5
	c0-0.5-0.1-1-0.2-1.4c-0.1-0.4-0.4-0.7-0.7-1c-0.3-0.2-0.7-0.4-1.2-0.4c-0.4,0-0.8,0.1-1.1,0.3c-0.3,0.2-0.5,0.5-0.7,0.9
	s-0.2,0.9-0.2,1.5c0,0.5,0.1,1,0.2,1.4s0.4,0.7,0.7,1C128.7,23.2,129.1,23.3,129.6,23.3z M138.3,16.9v0.9h-1.8v6.3h-1.3v-6.3h-1.5
	v-0.9h1.5v-1.1c0-0.6,0.1-1,0.4-1.3c0.3-0.3,0.7-0.5,1.3-0.5h1.4v0.9h-1.1c-0.3,0-0.5,0.1-0.6,0.2c-0.1,0.2-0.2,0.4-0.2,0.7v1h1.9
	V16.9z M147.2,13.9c0.7,0,1.3,0.1,1.9,0.4c0.6,0.3,1,0.7,1.3,1.2s0.5,1,0.6,1.6h-1.4c-0.1-0.4-0.2-0.8-0.4-1.1
	c-0.2-0.3-0.5-0.6-0.8-0.8s-0.7-0.3-1.2-0.3c-0.6,0-1.1,0.1-1.6,0.4c-0.4,0.3-0.7,0.7-1,1.3c-0.2,0.6-0.3,1.4-0.3,2.3
	c0,1.4,0.2,2.4,0.7,3.1s1.2,1,2.1,1c0.5,0,0.9-0.1,1.2-0.3c0.3-0.2,0.6-0.5,0.8-0.8s0.4-0.7,0.4-1.1h1.4c-0.1,0.4-0.2,0.8-0.4,1.2
	c-0.2,0.4-0.4,0.8-0.7,1.1c-0.3,0.3-0.7,0.6-1.2,0.7c-0.5,0.2-1,0.3-1.6,0.3c-0.9,0-1.7-0.2-2.3-0.6s-1.1-1-1.5-1.8
	c-0.3-0.8-0.5-1.7-0.5-2.8c0-1.1,0.2-2,0.5-2.8c0.3-0.8,0.8-1.4,1.5-1.8C145.5,14.1,146.2,13.9,147.2,13.9z M154.7,24.3
	c-0.5,0-0.9-0.1-1.2-0.2c-0.4-0.2-0.6-0.4-0.8-0.7c-0.2-0.3-0.3-0.7-0.3-1.1c0-0.8,0.3-1.4,0.8-1.8c0.6-0.4,1.5-0.6,2.7-0.6h1.3
	v-0.6c0-0.4-0.1-0.8-0.4-1c-0.3-0.3-0.7-0.4-1.2-0.4c-0.4,0-0.8,0.1-1.1,0.3c-0.3,0.2-0.5,0.5-0.6,0.9h-1.1c0-0.5,0.2-0.9,0.4-1.2
	c0.2-0.3,0.6-0.6,1-0.7c0.4-0.2,0.9-0.3,1.5-0.3s1.2,0.1,1.6,0.3c0.4,0.2,0.7,0.4,0.9,0.8c0.2,0.3,0.3,0.8,0.3,1.3v5.1h-1.1
	l-0.1-1.4c-0.3,0.6-0.6,1-1.1,1.2C155.7,24.2,155.2,24.3,154.7,24.3z M155.1,23.4c0.2,0,0.5,0,0.7-0.1s0.5-0.2,0.7-0.4
	c0.2-0.2,0.4-0.3,0.5-0.5s0.2-0.4,0.2-0.6v-1.2h-1.1c-0.5,0-1,0.1-1.4,0.2s-0.6,0.3-0.8,0.5s-0.3,0.5-0.3,0.9s0.1,0.7,0.4,1
	C154.3,23.3,154.7,23.4,155.1,23.4z M162.4,24.3c-0.4,0-0.7-0.1-1-0.2c-0.2-0.1-0.4-0.3-0.6-0.4c-0.1-0.2-0.2-0.4-0.3-0.6
	c0-0.2-0.1-0.5-0.1-0.7v-8.5h1.3v8.4c0,0.4,0.1,0.6,0.2,0.8c0.1,0.2,0.3,0.3,0.6,0.3h0.4v0.8c-0.1,0-0.2,0.1-0.3,0.1
	C162.6,24.3,162.5,24.3,162.4,24.3z M166.2,16.9v7.2h-1.3v-7.2C164.9,16.9,166.2,16.9,166.2,16.9z M166.2,14.1v1.3h-1.3v-1.3H166.2z
	 M172.5,16.9v0.9h-1.8v6.3h-1.3v-6.3h-1.5v-0.9h1.5v-1.1c0-0.6,0.1-1,0.4-1.3c0.3-0.3,0.7-0.5,1.3-0.5h1.4v0.9h-1.1
	c-0.3,0-0.5,0.1-0.6,0.2c-0.1,0.2-0.2,0.4-0.2,0.7v1h1.9V16.9z M176.9,24.3c-0.7,0-1.2-0.1-1.8-0.4c-0.5-0.3-0.9-0.7-1.2-1.3
	c-0.3-0.6-0.4-1.2-0.4-2s0.1-1.4,0.4-2c0.3-0.6,0.6-1,1.1-1.3s1.1-0.5,1.8-0.5s1.2,0.1,1.7,0.4s0.9,0.7,1.1,1.3
	c0.3,0.6,0.4,1.3,0.4,2.1c0,0.7-0.1,1.4-0.4,1.9c-0.2,0.6-0.6,1-1.1,1.3C178.2,24.2,177.6,24.3,176.9,24.3z M176.9,23.3
	c0.4,0,0.8-0.1,1.1-0.3c0.3-0.2,0.5-0.5,0.7-0.9s0.2-0.9,0.2-1.5c0-0.5-0.1-1-0.2-1.4c-0.1-0.4-0.4-0.7-0.7-1
	c-0.3-0.2-0.7-0.4-1.2-0.4c-0.4,0-0.8,0.1-1.1,0.3c-0.3,0.2-0.5,0.5-0.7,0.9s-0.2,0.9-0.2,1.5c0,0.5,0.1,1,0.2,1.4s0.4,0.7,0.7,1
	C176,23.2,176.4,23.3,176.9,23.3z M181.9,24.2V17h1.2v1.4c0.1-0.3,0.3-0.6,0.5-0.9c0.2-0.2,0.5-0.4,0.7-0.5c0.3-0.1,0.6-0.2,0.9-0.2
	c0.1,0,0.2,0,0.3,0s0.2,0,0.2,0.1v1.3c-0.1,0-0.2-0.1-0.3-0.1s-0.2,0-0.3,0c-0.3,0-0.6,0-0.8,0.1c-0.3,0.1-0.5,0.1-0.7,0.3
	c-0.2,0.1-0.3,0.3-0.5,0.5c-0.1,0.2-0.2,0.5-0.2,0.8v4.5L181.9,24.2L181.9,24.2z M187.3,24.2V17h1.3v1c0.1-0.2,0.3-0.4,0.5-0.6
	s0.5-0.3,0.8-0.4s0.6-0.2,1-0.2c0.5,0,0.9,0.1,1.3,0.3c0.4,0.2,0.7,0.5,0.9,0.9s0.4,0.9,0.4,1.5v4.7h-1.3v-4.6c0-0.6-0.1-1-0.4-1.3
	c-0.3-0.3-0.7-0.4-1.1-0.4c-0.3,0-0.6,0.1-0.9,0.2c-0.3,0.1-0.5,0.3-0.7,0.5s-0.3,0.5-0.3,0.8v4.8C188.8,24.2,187.3,24.2,187.3,24.2
	z M196.8,16.9v7.2h-1.3v-7.2C195.5,16.9,196.8,16.9,196.8,16.9z M196.8,14.1v1.3h-1.3v-1.3H196.8z M201.1,24.3
	c-0.5,0-0.9-0.1-1.2-0.2c-0.4-0.2-0.6-0.4-0.8-0.7c-0.2-0.3-0.3-0.7-0.3-1.1c0-0.8,0.3-1.4,0.8-1.8c0.6-0.4,1.5-0.6,2.7-0.6h1.3
	v-0.6c0-0.4-0.1-0.8-0.4-1c-0.3-0.3-0.7-0.4-1.2-0.4c-0.4,0-0.8,0.1-1.1,0.3c-0.3,0.2-0.5,0.5-0.6,0.9H199c0-0.5,0.2-0.9,0.4-1.2
	c0.2-0.3,0.6-0.6,1-0.7c0.4-0.2,0.9-0.3,1.5-0.3s1.2,0.1,1.6,0.3c0.4,0.2,0.7,0.4,0.9,0.8c0.2,0.3,0.3,0.8,0.3,1.3v5.1h-1.1
	l-0.1-1.4c-0.3,0.6-0.6,1-1.1,1.2C202.1,24.2,201.6,24.3,201.1,24.3z M201.5,23.4c0.2,0,0.5,0,0.7-0.1s0.5-0.2,0.7-0.4
	c0.2-0.2,0.4-0.3,0.5-0.5s0.2-0.4,0.2-0.6v-1.2h-1.1c-0.5,0-1,0.1-1.4,0.2s-0.6,0.3-0.8,0.5s-0.3,0.5-0.3,0.9s0.1,0.7,0.4,1
	C200.7,23.3,201,23.4,201.5,23.4z"/>
<g>
	<path class="st2" d="M68.2,17.5c0.1-0.3,0.3-1.1,0.7-2.4c0.1-0.3,0.3-1,0.7-2c0.4-1,0.7-1.8,0.9-2.5c-0.7,0.5-1.4,1.1-2,1.7
		c-2.4,2.6-5.2,5.7-6.2,7.3c0.4-0.1,1.1-0.9,3.5-1.7C66.6,17.8,67.4,17.6,68.2,17.5z M67.8,19.2c-7.5,0-10.8,12-16,12
		c-1.2,0-2.1-0.5-2.7-1.6c-0.4-0.7-0.6-1.5-0.6-2.3c0-2.2,1-4.9,3.1-8.3c1.8-2.8,3.6-5.1,5.6-6.9c1.7-1.5,3.1-2.2,4.3-2.2
		c0.6,0,1.2,0.3,1.6,0.8c0.3,0.4,0.5,0.9,0.4,1.4c0,1-0.3,2.1-1,3.4c-0.6,1.1-1.3,2.1-2.1,2.9c-0.6,0.5-1,0.8-1.3,0.8
		c-0.2,0-0.4-0.1-0.6-0.3c-0.1-0.1-0.2-0.3-0.2-0.5c0-0.4,0.3-0.8,0.9-1.2c0.8-0.6,1.5-1.3,2.1-2.1c0.8-1.1,1.1-2.1,1.1-2.8
		c0-0.3-0.1-0.5-0.2-0.7c-0.2-0.2-0.4-0.2-0.6-0.2c-0.6,0-1.3,0.4-2.4,1.2c-1.4,1.1-2.6,2.4-3.7,3.7c-1.5,1.8-2.8,3.8-3.8,5.9
		c-0.9,2-1.3,3.7-1.3,5.1c0,0.6,0.2,1.2,0.6,1.7c0.4,0.5,1,0.8,1.6,0.8c2.4-0.1,5.4-5.5,6.3-6.8c9-12.7,9.7-12.7,11.1-14
		c0.8-0.8,1.4-1.1,1.8-1.1c0.3,0,0.5,0.1,0.7,0.3s0.2,0.4,0.3,0.6c-0.1,0.5-0.2,1-0.4,1.5c-0.5,1.2-1,2.6-1.4,4
		c-0.4,1.3-0.6,2.2-0.8,2.9c0.1,0,0.2,0,0.4,0c0.3,0,0.5,0,0.8,0c0.6,0,0.9,0.2,0.9,0.7c0,0.2-0.1,0.4-0.2,0.6s-0.3,0.3-0.4,0.3
		c-0.2,0-0.3,0-0.5,0c-0.4,0-0.9,0-1.3,0.1c-0.1,0.3-0.4,3-0.8,3.1C67.7,23.1,67.8,19.5,67.8,19.2L67.8,19.2z"/>
	<path class="st3" d="M60.4,27.4c0.3,0,0.6,0.1,0.9,0.4c0.2,0.2,0.4,0.5,0.4,0.9c0,0.7-0.5,1.2-1.2,1.2s-1.2-0.5-1.2-1.2
		C59.2,27.9,59.7,27.4,60.4,27.4L60.4,27.4z"/>
	<path class="st3" d="M67.7,24.2L66.9,25c-0.5-0.5-1.1-0.9-1.9-0.9c-0.6,0-1.1,0.2-1.6,0.6c-0.4,0.4-0.6,0.9-0.6,1.5
		s0.2,1.1,0.6,1.5c0.4,0.4,1,0.6,1.6,0.6c0.4,0,0.7-0.1,1-0.3c0.3-0.2,0.5-0.5,0.7-0.8H65v-1.1h3.2v0.3c0,0.5-0.2,1.1-0.4,1.6
		c-0.3,0.5-0.6,0.9-1.1,1.1c-0.5,0.3-1,0.4-1.6,0.4s-1.2-0.1-1.7-0.4s-0.9-0.7-1.2-1.2s-0.4-1.1-0.4-1.7c0-0.8,0.3-1.6,0.8-2.2
		c0.4-0.7,1.4-1.1,2.4-1c0.5,0,1,0.1,1.5,0.3C67,23.5,67.4,23.8,67.7,24.2L67.7,24.2z"/>
	<path class="st3" d="M71.8,23c0.9,0,1.7,0.3,2.3,1c0.6,0.6,1,1.5,1,2.4s-0.3,1.7-0.9,2.3c-1.3,1.3-3.4,1.3-4.6,0l0,0
		c-1.3-1.3-1.3-3.4,0-4.7C70.1,23.3,70.9,23,71.8,23L71.8,23z M71.8,24.2c-0.5,0-1.1,0.2-1.4,0.6c-0.4,0.4-0.6,1-0.6,1.6
		s0.3,1.2,0.8,1.7c0.4,0.3,0.9,0.5,1.3,0.5c0.5,0,1.1-0.2,1.4-0.6c0.8-0.9,0.8-2.2,0-3C72.9,24.4,72.3,24.2,71.8,24.2L71.8,24.2z"/>
	<polygon class="st3" points="74.8,23.2 76.1,23.2 77.6,27.7 79.2,23.2 80.5,23.2 78.2,29.5 77,29.5 	"/>
</g>
</svg>
