<?xml version="1.0" encoding="UTF-8"?>
<svg id="Layer_1" xmlns="http://www.w3.org/2000/svg" version="1.1" viewBox="0 0 426.6 35.8">
  <!-- Generator: Adobe Illustrator 29.1.0, SVG Export Plug-In . SVG Version: 2.1.0 Build 142)  -->
  <defs>
    <style>
      .st0 {
        fill: #eef8fb;
      }

      .st1 {
        fill: #3b3a48;
      }

      .st2 {
        fill: #2e84af;
      }

      .st3 {
        fill: #b81f38;
      }

      .st4 {
        fill: #316030;
      }

      .st5 {
        fill: #683a17;
      }
    </style>
  </defs>
  <rect class="st0" y="-.2" width="428.1" height="36.2"/>
  <path class="st1" d="M90.6,24.4c-.5,0-.9-.1-1.4-.2-.4-.1-.9-.3-1.2-.5-.4-.2-.7-.5-.9-.9-.2-.4-.4-.8-.4-1.2h1.4c0,.4.2.7.5,1s.6.5.9.6c.4.1.8.2,1.2.2s.9-.1,1.3-.2.7-.3.9-.6c.2-.2.3-.5.3-.9s0-.6-.2-.8c0-.2-.3-.4-.6-.6s-.6-.3-1-.4l-2-.5c-.7-.2-1.3-.5-1.8-.9-.4-.4-.6-1-.6-1.7s.2-1.1.5-1.5.7-.8,1.3-1c.5-.2,1.2-.4,1.9-.4s1.5.1,2,.4,1,.6,1.2,1.1c.3.4.4.9.4,1.4h-1.3c0-.5-.2-.8-.4-1.1-.2-.3-.5-.5-.8-.6s-.7-.2-1.1-.2-.6,0-.8.1c-.3.1-.5.2-.7.3s-.4.3-.5.5-.2.5-.2.7c0,.4,0,.7.4.9.3.2.7.4,1.4.6l1.9.5c.5.1.9.3,1.2.5.3.2.6.4.7.7.2.3.3.5.4.8s0,.6,0,.9c0,.5-.2,1-.5,1.4s-.7.7-1.3,1c-.7.5-1.4.6-2.2.6ZM99.8,18h-1.6v4.5c0,.3,0,.4,0,.6,0,.1,0,.2.3.2h1.3v.9c0,0-.2.1-.4.1h-.7c-.5,0-.9-.1-1.2-.2-.3-.1-.5-.3-.6-.6,0-.3-.2-.6-.2-1v-4.5h-1.1v-.9h1.2l.3-2.1h1v2.1h1.6v.9ZM103.6,24.4c-.5,0-.9-.1-1.2-.2-.4-.2-.6-.4-.8-.7-.2-.3-.3-.7-.3-1.1,0-.8.3-1.4.8-1.8s1.5-.6,2.7-.6h1.3v-.6c0-.4,0-.8-.4-1-.3-.3-.7-.4-1.2-.4s-.8.1-1.1.3c-.3.2-.5.5-.6.9h-1.1c0-.5.2-.9.4-1.2.2-.3.6-.6,1-.7.4-.2.9-.3,1.5-.3s1.2.1,1.6.3c.4.2.7.4.9.8.2.3.3.8.3,1.3v5.1h-1.1v-1.4c-.4.6-.7,1-1.2,1.2-.5,0-1,.1-1.5.1ZM104,23.5c.2,0,.5,0,.7-.1s.5-.2.7-.4c.2-.2.4-.3.5-.5s.2-.4.2-.6v-1.2h-1.1c-.6,0-1,.1-1.4.2s-.6.3-.8.5c-.2.2-.3.5-.3.9s0,.7.4,1c.3.1.7.2,1.1.2ZM112.9,18h-1.6v4.5c0,.3,0,.4,0,.6,0,.1,0,.2.3.2h1.3v.9c0,0-.2.1-.4.1h-.7c-.5,0-.9-.1-1.2-.2-.3-.1-.5-.3-.6-.6,0-.3-.2-.6-.2-1v-4.5h-1.2v-.9h1.2l.3-2.1h1v2.1h1.6v.9h0ZM115.4,21c0,.5,0,.9.2,1.2.2.4.4.7.7.9.3.2.7.3,1.2.3s.9-.1,1.2-.3c.3-.2.6-.5.6-.9h1.2c0,.5-.3.9-.6,1.2-.3.3-.7.6-1.1.8-.4.2-.9.3-1.3.3-.7,0-1.3-.1-1.8-.4s-.9-.7-1.2-1.3c-.3-.6-.4-1.2-.4-2s0-1.4.4-2,.6-1,1.1-1.3,1.1-.5,1.8-.5,1.3.1,1.7.4c.5.3.8.7,1.1,1.2.2.5.4,1.2.4,1.9v.5s-5.2,0-5.2,0ZM115.5,20.1h3.9c0-.4,0-.8-.2-1.1,0-.3-.4-.6-.6-.8-.3-.2-.6-.3-1.1-.3s-.8.1-1.1.3c-.3.2-.5.5-.7.8-.2.4-.2.7-.2,1.1ZM128.3,24.4c-.7,0-1.3-.1-1.7-.4-.5-.3-.9-.7-1.2-1.3-.3-.6-.4-1.2-.4-2s0-1.4.4-2,.6-1,1.1-1.3c.5-.3,1.1-.5,1.8-.5s1.2.1,1.7.4.9.7,1.1,1.3c.3.6.4,1.3.4,2.1s-.1,1.4-.4,1.9c-.2.6-.6,1-1.1,1.3-.4.4-1,.5-1.7.5ZM128.3,23.4c.4,0,.8-.1,1.1-.3.3-.2.5-.5.7-.9s.2-.9.2-1.5-.1-1-.2-1.4c-.1-.4-.4-.7-.7-1-.3-.2-.7-.4-1.2-.4s-.8.1-1.1.3c-.3.2-.5.5-.7.9s-.2.9-.2,1.5,0,1,.2,1.4.4.7.7,1c.3.3.7.4,1.2.4ZM137,17v.9h-1.8v6.3h-1.3v-6.3h-1.5v-.9h1.5v-1.1c0-.6.1-1,.4-1.3.3-.3.7-.5,1.3-.5h1.4v.9h-1.1c-.3,0-.5.1-.6.2-.1.2-.2.4-.2.7v1h1.9ZM145.9,14c.7,0,1.3.1,1.9.4.6.3,1,.7,1.3,1.2s.5,1,.6,1.6h-1.4c-.1-.4-.2-.8-.4-1.1-.2-.3-.5-.6-.8-.8s-.7-.3-1.2-.3-1.1.1-1.6.4c-.4.3-.7.7-1,1.3-.2.6-.3,1.4-.3,2.3,0,1.4.2,2.4.7,3.1s1.2,1,2.1,1,.9-.1,1.2-.3c.3-.2.6-.5.8-.8s.4-.7.4-1.1h1.4c-.1.4-.2.8-.4,1.2-.2.4-.4.8-.7,1.1-.3.3-.7.6-1.2.7-.5.2-1,.3-1.6.3-.9,0-1.7-.2-2.3-.6s-1.1-1-1.5-1.8c-.3-.8-.5-1.7-.5-2.8s.2-2,.5-2.8c.3-.8.8-1.4,1.5-1.8.8-.2,1.5-.4,2.5-.4ZM153.4,24.4c-.5,0-.9-.1-1.2-.2-.4-.2-.6-.4-.8-.7-.2-.3-.3-.7-.3-1.1,0-.8.3-1.4.8-1.8.6-.4,1.5-.6,2.7-.6h1.3v-.6c0-.4-.1-.8-.4-1-.3-.3-.7-.4-1.2-.4s-.8.1-1.1.3c-.3.2-.5.5-.6.9h-1.1c0-.5.2-.9.4-1.2.2-.3.6-.6,1-.7.4-.2.9-.3,1.5-.3s1.2.1,1.6.3c.4.2.7.4.9.8.2.3.3.8.3,1.3v5.1h-1.1v-1.4c-.4.6-.7,1-1.2,1.2-.5,0-1,.1-1.5.1ZM153.8,23.5c.2,0,.5,0,.7-.1s.5-.2.7-.4c.2-.2.4-.3.5-.5s.2-.4.2-.6v-1.2h-1.1c-.5,0-1,.1-1.4.2s-.6.3-.8.5-.3.5-.3.9.1.7.4,1c.3.1.7.2,1.1.2ZM161.1,24.4c-.4,0-.7-.1-1-.2-.2-.1-.4-.3-.6-.4-.1-.2-.2-.4-.3-.6,0-.2-.1-.5-.1-.7v-8.5h1.3v8.4c0,.4.1.6.2.8.1.2.3.3.6.3h.4v.8c-.1,0-.2.1-.3.1,0,0,0,0-.2,0ZM164.9,17v7.2h-1.3v-7.2s1.3,0,1.3,0ZM164.9,14.2v1.3h-1.3v-1.3h1.3ZM171.2,17v.9h-1.8v6.3h-1.3v-6.3h-1.5v-.9h1.5v-1.1c0-.6.1-1,.4-1.3.3-.3.7-.5,1.3-.5h1.4v.9h-1.1c-.3,0-.5.1-.6.2-.1.2-.2.4-.2.7v1h1.9ZM175.6,24.4c-.7,0-1.2-.1-1.8-.4-.5-.3-.9-.7-1.2-1.3-.3-.6-.4-1.2-.4-2s.1-1.4.4-2c.3-.6.6-1,1.1-1.3s1.1-.5,1.8-.5,1.2.1,1.7.4.9.7,1.1,1.3c.3.6.4,1.3.4,2.1s-.1,1.4-.4,1.9c-.2.6-.6,1-1.1,1.3-.3.4-.9.5-1.6.5ZM175.6,23.4c.4,0,.8-.1,1.1-.3.3-.2.5-.5.7-.9s.2-.9.2-1.5-.1-1-.2-1.4c-.1-.4-.4-.7-.7-1-.3-.2-.7-.4-1.2-.4s-.8.1-1.1.3c-.3.2-.5.5-.7.9s-.2.9-.2,1.5.1,1,.2,1.4.4.7.7,1c.3.3.7.4,1.2.4ZM180.6,24.3v-7.2h1.2v1.4c.1-.3.3-.6.5-.9.2-.2.5-.4.7-.5.3-.1.6-.2.9-.2h.3c.1,0,.2,0,.2.1v1.3c-.1,0-.2-.1-.3-.1h-.3c-.3,0-.6,0-.8.1-.3.1-.5.1-.7.3-.2.1-.3.3-.5.5-.1.2-.2.5-.2.8v4.5h-1ZM186,24.3v-7.2h1.3v1c.1-.2.3-.4.5-.6s.5-.3.8-.4.6-.2,1-.2.9.1,1.3.3c.4.2.7.5.9.9s.4.9.4,1.5v4.7h-1.3v-4.6c0-.6-.1-1-.4-1.3-.3-.3-.7-.4-1.1-.4s-.6.1-.9.2c-.3.1-.5.3-.7.5s-.3.5-.3.8v4.8s-1.5,0-1.5,0ZM195.5,17v7.2h-1.3v-7.2s1.3,0,1.3,0ZM195.5,14.2v1.3h-1.3v-1.3h1.3ZM199.8,24.4c-.5,0-.9-.1-1.2-.2-.4-.2-.6-.4-.8-.7-.2-.3-.3-.7-.3-1.1,0-.8.3-1.4.8-1.8.6-.4,1.5-.6,2.7-.6h1.3v-.6c0-.4-.1-.8-.4-1-.3-.3-.7-.4-1.2-.4s-.8.1-1.1.3c-.3.2-.5.5-.6.9h-1.3c0-.5.2-.9.4-1.2.2-.3.6-.6,1-.7.4-.2.9-.3,1.5-.3s1.2.1,1.6.3c.4.2.7.4.9.8.2.3.3.8.3,1.3v5.1h-1.1v-1.4c-.4.6-.7,1-1.2,1.2-.3,0-.8.1-1.3.1ZM200.2,23.5c.2,0,.5,0,.7-.1s.5-.2.7-.4c.2-.2.4-.3.5-.5s.2-.4.2-.6v-1.2h-1.1c-.5,0-1,.1-1.4.2s-.6.3-.8.5-.3.5-.3.9.1.7.4,1c.3.1.6.2,1.1.2Z"/>
  <g>
    <path d="M258.4,20.2l-1.1,3.3h-1.4l3.5-10.4h1.6l3.5,10.4h-1.4l-1.1-3.3h-3.6ZM261.8,19.1l-1-3c-.2-.7-.4-1.3-.5-1.9h0c-.2.6-.3,1.2-.5,1.9l-1,3h3Z"/>
    <path d="M266,23.4c0-.5.1-1.3.1-1.9v-9h1.3v4.7h0c.5-.8,1.3-1.4,2.5-1.4,1.8,0,3.2,1.5,3.1,3.8,0,2.7-1.7,4-3.3,4s-1.9-.4-2.5-1.4h0v1.2h-1.2ZM267.4,20.4c0,.2,0,.3.1.5.3.9,1,1.6,2,1.6s2.3-1.2,2.3-2.9-.8-2.8-2.2-2.8-1.8.6-2.1,1.7c0,.2-.1.3-.1.6v1.3h0Z"/>
    <path d="M281.6,19.6c0,2.8-1.9,4-3.7,4s-3.6-1.5-3.6-3.8,1.6-4,3.7-4c2.2,0,3.6,1.6,3.6,3.8ZM275.7,19.7c0,1.6.9,2.9,2.3,2.9s2.3-1.2,2.3-2.9-.6-2.9-2.2-2.9-2.4,1.5-2.4,2.9Z"/>
    <path d="M289.6,21.4c0,.8,0,1.4.1,2h-1.2v-1.2h-.1c-.4.6-1.1,1.4-2.5,1.4s-2.6-.6-2.6-3.3v-4.4h1.4v4.2c0,1.4.4,2.4,1.7,2.4s1.5-.6,1.8-1.2c.1-.2.1-.4.1-.7v-4.6h1.4v5.4h0Z"/>
    <path d="M293.4,13.8v2.1h1.9v1h-1.9v4c0,.9.3,1.4,1,1.4s.6,0,.8-.1v1c-.2.1-.6.2-1.1.2s-1.1-.2-1.5-.6-.5-1.1-.5-1.9v-4.1h-1.2v-1h1.2v-1.8l1.3-.2Z"/>
    <path d="M306.4,21.4c0,.8,0,1.4.1,2h-1.2v-1.2h-.1c-.4.6-1.1,1.4-2.5,1.4s-2.6-.6-2.6-3.3v-4.4h1.4v4.2c0,1.4.4,2.4,1.7,2.4s1.5-.6,1.8-1.2c.1-.2.1-.4.1-.7v-4.6h1.4v5.4h0Z"/>
    <path d="M308.5,22c.4.3,1.1.5,1.8.5,1,0,1.4-.5,1.4-1.1s-.4-1-1.4-1.4c-1.3-.5-2-1.2-2-2.1s1-2.2,2.6-2.2,1.4.2,1.8.5l-.3,1c-.3-.2-.8-.4-1.5-.4s-1.2.5-1.2,1,.4.9,1.4,1.3c1.3.5,2,1.1,2,2.3s-1,2.2-2.8,2.2-1.6-.2-2.1-.5l.3-1.1Z"/>
    <path d="M255.6,25.4v-.8h58.1v.8h-58.1Z"/>
  </g>
  <g>
    <path d="M342.5,23.1c-.5.2-1.5.5-2.7.5-2.9,0-5.1-1.8-5.1-5.3s2.2-5.5,5.4-5.5,2.1.3,2.5.5l-.3,1.1c-.5-.2-1.2-.4-2.1-.4-2.4,0-4.1,1.6-4.1,4.3s1.5,4.2,4,4.2,1.6-.2,2.2-.4l.2,1Z"/>
    <path d="M350.8,19.6c0,2.8-1.9,4-3.7,4s-3.6-1.5-3.6-3.8,1.6-4,3.7-4c2.1,0,3.6,1.6,3.6,3.8ZM344.8,19.7c0,1.6.9,2.9,2.3,2.9s2.3-1.2,2.3-2.9-.6-2.9-2.2-2.9-2.4,1.5-2.4,2.9Z"/>
    <path d="M352.5,18c0-.8,0-1.4-.1-2h1.2v1.2h.1c.4-.7,1.2-1.4,2.5-1.4s2.6.6,2.6,3.2v4.5h-1.4v-4.4c0-1.2-.4-2.2-1.7-2.2s-1.6.6-1.8,1.4c-.1.2-.1.4-.1.6v4.5h-1.4v-5.4h0Z"/>
    <path d="M362.6,13.8v2.1h1.9v1h-1.9v4c0,.9.3,1.4,1,1.4s.6,0,.8-.1v1c-.2.1-.6.2-1.1.2s-1.1-.2-1.5-.6-.5-1.1-.5-1.9v-4.1h-1.2v-1h1.2v-1.8l1.3-.2Z"/>
    <path d="M370.2,23.4v-.9h-.1c-.4.6-1.2,1.1-2.3,1.1s-2.3-1.1-2.3-2.1c0-1.8,1.6-2.8,4.5-2.8v-.2c0-.6-.2-1.7-1.7-1.7s-1.4.2-1.9.6l-.3-.9c.6-.4,1.5-.7,2.5-.7,2.3,0,2.8,1.6,2.8,3.1v2.8c0,.6,0,1.3.1,1.8h-1.3ZM370,19.6c-1.5,0-3.2.2-3.2,1.7s.6,1.3,1.3,1.3c1,0,1.6-.6,1.8-1.2,0-.1.1-.3.1-.4v-1.4h0Z"/>
    <path d="M378.8,23.1c-.4.2-1.1.4-2.1.4-2.2,0-3.7-1.5-3.7-3.8s1.6-4,4-4,1.5.2,1.9.4l-.3,1c-.3-.2-.8-.4-1.6-.4-1.7,0-2.6,1.3-2.6,2.8s1.1,2.8,2.6,2.8,1.3-.2,1.7-.4v1.2Z"/>
    <path d="M382.2,13.8v2.1h1.9v1h-1.9v4c0,.9.3,1.4,1,1.4s.6,0,.8-.1v1c-.2.1-.6.2-1.1.2s-1.1-.2-1.5-.6-.5-1.1-.5-1.9v-4.1h-1.2v-1h1.2v-1.8l1.3-.2Z"/>
    <path d="M385.5,22c.4.3,1.1.5,1.8.5,1,0,1.4-.5,1.4-1.1s-.4-1-1.4-1.4c-1.3-.5-2-1.2-2-2.1s1-2.2,2.6-2.2,1.4.2,1.8.5l-.3,1c-.3-.2-.8-.4-1.5-.4s-1.2.5-1.2,1,.4.9,1.4,1.3c1.3.5,2,1.1,2,2.3s-1,2.2-2.8,2.2-1.6-.2-2.1-.5l.3-1.1Z"/>
    <path d="M334.1,25.4v-.8h56.6v.8h-56.6Z"/>
  </g>
  <g id="Logo">
    <path class="st2" d="M60.7,15.5c.2,0,.3,0,.4,0,.9,0,1.8.3,2.7.7.1,0,.2,0,.3.1,0,0,0,0,.2,0l1.8-4.7,1.7,4.5c0,0,.1,0,.2,0h0s0,0,0,0h0c.2,0,.3,0,.5,0s.1,0,.2,0c0,0,0,0,0,0h0c1.2,0,2.3.2,3.4.4l-4-10.3h-4.3l-3.6,9.5c.2,0,.3,0,.5-.1Z"/>
    <path class="st3" d="M50.6,16.9c.1,0,1.9-1.3,1.9-1.4h-2.4c0,0-.2,0-.2-.1h0c-.2-.7-.7-2.2-.8-2.2-.2.8-.5,1.5-.7,2.3,0,0,0,0-.2,0-.5,0-2.1,0-2.5,0,0,0,1.3,1,2,1.4,0,0,.1,0,0,.2-.2.6-.7,2.1-.7,2.2,0,0,1.2-.8,1.8-1.3q.2-.2.5,0s1.2.9,1.8,1.3c0-.1-.5-1.6-.7-2.3,0,0,0-.1,0-.2Z"/>
    <path class="st5" d="M77.8,24.4h0c0-.7-.6-2.1-1.1-2.6.2-.6,0-1-.3-1.2-.1-.1-.4-.2-.6-.3-.5-.8-1.7-1.6-3.3-2-1.1-.3-2.3-.5-3.7-.5,0,0-.1,0-.2,0-.1,0-.3,0-.5,0-1.3,0-3.3.4-3.7.4h0c-.2,0-.7-.2-1.2-.4-.7-.3-1.4-.5-2-.5s-.1,0-.2,0c-.5,0-1.8.9-2.3,1.1-.3.2-1.4.6-1.7.8,0,0-.2,0-.3,0-.7.2-1.3,1.1-1.5,1.3,0,0-.3-.5-.7-.5s0,0-.1,0c-.5.2-.4.6-.4.7,0,0-.2-.2-.5-.2s-.2,0-.3,0c-.5.3-.2.8-.4.9-.2.3-.8.9-1.1,1.3,0,.2,0,.6,0,.8-.2.5-1.3,1.4-1.4,1.6,0,0,.3.4.6.7.3.3.7.5,1,.6.7,0,2.2-.3,2.5-.3h0c0,0,.3,0,.5.1.2,0,.4,0,.7,0s.1,0,.2,0c.3,0,.6-.2.7-.4.3-.3.5-.7.8-.9.3-.1.6-.2.9-.2s.3,0,.4,0c-.6,1-.4,2.3-.6,2.5-.2.2-.4.4-.5.6-.5.7-.5,1.4-.8,1.5,0,0-.1,0-.2,0-.3,0-.6-.1-.9-.1s-.1,0-.2,0c-.3.1-1,.7-.7.9,0,0,1.2,0,2.4,0h1s.7-.6.7-.6h1.7c.2,0,.1-.3.9-.6.8-.3.4-1.9,1.5-3.1,0,0,.3-.3.4-.3.4,0,1,.7,3.2.7s2.7-.8,3-.8.5.2.5.3c-1,1.7,1.5,3.5,1.3,3.7,0,0,0,0,0,0,0,0-.3-.1-.7-.1s-.3,0-.5,0c-.4.1-.7.6-.4.8,0,0,1.1,0,2,0s1.1,0,1.5,0c.1,0,.1-.3.1-.5,0-.2,0-.3,0-.4.1-.1.2-.6.5-.9.3-.3.5-.5.7-.5s.2,0,.3.1c.5.3,1.6.4,2.2.6.3,0,.4.2.5.3,0,0,0,.1-.2.1s0,0-.1,0c-.2,0-.4,0-.6,0s-.2,0-.3,0c-.3.1-.6.4-.7.6,0,.1,0,.2,0,.2h2.6c.3,0,.2-.6.9-1.9,0-.4-.8-.9-1-1.6,0-.5-.2-1.4-.2-2.3Z"/>
    <g>
      <path class="st2" d="M46.6,30.5c2.7,0,4.7-.5,6.5-1.5l.4-1c-.6,0-1.2.2-1.7.2h-.4c-.5-.2-1-.5-1.6-1-.2-.2-.6-.5-.9-.9-.7.2-1.4.2-2.2.2-5.2,0-8.8-3.6-8.8-8.8s3.8-8.7,8.7-8.7,5.2,1.1,7.4,3.3l1.6-4c-2.5-2.1-5.6-3.2-8.9-3.2s-6.6,1.2-9,3.5c-2.5,2.3-3.8,5.6-3.8,9.2,0,7.5,5.2,12.7,12.8,12.7Z"/>
      <path class="st4" d="M46.6,30.5c2.7,0,4.7-.5,6.5-1.5l.4-1c-.6,0-1.2.2-1.7.2h-.4c-.5-.2-1-.5-1.6-1-.2-.2-.6-.5-.9-.9-.7.2-1.4.2-2.2.2-3.5,0-6.3-1.7-7.8-4.4h-4.4c1.6,5,6.2,8.3,12.1,8.3Z"/>
    </g>
  </g>
</svg>