<svg width="139" height="138" viewBox="0 0 139 138" fill="none" xmlns="http://www.w3.org/2000/svg">
<circle cx="69.5" cy="69" r="69" fill="#4993B5"/>
<g clip-path="url(#clip0_403_7544)">
<path d="M85.1226 69.7547L69.7453 54.3774L85.1226 39L100.5 54.3774L85.1226 69.7547ZM40.5 65.1321V43.2453H62.2925V65.1321H40.5ZM74.2736 98.9057V77.1132H96.1604V98.9057H74.2736ZM40.5 98.9057V77.1132H62.2925V98.9057H40.5ZM43.3302 62.2075H59.3679V46.1698H43.3302V62.2075ZM85.3113 65.8868L96.6321 54.6604L85.3113 43.2453L73.9906 54.6604L85.3113 65.8868ZM77.1981 96.0755H93.2359V80.0377H77.1981V96.0755ZM43.3302 96.0755H59.3679V80.0377H43.3302V96.0755Z" fill="white"/>
<rect x="43.5" y="46" width="16" height="17" fill="white" fill-opacity="0.2"/>
<rect x="43.5" y="79" width="16" height="17" fill="white" fill-opacity="0.2"/>
<rect x="77.5" y="79" width="16" height="17" fill="white" fill-opacity="0.2"/>
</g>
<defs>
<clipPath id="clip0_403_7544">
<rect width="60" height="59.9057" fill="white" transform="translate(40.5 39)"/>
</clipPath>
</defs>
</svg>
