<?xml version="1.0" encoding="utf-8"?>
<!-- Generator: Adobe Illustrator 24.3.2, SVG Export Plug-In . SVG Version: 6.00 Build 0)  -->
<svg version="1.1" id="Layer_4" xmlns="http://www.w3.org/2000/svg" xmlns:xlink="http://www.w3.org/1999/xlink" x="0px" y="0px"
	 viewBox="0 0 130.4 94.9" style="enable-background:new 0 0 130.4 94.9;" xml:space="preserve">
<style type="text/css">
	.st0{fill:#FDB71C;}
	.st1{fill:#003688;}
</style>
<path class="st0" d="M79.9,39.8c0.3-1.1,1.2-4.2,2.7-9.1c0.3-1.3,1.2-3.8,2.7-7.7c1.4-4,2.6-7.1,3.4-9.5c-2.8,1.9-5.3,4.2-7.6,6.7
	c-9.2,10-20,22-23.8,28.3c1.4-0.4,4.3-3.4,13.6-6.6C73.8,40.8,76.8,40.1,79.9,39.8z M78.3,46.2c-29.1,0-41.8,46.4-62,46.4
	c-4.6,0-8.1-2.1-10.6-6.2c-1.6-2.7-2.5-5.8-2.4-9c0-8.4,4-19.1,12-32c6.8-11,14-19.8,21.6-26.5c6.5-5.8,12.1-8.6,16.8-8.6
	c2.4-0.1,4.6,1,6.1,2.9c1.2,1.6,1.8,3.5,1.7,5.4c0,3.8-1.3,8.1-3.8,13c-2.2,4.2-5,8-8.3,11.3c-2.3,2.1-4,3.1-5.2,3.1
	c-0.9-0.1-1.7-0.5-2.2-1.2c-0.5-0.5-0.8-1.3-0.8-2c0-1.4,1.2-2.9,3.6-4.7c3.1-2.3,5.8-5.1,8-8.2c2.9-4.3,4.4-8,4.4-11
	c0.1-1-0.2-1.9-0.8-2.7c-0.6-0.6-1.5-0.9-2.4-0.9c-2.2,0-5.2,1.6-9.2,4.7c-5.3,4.3-10.1,9.1-14.3,14.4C24.6,41.3,19.7,49,15.9,57.2
	c-3.4,7.8-5.2,14.4-5.2,19.9c-0.1,2.4,0.8,4.8,2.3,6.7c1.4,2,3.7,3.2,6.2,3.1c9.2-0.3,20.7-21.4,24.3-26.3
	C78.7,12,81.4,11.9,86.7,6.8c3.1-3,5.5-4.4,7.1-4.4c1,0,2,0.5,2.6,1.2s0.9,1.6,1,2.5c-0.2,2-0.8,3.9-1.6,5.8
	c-1.9,4.8-3.7,10-5.4,15.5c-1.5,4.9-2.5,8.6-3,11.2c0.5,0,0.9,0,1.4-0.1c1.1,0,2.1-0.1,2.9-0.1c2.3,0,3.4,0.9,3.4,2.6
	c0,0.8-0.3,1.6-0.7,2.2c-0.4,0.6-1,1.1-1.7,1.3c-0.6,0.1-1.3,0.1-1.9,0.1c-1.7-0.1-3.3,0.1-5,0.4c-0.4,1.2-1.5,11.7-3.1,12.1
	C77.8,61.4,78.2,47.6,78.3,46.2L78.3,46.2z"/>
<path class="st1" d="M49.5,77.9c1.2,0,2.4,0.5,3.3,1.4c0.9,0.9,1.4,2,1.4,3.3c0,2.6-2.1,4.6-4.6,4.6c-2.6,0-4.6-2.1-4.6-4.6
	C44.9,80,46.9,77.9,49.5,77.9L49.5,77.9z"/>
<path class="st1" d="M77.9,65.6l-3.3,3.2c-1.8-2.1-4.4-3.3-7.2-3.3c-2.2-0.1-4.4,0.8-6,2.4c-1.6,1.5-2.5,3.6-2.4,5.8
	c0,2.2,0.9,4.4,2.5,5.9c1.6,1.6,3.9,2.5,6.2,2.4c1.4,0,2.8-0.3,4-1c1.2-0.8,2.1-1.9,2.6-3.1h-7v-4.3h12.2v1c0,2.1-0.6,4.2-1.7,6
	c-1,1.8-2.5,3.3-4.3,4.4c-1.9,1-4,1.6-6.2,1.5c-2.4,0-4.7-0.5-6.7-1.6s-3.6-2.7-4.7-4.7c-1.1-2-1.7-4.3-1.7-6.6
	c0-3.1,1.1-6.1,3.2-8.4c2.5-2.8,6.1-4.4,9.9-4.2c2,0,4,0.4,5.9,1.2C75,63,76.6,64.2,77.9,65.6L77.9,65.6z"/>
<path class="st1" d="M93.8,61.1c3.3,0,6.5,1.3,8.9,3.7c2.4,2.4,3.8,5.7,3.7,9.1c0.1,3.4-1.2,6.6-3.6,9c-5,4.9-13,4.9-17.9,0
	c0,0,0,0-0.1-0.1c-4.9-5-4.9-13.1,0.1-18C87.2,62.4,90.4,61.1,93.8,61.1L93.8,61.1z M93.7,65.6c-2.1,0-4.2,0.8-5.6,2.3
	c-1.5,1.6-2.4,3.7-2.3,6c-0.1,2.5,1,4.8,2.9,6.4c1.4,1.2,3.3,1.9,5.1,1.8c2.1,0,4.1-0.8,5.6-2.4c3.1-3.3,3.1-8.4,0-11.7
	C97.9,66.4,95.8,65.6,93.7,65.6L93.7,65.6z"/>
<polygon class="st1" points="105.5,62 110.2,62 116.3,79.2 122.5,62 127.2,62 118.5,86.2 114,86.2 "/>
</svg>
