<svg width="111" height="111" viewBox="0 0 111 111" fill="none" xmlns="http://www.w3.org/2000/svg">
<circle cx="55.5" cy="55.5" r="54.5" fill="#4993B5" stroke="#4993B5" stroke-width="2"/>
<g clip-path="url(#clip0_2_771)">
<path d="M55.3704 83C54.1156 83 53.0726 82.6415 52.2415 81.9407C51.4104 81.24 50.9867 80.3111 50.9867 79.1704H48.6237C47.9719 79.1704 47.3852 78.9096 46.8637 78.4044C46.3422 77.883 46.0815 77.3126 46.0815 76.6444V66.7852C42.4963 64.8296 39.7585 62.2059 37.8519 58.9304C35.9452 55.6548 35 52.1185 35 48.3704C35 42.6667 36.9719 37.843 40.8993 33.8993C44.843 29.9719 49.6667 28 55.3704 28C61.0741 28 65.8978 29.9719 69.8415 33.8993C73.7852 37.843 75.7407 42.6667 75.7407 48.3704C75.7407 52.1185 74.7956 55.6385 72.8889 58.9304C70.9822 62.2222 68.2444 64.8296 64.6593 66.7852V76.6444C64.6593 77.2963 64.3985 77.883 63.877 78.4044C63.3556 78.9259 62.7852 79.1704 62.117 79.1704H59.7541C59.7541 80.3111 59.3304 81.24 58.4993 81.9407C57.6681 82.6415 56.6089 83 55.3541 83H55.3704ZM48.6074 76.6444H62.1333V73.2222H48.6074V76.6444ZM48.6074 70.6963H62.1333V67.3556H48.6074V70.6963ZM47.8741 64.8296H54.1481V53.5852L47.2222 46.6593L48.9333 45.0296L55.3704 51.5481L61.8074 45.0296L63.5185 46.6593L56.5926 53.5852V64.8296H62.8667C65.963 63.4119 68.4563 61.2281 70.363 58.2785C72.2696 55.3126 73.2148 52.0207 73.2148 48.3704C73.2148 43.3674 71.4874 39.1467 68.0489 35.7081C64.5941 32.2533 60.3733 30.5422 55.3704 30.5259C50.3674 30.5259 46.1467 32.2533 42.7081 35.7081C39.2696 39.163 37.5259 43.3674 37.5259 48.3704C37.5259 52.0044 38.4711 55.3126 40.3778 58.2785C42.2844 61.2444 44.7778 63.4282 47.8741 64.8296Z" fill="white"/>
<rect x="48" y="66" width="15" height="11" fill="white" fill-opacity="0.5"/>
</g>
<defs>
<clipPath id="clip0_2_771">
<rect width="40.7407" height="55" fill="white" transform="translate(35 28)"/>
</clipPath>
</defs>
</svg>
