<svg width="1440" height="500" viewBox="0 0 1440 500" fill="none" xmlns="http://www.w3.org/2000/svg">
<rect width="1440" height="500" fill="url(#paint0_linear_401_7597)"/>
<mask id="mask0_401_7597" style="mask-type:alpha" maskUnits="userSpaceOnUse" x="0" y="0" width="1440" height="498">
<path d="M0 0H1440V498H0V0Z" fill="#D9D9D9"/>
</mask>
<g mask="url(#mask0_401_7597)">
</g>
<mask id="mask1_401_7597" style="mask-type:alpha" maskUnits="userSpaceOnUse" x="0" y="0" width="1440" height="498">
<path d="M0 0H1440V498H0V0Z" fill="#D9D9D9"/>
</mask>
<g mask="url(#mask1_401_7597)">
<path d="M0 0L659.5 0L825.5 500H0V0Z" fill="#046B99"/>
<path d="M0 0L659.5 0L825.5 500H0V0Z" fill="#323A45" fill-opacity="0.8"/>
<path d="M-83 0L-67.5 0L98.5 500H-83V0Z" fill="#4993B5"/>
<path d="M-83 0L-67.5 0L98.5 500H-83V0Z" fill="#323A45" fill-opacity="0.75"/>
<path d="M1440 0H1233L1067 500H1440V0Z" fill="#4993B5"/>
<path d="M1440 0H1233L1067 500H1440V0Z" fill="#323A45" fill-opacity="0.7"/>
</g>
<defs>
<linearGradient id="paint0_linear_401_7597" x1="1172" y1="500" x2="1857.5" y2="2.01292e-05" gradientUnits="userSpaceOnUse">
<stop stop-color="#323A45"/>
<stop offset="1" stop-color="#046B99" stop-opacity="0.74"/>
</linearGradient>
</defs>
</svg>
