<svg width="98" height="100" viewBox="0 0 98 100" fill="none" xmlns="http://www.w3.org/2000/svg">
<mask id="path-1-inside-1_2_653" fill="white">
<path fill-rule="evenodd" clip-rule="evenodd" d="M24.5906 45.0819H57.3775V49.1803V54.918V82.7868H82.7873V92.6229H47.5414V86.0655V82.7868L47.5414 54.918H24.5906V45.0819Z"/>
</mask>
<path fill-rule="evenodd" clip-rule="evenodd" d="M24.5906 45.0819H57.3775V49.1803V54.918V82.7868H82.7873V92.6229H47.5414V86.0655V82.7868L47.5414 54.918H24.5906V45.0819Z" fill="#FDB81E"/>
<path d="M57.3775 45.0819H58.3775V44.0819H57.3775V45.0819ZM24.5906 45.0819V44.0819H23.5906V45.0819H24.5906ZM57.3775 82.7868H56.3775V83.7868H57.3775V82.7868ZM82.7873 82.7868H83.7873V81.7868H82.7873V82.7868ZM82.7873 92.6229V93.6229H83.7873V92.6229H82.7873ZM47.5414 92.6229H46.5414V93.6229H47.5414V92.6229ZM47.5414 82.7868H46.5414H47.5414ZM47.5414 54.918H48.5414V53.918H47.5414V54.918ZM24.5906 54.918H23.5906V55.918H24.5906V54.918ZM57.3775 44.0819H24.5906V46.0819H57.3775V44.0819ZM58.3775 49.1803V45.0819H56.3775V49.1803H58.3775ZM58.3775 54.918V49.1803H56.3775V54.918H58.3775ZM58.3775 82.7868V54.918H56.3775V82.7868H58.3775ZM57.3775 83.7868H82.7873V81.7868H57.3775V83.7868ZM81.7873 82.7868V92.6229H83.7873V82.7868H81.7873ZM82.7873 91.6229H47.5414V93.6229H82.7873V91.6229ZM48.5414 92.6229V86.0655H46.5414V92.6229H48.5414ZM46.5414 82.7868V86.0655H48.5414V82.7868H46.5414ZM46.5414 54.918L46.5414 82.7868H48.5414L48.5414 54.918H46.5414ZM24.5906 55.918H47.5414V53.918H24.5906V55.918ZM23.5906 45.0819V54.918H25.5906V45.0819H23.5906Z" fill="white" mask="url(#path-1-inside-1_2_653)"/>
<rect x="73.4509" y="0.5" width="23.5902" height="23.5902" fill="#323A45" stroke="white"/>
<rect x="73.4509" y="38.205" width="23.5902" height="23.5902" fill="#4993B5" stroke="white"/>
<rect x="73.4509" y="75.9098" width="23.5902" height="23.5902" fill="white" fill-opacity="0.8" stroke="white"/>
<rect x="0.5" y="33.2869" width="34.2459" height="34.2459" fill="white" fill-opacity="0.8" stroke="white"/>
</svg>
