<svg width="100" height="100" viewBox="0 0 100 100" fill="none" xmlns="http://www.w3.org/2000/svg">
<rect width="55.7377" height="39.3443" transform="matrix(1 0 0 -1 0 100)" fill="#EEF8FB"/>
<rect width="55.7377" height="39.3443" transform="matrix(1 0 0 -1 44.262 39.3441)" fill="#4993B5"/>
<rect width="55.7377" height="72.1311" transform="matrix(1 0 0 -1 44.262 100)" fill="#046B99"/>
<rect width="55.7377" height="72.1311" transform="matrix(1 0 0 -1 0 72.132)" fill="white"/>
<rect width="11.4754" height="100" transform="matrix(1 0 0 -1 44.262 100)" fill="#046B99"/>
<rect width="11.4754" height="55.7377" transform="matrix(-4.37114e-08 1 1 4.37114e-08 0 60.6559)" fill="#046B99"/>
<rect width="11.4754" height="55.7377" transform="matrix(-4.37114e-08 1 1 4.37114e-08 44.262 27.868)" fill="#046B99"/>
<rect width="11.4754" height="100" transform="matrix(1 0 0 -1 44.262 100)" fill="white"/>
<rect width="11.4754" height="55.7377" transform="matrix(-4.37114e-08 1 1 4.37114e-08 0 60.6559)" fill="white"/>
<rect width="11.4754" height="55.7377" transform="matrix(-4.37114e-08 1 1 4.37114e-08 44.262 27.868)" fill="white"/>
<rect width="11.4754" height="100" transform="matrix(1 0 0 -1 44.262 100)" fill="#FDB81E" fill-opacity="0.8"/>
<rect width="11.4754" height="55.7377" transform="matrix(-4.37114e-08 1 1 4.37114e-08 0 60.6559)" fill="#FDB81E" fill-opacity="0.8"/>
<rect width="11.4754" height="55.7377" transform="matrix(-4.37114e-08 1 1 4.37114e-08 44.262 27.868)" fill="#FDB81E" fill-opacity="0.8"/>
<path d="M11.703 22.059V17.249H33.1075V22.059H25.208V44H19.7875V22.059H11.703Z" fill="#323A45"/>
</svg>
