<svg width="139" height="138" viewBox="0 0 139 138" fill="none" xmlns="http://www.w3.org/2000/svg">
<circle cx="69.5" cy="69" r="69" fill="#4993B5"/>
<g clip-path="url(#clip0_403_7545)">
<path d="M99.3963 99L75.9817 75.5496C74.1524 77.1985 72.0305 78.4443 69.6159 79.3053C67.2012 80.1664 64.7866 80.5878 62.3354 80.5878C56.5366 80.5878 51.6159 78.5725 47.5732 74.542C43.5305 70.5114 41.5 65.6015 41.5 59.7939C41.5 53.9863 43.5305 49.0763 47.5915 45.0458C51.6341 41.0153 56.5549 39 62.3537 39C68.0793 39 72.9817 41.0153 77.0244 45.0458C81.0854 49.0763 83.0976 53.9679 83.1159 59.7023C83.1159 62.2672 82.6768 64.7588 81.7805 67.1588C80.9024 69.5771 79.622 71.7023 77.9756 73.5344L101.482 96.8931L99.378 99H99.3963ZM62.3537 77.7481C67.3476 77.7481 71.6098 76.026 75.122 72.5634C78.6341 69.1191 80.3902 64.8504 80.3902 59.7756C80.3902 54.7008 78.6341 50.4321 75.122 46.9511C71.6098 43.4702 67.3659 41.7298 62.3537 41.7298C57.3415 41.7298 53.0244 43.4702 49.5488 46.9511C46.0732 50.4321 44.3354 54.7008 44.3354 59.7756C44.3354 64.8504 46.0732 69.1008 49.5488 72.5634C53.0244 76.026 57.2866 77.7481 62.3537 77.7481ZM57.4146 67.1221L59.3354 61.2595L54.2134 57.3206H60.25L62.3537 51.3664L64.2744 57.3206H70.4024L65.372 61.2595L67.2012 67.1221L62.3537 63.458L57.4146 67.1221Z" fill="white"/>
<circle cx="61.3113" cy="58.8113" r="19.8113" fill="white" fill-opacity="0.2"/>
</g>
<defs>
<clipPath id="clip0_403_7545">
<rect width="60" height="60" fill="white" transform="translate(41.5 39)"/>
</clipPath>
</defs>
</svg>
