<?xml version="1.0" encoding="utf-8"?>
<!-- Generator: Adobe Illustrator 24.3.2, SVG Export Plug-In . SVG Version: 6.00 Build 0)  -->
<svg version="1.1" id="Layer_1" xmlns="http://www.w3.org/2000/svg" xmlns:xlink="http://www.w3.org/1999/xlink" x="0px" y="0px"
	 viewBox="0 0 91.2 91.2" style="enable-background:new 0 0 91.2 91.2;" xml:space="preserve">
<style type="text/css">
	.st0{fill:#CD402D;}
	.st1{fill:#FFFFFF;}
</style>
<g>
	<path class="st0" d="M87.8,39.5L51.9,3.6c-3.5-3.5-9.2-3.5-12.7,0L3.3,39.5c-3.5,3.5-3.5,9.2,0,12.7L39.2,88
		c3.5,3.5,9.2,3.5,12.7,0l35.9-35.9C91.3,48.6,91.3,43,87.8,39.5z M45.5,71.1c-3.1,0-5.6-2.5-5.6-5.6s2.5-5.6,5.6-5.6
		s5.6,2.5,5.6,5.6S48.6,71.1,45.5,71.1z M51.1,48.7c0,3.1-2.5,5.6-5.6,5.6s-5.6-2.5-5.6-5.6V26.1c0-3.1,2.5-5.6,5.6-5.6
		s5.6,2.5,5.6,5.6V48.7z"/>
</g>
<g>
	<path class="st1" d="M45.5,54.3c3.1,0,5.6-2.5,5.6-5.6V26.1c0-3.1-2.5-5.6-5.6-5.6s-5.6,2.5-5.6,5.6v22.6
		C39.9,51.8,42.4,54.3,45.5,54.3z"/>
	<circle class="st1" cx="45.5" cy="65.5" r="5.6"/>
</g>
</svg>
