<?xml version="1.0" encoding="utf-8"?>
<!-- Generator: Adobe Illustrator 24.3.2, SVG Export Plug-In . SVG Version: 6.00 Build 0)  -->
<svg version="1.1" id="Layer_1" xmlns="http://www.w3.org/2000/svg" xmlns:xlink="http://www.w3.org/1999/xlink" x="0px" y="0px"
	 viewBox="0 0 501 501" style="enable-background:new 0 0 501 501;" xml:space="preserve">
<style type="text/css">
	.st0{fill:#FFFFFF;}
	.st1{fill:#006CE0;}
</style>
<g>
	<circle class="st0" cx="250" cy="109" r="35.6"/>
	<path class="st0" d="M250,172.6c-17.3,0-31.3,14-31.3,31.3V392c0,17.3,14.1,31.3,31.3,31.3s31.3-14,31.3-31.3V203.9
		C281.3,186.6,267.3,172.6,250,172.6z"/>
</g>
<path class="st1" d="M250.2,5.5C114.5,5.5,4.5,115.5,4.5,251.2s110,245.7,245.7,245.7s245.7-110,245.7-245.7S385.9,5.5,250.2,5.5z
	 M281.3,392c0,17.3-14.1,31.3-31.3,31.3s-31.3-14.1-31.3-31.3V203.9c0-17.3,14.1-31.3,31.3-31.3s31.3,14.1,31.3,31.3V392z
	 M250,144.6c-19.6,0-35.6-15.9-35.6-35.6s15.9-35.6,35.6-35.6s35.6,15.9,35.6,35.6S269.6,144.6,250,144.6z"/>
</svg>
