<?xml version="1.0" encoding="utf-8"?>
<!-- Generator: Adobe Illustrator 24.3.2, SVG Export Plug-In . SVG Version: 6.00 Build 0)  -->
<svg version="1.1" id="Layer_1" xmlns="http://www.w3.org/2000/svg" xmlns:xlink="http://www.w3.org/1999/xlink" x="0px" y="0px"
	 viewBox="0 0 497 497" style="enable-background:new 0 0 497 497;" xml:space="preserve">
<style type="text/css">
	.st0{fill:#FFFFFF;}
	.st1{fill:#1F7F35;}
</style>
<g>
	<path class="st0" d="M211.6,365.1c0.3,0.2,0.5,0.3,0.8,0.5c0.6,0.5,0.9,1.2,1.6,1.6c0.9,0.6,2,0.7,2.9,1.2c1.2,0.5,2.3,1.1,3.5,1.4
		c1.2,0.3,2.4,0.5,3.6,0.5c1.7,0.2,3.4,0.2,5.1-0.1c0.7-0.1,1.4-0.3,2.1-0.5c2.1-0.5,4.1-1.3,6-2.5c0.3-0.2,0.6-0.5,0.9-0.7
		c1.2-0.9,2.6-1.5,3.7-2.6c0.8-0.9,1.1-1.9,1.7-2.8c0,0,0.1-0.1,0.1-0.1l117-178.9l0,0c6.5-9.9,3.7-23.1-6.2-29.6
		c-9.9-6.5-23.1-3.7-29.6,6.2L221.8,316.4l-49.3-45.6c-8.7-8-22.2-7.4-30.2,1.2c-8,8.6-7.5,22.2,1.2,30.2L211.6,365.1z"/>
</g>
<path class="st1" d="M247.5,5.5C112.5,5.5,3.1,114.9,3.1,249.8s109.4,244.3,244.3,244.3s244.3-109.4,244.3-244.3
	S382.4,5.5,247.5,5.5z M360.6,182.2l-117,178.9c0,0-0.1,0.1-0.1,0.1c-0.6,0.9-0.9,2-1.7,2.8c-1.1,1.2-2.4,1.8-3.7,2.6
	c-0.3,0.2-0.6,0.5-0.9,0.7c-1.9,1.2-3.8,2-6,2.5c-0.7,0.2-1.3,0.4-2.1,0.5c-1.7,0.3-3.4,0.3-5.1,0.1c-1.2-0.1-2.4-0.3-3.6-0.5
	c-1.2-0.3-2.4-0.9-3.5-1.4c-1-0.5-2-0.6-2.9-1.2c-0.7-0.4-1-1.1-1.6-1.6c-0.3-0.2-0.5-0.3-0.8-0.5l-68.1-63
	c-8.7-8-9.2-21.6-1.2-30.2c8-8.6,21.5-9.2,30.2-1.2l49.3,45.6l103.1-157.6c6.5-9.9,19.7-12.7,29.6-6.2
	C364.3,159.1,367.1,172.3,360.6,182.2L360.6,182.2z"/>
</svg>
