<?xml version="1.0" encoding="utf-8"?>
<!-- Generator: Adobe Illustrator 24.3.2, SVG Export Plug-In . SVG Version: 6.00 Build 0)  -->
<svg version="1.1" id="Layer_1" xmlns="http://www.w3.org/2000/svg" xmlns:xlink="http://www.w3.org/1999/xlink" x="0px" y="0px"
	 viewBox="0 0 425 402.1" style="enable-background:new 0 0 425 402.1;" xml:space="preserve">
<style type="text/css">
	.st0{fill:#FFFFFF;}
	.st1{fill:#FFC107;}
</style>
<g>
	<path class="st0" d="M213.2,268.4c14.6,0,26.4-11.9,26.4-26.4V136.2c0-14.6-11.9-26.4-26.4-26.4s-26.4,11.9-26.4,26.4V242
		C186.8,256.6,198.6,268.4,213.2,268.4z"/>
	
		<ellipse transform="matrix(0.9732 -0.2298 0.2298 0.9732 -68.026 57.5737)" class="st0" cx="213.2" cy="320.9" rx="26.4" ry="26.4"/>
</g>
<path class="st1" d="M29,400.2h367.7c9.3,0,17.9-4.9,22.7-12.9c4.8-8,5-17.9,0.7-26L236.5,17.6C232,9,223,3.6,213.3,3.6h0
	c-9.8,0-18.7,5.4-23.3,14L5.7,361.3c-4.4,8.2-4.2,18.1,0.6,26.1C11.1,395.3,19.7,400.3,29,400.2L29,400.2z M213.2,294.5
	c14.6,0,26.4,11.9,26.4,26.4c0,14.6-11.9,26.4-26.4,26.4s-26.4-11.9-26.4-26.4S198.6,294.5,213.2,294.5z M186.8,242V136.2
	c0-14.6,11.9-26.4,26.4-26.4s26.4,11.9,26.4,26.4V242c0,14.6-11.9,26.4-26.4,26.4S186.8,256.6,186.8,242z"/>
</svg>
