<?xml version="1.0" encoding="utf-8"?>
<svg version="1.1" xmlns="http://www.w3.org/2000/svg" xmlns:xlink="http://www.w3.org/1999/xlink" viewBox="0 0 1304 949">
<style type="text/css">
	.st0{fill:#FDB71C;}
	.st1{fill:#003688;}
</style>
<path class="st0" d="M799,398c3-11,12-42,27-91c3-13,12-38,27-77c14-40,26-71,34-95c-28,19-53,42-76,67
	c-92,100-200,220-238,283c14-4,43-34,136-66C738,408,768,401,799,398z M783,462c-291,0-418,464-620,464
	c-46,0-81-21-106-62c-16-27-25-58-24-90c0-84,40-191,120-320c68-110,140-198,216-265c65-58,121-86,168-86
	c24-1,46,10,61,29c12,16,18,35,17,54c0,38-13,81-38,130c-22,42-50,80-83,113c-23,21-40,31-52,31
	c-9-1-17-5-22-12c-5-5-8-13-8-20c0-14,12-29,36-47c31-23,58-51,80-82c29-43,44-80,44-110
	c1-1-2-19-8-27c-6-6-15-9-24-9c-22,0-52,16-92,47c-53,43-101,91-143,144C246,413,197,490,159,572
	c-34,78-52,144-52,199c-1,24,8,48,23,67c14,20,37,32,62,31c92-3,207-214,243-263
	C787,120,814,119,867,68c31-30,55-44,71-44c10,0,20,5,26,12s9,16,10,25c-2,20-8,39-16,58
	c-19,48-37,100-54,155c-15,49-25,86-30,112c5,0,9,0,14-1c11,0,21-1,29-1c23,0,34,9,34,26
	c0,8-3,16-7,22c-4,6-10,11-17,13c-6,1-13,1-19,1c-17-1-33,1-50,4c-4,12-15,117-31,121
	C778,614,782,476,783,462L783,462z"/>
<path class="st1" d="M495,779c12,0,24,5,33,14c9,9,14,20,14,33c0,26-21,46-46,46c-26,0-46-21-46-46
	C449,800,469,779,495,779L495,779z"/>
<path class="st1" d="M779,656l-33,32c-18-21-44-33-72-33c-22-1-44,8-60,24c-16,15-25,36-24,58
	c0,22,9,44,25,59c16,16,39,25,62,24c14,0,28-3,40-10c12-8,21-19,26-31h-70v-43h122v10c0,21-6,42-17,60
	c-10,18-25,33-43,44c-19,10-40,16-62,15c-24,0-47-5-67-16s-36-27-47-47c-11-20-17-43-17-66
	c0-31,11-61,32-84c25-28,61-44,99-42c20,0,40,4,59,12C750,630,766,642,779,656L779,656z"/>
<path class="st1" d="M938,611c33,0,65,13,89,37c24,24,38,57,37,91c1,34-12,66-36,90c-50,49-130,49-179,0
	c0,0,0,0-1-1c-49-50-49-131,1-180C872,624,904,611,938,611L938,611z M937,656c-21,0-42,8-56,23
	c-15,16-24,37-23,60c-1,25,10,48,29,64c14,12,33,19,51,18c21,0,41-8,56-24c31-33,31-84,0-117
	C979,664,958,656,937,656L937,656z"/>
<polygon class="st1" points="1055,620 1102,620 1163,792 1225,620 1272,620 1185,862 1140,862"/>
</svg>
