<?xml version="1.0" encoding="utf-8"?>
<svg xmlns="http://www.w3.org/2000/svg" xmlns:xlink="http://www.w3.org/1999/xlink" version="1.1" viewBox="0 0 1304 949"><path d="M799 398c3-11 12-42 27-91 3-13 12-38 27-77 14-40 26-71 34-95-28 19-53 42-76 67-92 100-200 220-238 283 14-4 43-34 136-66 29-11 59-18 90-21zm-16 64c-291 0-418 464-620 464-46 0-81-21-106-62-16-27-25-58-24-90 0-84 40-191 120-320 68-110 140-198 216-265 65-58 121-86 168-86 24-1 46 10 61 29 12 16 18 35 17 54 0 38-13 81-38 130-22 42-50 80-83 113-23 21-40 31-52 31-9-1-17-5-22-12-5-5-8-13-8-20 0-14 12-29 36-47 31-23 58-51 80-82 29-43 44-80 44-110 1-1-2-19-8-27-6-6-15-9-24-9-22 0-52 16-92 47-53 43-101 91-143 144-59 69-108 146-146 228-34 78-52 144-52 199-1 24 8 48 23 67 14 20 37 32 62 31 92-3 207-214 243-263C787 120 814 119 867 68c31-30 55-44 71-44 10 0 20 5 26 12s9 16 10 25c-2 20-8 39-16 58-19 48-37 100-54 155-15 49-25 86-30 112 5 0 9 0 14-1 11 0 21-1 29-1 23 0 34 9 34 26 0 8-3 16-7 22s-10 11-17 13c-6 1-13 1-19 1-17-1-33 1-50 4-4 12-15 117-31 121-49 43-45-95-44-109z" fill="#fdb71c"/><path d="M495 779c12 0 24 5 33 14s14 20 14 33c0 26-21 46-46 46-26 0-46-21-46-46-1-26 19-47 45-47zm284-123-33 32c-18-21-44-33-72-33-22-1-44 8-60 24-16 15-25 36-24 58 0 22 9 44 25 59 16 16 39 25 62 24 14 0 28-3 40-10 12-8 21-19 26-31h-70v-43h122v10c0 21-6 42-17 60-10 18-25 33-43 44-19 10-40 16-62 15-24 0-47-5-67-16s-36-27-47-47-17-43-17-66c0-31 11-61 32-84 25-28 61-44 99-42 20 0 40 4 59 12 18 8 34 20 47 34zm159-45c33 0 65 13 89 37s38 57 37 91c1 34-12 66-36 90-50 49-130 49-179 0l-1-1c-49-50-49-131 1-180 23-24 55-37 89-37zm-1 45c-21 0-42 8-56 23-15 16-24 37-23 60-1 25 10 48 29 64 14 12 33 19 51 18 21 0 41-8 56-24 31-33 31-84 0-117-15-16-36-24-57-24zm118-36h47l61 172 62-172h47l-87 242h-45z" fill="#003688"/></svg>