<svg width="139" height="138" viewBox="0 0 139 138" fill="none" xmlns="http://www.w3.org/2000/svg">
<circle cx="69.5" cy="69" r="69" fill="#4993B5"/>
<g clip-path="url(#clip0_2_612)">
<path d="M70.3251 98.9833C66.2762 98.9833 62.4273 98.1836 58.7783 96.6173C55.146 95.0344 51.9802 92.9017 49.281 90.2024C46.5817 87.5032 44.449 84.3207 42.8661 80.6551C41.2832 76.9895 40.4834 73.1072 40.4834 68.9917C40.4834 64.8761 41.2832 60.8439 42.8994 57.1949C44.5156 53.5626 46.6983 50.3968 49.4809 47.6976C52.2635 44.9983 55.5126 42.8823 59.2782 41.3327C63.0271 39.7831 67.0427 39 71.3248 39C75.2071 39 78.9061 39.6332 82.4051 40.9161C85.9041 42.1991 88.9866 43.9819 91.6525 46.2813C94.3185 48.5807 96.4512 51.3299 98.0674 54.529C99.6836 57.7281 100.483 61.1772 100.483 64.8928C100.483 69.8914 99.0838 73.957 96.2679 77.1061C93.452 80.2552 89.4531 81.8214 84.2379 81.8214H78.2396C76.6234 81.8214 75.2238 82.4046 74.0407 83.571C72.8577 84.7373 72.2579 86.1536 72.2412 87.8198C72.2412 89.6026 72.6578 90.9356 73.4909 91.8187C74.324 92.7018 74.7406 93.7348 74.7406 94.9011C74.7406 96.1841 74.3573 97.1838 73.6242 97.9003C72.8744 98.6168 71.7747 98.9833 70.3251 98.9833ZM51.6636 70.158C52.4467 70.158 53.1299 69.8581 53.7131 69.2416C54.2962 68.6251 54.5795 67.942 54.5795 67.1588C54.5795 66.3757 54.2962 65.6926 53.7131 65.1094C53.1299 64.5262 52.4467 64.243 51.6636 64.243C50.8805 64.243 50.1974 64.5429 49.6142 65.1094C49.031 65.6926 48.7478 66.3757 48.7478 67.1588C48.7478 67.942 49.0477 68.6251 49.6142 69.2416C50.1974 69.8581 50.8805 70.158 51.6636 70.158ZM61.9108 56.4118C62.6939 56.4118 63.377 56.1286 63.9602 55.5454C64.5434 54.9622 64.8266 54.2791 64.8266 53.496C64.8266 52.7129 64.5434 52.0297 63.9602 51.4132C63.377 50.7967 62.6939 50.4968 61.9108 50.4968C61.1277 50.4968 60.4445 50.7967 59.828 51.4132C59.2115 52.0297 58.9116 52.7129 58.9116 53.496C58.9116 54.2791 59.2115 54.9622 59.828 55.5454C60.4445 56.1286 61.1277 56.4118 61.9108 56.4118ZM79.0727 56.4118C79.8558 56.4118 80.5389 56.1286 81.1554 55.5454C81.7719 54.9622 82.0718 54.2791 82.0718 53.496C82.0718 52.7129 81.7719 52.0297 81.1554 51.4132C80.5389 50.7967 79.8558 50.4968 79.0727 50.4968C78.2896 50.4968 77.6064 50.7967 77.0233 51.4132C76.4401 52.0297 76.1568 52.7129 76.1568 53.496C76.1568 54.2791 76.4567 54.9622 77.0233 55.5454C77.6064 56.1286 78.2896 56.4118 79.0727 56.4118ZM89.4865 70.158C90.2696 70.158 90.9527 69.8581 91.5192 69.2416C92.1024 68.6251 92.4023 67.942 92.4023 67.1588C92.4023 66.3757 92.1191 65.6926 91.5192 65.1094C90.9361 64.5262 90.2529 64.243 89.4865 64.243C88.72 64.243 88.0202 64.5429 87.4537 65.1094C86.8705 65.6926 86.5706 66.3757 86.5706 67.1588C86.5706 67.942 86.8539 68.6251 87.4537 69.2416C88.0535 69.8581 88.72 70.158 89.4865 70.158ZM70.3251 96.4007C70.9416 96.4007 71.3915 96.2674 71.7081 96.0342C72.008 95.7842 72.1579 95.401 72.1579 94.9011C72.1579 94.118 71.7414 93.3682 70.9083 92.6518C70.0752 91.9353 69.6586 90.5357 69.6586 88.4863C69.6586 85.937 70.4751 83.7542 72.1246 81.9547C73.7575 80.1552 75.8069 79.2555 78.2396 79.2555H84.2379C88.62 79.2555 92.0024 77.9558 94.3684 75.3399C96.7344 72.724 97.9008 69.2583 97.9008 64.9261C97.9008 57.9281 95.2015 52.2963 89.8197 48.0142C84.4379 43.732 78.2729 41.5993 71.3248 41.5993C63.377 41.5993 56.6956 44.2485 51.2471 49.5637C45.7986 54.8456 43.0827 61.3271 43.0827 68.9917C43.0827 76.5396 45.7486 83.0044 51.0805 88.353C56.4123 93.7015 62.8272 96.4007 70.3251 96.4007Z" fill="white"/>
</g>
<path d="M70.3417 98.9833C66.2928 98.9833 62.4439 98.1836 58.7949 96.6173C55.1626 95.0344 51.9968 92.9017 49.2976 90.2024C46.5983 87.5032 44.4656 84.3207 42.8827 80.6551C41.2998 76.9895 40.5 73.1072 40.5 68.9917C40.5 64.8761 41.2998 60.8439 42.916 57.1949C44.5322 53.5626 46.7149 50.3968 49.4975 47.6976C52.2801 44.9983 55.5292 42.8823 59.2948 41.3327C63.0437 39.7831 67.0593 39 71.3414 39C75.2237 39 78.9227 39.6332 82.4217 40.9161C85.9207 42.1991 89.0032 43.9819 91.6691 46.2813C94.3351 48.5807 96.4678 51.3299 98.084 54.529C99.7002 57.7281 100.5 61.1772 100.5 64.8928C100.5 69.8914 99.1004 73.957 96.2845 77.1061C93.4686 80.2552 89.4697 81.8214 84.2545 81.8214H78.2562C76.64 81.8214 75.2404 82.4046 74.0573 83.571C72.8743 84.7373 72.2745 86.1536 72.2578 87.8198C72.2578 89.6026 72.6744 90.9356 73.5075 91.8187C74.3406 92.7018 74.7572 93.7348 74.7572 94.9011C74.7572 96.1841 74.3739 97.1838 73.6408 97.9003C72.891 98.6168 71.7913 98.9833 70.3417 98.9833Z" fill="white" fill-opacity="0.2"/>
<defs>
<clipPath id="clip0_2_612">
<rect width="59.9833" height="59.9833" fill="white" transform="translate(40.5 39)"/>
</clipPath>
</defs>
</svg>
