<svg width="111" height="111" viewBox="0 0 111 111" fill="none" xmlns="http://www.w3.org/2000/svg">
<circle cx="55.5" cy="55.5" r="54.5" fill="#4993B5" stroke="#4993B5" stroke-width="2"/>
<g clip-path="url(#clip0_2_784)">
<path d="M55.0742 66.0158H73.8314V63.7266H57.3635L55.0742 66.0158ZM42.4463 66.0158H45.8433L63.1974 48.8833C63.4485 48.6322 63.5666 48.3663 63.5666 48.071C63.5666 47.7756 63.4485 47.5097 63.1974 47.2586L61.1297 45.3386C60.8786 45.1466 60.6275 45.0432 60.3617 45.0432C60.0958 45.0432 59.8595 45.1466 59.6527 45.3386L42.4463 62.7666V66.0158ZM31 85.4377V39.0616C31 37.9244 31.3988 36.9643 32.1816 36.1816C32.9643 35.3988 33.9244 35 35.0616 35H80.1084C81.2457 35 82.2057 35.3988 82.9884 36.1816C83.7712 36.9643 84.17 37.9244 84.17 39.0616V72.2928C84.17 73.4301 83.7712 74.3901 82.9884 75.1729C82.2057 75.9557 81.2457 76.3544 80.1084 76.3544H40.0832L31 85.4377ZM33.2893 79.8991L39.1232 74.0652H80.1084C80.5958 74.0652 81.0241 73.8879 81.3638 73.5483C81.7035 73.2086 81.8807 72.7802 81.8807 72.2928V39.0616C81.8807 38.5742 81.7035 38.1459 81.3638 37.8062C81.0241 37.4665 80.5958 37.2893 80.1084 37.2893H35.0616C34.5742 37.2893 34.1459 37.4665 33.8062 37.8062C33.4665 38.1459 33.2893 38.5742 33.2893 39.0616V79.8991V79.8991Z" fill="white"/>
</g>
<defs>
<clipPath id="clip0_2_784">
<rect width="53.17" height="50.4377" fill="white" transform="translate(31 35)"/>
</clipPath>
</defs>
</svg>
