<svg width="100" height="100" viewBox="0 0 100 100" fill="none" xmlns="http://www.w3.org/2000/svg">
<rect x="0.5" y="0.5" width="43.2623" height="43.2623" fill="#323A45" stroke="white"/>
<path d="M8.69678 30.8541V14.2204L22.1312 6.31776L35.5656 14.2204V30.8541L22.1312 38.3616L8.69678 30.8541Z" fill="#EEF8FB" stroke="white"/>
<rect x="0.5" y="56.2372" width="43.2623" height="43.2623" fill="white" stroke="white"/>
<rect x="4.8055" y="77.8027" width="24.4098" height="24.4098" transform="rotate(-45 4.8055 77.8027)" fill="#4993B5" stroke="white"/>
<rect x="56.238" y="0.5" width="43.2623" height="43.2623" fill="#FDB81E" stroke="white"/>
<path d="M77.4594 9.01636L61.0659 36.0655H94.2626L77.4594 9.01636Z" fill="#EEF8FB" stroke="white"/>
<rect x="56.238" y="56.2372" width="43.2623" height="43.2623" fill="#046B99" stroke="white"/>
<path d="M74.0149 73.0776L74.3796 73.0783L74.4917 72.7313L77.8671 62.2815L81.2441 72.7313L81.3563 73.0783L81.721 73.0776L92.7123 73.0542L83.8079 79.4901L83.512 79.704L83.6257 80.051L87.0427 90.4839L78.1623 84.0133L77.8678 83.7987L77.5734 84.0133L68.6938 90.4862L72.1102 80.0509L72.2238 79.704L71.9278 79.4901L63.025 73.0565L74.0149 73.0776Z" fill="#EEF8FB" stroke="white"/>
</svg>
