<?xml version="1.0" encoding="utf-8"?>
<!-- Generator: Adobe Illustrator 27.4.1, SVG Export Plug-In . SVG Version: 6.00 Build 0)  -->
<svg version="1.1" id="Layer_1" xmlns="http://www.w3.org/2000/svg" xmlns:xlink="http://www.w3.org/1999/xlink" x="0px" y="0px"
	 viewBox="0 0 56 56" style="enable-background:new 0 0 56 56;" xml:space="preserve">
<style type="text/css">
	.st0{fill:#046B99;}
</style>
<g>
	<path class="st0" d="M45,9.7c-1.9,0-30.1,0-32,0s-3,1.2-3,3s0,40,0,40c0,0.6,0.2,1.2,0.5,1.7c0.5,0.8,1.4,1.3,2.5,1.3h32
		c1.7,0,3-1.3,3-3c0,0,0-38.3,0-40S46.9,9.7,45,9.7z M43.4,51.1H14.6V14.4h28.7V51.1z"/>
	<path class="st0" d="M32.2,0.3c-4.8,0-24.6,0-24.6,0C4.2,0.3,0.3,1.6,0.3,8v28.5c0,4.7,4.7,4,4.7,4v-32c0-2.5,1.8-3.4,3.9-3.4h28
		C36.9,5.1,37,0.3,32.2,0.3z"/>
</g>
</svg>
