<?xml version="1.0" encoding="UTF-8"?>
<svg id="Layer_1" xmlns="http://www.w3.org/2000/svg" width="64" height="64" version="1.1" viewBox="0 0 64 64">
  <!-- Generator: Adobe Illustrator 29.0.1, SVG Export Plug-In . SVG Version: 2.1.0 Build 192)  -->
  <defs>
    <style>
      .st0 {
        fill: #046b99;
      }
    </style>
  </defs>
  <path class="st0" d="M12.6,11.7c-.4.2-.7.6-.9.9.2-.4.6-.7.9-.9Z"/>
  <path class="st0" d="M54,13.2c.2.4.3.9.3,1.3,0-.5,0-1-.3-1.3Z"/>
  <path class="st0" d="M53.7,12.6c-.2-.4-.6-.7-.9-.9.4.3.7.6.9.9Z"/>
  <path class="st0" d="M11,14.6c0-.7.2-1.4.6-1.9-.4.5-.6,1.2-.6,1.9v45.5c0,.7.2,1.4.6,1.9-.4-.5-.6-1.2-.6-1.9V14.6Z"/>
  <path class="st0" d="M54,13.2c0-.2-.2-.4-.3-.6-.2-.4-.6-.7-.9-.9-.5-.4-1.2-.6-1.9-.6H14.5c-.7,0-1.4.2-1.9.6-.4.2-.7.6-.9.9-.4.5-.6,1.2-.6,1.9v45.5c0,.7.2,1.4.6,1.9.6.9,1.6,1.5,2.8,1.5h36.4c1.9,0,3.4-1.5,3.4-3.4V14.5c0-.5,0-.9-.3-1.3h0ZM49,58.2H16.3V16.4h32.7v41.8Z"/>
  <path class="st0" d="M36.4.4H8.3C4.5.4,0,1.9,0,9.1v32.4c0,5.3,5.3,4.5,5.3,4.5V9.2c0-2.9.7-3.4,3-3.4h33.3s0-5.2-5.3-5.2v-.2Z"/>
</svg>