<svg width="111" height="111" viewBox="0 0 111 111" fill="none" xmlns="http://www.w3.org/2000/svg">
<circle cx="55.5" cy="55.5" r="54.5" fill="#4993B5" stroke="#4993B5" stroke-width="2"/>
<path d="M56.5517 63.9586C55.0878 63.9586 53.7038 63.6125 52.3996 62.9338C51.0954 62.2418 49.9908 61.2969 49.0991 60.1125C48.5269 59.2741 47.8482 58.5554 47.0763 57.9566C46.3044 57.3577 45.4527 56.8786 44.5078 56.5193C45.9318 55.5478 47.7949 54.8292 50.0972 54.3634C52.3996 53.8976 54.5555 53.6713 56.5517 53.6713C58.5479 53.6713 60.7571 53.9109 63.0461 54.3634C65.3351 54.8292 67.1982 55.5478 68.6621 56.5193C67.7306 56.8786 66.8788 57.3444 66.107 57.9566C65.3351 58.5554 64.6564 59.2741 64.0841 60.1125C63.2457 61.3102 62.1544 62.2551 60.8236 62.9338C59.4928 63.6125 58.0688 63.9586 56.565 63.9586H56.5517ZM56.5517 47.6561C54.8216 47.6561 53.3311 47.0306 52.0935 45.7929C50.8558 44.5553 50.2303 43.0647 50.2303 41.3347C50.2303 39.6046 50.8558 38.0609 52.0935 36.8365C53.3311 35.6122 54.8216 35 56.5517 35C58.2818 35 59.8255 35.6122 61.0499 36.8365C62.2742 38.0609 62.8864 39.5514 62.8864 41.3347C62.8864 43.118 62.2742 44.5553 61.0499 45.7929C59.8255 47.0306 58.335 47.6561 56.5517 47.6561Z" fill="white"/>
<path d="M30 74.2875V64.9718C30 64.0003 30.3194 63.1619 30.9582 62.4698C31.597 61.7778 32.3822 61.3919 33.327 61.2987H41.3119C41.9773 61.2987 42.6161 61.4584 43.215 61.8044C43.8139 62.1504 44.3063 62.563 44.7055 63.1086C46.0763 65.1049 47.8063 66.6353 49.8957 67.6999C51.9851 68.7646 54.1942 69.2969 56.5498 69.2969C58.9053 69.2969 61.1278 68.7646 63.2305 67.6999C65.3332 66.6353 67.0765 65.1049 68.4606 63.1086C68.8598 62.5763 69.3522 62.1371 69.9245 61.8044C70.4967 61.4717 71.1222 61.2987 71.7876 61.2987H79.7725C80.744 61.3919 81.5558 61.7778 82.2079 62.4698C82.8467 63.1619 83.1661 63.987 83.1661 64.9718V74.2875H67.7952V67.0345C66.2914 68.3653 64.5746 69.4167 62.6715 70.2019C60.7685 70.9738 58.719 71.373 56.5498 71.373C54.3806 71.373 52.4642 71.0004 50.5345 70.2418C48.6048 69.4832 46.8881 68.4186 45.3709 67.0478V74.3008H30V74.2875ZM36.7872 55.6561C35.0571 55.6561 33.5666 55.0306 32.3289 53.7929C31.0913 52.5553 30.4658 51.0647 30.4658 49.3347C30.4658 47.6046 31.0913 46.0609 32.3289 44.8365C33.5666 43.6122 35.0571 43 36.7872 43C38.5172 43 40.061 43.6122 41.2853 44.8365C42.5097 46.0609 43.1085 47.5514 43.1218 49.3347C43.1218 51.0647 42.5097 52.5553 41.2853 53.7929C40.061 55.0306 38.5705 55.6561 36.7872 55.6561ZM76.3124 55.6561C74.5823 55.6561 73.0918 55.0306 71.8542 53.7929C70.6165 52.5553 69.991 51.0647 69.991 49.3347C69.991 47.6046 70.6165 46.0609 71.8542 44.8365C73.0918 43.6122 74.5823 43 76.3124 43C78.0425 43 79.5862 43.6122 80.8106 44.8365C82.0349 46.0609 82.6338 47.5514 82.6471 49.3347C82.6471 51.0647 82.0349 52.5553 80.8106 53.7929C79.5862 55.0306 78.0957 55.6561 76.3124 55.6561Z" fill="white" fill-opacity="0.5"/>
</svg>
