<!-- Generated by IcoMoon.io -->
<svg version="1.1" xmlns="http://www.w3.org/2000/svg" width="24" height="24" viewBox="0 0 24 24">
<title>accessibility</title>
<path d="M9.785 8.145c-1.114-0.153-2.193-0.306-3.265-0.451-0.255-0.034-0.51-0.060-0.757-0.111-0.417-0.085-0.621-0.349-0.604-0.757 0.017-0.383 0.238-0.646 0.646-0.689 0.298-0.026 0.604 0 0.901 0.034 2.993 0.391 6.002 0.272 9.003 0.136 0.697-0.034 1.386-0.128 2.083-0.187 0.111-0.009 0.221-0.017 0.332-0.017 0.425 0.017 0.706 0.272 0.731 0.663 0.034 0.442-0.196 0.74-0.638 0.808-0.57 0.085-1.148 0.153-1.717 0.221-0.876 0.111-1.76 0.221-2.644 0.34 0 0.264 0 0.51 0 0.748 0 0.85-0.009 1.709-0.009 2.559s0.162 1.666 0.417 2.482c0.544 1.726 1.054 3.469 1.564 5.203 0.060 0.196 0.077 0.417 0.060 0.621-0.034 0.578-0.663 0.884-1.114 0.527-0.196-0.153-0.383-0.383-0.468-0.621-0.672-1.913-1.326-3.843-1.972-5.764-0.060-0.179-0.119-0.349-0.34-0.383-0.306-0.060-0.459 0.043-0.561 0.374-0.595 1.964-1.19 3.919-1.794 5.883-0.153 0.51-0.799 0.808-1.292 0.604-0.34-0.145-0.476-0.502-0.357-0.986 0.128-0.519 0.247-1.029 0.391-1.547 0.315-1.131 0.638-2.253 0.961-3.375 0.459-1.59 0.476-3.214 0.459-4.854-0.017-0.485-0.017-0.969-0.017-1.462z"></path>
<path d="M13.305 4.336c0 0.816-0.655 1.479-1.462 1.471-0.782-0.009-1.454-0.68-1.454-1.462 0-0.791 0.655-1.437 1.462-1.437 0.816 0 1.445 0.621 1.454 1.428z"></path>
<path d="M12.004 1.377c2.84 0 5.509 1.105 7.515 3.112s3.112 4.676 3.112 7.515-1.105 5.509-3.112 7.515-4.676 3.112-7.515 3.112-5.509-1.105-7.515-3.112-3.112-4.676-3.112-7.515 1.105-5.509 3.112-7.515 4.676-3.112 7.515-3.112zM12.004 0.213c-6.512 0-11.783 5.279-11.783 11.792s5.279 11.792 11.792 11.792 11.792-5.279 11.792-11.792-5.288-11.792-11.8-11.792v0z"></path>
</svg>
