<!-- Generated by IcoMoon.io -->
<svg version="1.1" xmlns="http://www.w3.org/2000/svg" width="24" height="24" viewBox="0 0 24 24">
<title>agriculture</title>
<path d="M9.483 15.692h-2.15v-13.133h1.25c0.442 0 0.8-0.358 0.8-0.8s-0.358-0.8-0.8-0.8h-4.1c-0.442 0-0.8 0.358-0.8 0.8s0.358 0.8 0.8 0.8h1.25v13.133h-2.383c-0.35 0-0.642 0.292-0.642 0.642 0 0 0 0.95 0 3.592s2.458 3.375 3.708 3.375 3.708-1.15 3.708-3.458 0-3.5 0-3.5c-0.008-0.358-0.292-0.65-0.642-0.65z"></path>
<path d="M20.492 0.733c-0.442 0-0.8 0.358-0.8 0.8v3.908c0 1.392-0.583 2.183-1.775 2.408v-6.35c0-0.442-0.358-0.8-0.8-0.8s-0.8 0.358-0.8 0.8v6.392c-1.308-0.183-1.942-0.992-1.942-2.442v-3.917c0-0.442-0.358-0.8-0.8-0.8s-0.8 0.358-0.8 0.8v3.908c0 2.125 1.033 3.117 1.892 3.575 0.583 0.308 1.192 0.433 1.65 0.475v12.208h-1.25c-0.442 0-0.8 0.358-0.8 0.8s0.358 0.8 0.8 0.8h4.1c0.442 0 0.8-0.358 0.8-0.8s-0.358-0.8-0.8-0.8h-1.25v-12.225c0.433-0.058 0.967-0.183 1.483-0.458 0.867-0.458 1.892-1.45 1.892-3.575v-3.908c0-0.442-0.358-0.8-0.8-0.8z"></path>
</svg>
