<?xml version="1.0" encoding="utf-8"?>
<!-- Generator: Adobe Illustrator 24.3.2, SVG Export Plug-In . SVG Version: 6.00 Build 0)  -->
<svg version="1.1" id="Layer_1" xmlns="http://www.w3.org/2000/svg" xmlns:xlink="http://www.w3.org/1999/xlink" x="0px" y="0px"
	 viewBox="0 0 623 623" style="enable-background:new 0 0 623 623;" xml:space="preserve">
<style type="text/css">
	.st0{fill-rule:evenodd;clip-rule:evenodd;}
</style>
<g>
	<path class="st0" d="M169.7,397.8H29.1c-6.8,0-12.3,2.7-16.4,6.8c-5.5,4.1-6.8,10.9-6.8,19.1v128.3h35.5v42.3
		c0,6.8,2.7,13.7,6.8,17.7c4.1,4.1,10.9,6.8,17.7,6.8h68.3c6.8,0,13.7-1.4,17.7-6.8c4.1-4.1,6.8-10.9,6.8-17.7v-42.3h34.1V423.7
		c0-8.2-1.4-13.7-6.8-19.1C182,400.5,176.5,397.8,169.7,397.8z"/>
	<path class="st0" d="M584.7,72.9V30.5c0-6.8-2.7-13.7-6.8-17.7C572.4,7.3,567,6,560.1,6h-68.3c-6.8,0-13.7,2.7-17.7,6.8
		c-5.5,5.5-6.8,10.9-6.8,17.7v42.3h-35.5v128.3c0,8.2,2.7,13.7,6.8,19.1c5.5,5.5,10.9,6.8,17.7,6.8h43.7H552h42.3
		c6.8,0,13.7-2.7,17.7-6.8c5.5-5.5,6.8-10.9,6.8-19.1V72.9H584.7z"/>
	<path class="st0" d="M498.1,488.4c0,21.6-8.1,40.5-24.3,54C457.6,558.6,436,564,414.5,564c-21.6,0-40.5-8.1-54-21.6
		c-16.2-16.2-21.6-32.4-21.6-54V132.2c0-35.1-13.5-64.8-37.8-89.1c-24.3-24.3-54-37.8-91.8-37.8s-67.5,10.8-94.5,35.1
		s-40.5,54-40.5,91.8v253.7h51.3V132.2c0-21.6,8.1-40.5,24.3-54c16.2-16.2,37.8-21.6,59.4-21.6c21.6,0,40.5,8.1,54,21.6
		c16.2,16.2,21.6,32.4,21.6,54v356.3c0,35.1,13.5,64.8,37.8,91.8c24.3,24.3,54,37.8,91.8,37.8s70.2-13.5,97.2-37.8
		c27-24.3,40.5-54,40.5-91.8v-251h-54V488.4z"/>
</g>
</svg>
