<!-- Generated by IcoMoon.io -->
<svg version="1.1" xmlns="http://www.w3.org/2000/svg" width="24" height="24" viewBox="0 0 24 24">
<title>connection</title>
<path d="M6.537 15.325h-5.416c-0.262 0-0.474 0.104-0.632 0.262-0.212 0.158-0.262 0.42-0.262 0.736v4.943h1.368v1.63c0 0.262 0.104 0.528 0.262 0.682 0.158 0.158 0.42 0.262 0.682 0.262h2.631c0.262 0 0.528-0.054 0.682-0.262 0.158-0.158 0.262-0.42 0.262-0.682v-1.63h1.314v-4.943c0-0.316-0.054-0.528-0.262-0.736-0.154-0.158-0.366-0.262-0.628-0.262z"></path>
<path d="M22.525 2.808v-1.633c0-0.262-0.104-0.528-0.262-0.682-0.212-0.212-0.42-0.262-0.686-0.262h-2.631c-0.262 0-0.528 0.104-0.682 0.262-0.212 0.212-0.262 0.42-0.262 0.682v1.63h-1.368v4.943c0 0.316 0.104 0.528 0.262 0.736 0.212 0.212 0.42 0.262 0.682 0.262h5.316c0.262 0 0.528-0.104 0.682-0.262 0.212-0.212 0.262-0.42 0.262-0.736v-4.939h-1.314z"></path>
<path d="M19.188 18.815c0 0.832-0.312 1.56-0.936 2.080-0.624 0.624-1.456 0.832-2.284 0.832-0.832 0-1.56-0.312-2.080-0.832-0.624-0.624-0.832-1.248-0.832-2.080v-13.722c0-1.352-0.52-2.496-1.456-3.432s-2.080-1.456-3.536-1.456-2.6 0.416-3.64 1.352-1.56 2.080-1.56 3.536v9.773h1.976v-9.773c0-0.832 0.312-1.56 0.936-2.080 0.624-0.624 1.456-0.832 2.288-0.832s1.56 0.312 2.080 0.832c0.624 0.624 0.832 1.248 0.832 2.080v13.726c0 1.352 0.52 2.496 1.456 3.536 0.936 0.936 2.080 1.456 3.536 1.456s2.704-0.52 3.744-1.456c1.040-0.936 1.56-2.080 1.56-3.536v-9.669h-2.080v9.665z"></path>
</svg>
