<!-- Generated by IcoMoon.io -->
<svg version="1.1" xmlns="http://www.w3.org/2000/svg" width="24" height="24" viewBox="0 0 24 24">
<title>copy</title>
<path d="M6.556 4.511c-0.133 0.089-0.256 0.211-0.344 0.344 0.089-0.133 0.211-0.244 0.344-0.344z"></path>
<path d="M21.933 5.078c0.067 0.156 0.1 0.322 0.1 0.5 0-0.189-0.033-0.356-0.1-0.5z"></path>
<path d="M21.811 4.856c-0.089-0.133-0.211-0.256-0.344-0.344 0.133 0.1 0.256 0.211 0.344 0.344z"></path>
<path d="M5.989 5.567c0-0.267 0.078-0.511 0.222-0.711-0.133 0.2-0.222 0.456-0.222 0.711v16.878c0 0.267 0.078 0.511 0.222 0.711-0.133-0.2-0.222-0.444-0.222-0.711v-16.878z"></path>
<path d="M21.933 5.078c-0.033-0.078-0.067-0.144-0.122-0.211-0.089-0.133-0.211-0.256-0.344-0.344-0.2-0.133-0.444-0.222-0.711-0.222h-13.489c-0.267 0-0.511 0.078-0.711 0.222-0.133 0.089-0.256 0.211-0.344 0.344-0.133 0.2-0.222 0.444-0.222 0.711v16.878c0 0.267 0.078 0.511 0.222 0.711 0.233 0.333 0.611 0.556 1.056 0.556h13.489c0.7 0 1.278-0.567 1.278-1.278v-16.878c0-0.178-0.033-0.344-0.1-0.489zM20.078 21.767h-12.133v-15.522h12.133v15.522z"></path>
<path d="M15.411 0.311c-1.956 0-10.411 0-10.411 0-1.4 0-3.078 0.556-3.078 3.211 0 0 0 10.022 0 12s1.956 1.667 1.956 1.667v-13.667c0-1.089 0.267-1.267 1.122-1.267h12.367c-0.011 0.011-0.011-1.944-1.956-1.944z"></path>
</svg>
