<!-- Generated by IcoMoon.io -->
<svg version="1.1" xmlns="http://www.w3.org/2000/svg" width="24" height="24" viewBox="0 0 24 24">
<title>cut</title>
<path d="M23.044 2.567c0.533-0.533 0.033-0.7-0.244-0.722-0.222-0.022-0.444-0.022-0.656-0.022-1.389 0-2.411 0.344-2.811 0.711-0.289 0.267-4.056 4.033-7.422 7.411l-2.844-2.833c0.367-0.633 0.578-1.378 0.578-2.156 0-2.4-1.944-4.344-4.344-4.344-2.4-0.011-4.344 1.933-4.344 4.333s1.944 4.344 4.344 4.344c0.578 0 1.133-0.111 1.633-0.322l2.978 2.978c-1.4 1.4-2.544 2.544-3.067 3.078-0.6-0.322-1.289-0.5-2.022-0.5-2.4 0-4.344 1.944-4.344 4.344s1.944 4.344 4.344 4.344c2.4 0 4.344-1.944 4.344-4.344 0-0.7-0.167-1.367-0.467-1.944 2.033-2.033 13.856-13.867 14.344-14.356zM7.356 6.122l-0.411 0.711-0.756 0.311c-0.289 0.111-0.589 0.178-0.889 0.178-1.311 0-2.367-1.067-2.367-2.367s1.067-2.367 2.367-2.367 2.367 1.056 2.367 2.356c0 0.422-0.1 0.811-0.311 1.178zM11.611 11.222c0.278 0 0.5 0.222 0.5 0.5s-0.222 0.5-0.5 0.5c-0.278 0-0.5-0.222-0.5-0.5s0.233-0.5 0.5-0.5zM4.822 21.233c-1.311 0-2.367-1.067-2.367-2.367 0-1.311 1.067-2.367 2.367-2.367 0.389 0 0.756 0.089 1.1 0.278l0.667 0.356 0.344 0.678c0.167 0.333 0.256 0.689 0.256 1.067 0 1.3-1.067 2.356-2.367 2.356z"></path>
<path d="M22.822 20.411c-0.544-0.533-8.289-7.711-8.289-7.711l-1.833 1.833c0 0 5.589 5.211 6.856 6.256 0.667 0.544 1.578 0.722 2.311 0.722 0.589 0 1.078-0.111 1.244-0.233 0.256-0.2 0.244-0.333-0.289-0.867z"></path>
</svg>
