<!-- Generated by IcoMoon.io -->
<svg version="1.1" xmlns="http://www.w3.org/2000/svg" width="24" height="24" viewBox="0 0 24 24">
<title>delete</title>
<path d="M19.7 7.3h-15.4c-0.3 0-0.6 0.3-0.5 0.6l1.1 13.6c0.1 1 0.5 1.4 1.6 1.4h11.1c1.1 0 1.5-0.4 1.6-1.4l1.1-13.6c0-0.3-0.2-0.6-0.6-0.6zM8.1 20c0 0 0 0 0 0-0.3 0-0.5-0.2-0.6-0.4l-0.4-9.1c0-0.3 0.2-0.5 0.5-0.5s0.5 0.2 0.6 0.4l0.4 9.1c0 0.3-0.2 0.5-0.5 0.5zM12.6 19.5c0 0.3-0.2 0.5-0.5 0.5s-0.5-0.2-0.5-0.5v-9.1c0-0.3 0.2-0.5 0.5-0.5s0.5 0.2 0.5 0.5v9.1zM16.6 19.5c0 0.3-0.2 0.5-0.5 0.5 0 0 0 0 0 0-0.3 0-0.5-0.2-0.5-0.5l0.4-9.1c0-0.3 0.3-0.5 0.6-0.5s0.5 0.2 0.5 0.5l-0.5 9.1z"></path>
<path d="M20.5 3.2c-1.8 0-5.7 0-5.7 0v-2.4c0 0 0 0 0 0h-5.6c0 0 0 0 0 0v2.4c0 0-4 0-5.7 0-1.8 0-1.8 1.7-1.8 1.7 0 0.8 0.5 1.9 0.8 1.9 0 0 0.2-0.9 1.2-0.9 0.5 0 3.8 0 8.2 0 0 0 0.1 0 0.1 0 4.4 0 7.7 0 8.2 0 1 0 1.2 0.9 1.2 0.9 0.3 0 0.8-1.1 0.8-1.9 0.1 0 0.1-1.7-1.7-1.7zM13.5 3.2h-2.9v-1.2h3v1.2z"></path>
</svg>
