<!-- Generated by IcoMoon.io -->
<svg version="1.1" xmlns="http://www.w3.org/2000/svg" width="24" height="24" viewBox="0 0 24 24">
<title>maintenance</title>
<path d="M15.645 16.616c-0.98-0.469-2-0.849-3.102-1.147-1.106-0.298-2.339-0.469-3.743-0.469s-2.637 0.171-3.743 0.469c-1.106 0.298-2.127 0.682-3.102 1.147-0.51 0.257-0.894 0.596-1.192 0.98-0.298 0.424-0.424 0.935-0.424 1.531v2.465h16.922v-2.465c0-0.637-0.127-1.147-0.424-1.531-0.257-0.384-0.682-0.722-1.192-0.98z"></path>
<path d="M4.502 9.433h0.257c0 1.147 0.339 2.082 1.106 2.849s1.702 1.147 2.89 1.147c1.192 0 2.167-0.384 3.061-1.147 0.722-0.767 1.106-1.702 1.106-2.849h0.257c0.171 0 0.257-0.041 0.384-0.171 0.127-0.127 0.171-0.257 0.171-0.384 0-0.171-0.041-0.257-0.171-0.384-0.127-0.127-0.257-0.171-0.384-0.171h-0.257c0-0.682-0.171-1.359-0.51-1.914-0.339-0.596-0.808-1.061-1.359-1.404v1.061c0 0.127-0.041 0.212-0.127 0.298s-0.171 0.127-0.298 0.127c-0.127 0-0.212-0.041-0.298-0.127s-0.127-0.171-0.127-0.298v-1.404c-0.171-0.041-0.339-0.041-0.596-0.086s-0.51-0.041-0.722-0.041-0.469 0-0.722 0.041c-0.257 0-0.469 0.041-0.596 0.086v1.404c0 0.127-0.041 0.212-0.127 0.298s-0.171 0.127-0.298 0.127-0.212-0.041-0.298-0.127c-0.086-0.086-0.127-0.171-0.127-0.298v-1.061c-0.596 0.384-1.061 0.849-1.404 1.404-0.384 0.551-0.551 1.192-0.551 1.914h-0.257c-0.171 0-0.257 0.041-0.384 0.171-0.127 0.127-0.171 0.257-0.171 0.384 0 0.171 0.041 0.257 0.171 0.384 0.127 0.127 0.253 0.171 0.38 0.171zM11.139 9.388c0 0.722-0.212 1.318-0.637 1.743-0.425 0.469-0.98 0.682-1.743 0.682-0.722 0-1.318-0.212-1.743-0.682s-0.637-1.020-0.637-1.743h4.759z"></path>
<path d="M23.804 5.114c0.016-0.143 0.024-0.29 0.024-0.437s-0.008-0.294-0.024-0.437l-1.086-0.388c-0.061-0.216-0.147-0.424-0.253-0.616l0.494-1.037c-0.184-0.229-0.392-0.437-0.62-0.62l-1.037 0.494c-0.192-0.106-0.4-0.192-0.616-0.253l-0.388-1.086c-0.143-0.016-0.29-0.024-0.437-0.024s-0.294 0.008-0.437 0.024l-0.388 1.086c-0.216 0.061-0.424 0.147-0.616 0.253l-1.037-0.494c-0.229 0.184-0.437 0.392-0.62 0.62l0.494 1.037c-0.106 0.192-0.192 0.4-0.253 0.616l-1.086 0.388c-0.016 0.143-0.024 0.29-0.024 0.437s0.008 0.294 0.024 0.437l1.086 0.388c0.061 0.216 0.147 0.425 0.253 0.616l-0.494 1.037c0.184 0.229 0.392 0.437 0.62 0.62l1.037-0.494c0.192 0.106 0.4 0.192 0.616 0.253l0.388 1.086c0.143 0.016 0.29 0.024 0.437 0.024s0.294-0.008 0.437-0.024l0.388-1.086c0.216-0.061 0.425-0.147 0.616-0.253l1.037 0.494c0.229-0.184 0.437-0.392 0.62-0.62l-0.494-1.037c0.106-0.192 0.192-0.4 0.253-0.616l1.086-0.388zM19.861 6.661c-1.098 0-1.984-0.89-1.984-1.984s0.89-1.984 1.984-1.984 1.984 0.89 1.984 1.984-0.89 1.984-1.984 1.984z"></path>
<path d="M19.98 11.771v0c-0.049-0.163-0.114-0.322-0.196-0.469l0.376-0.788c-0.139-0.171-0.298-0.331-0.469-0.469l-0.788 0.376c-0.147-0.082-0.306-0.147-0.469-0.192l-0.294-0.824c-0.11-0.012-0.22-0.020-0.331-0.020-0.114 0-0.224 0.008-0.331 0.020l-0.294 0.824c-0.163 0.049-0.322 0.114-0.469 0.192l-0.796-0.38c-0.171 0.139-0.331 0.298-0.469 0.469l0.376 0.788c-0.082 0.147-0.147 0.306-0.192 0.469l-0.824 0.294c-0.012 0.11-0.020 0.22-0.020 0.331 0 0.114 0.008 0.224 0.020 0.331l0.824 0.294c0.049 0.167 0.11 0.322 0.192 0.469l-0.376 0.788c0.139 0.171 0.298 0.331 0.469 0.469l0.788-0.376c0.147 0.082 0.306 0.147 0.469 0.192l0.294 0.824c0.11 0.012 0.22 0.020 0.331 0.020 0.114 0 0.224-0.008 0.331-0.020l0.294-0.824c0.167-0.049 0.322-0.11 0.469-0.192l0.788 0.376c0.171-0.139 0.331-0.298 0.469-0.469l-0.376-0.788c0.082-0.147 0.147-0.306 0.192-0.469l0.824-0.294c0.012-0.11 0.020-0.22 0.020-0.331 0-0.114-0.008-0.224-0.020-0.331l-0.812-0.29zM17.804 13.91c-0.833 0-1.51-0.678-1.51-1.51s0.678-1.51 1.51-1.51 1.51 0.678 1.51 1.51-0.678 1.51-1.51 1.51z"></path>
</svg>
