<?xml version="1.0" encoding="utf-8"?>
<!-- Generator: Adobe Illustrator 24.3.2, SVG Export Plug-In . SVG Version: 6.00 Build 0)  -->
<svg version="1.1" id="Layer_1" xmlns="http://www.w3.org/2000/svg" xmlns:xlink="http://www.w3.org/1999/xlink" x="0px" y="0px"
	 viewBox="0 0 588 588" style="enable-background:new 0 0 588 588;" xml:space="preserve">
<g>
	<path d="M383.3,407.1c-24-11.5-49-20.8-76-28.1c-27.1-7.3-57.3-11.5-91.7-11.5c-34.4,0-64.6,4.2-91.7,11.5
		c-27.1,7.3-52.1,16.7-76,28.1c-12.5,6.3-21.9,14.6-29.2,24C11.4,441.5,8.3,454,8.3,468.6V529h414.6v-60.4
		c0-15.6-3.1-28.1-10.4-37.5C406.2,421.7,395.8,413.4,383.3,407.1z"/>
	<path d="M110.3,231.1h6.3c0,28.1,8.3,51,27.1,69.8c18.8,18.8,41.7,28.1,70.8,28.1c29.2,0,53.1-9.4,75-28.1
		c17.7-18.8,27.1-41.7,27.1-69.8h6.3c4.2,0,6.3-1,9.4-4.2c3.1-3.1,4.2-6.3,4.2-9.4c0-4.2-1-6.3-4.2-9.4c-3.1-3.1-6.3-4.2-9.4-4.2
		h-6.3c0-16.7-4.2-33.3-12.5-46.9c-8.3-14.6-19.8-26-33.3-34.4v26c0,3.1-1,5.2-3.1,7.3c-2.1,2.1-4.2,3.1-7.3,3.1
		c-3.1,0-5.2-1-7.3-3.1c-2.1-2.1-3.1-4.2-3.1-7.3v-34.4c-4.2-1-8.3-1-14.6-2.1s-12.5-1-17.7-1s-11.5,0-17.7,1
		c-6.3,0-11.5,1-14.6,2.1v34.4c0,3.1-1,5.2-3.1,7.3c-2.1,2.1-4.2,3.1-7.3,3.1s-5.2-1-7.3-3.1c-2.1-2.1-3.1-4.2-3.1-7.3v-26
		c-14.6,9.4-26,20.8-34.4,34.4c-9.4,13.5-13.5,29.2-13.5,46.9h-6.3c-4.2,0-6.3,1-9.4,4.2c-3.1,3.1-4.2,6.3-4.2,9.4
		c0,4.2,1,6.3,4.2,9.4C104.1,230,107.2,231.1,110.3,231.1z M272.9,230c0,17.7-5.2,32.3-15.6,42.7c-10.4,11.5-24,16.7-42.7,16.7
		c-17.7,0-32.3-5.2-42.7-16.7c-10.4-11.5-15.6-25-15.6-42.7H272.9z"/>
	<path d="M583.2,125.3c0.4-3.5,0.6-7.1,0.6-10.7s-0.2-7.2-0.6-10.7l-26.6-9.5l0,0c-1.5-5.3-3.6-10.4-6.2-15.1l12.1-25.4
		c-4.5-5.6-9.6-10.7-15.2-15.2l-25.4,12.1c-4.7-2.6-9.8-4.7-15.1-6.2l-9.5-26.6c-3.5-0.4-7.1-0.6-10.7-0.6s-7.2,0.2-10.7,0.6
		l-9.5,26.6c-5.3,1.5-10.4,3.6-15.1,6.2l-25.4-12.1c-5.6,4.5-10.7,9.6-15.2,15.2l12.1,25.4c-2.6,4.7-4.7,9.8-6.2,15.1l-26.6,9.5
		c-0.4,3.5-0.6,7.1-0.6,10.7c0,3.6,0.2,7.2,0.6,10.7l26.6,9.5c1.5,5.3,3.6,10.4,6.2,15.1l-12.1,25.4c4.5,5.6,9.6,10.7,15.2,15.2
		l25.4-12.1c4.7,2.6,9.8,4.7,15.1,6.2l9.5,26.6c3.5,0.4,7.1,0.6,10.7,0.6s7.2-0.2,10.7-0.6l9.5-26.6c5.3-1.5,10.4-3.6,15.1-6.2
		l25.4,12.1c5.6-4.5,10.7-9.6,15.2-15.2l-12.1-25.4c2.6-4.7,4.7-9.8,6.2-15.1L583.2,125.3z M486.6,163.2
		c-26.9,0-48.6-21.8-48.6-48.6s21.8-48.6,48.6-48.6s48.6,21.8,48.6,48.6S513.4,163.2,486.6,163.2z"/>
	<path d="M489.5,288.4L489.5,288.4c-1.2-4-2.8-7.9-4.8-11.5l9.2-19.3c-3.4-4.2-7.3-8.1-11.5-11.5l-19.3,9.2c-3.6-2-7.5-3.6-11.5-4.7
		l-7.2-20.2c-2.7-0.3-5.4-0.5-8.1-0.5c-2.8,0-5.5,0.2-8.1,0.5l-7.2,20.2c-4,1.2-7.9,2.8-11.5,4.7L390,246
		c-4.2,3.4-8.1,7.3-11.5,11.5l9.2,19.3c-2,3.6-3.6,7.5-4.7,11.5l-20.2,7.2c-0.3,2.7-0.5,5.4-0.5,8.1c0,2.8,0.2,5.5,0.5,8.1l20.2,7.2
		c1.2,4.1,2.7,7.9,4.7,11.5l-9.2,19.3c3.4,4.2,7.3,8.1,11.5,11.5l19.3-9.2c3.6,2,7.5,3.6,11.5,4.7l7.2,20.2c2.7,0.3,5.4,0.5,8.1,0.5
		c2.8,0,5.5-0.2,8.1-0.5l7.2-20.2c4.1-1.2,7.9-2.7,11.5-4.7l19.3,9.2c4.2-3.4,8.1-7.3,11.5-11.5l-9.2-19.3c2-3.6,3.6-7.5,4.7-11.5
		l20.2-7.2c0.3-2.7,0.5-5.4,0.5-8.1c0-2.8-0.2-5.5-0.5-8.1L489.5,288.4z M436.2,340.8c-20.4,0-37-16.6-37-37s16.6-37,37-37
		s37,16.6,37,37S456.6,340.8,436.2,340.8z"/>
</g>
</svg>
