<!-- Generated by IcoMoon.io -->
<svg version="1.1" xmlns="http://www.w3.org/2000/svg" width="24" height="24" viewBox="0 0 24 24">
<title>paste</title>
<path d="M3.333 20.1v-15.878h1.744c0 0 0 1.767 0 2.178s0.167 0.689 0.722 0.689 7.544 0 7.933 0 0.689-0.244 0.689-0.722 0-2.144 0-2.144h1.744v2.833h1.822v-3.333c0-0.7-0.589-1.278-1.3-1.278h-4.044c-0.267-1.333-1.467-2.333-2.9-2.333s-2.622 1-2.889 2.322h-4.033c-0.722 0-1.3 0.567-1.3 1.278v16.9c0 0.7 0.589 1.278 1.3 1.278h5.056v-1.789h-4.544zM8.8 2.433c0.189-0.322 0.544-0.544 0.956-0.544s0.756 0.211 0.956 0.544c0.1 0.167 0.156 0.356 0.156 0.556 0 0.267-0.089 0.5-0.256 0.689-0.211 0.244-0.511 0.411-0.867 0.411s-0.656-0.167-0.867-0.411c-0.156-0.189-0.256-0.433-0.256-0.689 0.022-0.2 0.078-0.389 0.178-0.556z"></path>
<path d="M22.489 9.111c0-0.567-0.111-0.678-0.656-0.678-4 0-8 0-12 0-0.567 0-0.689 0.111-0.689 0.644 0 4.667 0 9.322 0 13.989 0 0.544 0.1 0.656 0.678 0.656 3.989 0 7.967 0 11.956 0 0.622 0 0.711-0.089 0.711-0.722 0-2.3 0-4.6 0-6.9 0 0 0 0 0 0 0-2.322 0.011-4.656 0-6.989zM18.511 14.856c0 0.311-0.256 0.556-0.578 0.556h-5.611c-0.322 0-0.578-0.244-0.578-0.556s0.256-0.556 0.578-0.556h5.611c0.322 0 0.578 0.256 0.578 0.556v0 0zM18.511 20.511c0 0.311-0.256 0.556-0.578 0.556h-5.611c-0.322 0-0.578-0.244-0.578-0.556s0.256-0.556 0.578-0.556h5.611c0.322 0 0.578 0.256 0.578 0.556v0zM19.778 18.244h-7.467c-0.322 0-0.578-0.244-0.578-0.556s0.256-0.556 0.578-0.556h7.467c0.322 0 0.578 0.244 0.578 0.556s-0.256 0.556-0.578 0.556zM19.778 12.589h-7.467c-0.322 0-0.578-0.244-0.578-0.556s0.256-0.556 0.578-0.556h7.467c0.322 0 0.578 0.244 0.578 0.556s-0.256 0.556-0.578 0.556z"></path>
</svg>
