<!-- Generated by IcoMoon.io -->
<svg version="1.1" xmlns="http://www.w3.org/2000/svg" width="24" height="24" viewBox="0 0 24 24">
<title>quotation-mark</title>
<path d="M13.8 14.622c0.044 1 0.367 1.978 0.922 2.789 0.556 0.822 1.333 1.444 2.233 1.811s1.878 0.456 2.822 0.244c0.944-0.2 1.811-0.689 2.489-1.4s1.156-1.611 1.356-2.589c0.2-0.978 0.122-2-0.222-2.944-0.344-0.933-0.944-1.744-1.733-2.333-0.778-0.589-1.711-0.922-2.667-0.967 0-1.444 2-3.656 2.8-4.4 0.044-0.044 0.078-0.111 0.1-0.178 0.011-0.067 0-0.133-0.033-0.2-0.022-0.056-0.067-0.1-0.111-0.133s-0.1-0.044-0.167-0.044h-0.067c-1.544 0.344-3 1.022-4.278 1.967-1.833 1.389-3.667 3.967-3.444 8.378z"></path>
<path d="M0.356 14.622c0.044 1 0.367 1.978 0.922 2.789 0.556 0.822 1.333 1.444 2.233 1.811s1.878 0.456 2.822 0.244c0.944-0.2 1.811-0.689 2.489-1.4s1.156-1.611 1.356-2.589c0.2-0.978 0.122-2-0.222-2.944-0.344-0.933-0.944-1.744-1.733-2.333-0.778-0.589-1.711-0.922-2.667-0.967 0-1.444 2-3.656 2.8-4.4 0.044-0.044 0.078-0.111 0.1-0.178 0.011-0.067 0-0.133-0.033-0.2-0.022-0.056-0.067-0.1-0.111-0.133s-0.1-0.044-0.167-0.044h-0.056c-1.544 0.344-3 1.022-4.278 1.967-1.856 1.389-3.689 3.967-3.456 8.378z"></path>
</svg>
