<!-- Generated by IcoMoon.io -->
<svg version="1.1" xmlns="http://www.w3.org/2000/svg" width="24" height="24" viewBox="0 0 24 24">
<title>save</title>
<path d="M22.689 4.356c-1.1-1.144-2.189-2.289-3.278-3.433-0.111-0.111-0.211-0.156-0.367-0.156-5.067 0-10.144 0.011-15.211 0-1.389-0.011-2.533 1.133-2.522 2.589 0.011 1.911-0.022 3.822-0.033 5.733-0.022 3.878-0.056 7.756-0.067 11.633-0.011 1.311 1.067 2.433 2.311 2.433 2.8 0 5.6 0 8.4 0s5.6 0 8.4 0c1.3 0 2.378-1.122 2.389-2.456 0.033-5.333 0.067-10.656 0.1-15.989 0.022-0.144-0.022-0.256-0.122-0.356zM7.311 2.022c3.189 0 6.356 0 9.544 0-0.011 2.067-0.022 4.122-0.033 6.2-3.178 0-6.356 0-9.544 0 0.011-2.067 0.022-4.122 0.033-6.2zM19.156 19.4c-0.011 0.689-0.333 1.122-0.933 1.244-0.111 0.022-0.233 0.022-0.356 0.022-1.967 0-3.933 0-5.9 0 0 0 0 0 0 0-1.978 0-3.967 0-5.944 0-0.767 0-1.222-0.478-1.222-1.278 0.011-2.044 0.022-4.1 0.044-6.144 0.011-0.8 0.478-1.278 1.244-1.278 3.978 0 7.956 0 11.933 0 0.722 0 1.178 0.511 1.178 1.289 0 1.233-0.011 2.467-0.022 3.7-0.011 0.811-0.011 1.622-0.022 2.444z"></path>
<path d="M13.256 6.967c0.8 0 1.589 0 2.367 0 0.011-1.244 0.011-2.467 0.022-3.7-0.789 0-1.578 0-2.367 0 0 1.233-0.011 2.467-0.022 3.7z"></path>
</svg>
