<?xml version="1.0" encoding="utf-8"?>
<!-- Generator: Adobe Illustrator 24.3.2, SVG Export Plug-In . SVG Version: 6.00 Build 0)  -->
<svg version="1.1" id="Layer_1" xmlns="http://www.w3.org/2000/svg" xmlns:xlink="http://www.w3.org/1999/xlink" x="0px" y="0px"
	 viewBox="0 0 589.1 589.1" style="enable-background:new 0 0 589.1 589.1;" xml:space="preserve">
<g>
	<path d="M46.9,131.6h289.4v55.8h44.2v-46.5c0-30.2-13.9-51.1-41.8-62.8c-27.9-11.6-76.7-17.4-146.5-17.4
		c-74.4,0-124.4,5.8-149.9,16.3S3.9,109.5,3.9,140.9V378c0,25.6,9.3,47.7,30.2,63.9c20.9,16.3,44.2,24.4,72.1,24.4L64.3,507v15.1
		h159.2V325.7H46.9V131.6z M63.2,358.2c5.8-5.8,12.8-8.1,20.9-8.1c9.3,0,15.1,2.3,20.9,8.1c5.8,4.6,8.1,11.6,8.1,19.8
		s-2.3,13.9-8.1,19.8c-5.8,5.8-12.8,8.1-20.9,8.1s-15.1-2.3-20.9-8.1c-5.8-4.6-8.1-11.6-8.1-19.8S57.3,364,63.2,358.2z"/>
	<path d="M485.1,418.7c5.8,5.8,12.8,8.1,20.9,8.1s15.1-2.3,20.9-8.1c5.8-5.8,8.1-11.6,8.1-19.8s-2.3-15.1-8.1-19.8
		c-5.8-5.8-11.6-8.1-20.9-8.1c-8.1,0-15.1,2.3-20.9,8.1c-5.8,5.8-8.1,11.6-8.1,19.8S479.3,414,485.1,418.7z"/>
	<path d="M301.4,418.7c5.8,5.8,12.8,8.1,20.9,8.1s15.1-2.3,20.9-8.1c5.8-5.8,8.1-11.6,8.1-19.8s-2.3-15.1-8.1-19.8
		c-5.8-5.8-11.6-8.1-20.9-8.1c-8.1,0-15.1,2.3-20.9,8.1c-5.8,5.8-8.1,11.6-8.1,19.8S295.6,414,301.4,418.7z"/>
	<path d="M543.2,223.4c-1.2-4.6-3.5-7-5.8-9.3c-2.3-2.3-5.8-3.5-11.6-3.5H304.9c-5.8,0-9.3,1.2-12.8,3.5c-2.3,2.3-4.6,4.6-5.8,8.1
		l-41.8,120.9V507c0,3.5,1.2,8.1,3.5,12.8c3.5,3.5,7,4.6,11.6,4.6h16.3c4.6,0,8.1-1.2,11.6-4.6c3.5-3.5,4.6-7,4.6-11.6v-32.5h244.1
		v32.5c0,4.6,1.2,8.1,4.6,11.6c3.5,3.5,7,4.6,11.6,4.6h16.3c4.6,0,8.1-1.2,11.6-4.6c3.5-3.5,4.6-7,4.6-11.6V344.3L543.2,223.4z
		 M310.7,238.5h206.9l27.9,82.5H282.8L310.7,238.5z M554.8,445.4H273.5v-95.3h281.3V445.4z"/>
</g>
</svg>
