<!-- Generated by IcoMoon.io -->
<svg version="1.1" xmlns="http://www.w3.org/2000/svg" width="24" height="24" viewBox="0 0 24 24">
<title>transport</title>
<path d="M1.911 5.361h11.79v2.273h1.801v-1.894c0-1.23-0.566-2.082-1.703-2.558-1.137-0.473-3.125-0.709-5.968-0.709-3.031 0-5.068 0.236-6.107 0.664s-1.564 1.324-1.564 2.603v9.659c0 1.043 0.379 1.943 1.23 2.603 0.851 0.664 1.801 0.994 2.937 0.994l-1.707 1.658v0.615h6.486v-8.001h-7.195v-7.908zM2.575 14.593c0.236-0.236 0.521-0.33 0.851-0.33 0.379 0 0.615 0.094 0.851 0.33 0.236 0.187 0.33 0.473 0.33 0.807s-0.094 0.566-0.33 0.807c-0.236 0.236-0.521 0.33-0.851 0.33s-0.615-0.094-0.851-0.33c-0.236-0.187-0.33-0.473-0.33-0.807s0.090-0.57 0.33-0.807z"></path>
<path d="M19.763 17.058c0.236 0.236 0.521 0.33 0.851 0.33s0.615-0.094 0.851-0.33c0.236-0.236 0.33-0.473 0.33-0.807s-0.094-0.615-0.33-0.807c-0.236-0.236-0.473-0.33-0.851-0.33-0.33 0-0.615 0.094-0.851 0.33s-0.33 0.473-0.33 0.807 0.094 0.615 0.33 0.807z"></path>
<path d="M12.279 17.058c0.236 0.236 0.521 0.33 0.851 0.33s0.615-0.094 0.851-0.33c0.236-0.236 0.33-0.473 0.33-0.807s-0.094-0.615-0.33-0.807c-0.236-0.236-0.473-0.33-0.851-0.33-0.33 0-0.615 0.094-0.851 0.33s-0.33 0.473-0.33 0.807 0.094 0.615 0.33 0.807z"></path>
<path d="M22.13 9.101c-0.049-0.187-0.143-0.285-0.236-0.379s-0.236-0.143-0.473-0.143h-8.999c-0.236 0-0.379 0.049-0.521 0.143-0.094 0.094-0.187 0.187-0.236 0.33l-1.703 4.925v6.677c0 0.143 0.049 0.33 0.143 0.521 0.143 0.143 0.285 0.187 0.473 0.187h0.664c0.187 0 0.33-0.049 0.473-0.187 0.143-0.143 0.187-0.285 0.187-0.473v-1.324h9.945v1.324c0 0.187 0.049 0.33 0.187 0.473 0.143 0.143 0.285 0.187 0.473 0.187h0.664c0.187 0 0.33-0.049 0.473-0.187 0.143-0.143 0.187-0.285 0.187-0.473v-6.677l-1.699-4.925zM12.658 9.717h8.429l1.137 3.361h-10.702l1.137-3.361zM22.603 18.146h-11.46v-3.883h11.46v3.883z"></path>
</svg>
