<?xml version="1.0" encoding="utf-8"?>
<!-- Generator: Adobe Illustrator 24.3.2, SVG Export Plug-In . SVG Version: 6.00 Build 0)  -->
<svg version="1.1" id="Layer_1" xmlns="http://www.w3.org/2000/svg" xmlns:xlink="http://www.w3.org/1999/xlink" x="0px" y="0px"
	 viewBox="0 0 91.2 91.2" style="enable-background:new 0 0 91.2 91.2;" xml:space="preserve">
<g>
	<path d="M87.8,39.5L51.9,3.6c-3.5-3.5-9.2-3.5-12.7,0L3.3,39.5c-3.5,3.5-3.5,9.2,0,12.7L39.2,88c3.5,3.5,9.2,3.5,12.7,0l35.9-35.9
		C91.3,48.6,91.3,43,87.8,39.5z M45.5,71.1c-3.1,0-5.6-2.5-5.6-5.6c0-3.1,2.5-5.6,5.6-5.6c3.1,0,5.6,2.5,5.6,5.6
		C51.1,68.6,48.6,71.1,45.5,71.1z M51.1,48.7c0,3.1-2.5,5.6-5.6,5.6c-3.1,0-5.6-2.5-5.6-5.6V26.1c0-3.1,2.5-5.6,5.6-5.6
		c3.1,0,5.6,2.5,5.6,5.6V48.7z"/>
</g>
</svg>
