<!-- Generated by IcoMoon.io -->
<svg version="1.1" xmlns="http://www.w3.org/2000/svg" width="24" height="24" viewBox="0 0 24 24">
<title>warning-diamond</title>
<path d="M23.105 10.395l-9.447-9.447c-0.921-0.921-2.421-0.921-3.342 0l-9.447 9.447c-0.921 0.921-0.921 2.421 0 3.342l9.447 9.421c0.921 0.921 2.421 0.921 3.342 0l9.447-9.447c0.921-0.921 0.921-2.395 0-3.316zM11.974 18.711c-0.816 0-1.474-0.658-1.474-1.474s0.658-1.474 1.474-1.474c0.816 0 1.474 0.658 1.474 1.474s-0.658 1.474-1.474 1.474zM13.447 12.816c0 0.816-0.658 1.474-1.474 1.474s-1.474-0.658-1.474-1.474v-5.947c0-0.816 0.658-1.474 1.474-1.474s1.474 0.658 1.474 1.474v5.947z"></path>
</svg>
