<!-- Generated by IcoMoon.io -->
<svg version="1.1" xmlns="http://www.w3.org/2000/svg" width="24" height="24" viewBox="0 0 24 24">
<title>water</title>
<path d="M19.577 7.778c-1.556-2.307-3.915-4.815-7.079-7.503-3.164 2.688-5.524 5.196-7.079 7.503-1.608 2.317-2.36 4.444-2.36 6.423 0 2.741 0.899 5.048 2.688 6.889 1.799 1.841 4.064 2.783 6.751 2.783s4.952-0.942 6.751-2.783c1.799-1.841 2.688-4.159 2.688-6.889 0-1.979-0.804-4.106-2.36-6.423zM17.979 19.82c-1.46 1.513-3.259 2.265-5.481 2.265s-4.011-0.751-5.481-2.222c-1.46-1.513-2.169-3.397-2.169-5.661 0-1.556 0.614-3.354 1.884-5.333 1.323-1.979 3.206-4.064 5.714-6.275 2.497 2.222 4.392 4.296 5.714 6.275s1.979 3.725 1.979 5.291c0.011 2.265-0.698 4.148-2.159 5.661z"></path>
<path d="M12.148 18.519c-1.28-0.011-2.275-0.497-2.952-1.439-0.54-0.751-0.698-1.524-0.698-1.545-0.095-0.519-0.582-0.857-1.101-0.772-0.519 0.095-0.868 0.582-0.772 1.101 0.275 1.556 1.778 4.519 5.513 4.55 0 0 0.011 0 0.011 0 0.519 0 0.952-0.423 0.952-0.942s-0.423-0.942-0.952-0.952z"></path>
</svg>
