<?xml version="1.0" encoding="utf-8"?>
<!-- Generator: Adobe Illustrator 24.3.2, SVG Export Plug-In . SVG Version: 6.00 Build 0)  -->
<svg version="1.1" id="Layer_1" xmlns="http://www.w3.org/2000/svg" xmlns:xlink="http://www.w3.org/1999/xlink" x="0px" y="0px"
	 viewBox="0 0 226.8 226.8" style="enable-background:new 0 0 226.8 226.8;" xml:space="preserve">
<g>
	<path d="M185,73.5C170.3,51.7,148,28,118.1,2.6C88.2,28,65.9,51.7,51.2,73.5C36,95.4,28.9,115.5,28.9,134.2
		c0,25.9,8.5,47.7,25.4,65.1c17,17.4,38.4,26.3,63.8,26.3c25.4,0,46.8-8.9,63.8-26.3c17-17.4,25.4-39.3,25.4-65.1
		C207.3,115.5,199.7,95.4,185,73.5z M169.9,187.3c-13.8,14.3-30.8,21.4-51.8,21.4c-21,0-37.9-7.1-51.8-21
		c-13.8-14.3-20.5-32.1-20.5-53.5c0-14.7,5.8-31.7,17.8-50.4c12.5-18.7,30.3-38.4,54-59.3c23.6,21,41.5,40.6,54,59.3
		c12.5,18.7,18.7,35.2,18.7,50C190.4,155.2,183.7,173,169.9,187.3z"/>
	<path d="M114.8,175c-12.1-0.1-21.5-4.7-27.9-13.6c-5.1-7.1-6.6-14.4-6.6-14.6c-0.9-4.9-5.5-8.1-10.4-7.3c-4.9,0.9-8.2,5.5-7.3,10.4
		c2.6,14.7,16.8,42.7,52.1,43c0,0,0.1,0,0.1,0c4.9,0,9-4,9-8.9C123.8,179.1,119.8,175.1,114.8,175z"/>
</g>
</svg>
