<!-- Generated by IcoMoon.io -->
<svg version="1.1" xmlns="http://www.w3.org/2000/svg" width="24" height="24" viewBox="0 0 24 24">
<title>wind-power</title>
<path d="M7.496 19.075h-4.239c-0.301 0-0.608 0.301-0.608 0.706s0.301 0.707 0.608 0.707h4.239c0.301 0 0.608-0.301 0.608-0.707s-0.203-0.706-0.608-0.706z"></path>
<path d="M0.847 7.444h4.239c0.301 0 0.608-0.301 0.608-0.707s-0.203-0.608-0.504-0.608h-4.343c-0.301 0-0.608 0.301-0.608 0.707s0.306 0.608 0.608 0.608z"></path>
<path d="M5.174 3.429h4.239c0.301 0 0.608-0.301 0.608-0.707s-0.301-0.707-0.608-0.707h-4.239c-0.301 0-0.608 0.301-0.608 0.707 0 0.4 0.306 0.707 0.608 0.707z"></path>
<path d="M23.569 19.034l-2.535-4.556c-0.14-0.234-0.327-0.468-0.561-0.66-0.234-0.187-0.468-0.281-0.8-0.374l-3.003-0.707c-0.047-0.281-0.094-0.514-0.14-0.8-0.094-0.281-0.187-0.514-0.327-0.753l4.416-7.278c0.374-0.561 0.468-1.221 0.281-1.881-0.14-0.66-0.514-1.174-1.127-1.548-0.468-0.327-0.987-0.421-1.548-0.374-0.514 0.047-1.034 0.281-1.455 0.706l-3.803 3.475c-0.234 0.187-0.374 0.421-0.514 0.707-0.14 0.281-0.187 0.561-0.187 0.894v3.803c-0.234 0.094-0.468 0.234-0.707 0.374-0.234 0.14-0.421 0.327-0.608 0.514h-8.312c-0.707 0-1.314 0.281-1.782 0.753-0.514 0.468-0.753 1.081-0.753 1.782 0 0.608 0.187 1.081 0.514 1.548 0.327 0.421 0.8 0.753 1.314 0.894l4.977 1.408c0.327 0.094 0.66 0.14 0.94 0.094 0.281 0 0.561-0.094 0.847-0.281l2.442-1.501c0.187 0.187 0.421 0.327 0.66 0.468 0.234 0.094 0.468 0.187 0.753 0.281l-0.39 7.803h2.369l-0.286-7.143 5.351 5.351c0.468 0.514 1.081 0.8 1.782 0.8 0.706 0 1.268-0.234 1.782-0.753 0.374-0.421 0.608-0.894 0.707-1.455 0.078-0.556-0.016-1.075-0.296-1.59zM13.481 14.977c-1.158 0-2.094-0.935-2.094-2.094s0.935-2.094 2.094-2.094c1.158 0 2.094 0.935 2.094 2.094s-0.935 2.094-2.094 2.094z"></path>
</svg>
