<?xml version="1.0" encoding="utf-8"?>
<!-- Generator: Adobe Illustrator 24.3.2, SVG Export Plug-In . SVG Version: 6.00 Build 0)  -->
<svg version="1.1" id="Layer_1" xmlns="http://www.w3.org/2000/svg" xmlns:xlink="http://www.w3.org/1999/xlink" x="0px" y="0px"
	 viewBox="0 0 462 462" style="enable-background:new 0 0 462 462;" xml:space="preserve">
<g>
	<path d="M144.3,367.2H62.7c-5.8,0-11.7,5.8-11.7,13.6c0,7.8,5.8,13.6,11.7,13.6h81.6c5.8,0,11.7-5.8,11.7-13.6
		S152.1,367.2,144.3,367.2z"/>
	<path d="M16.3,143.3h81.6c5.8,0,11.7-5.8,11.7-13.6c0-7.8-3.9-11.7-9.7-11.7H16.3c-5.8,0-11.7,5.8-11.7,13.6
		C4.6,139.4,10.5,143.3,16.3,143.3z"/>
	<path d="M99.6,66h81.6c5.8,0,11.7-5.8,11.7-13.6c0-7.8-5.8-13.6-11.7-13.6H99.6c-5.8,0-11.7,5.8-11.7,13.6
		C87.9,60.1,93.8,66,99.6,66z"/>
	<path d="M453.7,366.4l-48.8-87.7c-2.7-4.5-6.3-9-10.8-12.7c-4.5-3.6-9-5.4-15.4-7.2l-57.8-13.6c-0.9-5.4-1.8-9.9-2.7-15.4
		c-1.8-5.4-3.6-9.9-6.3-14.5l85-140.1c7.2-10.8,9-23.5,5.4-36.2c-2.7-12.7-9.9-22.6-21.7-29.8c-9-6.3-19-8.1-29.8-7.2
		c-9.9,0.9-19.9,5.4-28,13.6l-73.2,66.9c-4.5,3.6-7.2,8.1-9.9,13.6c-2.7,5.4-3.6,10.8-3.6,17.2v73.2c-4.5,1.8-9,4.5-13.6,7.2
		c-4.5,2.7-8.1,6.3-11.7,9.9h-160c-13.6,0-25.3,5.4-34.3,14.5c-9.9,9-14.5,20.8-14.5,34.3c0,11.7,3.6,20.8,9.9,29.8
		c6.3,8.1,15.4,14.5,25.3,17.2l95.8,27.1c6.3,1.8,12.7,2.7,18.1,1.8c5.4,0,10.8-1.8,16.3-5.4l47-28.9c3.6,3.6,8.1,6.3,12.7,9
		c4.5,1.8,9,3.6,14.5,5.4l-7.5,150.2h45.6l-5.5-137.5l103,103c9,9.9,20.8,15.4,34.3,15.4c13.6,0,24.4-4.5,34.3-14.5
		c7.2-8.1,11.7-17.2,13.6-28C460.9,386.3,459.1,376.3,453.7,366.4z M259.5,288.3c-22.3,0-40.3-18-40.3-40.3s18-40.3,40.3-40.3
		c22.3,0,40.3,18,40.3,40.3S281.8,288.3,259.5,288.3z"/>
</g>
</svg>
