<?xml version="1.0" encoding="utf-8"?>
<!-- Generator: Adobe Illustrator 22.1.0, SVG Export Plug-In . SVG Version: 6.00 Build 0)  -->
<svg version="1.1" id="Layer_1" xmlns="http://www.w3.org/2000/svg" xmlns:xlink="http://www.w3.org/1999/xlink" x="0px" y="0px"
	 viewBox="0 0 32 32" style="enable-background:new 0 0 32 32;" xml:space="preserve">
<g>
	<path d="M23.7,25.4c0.2-0.3,0.3-0.6,0.4-1s0.2-0.7,0.2-1.1c0-0.9-0.3-1.6-0.7-2.1c-0.4-0.5-1.2-0.7-2.2-0.7c-1,0-1.7,0.3-2.2,0.9
		c-0.5,0.6-0.7,1.4-0.7,2.3v0.5h2.1v-0.5c0-0.4,0.1-0.8,0.2-1s0.3-0.3,0.7-0.3c0.3,0,0.3,0.1,0.5,0.3c0.2,0.2,0.2,0.3,0.2,0.7
		c0,0.3-0.1,0.7-0.3,1c-0.2,0.3-0.4,0.8-0.7,1.2l-0.2,0.3l-2.5,3.9v1.6h5.5v-1.7H21l1.9-2.9C23.3,26.1,23.6,25.7,23.7,25.4z"/>
	<path d="M29.4,20.7H27l-2.8,6.6v1.6h3.2v2.3h2v-2.3h1v-1.6h-1V20.7z M27.5,27.2H26l1.6-4.4V27.2z"/>
	<path d="M31.3,14.6c-0.2-0.3-0.6-0.2-0.7-0.1c-0.1,0.1-1.1,1.3-1.1,1.3c0-0.4,0-0.7,0-1c0-0.1,0-0.2,0-0.3c0-0.4-0.1-1.1-0.2-1.4
		c-0.5-2.2-1.5-4.3-3.2-6.1c-2.4-2.7-5.8-4.2-9.4-4.3c-0.2,0-0.4,0-0.6,0c-3.4,0-6.5,1.3-9,3.6c-2.7,2.4-4.2,5.8-4.3,9.4
		c-0.1,3.6,1.1,7.1,3.6,9.7c2.5,2.8,6.2,4.3,9.9,4.3h0.1c0.3,0,0.5-0.2,0.5-0.5c0-0.3-0.1-0.7-0.7-0.7c-3.6,0.1-6.9-1.4-9.3-4
		c-2-2.2-3.2-5-3.3-7.9h1.5c0.3,0,0.6-0.3,0.6-0.6s-0.3-0.6-0.6-0.6H3.6c0.2-3.3,1.6-6.4,4-8.6c2.2-2,4.9-3.1,7.8-3.3v1.3
		c0,0.3,0.3,0.6,0.6,0.6s0.6-0.3,0.6-0.6V3.5c3.3,0.1,6.4,1.6,8.7,4c1.6,1.8,2.7,3.9,3.1,6.2c0.1,0.7,0.2,1.4,0.1,2.2
		c0,0-0.8-1-0.9-1.2c-0.1-0.2-0.4-0.2-0.7,0c-0.3,0.2-0.2,0.6-0.1,0.7c0.1,0.2,2.1,2.6,2.1,2.6s2.3-2.6,2.4-2.7
		C31.4,15.2,31.5,14.9,31.3,14.6z"/>
	<path d="M17.2,11.4h-1.4V9.2c0-1.8-1.4-3.2-3.2-3.2S9.5,7.4,9.5,9.2v2.2H8.1c-0.5,0-0.9,0.4-0.9,0.9v7.2c0,0.5,0.4,0.9,0.9,0.9h9
		c0.5,0,0.9-0.4,0.9-0.9v-7.1C18.1,11.9,17.7,11.4,17.2,11.4z M14.2,18.9h-3v-0.1L12,16c-0.4-0.3-0.6-0.7-0.6-1.2
		c0-0.8,0.6-1.4,1.4-1.4c0.8,0,1.4,0.6,1.4,1.4c0,0.6-0.4,1-0.8,1.3L14.2,18.9z M14.2,11.6h-2.9V9.3c0-0.8,0.6-1.5,1.5-1.5
		c0.8,0,1.5,0.6,1.5,1.5V11.6z"/>
</g>
</svg>
