<!-- Generated by IcoMoon.io -->
<svg version="1.1" xmlns="http://www.w3.org/2000/svg" width="24" height="24" viewBox="0 0 24 24">
<title>air</title>
<path d="M13.495 14.452c-0.956-0.333-1.992-0.305-2.995-0.277-0.277 0.005-0.534 0.014-0.792 0.014h-7.875c-0.516 0-0.938 0.422-0.938 0.938s0.422 0.938 0.938 0.938h7.875c0.286 0 0.567-0.005 0.844-0.014 1.997-0.056 3.066-0.009 3.6 1.613 0.234 0.712 0.080 1.875-0.994 2.231-0.623 0.206-1.275 0.173-1.584-0.080-0.197-0.159-0.314-0.52-0.234-0.741 0.070-0.202 0.384-0.244 0.633-0.244 0.516 0 0.938-0.422 0.938-0.938s-0.422-0.938-0.938-0.938c-1.172 0-2.067 0.558-2.4 1.491-0.347 0.97 0 2.156 0.82 2.822 0.567 0.455 1.27 0.628 1.955 0.628 0.502 0 0.989-0.094 1.397-0.225 2.086-0.689 2.752-2.878 2.184-4.594-0.441-1.336-1.256-2.222-2.433-2.625z"></path>
<path d="M1.833 9.666h6.431c0.117 0 0.23 0 0.347 0 0.113 0 0.23 0 0.342 0 0.914 0 1.842-0.028 2.686-0.281 1.181-0.356 1.992-1.102 2.489-2.273 0.633-1.495 0.094-2.986-0.089-3.408-0.384-0.891-1.336-1.608-2.428-1.823-0.984-0.197-1.903 0.038-2.527 0.647-0.53 0.516-0.82 1.228-0.806 1.955 0.014 0.67 0.291 1.28 0.773 1.711 0.384 0.342 0.975 0.309 1.322-0.075 0.342-0.384 0.309-0.975-0.075-1.322-0.122-0.108-0.15-0.253-0.15-0.356-0.005-0.206 0.084-0.422 0.239-0.572 0.169-0.169 0.488-0.225 0.848-0.155 0.483 0.098 0.872 0.436 1.073 0.727 0.347 0.497 0.356 1.289 0.084 1.936-0.577 1.364-1.692 1.425-3.778 1.416-0.117 0-0.239 0-0.356 0h-6.427c-0.516 0-0.938 0.422-0.938 0.937s0.422 0.938 0.938 0.938z"></path>
<path d="M21.516 4.889c-0.938-0.769-2.32-1.022-3.487-0.689-1.448 0.413-2.348 1.434-2.409 2.738-0.047 0.956 0.286 1.748 0.942 2.241 0.623 0.469 1.458 0.6 2.241 0.352 0.502-0.159 0.778-0.689 0.619-1.181-0.164-0.492-0.703-0.764-1.205-0.605-0.178 0.056-0.375 0.033-0.492-0.056-0.192-0.145-0.206-0.478-0.197-0.666 0.033-0.614 0.577-0.895 1.031-1.027 0.548-0.159 1.102-0.042 1.547 0.323 0.605 0.497 0.886 1.336 0.778 2.306-0.061 0.577-0.253 2.339-3.633 2.339h-15.295c-0.525 0-0.956 0.422-0.956 0.938s0.431 0.938 0.956 0.938h15.3c1.57 0 3.019-0.323 3.952-0.956 1.013-0.689 1.622-1.744 1.763-3.052 0.178-1.603-0.356-3.037-1.453-3.942z"></path>
</svg>
