<?xml version="1.0" encoding="utf-8"?>
<!-- Generated by IcoMoon.io -->
<!DOCTYPE svg PUBLIC "-//W3C//DTD SVG 1.1//EN" "http://www.w3.org/Graphics/SVG/1.1/DTD/svg11.dtd">
<svg version="1.1" xmlns="http://www.w3.org/2000/svg" xmlns:xlink="http://www.w3.org/1999/xlink" width="512" height="512" viewBox="0 0 512 512">
<path fill="#000000" d="M161.5 139.296c0 14.856-12.052 26.908-26.908 26.908h-50.476c-14.872 0-26.908-12.052-26.908-26.908v-50.476c0-14.856 12.032-26.908 26.908-26.908h50.476c14.856 0 26.908 12.052 26.908 26.908v50.476z"></path>
<path fill="#000000" d="M305.188 139.296c0 14.856-12.052 26.908-26.908 26.908h-50.476c-14.856 0-26.908-12.052-26.908-26.908v-50.476c0-14.856 12.052-26.908 26.908-26.908h50.476c14.856 0 26.908 12.052 26.908 26.908v50.476z"></path>
<path fill="#000000" d="M448.856 139.296c0 14.856-12.032 26.908-26.908 26.908h-50.476c-14.856 0-26.908-12.052-26.908-26.908v-50.476c0-14.856 12.052-26.908 26.908-26.908h50.476c14.872 0 26.908 12.052 26.908 26.908v50.476z"></path>
<path fill="#000000" d="M161.5 279.588c0 14.856-12.052 26.908-26.908 26.908h-50.476c-14.872 0-26.908-12.052-26.908-26.908v-50.456c0-14.856 12.032-26.908 26.908-26.908h50.476c14.856 0 26.908 12.052 26.908 26.908v50.456z"></path>
<path fill="#000000" d="M305.188 279.588c0 14.856-12.052 26.908-26.908 26.908h-50.476c-14.856 0-26.908-12.052-26.908-26.908v-50.456c0-14.856 12.052-26.908 26.908-26.908h50.476c14.856 0 26.908 12.052 26.908 26.908v50.456z"></path>
<path fill="#000000" d="M448.856 279.588c0 14.856-12.032 26.908-26.908 26.908h-50.476c-14.856 0-26.908-12.052-26.908-26.908v-50.456c0-14.856 12.052-26.908 26.908-26.908h50.476c14.872 0 26.908 12.052 26.908 26.908v50.456z"></path>
<path fill="#000000" d="M161.5 419.916c0 14.856-12.052 26.908-26.908 26.908h-50.476c-14.872 0-26.908-12.052-26.908-26.908v-50.476c0-14.856 12.032-26.908 26.908-26.908h50.476c14.856 0 26.908 12.052 26.908 26.908v50.476z"></path>
<path fill="#000000" d="M305.188 419.916c0 14.856-12.052 26.908-26.908 26.908h-50.476c-14.856 0-26.908-12.052-26.908-26.908v-50.476c0-14.856 12.052-26.908 26.908-26.908h50.476c14.856 0 26.908 12.052 26.908 26.908v50.476z"></path>
<path fill="#000000" d="M448.856 419.916c0 14.856-12.032 26.908-26.908 26.908h-50.476c-14.856 0-26.908-12.052-26.908-26.908v-50.476c0-14.856 12.052-26.908 26.908-26.908h50.476c14.872 0 26.908 12.052 26.908 26.908v50.476z"></path>
</svg>
