<?xml version="1.0" encoding="utf-8"?>
<!-- Generated by IcoMoon.io -->
<!DOCTYPE svg PUBLIC "-//W3C//DTD SVG 1.1//EN" "http://www.w3.org/Graphics/SVG/1.1/DTD/svg11.dtd">
<svg version="1.1" xmlns="http://www.w3.org/2000/svg" xmlns:xlink="http://www.w3.org/1999/xlink" width="512" height="512" viewBox="0 0 512 512">
<path fill="#000000" d="M102.304 102.304c-93.728 93.728-93.728 245.696 0 339.424s245.696 93.728 339.424 0c93.728-93.728 93.728-245.696 0-339.424-93.76-93.728-245.696-93.728-339.424 0zM390.976 390.976c-6.24 6.24-16.384 6.24-22.624 0l-176.352-176.352v97.152c0 8.832-7.168 16-16 16s-16-7.168-16-16v-135.776c0-2.080 0.416-4.16 1.248-6.112 0.768-1.888 1.92-3.584 3.328-5.024 0.064-0.064 0.064-0.128 0.128-0.192 0.032-0.032 0.064-0.032 0.096-0.064 1.44-1.408 3.168-2.592 5.056-3.36 1.984-0.832 4.064-1.248 6.144-1.248h135.776c8.832 0 16 7.168 16 16s-7.168 16-16 16h-97.152l176.32 176.32c6.272 6.272 6.272 16.384 0.032 22.656z"></path>
</svg>
