<?xml version="1.0" encoding="utf-8"?>
<!-- Generated by IcoMoon.io -->
<!DOCTYPE svg PUBLIC "-//W3C//DTD SVG 1.1//EN" "http://www.w3.org/Graphics/SVG/1.1/DTD/svg11.dtd">
<svg version="1.1" xmlns="http://www.w3.org/2000/svg" xmlns:xlink="http://www.w3.org/1999/xlink" width="512" height="512" viewBox="0 0 512 512">
<path fill="#000000" d="M102.304 102.304c-93.728 93.728-93.728 245.696 0 339.424s245.696 93.728 339.424 0c93.728-93.728 93.728-245.696 0-339.424-93.76-93.728-245.696-93.728-339.424 0zM384 368c0 0.032 0 0.032 0 0.064 0 2.080-0.416 4.128-1.216 6.048-1.632 3.904-4.736 7.040-8.64 8.64-1.984 0.832-4.064 1.248-6.144 1.248h-135.776c-8.832 0-16-7.168-16-16s7.168-16 16-16h97.152l-176.32-176.32c-6.24-6.24-6.24-16.384 0-22.624s16.384-6.24 22.624 0l176.32 176.32v-97.152c0-8.832 7.168-16 16-16s16 7.168 16 16v135.776z"></path>
</svg>
