<?xml version="1.0" encoding="utf-8"?>
<!-- Generated by IcoMoon.io -->
<!DOCTYPE svg PUBLIC "-//W3C//DTD SVG 1.1//EN" "http://www.w3.org/Graphics/SVG/1.1/DTD/svg11.dtd">
<svg version="1.1" xmlns="http://www.w3.org/2000/svg" xmlns:xlink="http://www.w3.org/1999/xlink" width="512" height="512" viewBox="0 0 512 512">
<path fill="#000000" d="M373.121 158.078h-57.599l-11.522 19.2c-11.522-17.28-28.801-26.882-51.84-26.882-65.281 0-117.121 57.599-117.121 134.401 0 55.679 26.882 82.561 80.642 82.561 28.802 0 49.921-11.522 67.2-36.48 1.92 24.958 21.119 36.48 55.679 36.48 26.882 0 53.76-9.602 76.798-26.882 40.318-30.721 61.442-76.798 61.442-130.562 0-101.76-80.642-174.72-203.521-174.72-78.722 0-147.842 30.721-193.919 86.4-34.56 40.319-51.84 90.239-51.84 145.918 0 63.361 23.038 113.282 69.12 149.762 40.319 32.641 92.159 49.921 153.601 49.921 63.361 0 119.041-19.2 170.88-55.679l-26.882-38.399c-40.319 28.801-86.4 44.162-138.24 44.162-105.6 0-172.8-59.518-172.8-151.681 0-59.518 26.882-111.358 74.879-145.918 30.721-21.119 71.040-32.641 115.201-32.641 92.159 0 149.762 51.84 149.762 122.879 0 63.361-40.318 111.358-78.722 111.358-7.678 0-11.522-3.839-11.522-11.522 0-1.92 0-3.839 1.92-7.678l38.399-143.999zM279.038 275.2c-7.678 30.721-26.882 48.001-49.921 48.001-17.28 0-26.882-13.441-26.882-36.479 0-49.921 26.882-92.159 55.679-92.159 17.28 0 28.801 11.522 30.721 34.56l-9.602 46.082z"></path>
</svg>
