<?xml version="1.0" encoding="utf-8"?>
<!-- Generated by IcoMoon.io -->
<!DOCTYPE svg PUBLIC "-//W3C//DTD SVG 1.1//EN" "http://www.w3.org/Graphics/SVG/1.1/DTD/svg11.dtd">
<svg version="1.1" xmlns="http://www.w3.org/2000/svg" xmlns:xlink="http://www.w3.org/1999/xlink" width="520" height="512" viewBox="0 0 520 512">
<path fill="#000000" d="M67.948 234.843c0 2.71 0 8.132-4.058 6.768-1.364 0-5.422-1.347-6.444-2.694 1.023-1.364-2.694-6.445 1.023-7.792 2.711 1.347 8.132 1.347 9.479 3.716v0z"></path>
<path fill="#000000" d="M454.549 320.155c-0.324-0.204-0.461-0.273-0.563-0.29 0.324 0.307 0.563 0.426 0.563 0.29z"></path>
<path fill="#000000" d="M504.315 309.653c-15.923-32.836-14.56-57.557-11.849-90.394-4.058-27.415-22.351-51.113-41.974-72.1-26.409-27.415-69.406-28.779-104.954-18.293-56.193 6.445-103.572-55.17-158.418-15.906-25.061 23.698-47.396 48.743-76.174 62.962-9.138 4.041-19.623-6.445-28.779-3.733-9.138 1.347-10.502 11.508-13.196 16.929-3.734 0-3.734-6.445-9.138-4.058-10.502 2.694-9.138 13.196-9.138 22.334-3.733 6.768-12.871 10.502-15.582 17.287 0 19.623-23.698 24.704-32.836 40.627-2.711 2.37 1.347 5.063 1.347 7.774 6.444 10.485 20.988 14.219 32.853 12.872l-4.075 1.364c-4.058 4.058 1.347 9.138 5.404 11.849 5.081 4.058 14.219 1.347 20.646 0 10.502-5.081 14.56 6.752 23.715 4.058 9.138-2.711 20.971-10.502 31.49-4.058 5.404 5.404 20.97 5.404 16.912 15.906-6.427 11.525-12.855 24.721-20.971 35.206-11.525 14.56-30.142 11.849-41.633 25.044-1.347 2.387 0 6.445 0 9.155 3.716 2.693 1.023 3.716 12.855 5.063 11.849 1.364 57.898 1.364 68.383-1.347 2.387-1.023 3.733-2.37 3.733-2.37 16.929-17.27 27.415-35.547 46.032-52.476 10.502-2.693 10.502 10.502 19.641 15.582 0 19.623-26.409 11.832-32.836 30.125-1.364 2.711-1.364 4.058 1.347 6.769 10.485 2.37 20.988 0 31.489 0 12.855 0 27.398-1.347 37.917-1.347 13.196-6.769 32.836-47.396 22.351-73.464 10.485-5.098 23.357-2.711 35.206-2.711l1.347 1.347c1.347 11.849 13.196 22.351 10.485 36.894-3.716 20.646-31.49 14.219-36.57 33.859 0 2.693 0 5.404 1.364 6.752 15.565 5.081 33.842 1.023 51.113 1.023 10.485 0 20.988 1.347 27.414-6.428 10.485-27.414 16.913-51.113 37.917-73.464 2.711 0 6.769-1.364 6.769 1.347 12.854 11.849 24.704 16.93 39.264 26.409 2.37 3.733 1.364 5.081 0 7.791-14.56 14.219-36.894 18.276-40.627 35.189-1.347 4.058 0 4.058 2.387 5.421 19.623 3.716 41.974 0 61.598 1.347 11.849-1.347 18.635-11.849 26.409-20.988 5.081-9.138 12.872-19.623 12.872-32.836l-11.508-22.317zM271.052 354.355c-4.058 7.791-13.196 23.357-23.698 22.351-2.71 0-30.143 2.37-39.263 2.37-9.155 0-10.502 0-11.849-1.347 0-1.023 4.058-5.081 6.428-6.428 1.347-1.364 14.56-4.075 19.623-6.445 5.422-4.058 5.422-17.271 2.71-18.276-2.71-2.693-7.792-10.485-7.792-10.485s16.929-2.711 18.293-5.404c1.347-2.711 13.179-5.081 14.56-5.081 2.369-1.364 11.508-2.711 14.219-2.711 2.693 1.347 11.832 0 11.832 0s0 0 1.364 6.428c0.017 6.735-4.058 17.236-6.428 25.027zM420.349 288.683c-10.485 4.041-25.045 15.906-26.409 22.351-2.37 2.693-14.219 20.971-15.565 28.779-4.058 6.752-2.711 4.058-11.849 28.779-2.711 5.404-1.347 9.138-13.196 13.196-16.93 0-26.050 0-44.361 1.347-2.693 0-7.774-1.347-7.774-2.693 5.081-14.219 26.067-6.445 32.495-22.351 17.271-22.010-10.485-37.934-10.485-61.615 0-19.623 10.485-36.57 18.618-52.136 0-2.71-1.364-1.364-4.058-1.364-6.445 2.387-6.445 6.445-11.849 12.871-2.693 6.768-2.693 5.422-7.774 14.56-1.364 4.058-5.421-9.121-6.445-9.121 0-2.711-5.404 11.832-4.058 19.623 0 2.693-7.774-9.138-10.485-6.445 1.347 2.387 6.428 14.236 15.565 22.010-36.57 0-53.483 2.711-66.695-6.428-14.56-23.698-1.347 9.138-25.044 22.351-11.508 7.774-18.276 10.485-27.415 16.913-15.565 9.138-33.842 46.032-44.362 49.766-14.56 5.421-68.383 2.711-68.383 2.711 0-9.138 19.641-13.196 31.49-19.623 9.138-10.485 30.142-43.339 31.489-47.072l20.988-39.604c2.71-3.716 9.138-24.704 5.081-24.704 0 0-6.428 9.138-7.792 11.849-5.081 6.428-9.138 12.854-16.912 16.913 0-6.428 7.774-10.485 4.041-22.351-5.405 5.421-14.56 23.715-14.56 23.715-2.694 5.081-5.405 6.428-9.138 10.485l2.71-19.623c0-1.364-1.364-1.364-4.058-1.364-5.081 13.196-13.196 15.582-28.779 23.715-11.849 6.428-19.641-6.769-31.489 0-6.444 1.347-14.56 5.081-18.276 0 5.081-4.058 16.913-5.404 16.913-15.923l-5.081-1.347c-11.831 2.693-27.756 9.138-38.24-1.364-2.369-1.023-3.733-3.716-3.733-6.428 11.849-13.196 32.495-20.971 32.495-40.627 13.196-15.565 34.201-24.704 35.547-45.708 2.71-2.71 9.138-1.347 13.196-1.347 11.849 3.733 19.623 16.929 22.351 28.779 1.023 1.364 2.37 0 3.734 0 1.347 0-3.734-20.971-3.734-22.351 3.734-1.347 10.161-7.792 16.929-11.832 9.138-6.445 13.179-10.502 15.566-12.871 13.196-11.849 19.623-18.618 23.698-22.351l18.276-15.906 14.56-7.791c6.428-2.71 15.566-5.081 18.26-5.081 36.587 1.023 62.962 48.402 116.461 31.131 41.974-12.855 78.868-11.508 104.936 15.923 18.276 19.623 37.917 45.708 39.281 66.695 0 9.121-3.733 8.132-14.219 6.751-7.791-2.71-4.058 2.369-4.058 5.081-5.098 11.849-7.791 17.27-11.849 20.988-7.791 14.56-18.276 20.971-23.357 23.698-2.693 2.711-8.115 3.733-13.196 6.445zM493.813 364.841c0 0-8.132 9.138-10.485 10.485-4.058 2.387-23.698 1.364-31.49 2.387-7.791 0-28.779 2.711-28.779 0 0-6.428 21.993-16.93 27.414-18.276 4.058 0 13.179-6.428 15.565-9.138 6.769-6.428 0-16.93 0-16.93s-13.298-13.588-12.070-13.486c-2.864-2.421-15.991-18.685-9.94-24.431 26.067-26.409 27.414-30.125 32.495-47.379 2.711-5.098 6.769 0 6.769 0s-1.347 20.97 3.733 39.263c4.041 11.849 13.179 31.49 14.56 32.836 2.711 2.711 7.791 13.196 7.791 14.56 0 2.37-1.364 10.485-3.733 14.219-1.33 4.041-11.832 15.889-11.832 15.889z"></path>
</svg>
