<?xml version="1.0" encoding="utf-8"?>
<!-- Generator: Adobe Illustrator 22.1.0, SVG Export Plug-In . SVG Version: 6.00 Build 0)  -->
<svg version="1.1" id="Layer_1" xmlns="http://www.w3.org/2000/svg" xmlns:xlink="http://www.w3.org/1999/xlink" x="0px" y="0px"
	 viewBox="0 0 2000 2000" style="enable-background:new 0 0 2000 2000;" xml:space="preserve">
<g>
	<polygon points="119,652 237.4,565.8 356.8,650.7 311.4,511.4 429,424.2 282.5,424.3 235.9,285.4 190.7,424.8 44.3,426.2 
		162.9,512.2 	"/>
	<path d="M385.3,725.8c-2.8,3-5.5,5.9-7.8,8.5c-6.9,7.7-11.2,12.8-11.2,12.8c0-5.4-2.7-10.8-9.8-17c-31.9-27.9-43.8-11.9-55.8-8
		c-12,4-15.9,39.8-15.9,39.8s-19.9-19.9-43.8-12s-31.9,35.9-27.9,51.8c4,15.9-67.7,71.7-71.7,103.6c-4,31.9,4,35.9-4,51.8
		c-8,15.9-91.6,99.6-91.6,99.6s71.7,79.7,111.5,79.7c39.8,0,155.4-19.9,155.4-19.9s75.7,27.9,107.6,4c13.2-9.9,33.8-30,49.3-55.3
		c14-8.1,27.4-16.5,38.3-24.4c27.6-9.2,53.8-5.4,64.5-3.2c0.2,0,0.5,0.1,0.7,0.1c1.2,0.3,2.1,0.5,2.9,0.7c-0.7-0.2-1.7-0.4-2.9-0.7
		l3.7,2c-27.2,29.5-35,154.4-35,154.4c-75.7,83.7-67.7,123.5-83.7,143.4c-15.9,19.9-47.8,0-71.7,0s-43.8,23.9-59.8,43.8
		c-15.9,19.9,23.9,15.9,23.9,15.9h195.2c15.9-19.9,43.8-59.8,115.5-91.6c54-24,123.9-91,163.5-132.8l0,0c0.2-0.2,0.4-0.4,0.6-0.6
		c2.5,2.1,5,4.2,7.4,6.2l0,0c8.4,6.9,15.7,12.6,20.3,15.6c0,0,0,0,0,0c15.8,15.3,46.9,44.5,75.1,66.1c39.8,30.6,35.9,39.3,31.9,61.1
		c-4,21.8-31.9,4.4-63.7,13.1c-31.9,8.7-35.9,48-35.9,48h151.4c0,0,59.8-69.9,75.7-109.2c12.9-31.8-23.8-100.9-38.3-126c0,0,0,0,0,0
		c-3.1-5.9-5.4-12.3-7.2-19l0,0c-0.6-2.3-1.2-4.7-1.7-7.1c66.6,14.5,128,8.6,158.6-6.7c7.8-3.9,14.9-8.7,21.5-14.1
		c0.8-0.6,1.7-1.2,2.5-1.9c1.8,0.5,3.5,1.1,5.1,1.7c5.3,2,9.3,4.7,12.3,7.8c2,2,3.5,4.1,4.8,6.2l0,0.3l-0.1,0.5
		c-0.3,0.5-0.5,1-0.8,1.5c-45.4,82.4-5.4,191.6-5.4,217.1c0,27.9-11.9,12-11.9,12c-51.8-12-65.7,2-65.7,2
		c-47.8,19.9-27.9,51.8-27.9,51.8h227.1c0,0,8-11.9,4-35.9c-4-23.9,4-31.9,35.9-39.8c17.2-4.3,75-93.4,125.8-148.5
		c2.6-2.8,5.2-5.6,7.7-8.2c0.2,0.2,0.4,0.4,0.6,0.6c2.1,1.9,4.1,4.3,6,6.9c18.7,26.5,31.5,89.9,49.5,95.5c7.5,4.2,16.5,7.7,27.4,9.8
		c63.7,12.4,157.3,43.2,133.4,55.6c-23.9,12.4-41.8-22.7-81.7,10.3c-39.8,32.9-27.9,53.5-27.9,53.5h179.3c0,0,23.9-86.5,39.8-115.3
		c15.9-28.8,4-32.9-27.9-70c-31.9-37.1-36.4-86.5-39.8-201.8c-0.4-11.6-2.1-24.2-4.9-37v0c-6.9-31.3-19.8-64.5-32.2-89.9
		c-12.4-25.6-24.1-43.3-28.3-43.3c0,0,0.2-2.6,0.5-6.6c0.3-4.5,0.8-10.7,1-17.1c0.3-6.3,0.4-12.8,0.1-17.6
		c-0.6-9.6-13.6-39.6-37.1-52c-40-21,7.2,25.3-52.6-42.4c-59.8-67.7-187.2-111.5-342.6-127.5c-60.4-6.2-119-4.5-170.9-0.2
		c-79.8,6.6-143.6,19.6-173.7,20.1c-0.6,0-1.3,0-2,0c-47.8,0-107.6-51.8-187.2-63.7c-5.3-0.8-10.6-1.2-15.9-1.2
		c-72.9-0.3-137.1,71-215.2,100.8c-20.4,7.8-39.1,17.6-56.4,28.8c0,0,0,0,0,0C454,656.9,410.4,698.9,385.3,725.8z M577.5,1038.9
		L577.5,1038.9c0,0-0.1,0-0.1,0C577.5,1038.8,577.5,1038.9,577.5,1038.9z"/>
	<path d="M1042,1429.2c-723.3,0-996.3,126.5-996.3,126.5H2000C2000,1555.7,1719.3,1429.2,1042,1429.2z"/>
</g>
</svg>
