<?xml version="1.0" encoding="utf-8"?>
<!-- Generated by IcoMoon.io -->
<!DOCTYPE svg PUBLIC "-//W3C//DTD SVG 1.1//EN" "http://www.w3.org/Graphics/SVG/1.1/DTD/svg11.dtd">
<svg version="1.1" xmlns="http://www.w3.org/2000/svg" xmlns:xlink="http://www.w3.org/1999/xlink" width="512" height="512" viewBox="0 0 512 512">
<path fill="#000000" d="M282.456 418.044v-46.298h-19.842v44.645c4.961 1.654 11.575 1.654 19.842 1.654z"></path>
<path fill="#000000" d="M322.14 421.351v-49.605h-19.842v47.952c6.614 1.654 13.228 1.654 19.842 1.654z"></path>
<path fill="#000000" d="M363.478 426.312v-54.566h-19.842v51.259c6.614 1.654 13.228 3.307 19.842 3.307z"></path>
<path fill="#000000" d="M85.688 389.934c0 0-3.307-8.268-1.654-13.228 0 0-9.921-8.268-4.961-16.535l8.268-4.961v-8.268c0 0 41.338-28.11 168.658-28.11s168.658 28.11 168.658 28.11v8.268l8.268 4.961c4.961 8.268-4.961 16.535-4.961 16.535 1.654 4.961-1.654 13.228-1.654 13.228l1.654 42.991c42.991-44.645 71.101-107.478 71.101-176.926 0-133.934-104.171-241.413-233.145-246.373 0 1.654-1.654 1.654-1.654 1.654 0 4.961 4.961 8.268 4.961 8.268 3.307 0 6.614 6.614 6.614 6.614v3.307h-39.684v-3.307c0 0 1.654-6.614 6.614-6.614 0 0 4.961-3.307 4.961-8.268 0 0 0 0-1.654-1.654-130.627 4.961-233.145 114.092-233.145 246.373 0 67.794 26.456 128.974 71.101 173.619l1.654-39.684zM229.544 57.579c1.654-1.654-11.575-6.614 0-9.921s16.535-4.961 24.803-4.961c8.268 0 13.228 0 24.803 4.961s-1.654 8.268 0 9.921c1.654 1.654 0 4.961 0 4.961v24.803c1.654 0 4.961 3.307 4.961 3.307s3.307 3.307 0 4.961v6.614c0 0-18.189-3.307-29.763-3.307-9.921 0-29.763 3.307-29.763 3.307v-6.614c-3.307-1.654 0-4.961 0-4.961s1.654-3.307 3.307-3.307v-24.803c1.654 0 0-3.307 1.654-4.961zM208.048 128.68c0-4.961 0-6.614 0-6.614s9.921-9.921 46.298-9.921v0c36.377 0 46.298 9.921 46.298 9.921s0 1.654 0 6.614c0 4.961 1.654 6.614 1.654 9.921s-46.298 0-47.952 0c-1.654 0-47.952 3.307-47.952 0s1.654-4.961 1.654-9.921zM122.066 229.544c1.654 0 4.961-3.307 11.575-6.614 0-1.654 1.654-3.307 1.654-3.307 3.307-1.654 14.882-72.755 117.399-72.755s115.746 71.101 117.399 72.755c1.654 0 1.654 1.654 1.654 1.654 9.921 3.307 13.228 6.614 14.882 8.268 4.961 1.654 4.961 19.842 4.961 19.842l-135.588-4.961-138.895 6.614c0 0-1.654-18.189 4.961-21.496zM108.837 275.842c9.921-3.307 47.952-11.575 145.509-11.575s135.588 8.268 145.509 11.575c9.921 3.307-1.654 8.268-1.654 9.921s-1.654 3.307-1.654 3.307v8.268c0 0 3.307 8.268 0 9.921 0 0-34.724-8.268-142.202-8.268s-142.202 8.268-142.202 8.268c-3.307-1.654 0-9.921 0-9.921v-8.268c0 0-1.654-1.654-1.654-3.307 0 0-13.228-6.614-1.654-9.921z"></path>
<path fill="#000000" d="M383.32 429.619c8.268 1.654 14.882 1.654 19.842 3.307v-61.18h-19.842v57.873z"></path>
<path fill="#000000" d="M242.772 418.044v-46.298h-19.842v46.298c6.614 0 13.228 0 19.842 0z"></path>
<path fill="#000000" d="M256 465.996h-127.32c38.031 23.149 81.022 38.031 127.32 38.031s90.943-13.228 127.32-38.031h-127.32z"></path>
<path fill="#000000" d="M102.223 432.926c6.614-1.654 13.228-1.654 21.496-3.307v-57.873h-21.496c0 0 0 61.18 0 61.18z"></path>
<path fill="#000000" d="M161.75 424.658v-52.912h-19.842v54.566c6.614 0 13.228 0 19.842-1.654z"></path>
<path fill="#000000" d="M201.434 421.351v-49.605h-19.842v49.605c6.614 0 13.228 0 19.842 0z"></path>
</svg>
