<?xml version="1.0" encoding="utf-8"?>
<!-- Generated by IcoMoon.io -->
<!DOCTYPE svg PUBLIC "-//W3C//DTD SVG 1.1//EN" "http://www.w3.org/Graphics/SVG/1.1/DTD/svg11.dtd">
<svg version="1.1" xmlns="http://www.w3.org/2000/svg" xmlns:xlink="http://www.w3.org/1999/xlink" width="512" height="512" viewBox="0 0 512 512">
<path fill="#000000" d="M256 10.4c-132.893 0-240.554 111.024-240.554 245.6s107.66 245.6 240.554 245.6c132.894 0 240.554-109.343 240.554-245.6s-107.661-245.6-240.554-245.6zM252.635 208.899c31.962 6.728 52.149 37.007 45.418 68.971l-26.916-5.046c3.365-18.505-6.728-33.644-23.55-37.007l5.046-26.916zM353.567 409.079c-15.139 16.822-31.962 37.007-31.962 37.007s-37.007 42.055-105.978-40.373c-33.644-38.69-53.829-67.288-65.606-85.793v0c-15.139-21.868-26.916-45.418-48.784-92.521-43.737-97.567 10.094-112.707 10.094-112.707s25.233-6.728 47.101-13.457c21.868-6.728 40.373 30.279 40.373 30.279s31.962 50.466 15.139 67.288c-18.505 18.505-38.69 25.233-35.327 43.738 1.683 10.094 10.094 28.598 20.187 47.101v0c11.776 20.187 25.233 33.644 33.644 38.69 15.139 10.094 30.279-5.046 55.512-13.457 21.868-8.411 53.829 43.738 53.829 43.738s26.916 33.644 11.776 50.466zM356.932 289.644l-33.644-6.728c10.094-47.101-20.187-90.839-65.606-100.932l6.728-35.327c63.923 13.457 105.978 77.382 92.521 142.987zM425.901 303.101l-37.007-8.411c16.822-82.428-35.327-163.173-117.754-179.994l8.411-37.007c100.932 21.868 166.537 122.8 146.351 225.413z"></path>
</svg>
