<?xml version="1.0" encoding="utf-8"?>
<!-- Generated by IcoMoon.io -->
<!DOCTYPE svg PUBLIC "-//W3C//DTD SVG 1.1//EN" "http://www.w3.org/Graphics/SVG/1.1/DTD/svg11.dtd">
<svg version="1.1" xmlns="http://www.w3.org/2000/svg" xmlns:xlink="http://www.w3.org/1999/xlink" width="512" height="512" viewBox="0 0 512 512">
<path fill="#000000" d="M272 32c-132.544 0-240 107.456-240 240s107.456 240 240 240 240-107.456 240-240-107.456-240-240-240zM323.2 364.512c6.24 6.24 6.24 16.384 0 22.624s-16.384 6.24-22.624 0l-103.776-103.776c-3.136-3.136-4.672-7.232-4.672-11.36s1.536-8.224 4.672-11.36l103.776-103.776c6.24-6.24 16.384-6.24 22.624 0s6.24 16.384 0 22.624l-92.512 92.512 92.512 92.512z"></path>
</svg>
