<?xml version="1.0" encoding="utf-8"?>
<!-- Generated by IcoMoon.io -->
<!DOCTYPE svg PUBLIC "-//W3C//DTD SVG 1.1//EN" "http://www.w3.org/Graphics/SVG/1.1/DTD/svg11.dtd">
<svg version="1.1" xmlns="http://www.w3.org/2000/svg" xmlns:xlink="http://www.w3.org/1999/xlink" width="512" height="512" viewBox="0 0 512 512">
<path fill="#000000" d="M364.512 220.8l-92.512 92.512-92.512-92.512c-6.24-6.24-16.384-6.24-22.624 0s-6.24 16.384 0 22.624l103.776 103.776c3.136 3.136 7.264 4.704 11.36 4.672 4.128 0 8.224-1.536 11.36-4.672l103.776-103.776c6.24-6.24 6.24-16.384 0-22.624s-16.384-6.24-22.624 0zM273.152 34.272c-131.904 0-238.848 106.944-238.848 238.848-0.032 131.936 106.912 238.88 238.848 238.88 131.904 0 238.848-106.944 238.848-238.848 0-131.936-106.944-238.88-238.848-238.88zM273.152 480c-114.048 0-206.848-92.8-206.848-206.848s92.8-206.848 206.848-206.848c114.048-0.032 206.848 92.768 206.848 206.848 0 114.048-92.8 206.848-206.848 206.848z"></path>
</svg>
