<?xml version="1.0" encoding="utf-8"?>
<!-- Generated by IcoMoon.io -->
<!DOCTYPE svg PUBLIC "-//W3C//DTD SVG 1.1//EN" "http://www.w3.org/Graphics/SVG/1.1/DTD/svg11.dtd">
<svg version="1.1" xmlns="http://www.w3.org/2000/svg" xmlns:xlink="http://www.w3.org/1999/xlink" width="512" height="512" viewBox="0 0 512 512">
<path fill="#000000" d="M347.2 260.64l-103.776-103.776c-6.24-6.24-16.384-6.24-22.624 0s-6.24 16.384 0 22.624l92.512 92.512-92.512 92.512c-6.24 6.24-6.24 16.384 0 22.624s16.384 6.24 22.624 0l103.776-103.776c3.136-3.136 4.704-7.264 4.672-11.36 0-4.128-1.536-8.224-4.672-11.36zM273.152 34.304c-131.904 0-238.848 106.944-238.848 238.848s106.944 238.848 238.848 238.848 238.848-106.944 238.848-238.848-106.944-238.848-238.848-238.848zM273.152 480c-114.048 0-206.848-92.8-206.848-206.848s92.8-206.848 206.848-206.848 206.848 92.8 206.848 206.848-92.8 206.848-206.848 206.848z"></path>
</svg>
