<?xml version="1.0" encoding="utf-8"?>
<!-- Generator: Adobe Illustrator 22.1.0, SVG Export Plug-In . SVG Version: 6.00 Build 0)  -->
<svg version="1.1" id="Layer_1" xmlns="http://www.w3.org/2000/svg" xmlns:xlink="http://www.w3.org/1999/xlink" x="0px" y="0px"
	 viewBox="0 0 32 32" style="enable-background:new 0 0 32 32;" xml:space="preserve">
<g>
	<path d="M23,19.3c0.2-0.1,0.4-0.1,0.6-0.1c0.3,0,0.7-0.3,1-0.7c0.3-0.4,0.4-0.8,0.3-1.1c-0.3-0.8,0.2-2,1-2.4
		c0.3-0.2,0.5-0.6,0.5-1c0.1-0.5,0-0.9-0.3-1.2c-0.6-0.6-0.8-1.8-0.3-2.6c0.2-0.3,0.2-0.8,0-1.2c-0.2-0.4-0.4-0.7-0.8-0.9
		c-0.9-0.3-1.6-1.3-1.5-2.2c0-0.3-0.2-0.7-0.5-1c-0.3-0.3-0.7-0.5-1.1-0.4c-0.9,0.2-2-0.4-2.3-1.2c-0.2-0.3-0.5-0.6-1-0.7
		c-0.4-0.1-0.9-0.1-1.2,0.1c-0.7,0.6-1.9,0.6-2.6,0c-0.3-0.2-0.7-0.3-1.2-0.1c-0.4,0.1-0.8,0.4-1,0.7c-0.3,0.8-1.5,1.4-2.3,1.2
		c-0.3,0-0.7,0.1-1.1,0.4C8.9,5,8.6,5.4,8.6,5.8C8.7,6.7,8,7.7,7.1,7.9C6.8,8.1,6.5,8.4,6.3,8.8c-0.2,0.4-0.2,0.9,0,1.2
		c0.5,0.8,0.3,2-0.3,2.6c-0.2,0.3-0.3,0.7-0.3,1.1c0.1,0.4,0.3,0.8,0.5,1c0.8,0.4,1.2,1.6,0.9,2.5c-0.1,0.3,0,0.8,0.3,1.1
		c0.3,0.4,0.6,0.6,1,0.7c0.2,0,0.4,0.1,0.7,0.2L5,29.1l3.8-0.9l2.1,3.3l3.8-9.2c0,0,0.1,0.1,0.1,0.1c0.2,0.3,0.6,0.4,1.1,0.4
		c0.5,0,0.9-0.1,1.1-0.4c0.1-0.1,0.1-0.1,0.2-0.2l3.8,9.3l2.1-3.3l3.8,0.9L23,19.3z M9.5,12.7c0-3.6,2.9-6.5,6.5-6.5
		c3.6,0,6.5,2.9,6.5,6.5s-2.9,6.5-6.5,6.5C12.4,19.2,9.5,16.3,9.5,12.7z"/>
	<ellipse transform="matrix(0.9732 -0.2298 0.2298 0.9732 -2.4823 4.0149)" cx="16" cy="12.7" rx="5.3" ry="5.3"/>
</g>
</svg>
