<?xml version="1.0" encoding="utf-8"?>
<!-- Generator: Adobe Illustrator 22.1.0, SVG Export Plug-In . SVG Version: 6.00 Build 0)  -->
<svg version="1.1" id="Layer_1" xmlns="http://www.w3.org/2000/svg" xmlns:xlink="http://www.w3.org/1999/xlink" x="0px" y="0px"
	 viewBox="0 0 32 32" style="enable-background:new 0 0 32 32;" xml:space="preserve">
<g>
	<path d="M22.3,14.6c-1.8,0-3.1,0-4.9,0c0,0,3-4.5,4.5-6.6c-2.1,0-5.4,0-7.4,0.1c-0.1,0.2-4.3,9.5-4.5,9.8c1.6,0,3.1,0,4.6,0
		L11.8,25C11.8,25,18.3,18.6,22.3,14.6z"/>
	<path d="M28.3,24c-0.2,0-1.7,0.3-1.7,0.3c4-5.1,3.8-12.7-0.7-17.5c-2.4-2.7-5.8-4.2-9.4-4.3c-3.5-0.1-7,1.1-9.6,3.6
		c-2.7,2.4-4.2,5.8-4.3,9.4c-0.1,3.6,1.1,7.1,3.6,9.7c2.5,2.8,6.2,4.3,9.9,4.3h0.1c0.3,0,0.5-0.2,0.5-0.5s-0.2-0.5-0.5-0.5
		c-3.6,0.1-6.9-1.4-9.3-4c-2.3-2.5-3.4-5.6-3.3-9c0.1-3.3,1.6-6.4,4-8.7c2.5-2.3,5.6-3.4,9-3.3c3.3,0.1,6.4,1.6,8.7,4
		c4.2,4.5,4.4,11.5,0.6,16.3c0,0,0-1.3,0-1.5s-0.2-0.6-0.6-0.5c-0.4,0-0.5,0.4-0.5,0.6s0.2,3.4,0.2,3.4s3.4-0.7,3.6-0.7
		c0.2,0,0.5-0.3,0.4-0.7C28.9,24.1,28.6,24,28.3,24z"/>
</g>
</svg>
