<?xml version="1.0" encoding="utf-8"?>
<!-- Generated by IcoMoon.io -->
<!DOCTYPE svg PUBLIC "-//W3C//DTD SVG 1.1//EN" "http://www.w3.org/Graphics/SVG/1.1/DTD/svg11.dtd">
<svg version="1.1" xmlns="http://www.w3.org/2000/svg" xmlns:xlink="http://www.w3.org/1999/xlink" width="512" height="512" viewBox="0 0 512 512">
<path fill="#000000" d="M221.41 405.934c0.625 0.5 1.001 1.188 1.657 1.658 0.939 0.625 2.001 0.75 3.002 1.188 1.189 0.563 2.345 1.094 3.596 1.438 1.22 0.313 2.408 0.469 3.659 0.563 1.782 0.188 3.503 0.188 5.255-0.063 0.72-0.125 1.407-0.313 2.126-0.5 2.158-0.531 4.16-1.376 6.13-2.565 0.344-0.219 0.625-0.469 0.97-0.688 1.282-0.875 2.659-1.533 3.753-2.721 0.782-0.844 1.126-1.939 1.751-2.877 0.031-0.031 0.094-0.063 0.094-0.094l186.37-298.711c6.63-10.102 3.784-23.675-6.349-30.306s-23.675-3.784-30.306 6.349l-172.139 275.88-95.202-92.606c-8.882-8.226-22.706-7.694-30.931 1.188-8.194 8.882-7.662 22.737 1.219 30.932l114.531 111.434c0.219 0.219 0.531 0.281 0.813 0.5z"></path>
</svg>
