<?xml version="1.0" encoding="utf-8"?>
<!-- Generated by IcoMoon.io -->
<!DOCTYPE svg PUBLIC "-//W3C//DTD SVG 1.1//EN" "http://www.w3.org/Graphics/SVG/1.1/DTD/svg11.dtd">
<svg version="1.1" xmlns="http://www.w3.org/2000/svg" xmlns:xlink="http://www.w3.org/1999/xlink" width="512" height="512" viewBox="0 0 512 512">
<path fill="#000000" d="M171.288 4.433h169.423v56.474h-169.423v-56.474z"></path>
<path fill="#000000" d="M440.831 66.043c0-15.397-12.84-28.237-28.237-28.237h-43.645v28.237c0 15.397-12.84 28.237-28.237 28.237h-169.423c-15.397 0-28.237-12.84-28.237-28.237v-28.237h-43.645c-15.397 0-28.237 12.84-28.237 28.237v369.652c0 15.397 12.84 28.237 28.237 28.237h225.898v-84.712c0-15.397 12.84-28.237 28.237-28.237h84.712v-284.94zM212.355 343.28l-84.712-102.677 10.272-12.84 71.882 43.645 151.458-138.618 12.84 10.272-161.719 200.228z"></path>
<path fill="#000000" d="M361.245 386.925v84.712l84.712-84.712z"></path>
</svg>
