<?xml version="1.0" encoding="utf-8"?>
<!-- Generated by IcoMoon.io -->
<!DOCTYPE svg PUBLIC "-//W3C//DTD SVG 1.1//EN" "http://www.w3.org/Graphics/SVG/1.1/DTD/svg11.dtd">
<svg version="1.1" xmlns="http://www.w3.org/2000/svg" xmlns:xlink="http://www.w3.org/1999/xlink" width="512" height="512" viewBox="0 0 512 512">
<path fill="#000000" d="M174.082 19.768h165.741v55.247h-165.742v-55.247z"></path>
<path fill="#000000" d="M435.079 78.827c0-15.239-11.431-26.671-26.671-26.671h-41.914v26.671c0 15.239-11.432 26.671-26.671 26.671h-165.742c-15.239 0-26.671-11.431-26.671-26.671v-26.671h-41.914c-15.239 0-28.576 13.338-28.576 26.671v358.158c0 15.239 11.431 26.671 26.671 26.671h219.087v-81.918c0-15.239 11.432-26.671 26.671-26.671h81.918v-276.24zM259.812 339.824h-123.832c-11.431 0-20.957-7.62-20.957-15.239s9.525-15.239 20.957-15.239h123.832c11.432 0 20.957 7.62 20.957 15.239s-9.526 15.239-20.957 15.239zM374.114 265.526h-238.138c-11.431 0-20.957-7.62-20.957-17.145s9.525-17.145 20.957-17.145h238.138c11.431 0 20.957 7.619 20.957 17.145s-9.526 17.145-20.957 17.145zM374.114 185.513h-238.138c-11.431 0-20.957-7.619-20.957-17.145s9.525-17.145 20.957-17.145h238.138c11.431 0 20.957 7.619 20.957 17.145s-9.526 17.145-20.957 17.145z"></path>
<path fill="#000000" d="M356.969 385.546v83.824l81.918-83.824z"></path>
</svg>
