<?xml version="1.0" encoding="utf-8"?>
<!-- Generated by IcoMoon.io -->
<!DOCTYPE svg PUBLIC "-//W3C//DTD SVG 1.1//EN" "http://www.w3.org/Graphics/SVG/1.1/DTD/svg11.dtd">
<svg version="1.1" xmlns="http://www.w3.org/2000/svg" xmlns:xlink="http://www.w3.org/1999/xlink" width="512" height="512" viewBox="0 0 512 512">
<path fill="#000000" d="M433.981 165.156c-3.707 0-7.417 0-9.269 0-12.979-48.203-57.472-85.282-111.237-85.282-37.079 0-70.451 18.541-90.844 44.496-9.269-3.707-18.541-3.707-27.81-3.707-38.934 0-74.158 24.103-87.137 57.472-9.269-3.707-16.686-5.562-27.81-5.562-38.934 0-68.596 31.517-68.596 68.596s27.81 64.889 63.034 68.596c0 0 1.855 0 1.855 0h133.485l-33.372 120.509h203.936l-33.372-118.654h83.43c0 0 1.855 0 1.855 0 1.855 0 1.855 0 3.707 0 40.786 0 74.158-33.372 74.158-74.158-1.855-40.786-35.224-72.306-76.013-72.306zM370.947 257.855h-61.182l14.831 53.765 25.955 98.261h-148.316l27.81-98.261 14.831-53.765h-61.182c-3.707 0-5.562-1.855-5.562-3.707 0 0 0-1.855 1.855-1.855l92.699-87.137c0 0 1.855-1.855 3.707-1.855s3.707 0 3.707 1.855l92.699 87.137c0 0 1.855 1.855 1.855 1.855 0 1.855-1.855 3.707-3.707 3.707z"></path>
</svg>
