<?xml version="1.0" encoding="utf-8"?>
<!-- Generator: Adobe Illustrator 22.1.0, SVG Export Plug-In . SVG Version: 6.00 Build 0)  -->
<svg version="1.1" id="Layer_1" xmlns="http://www.w3.org/2000/svg" xmlns:xlink="http://www.w3.org/1999/xlink" x="0px" y="0px"
	 viewBox="0 0 32 32" style="enable-background:new 0 0 32 32;" xml:space="preserve">
<style type="text/css">
	.st0{fill:#010002;}
</style>
<g>
	<path d="M27.2,20.3c0-0.2-0.2-0.3-0.4-0.3c-0.6,0-1.1-0.4-1.4-0.9c-0.2-0.6-0.1-1.2,0.4-1.6c0.1-0.1,0.2-0.3,0-0.5
		c-0.3-0.4-0.7-0.7-1-1.1c-0.1-0.1-0.4-0.1-0.5,0c-0.4,0.4-1.1,0.6-1.6,0.4c-0.6-0.2-0.9-0.8-0.9-1.4c0-0.2-0.1-0.4-0.3-0.4
		c-0.5-0.1-1-0.1-1.5,0c-0.2,0-0.3,0.2-0.3,0.4c0,0.6-0.3,1.2-0.9,1.4c-0.5,0.2-1.2,0.1-1.6-0.4c-0.1-0.1-0.3-0.2-0.5,0
		c-0.4,0.3-0.8,0.7-1.1,1.1c-0.1,0.2-0.1,0.4,0,0.5c0.5,0.4,0.6,1.1,0.4,1.6c-0.2,0.5-0.8,0.9-1.4,0.9c-0.2,0-0.4,0.1-0.4,0.3
		c-0.1,0.5-0.1,1,0,1.5c0,0.2,0.2,0.3,0.4,0.3c0.6,0,1.1,0.3,1.4,0.9c0.2,0.6,0.1,1.2-0.4,1.6c-0.1,0.1-0.2,0.3,0,0.5
		c0.3,0.4,0.7,0.7,1,1.1c0.2,0.1,0.4,0.1,0.5,0c0.4-0.4,1.1-0.6,1.6-0.4c0.6,0.2,0.9,0.8,0.9,1.4c0,0.2,0.1,0.4,0.3,0.4
		c0.3,0,0.5,0,0.8,0c0.2,0,0.5,0,0.7,0c0.2,0,0.3-0.2,0.3-0.4c0-0.6,0.3-1.2,0.9-1.4c0.5-0.2,1.2-0.1,1.6,0.4c0.1,0.1,0.3,0.2,0.5,0
		c0.4-0.3,0.8-0.7,1.1-1.1c0.1-0.2,0.1-0.4,0-0.5c-0.5-0.4-0.6-1.1-0.4-1.6c0.2-0.5,0.8-0.9,1.3-0.9l0.1,0c0.2,0,0.4-0.1,0.4-0.3
		C27.2,21.3,27.2,20.8,27.2,20.3z M20.6,24.2c-1.7,0-3.1-1.4-3.1-3.1s1.4-3.1,3.1-3.1s3.1,1.4,3.1,3.1S22.4,24.2,20.6,24.2z"/>
</g>
<path class="st0" d="M18.1,11.7c-1.7,0.4-3.3,1.3-4.6,2.6c-3.6,3.7-3.6,9.7,0.2,13.4c1.3,1.3,3,2,4.7,2.5c0.5,0.1,1-0.2,1.1-0.6
	c0.1-0.6-0.4-0.9-1-1.1c-1.3-0.3-2.6-1-3.6-2c-3.1-3-3.2-7.9-0.1-11c1-1,2.2-1.7,3.5-2l0.1,1.3l2.8-2.4L18,10L18.1,11.7z"/>
<g>
	<path d="M30.5,13.2c-0.8-1.1-1.9-1.9-3.2-2.3c0.1-0.3,0.1-0.6,0.1-1c0-1.1-0.3-2.7-2-3.9c-1.7-1.2-3.3-1.1-4.4-0.9
		c-0.4,0.1-0.8,0.2-1.1,0.4c-0.3-0.4-0.8-1-1.5-1.5c-1.8-1.4-3.9-2-6.2-1.7C10,2.6,7.9,3.7,6.7,5.4c-1,1.3-1.4,2.8-1.3,4.4
		C4.8,10,4.1,10.4,3.3,11c-1.9,1.5-2.9,3.4-2.9,5.5c0,1.5,0.5,3,1.7,4.1c1.3,1.4,3.2,2.2,5.1,2.2h1.4c0.5,0,0.9-0.4,0.9-0.9
		c0-0.5-0.4-0.9-0.9-0.9H7.2c-1.4,0-2.8-0.6-3.8-1.6c-0.5-0.6-1.2-1.5-1.2-2.8c0-1.6,0.8-3,2.2-4.1c1.1-0.9,2.3-1.3,2.3-1.3l0.2-0.1
		c0.4-0.1,0.5-0.3,0.5-0.8l0-0.1C7.1,8.9,7.4,7.6,8.2,6.5c1-1.3,2.6-2.2,4.4-2.4c1.8-0.2,3.4,0.2,4.7,1.3c1.1,0.8,1.6,1.8,1.6,1.8
		c0,0,0.1,0.2,0.2,0.4c0.1,0.2,0.5,0.3,0.8,0.1s0.4-0.3,0.4-0.3c0,0,2-1.5,4.1,0c0.8,0.6,1.2,1.3,1.2,2.2c0,0.7-0.3,1.3-0.3,1.3
		c0,0-0.1,0.2-0.2,0.4c-0.1,0.3-0.1,0.8,0.5,0.9c0.1,0,0.4,0.1,0.4,0.1c1.2,0.2,2.3,0.9,3,1.9c0.7,0.9,0.9,2,0.7,3.2
		c-0.1,0.8-0.5,1.5-1,2c-0.2,0.2-0.5,1-0.1,1.4s1.1,0.3,1.3,0.1c0.9-0.8,1.4-1.9,1.7-3.1C31.9,16.1,31.5,14.5,30.5,13.2z"/>
</g>
</svg>
