<?xml version="1.0" encoding="utf-8"?>
<!-- Generated by IcoMoon.io -->
<!DOCTYPE svg PUBLIC "-//W3C//DTD SVG 1.1//EN" "http://www.w3.org/Graphics/SVG/1.1/DTD/svg11.dtd">
<svg version="1.1" xmlns="http://www.w3.org/2000/svg" xmlns:xlink="http://www.w3.org/1999/xlink" width="512" height="512" viewBox="0 0 512 512">
<path fill="#000000" d="M505.201 87.507c-0.934-14.434-12.367-25.849-26.799-26.799-0.629-0.035-1.239-0.197-1.868-0.197v0.197l-262.931-0.197c-0.61 0-1.223 0.162-1.868 0.197-14.613 0.953-26.154 12.637-26.853 27.32-0.019 0.432-0.143 0.899-0.143 1.366 0 0.448 0.127 0.88 0.143 1.312v186.988h320.325v-186.487c0.035-0.61 0.197-1.204 0.197-1.833 0-0.648-0.162-1.239-0.197-1.868zM452.715 89.197l-107.685 91.706-107.649-91.706h215.334zM213.365 118.207c0.089 0 0.162 0 0.235 0v-11.827l70.711 60.196-70.927 66.758v-115.127zM227.889 249.205l71.323-70.981 45.834 40.065 46.123-40.353 70.945 71.269h-234.226zM476.728 233.315l-70.945-66.758 70.765-60.233v11.862c0.073 0 0.143 0 0.197 0v115.127z"></path>
<path fill="#000000" d="M330.361 345.549c0 0-47.47-45.888-69.329-31.167-23.743 15.89-35.5 35.932-54.983 28.813-10.965-4.025-27.914-15.045-46.5-32.876v0.035c-16.068-16.122-30.341-34.045-34.835-44.595-8.196-19.070 11.233-31.834 25.849-56.368 13.536-22.685-34.798-67.657-34.798-67.657s-29.461-33.667-50.977-21.57c-21.535 12.116-46.733 26.297-46.733 26.297s-52.594 31.204 21.227 122.154c35.77 44.055 54.516 66.022 75.692 85.505l0.089-0.054c17.291 17.291 47.111 41.396 92.659 74.522 94.689 68.932 123.037 14.756 123.037 14.756s12.834-25.9 23.797-48.045c11.017-22.091-24.194-49.754-24.194-49.754z"></path>
</svg>
