<?xml version="1.0" encoding="utf-8"?>
<!-- Generated by IcoMoon.io -->
<!DOCTYPE svg PUBLIC "-//W3C//DTD SVG 1.1//EN" "http://www.w3.org/Graphics/SVG/1.1/DTD/svg11.dtd">
<svg version="1.1" xmlns="http://www.w3.org/2000/svg" xmlns:xlink="http://www.w3.org/1999/xlink" width="512" height="512" viewBox="0 0 512 512">
<path fill="#000000" d="M272 32c-132.544 0-240 107.456-240 240s107.456 240 240 240 240-107.456 240-240-107.456-240-240-240zM299.424 256c46.624 0 84.576 35.872 84.576 80s-37.952 80-84.576 80h-11.424v16c0 8.832-7.168 16-16 16s-16-7.168-16-16v-16h-11.424c-46.624 0-84.576-35.872-84.576-80 0-8.832 7.168-16 16-16s16 7.168 16 16c0 26.464 23.584 48 52.576 48h11.424v-96h-11.424c-46.624 0-84.576-35.872-84.576-80s37.952-80 84.576-80h11.424v-16c0-8.832 7.168-16 16-16s16 7.168 16 16v16h11.424c46.624 0 84.576 35.872 84.576 80 0 8.832-7.168 16-16 16s-16-7.168-16-16c0-26.464-23.584-48-52.576-48h-11.424v96h11.424zM192 208c0 26.464 23.584 48 52.576 48h11.424v-96h-11.424c-28.992 0-52.576 21.536-52.576 48zM299.424 384c28.992 0 52.576-21.536 52.576-48s-23.584-48-52.576-48h-11.424v96h11.424z"></path>
</svg>
