<?xml version="1.0" encoding="utf-8"?>
<!-- Generator: Adobe Illustrator 22.1.0, SVG Export Plug-In . SVG Version: 6.00 Build 0)  -->
<svg version="1.1" id="Layer_1" xmlns="http://www.w3.org/2000/svg" xmlns:xlink="http://www.w3.org/1999/xlink" x="0px" y="0px"
	 viewBox="0 0 32 32" style="enable-background:new 0 0 32 32;" xml:space="preserve">
<style type="text/css">
	.st0{fill:#030104;}
</style>
<g>
	<path class="st0" d="M10.6,20.2c0,0.3,0,2,2.1,2c0.9,0,1.7-0.5,2.4-1.4c0.2-0.2,0.5-0.6,0.7-1.1c1.8-3.7-0.6-6.8-0.6-6.8
		C14.9,10,15.9,8.3,18,8.3c3.2,0,1.7,3.2,2.7,3.2c0.4,0,0.8-0.4,0.8-0.8c0-2.9-1.9-4.5-4-4.5c-2.3,0-3.3,1.2-4.5,4.5
		c-0.6,1.7-0.6,4.1-0.3,6.2C12.5,18.5,10.6,18.1,10.6,20.2z"/>
	<path class="st0" d="M25.5,12.9c0,0,0-0.1,0-0.1c0.1-0.5,0.1-1.1,0.1-1.7c0-5.7-4.6-9.2-8.8-9.2c-3.4,0-6.4,2.1-7.3,3.7
		c-1,1.8-2,2.9-1.9,7.1c0,2.4,2.2,1.8,2.3,0.2c0.2-2.6,0.8-4.5,0.8-4.5C11.3,6.2,13.5,4,16.8,4c3.2,0,6.7,2.7,6.7,7.1
		c0,2.1-0.4,3.7-1.1,5c-0.2,0.4-0.6,1-1.1,1.8c-0.1,0.2-0.3,0.4-0.4,0.5l0,0c-1.1,1.2-1.9,1.4-3.7,4.5c-0.2,0.4-0.4,0.7-0.5,1
		c0,0,0,0.1,0,0.1c-0.9,2.2-1.9,3.6-4.2,3.6c-2.5,0-2.8-3.2-2.8-3.2c0-0.6-0.5-1.1-1.1-1.1c-0.6,0-1.1,0.5-1.1,1.1
		c0,1.4,1.2,5.4,5,5.4c4.2,0,5.6-3.5,6.2-5c0.1-0.1,0.1-0.3,0.2-0.4c0.3-0.6,1.7-2.8,2.3-3.4c0.6-0.6,3.2-3.2,4.2-6.9
		c0-0.1,0-0.2,0.1-0.3C25.4,13.6,25.4,13.2,25.5,12.9z"/>
</g>
</svg>
