<?xml version="1.0" encoding="utf-8"?>
<!-- Generated by IcoMoon.io -->
<!DOCTYPE svg PUBLIC "-//W3C//DTD SVG 1.1//EN" "http://www.w3.org/Graphics/SVG/1.1/DTD/svg11.dtd">
<svg version="1.1" xmlns="http://www.w3.org/2000/svg" xmlns:xlink="http://www.w3.org/1999/xlink" width="512" height="512" viewBox="0 0 512 512">
<path fill="#000000" d="M62.471 115.251c-27.367 39.096-44.962 87.968-44.962 140.749s15.638 101.653 44.962 140.749v-281.497z"></path>
<path fill="#000000" d="M345.924 72.242l101.653 101.653v222.853c27.366-39.096 44.962-87.968 44.962-140.749 0-132.929-107.515-242.401-238.492-242.401-58.643 0-113.382 21.505-154.435 58.644 1.957 0 246.311 0 246.311 0z"></path>
<path fill="#000000" d="M154.347 238.405v7.819l156.387 158.344h13.686v-17.596l-148.567-148.567z"></path>
<path fill="#000000" d="M422.163 197.357h-99.696v-99.696h-232.625v330.368c43.005 43.005 101.653 70.376 166.163 70.376s123.158-27.366 166.163-70.376v-230.673zM312.69 418.253l-76.239-76.239-39.096 41.053h37.143c-5.867 5.867-17.596 17.596-25.415 27.366h-82.105v-21.505l74.286-74.286-66.467-66.467v-21.505h84.058l50.825 50.825 50.825-50.825h46.915v21.505l-70.377 74.286h17.596l39.096 39.096 31.276 29.324v27.366c1.957 0-72.329 0-72.329 0z"></path>
</svg>
