<?xml version="1.0" encoding="utf-8"?>
<!-- Generator: Adobe Illustrator 22.1.0, SVG Export Plug-In . SVG Version: 6.00 Build 0)  -->
<svg version="1.1" id="Layer_1" xmlns="http://www.w3.org/2000/svg" xmlns:xlink="http://www.w3.org/1999/xlink" x="0px" y="0px"
	 viewBox="0 0 32 32" style="enable-background:new 0 0 32 32;" xml:space="preserve">
<g>
	<path d="M26.4,12.5l-4.7,3.1c0,0.1,0,0.3,0,0.4c0,3.2-2.6,5.7-5.7,5.7c-1,0-1.9-0.2-2.7-0.7l-2.2,1.4c1.5,0.5,3.1,0.9,4.8,0.9
		c7.5,0,13.5-6.5,13.7-6.8c0.3-0.3,0.3-0.8,0-1.1C29.6,15.3,28.4,14,26.4,12.5z"/>
	<path d="M31.4,6.6L31,6.1c-0.2-0.2-0.5-0.3-0.7-0.1l-7,4.6c-2.1-1.1-4.6-1.9-7.3-1.9c-7.5,0-13.5,6.5-13.7,6.8
		c-0.3,0.3-0.3,0.8,0,1.1c0.1,0.2,2.3,2.5,5.5,4.3L1.4,25c-0.2,0.2-0.3,0.5-0.1,0.7l0.4,0.5c0.2,0.2,0.5,0.3,0.7,0.1l7-4.6l0,0
		l2.6-1.7l0,0l9.3-6.2l0,0l3.6-2.4l0,0l6.3-4.2C31.5,7.2,31.6,6.9,31.4,6.6z M19.1,13.4c0-0.1-0.1-0.1-0.1-0.2
		c-1.1-1.1-2.8-1.4-4.1-0.8c0.2,0.3,0.4,0.7,0.4,1.1c0,1-0.8,1.8-1.8,1.8c-0.3,0-0.6-0.1-0.9-0.2c-0.2,0.8-0.1,1.7,0.3,2.5L11,18.7
		c-0.4-0.8-0.7-1.7-0.7-2.7c0-3.2,2.6-5.7,5.7-5.7c1.8,0,3.4,0.9,4.5,2.2L19.1,13.4z"/>
</g>
</svg>
