<?xml version="1.0" encoding="utf-8"?>
<!-- Generator: Adobe Illustrator 22.1.0, SVG Export Plug-In . SVG Version: 6.00 Build 0)  -->
<svg version="1.1" id="Layer_1" xmlns="http://www.w3.org/2000/svg" xmlns:xlink="http://www.w3.org/1999/xlink" x="0px" y="0px"
	 viewBox="0 0 32 32" style="enable-background:new 0 0 32 32;" xml:space="preserve">
<g>
	<path d="M29.7,15.5c-0.2-0.3-6.2-6.8-13.7-6.8c-7.5,0-13.5,6.5-13.7,6.8c-0.3,0.3-0.3,0.8,0,1.1c0.2,0.3,6.2,6.8,13.7,6.8
		c7.5,0,13.5-6.5,13.7-6.8C30,16.2,30,15.8,29.7,15.5z M16,21.7c-3.2,0-5.7-2.6-5.7-5.7c0-3.2,2.6-5.7,5.7-5.7
		c3.2,0,5.7,2.6,5.7,5.7C21.7,19.2,19.2,21.7,16,21.7z"/>
	<path d="M16,12.6c-0.5,0-1.1,0.1-1.5,0.4c0.5,0.4,0.8,1,0.8,1.6c0,1.3-1.3,2.3-2.6,1.9c0.3,1.6,1.6,2.8,3.3,2.8
		c1.8,0,3.3-1.5,3.3-3.3S17.8,12.6,16,12.6z"/>
</g>
</svg>
