<?xml version="1.0" encoding="utf-8"?>
<!-- Generator: Adobe Illustrator 22.1.0, SVG Export Plug-In . SVG Version: 6.00 Build 0)  -->
<svg version="1.1" id="Layer_1" xmlns="http://www.w3.org/2000/svg" xmlns:xlink="http://www.w3.org/1999/xlink" x="0px" y="0px"
	 viewBox="0 0 32 32" style="enable-background:new 0 0 32 32;" xml:space="preserve">
<g>
	<path d="M25.9,6.5l-3.6-3.6c-0.2-0.2-0.4-0.3-0.6-0.3H21v5.1h5.1V7.4C26.1,7.1,26,6.6,25.9,6.5z"/>
	<path d="M26,9.8h-5.1c-1.2,0-2-0.7-2-2V2.6h-1.7h-9H6.9c-1.1,0-1.1,0-1.1,1.3v24.3c0,1.3,0,1.3,1.3,1.3h17.6c1.4,0,1.3,0,1.3-1.3
		V9.8z M20.5,17.6l-0.6,0.6c-0.3,0.2-0.6,0.2-0.9-0.1L17,16c0,0,0,6,0,6.4c0,0.5-0.4,0.9-1,0.9s-1-0.5-1-0.9c0-0.4,0-6.4,0-6.4
		l-2,2.1c-0.3,0.4-0.7,0.3-0.9,0.1l-0.6-0.6c-0.2-0.2-0.1-0.7,0.1-0.9l3.4-3.6c0.2-0.2,0.5-0.5,1-0.5s0.8,0.3,1,0.5l3.4,3.6
		C20.7,16.9,20.8,17.3,20.5,17.6z"/>
</g>
</svg>
