<?xml version="1.0" encoding="utf-8"?>
<!-- Generator: Adobe Illustrator 22.1.0, SVG Export Plug-In . SVG Version: 6.00 Build 0)  -->
<svg version="1.1" id="Layer_1" xmlns="http://www.w3.org/2000/svg" xmlns:xlink="http://www.w3.org/1999/xlink" x="0px" y="0px"
	 viewBox="0 0 32 32" style="enable-background:new 0 0 32 32;" xml:space="preserve">
<g>
	<path d="M25.9,6.5l-3.6-3.6c-0.2-0.2-0.4-0.3-0.6-0.3h-0.6v5.1h5.1V7.4C26.2,7.1,26.1,6.6,25.9,6.5z"/>
	<path d="M26.1,9.8h-5.1c-1.2,0-2-0.7-2-2V2.6h-1.7H8.3H7c-1.1,0-1.1,0-1.1,1.3v24.3c0,1.3,0,1.3,1.3,1.3h17.6c1.4,0,1.3,0,1.3-1.3
		V9.8z M22.2,19C22.2,19,22.2,19,22.2,19c0,0.3,0,2.4,0,3.1c0,0.4-0.3,0.5-0.9,0.2c-0.4-0.2-3.1-1.7-3.7-2.1V21c0,1-0.8,1.7-1.7,1.7
		h-4c-1,0-1.7-0.8-1.7-1.7v-2v0v-2c0-1,0.8-1.7,1.7-1.7h4c1,0,1.7,0.8,1.7,1.7v0.9c0.6-0.4,3.2-1.8,3.7-2.1c0.5-0.3,0.9-0.4,0.9,0.2
		C22.2,16.6,22.2,18.7,22.2,19z"/>
</g>
</svg>
