<?xml version="1.0" encoding="utf-8"?>
<!-- Generator: Adobe Illustrator 22.1.0, SVG Export Plug-In . SVG Version: 6.00 Build 0)  -->
<svg version="1.1" id="Layer_1" xmlns="http://www.w3.org/2000/svg" xmlns:xlink="http://www.w3.org/1999/xlink" x="0px" y="0px"
	 viewBox="0 0 32 32" style="enable-background:new 0 0 32 32;" xml:space="preserve">
<g>
	<path d="M13.3,18.5c-0.9,0-1.5,0.7-1.5,1.6s0.7,1.6,1.5,1.6c0.9,0,1.5-0.7,1.5-1.6S14.1,18.5,13.3,18.5z"/>
	<path d="M26.2,7.4c0-0.2-0.1-0.7-0.3-0.9l-3.6-3.6c-0.2-0.2-0.4-0.3-0.6-0.3h-0.6v5.1h5.1V7.4z"/>
	<path d="M26.1,28.2V9.6H21c-1.2,0-1.8-0.5-1.8-1.8V2.6H7c-1.1,0-1.1,0-1.1,1.3v24.3c0,1.3,0,1.3,1.3,1.3h17.6
		C26.2,29.4,26.1,29.4,26.1,28.2z M13.1,9.3V8.1h1.7v1.2H13.1z M14.8,11.4v1.2h-1.7v-1.2H14.8z M13.1,5.9V4.7h1.7v1.2
		C14.8,5.9,13.1,5.9,13.1,5.9z M11.4,3h1.7v1.2h-1.7V3z M11.4,6.4h1.7v1.2h-1.7V6.4z M11.4,9.7h1.7v1.2h-1.7V9.7z M11.4,13.1h1.7
		v1.2h-1.7V13.1z M13.3,22.9c-1.9,0-2.6-1.4-2.6-2.7c0-1.2,1.1-5.3,1.1-5.3h1.4h0.2h1.4c0,0,1.1,4.1,1.1,5.3
		C15.9,21.4,15.2,22.9,13.3,22.9z"/>
</g>
</svg>
