<?xml version="1.0" encoding="utf-8"?>
<!-- Generator: Adobe Illustrator 22.1.0, SVG Export Plug-In . SVG Version: 6.00 Build 0)  -->
<svg version="1.1" id="Layer_1" xmlns="http://www.w3.org/2000/svg" xmlns:xlink="http://www.w3.org/1999/xlink" x="0px" y="0px"
	 viewBox="0 0 32 32" style="enable-background:new 0 0 32 32;" xml:space="preserve">
<g>
	<path d="M25.8,6.5l-3.6-3.6c-0.2-0.2-0.4-0.3-0.6-0.3H21v5.1h5.1V7.4C26.1,7.1,26,6.6,25.8,6.5z"/>
	<path d="M26,9.8h-5.1c-1.2,0-2-0.7-2-2V2.6h-1.7h-9H6.9c-1.1,0-1.1,0-1.1,1.3v24.3c0,1.3,0,1.3,1.3,1.3h17.6c1.4,0,1.3,0,1.3-1.3
		V9.8z M21,25.9h-2.8L16,17l-2.2,9H11l-3-13.4h2.8l1.8,9.5l2.2-9.5h2.3l2.2,9.5l1.8-9.5h2.8L21,25.9z"/>
</g>
</svg>
