<?xml version="1.0" encoding="utf-8"?>
<!-- Generator: Adobe Illustrator 22.1.0, SVG Export Plug-In . SVG Version: 6.00 Build 0)  -->
<svg version="1.1" id="Layer_1" xmlns="http://www.w3.org/2000/svg" xmlns:xlink="http://www.w3.org/1999/xlink" x="0px" y="0px"
	 viewBox="0 0 32 32" style="enable-background:new 0 0 32 32;" xml:space="preserve">
<g>
	<path d="M25.9,6.5l-3.6-3.6c-0.2-0.2-0.4-0.3-0.6-0.3h-0.6v5.1h5.1V7.4C26.2,7.1,26.1,6.6,25.9,6.5z"/>
	<path d="M26.1,9.8H21c-1.2,0-2-0.7-2-2V2.6h-1.7h-9H7c-1.1,0-1.1,0-1.1,1.3v24.3c0,1.3,0,1.3,1.3,1.3h17.6c1.4,0,1.3,0,1.3-1.3V9.8
		z M9.5,20.6c0.2,0.3,0.5,0.5,1,0.5c0.4,0,0.7-0.1,0.9-0.3c0.2-0.2,0.3-0.5,0.3-0.9H13c0,0.7-0.3,1.2-0.8,1.6s-1.1,0.6-1.8,0.6
		c-0.8,0-1.5-0.3-1.9-0.8c-0.5-0.5-0.7-1.3-0.7-2.3v-0.4c0-0.6,0.1-1.1,0.3-1.6c0.2-0.5,0.5-0.8,0.9-1.1c0.4-0.2,0.9-0.4,1.4-0.4
		c0.7,0,1.3,0.2,1.8,0.6c0.4,0.4,0.7,0.9,0.8,1.6h-1.3c0-0.4-0.1-0.7-0.3-0.9c-0.2-0.2-0.5-0.3-0.9-0.3c-0.4,0-0.8,0.2-1,0.5
		c-0.2,0.3-0.3,0.8-0.3,1.5v0.5C9.2,19.8,9.3,20.3,9.5,20.6z M15.4,17.9c0.2,0.1,0.5,0.3,0.9,0.4c0.7,0.2,1.3,0.5,1.6,0.8
		c0.3,0.3,0.5,0.7,0.5,1.2c0,0.5-0.2,1-0.6,1.3c-0.4,0.3-1,0.5-1.7,0.5c-0.5,0-0.9-0.1-1.3-0.3c-0.4-0.2-0.7-0.4-0.9-0.7
		c-0.2-0.3-0.3-0.7-0.3-1.1h1.3c0,0.7,0.4,1,1.3,1c0.3,0,0.6-0.1,0.7-0.2c0.2-0.1,0.3-0.3,0.3-0.5c0-0.2-0.1-0.4-0.3-0.6
		c-0.2-0.1-0.5-0.3-0.9-0.4s-0.8-0.3-1.1-0.4c-0.7-0.4-1.1-0.9-1.1-1.6c0-0.3,0.1-0.6,0.3-0.9c0.2-0.3,0.5-0.5,0.8-0.6
		c0.4-0.2,0.8-0.2,1.2-0.2c0.5,0,0.9,0.1,1.2,0.2c0.4,0.2,0.6,0.4,0.8,0.7c0.2,0.3,0.3,0.6,0.3,1h-1.3c0-0.3-0.1-0.5-0.3-0.7
		s-0.4-0.2-0.8-0.2c-0.3,0-0.6,0.1-0.7,0.2s-0.3,0.3-0.3,0.5C15.1,17.6,15.2,17.8,15.4,17.9z M22.4,22H21l-2.2-6.3h1.4l1.4,4.8
		l1.4-4.8h1.5L22.4,22z"/>
</g>
</svg>
