<?xml version="1.0" encoding="utf-8"?>
<!-- Generator: Adobe Illustrator 22.1.0, SVG Export Plug-In . SVG Version: 6.00 Build 0)  -->
<svg version="1.1" id="Layer_1" xmlns="http://www.w3.org/2000/svg" xmlns:xlink="http://www.w3.org/1999/xlink" x="0px" y="0px"
	 viewBox="0 0 32 32" style="enable-background:new 0 0 32 32;" xml:space="preserve">
<g>
	<path d="M25.9,6.5l-3.6-3.6c-0.2-0.2-0.4-0.3-0.6-0.3h-0.6v5.1h5.1V7.4C26.2,7.1,26.1,6.6,25.9,6.5z"/>
	<path d="M26.1,9.8H21c-1.2,0-2-0.7-2-2V2.6h-1.7h-9H7c-1.1,0-1.1,0-1.1,1.3v24.3c0,1.3,0,1.3,1.3,1.3h17.6c1.4,0,1.3,0,1.3-1.3
		C26.1,28.2,26.1,9.8,26.1,9.8z M15.1,22.7c0,0.6-0.5,0.7-0.9,0.3l-2.4-2h-1.4c-0.6,0-0.6,0-0.6-0.6v-2.9c0-0.6,0-0.6,0.6-0.6h1.4
		l2.4-2.1c0.4-0.4,0.9-0.2,0.9,0.3V22.7z M22.8,19C22.8,19,22.8,19.1,22.8,19L22.8,19c-0.1,3.1-2.1,5.7-5,6.7c0,0-0.1,0-0.2,0
		c-0.2,0-0.4-0.1-0.5-0.3c-0.1-0.3,0.1-0.5,0.3-0.6c2.5-0.8,4.2-3.1,4.3-5.8c0-2.7-1.7-5-4.3-5.8c-0.3-0.1-0.4-0.4-0.3-0.6
		c0.1-0.2,0.3-0.3,0.5-0.3c0,0,0.1,0,0.2,0c2.9,0.9,4.9,3.5,5,6.6l0,0V19C22.8,18.9,22.8,18.9,22.8,19C22.8,18.9,22.8,19,22.8,19z
		 M17.4,16.6c-0.2-0.2-0.3-0.5-0.1-0.7c0.2-0.2,0.5-0.3,0.7-0.1c1,0.7,1.6,1.8,1.7,3l0,0v0.1V19v0.1v0.1l0,0c-0.1,1.2-0.7,2.3-1.7,3
		c-0.2,0.2-0.5,0.1-0.7-0.1s-0.1-0.5,0.1-0.7c0.8-0.5,1.2-1.4,1.2-2.3C18.6,18,18.2,17.1,17.4,16.6z"/>
</g>
</svg>
