<?xml version="1.0" encoding="utf-8"?>
<!-- Generator: Adobe Illustrator 22.1.0, SVG Export Plug-In . SVG Version: 6.00 Build 0)  -->
<svg version="1.1" id="Layer_1" xmlns="http://www.w3.org/2000/svg" xmlns:xlink="http://www.w3.org/1999/xlink" x="0px" y="0px"
	 viewBox="0 0 32 32" style="enable-background:new 0 0 32 32;" xml:space="preserve">
<g>
	<path d="M25.9,6.5l-3.6-3.6c-0.2-0.2-0.4-0.3-0.6-0.3h-0.6v5.1h5.1V7.4C26.2,7.1,26.1,6.6,25.9,6.5z"/>
	<path d="M16.4,14.9h-2.5v4.2h2.5c0.7,0,1.3-0.2,1.7-0.5s0.6-0.8,0.6-1.5c0-0.7-0.2-1.2-0.6-1.6C17.6,15.1,17.1,14.9,16.4,14.9z"/>
	<path d="M26.1,9.8H21c-1.2,0-2-0.7-2-2V2.6h-1.7h-9H7c-1.1,0-1.1,0-1.1,1.3v24.3c0,1.3,0,1.3,1.3,1.3h17.6c1.4,0,1.3,0,1.3-1.3V9.8
		z M20,20.2c-0.9,0.8-2.1,1.1-3.7,1.1h-2.4v4.7h-2.8V12.6h5.2c1,0,1.9,0.2,2.7,0.6s1.4,0.9,1.8,1.6s0.6,1.5,0.6,2.3
		C21.3,18.4,20.9,19.4,20,20.2z"/>
</g>
</svg>
