<?xml version="1.0" encoding="utf-8"?>
<!-- Generator: Adobe Illustrator 22.1.0, SVG Export Plug-In . SVG Version: 6.00 Build 0)  -->
<svg version="1.1" id="Layer_1" xmlns="http://www.w3.org/2000/svg" xmlns:xlink="http://www.w3.org/1999/xlink" x="0px" y="0px"
	 viewBox="0 0 32 32" style="enable-background:new 0 0 32 32;" xml:space="preserve">
<g>
	<path d="M26.2,6.5l-3.6-3.6c-0.2-0.2-0.4-0.3-0.6-0.3h-0.6v5.1h5.1V7.4C26.5,7.1,26.4,6.6,26.2,6.5z"/>
	<path d="M26.4,9.8h-5.1c-1.2,0-2-0.7-2-2V2.6h-1.7h-9H7.3c-1.1,0-1.1,0-1.1,1.3v12.7h9.9l-2.1-2c-0.3-0.3-0.3-0.6-0.1-0.9
		c0,0,0.6-0.6,0.6-0.6c0.3-0.3,0.7-0.2,0.9,0.1l3.6,3.4c0.2,0.2,0.5,0.5,0.5,1c0,0.5-0.3,0.8-0.5,1l-3.6,3.4
		c-0.2,0.2-0.7,0.3-0.9,0.1c0,0-0.6-0.6-0.6-0.6c-0.2-0.2-0.3-0.6,0.1-0.9l2.1-2H6.2v9.6c0,1.3,0,1.3,1.3,1.3h17.6
		c1.4,0,1.3,0,1.3-1.3V9.8z"/>
	<path d="M2.2,16.6c-0.5,0-0.8,0.3-1,0.8h0c0,0.1,0,0.1,0,0.2c0,0,0,0,0,0c0,0,0,0,0,0c0,0.1,0,0.1,0,0.2h0c0.1,0.4,0.5,0.8,1,0.8h4
		v-2H2.2z"/>
</g>
</svg>
