<?xml version="1.0" encoding="utf-8"?>
<!-- Generator: Adobe Illustrator 22.1.0, SVG Export Plug-In . SVG Version: 6.00 Build 0)  -->
<svg version="1.1" id="Layer_1" xmlns="http://www.w3.org/2000/svg" xmlns:xlink="http://www.w3.org/1999/xlink" x="0px" y="0px"
	 viewBox="0 0 32 32" style="enable-background:new 0 0 32 32;" xml:space="preserve">
<g>
	<path d="M23,7.4c0-0.3-0.1-0.8-0.3-0.9l-3.6-3.6c-0.2-0.2-0.4-0.3-0.6-0.3h-0.6v5.1H23V7.4z"/>
	<path d="M13.3,18c0-0.5,0.3-1,0.9-1h8.7V9.8h-5.1c-1.2,0-2-0.7-2-2V2.5h-1.7h-9H3.8c-1.1,0-1.1,0-1.1,1.3v24.3c0,1.3,0,1.3,1.3,1.3
		h17.6c1.4,0,1.3,0,1.3-1.3v-9.2h-8.7C13.5,18.9,13.3,18.4,13.3,18z"/>
	<path d="M30.3,16.9l-3.6-3.4c-0.2-0.2-0.7-0.3-0.9-0.1c0,0-0.6,0.6-0.6,0.6c-0.2,0.2-0.3,0.6,0.1,0.9l2.1,2H23v2h4.4l-2.1,2
		c-0.3,0.3-0.3,0.6-0.1,0.9c0,0,0.6,0.6,0.6,0.6c0.3,0.3,0.7,0.2,0.9-0.1l3.6-3.4c0.2-0.2,0.5-0.5,0.5-1
		C30.9,17.4,30.6,17.1,30.3,16.9z"/>
</g>
</svg>
