<?xml version="1.0" encoding="utf-8"?>
<!-- Generator: Adobe Illustrator 19.1.0, SVG Export Plug-In . SVG Version: 6.00 Build 0)  -->
<!DOCTYPE svg PUBLIC "-//W3C//DTD SVG 1.1//EN" "http://www.w3.org/Graphics/SVG/1.1/DTD/svg11.dtd">
<svg version="1.1" id="Layer_1" xmlns="http://www.w3.org/2000/svg" xmlns:xlink="http://www.w3.org/1999/xlink" x="0px" y="0px"
	 viewBox="0 0 16 16" enable-background="new 0 0 16 16" xml:space="preserve">
<path d="M9.4,0C5.1-0.2,0.9,0.7,0.1,2.1C0,2.4,0,2.8,0.1,3.1l5.7,7.1c0.2,0.3,0.4,0.7,0.4,1.1v4.4c0,0.2,0.2,0.4,0.4,0.4
	c0.1,0,0.2,0,0.2-0.1l2.6-1.8c0.2-0.2,0.4-0.4,0.4-0.7v-2.3c0-0.4,0.1-0.8,0.4-1.1l5.7-7.1C16.7,1.7,13.8,0.3,9.4,0z M8,4.2
	c-4.2,0-6.8-1-6.8-1.7c0-0.7,2.6-1.7,6.8-1.7c4.2,0,6.8,1,6.8,1.7C14.8,3.2,12.2,4.2,8,4.2z"/>
</svg>
