<?xml version="1.0" encoding="utf-8"?>
<!-- Generator: Adobe Illustrator 22.1.0, SVG Export Plug-In . SVG Version: 6.00 Build 0)  -->
<svg version="1.1" id="Layer_1" xmlns="http://www.w3.org/2000/svg" xmlns:xlink="http://www.w3.org/1999/xlink" x="0px" y="0px"
	 viewBox="0 0 32 32" style="enable-background:new 0 0 32 32;" xml:space="preserve">
<g>
	<path d="M7.9,11.1c0.2,0,0.4-0.1,0.5-0.2c0,0,2.6-2.6,5.9-3C14.7,7.8,15,7.5,15,7.1s-0.5-0.6-0.9-0.6C10.4,7,7.6,9.6,7.5,9.7
		C7.1,10,7,10.5,7.3,10.8C7.5,11,7.7,11.1,7.9,11.1z"/>
	<path d="M24.4,19.7c-0.4,0.1-0.7,0.5-0.6,1c0,0,0.4,1.8,0.2,3.5c-0.1,0.4,0.2,0.8,0.7,0.9h0.1c0.4,0,0.7-0.3,0.8-0.7
		c0.3-2-0.2-4-0.2-4.1C25.3,19.9,24.9,19.6,24.4,19.7z"/>
	<path d="M5.2,16.5C5.3,16.5,5.3,16.5,5.2,16.5c0.5,0,0.8-0.3,0.8-0.8c0.1-1.6,0.7-2.4,0.7-2.4C7,13,7,12.5,6.6,12.2
		c-0.3-0.3-0.8-0.3-1.1,0c-0.1,0.1-1.1,1.2-1.1,3.4C4.5,16.1,4.8,16.4,5.2,16.5z"/>
	<path d="M8.1,7.2c0.2,0,0.3-0.1,0.5-0.2C11,5.2,15.8,2.8,22,6.2c0.3,0.1,1,0.4,1.3,0c0.5-0.6-0.2-1.1-0.4-1.3
		c-5.3-2.8-10.7-2.5-15.3,1c-0.3,0.3-0.4,0.6-0.1,1C7.6,7.1,7.9,7.2,8.1,7.2z"/>
	<path d="M21.1,8.6c0.4-0.5,0-0.8-0.3-1c-0.7-0.5-2.3-1.2-3.6-1.2c-0.6,0-0.8,0.2-0.9,0.6s0.2,0.8,0.6,0.8c1.3,0.1,1.9,0.3,2.8,0.9
		C20,8.8,20.8,9.1,21.1,8.6z"/>
	<path d="M12.9,20.4c-0.1-0.2-0.3-0.9-0.9-1.3c-0.6-0.4-0.9,0.2-0.8,0.7c0.1,0.3,0.2,0.7,0.3,1c0.2,0.6,0.4,1.3,0.4,2
		c0,1.5-1.6,3.6-2.1,4.3c-0.3,0.3-0.2,0.8,0.1,1c0.1,0.1,0.3,0.2,0.5,0.2s0.4-0.1,0.5-0.2s2.4-2.8,2.5-5.2
		C13.4,21.9,13.1,21.1,12.9,20.4z"/>
	<path d="M20.3,18.3c-0.5,0.3-0.3,1.1-0.2,1.3c0.6,1,0.7,1.8,0.7,1.8c0.1,0.3,0.5,0.7,0.9,0.6c0.5-0.1,0.5-0.6,0.5-1
		c0,0-0.1-1-0.9-2.4C21.2,18.3,20.8,17.9,20.3,18.3z"/>
	<path d="M18.2,20.7c-0.4,0.4-0.2,1-0.2,1.1c0.6,2.1,0.2,3.7-1.2,6.6c-0.2,0.4,0,0.8,0.3,1c0.1,0,0.2,0.1,0.3,0.1
		c0.3,0,0.5-0.2,0.7-0.4c1.6-3.4,2.1-5.4,1.1-8c0,0,0-0.1,0-0.1C19.1,20.6,18.6,20.3,18.2,20.7z"/>
	<path d="M27.3,17.9c-0.4-1.5-1-2.7-1.7-3.7c-0.5-0.6-0.9-0.8-1.3-0.4c-0.4,0.4-0.2,1.1,0.1,1.6c0.6,0.8,1,1.7,1.3,2.9
		c0.1,0.4,0.5,0.7,1,0.6C27.2,18.8,27.4,18.3,27.3,17.9z"/>
	<path d="M15.8,21.6c-0.6,0-0.8,0.6-0.8,1c0,0.6,0,1.3-0.1,2c-0.4,2.1-2.3,4.4-2.4,4.4c-0.3,0.3-0.2,0.8,0.1,1
		c0.1,0.1,0.3,0.2,0.5,0.2s0.4-0.1,0.6-0.3c0.1-0.1,2.1-2.6,2.7-5.1c0.1-0.8,0.2-1.6,0.1-2.4C16.5,22.1,16.4,21.6,15.8,21.6z"/>
	<path d="M23.9,17.4c-0.2-0.4-0.4-0.7-0.6-0.9c-0.2-0.3-0.7-0.6-1.1-0.2c-0.4,0.4-0.4,0.8-0.1,1.2c0.2,0.2,0.3,0.5,0.5,0.7
		c0.2,0.2,0.4,0.4,0.7,0.4c0.1,0,0.3,0,0.4-0.1C24,18.2,24.1,17.7,23.9,17.4z"/>
	<path d="M12.9,10.9c0.3,0.6,0.8,0.3,1.4,0.1c1.3-0.4,2.3-0.5,3.6,0c0.6,0.2,0.9,0.1,1.2-0.2c0.2-0.3,0-0.7-0.7-1.1
		C17,9,14.9,9.2,13.6,9.8C13.1,10,12.6,10.4,12.9,10.9z"/>
	<path d="M22.1,22.9c-0.4,0-0.7,0.3-0.7,0.7c0,0-0.1,2.4-0.9,3.8c-0.2,0.3-0.1,0.8,0.3,1c0.1,0.1,0.2,0.1,0.3,0.1
		c0.3,0,0.5-0.1,0.6-0.4c0.9-1.7,1-4.3,1-4.4C22.8,23.3,22.5,22.9,22.1,22.9z"/>
	<path d="M10,22.8c0,0-1.6-3.1-1-6.6c0.1-0.4-0.4-0.7-0.8-0.7c-0.4,0-0.6,0.4-0.7,0.8c-0.6,4.1,1.2,7.2,1.3,7.3
		c0.1,0.2,0.4,0.3,0.6,0.3c0.1,0,0.3,0,0.4-0.1C10.1,23.6,10.2,23.2,10,22.8z"/>
	<path d="M5.6,18.6c0-0.4-0.3-0.7-0.7-0.8c-0.4,0-0.7,0.3-0.8,0.7c0,0.2-0.2,4.7,2.8,8.7c0.1,0.2,0.4,0.3,0.6,0.3s0.3,0,0.4-0.1
		c0.3-0.2,0.4-0.7,0.1-1C5.4,22.8,5.6,18.6,5.6,18.6z"/>
	<path d="M15.6,12.4c-0.3,0.2-0.5,0.3-0.5,0.6v0.2c0,0.3,0.3,0.6,0.6,0.6h0.5c0.3,0,0.6-0.3,0.6-0.6V13c0-0.3-0.2-0.5-0.5-0.6
		C16.1,12.3,15.7,12.3,15.6,12.4z"/>
	<path d="M27,11.7c-0.3-0.1-0.5-0.2-0.7,0l-0.2,0.1c-0.2,0.2-0.3,0.6-0.2,0.8l0.2,0.3c0.1,0.2,0.5,0.2,0.8,0.1l0.2-0.1
		c0.2-0.2,0.3-0.4,0.2-0.7C27.3,12,27.1,11.7,27,11.7z"/>
</g>
<path d="M15.9,15.8c0,0-3.7-3.7-3.8-3.8c-0.3-0.4-0.9-0.5-1.4-0.1c-0.2,0.2-1.1,1-1.2,1.2c-0.5,0.6-0.5,1-0.1,1.5
	c0.1,0.1,4.6,4.7,5,5.1c0.4,0.4,1,0.6,1.6,0.6c0.4,0,1.1-0.4,1.6-0.9C17.7,19.1,27.1,9,27.1,9c0.4-0.5,0.3-1.2,0.1-1.6
	c-0.1-0.2-0.9-0.8-1-0.9C25.6,6,25,6,24.6,6.5C24.3,6.9,15.9,15.8,15.9,15.8z"/>
</svg>
