<?xml version="1.0" encoding="utf-8"?>
<!-- Generated by IcoMoon.io -->
<!DOCTYPE svg PUBLIC "-//W3C//DTD SVG 1.1//EN" "http://www.w3.org/Graphics/SVG/1.1/DTD/svg11.dtd">
<svg version="1.1" xmlns="http://www.w3.org/2000/svg" xmlns:xlink="http://www.w3.org/1999/xlink" width="512" height="512" viewBox="0 0 512 512">
<path fill="#000000" d="M272 32c-132.544 0-240 107.456-240 240s107.456 240 240 240 240-107.456 240-240-107.456-240-240-240zM447.008 160h-47.68c-9.28-29.184-22.016-54.752-37.376-75.264 34.816 16.8 64.288 42.944 85.056 75.264zM288 160v-93.376c30.24 8.928 59.712 42.464 77.856 93.376h-77.856zM375.168 192c4.512 19.584 7.424 41.024 8.352 64h-95.52v-64h87.168zM256 66.624v93.376h-77.856c18.144-50.912 47.616-84.448 77.856-93.376zM256 192v64h-95.52c0.928-22.976 3.84-44.416 8.352-64h87.168zM128.48 256h-63.68c1.728-22.496 6.88-44.064 15.232-64h56.32c-4.288 20.256-6.976 41.664-7.872 64zM128.48 288c0.896 22.336 3.584 43.744 7.872 64h-56.32c-8.352-19.936-13.504-41.504-15.232-64h63.68zM160.48 288h95.52v64h-87.168c-4.512-19.584-7.424-41.024-8.352-64zM256 384v93.376c-30.24-8.928-59.712-42.464-77.856-93.376h77.856zM288 477.376v-93.376h77.856c-18.144 50.912-47.616 84.448-77.856 93.376zM288 352v-64h95.52c-0.928 22.976-3.84 44.416-8.352 64h-87.168zM415.52 288h63.68c-1.728 22.496-6.88 44.064-15.232 64h-56.32c4.288-20.256 6.976-41.664 7.872-64zM415.52 256c-0.896-22.336-3.584-43.744-7.872-64h56.32c8.352 19.936 13.504 41.504 15.232 64h-63.68zM182.048 84.736c-15.328 20.512-28.096 46.080-37.376 75.264h-47.68c20.768-32.32 50.24-58.464 85.056-75.264zM96.992 384h47.68c9.28 29.184 22.016 54.752 37.376 75.264-34.816-16.8-64.288-42.944-85.056-75.264zM361.952 459.264c15.328-20.512 28.096-46.080 37.376-75.264h47.68c-20.768 32.32-50.24 58.464-85.056 75.264z"></path>
</svg>
