<?xml version="1.0" encoding="utf-8"?>
<!-- Generated by IcoMoon.io -->
<!DOCTYPE svg PUBLIC "-//W3C//DTD SVG 1.1//EN" "http://www.w3.org/Graphics/SVG/1.1/DTD/svg11.dtd">
<svg version="1.1" xmlns="http://www.w3.org/2000/svg" xmlns:xlink="http://www.w3.org/1999/xlink" width="512" height="512" viewBox="0 0 512 512">
<path fill="#000000" d="M488.906 227.365h-59.18v-59.18h-30.546v59.18h-59.18v28.635h59.18v59.18h30.546v-59.18h59.18z"></path>
<path fill="#000000" d="M278.908 282.729l-22.908-17.181c-5.727-5.727-15.27-11.454-15.27-24.819s9.543-21.002 17.181-28.635c24.819-19.091 49.637-40.089 49.637-83.999s-26.729-66.818-40.089-76.362h34.362l38.183-22.908h-124.088c-32.456 0-76.362 3.816-108.817 30.546-24.819 21.002-34.362 53.454-34.362 80.183 0 45.816 36.273 91.637 99.274 91.637 5.727 0 13.364 0 19.091-1.911-3.816 7.637-5.727 13.364-5.727 22.908 0 19.091 9.543 28.635 17.181 40.089-26.729 1.911-76.362 3.817-112.634 26.729-34.362 21.002-45.816 49.637-45.816 70.635 0 43.91 40.089 83.999 125.998 83.999 103.091 0 158.454-55.364 158.454-110.728 0-38.183-24.819-59.18-49.637-80.183zM200.636 217.817c-51.543 0-74.456-64.907-74.456-105.001 0-15.27 3.816-32.456 13.364-43.91s26.729-17.181 41.999-17.181c49.637 0 74.456 64.907 74.456 106.907 0 11.454-1.911 28.635-15.27 42-9.543 7.637-26.729 17.181-40.089 17.181zM200.636 450.727c-63.001 0-105.001-30.546-105.001-70.635 0-42 38.183-55.364 51.543-61.091 24.819-7.637 57.27-9.543 63.001-9.543s9.543 0 13.364 0c45.816 32.456 64.908 47.726 64.908 76.361 0 38.183-30.546 64.908-87.815 64.908z"></path>
</svg>
