<?xml version="1.0" encoding="utf-8"?>
<!-- Generated by IcoMoon.io -->
<!DOCTYPE svg PUBLIC "-//W3C//DTD SVG 1.1//EN" "http://www.w3.org/Graphics/SVG/1.1/DTD/svg11.dtd">
<svg version="1.1" xmlns="http://www.w3.org/2000/svg" xmlns:xlink="http://www.w3.org/1999/xlink" width="512" height="512" viewBox="0 0 512 512">
<path fill="#000000" d="M3.23 414.9c4.511-4.833 8.485-9.128 12.458-13.425 20.782-22.286 32.112-48.868 35.764-78.886 0.215-1.558-1.181-4.027-2.524-4.993-15.788-10.687-16.057-31.952-0.538-42.906 1.664-1.181 3.33-3.437 3.49-5.37 2.309-23.144 6.819-45.485 22.178-64.924-3.705-1.288-6.927-2.47-10.149-3.544-14.016-4.673-27.977-9.344-41.993-14.016-6.229-2.094-9.021-5.263-9.075-9.988 0-4.78 2.792-8.055 8.968-10.096 77.813-25.938 155.678-51.929 233.544-77.65 3.382-1.128 7.787-1.073 11.17 0.053 77.758 25.723 155.41 51.66 233.060 77.545 4.94 1.664 8.915 4.135 9.183 9.934 0.215 4.887-2.739 8.109-9.291 10.311-77.65 25.883-155.248 51.822-232.953 77.545-3.275 1.074-7.464 1.343-10.686 0.268-41.458-13.533-82.806-27.441-124.156-41.188-0.645-0.215-1.181-0.59-2.524-1.181 7.142-2.954 13.641-5.799 20.299-8.323 37.43-14.339 74.913-28.623 112.341-42.853 5.37-2.041 9.721-4.78 10.257-11.062 0.43-4.94-1.503-8.861-5.799-11.438s-8.808-1.772-13.103-0.161c-26.957 10.096-53.969 20.030-80.82 30.501-18.258 7.142-36.14 15.089-54.291 22.501-24.971 10.149-37.376 29.428-40.92 55.366-0.323 2.149-0.483 4.35-0.966 6.498-1.451 6.337-0.645 11.062 4.78 16.272 9.721 9.291 8.645 24.971-1.128 34.368-2.469 2.363-2.739 4.457-2.309 7.464 2.847 21.803 5.693 43.712 2.632 65.73-2.469 17.668-10.472 32.49-25.401 42.906-6.283 4.403-13.050 6.229-20.352 2.469-8.807-4.51-17.561-9.075-26.314-13.748-1.611-0.913-2.846-2.363-4.833-3.974z"></path>
<path fill="#000000" d="M111.061 331.986c7.089-8.646 11.438-17.829 10.472-28.89-1.073-12.298-5.531-22.716-15.787-30.233-1.128-0.805-2.469-2.256-2.469-3.382 0-8.861 0.215-17.721 3.867-26.367 20.943 6.982 41.618 13.855 62.293 20.728 26.099 8.7 52.251 17.238 78.243 26.206 8.807 3.007 17.184 3.062 26.045 0.053 46.398-15.68 92.902-31.039 139.353-46.559 1.879-0.645 3.813-1.073 5.961-1.664 0.215 1.181 0.483 1.934 0.483 2.739 0 22.018 0.161 44.034-0.053 66.053-0.108 14.929-9.613 24.219-20.782 32.005-17.399 12.082-37.161 18.526-57.513 23.252-39.149 9.021-78.726 10.526-118.678 6.659-27.226-2.632-53.755-8.055-78.993-18.741-12.030-5.156-23.199-11.545-32.435-21.856z"></path>
</svg>
