<?xml version="1.0" encoding="utf-8"?>
<!-- Generated by IcoMoon.io -->
<!DOCTYPE svg PUBLIC "-//W3C//DTD SVG 1.1//EN" "http://www.w3.org/Graphics/SVG/1.1/DTD/svg11.dtd">
<svg version="1.1" xmlns="http://www.w3.org/2000/svg" xmlns:xlink="http://www.w3.org/1999/xlink" width="512" height="512" viewBox="0 0 512 512">
<path fill="#000000" d="M473.026 7.971h-403.048c-17.1 0-31.004 13.903-31.004 31.004s13.903 31.004 31.004 31.004v248.029c0 17.1 13.903 31.004 31.004 31.004h155.018v48.396l-87.924 79.64c-6.346 5.716-6.83 15.55-1.066 21.896 5.813 6.346 15.599 6.83 21.896 1.066l67.094-60.796v49.315c0 8.574 6.927 15.502 15.502 15.502s15.502-6.927 15.502-15.502v-49.315l67.094 60.748c2.955 2.713 6.685 4.021 10.415 4.021 4.216 0 8.381-1.744 11.481-5.087 5.765-6.346 5.28-16.132-1.066-21.896l-87.925-79.592v-48.395h155.019c17.1 0 31.004-13.903 31.004-31.004v-248.029c17.1 0 31.004-13.903 31.004-31.004s-13.903-31.004-31.004-31.004zM406.271 127.626l-108.512 104.638c-5.959 5.765-15.356 5.813-21.46 0.048l-47.91-45.536-69.273 72.228c-3.052 3.149-7.121 4.747-11.142 4.747-3.875 0-7.702-1.405-10.754-4.36-6.152-5.91-6.346-15.697-0.436-21.896l79.979-83.322c5.91-6.055 15.697-6.298 21.848-0.484l48.346 45.924 97.806-94.368c6.152-5.862 15.986-5.813 21.896 0.436 5.959 6.201 5.765 16.035-0.388 21.945v0z"></path>
</svg>
