<?xml version="1.0" encoding="utf-8"?>
<!-- Generator: Adobe Illustrator 22.1.0, SVG Export Plug-In . SVG Version: 6.00 Build 0)  -->
<svg version="1.1" id="Layer_1" xmlns="http://www.w3.org/2000/svg" xmlns:xlink="http://www.w3.org/1999/xlink" x="0px" y="0px"
	 viewBox="0 0 32 32" style="enable-background:new 0 0 32 32;" xml:space="preserve">
<g>
	<g id="Layer_5_58_">
		<g>
			<g>
				<path d="M23.2,1.8C18.7,1.8,15,5.5,15,10s3.7,8.2,8.2,8.2s8.2-3.7,8.2-8.2C31.4,5.5,27.7,1.8,23.2,1.8z M23.2,16.3
					c-3.5,0-6.3-2.8-6.3-6.3s2.8-6.3,6.3-6.3s6.3,2.8,6.3,6.3S26.7,16.3,23.2,16.3z"/>
			</g>
			<g>
				<path d="M29.7,22.1c-1.7,1-4.1,1.8-6.5,2.2c-2.1,0.3-6.1-0.5-6.1-1.4c0-0.4,3.5,0.9,5.6,0.3c1.6-0.4,1.4-1.9,0.5-2.1
					S17.2,19,15,19c-1,0-4.4,0.7-5.6,0.9C9,20,8.7,20,8.7,20.4c-0.1,1.9-0.1,6.8-0.1,6.8s0.2,0.3,0.5,0.2c0.6-0.3,2-0.2,2.6,0
					c1,0.2,9.8,1.7,11.1,1.5c1.8-0.4,6.9-3.4,7.8-4.4C32.1,22.9,31,21.4,29.7,22.1z"/>
				<path d="M6.7,19.4l-4.6-0.2c-0.4,0-0.7,0.3-0.8,0.6v7.7c0,0.5,0.4,0.8,0.8,0.8h4.4c0.4,0,0.7-0.3,0.7-0.6l0.1-7.6
					C7.3,19.8,7,19.4,6.7,19.4z M4.2,27.3c-0.7,0-1.3-0.6-1.3-1.3c0-0.7,0.6-1.3,1.3-1.3s1.3,0.6,1.3,1.3
					C5.5,26.7,4.9,27.3,4.2,27.3z"/>
			</g>
		</g>
	</g>
</g>
<path d="M23.8,9c-1.1-0.4-1.4-0.7-1.4-1.2c0-0.4,0.3-0.8,1.1-0.8c0.7,0,1.3,0.3,1.3,0.3c0.1,0,0.1,0,0.2,0c0.2,0,0.3-0.1,0.4-0.2
	l0.2-0.5c0.1-0.2,0-0.4-0.2-0.4C24.9,5.9,24,5.7,24,5.7s-0.1,0-0.1-0.1V4.8c0-0.2-0.2-0.4-0.4-0.4h-0.4c-0.2,0-0.4,0.2-0.4,0.4v0.8
	c0,0.1-0.1,0.1-0.1,0.1c-1.1,0.3-1.8,1.1-1.8,2.1c0,1.3,1.1,1.9,2.2,2.3c0.9,0.4,1.3,0.7,1.3,1.3s-0.5,1-1.3,1
	c-0.7,0-1.5-0.4-1.5-0.4c-0.1,0-0.1,0-0.2,0c-0.2,0-0.3,0.1-0.4,0.3l-0.2,0.5c-0.1,0.2,0,0.4,0.2,0.4c0.5,0.3,1.6,0.4,1.6,0.5
	c0,0,0.1,0,0.1,0.1v0.8c0,0.2,0.2,0.4,0.4,0.4h0.4c0.2,0,0.4-0.2,0.4-0.4v-0.8c0-0.1,0.1-0.1,0.1-0.1c1.2-0.3,1.9-1.1,1.9-2.2
	C25.9,10.3,25.3,9.6,23.8,9z"/>
</svg>
