<?xml version="1.0" encoding="utf-8"?>
<!-- Generated by IcoMoon.io -->
<!DOCTYPE svg PUBLIC "-//W3C//DTD SVG 1.1//EN" "http://www.w3.org/Graphics/SVG/1.1/DTD/svg11.dtd">
<svg version="1.1" xmlns="http://www.w3.org/2000/svg" xmlns:xlink="http://www.w3.org/1999/xlink" width="512" height="512" viewBox="0 0 512 512">
<path fill="#000000" d="M403.498 177.119v-127.615h14.543c8.26 0 14.957-6.608 14.957-14.75s-6.697-14.75-14.957-14.75h-294.582c-8.26 0-14.957 6.608-14.957 14.75s6.697 14.75 14.957 14.75h14.543v127.615c0 8.407 3.599 16.431 9.882 22.036l63.779 56.847-63.779 56.846c-6.284 5.605-9.882 13.629-9.882 22.036v127.615h-14.543c-8.26 0-14.957 6.608-14.957 14.75s6.697 14.75 14.957 14.75h294.611c8.231 0 14.927-6.608 14.927-14.75s-6.697-14.75-14.957-14.75h-14.543v-127.615c0-8.408-3.599-16.432-9.882-22.036l-63.779-56.846 63.779-56.846c6.284-5.605 9.882-13.629 9.882-22.036zM373.998 177.119l-88.498 78.881 88.498 78.882v127.615h-206.498v-127.615l88.498-78.882-88.498-78.882v-127.615h206.498v127.615zM344.498 134.404v-25.901h-147.498v25.901l73.75 65.726zM197 377.714v55.283h147.498v-55.283l-37.258-33.217h-72.983z"></path>
</svg>
