<?xml version="1.0" encoding="utf-8"?>
<!-- Generated by IcoMoon.io -->
<!DOCTYPE svg PUBLIC "-//W3C//DTD SVG 1.1//EN" "http://www.w3.org/Graphics/SVG/1.1/DTD/svg11.dtd">
<svg version="1.1" xmlns="http://www.w3.org/2000/svg" xmlns:xlink="http://www.w3.org/1999/xlink" width="512" height="512" viewBox="0 0 512 512">
<path fill="#000000" d="M465.998 106.002h-30v-60c0-16.546-13.452-30-30-30h-359.996c-16.546 0-30 13.452-30 30v329.996c0 16.546 13.452 30 30 30h30v60c0 16.546 13.452 30 30 30h359.996c16.546 0 30-13.452 30-30v-329.996c0-16.546-13.452-30-30-30zM46.002 375.998v-329.996h359.996v329.996h-359.996zM465.998 465.998h-359.996v-60h30v30h299.996v-299.996h30v329.996zM237.86 138.814c0 23.062 18.702 41.718 41.718 41.718s41.718-18.702 41.718-41.718-18.702-41.718-41.718-41.718-41.718 18.656-41.718 41.718v0zM166.002 166.002l-89.998 60v119.998h299.996v-149.998l-119.998 60-89.998-89.998z"></path>
</svg>
