<?xml version="1.0" encoding="utf-8"?>
<!-- Generated by IcoMoon.io -->
<!DOCTYPE svg PUBLIC "-//W3C//DTD SVG 1.1//EN" "http://www.w3.org/Graphics/SVG/1.1/DTD/svg11.dtd">
<svg version="1.1" xmlns="http://www.w3.org/2000/svg" xmlns:xlink="http://www.w3.org/1999/xlink" width="512" height="512" viewBox="0 0 512 512">
<path fill="#000000" d="M274.246 162.214c0 22.842 18.524 41.322 41.322 41.322s41.322-18.525 41.322-41.322-18.524-41.322-41.322-41.322-41.322 18.478-41.322 41.322zM404.572 404.572h29.714v-178.286l-118.858 89.142-148.572-118.858-89.142 89.142v118.858h326.858zM464 48h-416c-16.39 0-29.714 13.325-29.714 29.714v356.572c0 16.39 13.325 29.714 29.714 29.714h416c16.39 0 29.714-13.325 29.714-29.714v-356.572c0-16.39-13.325-29.714-29.714-29.714zM464 434.286h-416v-356.572h416v356.572z"></path>
</svg>
