<?xml version="1.0" encoding="utf-8"?>
<!-- Generated by IcoMoon.io -->
<!DOCTYPE svg PUBLIC "-//W3C//DTD SVG 1.1//EN" "http://www.w3.org/Graphics/SVG/1.1/DTD/svg11.dtd">
<svg version="1.1" xmlns="http://www.w3.org/2000/svg" xmlns:xlink="http://www.w3.org/1999/xlink" width="512" height="512" viewBox="0 0 512 512">
<path fill="#000000" d="M362.385 28.664c-5.531-5.578-12.998-8.665-20.88-8.665h-171.008c-7.835 0-15.35 3.087-20.835 8.665l-120.995 120.951c-5.578 5.531-8.665 12.998-8.665 20.88v171.056c0 7.835 3.087 15.35 8.665 20.835l120.951 120.995c5.531 5.531 13.045 8.62 20.88 8.62h171.056c7.835 0 15.35-3.087 20.835-8.665l120.95-120.995c5.531-5.531 8.665-12.998 8.665-20.835v-171.008c0-7.835-3.087-15.35-8.665-20.835l-120.951-120.995zM256 315c-16.27 0-29.5-13.231-29.5-29.5v-177c0-16.27 13.231-29.5 29.5-29.5s29.5 13.231 29.5 29.5v177c0 16.27-13.231 29.5-29.5 29.5zM285.5 403.5c0 16.27-13.231 29.5-29.5 29.5s-29.5-13.231-29.5-29.5 13.231-29.5 29.5-29.5 29.5 13.231 29.5 29.5z"></path>
</svg>
