<?xml version="1.0" encoding="utf-8"?>
<!-- Generated by IcoMoon.io -->
<!DOCTYPE svg PUBLIC "-//W3C//DTD SVG 1.1//EN" "http://www.w3.org/Graphics/SVG/1.1/DTD/svg11.dtd">
<svg version="1.1" xmlns="http://www.w3.org/2000/svg" xmlns:xlink="http://www.w3.org/1999/xlink" width="512" height="512" viewBox="0 0 512 512">
<path fill="#000000" d="M300.132 186.124c-23.904 7.356-36.776-14.712-55.164-14.712-1.84 0-7.356 0-9.196 1.84l-7.356 1.84-11.032 7.356c-1.84 0-5.516 5.516-12.872 9.196 0 0-1.84 1.84-7.356 5.516-1.84 1.84-5.516 5.516-7.356 5.516l1.84 9.196c-1.84 0-1.84 0-1.84 0 0-7.356-5.516-12.872-9.196-14.712-1.84 0-5.516-1.84-7.356 0 0 9.196-9.196 14.712-16.548 22.068 0 9.196-9.196 12.872-14.712 20.228l1.84 1.84c5.516 5.516 12.872 1.84 16.548 0h1.84c0 5.516-5.516 5.516-7.356 7.356 1.84 1.84 7.356 0 9.196 0 5.516-1.84 9.196 1.84 14.712 0 7.356-5.516 12.872-5.516 14.712-12.872 1.84 0 1.84 0 1.84 0l-1.84 9.196c1.84-1.84 1.84-1.84 5.516-5.516 0 0 5.516-9.196 7.356-12.872 0 5.516-1.84 7.356-1.84 9.196 1.84 0 5.516-5.516 7.356-7.356l1.84-5.516c1.84 0 0 9.196-1.84 12.872l-9.196 20.228c0 1.84-9.196 16.548-14.712 22.068-5.516 1.84-14.712 5.516-14.712 9.196 0 0 23.904 0 33.1-1.84 5.516-1.84 14.712-20.228 22.068-23.904 1.84-1.84 7.356-5.516 12.872-7.356 12.872-5.516 5.516-22.068 12.872-9.196 7.356 5.516 14.712 1.84 33.1 1.84-5.516-1.84-7.356-9.196-7.356-9.196 1.84-1.84 5.516 5.516 5.516 1.84 0-5.516 1.84-12.872 1.84-9.196 0 0 1.84 7.356 1.84 5.516 0-5.516 0-5.516 1.84-7.356s1.84-5.516 5.516-5.516c1.84 0 1.84-1.84 1.84 0-5.516 7.356-9.196 14.712-9.196 23.904 0 12.872 12.872 20.228 5.516 29.42-1.84 7.356-12.872 1.84-14.712 9.196 0 1.84 0 1.84 1.84 1.84 9.196 0 14.712 0 22.068 0 7.356-1.84 5.516-5.516 7.356-7.356 1.84-12.872 1.84-12.872 5.516-14.712 0-5.516 7.356-12.872 7.356-14.712s7.356-7.356 12.872-9.196c1.84 0 5.516 0 5.516 0 1.84-1.84 9.196-5.516 12.872-12.872 1.84-1.84 1.84-5.516 7.356-12.872-1.84 0-5.516-1.84 0 0 5.516 0 7.356 0 9.196 5.516-1.84-9.196-9.196-22.068-20.228-33.1-14.712-7.356-33.1-7.356-51.488-1.84z"></path>
<path fill="#000000" d="M360.816 222.9c0 0 0-1.84-1.84 0-1.84 7.356-1.84 9.196-14.712 22.068-1.84 1.84 5.516 12.872 5.516 12.872-1.84 0 5.516 7.356 5.516 7.356s1.84 5.516 0 7.356c0 1.84-5.516 5.516-7.356 5.516-1.84 1.84-12.872 7.356-12.872 9.196s12.872 0 14.712 0c1.84 0 12.872 0 14.712 0l5.516-5.516c0 0 5.516-5.516 5.516-7.356 1.84-1.84 1.84-7.356 1.84-7.356s-1.84-5.516-5.516-9.196c0 0-5.516-9.196-7.356-14.712-3.676-11.032-3.676-20.228-3.676-20.228z"></path>
<path fill="#000000" d="M254.16 261.516c0 0-7.356 0-7.356 1.84-1.84 0-9.196 1.84-9.196 1.84s0 1.84 1.84 5.516c0 1.84 0 7.356-1.84 9.196-1.84 0-9.196 1.84-9.196 1.84l-1.84 1.84c0 0 0 0 5.516 0s16.548 0 20.228 0c5.516 1.84 9.196-7.356 12.872-9.196 0-1.84 1.84-7.356 5.516-14.712 0-1.84 0-1.84 0-1.84s-1.84 0-5.516 0c-5.516 1.84-11.032 3.676-11.032 3.676z"></path>
<path fill="#000000" d="M509.76 187.964l-130.56-36.776-7.356-137.916-112.172 77.232-114.008-80.908-7.356 137.916-130.56 36.776 101.136 91.944-51.488 126.88 136.076-22.068 66.2 121.364 66.2-119.524 136.076 22.068-55.164-126.88 102.976-90.104zM259.676 375.524c-71.716 0-130.56-58.844-130.56-130.56s58.844-130.56 130.56-130.56 130.56 58.844 130.56 130.56-58.844 130.56-130.56 130.56z"></path>
</svg>
