<?xml version="1.0" encoding="utf-8"?>
<!-- Generated by IcoMoon.io -->
<!DOCTYPE svg PUBLIC "-//W3C//DTD SVG 1.1//EN" "http://www.w3.org/Graphics/SVG/1.1/DTD/svg11.dtd">
<svg version="1.1" xmlns="http://www.w3.org/2000/svg" xmlns:xlink="http://www.w3.org/1999/xlink" width="512" height="512" viewBox="0 0 512 512">
<path fill="#000000" d="M319.608 210.224c1.404-4.607 5.002-16.878 10.778-36.834 1.404-5.236 4.985-15.601 10.76-31.112 5.758-16.014 10.365-28.844 13.82-38.507-10.149 6.82-20.441 15.852-30.896 27.081-37.32 40.234-80.667 88.872-96.016 114.387 5.867-1.44 17.543-13.712 54.755-26.469 23.734-8.133 36.798-8.547 36.798-8.547v0zM312.986 235.901c-117.68 0-169.017 187.604-250.619 187.604-18.498 0-32.839-8.313-42.952-24.94-6.478-10.616-9.734-22.745-9.734-36.365 0-34.207 16.159-77.374 48.493-129.484 27.566-44.355 56.626-80.055 87.216-107.135 26.469-23.284 49.124-34.908 67.963-34.908 10.617 0 18.768 3.797 24.471 11.408 4.588 6.010 6.892 13.297 6.892 21.862 0 15.367-5.147 32.875-15.403 52.542-8.997 16.95-20.225 32.173-33.649 45.632-8.853 8.709-15.799 13.082-20.855 13.082-3.328 0-6.387-1.655-9.249-4.984-2.051-2.393-3.077-5.074-3.077-8.079 0-5.56 4.823-11.893 14.467-19.019 13.603-10.149 24.418-21.25 32.478-33.289 11.858-17.436 17.779-32.173 17.779-44.229 0-4.894-1.062-8.546-3.203-10.923-2.142-2.375-5.345-3.545-9.626-3.545-8.709 0-21.053 6.334-37.049 19.019-18.21 14.251-37.445 33.666-57.706 58.228-25.803 31.22-45.416 61.953-58.877 92.237-13.927 31.363-20.89 58.156-20.89 80.361 0 10.616 3.077 19.649 9.249 27.099 6.784 8.404 15.097 12.955 24.886 12.578 37.284-1.368 83.761-86.478 98.102-106.253 142.277-196.368 153.109-196.889 174.666-217.313 12.505-12.038 22.115-18.066 28.755-18.066 4.139 0 7.702 1.673 10.724 4.984 2.537 3.005 3.797 6.334 3.797 9.986 0 4.427-2.213 12.2-6.64 23.284-7.594 19.487-14.863 40.306-21.827 62.493-6.010 19.649-10.059 34.71-12.11 45.165 2.861 0 4.768-0.071 5.687-0.251 4.588-0.144 8.385-0.233 11.389-0.233 9.176 0 13.765 3.472 13.765 10.454 0 3.005-0.99 5.974-2.951 8.906-1.979 2.933-4.211 4.732-6.748 5.363-0.954 0.324-3.545 0.469-7.809 0.469-8.997 0-15.709 0.558-20.117 1.655-1.673 4.984-5.992 47.288-12.416 48.728-19.847 17.238-18.372-38.507-17.274-44.121v0z"></path>
<path fill="#000000" d="M196.296 364.233c5.183 0 9.608 1.817 13.262 5.452s5.488 8.061 5.488 13.243c0 5.2-1.835 9.644-5.488 13.316s-8.098 5.507-13.262 5.507c-5.2 0-9.608-1.836-13.28-5.507s-5.506-8.115-5.506-13.316c0-5.183 1.835-9.608 5.506-13.243 3.671-3.652 8.079-5.452 13.28-5.452v0z"></path>
<path fill="#000000" d="M311.079 314.481l-13.118 13.027c-8.313-8.781-17.994-13.171-29.042-13.171-9.663 0-17.743 3.185-24.238 9.572-6.514 6.387-9.771 14.161-9.771 23.302 0 9.465 3.383 17.472 10.131 24.041 6.748 6.567 15.079 9.861 24.994 9.861 6.424 0 11.858-1.349 16.284-4.067 4.426-2.717 7.971-6.964 10.706-12.74h-28.394v-17.49h49.322l0.126 4.12c0 8.583-2.231 16.716-6.658 24.382-4.462 7.683-10.221 13.549-17.292 17.599s-15.367 6.064-24.904 6.064c-10.166 0-19.272-2.213-27.243-6.622-7.989-4.426-14.305-10.724-18.947-18.894-4.643-8.187-6.982-17.004-6.982-26.469 0-12.991 4.301-24.274 12.884-33.865 10.185-11.426 23.446-17.13 39.767-17.13 8.565 0 16.536 1.584 23.968 4.75 6.262 2.682 12.397 7.251 18.408 13.729v0z"></path>
<path fill="#000000" d="M371.395 296.019c13.873 0 25.803 5.020 35.772 15.079 9.986 10.041 14.971 22.259 14.971 36.708 0 14.305-4.913 26.415-14.755 36.329-9.861 9.914-21.791 14.863-35.844 14.863-14.719 0-26.954-5.074-36.672-15.277-9.734-10.149-14.611-22.241-14.611-36.257 0-9.375 2.249-17.994 6.802-25.857 4.534-7.882 10.778-14.089 18.696-18.696s16.483-6.892 25.641-6.892v0zM371.125 314.318c-9.050 0-16.644 3.149-22.798 9.447s-9.249 14.341-9.249 24.058c0 10.85 3.887 19.416 11.624 25.731 6.028 4.93 12.938 7.396 20.729 7.396 8.817 0 16.32-3.204 22.528-9.591 6.19-6.387 9.321-14.287 9.321-23.644 0-9.339-3.13-17.221-9.375-23.68s-13.82-9.716-22.781-9.716v0z"></path>
<path fill="#000000" d="M422.498 298.466h19.181l24.634 69.654 25.156-69.654h19.11l-35.375 98.067h-18.012l-34.692-98.067z"></path>
</svg>
