<?xml version="1.0" encoding="utf-8"?>
<!-- Generated by IcoMoon.io -->
<!DOCTYPE svg PUBLIC "-//W3C//DTD SVG 1.1//EN" "http://www.w3.org/Graphics/SVG/1.1/DTD/svg11.dtd">
<svg version="1.1" xmlns="http://www.w3.org/2000/svg" xmlns:xlink="http://www.w3.org/1999/xlink" width="512" height="512" viewBox="0 0 512 512">
<path fill="#000000" d="M105.421 182.422v145.445l80.423-77z"></path>
<path fill="#000000" d="M379.201 163.599h-246.402l123.201 104.379z"></path>
<path fill="#000000" d="M256 310.756l-53.045-46.2-80.423 82.134h266.935l-80.423-82.134z"></path>
<path fill="#000000" d="M406.579 182.422l-82.134 68.445 82.134 77v-131.757z"></path>
<path fill="#000000" d="M256 9.598c-133.467 0-241.268 111.223-241.268 246.402s107.801 246.402 241.268 246.402c133.467 0 241.268-111.223 241.268-246.402s-107.801-246.402-241.268-246.402zM439.090 379.201h-366.18v-213.89c0 0 0-1.712 0-1.712s0-1.712 0-1.712c0-17.112 13.689-30.8 30.8-30.8 0 0 1.712 0 1.712 0v0h301.158c0 0 1.712 0 1.712 0 17.112 1.712 29.089 13.689 30.8 30.8 0 0 0 1.712 0 1.712s0 1.712 0 1.712v213.89z"></path>
</svg>
