<?xml version="1.0" encoding="utf-8"?>
<!-- Generator: Adobe Illustrator 22.1.0, SVG Export Plug-In . SVG Version: 6.00 Build 0)  -->
<svg version="1.1" id="Layer_1" xmlns="http://www.w3.org/2000/svg" xmlns:xlink="http://www.w3.org/1999/xlink" x="0px" y="0px"
	 viewBox="0 0 32 32" style="enable-background:new 0 0 32 32;" xml:space="preserve">
<style type="text/css">
	.st0{fill:none;}
</style>
<g>
	<path class="st0" d="M21,25C21,25,21,25,21,25C21,25,21,25,21,25L21,25z"/>
	<path d="M25.5,11.9c0-0.2-0.1-0.3-0.2-0.4c-0.1-0.1-0.3-0.2-0.4-0.2h-3.5c-0.2,0-0.3,0.1-0.4,0.2s-0.2,0.3-0.2,0.4v4.1h-4.1
		c-0.2,0-0.3,0.1-0.4,0.2s-0.2,0.3-0.2,0.4V20c0,0.2,0.1,0.3,0.2,0.4c0.1,0.2,0.3,0.2,0.4,0.2h4.1v4.1c0,0.1,0,0.3,0.1,0.4l0,0
		c0,0,0,0,0,0c0.1,0.1,0.3,0.2,0.4,0.2h3.5c0.2,0,0.3-0.1,0.4-0.2c0.1-0.1,0.2-0.3,0.2-0.4v-4.1h4.1c0.2,0,0.3-0.1,0.4-0.2
		s0.2-0.3,0.2-0.4v-3.5c0-0.2-0.1-0.3-0.2-0.4S29.7,16,29.5,16h-1.1h-2.9V11.9z"/>
	<path d="M19.8,24.6v-2.9h-2.9c-0.5,0-1-0.2-1.3-0.6c-0.3-0.3-0.4-0.7-0.4-1.1v-3.5c0-0.5,0.2-0.9,0.5-1.2c0.3-0.3,0.7-0.5,1.2-0.5
		h2.9v-2.9c0-0.5,0.2-0.9,0.5-1.2c0.3-0.3,0.7-0.5,1.2-0.5h3.5c0.5,0,0.9,0.2,1.2,0.5c0.3,0.3,0.5,0.7,0.5,1.2v3h2.7l0.5-0.6
		c0.8-1.3,1.3-2.9,1.3-4.5c0-4.6-3.8-8.4-8.4-8.4c-2.8,0-5.3,1.4-6.8,3.5c-1.5-2.1-4-3.5-6.8-3.5C4.5,1.3,0.7,5,0.7,9.7
		c0,2,0.7,3.9,1.9,5.3L16,31.2l3.6-4.3l0.8-1c0,0,0,0-0.1-0.1C19.9,25.5,19.8,25.1,19.8,24.6z"/>
</g>
</svg>
