<?xml version="1.0" encoding="utf-8"?>
<!-- Generator: Adobe Illustrator 22.1.0, SVG Export Plug-In . SVG Version: 6.00 Build 0)  -->
<svg version="1.1" id="Layer_1" xmlns="http://www.w3.org/2000/svg" xmlns:xlink="http://www.w3.org/1999/xlink" x="0px" y="0px"
	 viewBox="0 0 32 32" style="enable-background:new 0 0 32 32;" xml:space="preserve">
<g>
	<path d="M25.5,15.3c-1.4,0-2.5,1.1-2.5,2.5c0,1.1,0.8,2.1,1.8,2.4v2.4c0,4-2.3,7.2-5.2,7.2c-2.9,0-5.2-3.2-5.2-7.2v-4.1
		c1.2-0.2,2.3-1,3-2.1L22.2,8c0.8-1.3,0.8-2.9,0-4.3c-0.7-1.2-1.8-1.9-3.2-2.1c-0.3-0.5-0.8-0.8-1.3-0.8c-0.8,0-1.5,0.7-1.5,1.5
		c0,0.8,0.7,1.5,1.5,1.5c0.5,0,1-0.3,1.3-0.7c0.8,0.1,1.5,0.6,1.9,1.3c0.5,0.9,0.5,1.9,0,2.8l-4.9,8.4c-0.5,0.9-1.4,1.4-2.4,1.4
		c-1,0-1.9-0.5-2.4-1.4L6.4,7.3c-0.5-0.9-0.5-1.9,0-2.8c0.4-0.7,1.1-1.2,1.9-1.3c0.3,0.4,0.7,0.7,1.3,0.7c0.8,0,1.5-0.7,1.5-1.5
		c0-0.8-0.7-1.5-1.5-1.5c-0.6,0-1.1,0.3-1.3,0.8C7,1.8,5.8,2.6,5.1,3.7C4.3,5.1,4.3,6.7,5.1,8l4.9,8.4c0.6,1.1,1.7,1.9,3,2.1v4.1
		c0,4.8,3,8.7,6.7,8.7c3.7,0,6.7-3.9,6.7-8.7v-2.5c0.9-0.3,1.6-1.2,1.6-2.3C28,16.4,26.9,15.3,25.5,15.3z M25.5,19
		c-0.6,0-1.2-0.5-1.2-1.2s0.5-1.2,1.2-1.2s1.2,0.5,1.2,1.2S26.2,19,25.5,19z"/>
</g>
</svg>
