<?xml version="1.0" encoding="utf-8"?>
<!-- Generator: Adobe Illustrator 22.1.0, SVG Export Plug-In . SVG Version: 6.00 Build 0)  -->
<svg version="1.1" id="Layer_1" xmlns="http://www.w3.org/2000/svg" xmlns:xlink="http://www.w3.org/1999/xlink" x="0px" y="0px"
	 viewBox="0 0 32 32" style="enable-background:new 0 0 32 32;" xml:space="preserve">
<g>
	<path d="M29.3,4.5c-1,0-1.9,0.8-2,1.8l-0.7,7.4c-0.4,0.1-0.7,0.3-0.9,0.5l-6,5.5c-0.8,0.7-1.3,1.8-1.3,2.9v6.6h7.1v-3.1
		c0-0.5,0.2-0.9,0.6-1.3l4.5-4.5c0.6-0.6,0.9-1.3,0.9-2.1V6.6C31.3,5.4,30.4,4.5,29.3,4.5z M30.2,18.3c0,0.5-0.2,0.9-0.5,1.2
		l-4.5,4.5c-0.6,0.6-0.9,1.3-0.9,2.1v1.9h-4.7v-5.4c0-0.8,0.3-1.5,0.9-2.1l6-5.6c0.2-0.2,0.4-0.2,0.6-0.2c0.1,0,0.3,0.1,0.5,0.2
		c0.1,0.1,0.2,0.3,0.2,0.5s-0.1,0.4-0.2,0.5l-4.6,4.2l0.8,0.9l4.6-4.2c0.4-0.4,0.6-0.9,0.6-1.4s-0.2-1-0.6-1.4
		c-0.2-0.2-0.4-0.3-0.6-0.4l0.7-7.4c0-0.4,0.4-0.8,0.8-0.8c0.5,0,0.8,0.4,0.8,0.8V18.3z"/>
	<path d="M6.4,14.2c-0.3-0.3-0.6-0.4-0.9-0.5L4.7,6.4c-0.1-1-1-1.8-2-1.8c-1.1,0-2,0.9-2,2v11.8c0,0.8,0.3,1.5,0.9,2.1L6,24.9
		c0.4,0.3,0.6,0.8,0.6,1.3v3.1h7.1v-6.6c0-1.1-0.5-2.2-1.3-2.9L6.4,14.2z M12.5,28.1H7.7v-1.9c0-0.8-0.3-1.6-0.9-2.1l-4.5-4.5
		c-0.3-0.3-0.5-0.8-0.5-1.2V6.6c0-0.5,0.4-0.8,0.8-0.8c0.4,0,0.8,0.3,0.8,0.8l0.7,7.4c-0.2,0.1-0.4,0.2-0.6,0.4
		c-0.4,0.4-0.6,0.9-0.6,1.4s0.2,1,0.6,1.4l4.6,4.2l0.8-0.9l-4.6-4.2c-0.1-0.1-0.2-0.3-0.2-0.5c0-0.2,0.1-0.4,0.2-0.5
		c0.2-0.2,0.3-0.2,0.5-0.2c0.2,0,0.5,0.1,0.6,0.2l6,5.6c0.6,0.5,0.9,1.3,0.9,2.1V28.1z"/>
	<path d="M24.6,9.7c0.2-0.5,0.2-1,0.2-1.5c0-1.8-1-3.4-2.5-4.2c-1.8-1-4.2-0.7-5.6,0.7C15.2,3.3,12.8,3,11,4
		C9.5,4.9,8.5,6.5,8.5,8.2c0,0.5,0.1,1,0.2,1.4c0.1,0.2,0.1,0.5,0.3,0.8H7.5c-0.3,0-0.5,0.2-0.5,0.5c0,0.3,0.2,0.5,0.5,0.5h6.2
		c0.2,0,0.4-0.1,0.5-0.3l0.6-1.3l0.7,3c0.1,0.2,0.2,0.4,0.4,0.4c0,0,0.1,0,0.1,0c0.2,0,0.4-0.1,0.5-0.3l1.5-2.5h1.6
		c0.3,0,0.5-0.2,0.5-0.5c0-0.3-0.2-0.5-0.5-0.5h-1.9c-0.2,0-0.4,0.1-0.5,0.3l-1,1.7l-0.8-3.3c-0.1-0.2-0.2-0.4-0.5-0.4
		c-0.2,0-0.4,0.1-0.5,0.3l-1.1,2.5h-3.1C10,10.1,9.9,9.7,9.8,9.4C9.7,9,9.6,8.6,9.6,8.2c0-1.4,0.7-2.6,2-3.3
		c1.5-0.8,3.6-0.5,4.7,0.9c0.2,0.2,0.6,0.2,0.8,0c1.1-1.4,3.2-1.7,4.7-0.9c1.2,0.7,1.9,1.9,1.9,3.3c0,0.4-0.1,0.8-0.2,1.2
		c-0.5,2.4-4.9,5.7-6.9,7c-0.6-0.4-2-1.4-3.4-2.5c-0.2-0.2-0.6-0.2-0.8,0.1c-0.2,0.2-0.2,0.6,0.1,0.8c1.9,1.6,3.7,2.8,3.8,2.8
		c0.1,0.1,0.2,0.1,0.3,0.1c0.1,0,0.2,0,0.3-0.1C17.2,17.3,23.8,13.2,24.6,9.7z"/>
</g>
</svg>
