<?xml version="1.0" encoding="utf-8"?>
<!-- Generator: Adobe Illustrator 22.1.0, SVG Export Plug-In . SVG Version: 6.00 Build 0)  -->
<svg version="1.1" id="Layer_1" xmlns="http://www.w3.org/2000/svg" xmlns:xlink="http://www.w3.org/1999/xlink" x="0px" y="0px"
	 viewBox="0 0 32 32" style="enable-background:new 0 0 32 32;" xml:space="preserve">
<g>
	<path d="M31.7,16.6L16.8,1.7c-0.1-0.1-0.4-0.3-0.7-0.3s-0.6,0.1-0.7,0.3L0.3,16.6C0.1,16.7,0,17,0,17.3c0,0.6,0.4,1,1,1
		c0.3,0,0.6-0.1,0.7-0.3L16.1,3.8L30.3,18c0.3,0.1,0.4,0.3,0.7,0.3c0.6,0,1-0.4,1-1C32,17,31.9,16.7,31.7,16.6z"/>
	<path d="M4,17.4v11.1c0,1.1,0.9,2,2,2H26c1.1,0,2-0.9,2-2V17.3L16.1,5.3L4,17.4z M17.8,14.9c0.1,0.1,0.1,0.2,0.1,0.3v3.4h3.4
		c0.1,0,0.3,0,0.3,0.1c0.1,0.1,0.1,0.2,0.1,0.3V22c0,0.1,0,0.3-0.1,0.3c-0.1,0.1-0.2,0.1-0.3,0.1h-3.4v3.4c0,0.1,0,0.3-0.1,0.3
		c-0.1,0.1-0.2,0.1-0.3,0.1h-2.9c-0.1,0-0.3,0-0.3-0.1c-0.1-0.1-0.1-0.2-0.1-0.3v-3.4h-3.4c-0.1,0-0.3,0-0.3-0.2
		c-0.1-0.1-0.1-0.2-0.1-0.3V19c0-0.1,0-0.3,0.1-0.3c0.1-0.1,0.2-0.1,0.3-0.1h3.4v-3.4c0-0.1,0-0.3,0.1-0.3c0.1-0.1,0.2-0.1,0.3-0.1
		h2.9C17.6,14.7,17.7,14.8,17.8,14.9z"/>
</g>
</svg>
