<?xml version="1.0" encoding="utf-8"?>
<!-- Generator: Adobe Illustrator 22.1.0, SVG Export Plug-In . SVG Version: 6.00 Build 0)  -->
<svg version="1.1" id="Layer_1" xmlns="http://www.w3.org/2000/svg" xmlns:xlink="http://www.w3.org/1999/xlink" x="0px" y="0px"
	 viewBox="0 0 32 32" style="enable-background:new 0 0 32 32;" xml:space="preserve">
<g>
	<path d="M15.8,4.8c-7.9,0-14.4,4.9-14.4,11c0,3.2,1.8,6.1,4.7,8.1c-0.2,4.6-2.7,5-2.7,5c3.1,0.3,5.7-1.6,6.9-3
		c1.7,0.6,3.6,0.9,5.6,0.9c7.9,0,14.4-4.9,14.4-11S23.8,4.8,15.8,4.8z M21.8,17.1c0,0.1,0,0.2-0.1,0.3s-0.2,0.1-0.3,0.1h-3.2v3.2
		c0,0.1,0,0.2-0.1,0.3c-0.1,0.1-0.2,0.1-0.3,0.1h-2.8c-0.1,0-0.2,0-0.3-0.1c-0.1-0.1-0.1-0.2-0.1-0.3v-3.2h-3.2
		c-0.1,0-0.2,0-0.3-0.2c-0.1-0.1-0.1-0.2-0.1-0.3v-2.8c0-0.1,0-0.2,0.1-0.3s0.2-0.1,0.3-0.1h3.2v-3.2c0-0.1,0-0.2,0.1-0.3
		c0.1-0.1,0.2-0.1,0.3-0.1h2.8c0.1,0,0.2,0,0.3,0.1c0.1,0.1,0.1,0.2,0.1,0.3v3.2h3.2c0.1,0,0.2,0,0.3,0.1s0.1,0.2,0.1,0.3V17.1z"/>
</g>
</svg>
