<?xml version="1.0" encoding="utf-8"?>
<!-- Generated by IcoMoon.io -->
<!DOCTYPE svg PUBLIC "-//W3C//DTD SVG 1.1//EN" "http://www.w3.org/Graphics/SVG/1.1/DTD/svg11.dtd">
<svg version="1.1" xmlns="http://www.w3.org/2000/svg" xmlns:xlink="http://www.w3.org/1999/xlink" width="512" height="512" viewBox="0 0 512 512">
<path fill="#000000" d="M475.575 138.452c0 18.646-14.052 33.778-31.363 33.778h-376.423c-17.328 0-31.363-15.133-31.363-33.778v-4.222c0-18.646 14.052-33.778 31.363-33.778h376.407c17.311 0 31.363 15.133 31.363 33.778v4.222z"></path>
<path fill="#000000" d="M475.575 254.564c0 18.646-14.052 33.778-31.363 33.778h-376.423c-17.328 0-31.363-15.133-31.363-33.778v-4.222c0-18.646 14.052-33.778 31.363-33.778h376.407c17.311 0 31.363 15.133 31.363 33.778v4.222z"></path>
<path fill="#000000" d="M475.575 370.677c0 18.646-14.052 33.778-31.363 33.778h-376.423c-17.328 0-31.363-15.133-31.363-33.778v-4.222c0-18.646 14.052-33.778 31.363-33.778h376.407c17.311 0 31.363 15.133 31.363 33.778v4.222z"></path>
</svg>
