<?xml version="1.0" encoding="utf-8"?>
<!-- Generator: Adobe Illustrator 22.1.0, SVG Export Plug-In . SVG Version: 6.00 Build 0)  -->
<svg version="1.1" id="Layer_1" xmlns="http://www.w3.org/2000/svg" xmlns:xlink="http://www.w3.org/1999/xlink" x="0px" y="0px"
	 viewBox="0 0 32 32" style="enable-background:new 0 0 32 32;" xml:space="preserve">
<g>
	<path d="M19.4,14.7c0.3-0.5,0.5-1.2,0.5-1.8c0-2.3-1.9-4.2-4.2-4.2s-4.2,1.9-4.2,4.2c0,1.9,1.2,3.5,2.9,4v-1c-1.2-0.5-2-1.6-2-3
		c0-1.8,1.5-3.2,3.2-3.2c1.8,0,3.2,1.5,3.2,3.2c0,0.6-0.2,1.1-0.4,1.6C18.9,14.4,19.2,14.6,19.4,14.7z"/>
	<path d="M8.9,22.9V4.4h12.8v11.5c0.5,0,0.8,0.9,0.8,1V7.7l0,0V6.8l0,0V2.7c0-1-1-1.8-2.1-1.8h-0.5l0,0l0,0H18l0,0l0,0h-7.7
		C9,0.9,8.1,1.7,8.1,2.7v3.7H8v0.9c0,0,0,0,0.1,0v1.3H8v0.9c0,0,0,0,0.1,0v15.4c0,1,1,1.8,2.1,1.8h2.1l-1.9-3.8H8.9z M14.3,2.7h2
		c0.2,0,0.3,0.1,0.3,0.2c0,0.1-0.1,0.2-0.3,0.2h-2C14.1,3.2,14,3.1,14,3C14,2.8,14.1,2.7,14.3,2.7z"/>
	<path d="M24.5,19.8c0-0.3,0-0.5,0-0.6c0,0,0-0.8-0.4-1.3c-0.2-0.2-0.4-0.3-0.7-0.3h-0.1c-0.5,0-0.8,0.4-0.8,0.8v3.9h-0.3V18v-0.4
		c-0.1-0.6-0.3-1.3-1.1-1.3l0,0c-0.7,0-0.7,0.6-0.8,0.8v4.3H20v-4.8c0-0.3,0-0.8-0.2-1.2s-0.6-0.7-1.2-0.7s-0.9,0.6-1,1v5.6h-0.3
		v-6.1v-2.4c0,0-0.2-1.1-1.2-1.1c-0.8,0-1.2,0.4-1.3,1.2c0,0.3,0,2.5,0,4.7c0,0.5,0,1,0,1.5c0,1.4,0,2.8,0,3.5c0,0.3,0,0.6,0,0.6
		h-0.1l-0.4-0.6L14,22.2c-1-1.5-2-3.2-3.1-3.3c-0.5,0-0.8,0.2-0.8,0.2c-0.6,0.4-0.6,0.9-0.3,1.7c0.2,0.4,0.4,0.8,0.7,1.3
		c0.1,0.2,0.5,0.8,0.6,1l0,0c0.8,1.4,1.6,2.9,2,3.8c1.2,2.4,3.3,3.5,4.3,3.5s4.2,0,4.2,0c2.4,0,2.8-3.5,2.8-4.6
		C24.5,24.8,24.5,21.6,24.5,19.8z"/>
</g>
</svg>
