<?xml version="1.0" encoding="utf-8"?>
<!-- Generated by IcoMoon.io -->
<!DOCTYPE svg PUBLIC "-//W3C//DTD SVG 1.1//EN" "http://www.w3.org/Graphics/SVG/1.1/DTD/svg11.dtd">
<svg version="1.1" xmlns="http://www.w3.org/2000/svg" xmlns:xlink="http://www.w3.org/1999/xlink" width="512" height="512" viewBox="0 0 512 512">
<path fill="#000000" d="M318.786 126.731v-77.56h-204.984c-14.774 0-25.855 11.081-25.855 25.855v360.104c0 14.774 11.081 25.855 25.855 25.855h282.544c14.774 0 25.855-11.081 25.855-25.855v-282.544h-77.56c-12.925 0-25.854-11.081-25.854-25.855zM135.966 124.886h136.656c11.080 0 22.161 7.387 22.161 14.774s-9.232 14.774-22.161 14.774h-136.656c-11.081 0-22.161-7.387-22.161-14.774 1.845-7.387 11.081-14.774 22.161-14.774zM374.188 388.962h-238.226c-11.081 0-22.161-7.387-22.161-16.619s9.232-16.619 22.161-16.619h238.226c11.081 0 22.161 7.387 22.161 16.619s-9.232 16.619-22.161 16.619zM374.188 311.402h-238.226c-11.081 0-22.161-7.387-22.161-16.619s9.232-16.619 22.161-16.619h238.226c11.081 0 22.161 7.387 22.161 16.619s-9.232 16.619-22.161 16.619zM396.349 217.22c0 9.232-9.232 16.619-22.161 16.619h-238.226c-11.081 0-22.161-7.387-22.161-16.619s11.081-16.619 22.161-16.619h238.226c12.925 0 22.161 7.387 22.161 16.619z"></path>
<path fill="#000000" d="M353.876 41.784v75.715h77.56z"></path>
</svg>
