<!-- Generated by IcoMoon.io -->
<svg version="1.1" xmlns="http://www.w3.org/2000/svg" width="24" height="24" viewBox="0 0 24 24">
<title>pdf-text</title>
<path d="M11.22 14.82v0h1.5c1.62 0 2.94-1.32 2.94-2.94s-1.32-2.94-2.94-2.94h-1.5c-0.3 0-0.6 0.24-0.6 0.6v4.74c0 0.18 0.060 0.3 0.18 0.42 0.12 0.060 0.24 0.12 0.42 0.12zM11.82 10.080h0.9c0.96 0 1.8 0.78 1.8 1.8 0 0.96-0.78 1.8-1.8 1.8h-0.9v-3.6z"></path>
<path d="M17.16 14.82c0.18 0 0.3-0.060 0.42-0.18s0.18-0.24 0.18-0.42v-1.8h1.2c0.3 0 0.6-0.24 0.6-0.6 0-0.3-0.24-0.6-0.6-0.6h-1.2v-1.2h2.040c0.3 0 0.6-0.24 0.6-0.6 0-0.3-0.24-0.6-0.6-0.6h-2.64c-0.3 0-0.6 0.24-0.6 0.6v4.74c0 0.18 0.060 0.3 0.18 0.42 0.12 0.18 0.24 0.24 0.42 0.24z"></path>
<path d="M5.88 14.82c0.18 0 0.3-0.060 0.42-0.18s0.18-0.24 0.18-0.42v-1.2h1.2c1.14 0 2.1-0.9 2.1-2.1 0-1.14-0.9-2.1-2.1-2.1h-1.8c-0.3 0-0.6 0.24-0.6 0.6v4.74c0 0.18 0.060 0.3 0.18 0.42 0.12 0.18 0.3 0.24 0.42 0.24zM6.48 10.080h1.2c0.24 0 0.48 0.060 0.66 0.24s0.24 0.42 0.24 0.66c0 0.24-0.060 0.48-0.24 0.66s-0.42 0.24-0.66 0.24h-1.2v-1.8z"></path>
<path d="M4.74 14.22c0-0.78-1.2-0.78-1.2 0s1.2 0.78 1.2 0z"></path>
<path d="M0.6 5.94v11.76h22.8v-11.76h-22.8zM22.44 16.74h-20.88v-9.84h20.88v9.84z"></path>
</svg>
