<?xml version="1.0" encoding="utf-8"?>
<!-- Generated by IcoMoon.io -->
<!DOCTYPE svg PUBLIC "-//W3C//DTD SVG 1.1//EN" "http://www.w3.org/Graphics/SVG/1.1/DTD/svg11.dtd">
<svg version="1.1" xmlns="http://www.w3.org/2000/svg" xmlns:xlink="http://www.w3.org/1999/xlink" width="512" height="512" viewBox="0 0 512 512">
<path fill="#000000" d="M332.334 332.334l-26.302-79.405-151.727-151.727-53.104 53.104 151.727 151.727zM30.861 30.861c-14.671 14.671-14.671 38.434 0 53.104l39.083 39.083 53.104-53.104-39.083-39.083c-14.671-14.672-38.434-14.672-53.104 0zM462.63 108.407h-209.258l29.519 29.519h179.74v324.705h-324.705v-179.74l-29.519-29.519v209.258c0 16.294 13.224 29.519 29.519 29.519h324.705c16.294 0 29.519-13.224 29.519-29.519v-324.705c0-16.294-13.224-29.519-29.519-29.519z"></path>
</svg>
