<?xml version="1.0" encoding="utf-8"?>
<!-- Generated by IcoMoon.io -->
<!DOCTYPE svg PUBLIC "-//W3C//DTD SVG 1.1//EN" "http://www.w3.org/Graphics/SVG/1.1/DTD/svg11.dtd">
<svg version="1.1" xmlns="http://www.w3.org/2000/svg" xmlns:xlink="http://www.w3.org/1999/xlink" width="512" height="512" viewBox="0 0 512 512">
<path fill="#000000" d="M224.963 85.296c0-41.512-36.081-77.593-77.593-77.593s-77.593 36.081-77.593 77.593 36.081 77.593 77.593 77.593 77.593-36.081 77.593-77.593zM279.278 380.148c0-124.148-64.45-186.222-135.787-186.222s-135.787 62.074-135.787 186.222c0 85.061 271.574 85.061 271.574 0zM372.389 223.266c41.512 0 77.593-36.081 77.593-77.593s-36.081-77.593-77.593-77.593-77.593 36.081-77.593 77.593 36.081 77.593 77.593 77.593zM368.509 254.303c-21.435 0-41.997 6.304-60.619 17.555 11.251 30.31 17.943 66.196 17.943 108.339 0 41.803-27.885 74.343-75.701 92.966 59.31 50.241 254.164 39.524 254.164-32.637 0-124.148-64.45-186.222-135.787-186.222v0z"></path>
</svg>
