<?xml version="1.0" encoding="utf-8"?>
<!-- Generator: Adobe Illustrator 22.1.0, SVG Export Plug-In . SVG Version: 6.00 Build 0)  -->
<svg version="1.1" id="Layer_1" xmlns="http://www.w3.org/2000/svg" xmlns:xlink="http://www.w3.org/1999/xlink" x="0px" y="0px"
	 viewBox="0 0 32 32" style="enable-background:new 0 0 32 32;" xml:space="preserve">
<g>
	<path d="M21,16.2c-0.7-0.5-1.5-0.8-2.5-0.8c-5.1,0-6.1,7-6.3,9.1c0,0,2.6,2,6.3,2c3.7,0,5.9-2,5.9-2c-0.1-0.7-0.2-1.9-0.5-3.3
		C23.5,19.4,22.6,17.3,21,16.2z"/>
	<path d="M18.6,14.6c2,0,3.7-1.7,3.7-3.7c0-2-1.7-3.7-3.7-3.7c-2,0-3.7,1.7-3.7,3.7C14.9,12.9,16.5,14.6,18.6,14.6z"/>
	<path d="M26.2,11c1.9,0,3.4-1.5,3.4-3.4c0-1.9-1.5-3.4-3.4-3.4s-3.4,1.5-3.4,3.4C22.8,9.5,24.3,11,26.2,11z"/>
	<path d="M26.2,11.9c-2.8,0-4,2-4.6,3.3c0.9,0.6,2.9,2.3,3.8,7.1c0.1,0,0.3,0,0.7,0c3.4,0,5.5-1.9,5.5-1.9
		C31.5,18.5,30.7,11.9,26.2,11.9z"/>
	<polygon points="25.5,22.2 25.5,22.2 25.5,22.2 	"/>
	<path d="M3.8,15.1h8.6c0.3,0,0.6-0.3,0.6-0.6S12.7,14,12.4,14H3.8c-0.2-0.7-0.9-1.2-1.6-1.2c-0.9,0-1.7,0.8-1.7,1.7
		s0.8,1.7,1.7,1.7C2.9,16.3,3.5,15.8,3.8,15.1z"/>
	<path d="M3.8,5.3v3.1c0,1.9,1.3,3.1,3.3,3.1h4c0.3,0,0.5-0.2,0.5-0.5s-0.2-0.5-0.5-0.5h-4c-0.9,0-2.3-0.3-2.3-2.1V5.3
		C5.5,5,6,4.4,6,3.6c0-0.9-0.8-1.7-1.7-1.7S2.6,2.7,2.6,3.6C2.6,4.4,3.1,5,3.8,5.3z"/>
	<path d="M11.2,17.6h-4c-2,0-3.3,1.2-3.3,3.1v3.1c-0.7,0.2-1.2,0.9-1.2,1.6c0,0.9,0.8,1.7,1.7,1.7S6,26.4,6,25.5
		c0-0.8-0.5-1.4-1.2-1.6v-3.1c0-1.9,1.4-2.1,2.3-2.1h4c0.3,0,0.5-0.2,0.5-0.5S11.4,17.6,11.2,17.6z"/>
</g>
</svg>
