<?xml version="1.0" encoding="utf-8"?>
<!-- Generated by IcoMoon.io -->
<!DOCTYPE svg PUBLIC "-//W3C//DTD SVG 1.1//EN" "http://www.w3.org/Graphics/SVG/1.1/DTD/svg11.dtd">
<svg version="1.1" xmlns="http://www.w3.org/2000/svg" xmlns:xlink="http://www.w3.org/1999/xlink" width="512" height="512" viewBox="0 0 512 512">
<path fill="#000000" d="M128 312.224c0 24.544 61.76 37.568 128.032 39.392 0 0.128-0.032 0.256-0.032 0.384v96c0 17.664 7.168 64 16 64s16-46.336 16-64v-96c0-0.128-0.032-0.256-0.032-0.384 66.272-1.824 128.032-14.848 128.032-39.392 0-26.048-23.584-45.056-64-55.296v-165.728c40.416-13.696 64-35.744 64-51.424 0-53.024-288-53.024-288 0 0 17.248 23.584 38.816 64 52v165.152c-40.416 10.272-64 29.248-64 55.296z"></path>
</svg>
