<?xml version="1.0" encoding="utf-8"?>
<!-- Generator: Adobe Illustrator 22.1.0, SVG Export Plug-In . SVG Version: 6.00 Build 0)  -->
<svg version="1.1" id="Layer_1" xmlns="http://www.w3.org/2000/svg" xmlns:xlink="http://www.w3.org/1999/xlink" x="0px" y="0px"
	 viewBox="0 0 32 32" style="enable-background:new 0 0 32 32;" xml:space="preserve">
<g>
	<g id="Layer_5_4_">
		<path d="M23.4,13.4c-1.3,1.3-3.2,1.1-4.5-0.2c-1.3-1.3-1.4-3.2-0.2-4.5c1.5-1.5,2.5-0.7,3.5-1.1c0.1,0,0.2-0.2,0-0.3l-4.9-4.9
			C17,2,16.2,2,15.7,2.4l-5.2,5.2c-0.1,0.1-0.2,0-0.2,0c-0.5-1.1,0.4-2-1.1-3.5C8,2.8,6.1,3,4.8,4.2C3.5,5.5,3.4,7.4,4.6,8.7
			c1.5,1.5,2.4,0.6,3.5,1.1c0.1,0,0.2,0.1,0,0.2l-4.7,4.7C3,15.2,3,16,3.5,16.5l4.9,4.9c0.1,0.1,0,0.2,0,0.2c-1,0.5-2-0.4-3.5,1.1
			C3.6,24,3.8,25.9,5,27.2c1.3,1.3,3.2,1.4,4.5,0.2c1.5-1.5,0.6-2.5,1.1-3.5c0,0,0.1-0.2,0.1-0.1l5,5c0.5,0.5,1.3,0.5,1.8,0
			l12.3-12.3c0.5-0.5,0.5-1.3,0-1.8l-5-5c-0.1-0.1-0.2,0-0.3,0.1C24,10.9,24.9,11.9,23.4,13.4z"/>
	</g>
</g>
</svg>
