<?xml version="1.0" encoding="utf-8"?>
<!-- Generator: Adobe Illustrator 22.1.0, SVG Export Plug-In . SVG Version: 6.00 Build 0)  -->
<svg version="1.1" id="Layer_1" xmlns="http://www.w3.org/2000/svg" xmlns:xlink="http://www.w3.org/1999/xlink" x="0px" y="0px"
	 viewBox="0 0 32 32" style="enable-background:new 0 0 32 32;" xml:space="preserve">
<g>
	<path d="M26,5.3c0-1-0.8-1.8-1.8-1.8h-1.1v0c0-0.1,0-0.1,0-0.1h-1.6c0,0,0,0,0,0.1v0H8.1c-1,0-1.8,0.8-1.8,1.8v3.5
		c-0.1,0-0.1,0-0.1,0v1.1c0,0,0,0,0.1,0v2.5c-0.1,0-0.1,0-0.1,0v1.1c0,0,0,0,0.1,0v13.1c0,1,0.8,1.8,1.8,1.8h16.1
		c1,0,1.8-0.8,1.8-1.8V11.1c0,0,0.1,0,0.1-0.1V8.8c0,0,0-0.1-0.1-0.1V5.3z M16.2,4.6c0.3,0,0.5,0.2,0.5,0.5c0,0.2-0.2,0.5-0.5,0.5
		c-0.2,0-0.5-0.2-0.5-0.5C15.7,4.8,15.9,4.6,16.2,4.6z M18,27c0,0.2-0.3,0.5-0.5,0.5c-0.4,0-0.9,0-1.3,0c-0.4,0-0.9,0-1.3,0
		c-0.2,0-0.5-0.3-0.5-0.5c0-0.1,0-0.1,0-0.2c0-0.2,0.3-0.5,0.5-0.5c0.4,0,0.9,0,1.3,0c0.4,0,0.9,0,1.3,0c0.2,0,0.5,0.3,0.5,0.5
		C18,26.9,18,27,18,27z M24.3,25.6H8V6.3h16.2V25.6z"/>
	<path d="M11.8,12.5h9.1c0.6,0,1-0.5,1-1c0-0.6-0.5-1-1-1h-9.1c-0.6,0-1,0.5-1,1C10.8,12.1,11.3,12.5,11.8,12.5z"/>
	<path d="M11.8,16.7h9.1c0.6,0,1-0.5,1-1c0-0.6-0.5-1-1-1h-9.1c-0.6,0-1,0.5-1,1C10.8,16.2,11.3,16.7,11.8,16.7z"/>
	<path d="M31.9,12.1V9.3c0-0.7-0.6-1.3-1.3-1.3h-0.3v0c0,0,0,0,0,0h-1.1c0,0,0,0,0,0v0h-2.4v1.5c0-0.1,0.1-0.2,0.2-0.2h1.2
		c0.1,0,0.2,0.1,0.2,0.2c0,0.1-0.1,0.2-0.2,0.2H27c-0.1,0-0.2-0.1-0.2-0.2v1H31v13h-4.2v0.9c0,0,0,0,0.1,0c0.2,0,0.5,0,0.7,0
		c0.2,0,0.5,0,0.7,0c0.1,0,0.3,0.1,0.3,0.3c0,0,0,0.1,0,0.1c0,0.1-0.1,0.3-0.3,0.3c-0.2,0-0.5,0-0.7,0c-0.2,0-0.5,0-0.7,0
		c0,0,0,0-0.1,0v1.1h3.8c0.7,0,1.3-0.6,1.3-1.3v-0.4V12.8c0,0,0,0,0,0L31.9,12.1C31.9,12.2,31.9,12.2,31.9,12.1z"/>
	<path d="M2.9,8C2.9,8,2.9,8,2.9,8L1.7,8c0,0,0,0,0,0v0H1.4C0.7,8,0.1,8.6,0.1,9.3v2.9c0,0,0,0,0,0v0.6c0,0,0,0,0,0v11.6v0.4
		c0,0.7,0.6,1.3,1.3,1.3h3.8V25c0,0,0,0-0.1,0c-0.2,0-0.5,0-0.7,0c-0.2,0-0.5,0-0.7,0c-0.1,0-0.3-0.1-0.3-0.3c0,0,0-0.1,0-0.1
		c0-0.1,0.1-0.3,0.3-0.3c0.2,0,0.5,0,0.7,0c0.2,0,0.5,0,0.7,0c0,0,0,0,0.1,0v-0.9H1v-13h4.2v-1c0,0.1-0.1,0.2-0.2,0.2H3.9
		c-0.1,0-0.2-0.1-0.2-0.2c0-0.1,0.1-0.2,0.2-0.2h1.2c0.1,0,0.2,0.1,0.2,0.2V8L2.9,8L2.9,8z"/>
</g>
</svg>
