<?xml version="1.0" encoding="utf-8"?>
<!-- Generated by IcoMoon.io -->
<!DOCTYPE svg PUBLIC "-//W3C//DTD SVG 1.1//EN" "http://www.w3.org/Graphics/SVG/1.1/DTD/svg11.dtd">
<svg version="1.1" xmlns="http://www.w3.org/2000/svg" xmlns:xlink="http://www.w3.org/1999/xlink" width="512" height="512" viewBox="0 0 512 512">
<path fill="#000000" d="M190.249 374.718c0 29.253-23.714 52.967-52.967 52.967s-52.967-23.714-52.967-52.967c0-29.253 23.714-52.967 52.967-52.967s52.967 23.714 52.967 52.967z"></path>
<path fill="#000000" d="M265.131 427.682c0-100.453-80.363-180.816-178.988-180.816v-74.882c140.633 0 253.873 115.065 253.873 255.698h-74.882z"></path>
<path fill="#000000" d="M391.155 427.682c0-169.857-136.98-308.665-305.012-308.665v-78.535c210.037 0 381.722 173.51 381.722 385.374 0 1.825-76.71 1.825-76.71 1.825z"></path>
</svg>
