<?xml version="1.0" encoding="utf-8"?>
<!-- Generated by IcoMoon.io -->
<!DOCTYPE svg PUBLIC "-//W3C//DTD SVG 1.1//EN" "http://www.w3.org/Graphics/SVG/1.1/DTD/svg11.dtd">
<svg version="1.1" xmlns="http://www.w3.org/2000/svg" xmlns:xlink="http://www.w3.org/1999/xlink" width="512" height="512" viewBox="0 0 512 512">
<path fill="#000000" d="M32 480h288c17.664 0 32-14.336 32-32v-43.2c6.816-3.264 13.184-7.168 19.168-11.68l98.208 98.208c3.136 3.136 7.232 4.672 11.328 4.672s8.192-1.568 11.328-4.672c6.24-6.24 6.24-16.384 0-22.624l-98.272-98.272c13.792-18.624 22.24-41.472 22.24-66.432 0-44.608-26.272-82.784-64-100.8v-171.2c0-17.664-14.336-32-32-32h-288c-17.664 0-32 14.336-32 32v416c0 17.664 14.336 32 32 32zM304 384c-44.096 0-80-35.904-80-80s35.904-80 80-80 80 35.904 80 80-35.904 80-80 80zM272 128h-192c-8.832 0-16-7.168-16-16s7.168-16 16-16h192c8.832 0 16 7.168 16 16s-7.168 16-16 16zM80 192h192c3.104 0 5.824 1.12 8.256 2.624-20.928 4.544-39.68 14.912-54.464 29.376h-145.792c-8.832 0-16-7.168-16-16s7.168-16 16-16zM80 288h113.6c-0.736 5.28-1.6 10.528-1.6 16s0.864 10.72 1.6 16h-113.6c-8.832 0-16-7.168-16-16s7.168-16 16-16z"></path>
</svg>
