<?xml version="1.0" encoding="utf-8"?>
<!-- Generator: Adobe Illustrator 22.1.0, SVG Export Plug-In . SVG Version: 6.00 Build 0)  -->
<svg version="1.1" id="Layer_1" xmlns="http://www.w3.org/2000/svg" xmlns:xlink="http://www.w3.org/1999/xlink" x="0px" y="0px"
	 viewBox="0 0 32 32" style="enable-background:new 0 0 32 32;" xml:space="preserve">
<style type="text/css">
	.st0{fill:none;}
</style>
<g>
	<path d="M25.8,14.5h0.1c1,0,3.5,0,3.5-3.5V4.6c0.6-0.2,1.1-0.8,1.1-1.5c0-0.9-0.7-1.6-1.6-1.6c-0.9,0-1.6,0.7-1.6,1.6
		c0,0.7,0.5,1.3,1.1,1.5V11c0,2.3-1.2,2.5-2.5,2.5h-0.1c-0.3,0-0.5,0.2-0.5,0.5S25.5,14.5,25.8,14.5z"/>
	<path d="M2.9,4.6V11c0,3.5,2.5,3.5,3.5,3.5c0,0,0.6,0,0.6-0.5s-0.4-0.5-0.4-0.5c-0.2,0-0.2,0-0.2,0c-1.3,0-2.5-0.2-2.5-2.5V4.6
		C4.5,4.4,5,3.8,5,3.1c0-0.9-0.7-1.6-1.6-1.6c-0.9,0-1.6,0.7-1.6,1.6C1.8,3.8,2.3,4.4,2.9,4.6z"/>
	<path d="M3.4,21.9c0.7,0,1.2-0.4,1.5-1h3.2c0.3,0,0.5-0.2,0.5-0.5c0-0.3-0.2-0.5-0.5-0.5H4.9c-0.2-0.7-0.8-1.2-1.5-1.2
		c-0.9,0-1.6,0.7-1.6,1.6C1.8,21.2,2.5,21.9,3.4,21.9z"/>
	<path d="M20.1,26.7v-2.8c0-0.3-0.2-0.5-0.5-0.5c-0.3,0-0.5,0.2-0.5,0.5v2.8c-0.6,0.2-1.1,0.8-1.1,1.5c0,0.9,0.7,1.6,1.6,1.6
		c0.9,0,1.6-0.7,1.6-1.6C21.2,27.5,20.7,26.9,20.1,26.7z"/>
	<path d="M12.6,23.4c-0.5,0-0.5,0.5-0.5,0.5v1.9c0,1.5-0.6,1.8-3.2,1.8h-4c-0.2-0.6-0.8-1.1-1.5-1.1c-0.9,0-1.6,0.7-1.6,1.6
		c0,0.9,0.7,1.6,1.6,1.6c0.7,0,1.3-0.5,1.5-1.1h4c2.2,0,4.2-0.2,4.2-2.8c0,0,0-1.7,0-1.9C13.1,23.9,13.1,23.4,12.6,23.4z"/>
	<path d="M29.4,26.4v-2.1c0-1.4,0-4.5-2.8-4.5h-0.8c-0.3,0-0.5,0.2-0.5,0.5s0.2,0.5,0.5,0.5h0.8c1.3,0,1.8,1,1.8,3.5v2.1
		c-0.7,0.2-1.2,0.8-1.2,1.6c0,0.9,0.7,1.6,1.6,1.6c0,0,0,0,0,0c0,0,0,0,0,0c0.9,0,1.6-0.7,1.6-1.6c0,0,0,0,0,0c0,0,0,0,0,0
		C30.5,27.2,30,26.6,29.4,26.4z"/>
</g>
<g>
	<path class="st0" d="M12.2,14.6c0,0.1,2.3,2.3,2.5,2.5c0.2,0.2,0.4,0.3,0.8,0.3c0.2,0,0.6-0.2,0.8-0.4c0,0,4.5-4.9,4.7-5.2
		c0.2-0.2,0.2-0.6,0-0.8c-0.2-0.2-0.4-0.4-0.5-0.4c-0.3-0.3-0.6,0-0.8,0.1c-0.2,0.2-4.2,4.5-4.2,4.5s-1.8-1.8-1.9-1.9
		c-0.2-0.2-0.4-0.3-0.7-0.1c-0.1,0.1-0.6,0.5-0.6,0.6C12,14,12,14.3,12.2,14.6z"/>
	<path d="M16,21.6c2.5-0.8,6.7-3.5,7.4-12.1L16,6.7L8.6,9.5C9.3,18.1,13.5,20.8,16,21.6z M12.8,13.2c0.3-0.2,0.5-0.1,0.7,0.1
		c0.1,0.1,1.9,1.9,1.9,1.9s4.1-4.3,4.2-4.5c0.2-0.2,0.5-0.4,0.8-0.1c0.1,0.1,0.3,0.3,0.5,0.4c0.2,0.2,0.2,0.5,0,0.8
		C20.8,12,16.3,17,16.3,17c-0.3,0.3-0.6,0.4-0.8,0.4c-0.3,0-0.6-0.1-0.8-0.3c-0.2-0.2-2.5-2.5-2.5-2.5c-0.3-0.3-0.2-0.5,0-0.8
		C12.3,13.7,12.7,13.3,12.8,13.2z"/>
</g>
<g>
	<path d="M24.4,8.2L16,5l0,0l0,0L7.6,8.2L7,8.5L7,9.2c0.8,10.6,6.3,13.3,9,14c0,0,0,0,0,0c0,0,0,0,0,0c2.6-0.7,8.2-3.5,9-14L25,8.5
		L24.4,8.2z M16,22.2L16,22.2C16,22.2,16,22.2,16,22.2C16,22.2,16,22.2,16,22.2L16,22.2c-2.6-0.8-7.3-3.6-8-13.1l8-3.1v0h0l8,3.1
		C23.3,18.6,18.6,21.4,16,22.2z"/>
</g>
</svg>
