<?xml version="1.0" encoding="utf-8"?>
<!-- Generated by IcoMoon.io -->
<!DOCTYPE svg PUBLIC "-//W3C//DTD SVG 1.1//EN" "http://www.w3.org/Graphics/SVG/1.1/DTD/svg11.dtd">
<svg version="1.1" xmlns="http://www.w3.org/2000/svg" xmlns:xlink="http://www.w3.org/1999/xlink" width="512" height="512" viewBox="0 0 512 512">
<path fill="#000000" d="M335.157 218.478c-22.334 0-40.498 18.112-40.498 40.409 0 22.315 18.167 40.463 40.498 40.463 22.225 0 40.409-18.148 40.409-40.463 0-22.296-18.183-40.409-40.409-40.409z"></path>
<path fill="#000000" d="M424.489 47.859h-333.64c-27.637 0-49.988 21.918-49.988 48.978v326.659c0 27.041 22.35 48.978 49.988 48.978h333.64c27.619 0 50.006-21.937 50.006-48.978v-326.659c0-27.060-22.388-48.978-50.006-48.978zM176.139 320.924c-34.238 0-62.002-27.727-62.002-62.019 0-34.238 27.745-62.019 62.002-62.019 34.221 0 62.019 27.781 62.019 62.019 0 34.292-27.781 62.019-62.019 62.019zM335.157 320.924c-34.203 0-62.019-27.816-62.019-62.019 0-34.184 27.816-62.002 62.019-62.002 34.167 0 61.965 27.816 61.965 62.002-0.019 34.203-27.816 62.019-61.965 62.019z"></path>
</svg>
