<?xml version="1.0" encoding="utf-8"?>
<!-- Generated by IcoMoon.io -->
<!DOCTYPE svg PUBLIC "-//W3C//DTD SVG 1.1//EN" "http://www.w3.org/Graphics/SVG/1.1/DTD/svg11.dtd">
<svg version="1.1" xmlns="http://www.w3.org/2000/svg" xmlns:xlink="http://www.w3.org/1999/xlink" width="512" height="512" viewBox="0 0 512 512">
<path fill="#000000" d="M425.229 47.861h-333.64c-27.637 0-49.988 21.918-49.988 48.978v326.659c0 27.041 22.35 48.978 49.988 48.978h333.64c27.619 0 50.006-21.937 50.006-48.978v-326.659c0-27.060-22.388-48.978-50.006-48.978zM289.39 342.553c-22.171 0-43.061-12.015-50.185-25.615 0 0-11.942 47.336-14.467 56.482-8.893 32.272-35.069 64.582-37.090 67.233-1.407 1.839-4.545 1.264-4.888-1.172-0.559-4.113-7.216-44.829 0.632-78.057 3.951-16.705 26.428-111.971 26.428-111.971s-6.549-13.114-6.549-32.526c0-30.451 17.661-53.163 39.615-53.163 18.688 0 27.708 14.016 27.708 30.83 0 18.815-11.961 46.903-18.148 72.934-5.142 21.774 10.932 39.561 32.434 39.561 38.91 0 65.122-49.988 65.122-109.265 0-45.027-30.306-78.724-85.471-78.724-62.308 0-101.147 46.488-101.147 98.406 0 17.878 5.285 30.522 13.565 40.282 3.789 4.475 4.31 6.314 2.941 11.456-1.010 3.77-3.246 12.898-4.186 16.487-1.353 5.212-5.593 7.089-10.283 5.142-28.701-11.69-42.086-43.169-42.086-78.508 0-58.34 49.229-128.35 146.86-128.35 78.471 0 130.084 56.752 130.084 117.707-0.035 80.601-44.846 140.835-110.888 140.835z"></path>
</svg>
