<?xml version="1.0" encoding="utf-8"?>
<!-- Generated by IcoMoon.io -->
<!DOCTYPE svg PUBLIC "-//W3C//DTD SVG 1.1//EN" "http://www.w3.org/Graphics/SVG/1.1/DTD/svg11.dtd">
<svg version="1.1" xmlns="http://www.w3.org/2000/svg" xmlns:xlink="http://www.w3.org/1999/xlink" width="512" height="512" viewBox="0 0 512 512">
<path fill="#000000" d="M425.229 47.859h-333.64c-27.637 0-49.988 21.918-49.988 48.978v326.659c0 27.041 22.35 48.978 49.988 48.978h333.64c27.619 0 50.006-21.937 50.006-48.978v-326.659c0-27.060-22.388-48.978-50.006-48.978zM403.275 192.753c0.127 3.103 0.216 6.206 0.216 9.344 0 94.996-72.321 204.533-204.55 204.533-40.589 0-78.382-11.907-110.186-32.309 5.628 0.686 11.348 1.010 17.156 1.010 33.679 0 64.654-11.472 89.278-30.776-31.478-0.559-58.033-21.359-67.198-49.915 4.421 0.867 8.912 1.299 13.548 1.299 6.549 0 12.898-0.902 18.96-2.544-32.923-6.638-57.673-35.683-57.673-70.498 0-0.324 0-0.594 0-0.921 9.687 5.393 20.764 8.642 32.58 9.020-19.32-12.917-31.983-34.907-31.983-59.855 0-13.152 3.519-25.507 9.706-36.134 35.483 43.512 88.466 72.105 148.194 75.098-1.21-5.212-1.858-10.734-1.858-16.344 0-39.704 32.183-71.887 71.887-71.887 20.673 0 39.363 8.712 52.459 22.676 16.398-3.211 31.75-9.182 45.658-17.408-5.377 16.776-16.776 30.848-31.642 39.758 14.575-1.769 28.429-5.609 41.311-11.329-9.652 14.378-21.845 27.076-35.863 37.179z"></path>
</svg>
