<?xml version="1.0" encoding="utf-8"?>
<!-- Generated by IcoMoon.io -->
<!DOCTYPE svg PUBLIC "-//W3C//DTD SVG 1.1//EN" "http://www.w3.org/Graphics/SVG/1.1/DTD/svg11.dtd">
<svg version="1.1" xmlns="http://www.w3.org/2000/svg" xmlns:xlink="http://www.w3.org/1999/xlink" width="512" height="512" viewBox="0 0 512 512">
<path fill="#000000" d="M425.228 47.861h-333.639c-27.636 0-49.988 21.918-49.988 48.978v326.658c0 27.041 22.35 48.978 49.988 48.978h333.639c27.619 0 50.005-21.937 50.005-48.978v-326.658c0-27.060-22.388-48.978-50.005-48.978zM359.673 329.348c-47.895 62.291-88.447 93.425-121.586 93.425-20.565 0-37.919-18.959-52.153-56.933-9.471-34.781-18.959-69.524-28.413-104.303-10.589-37.954-21.883-56.896-33.987-56.896-2.633 0-11.853 5.52-27.636 16.65l-16.579-21.432c17.389-15.261 34.564-30.559 51.449-45.875 23.163-20.060 40.589-30.63 52.207-31.678 27.419-2.633 44.322 16.128 50.69 56.283 6.819 43.312 11.545 70.228 14.216 80.799 7.883 35.916 16.595 53.884 26.104 53.884 7.397 0 18.453-11.653 33.228-34.978 14.775-23.29 22.639-41.003 23.722-53.199 2.112-20.133-5.809-30.233-23.722-30.233-8.478 0-17.138 1.931-26.066 5.79 17.3-56.751 50.366-84.334 99.253-82.748 36.188 1.045 53.253 24.589 51.16 70.48-1.588 34.33-25.526 81.322-71.887 140.962z"></path>
</svg>
