<?xml version="1.0" encoding="utf-8"?>
<!-- Generator: Adobe Illustrator 22.1.0, SVG Export Plug-In . SVG Version: 6.00 Build 0)  -->
<svg version="1.1" id="Layer_1" xmlns="http://www.w3.org/2000/svg" xmlns:xlink="http://www.w3.org/1999/xlink" x="0px" y="0px"
	 viewBox="0 0 32 32" style="enable-background:new 0 0 32 32;" xml:space="preserve">
<g>
	<path d="M28.8,7L16,2.1l0,0l0,0L3.2,7l-1,0.4l0.1,1.1C3.5,24.6,12,28.8,16,29.9c0,0,0,0,0,0c0,0,0,0,0,0c4-1.1,12.5-5.3,13.7-21.4
		l0.1-1.1L28.8,7z M16,28.4L16,28.4C16,28.4,16,28.4,16,28.4C16,28.4,16,28.4,16,28.4L16,28.4c-4-1.2-11.2-5.5-12.2-20L16,3.7v0h0
		l12.2,4.7C27.2,22.9,20,27.2,16,28.4z"/>
	<path d="M4.6,8.8C5.9,24.8,14.9,27.2,16,27.5c0,0,0,0,0,0c0,0,0,0,0,0c1.1-0.3,10.1-2.7,11.4-18.7L16,4.5l0,0l0,0L4.6,8.8z
		 M21.8,10.6c0.2-0.2,0.8-0.6,1.3-0.2c0.1,0.1,0.5,0.4,0.8,0.7s0.3,0.8,0,1.2s-7.5,8.2-7.5,8.2c-0.4,0.4-1,0.7-1.3,0.7
		c-0.5,0-0.9-0.2-1.2-0.5c-0.3-0.3-3.9-3.9-3.9-4c-0.4-0.4-0.3-0.8,0-1.2c0.1-0.1,0.8-0.8,1-0.9c0.4-0.3,0.8-0.2,1.1,0.1
		c0.1,0.1,3,3,3,3S21.6,10.8,21.8,10.6z"/>
</g>
</svg>
