<?xml version="1.0" encoding="utf-8"?>
<!-- Generated by IcoMoon.io -->
<!DOCTYPE svg PUBLIC "-//W3C//DTD SVG 1.1//EN" "http://www.w3.org/Graphics/SVG/1.1/DTD/svg11.dtd">
<svg version="1.1" xmlns="http://www.w3.org/2000/svg" xmlns:xlink="http://www.w3.org/1999/xlink" width="512" height="512" viewBox="0 0 512 512">
<path fill="#000000" d="M43.848 408.756c-16.408 16.408-16.408 42.984 0 59.396 8.204 8.204 18.958 12.292 29.712 12.292s21.508-4.088 29.712-12.292l137.916-137.916-59.424-59.396-137.916 137.916zM388.539 153.144l60.012-31.056 31.476-60.796-29.32-29.32-60.796 31.476-31.056 60.012-73.144 73.144 29.684 29.684zM401.672 312.566c-1.904-0.112-3.724-0.56-5.656-0.56-10.248 0-19.967 2.1-29.040 5.46l-172.444-172.444c3.36-9.072 5.46-18.79 5.46-29.040 0-1.932-0.448-3.752-0.56-5.656-2.968-43.712-38.98-78.352-83.448-78.352-12.936 0-25.064 3.164-36.012 8.4l55.809 55.809c2.94 2.94 4.956 6.412 6.3 10.080 3.668 9.94 1.68 21.508-6.3 29.516-5.46 5.46-12.628 8.204-19.799 8.204-3.304 0-6.58-0.728-9.716-1.904-3.668-1.372-7.14-3.36-10.080-6.3l-55.809-55.809c-5.236 10.948-8.4 23.076-8.4 36.012 0 44.468 34.64 80.48 78.352 83.448 1.904 0.112 3.724 0.56 5.656 0.56 10.248 0 19.967-2.1 29.040-5.46l172.444 172.444c-3.36 9.072-5.46 18.79-5.46 29.040 0 1.932 0.448 3.752 0.56 5.656 2.968 43.712 38.98 78.352 83.448 78.352 12.936 0 25.064-3.164 36.012-8.4l-55.81-55.81c-2.94-2.94-4.956-6.412-6.3-10.080-3.668-9.94-1.68-21.508 6.3-29.516 5.46-5.46 12.628-8.204 19.799-8.204 3.304 0 6.58 0.728 9.716 1.904 3.668 1.372 7.14 3.36 10.080 6.3l55.81 55.81c5.236-10.948 8.4-23.076 8.4-36.012 0-44.468-34.64-80.48-78.352-83.448z"></path>
</svg>
