<?xml version="1.0" encoding="utf-8"?>
<!-- Generator: Adobe Illustrator 22.1.0, SVG Export Plug-In . SVG Version: 6.00 Build 0)  -->
<svg version="1.1" id="Layer_1" xmlns="http://www.w3.org/2000/svg" xmlns:xlink="http://www.w3.org/1999/xlink" x="0px" y="0px"
	 viewBox="0 0 32 32" style="enable-background:new 0 0 32 32;" xml:space="preserve">
<g>
	<path d="M7.7,9.8c-0.3,0-0.5,0-0.8,0c-0.3,0-0.6,0-0.8,0c-3.7,0.3-5.3,2.6-5.6,7h12.8C12.8,12.4,11.1,10.1,7.7,9.8z"/>
	<path d="M26.1,24.9c-0.3,0-0.5,0-0.8,0s-0.6,0-0.8,0c-3.7,0.3-5.3,2.6-5.6,7h12.8C31.3,27.6,29.5,25.2,26.1,24.9z"/>
	<path d="M16.5,20.9H14l2.1,2.1h-5.7c-1.7,0-2.7-0.7-2.7-2.1v-2.2H6v2.2c0,1.7,1.2,3.8,4.4,3.8h5.7l-2.1,2h2.5l2.9-2.9L16.5,20.9z"
		/>
	<path d="M17.9,11.8l-2.1-2.1h5.7c2.4,0,2.7,1.4,2.7,2.1V14h1.7v-2.2c0-1.7-1.2-3.8-4.4-3.8h-5.7l2.1-2h-2.5l-2.9,2.9l2.9,2.9H17.9z
		"/>
	<path d="M21.3,20.1c0,2.2,1.8,4,4,4c2.1,0,3.8-1.7,4-3.7c0-0.1,0-0.1,0-0.2c0,0,0,0,0-0.1c0,0,0,0,0,0c0,0,0,0,0-0.1
		c0-0.1,0-0.1,0-0.2c0-0.3-0.1-0.6-0.2-0.9c0,0,0,0,0,0c0-0.1,0-0.1-0.1-0.2c-0.6-1.5-2-2.6-3.7-2.6C23.1,16.1,21.3,17.9,21.3,20.1z
		"/>
	<path d="M6.8,8.9c2.1,0,3.9-1.7,3.9-3.9c0-0.6-0.1-1.1-0.3-1.6c0-0.1-0.1-0.1-0.1-0.2c0,0,0,0-0.1-0.1c-0.7-1.2-1.9-2-3.4-2
		C4.7,1.2,3,2.9,3,5S4.7,8.9,6.8,8.9z"/>
</g>
</svg>
