<?xml version="1.0" encoding="utf-8"?>
<!-- Generator: Adobe Illustrator 22.1.0, SVG Export Plug-In . SVG Version: 6.00 Build 0)  -->
<svg version="1.1" id="Layer_1" xmlns="http://www.w3.org/2000/svg" xmlns:xlink="http://www.w3.org/1999/xlink" x="0px" y="0px"
	 viewBox="0 0 32 32" style="enable-background:new 0 0 32 32;" xml:space="preserve">
<g>
	<path d="M26.8,9.9c-0.2,0-0.3-0.1-0.5-0.1c-0.2,0-0.3,0-0.5,0.1c0,0-0.1,0-0.1,0c-0.1,0-0.3,0.1-0.4,0.1c0,0-0.1,0-0.1,0.1
		c-0.1,0-0.2,0.1-0.3,0.2c-0.1,0-0.1,0.1-0.2,0.1c-0.1,0.1-0.1,0.1-0.2,0.2c-0.1,0.1-0.1,0.1-0.2,0.2c-0.2,0.2-0.4,0.5-0.5,0.7
		c0,0.1-0.1,0.1-0.1,0.2c0,0.1-0.1,0.2-0.1,0.3c0,0,0,0.1,0,0.1c0,0.2-0.1,0.3-0.1,0.5c0,0.2,0,0.3,0,0.5c0,0.1,0,0.1,0,0.2
		c0,0.1,0,0.1,0.1,0.2c0.1,0.2,0.1,0.4,0.2,0.5c0.3,0.5,0.7,0.8,1.1,1.1c0.1,0.1,0.3,0.1,0.5,0.2c0.1,0,0.1,0,0.2,0.1
		c0.1,0,0.1,0,0.2,0c0.2,0,0.3,0,0.5,0c0.2,0,0.3,0,0.5,0c0.1,0,0.1,0,0.2,0c0.1,0,0.1,0,0.2-0.1c0.2-0.1,0.3-0.1,0.5-0.2
		c0.5-0.3,0.9-0.6,1.1-1.1c0.1-0.2,0.2-0.3,0.2-0.5c0-0.1,0-0.1,0.1-0.2c0-0.1,0-0.1,0-0.2c0-0.2,0-0.3,0-0.5c0-0.2,0-0.3-0.1-0.5
		c0,0,0-0.1,0-0.1c0-0.1-0.1-0.2-0.1-0.3c0-0.1-0.1-0.2-0.1-0.2c-0.1-0.3-0.3-0.5-0.5-0.7c-0.1-0.1-0.1-0.1-0.2-0.2
		c-0.1-0.1-0.1-0.1-0.2-0.2c-0.1-0.1-0.1-0.1-0.2-0.1c-0.1-0.1-0.2-0.1-0.3-0.2c0,0-0.1,0-0.1-0.1c-0.1-0.1-0.3-0.1-0.4-0.1
		C26.9,9.9,26.9,9.9,26.8,9.9z"/>
	<path d="M26.3,16.2c-0.2,0-0.4,0-0.6,0c-2.8,0.2-4,2-4.2,5.3h9.7c-0.3-3.3-1.6-5.1-4.2-5.3C26.8,16.2,26.6,16.2,26.3,16.2z"/>
	<path d="M3.3,13.3c0,0.1,0,0.1,0.1,0.2c0.1,0.2,0.1,0.4,0.2,0.5c0.3,0.5,0.7,0.8,1.1,1.1c0.1,0.1,0.3,0.1,0.5,0.2
		c0.1,0,0.1,0,0.2,0.1c0.1,0,0.1,0,0.2,0c0.2,0,0.3,0,0.5,0s0.3,0,0.5,0c0.1,0,0.1,0,0.2,0c0.1,0,0.1,0,0.2-0.1
		c0.2-0.1,0.3-0.1,0.5-0.2c0.5-0.3,0.9-0.6,1.1-1.1c0.1-0.2,0.2-0.3,0.2-0.5c0-0.1,0-0.1,0.1-0.2c0-0.1,0-0.1,0-0.2
		c0-0.2,0-0.3,0-0.5c0-0.2,0-0.3-0.1-0.5c0,0,0-0.1,0-0.1c0-0.1-0.1-0.2-0.1-0.3c0-0.1-0.1-0.2-0.1-0.2c-0.1-0.3-0.3-0.5-0.5-0.7
		c-0.1-0.1-0.1-0.1-0.2-0.2c-0.1-0.1-0.1-0.1-0.2-0.2c-0.1-0.1-0.1-0.1-0.2-0.1c-0.1-0.1-0.2-0.1-0.3-0.2c0,0-0.1,0-0.1-0.1
		C7,10,6.8,9.9,6.7,9.9c0,0-0.1,0-0.1,0c-0.2,0-0.3-0.1-0.5-0.1c-0.2,0-0.3,0-0.5,0.1c0,0-0.1,0-0.1,0C5.3,9.9,5.2,10,5,10
		c0,0-0.1,0-0.1,0.1c-0.1,0-0.2,0.1-0.3,0.2c-0.1,0-0.1,0.1-0.2,0.1c-0.1,0.1-0.1,0.1-0.2,0.2c-0.1,0.1-0.1,0.1-0.2,0.2
		c-0.2,0.2-0.4,0.5-0.5,0.7v0c0,0,0,0,0,0c0,0.1-0.1,0.1-0.1,0.2c0,0.1-0.1,0.2-0.1,0.3c0,0,0,0.1,0,0.1c0,0.2-0.1,0.3-0.1,0.5
		c0,0.2,0,0.3,0,0.5C3.3,13.2,3.3,13.2,3.3,13.3z"/>
	<path d="M6.7,16.2c-0.2,0-0.4,0-0.6,0c-0.2,0-0.4,0-0.6,0c-2.8,0.2-4,2-4.2,5.3h9.7C10.6,18.2,9.3,16.5,6.7,16.2z"/>
	<path d="M6.5,8.6c2.4-3.2,6.3-5,10.3-4.8c3.3,0.2,6.4,1.7,8.6,4.2l-1.6-0.3l0.8,1.2l2.4,0.4l0.4-2.4l-0.8-1.2l-0.3,1.7
		c-2.4-2.8-5.8-4.5-9.4-4.6C12.5,2.6,8.3,4.5,5.7,7.9C5.5,8.2,5.5,8.5,5.8,8.7C6,8.8,6.3,8.8,6.5,8.6z"/>
	<path d="M25.7,23.5c-2.4,3.1-6.2,4.8-10.1,4.6c-3.2-0.1-6.3-1.6-8.4-4l1.6,0.2l-0.9-1.2l-2.4-0.4l-0.4,2.4L6,26.4l0.3-1.7
		c2.4,2.7,5.7,4.3,9.3,4.5c0.2,0,0.4,0,0.6,0c4,0,7.9-1.9,10.4-5c0.2-0.2,0.1-0.5-0.1-0.7C26.2,23.2,25.9,23.3,25.7,23.5z"/>
</g>
</svg>
