<?xml version="1.0" encoding="utf-8"?>
<!-- Generated by IcoMoon.io -->
<!DOCTYPE svg PUBLIC "-//W3C//DTD SVG 1.1//EN" "http://www.w3.org/Graphics/SVG/1.1/DTD/svg11.dtd">
<svg version="1.1" xmlns="http://www.w3.org/2000/svg" xmlns:xlink="http://www.w3.org/1999/xlink" width="512" height="512" viewBox="0 0 512 512">
<path fill="#000000" d="M345.299 345.299v-89.299c0-16.431 13.336-29.766 29.766-29.766h89.299v-59.532c0-16.431-13.336-29.766-29.766-29.766h-34.172l-14.526-86.292c-0.654-3.93-2.888-7.442-6.132-9.704-3.274-2.292-7.352-3.096-11.252-2.47l-293.824 54.056c-3.9 0.714-7.382 2.976-9.614 6.28s-3.066 7.352-2.262 11.282l5.328 26.85h-20.509c-16.431 0-29.766 13.336-29.766 29.766v267.897c0 16.431 13.336 29.766 29.766 29.766h386.962c16.431 0 29.766-13.336 29.766-29.766v-59.532h-89.299c-16.431 0-29.766-13.336-29.766-29.766zM94.934 119.074l264.116-48.608 11.192 66.468h-271.766l-3.542-17.86zM479.248 256h-104.182v89.299h104.182c8.216 0 14.884-6.668 14.884-14.884v-59.532c0-8.216-6.668-14.884-14.884-14.884zM419.714 315.532c-8.216 0-14.884-6.668-14.884-14.884s6.668-14.884 14.884-14.884 14.884 6.668 14.884 14.884c0 8.216-6.668 14.884-14.884 14.884z"></path>
</svg>
