<?xml version="1.0" encoding="utf-8"?>
<!-- Generated by IcoMoon.io -->
<!DOCTYPE svg PUBLIC "-//W3C//DTD SVG 1.1//EN" "http://www.w3.org/Graphics/SVG/1.1/DTD/svg11.dtd">
<svg version="1.1" xmlns="http://www.w3.org/2000/svg" xmlns:xlink="http://www.w3.org/1999/xlink" width="512" height="512" viewBox="0 0 512 512">
<path fill="#000000" d="M40.427 472.532h430.156c10.858 0 20.942-5.692 26.541-15.034 5.599-9.311 5.877-20.88 0.773-30.469l-214.614-402.131c-5.351-10.053-15.838-16.364-27.252-16.364h-0.031c-11.414 0-21.87 6.279-27.252 16.333l-215.573 402.131c-5.135 9.589-4.857 21.158 0.711 30.5 5.599 9.311 15.683 15.034 26.541 15.034zM256 348.799c17.075 0 30.933 13.858 30.933 30.933s-13.858 30.933-30.933 30.933-30.933-13.858-30.933-30.933c0-17.075 13.858-30.933 30.933-30.933zM225.067 287.428v-123.733c0-17.075 13.858-30.933 30.933-30.933s30.933 13.858 30.933 30.933v123.733c0 17.075-13.858 30.933-30.933 30.933s-30.933-13.858-30.933-30.933z"></path>
</svg>
