<?xml version="1.0" encoding="utf-8"?>
<!-- Generated by IcoMoon.io -->
<!DOCTYPE svg PUBLIC "-//W3C//DTD SVG 1.1//EN" "http://www.w3.org/Graphics/SVG/1.1/DTD/svg11.dtd">
<svg version="1.1" xmlns="http://www.w3.org/2000/svg" xmlns:xlink="http://www.w3.org/1999/xlink" width="512" height="512" viewBox="0 0 512 512">
<path fill="#000000" d="M489.853 141.792c0 0-5.438-34.442-18.127-47.132-18.127-18.127-38.070-18.127-47.132-19.94-68.887-5.438-168.592-5.438-168.592-5.438s-99.705 0-168.592 5.438c-9.065 0-29.005 0-47.133 19.94-14.502 14.502-18.128 47.132-18.128 47.132s-5.438 41.695-5.438 79.763v36.255c0 41.695 5.438 79.762 5.438 79.762s5.438 34.442 18.128 47.132c18.128 18.127 41.695 18.127 52.572 19.94 38.070 1.813 163.153 5.438 163.153 5.438s99.705 0 168.592-5.438c9.065 0 29.005 0 47.132-19.94 14.502-14.502 18.127-47.132 18.127-47.132s5.438-38.070 5.438-79.762v-36.255c0-41.695-5.438-79.762-5.438-79.762zM185.3 339.39v-197.596l186.72 97.892-186.72 99.705z"></path>
</svg>
